G04 #@! TF.FileFunction,Soldermask,Top*
%FSLAX46Y46*%
G04 Gerber Fmt 4.6, Leading zero omitted, Abs format (unit mm)*
G04 Created by KiCad (PCBNEW 4.0.2-4+6225~38~ubuntu15.10.1-stable) date Sat 09 Apr 2016 11:14:47 AM CDT*
%MOMM*%
G01*
G04 APERTURE LIST*
%ADD10C,0.100000*%
%ADD11R,2.200860X2.899360*%
%ADD12R,1.598880X1.598880*%
%ADD13R,1.400000X1.900000*%
%ADD14R,0.800000X1.600000*%
%ADD15R,2.127200X2.432000*%
%ADD16O,2.127200X2.432000*%
%ADD17R,1.460000X1.050000*%
%ADD18R,1.300000X0.900000*%
%ADD19R,1.150000X1.200000*%
%ADD20R,1.200000X1.150000*%
%ADD21R,2.432000X2.127200*%
%ADD22O,2.432000X2.127200*%
%ADD23R,1.750000X0.800000*%
%ADD24O,1.350000X1.650000*%
%ADD25O,1.950000X1.400000*%
%ADD26R,2.940000X2.940000*%
%ADD27C,2.940000*%
%ADD28R,1.200100X1.200100*%
%ADD29R,0.900000X1.300000*%
%ADD30C,1.924000*%
%ADD31R,1.400000X1.300000*%
%ADD32R,1.620000X1.310000*%
%ADD33R,2.899360X2.200860*%
G04 APERTURE END LIST*
D10*
D11*
X173440000Y-52378980D03*
X173440000Y-48381020D03*
D12*
X125040000Y-55280000D03*
X127138040Y-55280000D03*
D13*
X152046000Y-59966000D03*
X150546000Y-59966000D03*
X149046000Y-59966000D03*
X153546000Y-59966000D03*
X155046000Y-59966000D03*
X156546000Y-59966000D03*
X161046000Y-59966000D03*
X159546000Y-59966000D03*
X158046000Y-59966000D03*
X158046000Y-77966000D03*
X159546000Y-77966000D03*
X161046000Y-77966000D03*
X156546000Y-77966000D03*
X155046000Y-77966000D03*
X153546000Y-77966000D03*
X149046000Y-77966000D03*
X150546000Y-77966000D03*
X152046000Y-77966000D03*
D14*
X121812500Y-69562000D03*
X121177500Y-69562000D03*
X120542500Y-69562000D03*
X119907500Y-69562000D03*
X119272500Y-69562000D03*
X118637500Y-69562000D03*
X118002500Y-69562000D03*
X117367500Y-69562000D03*
X117367500Y-74762000D03*
X118002500Y-74762000D03*
X118637500Y-74762000D03*
X119272500Y-74762000D03*
X119907500Y-74762000D03*
X120542500Y-74762000D03*
X121177500Y-74762000D03*
X121812500Y-74762000D03*
D15*
X174200000Y-81814000D03*
D16*
X171660000Y-81814000D03*
X169120000Y-81814000D03*
X166580000Y-81814000D03*
X164040000Y-81814000D03*
X161500000Y-81814000D03*
X158960000Y-81814000D03*
X156420000Y-81814000D03*
X153880000Y-81814000D03*
X151340000Y-81814000D03*
D12*
X124040000Y-84674040D03*
X124040000Y-82576000D03*
D17*
X119082000Y-60864000D03*
X119082000Y-61814000D03*
X119082000Y-62764000D03*
X121282000Y-62764000D03*
X121282000Y-60864000D03*
D18*
X118828000Y-67336000D03*
X118828000Y-65836000D03*
D19*
X125178000Y-59474000D03*
X125178000Y-60974000D03*
X126956000Y-59474000D03*
X126956000Y-60974000D03*
D20*
X143212000Y-89180000D03*
X141712000Y-89180000D03*
X113506000Y-77242000D03*
X115006000Y-77242000D03*
D19*
X117050000Y-67336000D03*
X117050000Y-65836000D03*
D12*
X153289020Y-85680000D03*
X151190980Y-85680000D03*
X126440000Y-84678040D03*
X126440000Y-82580000D03*
X128940000Y-84729020D03*
X128940000Y-82630980D03*
D21*
X164802000Y-74702000D03*
D22*
X164802000Y-72162000D03*
X164802000Y-69622000D03*
X164802000Y-67082000D03*
X164802000Y-64542000D03*
X164802000Y-62002000D03*
D15*
X151594000Y-56160000D03*
D16*
X154134000Y-56160000D03*
X156674000Y-56160000D03*
X159214000Y-56160000D03*
X161754000Y-56160000D03*
X164294000Y-56160000D03*
X166834000Y-56160000D03*
X169374000Y-56160000D03*
X171914000Y-56160000D03*
X174454000Y-56160000D03*
D23*
X113024540Y-67559100D03*
X113024540Y-68209100D03*
X113024540Y-68859100D03*
X113024540Y-69509100D03*
X113024540Y-70159100D03*
D24*
X113024540Y-66359100D03*
X113024540Y-71359100D03*
D25*
X110324540Y-65359100D03*
X110324540Y-72359100D03*
D26*
X187408000Y-71908000D03*
D27*
X187408000Y-66828000D03*
D28*
X168236000Y-51334000D03*
X170136000Y-51334000D03*
X169186000Y-49335020D03*
X135016000Y-83962000D03*
X136916000Y-83962000D03*
X135966000Y-81963020D03*
X141540000Y-84034000D03*
X143440000Y-84034000D03*
X142490000Y-82035020D03*
D18*
X153240000Y-87880000D03*
X153240000Y-89380000D03*
D29*
X156890000Y-50480000D03*
X158390000Y-50480000D03*
D18*
X111208000Y-62498000D03*
X111208000Y-60998000D03*
X130140000Y-76980000D03*
X130140000Y-78480000D03*
X151140000Y-89380000D03*
X151140000Y-87880000D03*
X146260000Y-87656000D03*
X146260000Y-89156000D03*
D29*
X143212000Y-86894000D03*
X141712000Y-86894000D03*
X130090000Y-55280000D03*
X131590000Y-55280000D03*
D18*
X132798000Y-77000000D03*
X132798000Y-78500000D03*
D29*
X114994000Y-74956000D03*
X113494000Y-74956000D03*
D18*
X126140000Y-78512000D03*
X126140000Y-77012000D03*
D29*
X156890000Y-48480000D03*
X158390000Y-48480000D03*
D18*
X124040000Y-78580000D03*
X124040000Y-77080000D03*
X139140000Y-83830000D03*
X139140000Y-82330000D03*
X128140000Y-78480000D03*
X128140000Y-76980000D03*
D30*
X181312000Y-63526000D03*
X181312000Y-75726000D03*
X169312000Y-75726000D03*
X169312000Y-63526000D03*
X175312000Y-61726000D03*
D31*
X168322000Y-88418000D03*
X168322000Y-90018000D03*
X172422000Y-88418000D03*
X172422000Y-90018000D03*
D18*
X119590000Y-78512000D03*
X119590000Y-77012000D03*
D21*
X125940000Y-65304000D03*
D22*
X125940000Y-67844000D03*
X125940000Y-70384000D03*
X125940000Y-72924000D03*
D19*
X113240000Y-62498000D03*
X113240000Y-60998000D03*
X117304000Y-77012000D03*
X117304000Y-78512000D03*
D32*
X115790000Y-60845000D03*
X115790000Y-64115000D03*
D33*
X128688980Y-89180000D03*
X124691020Y-89180000D03*
M02*
