M48
;DRILL file {KiCad 4.0.2-4+6225~38~ubuntu15.10.1-stable} date Sat 09 Apr 2016 11:14:45 AM CDT
;FORMAT={-:-/ absolute / inch / decimal}
FMAT,2
INCH,TZ
T1C0.016
T2C0.020
T3C0.022
T4C0.030
T5C0.040
T6C0.060
%
G90
G05
M72
T1
X4.3383Y-2.811
X4.4183Y-2.401
X4.5083Y-2.811
X4.5291Y-3.0898
X4.6236Y-2.5543
X4.663Y-3.0898
X4.6883Y-2.781
X4.7024Y-2.8299
X4.7283Y-2.891
X4.7287Y-2.4339
X4.7732Y-2.4283
X4.8047Y-2.5465
X4.8717Y-3.448
X4.9583Y-2.341
X5.3126Y-2.4283
X5.4031Y-3.1685
X5.4268Y-3.3063
X5.5449Y-3.5465
X5.6945Y-3.3496
X5.7614Y-3.3496
X5.7811Y-2.4126
X5.789Y-3.0189
X5.8205Y-2.3575
X5.8283Y-2.9638
X5.8677Y-2.4126
X5.9898Y-3.5228
X6.0252Y-2.4205
X6.1276Y-2.4205
X6.1591Y-3.0031
X6.2102Y-3.3102
X6.222Y-2.4047
X6.2693Y-1.9874
X6.2929Y-3.3732
X6.3402Y-3.0189
X6.3835Y-3.0701
X6.7102Y-3.5425
X6.7339Y-2.0189
T4
X6.6658Y-2.501
X6.6658Y-2.9813
X6.902Y-2.4302
X7.1383Y-2.501
X7.1383Y-2.9813
T5
X4.9583Y-2.571
X4.9583Y-2.671
X4.9583Y-2.771
X4.9583Y-2.871
X5.9583Y-3.221
X5.9683Y-2.211
X6.0583Y-3.221
X6.0683Y-2.211
X6.1583Y-3.221
X6.1683Y-2.211
X6.2583Y-3.221
X6.2683Y-2.211
X6.3583Y-3.221
X6.3683Y-2.211
X6.4583Y-3.221
X6.4683Y-2.211
X6.4883Y-2.441
X6.4883Y-2.541
X6.4883Y-2.641
X6.4883Y-2.741
X6.4883Y-2.841
X6.4883Y-2.941
X6.5583Y-3.221
X6.5683Y-2.211
X6.6583Y-3.221
X6.6683Y-2.211
X6.7583Y-3.221
X6.7683Y-2.211
X6.8583Y-3.221
X6.8683Y-2.211
T6
X7.3783Y-2.631
X7.3783Y-2.831
T2
X4.3307Y-2.5732G85X4.3563Y-2.5732
G05
X4.3307Y-2.8488G85X4.3563Y-2.8488
G05
T3
X4.4498Y-2.6067G85X4.4498Y-2.6185
G05
X4.4498Y-2.8035G85X4.4498Y-2.8153
G05
T0
M30
