G04 #@! TF.FileFunction,Copper,L2,Bot,Signal*
%FSLAX46Y46*%
G04 Gerber Fmt 4.6, Leading zero omitted, Abs format (unit mm)*
G04 Created by KiCad (PCBNEW 4.0.2-4+6225~38~ubuntu15.10.1-stable) date Sat 09 Apr 2016 11:14:47 AM CDT*
%MOMM*%
G01*
G04 APERTURE LIST*
%ADD10C,0.100000*%
%ADD11R,1.727200X2.032000*%
%ADD12O,1.727200X2.032000*%
%ADD13R,2.032000X1.727200*%
%ADD14O,2.032000X1.727200*%
%ADD15O,0.950000X1.250000*%
%ADD16O,1.550000X1.000000*%
%ADD17R,2.540000X2.540000*%
%ADD18C,2.540000*%
%ADD19C,1.524000*%
%ADD20C,0.600000*%
%ADD21C,0.250000*%
G04 APERTURE END LIST*
D10*
D11*
X174200000Y-81814000D03*
D12*
X171660000Y-81814000D03*
X169120000Y-81814000D03*
X166580000Y-81814000D03*
X164040000Y-81814000D03*
X161500000Y-81814000D03*
X158960000Y-81814000D03*
X156420000Y-81814000D03*
X153880000Y-81814000D03*
X151340000Y-81814000D03*
D13*
X164802000Y-74702000D03*
D14*
X164802000Y-72162000D03*
X164802000Y-69622000D03*
X164802000Y-67082000D03*
X164802000Y-64542000D03*
X164802000Y-62002000D03*
D11*
X151594000Y-56160000D03*
D12*
X154134000Y-56160000D03*
X156674000Y-56160000D03*
X159214000Y-56160000D03*
X161754000Y-56160000D03*
X164294000Y-56160000D03*
X166834000Y-56160000D03*
X169374000Y-56160000D03*
X171914000Y-56160000D03*
X174454000Y-56160000D03*
D15*
X113024540Y-66359100D03*
X113024540Y-71359100D03*
D16*
X110324540Y-65359100D03*
X110324540Y-72359100D03*
D17*
X187408000Y-71908000D03*
D18*
X187408000Y-66828000D03*
D19*
X181312000Y-63526000D03*
X181312000Y-75726000D03*
X169312000Y-75726000D03*
X169312000Y-63526000D03*
X175312000Y-61726000D03*
D13*
X125940000Y-65304000D03*
D14*
X125940000Y-67844000D03*
X125940000Y-70384000D03*
X125940000Y-72924000D03*
D20*
X123740000Y-87580000D03*
X159240000Y-50480000D03*
X171040000Y-51280000D03*
X149040000Y-61280000D03*
X147840000Y-59880000D03*
X155640000Y-61480000D03*
X162140000Y-77980000D03*
X161040000Y-76680000D03*
X170440000Y-89980000D03*
X137840000Y-83980000D03*
X140840000Y-90080000D03*
X115040000Y-78480000D03*
X117440000Y-64880000D03*
X120110000Y-61820000D03*
X114510000Y-71400000D03*
X110192000Y-71400000D03*
X125940000Y-59462000D03*
X112224000Y-60986000D03*
X119082000Y-70638000D03*
X120098000Y-73432000D03*
X153040000Y-61480000D03*
X157740000Y-84080000D03*
X122040000Y-64680000D03*
X148040000Y-75280000D03*
X147040000Y-76680000D03*
X159840000Y-85680000D03*
X156440000Y-76280000D03*
X146840000Y-61280000D03*
X118440000Y-78480000D03*
X121240000Y-61680000D03*
X134940000Y-61680000D03*
X158040000Y-61080000D03*
X152140000Y-89480000D03*
X146340000Y-85080000D03*
X144640000Y-85080000D03*
X137240000Y-80480000D03*
X119440000Y-71880000D03*
D21*
X157740000Y-84080000D02*
X157740000Y-66180000D01*
X157740000Y-66180000D02*
X153040000Y-61480000D01*
X164802000Y-67082000D02*
X164954400Y-67082000D01*
X169374000Y-56312400D02*
X169374000Y-56160000D01*
X122040000Y-64680000D02*
X122664000Y-65304000D01*
X122664000Y-65304000D02*
X125940000Y-65304000D01*
X147040000Y-76280000D02*
X147040000Y-76680000D01*
X148040000Y-75280000D02*
X147040000Y-76280000D01*
X160940000Y-83380000D02*
X165166400Y-83380000D01*
X165166400Y-83380000D02*
X166580000Y-81966400D01*
X166580000Y-81966400D02*
X166580000Y-81814000D01*
X159840000Y-84480000D02*
X160940000Y-83380000D01*
X159840000Y-85680000D02*
X159840000Y-84480000D01*
X146840000Y-61280000D02*
X146840000Y-66680000D01*
X146840000Y-66680000D02*
X156440000Y-76280000D01*
X118440000Y-64480000D02*
X118440000Y-78480000D01*
X121240000Y-61680000D02*
X118440000Y-64480000D01*
X134940000Y-61680000D02*
X134940000Y-66527600D01*
X134940000Y-66527600D02*
X150226400Y-81814000D01*
X150226400Y-81814000D02*
X151340000Y-81814000D01*
X158640000Y-67266000D02*
X158640000Y-61680000D01*
X158640000Y-61680000D02*
X158040000Y-61080000D01*
X164802000Y-72162000D02*
X163536000Y-72162000D01*
X163536000Y-72162000D02*
X158640000Y-67266000D01*
X164802000Y-72162000D02*
X164649600Y-72162000D01*
X152140000Y-89480000D02*
X153880000Y-87740000D01*
X153880000Y-87740000D02*
X153880000Y-81814000D01*
X144640000Y-85080000D02*
X146340000Y-85080000D01*
X119440000Y-71880000D02*
X128040000Y-80480000D01*
X128040000Y-80480000D02*
X137240000Y-80480000D01*
G36*
X176115003Y-58980899D02*
X176125201Y-59029459D01*
X176153488Y-59070226D01*
X176195407Y-59096775D01*
X176240595Y-59104999D01*
X187790384Y-59050000D01*
X190650000Y-59050000D01*
X190650000Y-79150000D01*
X177100000Y-79150000D01*
X176927792Y-79184254D01*
X176814049Y-79260255D01*
X176791368Y-79264848D01*
X176750399Y-79292841D01*
X176723549Y-79334568D01*
X176715003Y-79379067D01*
X176714983Y-79381804D01*
X176684254Y-79427792D01*
X176650000Y-79600000D01*
X176650000Y-88089506D01*
X176615967Y-92650000D01*
X174010397Y-92650000D01*
X122265000Y-92555229D01*
X122265000Y-88600000D01*
X133150000Y-88600000D01*
X133374555Y-89728916D01*
X134014035Y-90685965D01*
X134971084Y-91325445D01*
X136100000Y-91550000D01*
X137228916Y-91325445D01*
X138185965Y-90685965D01*
X138825445Y-89728916D01*
X138848367Y-89613677D01*
X151464883Y-89613677D01*
X151567429Y-89861857D01*
X151757144Y-90051903D01*
X152005145Y-90154883D01*
X152273677Y-90155117D01*
X152521857Y-90052571D01*
X152711903Y-89862856D01*
X152814883Y-89614855D01*
X152814973Y-89512134D01*
X153727107Y-88600000D01*
X159457418Y-88600000D01*
X159696633Y-89802614D01*
X160377859Y-90822141D01*
X161397386Y-91503367D01*
X162600000Y-91742582D01*
X163802614Y-91503367D01*
X164822141Y-90822141D01*
X165503367Y-89802614D01*
X165742582Y-88600000D01*
X165503367Y-87397386D01*
X164822141Y-86377859D01*
X163802614Y-85696633D01*
X162600000Y-85457418D01*
X161397386Y-85696633D01*
X160377859Y-86377859D01*
X159696633Y-87397386D01*
X159457418Y-88600000D01*
X153727107Y-88600000D01*
X154233554Y-88093553D01*
X154298526Y-87996314D01*
X154341940Y-87931342D01*
X154380000Y-87740000D01*
X154380000Y-85813677D01*
X159164883Y-85813677D01*
X159267429Y-86061857D01*
X159457144Y-86251903D01*
X159705145Y-86354883D01*
X159973677Y-86355117D01*
X160221857Y-86252571D01*
X160411903Y-86062856D01*
X160514883Y-85814855D01*
X160515117Y-85546323D01*
X160412571Y-85298143D01*
X160340000Y-85225445D01*
X160340000Y-84687106D01*
X161147106Y-83880000D01*
X165166400Y-83880000D01*
X165357742Y-83841940D01*
X165519953Y-83733553D01*
X166113957Y-83139549D01*
X166580000Y-83232251D01*
X167053992Y-83137968D01*
X167455822Y-82869473D01*
X167724317Y-82467643D01*
X167818600Y-81993651D01*
X167818600Y-81634349D01*
X167881400Y-81634349D01*
X167881400Y-81993651D01*
X167975683Y-82467643D01*
X168244178Y-82869473D01*
X168646008Y-83137968D01*
X169120000Y-83232251D01*
X169593992Y-83137968D01*
X169995822Y-82869473D01*
X170264317Y-82467643D01*
X170269650Y-82440834D01*
X170370854Y-82728945D01*
X170760798Y-83164235D01*
X171287637Y-83417165D01*
X171299340Y-83418893D01*
X171531000Y-83298519D01*
X171531000Y-81943000D01*
X171789000Y-81943000D01*
X171789000Y-83298519D01*
X172020660Y-83418893D01*
X172032363Y-83417165D01*
X172559202Y-83164235D01*
X172716814Y-82988295D01*
X172799768Y-83188565D01*
X172977834Y-83366631D01*
X173210488Y-83463000D01*
X173912750Y-83463000D01*
X174071000Y-83304750D01*
X174071000Y-81943000D01*
X174329000Y-81943000D01*
X174329000Y-83304750D01*
X174487250Y-83463000D01*
X175189512Y-83463000D01*
X175422166Y-83366631D01*
X175600232Y-83188565D01*
X175696600Y-82955911D01*
X175696600Y-82101250D01*
X175538350Y-81943000D01*
X174329000Y-81943000D01*
X174071000Y-81943000D01*
X171789000Y-81943000D01*
X171531000Y-81943000D01*
X171511000Y-81943000D01*
X171511000Y-81685000D01*
X171531000Y-81685000D01*
X171531000Y-80329481D01*
X171789000Y-80329481D01*
X171789000Y-81685000D01*
X174071000Y-81685000D01*
X174071000Y-80323250D01*
X174329000Y-80323250D01*
X174329000Y-81685000D01*
X175538350Y-81685000D01*
X175696600Y-81526750D01*
X175696600Y-80672089D01*
X175600232Y-80439435D01*
X175422166Y-80261369D01*
X175189512Y-80165000D01*
X174487250Y-80165000D01*
X174329000Y-80323250D01*
X174071000Y-80323250D01*
X173912750Y-80165000D01*
X173210488Y-80165000D01*
X172977834Y-80261369D01*
X172799768Y-80439435D01*
X172716814Y-80639705D01*
X172559202Y-80463765D01*
X172032363Y-80210835D01*
X172020660Y-80209107D01*
X171789000Y-80329481D01*
X171531000Y-80329481D01*
X171299340Y-80209107D01*
X171287637Y-80210835D01*
X170760798Y-80463765D01*
X170370854Y-80899055D01*
X170269650Y-81187166D01*
X170264317Y-81160357D01*
X169995822Y-80758527D01*
X169593992Y-80490032D01*
X169120000Y-80395749D01*
X168646008Y-80490032D01*
X168244178Y-80758527D01*
X167975683Y-81160357D01*
X167881400Y-81634349D01*
X167818600Y-81634349D01*
X167724317Y-81160357D01*
X167455822Y-80758527D01*
X167053992Y-80490032D01*
X166580000Y-80395749D01*
X166106008Y-80490032D01*
X165704178Y-80758527D01*
X165435683Y-81160357D01*
X165341400Y-81634349D01*
X165341400Y-81993651D01*
X165425059Y-82414234D01*
X164959294Y-82880000D01*
X164900067Y-82880000D01*
X164915822Y-82869473D01*
X165184317Y-82467643D01*
X165278600Y-81993651D01*
X165278600Y-81634349D01*
X165184317Y-81160357D01*
X164915822Y-80758527D01*
X164513992Y-80490032D01*
X164040000Y-80395749D01*
X163566008Y-80490032D01*
X163164178Y-80758527D01*
X162895683Y-81160357D01*
X162801400Y-81634349D01*
X162801400Y-81993651D01*
X162895683Y-82467643D01*
X163164178Y-82869473D01*
X163179933Y-82880000D01*
X162360067Y-82880000D01*
X162375822Y-82869473D01*
X162644317Y-82467643D01*
X162738600Y-81993651D01*
X162738600Y-81634349D01*
X162644317Y-81160357D01*
X162375822Y-80758527D01*
X161973992Y-80490032D01*
X161500000Y-80395749D01*
X161026008Y-80490032D01*
X160624178Y-80758527D01*
X160355683Y-81160357D01*
X160261400Y-81634349D01*
X160261400Y-81993651D01*
X160355683Y-82467643D01*
X160624178Y-82869473D01*
X160722776Y-82935354D01*
X160586447Y-83026447D01*
X159486447Y-84126447D01*
X159378060Y-84288658D01*
X159340000Y-84480000D01*
X159340000Y-85225366D01*
X159268097Y-85297144D01*
X159165117Y-85545145D01*
X159164883Y-85813677D01*
X154380000Y-85813677D01*
X154380000Y-83120590D01*
X154755822Y-82869473D01*
X155024317Y-82467643D01*
X155118600Y-81993651D01*
X155118600Y-81634349D01*
X155024317Y-81160357D01*
X154755822Y-80758527D01*
X154353992Y-80490032D01*
X153880000Y-80395749D01*
X153406008Y-80490032D01*
X153004178Y-80758527D01*
X152735683Y-81160357D01*
X152641400Y-81634349D01*
X152641400Y-81993651D01*
X152735683Y-82467643D01*
X153004178Y-82869473D01*
X153380000Y-83120590D01*
X153380000Y-87532893D01*
X152107922Y-88804972D01*
X152006323Y-88804883D01*
X151758143Y-88907429D01*
X151568097Y-89097144D01*
X151465117Y-89345145D01*
X151464883Y-89613677D01*
X138848367Y-89613677D01*
X139050000Y-88600000D01*
X138825445Y-87471084D01*
X138185965Y-86514035D01*
X137228916Y-85874555D01*
X136100000Y-85650000D01*
X134971084Y-85874555D01*
X134014035Y-86514035D01*
X133374555Y-87471084D01*
X133150000Y-88600000D01*
X122265000Y-88600000D01*
X122265000Y-85213677D01*
X143964883Y-85213677D01*
X144067429Y-85461857D01*
X144257144Y-85651903D01*
X144505145Y-85754883D01*
X144773677Y-85755117D01*
X145021857Y-85652571D01*
X145094555Y-85580000D01*
X145885366Y-85580000D01*
X145957144Y-85651903D01*
X146205145Y-85754883D01*
X146473677Y-85755117D01*
X146721857Y-85652571D01*
X146911903Y-85462856D01*
X147014883Y-85214855D01*
X147015117Y-84946323D01*
X146912571Y-84698143D01*
X146722856Y-84508097D01*
X146474855Y-84405117D01*
X146206323Y-84404883D01*
X145958143Y-84507429D01*
X145885445Y-84580000D01*
X145094634Y-84580000D01*
X145022856Y-84508097D01*
X144774855Y-84405117D01*
X144506323Y-84404883D01*
X144258143Y-84507429D01*
X144068097Y-84697144D01*
X143965117Y-84945145D01*
X143964883Y-85213677D01*
X122265000Y-85213677D01*
X122265000Y-79180000D01*
X122255152Y-79131368D01*
X122227159Y-79090399D01*
X122185432Y-79063549D01*
X122139911Y-79055000D01*
X118810263Y-79057361D01*
X118821857Y-79052571D01*
X119011903Y-78862856D01*
X119114883Y-78614855D01*
X119115117Y-78346323D01*
X119012571Y-78098143D01*
X118940000Y-78025445D01*
X118940000Y-72334555D01*
X119057144Y-72451903D01*
X119305145Y-72554883D01*
X119407866Y-72554973D01*
X127686447Y-80833554D01*
X127783686Y-80898526D01*
X127848658Y-80941940D01*
X128040000Y-80980000D01*
X136785366Y-80980000D01*
X136857144Y-81051903D01*
X137105145Y-81154883D01*
X137373677Y-81155117D01*
X137621857Y-81052571D01*
X137811903Y-80862856D01*
X137914883Y-80614855D01*
X137915117Y-80346323D01*
X137812571Y-80098143D01*
X137622856Y-79908097D01*
X137374855Y-79805117D01*
X137106323Y-79804883D01*
X136858143Y-79907429D01*
X136785445Y-79980000D01*
X128247107Y-79980000D01*
X121551767Y-73284660D01*
X124335107Y-73284660D01*
X124336835Y-73296363D01*
X124589765Y-73823202D01*
X125025055Y-74213146D01*
X125576435Y-74406829D01*
X125811000Y-74263356D01*
X125811000Y-73053000D01*
X126069000Y-73053000D01*
X126069000Y-74263356D01*
X126303565Y-74406829D01*
X126854945Y-74213146D01*
X127290235Y-73823202D01*
X127543165Y-73296363D01*
X127544893Y-73284660D01*
X127424519Y-73053000D01*
X126069000Y-73053000D01*
X125811000Y-73053000D01*
X124455481Y-73053000D01*
X124335107Y-73284660D01*
X121551767Y-73284660D01*
X120830447Y-72563340D01*
X124335107Y-72563340D01*
X124455481Y-72795000D01*
X125811000Y-72795000D01*
X125811000Y-72775000D01*
X126069000Y-72775000D01*
X126069000Y-72795000D01*
X127424519Y-72795000D01*
X127544893Y-72563340D01*
X127543165Y-72551637D01*
X127290235Y-72024798D01*
X126854945Y-71634854D01*
X126566834Y-71533650D01*
X126593643Y-71528317D01*
X126995473Y-71259822D01*
X127263968Y-70857992D01*
X127358251Y-70384000D01*
X127263968Y-69910008D01*
X126995473Y-69508178D01*
X126593643Y-69239683D01*
X126119651Y-69145400D01*
X125760349Y-69145400D01*
X125286357Y-69239683D01*
X124884527Y-69508178D01*
X124616032Y-69910008D01*
X124521749Y-70384000D01*
X124616032Y-70857992D01*
X124884527Y-71259822D01*
X125286357Y-71528317D01*
X125313166Y-71533650D01*
X125025055Y-71634854D01*
X124589765Y-72024798D01*
X124336835Y-72551637D01*
X124335107Y-72563340D01*
X120830447Y-72563340D01*
X120115028Y-71847922D01*
X120115117Y-71746323D01*
X120012571Y-71498143D01*
X119822856Y-71308097D01*
X119574855Y-71205117D01*
X119306323Y-71204883D01*
X119058143Y-71307429D01*
X118940000Y-71425366D01*
X118940000Y-67844000D01*
X124521749Y-67844000D01*
X124616032Y-68317992D01*
X124884527Y-68719822D01*
X125286357Y-68988317D01*
X125760349Y-69082600D01*
X126119651Y-69082600D01*
X126593643Y-68988317D01*
X126995473Y-68719822D01*
X127263968Y-68317992D01*
X127358251Y-67844000D01*
X127263968Y-67370008D01*
X126995473Y-66968178D01*
X126593643Y-66699683D01*
X126119651Y-66605400D01*
X125760349Y-66605400D01*
X125286357Y-66699683D01*
X124884527Y-66968178D01*
X124616032Y-67370008D01*
X124521749Y-67844000D01*
X118940000Y-67844000D01*
X118940000Y-64813677D01*
X121364883Y-64813677D01*
X121467429Y-65061857D01*
X121657144Y-65251903D01*
X121905145Y-65354883D01*
X122007866Y-65354973D01*
X122310446Y-65657553D01*
X122401001Y-65718060D01*
X122472658Y-65765940D01*
X122664000Y-65804000D01*
X124541654Y-65804000D01*
X124541654Y-66167600D01*
X124567802Y-66306566D01*
X124649931Y-66434199D01*
X124775246Y-66519823D01*
X124924000Y-66549946D01*
X126956000Y-66549946D01*
X127094966Y-66523798D01*
X127222599Y-66441669D01*
X127308223Y-66316354D01*
X127338346Y-66167600D01*
X127338346Y-64440400D01*
X127312198Y-64301434D01*
X127230069Y-64173801D01*
X127104754Y-64088177D01*
X126956000Y-64058054D01*
X124924000Y-64058054D01*
X124785034Y-64084202D01*
X124657401Y-64166331D01*
X124571777Y-64291646D01*
X124541654Y-64440400D01*
X124541654Y-64804000D01*
X122871107Y-64804000D01*
X122715028Y-64647922D01*
X122715117Y-64546323D01*
X122612571Y-64298143D01*
X122422856Y-64108097D01*
X122174855Y-64005117D01*
X121906323Y-64004883D01*
X121658143Y-64107429D01*
X121468097Y-64297144D01*
X121365117Y-64545145D01*
X121364883Y-64813677D01*
X118940000Y-64813677D01*
X118940000Y-64687106D01*
X121272078Y-62355028D01*
X121373677Y-62355117D01*
X121621857Y-62252571D01*
X121811903Y-62062856D01*
X121914883Y-61814855D01*
X121914884Y-61813677D01*
X134264883Y-61813677D01*
X134367429Y-62061857D01*
X134440000Y-62134555D01*
X134440000Y-66527600D01*
X134466710Y-66661879D01*
X134478060Y-66718942D01*
X134586447Y-66881153D01*
X149872846Y-82167553D01*
X150035058Y-82275940D01*
X150162597Y-82301309D01*
X150195683Y-82467643D01*
X150464178Y-82869473D01*
X150866008Y-83137968D01*
X151340000Y-83232251D01*
X151813992Y-83137968D01*
X152215822Y-82869473D01*
X152484317Y-82467643D01*
X152578600Y-81993651D01*
X152578600Y-81634349D01*
X152484317Y-81160357D01*
X152215822Y-80758527D01*
X151813992Y-80490032D01*
X151340000Y-80395749D01*
X150866008Y-80490032D01*
X150464178Y-80758527D01*
X150229401Y-81109894D01*
X145933184Y-76813677D01*
X146364883Y-76813677D01*
X146467429Y-77061857D01*
X146657144Y-77251903D01*
X146905145Y-77354883D01*
X147173677Y-77355117D01*
X147421857Y-77252571D01*
X147611903Y-77062856D01*
X147714883Y-76814855D01*
X147715117Y-76546323D01*
X147646602Y-76380504D01*
X148072078Y-75955028D01*
X148173677Y-75955117D01*
X148421857Y-75852571D01*
X148611903Y-75662856D01*
X148714883Y-75414855D01*
X148715117Y-75146323D01*
X148612571Y-74898143D01*
X148422856Y-74708097D01*
X148174855Y-74605117D01*
X147906323Y-74604883D01*
X147658143Y-74707429D01*
X147468097Y-74897144D01*
X147365117Y-75145145D01*
X147365027Y-75247866D01*
X146686448Y-75926446D01*
X146686447Y-75926447D01*
X146578060Y-76088658D01*
X146553560Y-76211830D01*
X146468097Y-76297144D01*
X146365117Y-76545145D01*
X146364883Y-76813677D01*
X145933184Y-76813677D01*
X135440000Y-66320494D01*
X135440000Y-62134634D01*
X135511903Y-62062856D01*
X135614883Y-61814855D01*
X135615117Y-61546323D01*
X135560309Y-61413677D01*
X146164883Y-61413677D01*
X146267429Y-61661857D01*
X146340000Y-61734555D01*
X146340000Y-66680000D01*
X146349637Y-66728447D01*
X146378060Y-66871342D01*
X146486447Y-67033553D01*
X155764972Y-76312078D01*
X155764883Y-76413677D01*
X155867429Y-76661857D01*
X156057144Y-76851903D01*
X156305145Y-76954883D01*
X156573677Y-76955117D01*
X156821857Y-76852571D01*
X157011903Y-76662856D01*
X157114883Y-76414855D01*
X157115117Y-76146323D01*
X157012571Y-75898143D01*
X156822856Y-75708097D01*
X156574855Y-75605117D01*
X156472134Y-75605027D01*
X147340000Y-66472894D01*
X147340000Y-61734634D01*
X147411903Y-61662856D01*
X147432324Y-61613677D01*
X152364883Y-61613677D01*
X152467429Y-61861857D01*
X152657144Y-62051903D01*
X152905145Y-62154883D01*
X153007866Y-62154973D01*
X157240000Y-66387107D01*
X157240000Y-80721228D01*
X156893992Y-80490032D01*
X156420000Y-80395749D01*
X155946008Y-80490032D01*
X155544178Y-80758527D01*
X155275683Y-81160357D01*
X155181400Y-81634349D01*
X155181400Y-81993651D01*
X155275683Y-82467643D01*
X155544178Y-82869473D01*
X155946008Y-83137968D01*
X156420000Y-83232251D01*
X156893992Y-83137968D01*
X157240000Y-82906772D01*
X157240000Y-83625366D01*
X157168097Y-83697144D01*
X157065117Y-83945145D01*
X157064883Y-84213677D01*
X157167429Y-84461857D01*
X157357144Y-84651903D01*
X157605145Y-84754883D01*
X157873677Y-84755117D01*
X158121857Y-84652571D01*
X158311903Y-84462856D01*
X158414883Y-84214855D01*
X158415117Y-83946323D01*
X158312571Y-83698143D01*
X158240000Y-83625445D01*
X158240000Y-82973590D01*
X158486008Y-83137968D01*
X158960000Y-83232251D01*
X159433992Y-83137968D01*
X159835822Y-82869473D01*
X160104317Y-82467643D01*
X160198600Y-81993651D01*
X160198600Y-81634349D01*
X160104317Y-81160357D01*
X159835822Y-80758527D01*
X159433992Y-80490032D01*
X158960000Y-80395749D01*
X158486008Y-80490032D01*
X158240000Y-80654410D01*
X158240000Y-75951171D01*
X168174803Y-75951171D01*
X168347536Y-76369217D01*
X168667100Y-76689340D01*
X169084845Y-76862802D01*
X169537171Y-76863197D01*
X169955217Y-76690464D01*
X170275340Y-76370900D01*
X170448802Y-75953155D01*
X170448803Y-75951171D01*
X180174803Y-75951171D01*
X180347536Y-76369217D01*
X180667100Y-76689340D01*
X181084845Y-76862802D01*
X181537171Y-76863197D01*
X181955217Y-76690464D01*
X182275340Y-76370900D01*
X182448802Y-75953155D01*
X182449197Y-75500829D01*
X182276464Y-75082783D01*
X181956900Y-74762660D01*
X181539155Y-74589198D01*
X181086829Y-74588803D01*
X180668783Y-74761536D01*
X180348660Y-75081100D01*
X180175198Y-75498845D01*
X180174803Y-75951171D01*
X170448803Y-75951171D01*
X170449197Y-75500829D01*
X170276464Y-75082783D01*
X169956900Y-74762660D01*
X169539155Y-74589198D01*
X169086829Y-74588803D01*
X168668783Y-74761536D01*
X168348660Y-75081100D01*
X168175198Y-75498845D01*
X168174803Y-75951171D01*
X158240000Y-75951171D01*
X158240000Y-73838400D01*
X163403654Y-73838400D01*
X163403654Y-75565600D01*
X163429802Y-75704566D01*
X163511931Y-75832199D01*
X163637246Y-75917823D01*
X163786000Y-75947946D01*
X165818000Y-75947946D01*
X165956966Y-75921798D01*
X166084599Y-75839669D01*
X166170223Y-75714354D01*
X166200346Y-75565600D01*
X166200346Y-73838400D01*
X166174198Y-73699434D01*
X166092069Y-73571801D01*
X165966754Y-73486177D01*
X165818000Y-73456054D01*
X163786000Y-73456054D01*
X163647034Y-73482202D01*
X163519401Y-73564331D01*
X163433777Y-73689646D01*
X163403654Y-73838400D01*
X158240000Y-73838400D01*
X158240000Y-67550041D01*
X158286447Y-67619553D01*
X163182447Y-72515554D01*
X163272666Y-72575836D01*
X163344658Y-72623940D01*
X163489188Y-72652689D01*
X163746527Y-73037822D01*
X164148357Y-73306317D01*
X164622349Y-73400600D01*
X164981651Y-73400600D01*
X165455643Y-73306317D01*
X165857473Y-73037822D01*
X166125968Y-72635992D01*
X166220251Y-72162000D01*
X166125968Y-71688008D01*
X165857473Y-71286178D01*
X165455643Y-71017683D01*
X164981651Y-70923400D01*
X164622349Y-70923400D01*
X164148357Y-71017683D01*
X163746527Y-71286178D01*
X163594624Y-71513517D01*
X161703107Y-69622000D01*
X163383749Y-69622000D01*
X163478032Y-70095992D01*
X163746527Y-70497822D01*
X164148357Y-70766317D01*
X164622349Y-70860600D01*
X164981651Y-70860600D01*
X165455643Y-70766317D01*
X165647682Y-70638000D01*
X185755654Y-70638000D01*
X185755654Y-73178000D01*
X185781802Y-73316966D01*
X185863931Y-73444599D01*
X185989246Y-73530223D01*
X186138000Y-73560346D01*
X188678000Y-73560346D01*
X188816966Y-73534198D01*
X188944599Y-73452069D01*
X189030223Y-73326754D01*
X189060346Y-73178000D01*
X189060346Y-70638000D01*
X189034198Y-70499034D01*
X188952069Y-70371401D01*
X188826754Y-70285777D01*
X188678000Y-70255654D01*
X186138000Y-70255654D01*
X185999034Y-70281802D01*
X185871401Y-70363931D01*
X185785777Y-70489246D01*
X185755654Y-70638000D01*
X165647682Y-70638000D01*
X165857473Y-70497822D01*
X166125968Y-70095992D01*
X166220251Y-69622000D01*
X166125968Y-69148008D01*
X165857473Y-68746178D01*
X165455643Y-68477683D01*
X164981651Y-68383400D01*
X164622349Y-68383400D01*
X164148357Y-68477683D01*
X163746527Y-68746178D01*
X163478032Y-69148008D01*
X163383749Y-69622000D01*
X161703107Y-69622000D01*
X159163107Y-67082000D01*
X163383749Y-67082000D01*
X163478032Y-67555992D01*
X163746527Y-67957822D01*
X164148357Y-68226317D01*
X164622349Y-68320600D01*
X164981651Y-68320600D01*
X165455643Y-68226317D01*
X165857473Y-67957822D01*
X166125968Y-67555992D01*
X166205974Y-67153775D01*
X185762716Y-67153775D01*
X186012624Y-67758600D01*
X186474966Y-68221750D01*
X187079354Y-68472713D01*
X187733775Y-68473284D01*
X188338600Y-68223376D01*
X188801750Y-67761034D01*
X189052713Y-67156646D01*
X189053284Y-66502225D01*
X188803376Y-65897400D01*
X188341034Y-65434250D01*
X187736646Y-65183287D01*
X187082225Y-65182716D01*
X186477400Y-65432624D01*
X186014250Y-65894966D01*
X185763287Y-66499354D01*
X185762716Y-67153775D01*
X166205974Y-67153775D01*
X166220251Y-67082000D01*
X166125968Y-66608008D01*
X165857473Y-66206178D01*
X165455643Y-65937683D01*
X164981651Y-65843400D01*
X164622349Y-65843400D01*
X164148357Y-65937683D01*
X163746527Y-66206178D01*
X163478032Y-66608008D01*
X163383749Y-67082000D01*
X159163107Y-67082000D01*
X159140000Y-67058894D01*
X159140000Y-62362660D01*
X163197107Y-62362660D01*
X163198835Y-62374363D01*
X163451765Y-62901202D01*
X163887055Y-63291146D01*
X164175166Y-63392350D01*
X164148357Y-63397683D01*
X163746527Y-63666178D01*
X163478032Y-64068008D01*
X163383749Y-64542000D01*
X163478032Y-65015992D01*
X163746527Y-65417822D01*
X164148357Y-65686317D01*
X164622349Y-65780600D01*
X164981651Y-65780600D01*
X165455643Y-65686317D01*
X165857473Y-65417822D01*
X166125968Y-65015992D01*
X166220251Y-64542000D01*
X166125968Y-64068008D01*
X165914264Y-63751171D01*
X168174803Y-63751171D01*
X168347536Y-64169217D01*
X168667100Y-64489340D01*
X169084845Y-64662802D01*
X169537171Y-64663197D01*
X169955217Y-64490464D01*
X170275340Y-64170900D01*
X170448802Y-63753155D01*
X170448803Y-63751171D01*
X180174803Y-63751171D01*
X180347536Y-64169217D01*
X180667100Y-64489340D01*
X181084845Y-64662802D01*
X181537171Y-64663197D01*
X181955217Y-64490464D01*
X182275340Y-64170900D01*
X182448802Y-63753155D01*
X182449197Y-63300829D01*
X182276464Y-62882783D01*
X181956900Y-62562660D01*
X181539155Y-62389198D01*
X181086829Y-62388803D01*
X180668783Y-62561536D01*
X180348660Y-62881100D01*
X180175198Y-63298845D01*
X180174803Y-63751171D01*
X170448803Y-63751171D01*
X170449197Y-63300829D01*
X170276464Y-62882783D01*
X169956900Y-62562660D01*
X169539155Y-62389198D01*
X169086829Y-62388803D01*
X168668783Y-62561536D01*
X168348660Y-62881100D01*
X168175198Y-63298845D01*
X168174803Y-63751171D01*
X165914264Y-63751171D01*
X165857473Y-63666178D01*
X165455643Y-63397683D01*
X165428834Y-63392350D01*
X165716945Y-63291146D01*
X166152235Y-62901202D01*
X166405165Y-62374363D01*
X166406893Y-62362660D01*
X166286519Y-62131000D01*
X164931000Y-62131000D01*
X164931000Y-62151000D01*
X164673000Y-62151000D01*
X164673000Y-62131000D01*
X163317481Y-62131000D01*
X163197107Y-62362660D01*
X159140000Y-62362660D01*
X159140000Y-61951171D01*
X174174803Y-61951171D01*
X174347536Y-62369217D01*
X174667100Y-62689340D01*
X175084845Y-62862802D01*
X175537171Y-62863197D01*
X175955217Y-62690464D01*
X176275340Y-62370900D01*
X176448802Y-61953155D01*
X176449197Y-61500829D01*
X176276464Y-61082783D01*
X175956900Y-60762660D01*
X175539155Y-60589198D01*
X175086829Y-60588803D01*
X174668783Y-60761536D01*
X174348660Y-61081100D01*
X174175198Y-61498845D01*
X174174803Y-61951171D01*
X159140000Y-61951171D01*
X159140000Y-61680000D01*
X159132311Y-61641340D01*
X163197107Y-61641340D01*
X163317481Y-61873000D01*
X164673000Y-61873000D01*
X164673000Y-60662644D01*
X164931000Y-60662644D01*
X164931000Y-61873000D01*
X166286519Y-61873000D01*
X166406893Y-61641340D01*
X166405165Y-61629637D01*
X166152235Y-61102798D01*
X165716945Y-60712854D01*
X165165565Y-60519171D01*
X164931000Y-60662644D01*
X164673000Y-60662644D01*
X164438435Y-60519171D01*
X163887055Y-60712854D01*
X163451765Y-61102798D01*
X163198835Y-61629637D01*
X163197107Y-61641340D01*
X159132311Y-61641340D01*
X159101940Y-61488658D01*
X158993553Y-61326447D01*
X158715028Y-61047922D01*
X158715117Y-60946323D01*
X158612571Y-60698143D01*
X158422856Y-60508097D01*
X158174855Y-60405117D01*
X157906323Y-60404883D01*
X157658143Y-60507429D01*
X157468097Y-60697144D01*
X157365117Y-60945145D01*
X157364883Y-61213677D01*
X157467429Y-61461857D01*
X157657144Y-61651903D01*
X157905145Y-61754883D01*
X158007867Y-61754973D01*
X158140000Y-61887106D01*
X158140000Y-65895959D01*
X158093554Y-65826447D01*
X153715028Y-61447922D01*
X153715117Y-61346323D01*
X153612571Y-61098143D01*
X153422856Y-60908097D01*
X153174855Y-60805117D01*
X152906323Y-60804883D01*
X152658143Y-60907429D01*
X152468097Y-61097144D01*
X152365117Y-61345145D01*
X152364883Y-61613677D01*
X147432324Y-61613677D01*
X147514883Y-61414855D01*
X147515117Y-61146323D01*
X147412571Y-60898143D01*
X147222856Y-60708097D01*
X146974855Y-60605117D01*
X146706323Y-60604883D01*
X146458143Y-60707429D01*
X146268097Y-60897144D01*
X146165117Y-61145145D01*
X146164883Y-61413677D01*
X135560309Y-61413677D01*
X135512571Y-61298143D01*
X135322856Y-61108097D01*
X135074855Y-61005117D01*
X134806323Y-61004883D01*
X134558143Y-61107429D01*
X134368097Y-61297144D01*
X134265117Y-61545145D01*
X134264883Y-61813677D01*
X121914884Y-61813677D01*
X121915117Y-61546323D01*
X121812571Y-61298143D01*
X121622856Y-61108097D01*
X121374855Y-61005117D01*
X121106323Y-61004883D01*
X120858143Y-61107429D01*
X120668097Y-61297144D01*
X120565117Y-61545145D01*
X120565027Y-61647867D01*
X118086447Y-64126447D01*
X117978060Y-64288658D01*
X117940000Y-64480000D01*
X117940000Y-78025366D01*
X117868097Y-78097144D01*
X117765117Y-78345145D01*
X117764883Y-78613677D01*
X117867429Y-78861857D01*
X118057144Y-79051903D01*
X118071551Y-79057885D01*
X108165000Y-79064911D01*
X108165000Y-72662599D01*
X108957946Y-72662599D01*
X109157171Y-73069035D01*
X109496779Y-73356489D01*
X109920540Y-73492100D01*
X110195540Y-73492100D01*
X110195540Y-72488100D01*
X110453540Y-72488100D01*
X110453540Y-73492100D01*
X110728540Y-73492100D01*
X111152301Y-73356489D01*
X111491909Y-73069035D01*
X111691134Y-72662599D01*
X111565716Y-72488100D01*
X110453540Y-72488100D01*
X110195540Y-72488100D01*
X109083364Y-72488100D01*
X108957946Y-72662599D01*
X108165000Y-72662599D01*
X108165000Y-72055601D01*
X108957946Y-72055601D01*
X109083364Y-72230100D01*
X110195540Y-72230100D01*
X110195540Y-71226100D01*
X110453540Y-71226100D01*
X110453540Y-72230100D01*
X111565716Y-72230100D01*
X111691134Y-72055601D01*
X111498142Y-71661879D01*
X111925691Y-71661879D01*
X112067802Y-72070761D01*
X112355568Y-72394135D01*
X112724978Y-72575836D01*
X112895540Y-72450048D01*
X112895540Y-71488100D01*
X113153540Y-71488100D01*
X113153540Y-72450048D01*
X113324102Y-72575836D01*
X113693512Y-72394135D01*
X113981278Y-72070761D01*
X114123389Y-71661879D01*
X113975510Y-71488100D01*
X113153540Y-71488100D01*
X112895540Y-71488100D01*
X112073570Y-71488100D01*
X111925691Y-71661879D01*
X111498142Y-71661879D01*
X111491909Y-71649165D01*
X111152301Y-71361711D01*
X110728540Y-71226100D01*
X110453540Y-71226100D01*
X110195540Y-71226100D01*
X109920540Y-71226100D01*
X109496779Y-71361711D01*
X109157171Y-71649165D01*
X108957946Y-72055601D01*
X108165000Y-72055601D01*
X108165000Y-71056321D01*
X111925691Y-71056321D01*
X112073570Y-71230100D01*
X112895540Y-71230100D01*
X112895540Y-70268152D01*
X113153540Y-70268152D01*
X113153540Y-71230100D01*
X113975510Y-71230100D01*
X114123389Y-71056321D01*
X113981278Y-70647439D01*
X113693512Y-70324065D01*
X113324102Y-70142364D01*
X113153540Y-70268152D01*
X112895540Y-70268152D01*
X112724978Y-70142364D01*
X112355568Y-70324065D01*
X112067802Y-70647439D01*
X111925691Y-71056321D01*
X108165000Y-71056321D01*
X108165000Y-66661879D01*
X111925691Y-66661879D01*
X112067802Y-67070761D01*
X112355568Y-67394135D01*
X112724978Y-67575836D01*
X112895540Y-67450048D01*
X112895540Y-66488100D01*
X113153540Y-66488100D01*
X113153540Y-67450048D01*
X113324102Y-67575836D01*
X113693512Y-67394135D01*
X113981278Y-67070761D01*
X114123389Y-66661879D01*
X113975510Y-66488100D01*
X113153540Y-66488100D01*
X112895540Y-66488100D01*
X112073570Y-66488100D01*
X111925691Y-66661879D01*
X108165000Y-66661879D01*
X108165000Y-65662599D01*
X108957946Y-65662599D01*
X109157171Y-66069035D01*
X109496779Y-66356489D01*
X109920540Y-66492100D01*
X110195540Y-66492100D01*
X110195540Y-65488100D01*
X110453540Y-65488100D01*
X110453540Y-66492100D01*
X110728540Y-66492100D01*
X111152301Y-66356489D01*
X111491909Y-66069035D01*
X111498141Y-66056321D01*
X111925691Y-66056321D01*
X112073570Y-66230100D01*
X112895540Y-66230100D01*
X112895540Y-65268152D01*
X113153540Y-65268152D01*
X113153540Y-66230100D01*
X113975510Y-66230100D01*
X114123389Y-66056321D01*
X113981278Y-65647439D01*
X113693512Y-65324065D01*
X113324102Y-65142364D01*
X113153540Y-65268152D01*
X112895540Y-65268152D01*
X112724978Y-65142364D01*
X112355568Y-65324065D01*
X112067802Y-65647439D01*
X111925691Y-66056321D01*
X111498141Y-66056321D01*
X111691134Y-65662599D01*
X111565716Y-65488100D01*
X110453540Y-65488100D01*
X110195540Y-65488100D01*
X109083364Y-65488100D01*
X108957946Y-65662599D01*
X108165000Y-65662599D01*
X108165000Y-65055601D01*
X108957946Y-65055601D01*
X109083364Y-65230100D01*
X110195540Y-65230100D01*
X110195540Y-64226100D01*
X110453540Y-64226100D01*
X110453540Y-65230100D01*
X111565716Y-65230100D01*
X111691134Y-65055601D01*
X111491909Y-64649165D01*
X111152301Y-64361711D01*
X110728540Y-64226100D01*
X110453540Y-64226100D01*
X110195540Y-64226100D01*
X109920540Y-64226100D01*
X109496779Y-64361711D01*
X109157171Y-64649165D01*
X108957946Y-65055601D01*
X108165000Y-65055601D01*
X108165000Y-59050000D01*
X121600000Y-59050000D01*
X121772208Y-59015746D01*
X121918198Y-58918198D01*
X121927017Y-58905000D01*
X122040000Y-58905000D01*
X122088632Y-58895152D01*
X122129601Y-58867159D01*
X122156451Y-58825432D01*
X122164997Y-58779088D01*
X122138464Y-55144000D01*
X150348054Y-55144000D01*
X150348054Y-57176000D01*
X150374202Y-57314966D01*
X150456331Y-57442599D01*
X150581646Y-57528223D01*
X150730400Y-57558346D01*
X152457600Y-57558346D01*
X152596566Y-57532198D01*
X152724199Y-57450069D01*
X152809823Y-57324754D01*
X152839946Y-57176000D01*
X152839946Y-55980349D01*
X152895400Y-55980349D01*
X152895400Y-56339651D01*
X152989683Y-56813643D01*
X153258178Y-57215473D01*
X153660008Y-57483968D01*
X154134000Y-57578251D01*
X154607992Y-57483968D01*
X155009822Y-57215473D01*
X155278317Y-56813643D01*
X155372600Y-56339651D01*
X155372600Y-55980349D01*
X155435400Y-55980349D01*
X155435400Y-56339651D01*
X155529683Y-56813643D01*
X155798178Y-57215473D01*
X156200008Y-57483968D01*
X156674000Y-57578251D01*
X157147992Y-57483968D01*
X157549822Y-57215473D01*
X157818317Y-56813643D01*
X157912600Y-56339651D01*
X157912600Y-55980349D01*
X157975400Y-55980349D01*
X157975400Y-56339651D01*
X158069683Y-56813643D01*
X158338178Y-57215473D01*
X158740008Y-57483968D01*
X159214000Y-57578251D01*
X159687992Y-57483968D01*
X160089822Y-57215473D01*
X160358317Y-56813643D01*
X160452600Y-56339651D01*
X160452600Y-55980349D01*
X160515400Y-55980349D01*
X160515400Y-56339651D01*
X160609683Y-56813643D01*
X160878178Y-57215473D01*
X161280008Y-57483968D01*
X161754000Y-57578251D01*
X162227992Y-57483968D01*
X162629822Y-57215473D01*
X162898317Y-56813643D01*
X162992600Y-56339651D01*
X162992600Y-55980349D01*
X163055400Y-55980349D01*
X163055400Y-56339651D01*
X163149683Y-56813643D01*
X163418178Y-57215473D01*
X163820008Y-57483968D01*
X164294000Y-57578251D01*
X164767992Y-57483968D01*
X165169822Y-57215473D01*
X165438317Y-56813643D01*
X165532600Y-56339651D01*
X165532600Y-55980349D01*
X165595400Y-55980349D01*
X165595400Y-56339651D01*
X165689683Y-56813643D01*
X165958178Y-57215473D01*
X166360008Y-57483968D01*
X166834000Y-57578251D01*
X167307992Y-57483968D01*
X167709822Y-57215473D01*
X167978317Y-56813643D01*
X168072600Y-56339651D01*
X168072600Y-55980349D01*
X168135400Y-55980349D01*
X168135400Y-56339651D01*
X168229683Y-56813643D01*
X168498178Y-57215473D01*
X168900008Y-57483968D01*
X169374000Y-57578251D01*
X169847992Y-57483968D01*
X170249822Y-57215473D01*
X170518317Y-56813643D01*
X170612600Y-56339651D01*
X170612600Y-55980349D01*
X170675400Y-55980349D01*
X170675400Y-56339651D01*
X170769683Y-56813643D01*
X171038178Y-57215473D01*
X171440008Y-57483968D01*
X171914000Y-57578251D01*
X172387992Y-57483968D01*
X172789822Y-57215473D01*
X173058317Y-56813643D01*
X173063650Y-56786834D01*
X173164854Y-57074945D01*
X173554798Y-57510235D01*
X174081637Y-57763165D01*
X174093340Y-57764893D01*
X174325000Y-57644519D01*
X174325000Y-56289000D01*
X174583000Y-56289000D01*
X174583000Y-57644519D01*
X174814660Y-57764893D01*
X174826363Y-57763165D01*
X175353202Y-57510235D01*
X175743146Y-57074945D01*
X175936829Y-56523565D01*
X175793356Y-56289000D01*
X174583000Y-56289000D01*
X174325000Y-56289000D01*
X174305000Y-56289000D01*
X174305000Y-56031000D01*
X174325000Y-56031000D01*
X174325000Y-54675481D01*
X174583000Y-54675481D01*
X174583000Y-56031000D01*
X175793356Y-56031000D01*
X175936829Y-55796435D01*
X175743146Y-55245055D01*
X175353202Y-54809765D01*
X174826363Y-54556835D01*
X174814660Y-54555107D01*
X174583000Y-54675481D01*
X174325000Y-54675481D01*
X174093340Y-54555107D01*
X174081637Y-54556835D01*
X173554798Y-54809765D01*
X173164854Y-55245055D01*
X173063650Y-55533166D01*
X173058317Y-55506357D01*
X172789822Y-55104527D01*
X172387992Y-54836032D01*
X171914000Y-54741749D01*
X171440008Y-54836032D01*
X171038178Y-55104527D01*
X170769683Y-55506357D01*
X170675400Y-55980349D01*
X170612600Y-55980349D01*
X170518317Y-55506357D01*
X170249822Y-55104527D01*
X169847992Y-54836032D01*
X169374000Y-54741749D01*
X168900008Y-54836032D01*
X168498178Y-55104527D01*
X168229683Y-55506357D01*
X168135400Y-55980349D01*
X168072600Y-55980349D01*
X167978317Y-55506357D01*
X167709822Y-55104527D01*
X167307992Y-54836032D01*
X166834000Y-54741749D01*
X166360008Y-54836032D01*
X165958178Y-55104527D01*
X165689683Y-55506357D01*
X165595400Y-55980349D01*
X165532600Y-55980349D01*
X165438317Y-55506357D01*
X165169822Y-55104527D01*
X164767992Y-54836032D01*
X164294000Y-54741749D01*
X163820008Y-54836032D01*
X163418178Y-55104527D01*
X163149683Y-55506357D01*
X163055400Y-55980349D01*
X162992600Y-55980349D01*
X162898317Y-55506357D01*
X162629822Y-55104527D01*
X162227992Y-54836032D01*
X161754000Y-54741749D01*
X161280008Y-54836032D01*
X160878178Y-55104527D01*
X160609683Y-55506357D01*
X160515400Y-55980349D01*
X160452600Y-55980349D01*
X160358317Y-55506357D01*
X160089822Y-55104527D01*
X159687992Y-54836032D01*
X159214000Y-54741749D01*
X158740008Y-54836032D01*
X158338178Y-55104527D01*
X158069683Y-55506357D01*
X157975400Y-55980349D01*
X157912600Y-55980349D01*
X157818317Y-55506357D01*
X157549822Y-55104527D01*
X157147992Y-54836032D01*
X156674000Y-54741749D01*
X156200008Y-54836032D01*
X155798178Y-55104527D01*
X155529683Y-55506357D01*
X155435400Y-55980349D01*
X155372600Y-55980349D01*
X155278317Y-55506357D01*
X155009822Y-55104527D01*
X154607992Y-54836032D01*
X154134000Y-54741749D01*
X153660008Y-54836032D01*
X153258178Y-55104527D01*
X152989683Y-55506357D01*
X152895400Y-55980349D01*
X152839946Y-55980349D01*
X152839946Y-55144000D01*
X152813798Y-55005034D01*
X152731669Y-54877401D01*
X152606354Y-54791777D01*
X152457600Y-54761654D01*
X150730400Y-54761654D01*
X150591434Y-54787802D01*
X150463801Y-54869931D01*
X150378177Y-54995246D01*
X150348054Y-55144000D01*
X122138464Y-55144000D01*
X122097997Y-49600000D01*
X132957418Y-49600000D01*
X133196633Y-50802614D01*
X133877859Y-51822141D01*
X134897386Y-52503367D01*
X136100000Y-52742582D01*
X137302614Y-52503367D01*
X138322141Y-51822141D01*
X139003367Y-50802614D01*
X139242582Y-49600000D01*
X159457418Y-49600000D01*
X159696633Y-50802614D01*
X160377859Y-51822141D01*
X161397386Y-52503367D01*
X162600000Y-52742582D01*
X163802614Y-52503367D01*
X164822141Y-51822141D01*
X165503367Y-50802614D01*
X165742582Y-49600000D01*
X165503367Y-48397386D01*
X164822141Y-47377859D01*
X163802614Y-46696633D01*
X162600000Y-46457418D01*
X161397386Y-46696633D01*
X160377859Y-47377859D01*
X159696633Y-48397386D01*
X159457418Y-49600000D01*
X139242582Y-49600000D01*
X139003367Y-48397386D01*
X138322141Y-47377859D01*
X137302614Y-46696633D01*
X136100000Y-46457418D01*
X134897386Y-46696633D01*
X133877859Y-47377859D01*
X133196633Y-48397386D01*
X132957418Y-49600000D01*
X122097997Y-49600000D01*
X122065916Y-45205000D01*
X176015896Y-45205000D01*
X176115003Y-58980899D01*
X176115003Y-58980899D01*
G37*
X176115003Y-58980899D02*
X176125201Y-59029459D01*
X176153488Y-59070226D01*
X176195407Y-59096775D01*
X176240595Y-59104999D01*
X187790384Y-59050000D01*
X190650000Y-59050000D01*
X190650000Y-79150000D01*
X177100000Y-79150000D01*
X176927792Y-79184254D01*
X176814049Y-79260255D01*
X176791368Y-79264848D01*
X176750399Y-79292841D01*
X176723549Y-79334568D01*
X176715003Y-79379067D01*
X176714983Y-79381804D01*
X176684254Y-79427792D01*
X176650000Y-79600000D01*
X176650000Y-88089506D01*
X176615967Y-92650000D01*
X174010397Y-92650000D01*
X122265000Y-92555229D01*
X122265000Y-88600000D01*
X133150000Y-88600000D01*
X133374555Y-89728916D01*
X134014035Y-90685965D01*
X134971084Y-91325445D01*
X136100000Y-91550000D01*
X137228916Y-91325445D01*
X138185965Y-90685965D01*
X138825445Y-89728916D01*
X138848367Y-89613677D01*
X151464883Y-89613677D01*
X151567429Y-89861857D01*
X151757144Y-90051903D01*
X152005145Y-90154883D01*
X152273677Y-90155117D01*
X152521857Y-90052571D01*
X152711903Y-89862856D01*
X152814883Y-89614855D01*
X152814973Y-89512134D01*
X153727107Y-88600000D01*
X159457418Y-88600000D01*
X159696633Y-89802614D01*
X160377859Y-90822141D01*
X161397386Y-91503367D01*
X162600000Y-91742582D01*
X163802614Y-91503367D01*
X164822141Y-90822141D01*
X165503367Y-89802614D01*
X165742582Y-88600000D01*
X165503367Y-87397386D01*
X164822141Y-86377859D01*
X163802614Y-85696633D01*
X162600000Y-85457418D01*
X161397386Y-85696633D01*
X160377859Y-86377859D01*
X159696633Y-87397386D01*
X159457418Y-88600000D01*
X153727107Y-88600000D01*
X154233554Y-88093553D01*
X154298526Y-87996314D01*
X154341940Y-87931342D01*
X154380000Y-87740000D01*
X154380000Y-85813677D01*
X159164883Y-85813677D01*
X159267429Y-86061857D01*
X159457144Y-86251903D01*
X159705145Y-86354883D01*
X159973677Y-86355117D01*
X160221857Y-86252571D01*
X160411903Y-86062856D01*
X160514883Y-85814855D01*
X160515117Y-85546323D01*
X160412571Y-85298143D01*
X160340000Y-85225445D01*
X160340000Y-84687106D01*
X161147106Y-83880000D01*
X165166400Y-83880000D01*
X165357742Y-83841940D01*
X165519953Y-83733553D01*
X166113957Y-83139549D01*
X166580000Y-83232251D01*
X167053992Y-83137968D01*
X167455822Y-82869473D01*
X167724317Y-82467643D01*
X167818600Y-81993651D01*
X167818600Y-81634349D01*
X167881400Y-81634349D01*
X167881400Y-81993651D01*
X167975683Y-82467643D01*
X168244178Y-82869473D01*
X168646008Y-83137968D01*
X169120000Y-83232251D01*
X169593992Y-83137968D01*
X169995822Y-82869473D01*
X170264317Y-82467643D01*
X170269650Y-82440834D01*
X170370854Y-82728945D01*
X170760798Y-83164235D01*
X171287637Y-83417165D01*
X171299340Y-83418893D01*
X171531000Y-83298519D01*
X171531000Y-81943000D01*
X171789000Y-81943000D01*
X171789000Y-83298519D01*
X172020660Y-83418893D01*
X172032363Y-83417165D01*
X172559202Y-83164235D01*
X172716814Y-82988295D01*
X172799768Y-83188565D01*
X172977834Y-83366631D01*
X173210488Y-83463000D01*
X173912750Y-83463000D01*
X174071000Y-83304750D01*
X174071000Y-81943000D01*
X174329000Y-81943000D01*
X174329000Y-83304750D01*
X174487250Y-83463000D01*
X175189512Y-83463000D01*
X175422166Y-83366631D01*
X175600232Y-83188565D01*
X175696600Y-82955911D01*
X175696600Y-82101250D01*
X175538350Y-81943000D01*
X174329000Y-81943000D01*
X174071000Y-81943000D01*
X171789000Y-81943000D01*
X171531000Y-81943000D01*
X171511000Y-81943000D01*
X171511000Y-81685000D01*
X171531000Y-81685000D01*
X171531000Y-80329481D01*
X171789000Y-80329481D01*
X171789000Y-81685000D01*
X174071000Y-81685000D01*
X174071000Y-80323250D01*
X174329000Y-80323250D01*
X174329000Y-81685000D01*
X175538350Y-81685000D01*
X175696600Y-81526750D01*
X175696600Y-80672089D01*
X175600232Y-80439435D01*
X175422166Y-80261369D01*
X175189512Y-80165000D01*
X174487250Y-80165000D01*
X174329000Y-80323250D01*
X174071000Y-80323250D01*
X173912750Y-80165000D01*
X173210488Y-80165000D01*
X172977834Y-80261369D01*
X172799768Y-80439435D01*
X172716814Y-80639705D01*
X172559202Y-80463765D01*
X172032363Y-80210835D01*
X172020660Y-80209107D01*
X171789000Y-80329481D01*
X171531000Y-80329481D01*
X171299340Y-80209107D01*
X171287637Y-80210835D01*
X170760798Y-80463765D01*
X170370854Y-80899055D01*
X170269650Y-81187166D01*
X170264317Y-81160357D01*
X169995822Y-80758527D01*
X169593992Y-80490032D01*
X169120000Y-80395749D01*
X168646008Y-80490032D01*
X168244178Y-80758527D01*
X167975683Y-81160357D01*
X167881400Y-81634349D01*
X167818600Y-81634349D01*
X167724317Y-81160357D01*
X167455822Y-80758527D01*
X167053992Y-80490032D01*
X166580000Y-80395749D01*
X166106008Y-80490032D01*
X165704178Y-80758527D01*
X165435683Y-81160357D01*
X165341400Y-81634349D01*
X165341400Y-81993651D01*
X165425059Y-82414234D01*
X164959294Y-82880000D01*
X164900067Y-82880000D01*
X164915822Y-82869473D01*
X165184317Y-82467643D01*
X165278600Y-81993651D01*
X165278600Y-81634349D01*
X165184317Y-81160357D01*
X164915822Y-80758527D01*
X164513992Y-80490032D01*
X164040000Y-80395749D01*
X163566008Y-80490032D01*
X163164178Y-80758527D01*
X162895683Y-81160357D01*
X162801400Y-81634349D01*
X162801400Y-81993651D01*
X162895683Y-82467643D01*
X163164178Y-82869473D01*
X163179933Y-82880000D01*
X162360067Y-82880000D01*
X162375822Y-82869473D01*
X162644317Y-82467643D01*
X162738600Y-81993651D01*
X162738600Y-81634349D01*
X162644317Y-81160357D01*
X162375822Y-80758527D01*
X161973992Y-80490032D01*
X161500000Y-80395749D01*
X161026008Y-80490032D01*
X160624178Y-80758527D01*
X160355683Y-81160357D01*
X160261400Y-81634349D01*
X160261400Y-81993651D01*
X160355683Y-82467643D01*
X160624178Y-82869473D01*
X160722776Y-82935354D01*
X160586447Y-83026447D01*
X159486447Y-84126447D01*
X159378060Y-84288658D01*
X159340000Y-84480000D01*
X159340000Y-85225366D01*
X159268097Y-85297144D01*
X159165117Y-85545145D01*
X159164883Y-85813677D01*
X154380000Y-85813677D01*
X154380000Y-83120590D01*
X154755822Y-82869473D01*
X155024317Y-82467643D01*
X155118600Y-81993651D01*
X155118600Y-81634349D01*
X155024317Y-81160357D01*
X154755822Y-80758527D01*
X154353992Y-80490032D01*
X153880000Y-80395749D01*
X153406008Y-80490032D01*
X153004178Y-80758527D01*
X152735683Y-81160357D01*
X152641400Y-81634349D01*
X152641400Y-81993651D01*
X152735683Y-82467643D01*
X153004178Y-82869473D01*
X153380000Y-83120590D01*
X153380000Y-87532893D01*
X152107922Y-88804972D01*
X152006323Y-88804883D01*
X151758143Y-88907429D01*
X151568097Y-89097144D01*
X151465117Y-89345145D01*
X151464883Y-89613677D01*
X138848367Y-89613677D01*
X139050000Y-88600000D01*
X138825445Y-87471084D01*
X138185965Y-86514035D01*
X137228916Y-85874555D01*
X136100000Y-85650000D01*
X134971084Y-85874555D01*
X134014035Y-86514035D01*
X133374555Y-87471084D01*
X133150000Y-88600000D01*
X122265000Y-88600000D01*
X122265000Y-85213677D01*
X143964883Y-85213677D01*
X144067429Y-85461857D01*
X144257144Y-85651903D01*
X144505145Y-85754883D01*
X144773677Y-85755117D01*
X145021857Y-85652571D01*
X145094555Y-85580000D01*
X145885366Y-85580000D01*
X145957144Y-85651903D01*
X146205145Y-85754883D01*
X146473677Y-85755117D01*
X146721857Y-85652571D01*
X146911903Y-85462856D01*
X147014883Y-85214855D01*
X147015117Y-84946323D01*
X146912571Y-84698143D01*
X146722856Y-84508097D01*
X146474855Y-84405117D01*
X146206323Y-84404883D01*
X145958143Y-84507429D01*
X145885445Y-84580000D01*
X145094634Y-84580000D01*
X145022856Y-84508097D01*
X144774855Y-84405117D01*
X144506323Y-84404883D01*
X144258143Y-84507429D01*
X144068097Y-84697144D01*
X143965117Y-84945145D01*
X143964883Y-85213677D01*
X122265000Y-85213677D01*
X122265000Y-79180000D01*
X122255152Y-79131368D01*
X122227159Y-79090399D01*
X122185432Y-79063549D01*
X122139911Y-79055000D01*
X118810263Y-79057361D01*
X118821857Y-79052571D01*
X119011903Y-78862856D01*
X119114883Y-78614855D01*
X119115117Y-78346323D01*
X119012571Y-78098143D01*
X118940000Y-78025445D01*
X118940000Y-72334555D01*
X119057144Y-72451903D01*
X119305145Y-72554883D01*
X119407866Y-72554973D01*
X127686447Y-80833554D01*
X127783686Y-80898526D01*
X127848658Y-80941940D01*
X128040000Y-80980000D01*
X136785366Y-80980000D01*
X136857144Y-81051903D01*
X137105145Y-81154883D01*
X137373677Y-81155117D01*
X137621857Y-81052571D01*
X137811903Y-80862856D01*
X137914883Y-80614855D01*
X137915117Y-80346323D01*
X137812571Y-80098143D01*
X137622856Y-79908097D01*
X137374855Y-79805117D01*
X137106323Y-79804883D01*
X136858143Y-79907429D01*
X136785445Y-79980000D01*
X128247107Y-79980000D01*
X121551767Y-73284660D01*
X124335107Y-73284660D01*
X124336835Y-73296363D01*
X124589765Y-73823202D01*
X125025055Y-74213146D01*
X125576435Y-74406829D01*
X125811000Y-74263356D01*
X125811000Y-73053000D01*
X126069000Y-73053000D01*
X126069000Y-74263356D01*
X126303565Y-74406829D01*
X126854945Y-74213146D01*
X127290235Y-73823202D01*
X127543165Y-73296363D01*
X127544893Y-73284660D01*
X127424519Y-73053000D01*
X126069000Y-73053000D01*
X125811000Y-73053000D01*
X124455481Y-73053000D01*
X124335107Y-73284660D01*
X121551767Y-73284660D01*
X120830447Y-72563340D01*
X124335107Y-72563340D01*
X124455481Y-72795000D01*
X125811000Y-72795000D01*
X125811000Y-72775000D01*
X126069000Y-72775000D01*
X126069000Y-72795000D01*
X127424519Y-72795000D01*
X127544893Y-72563340D01*
X127543165Y-72551637D01*
X127290235Y-72024798D01*
X126854945Y-71634854D01*
X126566834Y-71533650D01*
X126593643Y-71528317D01*
X126995473Y-71259822D01*
X127263968Y-70857992D01*
X127358251Y-70384000D01*
X127263968Y-69910008D01*
X126995473Y-69508178D01*
X126593643Y-69239683D01*
X126119651Y-69145400D01*
X125760349Y-69145400D01*
X125286357Y-69239683D01*
X124884527Y-69508178D01*
X124616032Y-69910008D01*
X124521749Y-70384000D01*
X124616032Y-70857992D01*
X124884527Y-71259822D01*
X125286357Y-71528317D01*
X125313166Y-71533650D01*
X125025055Y-71634854D01*
X124589765Y-72024798D01*
X124336835Y-72551637D01*
X124335107Y-72563340D01*
X120830447Y-72563340D01*
X120115028Y-71847922D01*
X120115117Y-71746323D01*
X120012571Y-71498143D01*
X119822856Y-71308097D01*
X119574855Y-71205117D01*
X119306323Y-71204883D01*
X119058143Y-71307429D01*
X118940000Y-71425366D01*
X118940000Y-67844000D01*
X124521749Y-67844000D01*
X124616032Y-68317992D01*
X124884527Y-68719822D01*
X125286357Y-68988317D01*
X125760349Y-69082600D01*
X126119651Y-69082600D01*
X126593643Y-68988317D01*
X126995473Y-68719822D01*
X127263968Y-68317992D01*
X127358251Y-67844000D01*
X127263968Y-67370008D01*
X126995473Y-66968178D01*
X126593643Y-66699683D01*
X126119651Y-66605400D01*
X125760349Y-66605400D01*
X125286357Y-66699683D01*
X124884527Y-66968178D01*
X124616032Y-67370008D01*
X124521749Y-67844000D01*
X118940000Y-67844000D01*
X118940000Y-64813677D01*
X121364883Y-64813677D01*
X121467429Y-65061857D01*
X121657144Y-65251903D01*
X121905145Y-65354883D01*
X122007866Y-65354973D01*
X122310446Y-65657553D01*
X122401001Y-65718060D01*
X122472658Y-65765940D01*
X122664000Y-65804000D01*
X124541654Y-65804000D01*
X124541654Y-66167600D01*
X124567802Y-66306566D01*
X124649931Y-66434199D01*
X124775246Y-66519823D01*
X124924000Y-66549946D01*
X126956000Y-66549946D01*
X127094966Y-66523798D01*
X127222599Y-66441669D01*
X127308223Y-66316354D01*
X127338346Y-66167600D01*
X127338346Y-64440400D01*
X127312198Y-64301434D01*
X127230069Y-64173801D01*
X127104754Y-64088177D01*
X126956000Y-64058054D01*
X124924000Y-64058054D01*
X124785034Y-64084202D01*
X124657401Y-64166331D01*
X124571777Y-64291646D01*
X124541654Y-64440400D01*
X124541654Y-64804000D01*
X122871107Y-64804000D01*
X122715028Y-64647922D01*
X122715117Y-64546323D01*
X122612571Y-64298143D01*
X122422856Y-64108097D01*
X122174855Y-64005117D01*
X121906323Y-64004883D01*
X121658143Y-64107429D01*
X121468097Y-64297144D01*
X121365117Y-64545145D01*
X121364883Y-64813677D01*
X118940000Y-64813677D01*
X118940000Y-64687106D01*
X121272078Y-62355028D01*
X121373677Y-62355117D01*
X121621857Y-62252571D01*
X121811903Y-62062856D01*
X121914883Y-61814855D01*
X121914884Y-61813677D01*
X134264883Y-61813677D01*
X134367429Y-62061857D01*
X134440000Y-62134555D01*
X134440000Y-66527600D01*
X134466710Y-66661879D01*
X134478060Y-66718942D01*
X134586447Y-66881153D01*
X149872846Y-82167553D01*
X150035058Y-82275940D01*
X150162597Y-82301309D01*
X150195683Y-82467643D01*
X150464178Y-82869473D01*
X150866008Y-83137968D01*
X151340000Y-83232251D01*
X151813992Y-83137968D01*
X152215822Y-82869473D01*
X152484317Y-82467643D01*
X152578600Y-81993651D01*
X152578600Y-81634349D01*
X152484317Y-81160357D01*
X152215822Y-80758527D01*
X151813992Y-80490032D01*
X151340000Y-80395749D01*
X150866008Y-80490032D01*
X150464178Y-80758527D01*
X150229401Y-81109894D01*
X145933184Y-76813677D01*
X146364883Y-76813677D01*
X146467429Y-77061857D01*
X146657144Y-77251903D01*
X146905145Y-77354883D01*
X147173677Y-77355117D01*
X147421857Y-77252571D01*
X147611903Y-77062856D01*
X147714883Y-76814855D01*
X147715117Y-76546323D01*
X147646602Y-76380504D01*
X148072078Y-75955028D01*
X148173677Y-75955117D01*
X148421857Y-75852571D01*
X148611903Y-75662856D01*
X148714883Y-75414855D01*
X148715117Y-75146323D01*
X148612571Y-74898143D01*
X148422856Y-74708097D01*
X148174855Y-74605117D01*
X147906323Y-74604883D01*
X147658143Y-74707429D01*
X147468097Y-74897144D01*
X147365117Y-75145145D01*
X147365027Y-75247866D01*
X146686448Y-75926446D01*
X146686447Y-75926447D01*
X146578060Y-76088658D01*
X146553560Y-76211830D01*
X146468097Y-76297144D01*
X146365117Y-76545145D01*
X146364883Y-76813677D01*
X145933184Y-76813677D01*
X135440000Y-66320494D01*
X135440000Y-62134634D01*
X135511903Y-62062856D01*
X135614883Y-61814855D01*
X135615117Y-61546323D01*
X135560309Y-61413677D01*
X146164883Y-61413677D01*
X146267429Y-61661857D01*
X146340000Y-61734555D01*
X146340000Y-66680000D01*
X146349637Y-66728447D01*
X146378060Y-66871342D01*
X146486447Y-67033553D01*
X155764972Y-76312078D01*
X155764883Y-76413677D01*
X155867429Y-76661857D01*
X156057144Y-76851903D01*
X156305145Y-76954883D01*
X156573677Y-76955117D01*
X156821857Y-76852571D01*
X157011903Y-76662856D01*
X157114883Y-76414855D01*
X157115117Y-76146323D01*
X157012571Y-75898143D01*
X156822856Y-75708097D01*
X156574855Y-75605117D01*
X156472134Y-75605027D01*
X147340000Y-66472894D01*
X147340000Y-61734634D01*
X147411903Y-61662856D01*
X147432324Y-61613677D01*
X152364883Y-61613677D01*
X152467429Y-61861857D01*
X152657144Y-62051903D01*
X152905145Y-62154883D01*
X153007866Y-62154973D01*
X157240000Y-66387107D01*
X157240000Y-80721228D01*
X156893992Y-80490032D01*
X156420000Y-80395749D01*
X155946008Y-80490032D01*
X155544178Y-80758527D01*
X155275683Y-81160357D01*
X155181400Y-81634349D01*
X155181400Y-81993651D01*
X155275683Y-82467643D01*
X155544178Y-82869473D01*
X155946008Y-83137968D01*
X156420000Y-83232251D01*
X156893992Y-83137968D01*
X157240000Y-82906772D01*
X157240000Y-83625366D01*
X157168097Y-83697144D01*
X157065117Y-83945145D01*
X157064883Y-84213677D01*
X157167429Y-84461857D01*
X157357144Y-84651903D01*
X157605145Y-84754883D01*
X157873677Y-84755117D01*
X158121857Y-84652571D01*
X158311903Y-84462856D01*
X158414883Y-84214855D01*
X158415117Y-83946323D01*
X158312571Y-83698143D01*
X158240000Y-83625445D01*
X158240000Y-82973590D01*
X158486008Y-83137968D01*
X158960000Y-83232251D01*
X159433992Y-83137968D01*
X159835822Y-82869473D01*
X160104317Y-82467643D01*
X160198600Y-81993651D01*
X160198600Y-81634349D01*
X160104317Y-81160357D01*
X159835822Y-80758527D01*
X159433992Y-80490032D01*
X158960000Y-80395749D01*
X158486008Y-80490032D01*
X158240000Y-80654410D01*
X158240000Y-75951171D01*
X168174803Y-75951171D01*
X168347536Y-76369217D01*
X168667100Y-76689340D01*
X169084845Y-76862802D01*
X169537171Y-76863197D01*
X169955217Y-76690464D01*
X170275340Y-76370900D01*
X170448802Y-75953155D01*
X170448803Y-75951171D01*
X180174803Y-75951171D01*
X180347536Y-76369217D01*
X180667100Y-76689340D01*
X181084845Y-76862802D01*
X181537171Y-76863197D01*
X181955217Y-76690464D01*
X182275340Y-76370900D01*
X182448802Y-75953155D01*
X182449197Y-75500829D01*
X182276464Y-75082783D01*
X181956900Y-74762660D01*
X181539155Y-74589198D01*
X181086829Y-74588803D01*
X180668783Y-74761536D01*
X180348660Y-75081100D01*
X180175198Y-75498845D01*
X180174803Y-75951171D01*
X170448803Y-75951171D01*
X170449197Y-75500829D01*
X170276464Y-75082783D01*
X169956900Y-74762660D01*
X169539155Y-74589198D01*
X169086829Y-74588803D01*
X168668783Y-74761536D01*
X168348660Y-75081100D01*
X168175198Y-75498845D01*
X168174803Y-75951171D01*
X158240000Y-75951171D01*
X158240000Y-73838400D01*
X163403654Y-73838400D01*
X163403654Y-75565600D01*
X163429802Y-75704566D01*
X163511931Y-75832199D01*
X163637246Y-75917823D01*
X163786000Y-75947946D01*
X165818000Y-75947946D01*
X165956966Y-75921798D01*
X166084599Y-75839669D01*
X166170223Y-75714354D01*
X166200346Y-75565600D01*
X166200346Y-73838400D01*
X166174198Y-73699434D01*
X166092069Y-73571801D01*
X165966754Y-73486177D01*
X165818000Y-73456054D01*
X163786000Y-73456054D01*
X163647034Y-73482202D01*
X163519401Y-73564331D01*
X163433777Y-73689646D01*
X163403654Y-73838400D01*
X158240000Y-73838400D01*
X158240000Y-67550041D01*
X158286447Y-67619553D01*
X163182447Y-72515554D01*
X163272666Y-72575836D01*
X163344658Y-72623940D01*
X163489188Y-72652689D01*
X163746527Y-73037822D01*
X164148357Y-73306317D01*
X164622349Y-73400600D01*
X164981651Y-73400600D01*
X165455643Y-73306317D01*
X165857473Y-73037822D01*
X166125968Y-72635992D01*
X166220251Y-72162000D01*
X166125968Y-71688008D01*
X165857473Y-71286178D01*
X165455643Y-71017683D01*
X164981651Y-70923400D01*
X164622349Y-70923400D01*
X164148357Y-71017683D01*
X163746527Y-71286178D01*
X163594624Y-71513517D01*
X161703107Y-69622000D01*
X163383749Y-69622000D01*
X163478032Y-70095992D01*
X163746527Y-70497822D01*
X164148357Y-70766317D01*
X164622349Y-70860600D01*
X164981651Y-70860600D01*
X165455643Y-70766317D01*
X165647682Y-70638000D01*
X185755654Y-70638000D01*
X185755654Y-73178000D01*
X185781802Y-73316966D01*
X185863931Y-73444599D01*
X185989246Y-73530223D01*
X186138000Y-73560346D01*
X188678000Y-73560346D01*
X188816966Y-73534198D01*
X188944599Y-73452069D01*
X189030223Y-73326754D01*
X189060346Y-73178000D01*
X189060346Y-70638000D01*
X189034198Y-70499034D01*
X188952069Y-70371401D01*
X188826754Y-70285777D01*
X188678000Y-70255654D01*
X186138000Y-70255654D01*
X185999034Y-70281802D01*
X185871401Y-70363931D01*
X185785777Y-70489246D01*
X185755654Y-70638000D01*
X165647682Y-70638000D01*
X165857473Y-70497822D01*
X166125968Y-70095992D01*
X166220251Y-69622000D01*
X166125968Y-69148008D01*
X165857473Y-68746178D01*
X165455643Y-68477683D01*
X164981651Y-68383400D01*
X164622349Y-68383400D01*
X164148357Y-68477683D01*
X163746527Y-68746178D01*
X163478032Y-69148008D01*
X163383749Y-69622000D01*
X161703107Y-69622000D01*
X159163107Y-67082000D01*
X163383749Y-67082000D01*
X163478032Y-67555992D01*
X163746527Y-67957822D01*
X164148357Y-68226317D01*
X164622349Y-68320600D01*
X164981651Y-68320600D01*
X165455643Y-68226317D01*
X165857473Y-67957822D01*
X166125968Y-67555992D01*
X166205974Y-67153775D01*
X185762716Y-67153775D01*
X186012624Y-67758600D01*
X186474966Y-68221750D01*
X187079354Y-68472713D01*
X187733775Y-68473284D01*
X188338600Y-68223376D01*
X188801750Y-67761034D01*
X189052713Y-67156646D01*
X189053284Y-66502225D01*
X188803376Y-65897400D01*
X188341034Y-65434250D01*
X187736646Y-65183287D01*
X187082225Y-65182716D01*
X186477400Y-65432624D01*
X186014250Y-65894966D01*
X185763287Y-66499354D01*
X185762716Y-67153775D01*
X166205974Y-67153775D01*
X166220251Y-67082000D01*
X166125968Y-66608008D01*
X165857473Y-66206178D01*
X165455643Y-65937683D01*
X164981651Y-65843400D01*
X164622349Y-65843400D01*
X164148357Y-65937683D01*
X163746527Y-66206178D01*
X163478032Y-66608008D01*
X163383749Y-67082000D01*
X159163107Y-67082000D01*
X159140000Y-67058894D01*
X159140000Y-62362660D01*
X163197107Y-62362660D01*
X163198835Y-62374363D01*
X163451765Y-62901202D01*
X163887055Y-63291146D01*
X164175166Y-63392350D01*
X164148357Y-63397683D01*
X163746527Y-63666178D01*
X163478032Y-64068008D01*
X163383749Y-64542000D01*
X163478032Y-65015992D01*
X163746527Y-65417822D01*
X164148357Y-65686317D01*
X164622349Y-65780600D01*
X164981651Y-65780600D01*
X165455643Y-65686317D01*
X165857473Y-65417822D01*
X166125968Y-65015992D01*
X166220251Y-64542000D01*
X166125968Y-64068008D01*
X165914264Y-63751171D01*
X168174803Y-63751171D01*
X168347536Y-64169217D01*
X168667100Y-64489340D01*
X169084845Y-64662802D01*
X169537171Y-64663197D01*
X169955217Y-64490464D01*
X170275340Y-64170900D01*
X170448802Y-63753155D01*
X170448803Y-63751171D01*
X180174803Y-63751171D01*
X180347536Y-64169217D01*
X180667100Y-64489340D01*
X181084845Y-64662802D01*
X181537171Y-64663197D01*
X181955217Y-64490464D01*
X182275340Y-64170900D01*
X182448802Y-63753155D01*
X182449197Y-63300829D01*
X182276464Y-62882783D01*
X181956900Y-62562660D01*
X181539155Y-62389198D01*
X181086829Y-62388803D01*
X180668783Y-62561536D01*
X180348660Y-62881100D01*
X180175198Y-63298845D01*
X180174803Y-63751171D01*
X170448803Y-63751171D01*
X170449197Y-63300829D01*
X170276464Y-62882783D01*
X169956900Y-62562660D01*
X169539155Y-62389198D01*
X169086829Y-62388803D01*
X168668783Y-62561536D01*
X168348660Y-62881100D01*
X168175198Y-63298845D01*
X168174803Y-63751171D01*
X165914264Y-63751171D01*
X165857473Y-63666178D01*
X165455643Y-63397683D01*
X165428834Y-63392350D01*
X165716945Y-63291146D01*
X166152235Y-62901202D01*
X166405165Y-62374363D01*
X166406893Y-62362660D01*
X166286519Y-62131000D01*
X164931000Y-62131000D01*
X164931000Y-62151000D01*
X164673000Y-62151000D01*
X164673000Y-62131000D01*
X163317481Y-62131000D01*
X163197107Y-62362660D01*
X159140000Y-62362660D01*
X159140000Y-61951171D01*
X174174803Y-61951171D01*
X174347536Y-62369217D01*
X174667100Y-62689340D01*
X175084845Y-62862802D01*
X175537171Y-62863197D01*
X175955217Y-62690464D01*
X176275340Y-62370900D01*
X176448802Y-61953155D01*
X176449197Y-61500829D01*
X176276464Y-61082783D01*
X175956900Y-60762660D01*
X175539155Y-60589198D01*
X175086829Y-60588803D01*
X174668783Y-60761536D01*
X174348660Y-61081100D01*
X174175198Y-61498845D01*
X174174803Y-61951171D01*
X159140000Y-61951171D01*
X159140000Y-61680000D01*
X159132311Y-61641340D01*
X163197107Y-61641340D01*
X163317481Y-61873000D01*
X164673000Y-61873000D01*
X164673000Y-60662644D01*
X164931000Y-60662644D01*
X164931000Y-61873000D01*
X166286519Y-61873000D01*
X166406893Y-61641340D01*
X166405165Y-61629637D01*
X166152235Y-61102798D01*
X165716945Y-60712854D01*
X165165565Y-60519171D01*
X164931000Y-60662644D01*
X164673000Y-60662644D01*
X164438435Y-60519171D01*
X163887055Y-60712854D01*
X163451765Y-61102798D01*
X163198835Y-61629637D01*
X163197107Y-61641340D01*
X159132311Y-61641340D01*
X159101940Y-61488658D01*
X158993553Y-61326447D01*
X158715028Y-61047922D01*
X158715117Y-60946323D01*
X158612571Y-60698143D01*
X158422856Y-60508097D01*
X158174855Y-60405117D01*
X157906323Y-60404883D01*
X157658143Y-60507429D01*
X157468097Y-60697144D01*
X157365117Y-60945145D01*
X157364883Y-61213677D01*
X157467429Y-61461857D01*
X157657144Y-61651903D01*
X157905145Y-61754883D01*
X158007867Y-61754973D01*
X158140000Y-61887106D01*
X158140000Y-65895959D01*
X158093554Y-65826447D01*
X153715028Y-61447922D01*
X153715117Y-61346323D01*
X153612571Y-61098143D01*
X153422856Y-60908097D01*
X153174855Y-60805117D01*
X152906323Y-60804883D01*
X152658143Y-60907429D01*
X152468097Y-61097144D01*
X152365117Y-61345145D01*
X152364883Y-61613677D01*
X147432324Y-61613677D01*
X147514883Y-61414855D01*
X147515117Y-61146323D01*
X147412571Y-60898143D01*
X147222856Y-60708097D01*
X146974855Y-60605117D01*
X146706323Y-60604883D01*
X146458143Y-60707429D01*
X146268097Y-60897144D01*
X146165117Y-61145145D01*
X146164883Y-61413677D01*
X135560309Y-61413677D01*
X135512571Y-61298143D01*
X135322856Y-61108097D01*
X135074855Y-61005117D01*
X134806323Y-61004883D01*
X134558143Y-61107429D01*
X134368097Y-61297144D01*
X134265117Y-61545145D01*
X134264883Y-61813677D01*
X121914884Y-61813677D01*
X121915117Y-61546323D01*
X121812571Y-61298143D01*
X121622856Y-61108097D01*
X121374855Y-61005117D01*
X121106323Y-61004883D01*
X120858143Y-61107429D01*
X120668097Y-61297144D01*
X120565117Y-61545145D01*
X120565027Y-61647867D01*
X118086447Y-64126447D01*
X117978060Y-64288658D01*
X117940000Y-64480000D01*
X117940000Y-78025366D01*
X117868097Y-78097144D01*
X117765117Y-78345145D01*
X117764883Y-78613677D01*
X117867429Y-78861857D01*
X118057144Y-79051903D01*
X118071551Y-79057885D01*
X108165000Y-79064911D01*
X108165000Y-72662599D01*
X108957946Y-72662599D01*
X109157171Y-73069035D01*
X109496779Y-73356489D01*
X109920540Y-73492100D01*
X110195540Y-73492100D01*
X110195540Y-72488100D01*
X110453540Y-72488100D01*
X110453540Y-73492100D01*
X110728540Y-73492100D01*
X111152301Y-73356489D01*
X111491909Y-73069035D01*
X111691134Y-72662599D01*
X111565716Y-72488100D01*
X110453540Y-72488100D01*
X110195540Y-72488100D01*
X109083364Y-72488100D01*
X108957946Y-72662599D01*
X108165000Y-72662599D01*
X108165000Y-72055601D01*
X108957946Y-72055601D01*
X109083364Y-72230100D01*
X110195540Y-72230100D01*
X110195540Y-71226100D01*
X110453540Y-71226100D01*
X110453540Y-72230100D01*
X111565716Y-72230100D01*
X111691134Y-72055601D01*
X111498142Y-71661879D01*
X111925691Y-71661879D01*
X112067802Y-72070761D01*
X112355568Y-72394135D01*
X112724978Y-72575836D01*
X112895540Y-72450048D01*
X112895540Y-71488100D01*
X113153540Y-71488100D01*
X113153540Y-72450048D01*
X113324102Y-72575836D01*
X113693512Y-72394135D01*
X113981278Y-72070761D01*
X114123389Y-71661879D01*
X113975510Y-71488100D01*
X113153540Y-71488100D01*
X112895540Y-71488100D01*
X112073570Y-71488100D01*
X111925691Y-71661879D01*
X111498142Y-71661879D01*
X111491909Y-71649165D01*
X111152301Y-71361711D01*
X110728540Y-71226100D01*
X110453540Y-71226100D01*
X110195540Y-71226100D01*
X109920540Y-71226100D01*
X109496779Y-71361711D01*
X109157171Y-71649165D01*
X108957946Y-72055601D01*
X108165000Y-72055601D01*
X108165000Y-71056321D01*
X111925691Y-71056321D01*
X112073570Y-71230100D01*
X112895540Y-71230100D01*
X112895540Y-70268152D01*
X113153540Y-70268152D01*
X113153540Y-71230100D01*
X113975510Y-71230100D01*
X114123389Y-71056321D01*
X113981278Y-70647439D01*
X113693512Y-70324065D01*
X113324102Y-70142364D01*
X113153540Y-70268152D01*
X112895540Y-70268152D01*
X112724978Y-70142364D01*
X112355568Y-70324065D01*
X112067802Y-70647439D01*
X111925691Y-71056321D01*
X108165000Y-71056321D01*
X108165000Y-66661879D01*
X111925691Y-66661879D01*
X112067802Y-67070761D01*
X112355568Y-67394135D01*
X112724978Y-67575836D01*
X112895540Y-67450048D01*
X112895540Y-66488100D01*
X113153540Y-66488100D01*
X113153540Y-67450048D01*
X113324102Y-67575836D01*
X113693512Y-67394135D01*
X113981278Y-67070761D01*
X114123389Y-66661879D01*
X113975510Y-66488100D01*
X113153540Y-66488100D01*
X112895540Y-66488100D01*
X112073570Y-66488100D01*
X111925691Y-66661879D01*
X108165000Y-66661879D01*
X108165000Y-65662599D01*
X108957946Y-65662599D01*
X109157171Y-66069035D01*
X109496779Y-66356489D01*
X109920540Y-66492100D01*
X110195540Y-66492100D01*
X110195540Y-65488100D01*
X110453540Y-65488100D01*
X110453540Y-66492100D01*
X110728540Y-66492100D01*
X111152301Y-66356489D01*
X111491909Y-66069035D01*
X111498141Y-66056321D01*
X111925691Y-66056321D01*
X112073570Y-66230100D01*
X112895540Y-66230100D01*
X112895540Y-65268152D01*
X113153540Y-65268152D01*
X113153540Y-66230100D01*
X113975510Y-66230100D01*
X114123389Y-66056321D01*
X113981278Y-65647439D01*
X113693512Y-65324065D01*
X113324102Y-65142364D01*
X113153540Y-65268152D01*
X112895540Y-65268152D01*
X112724978Y-65142364D01*
X112355568Y-65324065D01*
X112067802Y-65647439D01*
X111925691Y-66056321D01*
X111498141Y-66056321D01*
X111691134Y-65662599D01*
X111565716Y-65488100D01*
X110453540Y-65488100D01*
X110195540Y-65488100D01*
X109083364Y-65488100D01*
X108957946Y-65662599D01*
X108165000Y-65662599D01*
X108165000Y-65055601D01*
X108957946Y-65055601D01*
X109083364Y-65230100D01*
X110195540Y-65230100D01*
X110195540Y-64226100D01*
X110453540Y-64226100D01*
X110453540Y-65230100D01*
X111565716Y-65230100D01*
X111691134Y-65055601D01*
X111491909Y-64649165D01*
X111152301Y-64361711D01*
X110728540Y-64226100D01*
X110453540Y-64226100D01*
X110195540Y-64226100D01*
X109920540Y-64226100D01*
X109496779Y-64361711D01*
X109157171Y-64649165D01*
X108957946Y-65055601D01*
X108165000Y-65055601D01*
X108165000Y-59050000D01*
X121600000Y-59050000D01*
X121772208Y-59015746D01*
X121918198Y-58918198D01*
X121927017Y-58905000D01*
X122040000Y-58905000D01*
X122088632Y-58895152D01*
X122129601Y-58867159D01*
X122156451Y-58825432D01*
X122164997Y-58779088D01*
X122138464Y-55144000D01*
X150348054Y-55144000D01*
X150348054Y-57176000D01*
X150374202Y-57314966D01*
X150456331Y-57442599D01*
X150581646Y-57528223D01*
X150730400Y-57558346D01*
X152457600Y-57558346D01*
X152596566Y-57532198D01*
X152724199Y-57450069D01*
X152809823Y-57324754D01*
X152839946Y-57176000D01*
X152839946Y-55980349D01*
X152895400Y-55980349D01*
X152895400Y-56339651D01*
X152989683Y-56813643D01*
X153258178Y-57215473D01*
X153660008Y-57483968D01*
X154134000Y-57578251D01*
X154607992Y-57483968D01*
X155009822Y-57215473D01*
X155278317Y-56813643D01*
X155372600Y-56339651D01*
X155372600Y-55980349D01*
X155435400Y-55980349D01*
X155435400Y-56339651D01*
X155529683Y-56813643D01*
X155798178Y-57215473D01*
X156200008Y-57483968D01*
X156674000Y-57578251D01*
X157147992Y-57483968D01*
X157549822Y-57215473D01*
X157818317Y-56813643D01*
X157912600Y-56339651D01*
X157912600Y-55980349D01*
X157975400Y-55980349D01*
X157975400Y-56339651D01*
X158069683Y-56813643D01*
X158338178Y-57215473D01*
X158740008Y-57483968D01*
X159214000Y-57578251D01*
X159687992Y-57483968D01*
X160089822Y-57215473D01*
X160358317Y-56813643D01*
X160452600Y-56339651D01*
X160452600Y-55980349D01*
X160515400Y-55980349D01*
X160515400Y-56339651D01*
X160609683Y-56813643D01*
X160878178Y-57215473D01*
X161280008Y-57483968D01*
X161754000Y-57578251D01*
X162227992Y-57483968D01*
X162629822Y-57215473D01*
X162898317Y-56813643D01*
X162992600Y-56339651D01*
X162992600Y-55980349D01*
X163055400Y-55980349D01*
X163055400Y-56339651D01*
X163149683Y-56813643D01*
X163418178Y-57215473D01*
X163820008Y-57483968D01*
X164294000Y-57578251D01*
X164767992Y-57483968D01*
X165169822Y-57215473D01*
X165438317Y-56813643D01*
X165532600Y-56339651D01*
X165532600Y-55980349D01*
X165595400Y-55980349D01*
X165595400Y-56339651D01*
X165689683Y-56813643D01*
X165958178Y-57215473D01*
X166360008Y-57483968D01*
X166834000Y-57578251D01*
X167307992Y-57483968D01*
X167709822Y-57215473D01*
X167978317Y-56813643D01*
X168072600Y-56339651D01*
X168072600Y-55980349D01*
X168135400Y-55980349D01*
X168135400Y-56339651D01*
X168229683Y-56813643D01*
X168498178Y-57215473D01*
X168900008Y-57483968D01*
X169374000Y-57578251D01*
X169847992Y-57483968D01*
X170249822Y-57215473D01*
X170518317Y-56813643D01*
X170612600Y-56339651D01*
X170612600Y-55980349D01*
X170675400Y-55980349D01*
X170675400Y-56339651D01*
X170769683Y-56813643D01*
X171038178Y-57215473D01*
X171440008Y-57483968D01*
X171914000Y-57578251D01*
X172387992Y-57483968D01*
X172789822Y-57215473D01*
X173058317Y-56813643D01*
X173063650Y-56786834D01*
X173164854Y-57074945D01*
X173554798Y-57510235D01*
X174081637Y-57763165D01*
X174093340Y-57764893D01*
X174325000Y-57644519D01*
X174325000Y-56289000D01*
X174583000Y-56289000D01*
X174583000Y-57644519D01*
X174814660Y-57764893D01*
X174826363Y-57763165D01*
X175353202Y-57510235D01*
X175743146Y-57074945D01*
X175936829Y-56523565D01*
X175793356Y-56289000D01*
X174583000Y-56289000D01*
X174325000Y-56289000D01*
X174305000Y-56289000D01*
X174305000Y-56031000D01*
X174325000Y-56031000D01*
X174325000Y-54675481D01*
X174583000Y-54675481D01*
X174583000Y-56031000D01*
X175793356Y-56031000D01*
X175936829Y-55796435D01*
X175743146Y-55245055D01*
X175353202Y-54809765D01*
X174826363Y-54556835D01*
X174814660Y-54555107D01*
X174583000Y-54675481D01*
X174325000Y-54675481D01*
X174093340Y-54555107D01*
X174081637Y-54556835D01*
X173554798Y-54809765D01*
X173164854Y-55245055D01*
X173063650Y-55533166D01*
X173058317Y-55506357D01*
X172789822Y-55104527D01*
X172387992Y-54836032D01*
X171914000Y-54741749D01*
X171440008Y-54836032D01*
X171038178Y-55104527D01*
X170769683Y-55506357D01*
X170675400Y-55980349D01*
X170612600Y-55980349D01*
X170518317Y-55506357D01*
X170249822Y-55104527D01*
X169847992Y-54836032D01*
X169374000Y-54741749D01*
X168900008Y-54836032D01*
X168498178Y-55104527D01*
X168229683Y-55506357D01*
X168135400Y-55980349D01*
X168072600Y-55980349D01*
X167978317Y-55506357D01*
X167709822Y-55104527D01*
X167307992Y-54836032D01*
X166834000Y-54741749D01*
X166360008Y-54836032D01*
X165958178Y-55104527D01*
X165689683Y-55506357D01*
X165595400Y-55980349D01*
X165532600Y-55980349D01*
X165438317Y-55506357D01*
X165169822Y-55104527D01*
X164767992Y-54836032D01*
X164294000Y-54741749D01*
X163820008Y-54836032D01*
X163418178Y-55104527D01*
X163149683Y-55506357D01*
X163055400Y-55980349D01*
X162992600Y-55980349D01*
X162898317Y-55506357D01*
X162629822Y-55104527D01*
X162227992Y-54836032D01*
X161754000Y-54741749D01*
X161280008Y-54836032D01*
X160878178Y-55104527D01*
X160609683Y-55506357D01*
X160515400Y-55980349D01*
X160452600Y-55980349D01*
X160358317Y-55506357D01*
X160089822Y-55104527D01*
X159687992Y-54836032D01*
X159214000Y-54741749D01*
X158740008Y-54836032D01*
X158338178Y-55104527D01*
X158069683Y-55506357D01*
X157975400Y-55980349D01*
X157912600Y-55980349D01*
X157818317Y-55506357D01*
X157549822Y-55104527D01*
X157147992Y-54836032D01*
X156674000Y-54741749D01*
X156200008Y-54836032D01*
X155798178Y-55104527D01*
X155529683Y-55506357D01*
X155435400Y-55980349D01*
X155372600Y-55980349D01*
X155278317Y-55506357D01*
X155009822Y-55104527D01*
X154607992Y-54836032D01*
X154134000Y-54741749D01*
X153660008Y-54836032D01*
X153258178Y-55104527D01*
X152989683Y-55506357D01*
X152895400Y-55980349D01*
X152839946Y-55980349D01*
X152839946Y-55144000D01*
X152813798Y-55005034D01*
X152731669Y-54877401D01*
X152606354Y-54791777D01*
X152457600Y-54761654D01*
X150730400Y-54761654D01*
X150591434Y-54787802D01*
X150463801Y-54869931D01*
X150378177Y-54995246D01*
X150348054Y-55144000D01*
X122138464Y-55144000D01*
X122097997Y-49600000D01*
X132957418Y-49600000D01*
X133196633Y-50802614D01*
X133877859Y-51822141D01*
X134897386Y-52503367D01*
X136100000Y-52742582D01*
X137302614Y-52503367D01*
X138322141Y-51822141D01*
X139003367Y-50802614D01*
X139242582Y-49600000D01*
X159457418Y-49600000D01*
X159696633Y-50802614D01*
X160377859Y-51822141D01*
X161397386Y-52503367D01*
X162600000Y-52742582D01*
X163802614Y-52503367D01*
X164822141Y-51822141D01*
X165503367Y-50802614D01*
X165742582Y-49600000D01*
X165503367Y-48397386D01*
X164822141Y-47377859D01*
X163802614Y-46696633D01*
X162600000Y-46457418D01*
X161397386Y-46696633D01*
X160377859Y-47377859D01*
X159696633Y-48397386D01*
X159457418Y-49600000D01*
X139242582Y-49600000D01*
X139003367Y-48397386D01*
X138322141Y-47377859D01*
X137302614Y-46696633D01*
X136100000Y-46457418D01*
X134897386Y-46696633D01*
X133877859Y-47377859D01*
X133196633Y-48397386D01*
X132957418Y-49600000D01*
X122097997Y-49600000D01*
X122065916Y-45205000D01*
X176015896Y-45205000D01*
X176115003Y-58980899D01*
M02*
