G04 #@! TF.FileFunction,Soldermask,Bot*
%FSLAX46Y46*%
G04 Gerber Fmt 4.6, Leading zero omitted, Abs format (unit mm)*
G04 Created by KiCad (PCBNEW 4.0.2-4+6225~38~ubuntu15.10.1-stable) date Sat 09 Apr 2016 11:14:47 AM CDT*
%MOMM*%
G01*
G04 APERTURE LIST*
%ADD10C,0.100000*%
%ADD11R,2.127200X2.432000*%
%ADD12O,2.127200X2.432000*%
%ADD13R,2.432000X2.127200*%
%ADD14O,2.432000X2.127200*%
%ADD15O,1.350000X1.650000*%
%ADD16O,1.950000X1.400000*%
%ADD17R,2.940000X2.940000*%
%ADD18C,2.940000*%
%ADD19C,1.924000*%
G04 APERTURE END LIST*
D10*
D11*
X174200000Y-81814000D03*
D12*
X171660000Y-81814000D03*
X169120000Y-81814000D03*
X166580000Y-81814000D03*
X164040000Y-81814000D03*
X161500000Y-81814000D03*
X158960000Y-81814000D03*
X156420000Y-81814000D03*
X153880000Y-81814000D03*
X151340000Y-81814000D03*
D13*
X164802000Y-74702000D03*
D14*
X164802000Y-72162000D03*
X164802000Y-69622000D03*
X164802000Y-67082000D03*
X164802000Y-64542000D03*
X164802000Y-62002000D03*
D11*
X151594000Y-56160000D03*
D12*
X154134000Y-56160000D03*
X156674000Y-56160000D03*
X159214000Y-56160000D03*
X161754000Y-56160000D03*
X164294000Y-56160000D03*
X166834000Y-56160000D03*
X169374000Y-56160000D03*
X171914000Y-56160000D03*
X174454000Y-56160000D03*
D15*
X113024540Y-66359100D03*
X113024540Y-71359100D03*
D16*
X110324540Y-65359100D03*
X110324540Y-72359100D03*
D17*
X187408000Y-71908000D03*
D18*
X187408000Y-66828000D03*
D19*
X181312000Y-63526000D03*
X181312000Y-75726000D03*
X169312000Y-75726000D03*
X169312000Y-63526000D03*
X175312000Y-61726000D03*
D13*
X125940000Y-65304000D03*
D14*
X125940000Y-67844000D03*
X125940000Y-70384000D03*
X125940000Y-72924000D03*
M02*
