G04 #@! TF.FileFunction,Legend,Top*
%FSLAX46Y46*%
G04 Gerber Fmt 4.6, Leading zero omitted, Abs format (unit mm)*
G04 Created by KiCad (PCBNEW 4.0.2-4+6225~38~ubuntu15.10.1-stable) date Sat 09 Apr 2016 11:14:47 AM CDT*
%MOMM*%
G01*
G04 APERTURE LIST*
%ADD10C,0.100000*%
%ADD11C,0.150000*%
G04 APERTURE END LIST*
D10*
D11*
X175190060Y-52179140D02*
X174839540Y-52179140D01*
X171689940Y-52179140D02*
X172040460Y-52179140D01*
X175190060Y-48129560D02*
X174839540Y-48129560D01*
X175190060Y-52630440D02*
X174839540Y-52630440D01*
X171689940Y-52630440D02*
X172040460Y-52630440D01*
X171689940Y-48129560D02*
X172040460Y-48129560D01*
X175190060Y-52630440D02*
X175190060Y-48129560D01*
X171689940Y-52630440D02*
X171689940Y-48129560D01*
X127689020Y-54530000D02*
X124989020Y-54530000D01*
X127689020Y-56030000D02*
X124989020Y-56030000D01*
X126189020Y-55130000D02*
X126189020Y-55380000D01*
X126189020Y-55380000D02*
X126339020Y-55230000D01*
X126439020Y-55630000D02*
X126439020Y-54930000D01*
X126089020Y-55280000D02*
X125739020Y-55280000D01*
X126439020Y-55280000D02*
X126089020Y-55630000D01*
X126089020Y-55630000D02*
X126089020Y-54930000D01*
X126089020Y-54930000D02*
X126439020Y-55280000D01*
X147746000Y-77966000D02*
X147746000Y-59966000D01*
X162346000Y-77966000D02*
X142346000Y-77966000D01*
X142346000Y-77966000D02*
X142346000Y-59966000D01*
X142446000Y-59966000D02*
X162446000Y-59966000D01*
X162346000Y-59966000D02*
X162346000Y-77966000D01*
X116942500Y-70162000D02*
X116942500Y-74162000D01*
X122237500Y-68887000D02*
X122237500Y-74162000D01*
X172930000Y-83084000D02*
X150070000Y-83084000D01*
X150070000Y-83084000D02*
X150070000Y-80544000D01*
X150070000Y-80544000D02*
X172930000Y-80544000D01*
X175750000Y-83364000D02*
X174200000Y-83364000D01*
X172930000Y-83084000D02*
X172930000Y-80544000D01*
X174200000Y-80264000D02*
X175750000Y-80264000D01*
X175750000Y-80264000D02*
X175750000Y-83364000D01*
X123290000Y-82025020D02*
X123290000Y-84725020D01*
X124790000Y-82025020D02*
X124790000Y-84725020D01*
X123890000Y-83525020D02*
X124140000Y-83525020D01*
X124140000Y-83525020D02*
X123990000Y-83375020D01*
X124390000Y-83275020D02*
X123690000Y-83275020D01*
X124040000Y-83625020D02*
X124040000Y-83975020D01*
X124040000Y-83275020D02*
X124390000Y-83625020D01*
X124390000Y-83625020D02*
X123690000Y-83625020D01*
X123690000Y-83625020D02*
X124040000Y-83275020D01*
X119982000Y-60114000D02*
G75*
G03X119982000Y-60114000I-100000J0D01*
G01*
X120432000Y-60364000D02*
X119932000Y-60364000D01*
X120432000Y-63264000D02*
X120432000Y-60364000D01*
X119932000Y-63264000D02*
X120432000Y-63264000D01*
X119932000Y-60364000D02*
X119932000Y-63264000D01*
X119503000Y-66086000D02*
X119503000Y-67086000D01*
X118153000Y-67086000D02*
X118153000Y-66086000D01*
X125778000Y-59874000D02*
X125778000Y-60574000D01*
X124578000Y-60574000D02*
X124578000Y-59874000D01*
X127556000Y-59874000D02*
X127556000Y-60574000D01*
X126356000Y-60574000D02*
X126356000Y-59874000D01*
X142812000Y-89780000D02*
X142112000Y-89780000D01*
X142112000Y-88580000D02*
X142812000Y-88580000D01*
X113906000Y-76642000D02*
X114606000Y-76642000D01*
X114606000Y-77842000D02*
X113906000Y-77842000D01*
X116450000Y-66936000D02*
X116450000Y-66236000D01*
X117650000Y-66236000D02*
X117650000Y-66936000D01*
X150640000Y-86430000D02*
X153340000Y-86430000D01*
X150640000Y-84930000D02*
X153340000Y-84930000D01*
X152140000Y-85830000D02*
X152140000Y-85580000D01*
X152140000Y-85580000D02*
X151990000Y-85730000D01*
X151890000Y-85330000D02*
X151890000Y-86030000D01*
X152240000Y-85680000D02*
X152590000Y-85680000D01*
X151890000Y-85680000D02*
X152240000Y-85330000D01*
X152240000Y-85330000D02*
X152240000Y-86030000D01*
X152240000Y-86030000D02*
X151890000Y-85680000D01*
X125690000Y-82029020D02*
X125690000Y-84729020D01*
X127190000Y-82029020D02*
X127190000Y-84729020D01*
X126290000Y-83529020D02*
X126540000Y-83529020D01*
X126540000Y-83529020D02*
X126390000Y-83379020D01*
X126790000Y-83279020D02*
X126090000Y-83279020D01*
X126440000Y-83629020D02*
X126440000Y-83979020D01*
X126440000Y-83279020D02*
X126790000Y-83629020D01*
X126790000Y-83629020D02*
X126090000Y-83629020D01*
X126090000Y-83629020D02*
X126440000Y-83279020D01*
X128190000Y-82080000D02*
X128190000Y-84780000D01*
X129690000Y-82080000D02*
X129690000Y-84780000D01*
X128790000Y-83580000D02*
X129040000Y-83580000D01*
X129040000Y-83580000D02*
X128890000Y-83430000D01*
X129290000Y-83330000D02*
X128590000Y-83330000D01*
X128940000Y-83680000D02*
X128940000Y-84030000D01*
X128940000Y-83330000D02*
X129290000Y-83680000D01*
X129290000Y-83680000D02*
X128590000Y-83680000D01*
X128590000Y-83680000D02*
X128940000Y-83330000D01*
X163532000Y-73432000D02*
X163532000Y-60732000D01*
X163532000Y-60732000D02*
X166072000Y-60732000D01*
X166072000Y-60732000D02*
X166072000Y-73432000D01*
X163252000Y-76252000D02*
X163252000Y-74702000D01*
X163532000Y-73432000D02*
X166072000Y-73432000D01*
X166352000Y-74702000D02*
X166352000Y-76252000D01*
X166352000Y-76252000D02*
X163252000Y-76252000D01*
X152864000Y-54890000D02*
X175724000Y-54890000D01*
X175724000Y-54890000D02*
X175724000Y-57430000D01*
X175724000Y-57430000D02*
X152864000Y-57430000D01*
X150044000Y-54610000D02*
X151594000Y-54610000D01*
X152864000Y-54890000D02*
X152864000Y-57430000D01*
X151594000Y-57710000D02*
X150044000Y-57710000D01*
X150044000Y-57710000D02*
X150044000Y-54610000D01*
X107644540Y-64509100D02*
X107644540Y-73209100D01*
X114049540Y-64509100D02*
X114049540Y-73209100D01*
X114049540Y-73209100D02*
X107644540Y-73209100D01*
X108874540Y-73209100D02*
X108874540Y-64509100D01*
X107644540Y-64509100D02*
X114049540Y-64509100D01*
X189948000Y-64288000D02*
X189948000Y-74448000D01*
X191218000Y-64288000D02*
X183598000Y-64288000D01*
X183598000Y-64288000D02*
X183598000Y-74448000D01*
X183598000Y-74448000D02*
X191218000Y-74448000D01*
X191218000Y-74448000D02*
X191218000Y-64288000D01*
X170485160Y-49683000D02*
X170436900Y-49683000D01*
X167686180Y-50384040D02*
X167686180Y-49683000D01*
X167686180Y-49683000D02*
X167935100Y-49683000D01*
X170485160Y-49683000D02*
X170685820Y-49683000D01*
X170685820Y-49683000D02*
X170685820Y-50384040D01*
X137265160Y-82311000D02*
X137216900Y-82311000D01*
X134466180Y-83012040D02*
X134466180Y-82311000D01*
X134466180Y-82311000D02*
X134715100Y-82311000D01*
X137265160Y-82311000D02*
X137465820Y-82311000D01*
X137465820Y-82311000D02*
X137465820Y-83012040D01*
X143789160Y-82383000D02*
X143740900Y-82383000D01*
X140990180Y-83084040D02*
X140990180Y-82383000D01*
X140990180Y-82383000D02*
X141239100Y-82383000D01*
X143789160Y-82383000D02*
X143989820Y-82383000D01*
X143989820Y-82383000D02*
X143989820Y-83084040D01*
X152565000Y-89130000D02*
X152565000Y-88130000D01*
X153915000Y-88130000D02*
X153915000Y-89130000D01*
X158140000Y-51155000D02*
X157140000Y-51155000D01*
X157140000Y-49805000D02*
X158140000Y-49805000D01*
X111883000Y-61248000D02*
X111883000Y-62248000D01*
X110533000Y-62248000D02*
X110533000Y-61248000D01*
X129465000Y-78230000D02*
X129465000Y-77230000D01*
X130815000Y-77230000D02*
X130815000Y-78230000D01*
X151815000Y-88130000D02*
X151815000Y-89130000D01*
X150465000Y-89130000D02*
X150465000Y-88130000D01*
X145585000Y-88906000D02*
X145585000Y-87906000D01*
X146935000Y-87906000D02*
X146935000Y-88906000D01*
X141962000Y-86219000D02*
X142962000Y-86219000D01*
X142962000Y-87569000D02*
X141962000Y-87569000D01*
X131340000Y-55955000D02*
X130340000Y-55955000D01*
X130340000Y-54605000D02*
X131340000Y-54605000D01*
X132123000Y-78250000D02*
X132123000Y-77250000D01*
X133473000Y-77250000D02*
X133473000Y-78250000D01*
X113744000Y-74281000D02*
X114744000Y-74281000D01*
X114744000Y-75631000D02*
X113744000Y-75631000D01*
X126815000Y-77262000D02*
X126815000Y-78262000D01*
X125465000Y-78262000D02*
X125465000Y-77262000D01*
X158140000Y-49155000D02*
X157140000Y-49155000D01*
X157140000Y-47805000D02*
X158140000Y-47805000D01*
X124715000Y-77330000D02*
X124715000Y-78330000D01*
X123365000Y-78330000D02*
X123365000Y-77330000D01*
X139815000Y-82580000D02*
X139815000Y-83580000D01*
X138465000Y-83580000D02*
X138465000Y-82580000D01*
X128815000Y-77230000D02*
X128815000Y-78230000D01*
X127465000Y-78230000D02*
X127465000Y-77230000D01*
X183312000Y-59526000D02*
X183312000Y-77526000D01*
X167312000Y-59526000D02*
X183312000Y-59526000D01*
X167312000Y-77526000D02*
X167312000Y-59526000D01*
X183312000Y-77526000D02*
X167312000Y-77526000D01*
X172572000Y-89268000D02*
X172572000Y-89168000D01*
X171172000Y-89218000D02*
G75*
G03X171172000Y-89218000I-800000J0D01*
G01*
X168172000Y-90768000D02*
X172572000Y-90768000D01*
X172572000Y-87668000D02*
X168172000Y-87668000D01*
X168172000Y-89268000D02*
X168172000Y-89168000D01*
X120265000Y-77262000D02*
X120265000Y-78262000D01*
X118915000Y-78262000D02*
X118915000Y-77262000D01*
X124640000Y-63754000D02*
X124640000Y-65304000D01*
X125940000Y-63754000D02*
X124640000Y-63754000D01*
X130131000Y-65177000D02*
X135973000Y-65177000D01*
X135973000Y-65177000D02*
X135973000Y-65431000D01*
X135973000Y-65431000D02*
X130131000Y-65431000D01*
X130131000Y-65431000D02*
X130131000Y-65304000D01*
X130131000Y-65304000D02*
X135973000Y-65304000D01*
X127464000Y-65050000D02*
X127083000Y-65050000D01*
X127464000Y-65558000D02*
X127083000Y-65558000D01*
X127464000Y-67590000D02*
X127083000Y-67590000D01*
X127464000Y-68098000D02*
X127083000Y-68098000D01*
X127464000Y-70130000D02*
X127083000Y-70130000D01*
X127464000Y-70638000D02*
X127083000Y-70638000D01*
X127464000Y-73178000D02*
X127083000Y-73178000D01*
X127464000Y-72670000D02*
X127083000Y-72670000D01*
X127464000Y-64034000D02*
X130004000Y-64034000D01*
X127464000Y-66574000D02*
X130004000Y-66574000D01*
X127464000Y-66574000D02*
X127464000Y-69114000D01*
X127464000Y-69114000D02*
X130004000Y-69114000D01*
X130004000Y-67590000D02*
X136100000Y-67590000D01*
X136100000Y-67590000D02*
X136100000Y-68098000D01*
X136100000Y-68098000D02*
X130004000Y-68098000D01*
X130004000Y-69114000D02*
X130004000Y-66574000D01*
X130004000Y-66574000D02*
X130004000Y-64034000D01*
X136100000Y-65558000D02*
X130004000Y-65558000D01*
X136100000Y-65050000D02*
X136100000Y-65558000D01*
X130004000Y-65050000D02*
X136100000Y-65050000D01*
X127464000Y-66574000D02*
X130004000Y-66574000D01*
X127464000Y-64034000D02*
X127464000Y-66574000D01*
X127464000Y-71654000D02*
X130004000Y-71654000D01*
X127464000Y-71654000D02*
X127464000Y-74194000D01*
X127464000Y-74194000D02*
X130004000Y-74194000D01*
X130004000Y-72670000D02*
X136100000Y-72670000D01*
X136100000Y-72670000D02*
X136100000Y-73178000D01*
X136100000Y-73178000D02*
X130004000Y-73178000D01*
X130004000Y-74194000D02*
X130004000Y-71654000D01*
X130004000Y-71654000D02*
X130004000Y-69114000D01*
X136100000Y-70638000D02*
X130004000Y-70638000D01*
X136100000Y-70130000D02*
X136100000Y-70638000D01*
X130004000Y-70130000D02*
X136100000Y-70130000D01*
X127464000Y-71654000D02*
X130004000Y-71654000D01*
X127464000Y-69114000D02*
X127464000Y-71654000D01*
X127464000Y-69114000D02*
X130004000Y-69114000D01*
X112640000Y-62098000D02*
X112640000Y-61398000D01*
X113840000Y-61398000D02*
X113840000Y-62098000D01*
X117904000Y-77412000D02*
X117904000Y-78112000D01*
X116704000Y-78112000D02*
X116704000Y-77412000D01*
X115790000Y-62797500D02*
X115790000Y-63178500D01*
X115790000Y-61781500D02*
X115790000Y-62162500D01*
X115790000Y-62162500D02*
X116171000Y-62797500D01*
X116171000Y-62797500D02*
X115409000Y-62797500D01*
X115409000Y-62797500D02*
X115790000Y-62162500D01*
X116298000Y-62162500D02*
X115282000Y-62162500D01*
X114890000Y-60480000D02*
X114890000Y-64020000D01*
X116690000Y-60480000D02*
X116690000Y-64020000D01*
X128489140Y-87429940D02*
X128489140Y-87780460D01*
X128489140Y-90930060D02*
X128489140Y-90579540D01*
X124439560Y-87429940D02*
X124439560Y-87780460D01*
X128940440Y-87429940D02*
X128940440Y-87780460D01*
X128940440Y-90930060D02*
X128940440Y-90579540D01*
X124439560Y-90930060D02*
X124439560Y-90579540D01*
X128940440Y-87429940D02*
X124439560Y-87429940D01*
X128940440Y-90930060D02*
X124439560Y-90930060D01*
X170082381Y-51118095D02*
X169082381Y-51118095D01*
X169082381Y-50880000D01*
X169130000Y-50737142D01*
X169225238Y-50641904D01*
X169320476Y-50594285D01*
X169510952Y-50546666D01*
X169653810Y-50546666D01*
X169844286Y-50594285D01*
X169939524Y-50641904D01*
X170034762Y-50737142D01*
X170082381Y-50880000D01*
X170082381Y-51118095D01*
X169082381Y-49641904D02*
X169082381Y-50118095D01*
X169558571Y-50165714D01*
X169510952Y-50118095D01*
X169463333Y-50022857D01*
X169463333Y-49784761D01*
X169510952Y-49689523D01*
X169558571Y-49641904D01*
X169653810Y-49594285D01*
X169891905Y-49594285D01*
X169987143Y-49641904D01*
X170034762Y-49689523D01*
X170082381Y-49784761D01*
X170082381Y-50022857D01*
X170034762Y-50118095D01*
X169987143Y-50165714D01*
X175028095Y-53832381D02*
X175028095Y-52832381D01*
X175599524Y-53832381D02*
X175170952Y-53260952D01*
X175599524Y-52832381D02*
X175028095Y-53403810D01*
X174901905Y-47446667D02*
X175378096Y-47446667D01*
X174806667Y-47732381D02*
X175140000Y-46732381D01*
X175473334Y-47732381D01*
X125301905Y-54332381D02*
X125301905Y-53332381D01*
X125540000Y-53332381D01*
X125682858Y-53380000D01*
X125778096Y-53475238D01*
X125825715Y-53570476D01*
X125873334Y-53760952D01*
X125873334Y-53903810D01*
X125825715Y-54094286D01*
X125778096Y-54189524D01*
X125682858Y-54284762D01*
X125540000Y-54332381D01*
X125301905Y-54332381D01*
X126730477Y-53665714D02*
X126730477Y-54332381D01*
X126492381Y-53284762D02*
X126254286Y-53999048D01*
X126873334Y-53999048D01*
X162598381Y-62627905D02*
X163407905Y-62627905D01*
X163503143Y-62580286D01*
X163550762Y-62532667D01*
X163598381Y-62437429D01*
X163598381Y-62246952D01*
X163550762Y-62151714D01*
X163503143Y-62104095D01*
X163407905Y-62056476D01*
X162598381Y-62056476D01*
X163598381Y-61056476D02*
X163598381Y-61627905D01*
X163598381Y-61342191D02*
X162598381Y-61342191D01*
X162741238Y-61437429D01*
X162836476Y-61532667D01*
X162884095Y-61627905D01*
X120428095Y-67482381D02*
X120428095Y-68291905D01*
X120475714Y-68387143D01*
X120523333Y-68434762D01*
X120618571Y-68482381D01*
X120809048Y-68482381D01*
X120904286Y-68434762D01*
X120951905Y-68387143D01*
X120999524Y-68291905D01*
X120999524Y-67482381D01*
X121428095Y-67577619D02*
X121475714Y-67530000D01*
X121570952Y-67482381D01*
X121809048Y-67482381D01*
X121904286Y-67530000D01*
X121951905Y-67577619D01*
X121999524Y-67672857D01*
X121999524Y-67768095D01*
X121951905Y-67910952D01*
X121380476Y-68482381D01*
X121999524Y-68482381D01*
X173506667Y-78682381D02*
X173506667Y-79396667D01*
X173459047Y-79539524D01*
X173363809Y-79634762D01*
X173220952Y-79682381D01*
X173125714Y-79682381D01*
X173982857Y-79682381D02*
X173982857Y-78682381D01*
X174363810Y-78682381D01*
X174459048Y-78730000D01*
X174506667Y-78777619D01*
X174554286Y-78872857D01*
X174554286Y-79015714D01*
X174506667Y-79110952D01*
X174459048Y-79158571D01*
X174363810Y-79206190D01*
X173982857Y-79206190D01*
X174935238Y-78777619D02*
X174982857Y-78730000D01*
X175078095Y-78682381D01*
X175316191Y-78682381D01*
X175411429Y-78730000D01*
X175459048Y-78777619D01*
X175506667Y-78872857D01*
X175506667Y-78968095D01*
X175459048Y-79110952D01*
X174887619Y-79682381D01*
X175506667Y-79682381D01*
X123251905Y-86682381D02*
X123251905Y-85682381D01*
X123490000Y-85682381D01*
X123632858Y-85730000D01*
X123728096Y-85825238D01*
X123775715Y-85920476D01*
X123823334Y-86110952D01*
X123823334Y-86253810D01*
X123775715Y-86444286D01*
X123728096Y-86539524D01*
X123632858Y-86634762D01*
X123490000Y-86682381D01*
X123251905Y-86682381D01*
X124394762Y-86110952D02*
X124299524Y-86063333D01*
X124251905Y-86015714D01*
X124204286Y-85920476D01*
X124204286Y-85872857D01*
X124251905Y-85777619D01*
X124299524Y-85730000D01*
X124394762Y-85682381D01*
X124585239Y-85682381D01*
X124680477Y-85730000D01*
X124728096Y-85777619D01*
X124775715Y-85872857D01*
X124775715Y-85920476D01*
X124728096Y-86015714D01*
X124680477Y-86063333D01*
X124585239Y-86110952D01*
X124394762Y-86110952D01*
X124299524Y-86158571D01*
X124251905Y-86206190D01*
X124204286Y-86301429D01*
X124204286Y-86491905D01*
X124251905Y-86587143D01*
X124299524Y-86634762D01*
X124394762Y-86682381D01*
X124585239Y-86682381D01*
X124680477Y-86634762D01*
X124728096Y-86587143D01*
X124775715Y-86491905D01*
X124775715Y-86301429D01*
X124728096Y-86206190D01*
X124680477Y-86158571D01*
X124585239Y-86110952D01*
X119451905Y-58932381D02*
X119451905Y-59741905D01*
X119499524Y-59837143D01*
X119547143Y-59884762D01*
X119642381Y-59932381D01*
X119832858Y-59932381D01*
X119928096Y-59884762D01*
X119975715Y-59837143D01*
X120023334Y-59741905D01*
X120023334Y-58932381D01*
X121023334Y-59932381D02*
X120451905Y-59932381D01*
X120737619Y-59932381D02*
X120737619Y-58932381D01*
X120642381Y-59075238D01*
X120547143Y-59170476D01*
X120451905Y-59218095D01*
X121975715Y-59932381D02*
X121404286Y-59932381D01*
X121690000Y-59932381D02*
X121690000Y-58932381D01*
X121594762Y-59075238D01*
X121499524Y-59170476D01*
X121404286Y-59218095D01*
X118447143Y-65032381D02*
X118113809Y-64556190D01*
X117875714Y-65032381D02*
X117875714Y-64032381D01*
X118256667Y-64032381D01*
X118351905Y-64080000D01*
X118399524Y-64127619D01*
X118447143Y-64222857D01*
X118447143Y-64365714D01*
X118399524Y-64460952D01*
X118351905Y-64508571D01*
X118256667Y-64556190D01*
X117875714Y-64556190D01*
X119399524Y-65032381D02*
X118828095Y-65032381D01*
X119113809Y-65032381D02*
X119113809Y-64032381D01*
X119018571Y-64175238D01*
X118923333Y-64270476D01*
X118828095Y-64318095D01*
X120351905Y-65032381D02*
X119780476Y-65032381D01*
X120066190Y-65032381D02*
X120066190Y-64032381D01*
X119970952Y-64175238D01*
X119875714Y-64270476D01*
X119780476Y-64318095D01*
X124823334Y-58337143D02*
X124775715Y-58384762D01*
X124632858Y-58432381D01*
X124537620Y-58432381D01*
X124394762Y-58384762D01*
X124299524Y-58289524D01*
X124251905Y-58194286D01*
X124204286Y-58003810D01*
X124204286Y-57860952D01*
X124251905Y-57670476D01*
X124299524Y-57575238D01*
X124394762Y-57480000D01*
X124537620Y-57432381D01*
X124632858Y-57432381D01*
X124775715Y-57480000D01*
X124823334Y-57527619D01*
X125204286Y-57527619D02*
X125251905Y-57480000D01*
X125347143Y-57432381D01*
X125585239Y-57432381D01*
X125680477Y-57480000D01*
X125728096Y-57527619D01*
X125775715Y-57622857D01*
X125775715Y-57718095D01*
X125728096Y-57860952D01*
X125156667Y-58432381D01*
X125775715Y-58432381D01*
X127173334Y-58387143D02*
X127125715Y-58434762D01*
X126982858Y-58482381D01*
X126887620Y-58482381D01*
X126744762Y-58434762D01*
X126649524Y-58339524D01*
X126601905Y-58244286D01*
X126554286Y-58053810D01*
X126554286Y-57910952D01*
X126601905Y-57720476D01*
X126649524Y-57625238D01*
X126744762Y-57530000D01*
X126887620Y-57482381D01*
X126982858Y-57482381D01*
X127125715Y-57530000D01*
X127173334Y-57577619D01*
X127506667Y-57482381D02*
X128125715Y-57482381D01*
X127792381Y-57863333D01*
X127935239Y-57863333D01*
X128030477Y-57910952D01*
X128078096Y-57958571D01*
X128125715Y-58053810D01*
X128125715Y-58291905D01*
X128078096Y-58387143D01*
X128030477Y-58434762D01*
X127935239Y-58482381D01*
X127649524Y-58482381D01*
X127554286Y-58434762D01*
X127506667Y-58387143D01*
X142323334Y-91187143D02*
X142275715Y-91234762D01*
X142132858Y-91282381D01*
X142037620Y-91282381D01*
X141894762Y-91234762D01*
X141799524Y-91139524D01*
X141751905Y-91044286D01*
X141704286Y-90853810D01*
X141704286Y-90710952D01*
X141751905Y-90520476D01*
X141799524Y-90425238D01*
X141894762Y-90330000D01*
X142037620Y-90282381D01*
X142132858Y-90282381D01*
X142275715Y-90330000D01*
X142323334Y-90377619D01*
X143180477Y-90615714D02*
X143180477Y-91282381D01*
X142942381Y-90234762D02*
X142704286Y-90949048D01*
X143323334Y-90949048D01*
X113173334Y-79087143D02*
X113125715Y-79134762D01*
X112982858Y-79182381D01*
X112887620Y-79182381D01*
X112744762Y-79134762D01*
X112649524Y-79039524D01*
X112601905Y-78944286D01*
X112554286Y-78753810D01*
X112554286Y-78610952D01*
X112601905Y-78420476D01*
X112649524Y-78325238D01*
X112744762Y-78230000D01*
X112887620Y-78182381D01*
X112982858Y-78182381D01*
X113125715Y-78230000D01*
X113173334Y-78277619D01*
X114078096Y-78182381D02*
X113601905Y-78182381D01*
X113554286Y-78658571D01*
X113601905Y-78610952D01*
X113697143Y-78563333D01*
X113935239Y-78563333D01*
X114030477Y-78610952D01*
X114078096Y-78658571D01*
X114125715Y-78753810D01*
X114125715Y-78991905D01*
X114078096Y-79087143D01*
X114030477Y-79134762D01*
X113935239Y-79182381D01*
X113697143Y-79182381D01*
X113601905Y-79134762D01*
X113554286Y-79087143D01*
X115223334Y-67937143D02*
X115175715Y-67984762D01*
X115032858Y-68032381D01*
X114937620Y-68032381D01*
X114794762Y-67984762D01*
X114699524Y-67889524D01*
X114651905Y-67794286D01*
X114604286Y-67603810D01*
X114604286Y-67460952D01*
X114651905Y-67270476D01*
X114699524Y-67175238D01*
X114794762Y-67080000D01*
X114937620Y-67032381D01*
X115032858Y-67032381D01*
X115175715Y-67080000D01*
X115223334Y-67127619D01*
X116080477Y-67032381D02*
X115890000Y-67032381D01*
X115794762Y-67080000D01*
X115747143Y-67127619D01*
X115651905Y-67270476D01*
X115604286Y-67460952D01*
X115604286Y-67841905D01*
X115651905Y-67937143D01*
X115699524Y-67984762D01*
X115794762Y-68032381D01*
X115985239Y-68032381D01*
X116080477Y-67984762D01*
X116128096Y-67937143D01*
X116175715Y-67841905D01*
X116175715Y-67603810D01*
X116128096Y-67508571D01*
X116080477Y-67460952D01*
X115985239Y-67413333D01*
X115794762Y-67413333D01*
X115699524Y-67460952D01*
X115651905Y-67508571D01*
X115604286Y-67603810D01*
X150301905Y-84582381D02*
X150301905Y-83582381D01*
X150540000Y-83582381D01*
X150682858Y-83630000D01*
X150778096Y-83725238D01*
X150825715Y-83820476D01*
X150873334Y-84010952D01*
X150873334Y-84153810D01*
X150825715Y-84344286D01*
X150778096Y-84439524D01*
X150682858Y-84534762D01*
X150540000Y-84582381D01*
X150301905Y-84582381D01*
X151825715Y-84582381D02*
X151254286Y-84582381D01*
X151540000Y-84582381D02*
X151540000Y-83582381D01*
X151444762Y-83725238D01*
X151349524Y-83820476D01*
X151254286Y-83868095D01*
X125751905Y-86682381D02*
X125751905Y-85682381D01*
X125990000Y-85682381D01*
X126132858Y-85730000D01*
X126228096Y-85825238D01*
X126275715Y-85920476D01*
X126323334Y-86110952D01*
X126323334Y-86253810D01*
X126275715Y-86444286D01*
X126228096Y-86539524D01*
X126132858Y-86634762D01*
X125990000Y-86682381D01*
X125751905Y-86682381D01*
X126656667Y-85682381D02*
X127323334Y-85682381D01*
X126894762Y-86682381D01*
X128251905Y-86782381D02*
X128251905Y-85782381D01*
X128490000Y-85782381D01*
X128632858Y-85830000D01*
X128728096Y-85925238D01*
X128775715Y-86020476D01*
X128823334Y-86210952D01*
X128823334Y-86353810D01*
X128775715Y-86544286D01*
X128728096Y-86639524D01*
X128632858Y-86734762D01*
X128490000Y-86782381D01*
X128251905Y-86782381D01*
X129299524Y-86782381D02*
X129490000Y-86782381D01*
X129585239Y-86734762D01*
X129632858Y-86687143D01*
X129728096Y-86544286D01*
X129775715Y-86353810D01*
X129775715Y-85972857D01*
X129728096Y-85877619D01*
X129680477Y-85830000D01*
X129585239Y-85782381D01*
X129394762Y-85782381D01*
X129299524Y-85830000D01*
X129251905Y-85877619D01*
X129204286Y-85972857D01*
X129204286Y-86210952D01*
X129251905Y-86306190D01*
X129299524Y-86353810D01*
X129394762Y-86401429D01*
X129585239Y-86401429D01*
X129680477Y-86353810D01*
X129728096Y-86306190D01*
X129775715Y-86210952D01*
X163956667Y-59232381D02*
X163956667Y-59946667D01*
X163909047Y-60089524D01*
X163813809Y-60184762D01*
X163670952Y-60232381D01*
X163575714Y-60232381D01*
X164432857Y-60232381D02*
X164432857Y-59232381D01*
X164813810Y-59232381D01*
X164909048Y-59280000D01*
X164956667Y-59327619D01*
X165004286Y-59422857D01*
X165004286Y-59565714D01*
X164956667Y-59660952D01*
X164909048Y-59708571D01*
X164813810Y-59756190D01*
X164432857Y-59756190D01*
X165956667Y-60232381D02*
X165385238Y-60232381D01*
X165670952Y-60232381D02*
X165670952Y-59232381D01*
X165575714Y-59375238D01*
X165480476Y-59470476D01*
X165385238Y-59518095D01*
X151806667Y-53282381D02*
X151806667Y-53996667D01*
X151759047Y-54139524D01*
X151663809Y-54234762D01*
X151520952Y-54282381D01*
X151425714Y-54282381D01*
X152282857Y-54282381D02*
X152282857Y-53282381D01*
X152663810Y-53282381D01*
X152759048Y-53330000D01*
X152806667Y-53377619D01*
X152854286Y-53472857D01*
X152854286Y-53615714D01*
X152806667Y-53710952D01*
X152759048Y-53758571D01*
X152663810Y-53806190D01*
X152282857Y-53806190D01*
X153187619Y-53282381D02*
X153806667Y-53282381D01*
X153473333Y-53663333D01*
X153616191Y-53663333D01*
X153711429Y-53710952D01*
X153759048Y-53758571D01*
X153806667Y-53853810D01*
X153806667Y-54091905D01*
X153759048Y-54187143D01*
X153711429Y-54234762D01*
X153616191Y-54282381D01*
X153330476Y-54282381D01*
X153235238Y-54234762D01*
X153187619Y-54187143D01*
X108201905Y-63982381D02*
X108201905Y-62982381D01*
X108582858Y-62982381D01*
X108678096Y-63030000D01*
X108725715Y-63077619D01*
X108773334Y-63172857D01*
X108773334Y-63315714D01*
X108725715Y-63410952D01*
X108678096Y-63458571D01*
X108582858Y-63506190D01*
X108201905Y-63506190D01*
X109725715Y-63982381D02*
X109154286Y-63982381D01*
X109440000Y-63982381D02*
X109440000Y-62982381D01*
X109344762Y-63125238D01*
X109249524Y-63220476D01*
X109154286Y-63268095D01*
X188901905Y-63532381D02*
X188901905Y-62532381D01*
X189282858Y-62532381D01*
X189378096Y-62580000D01*
X189425715Y-62627619D01*
X189473334Y-62722857D01*
X189473334Y-62865714D01*
X189425715Y-62960952D01*
X189378096Y-63008571D01*
X189282858Y-63056190D01*
X188901905Y-63056190D01*
X189854286Y-62627619D02*
X189901905Y-62580000D01*
X189997143Y-62532381D01*
X190235239Y-62532381D01*
X190330477Y-62580000D01*
X190378096Y-62627619D01*
X190425715Y-62722857D01*
X190425715Y-62818095D01*
X190378096Y-62960952D01*
X189806667Y-63532381D01*
X190425715Y-63532381D01*
X169094762Y-48427619D02*
X168999524Y-48380000D01*
X168904286Y-48284762D01*
X168761429Y-48141905D01*
X168666190Y-48094286D01*
X168570952Y-48094286D01*
X168618571Y-48332381D02*
X168523333Y-48284762D01*
X168428095Y-48189524D01*
X168380476Y-47999048D01*
X168380476Y-47665714D01*
X168428095Y-47475238D01*
X168523333Y-47380000D01*
X168618571Y-47332381D01*
X168809048Y-47332381D01*
X168904286Y-47380000D01*
X168999524Y-47475238D01*
X169047143Y-47665714D01*
X169047143Y-47999048D01*
X168999524Y-48189524D01*
X168904286Y-48284762D01*
X168809048Y-48332381D01*
X168618571Y-48332381D01*
X169999524Y-48332381D02*
X169428095Y-48332381D01*
X169713809Y-48332381D02*
X169713809Y-47332381D01*
X169618571Y-47475238D01*
X169523333Y-47570476D01*
X169428095Y-47618095D01*
X135870762Y-81258859D02*
X135775524Y-81211240D01*
X135680286Y-81116002D01*
X135537429Y-80973145D01*
X135442190Y-80925526D01*
X135346952Y-80925526D01*
X135394571Y-81163621D02*
X135299333Y-81116002D01*
X135204095Y-81020764D01*
X135156476Y-80830288D01*
X135156476Y-80496954D01*
X135204095Y-80306478D01*
X135299333Y-80211240D01*
X135394571Y-80163621D01*
X135585048Y-80163621D01*
X135680286Y-80211240D01*
X135775524Y-80306478D01*
X135823143Y-80496954D01*
X135823143Y-80830288D01*
X135775524Y-81020764D01*
X135680286Y-81116002D01*
X135585048Y-81163621D01*
X135394571Y-81163621D01*
X136204095Y-80258859D02*
X136251714Y-80211240D01*
X136346952Y-80163621D01*
X136585048Y-80163621D01*
X136680286Y-80211240D01*
X136727905Y-80258859D01*
X136775524Y-80354097D01*
X136775524Y-80449335D01*
X136727905Y-80592192D01*
X136156476Y-81163621D01*
X136775524Y-81163621D01*
X144094762Y-81877619D02*
X143999524Y-81830000D01*
X143904286Y-81734762D01*
X143761429Y-81591905D01*
X143666190Y-81544286D01*
X143570952Y-81544286D01*
X143618571Y-81782381D02*
X143523333Y-81734762D01*
X143428095Y-81639524D01*
X143380476Y-81449048D01*
X143380476Y-81115714D01*
X143428095Y-80925238D01*
X143523333Y-80830000D01*
X143618571Y-80782381D01*
X143809048Y-80782381D01*
X143904286Y-80830000D01*
X143999524Y-80925238D01*
X144047143Y-81115714D01*
X144047143Y-81449048D01*
X143999524Y-81639524D01*
X143904286Y-81734762D01*
X143809048Y-81782381D01*
X143618571Y-81782381D01*
X144380476Y-80782381D02*
X144999524Y-80782381D01*
X144666190Y-81163333D01*
X144809048Y-81163333D01*
X144904286Y-81210952D01*
X144951905Y-81258571D01*
X144999524Y-81353810D01*
X144999524Y-81591905D01*
X144951905Y-81687143D01*
X144904286Y-81734762D01*
X144809048Y-81782381D01*
X144523333Y-81782381D01*
X144428095Y-81734762D01*
X144380476Y-81687143D01*
X153973334Y-91182381D02*
X153640000Y-90706190D01*
X153401905Y-91182381D02*
X153401905Y-90182381D01*
X153782858Y-90182381D01*
X153878096Y-90230000D01*
X153925715Y-90277619D01*
X153973334Y-90372857D01*
X153973334Y-90515714D01*
X153925715Y-90610952D01*
X153878096Y-90658571D01*
X153782858Y-90706190D01*
X153401905Y-90706190D01*
X154925715Y-91182381D02*
X154354286Y-91182381D01*
X154640000Y-91182381D02*
X154640000Y-90182381D01*
X154544762Y-90325238D01*
X154449524Y-90420476D01*
X154354286Y-90468095D01*
X158073334Y-52332381D02*
X157740000Y-51856190D01*
X157501905Y-52332381D02*
X157501905Y-51332381D01*
X157882858Y-51332381D01*
X157978096Y-51380000D01*
X158025715Y-51427619D01*
X158073334Y-51522857D01*
X158073334Y-51665714D01*
X158025715Y-51760952D01*
X157978096Y-51808571D01*
X157882858Y-51856190D01*
X157501905Y-51856190D01*
X158454286Y-51427619D02*
X158501905Y-51380000D01*
X158597143Y-51332381D01*
X158835239Y-51332381D01*
X158930477Y-51380000D01*
X158978096Y-51427619D01*
X159025715Y-51522857D01*
X159025715Y-51618095D01*
X158978096Y-51760952D01*
X158406667Y-52332381D01*
X159025715Y-52332381D01*
X110823334Y-60382381D02*
X110490000Y-59906190D01*
X110251905Y-60382381D02*
X110251905Y-59382381D01*
X110632858Y-59382381D01*
X110728096Y-59430000D01*
X110775715Y-59477619D01*
X110823334Y-59572857D01*
X110823334Y-59715714D01*
X110775715Y-59810952D01*
X110728096Y-59858571D01*
X110632858Y-59906190D01*
X110251905Y-59906190D01*
X111156667Y-59382381D02*
X111775715Y-59382381D01*
X111442381Y-59763333D01*
X111585239Y-59763333D01*
X111680477Y-59810952D01*
X111728096Y-59858571D01*
X111775715Y-59953810D01*
X111775715Y-60191905D01*
X111728096Y-60287143D01*
X111680477Y-60334762D01*
X111585239Y-60382381D01*
X111299524Y-60382381D01*
X111204286Y-60334762D01*
X111156667Y-60287143D01*
X130023334Y-80182381D02*
X129690000Y-79706190D01*
X129451905Y-80182381D02*
X129451905Y-79182381D01*
X129832858Y-79182381D01*
X129928096Y-79230000D01*
X129975715Y-79277619D01*
X130023334Y-79372857D01*
X130023334Y-79515714D01*
X129975715Y-79610952D01*
X129928096Y-79658571D01*
X129832858Y-79706190D01*
X129451905Y-79706190D01*
X130880477Y-79515714D02*
X130880477Y-80182381D01*
X130642381Y-79134762D02*
X130404286Y-79849048D01*
X131023334Y-79849048D01*
X150823334Y-91332381D02*
X150490000Y-90856190D01*
X150251905Y-91332381D02*
X150251905Y-90332381D01*
X150632858Y-90332381D01*
X150728096Y-90380000D01*
X150775715Y-90427619D01*
X150823334Y-90522857D01*
X150823334Y-90665714D01*
X150775715Y-90760952D01*
X150728096Y-90808571D01*
X150632858Y-90856190D01*
X150251905Y-90856190D01*
X151728096Y-90332381D02*
X151251905Y-90332381D01*
X151204286Y-90808571D01*
X151251905Y-90760952D01*
X151347143Y-90713333D01*
X151585239Y-90713333D01*
X151680477Y-90760952D01*
X151728096Y-90808571D01*
X151775715Y-90903810D01*
X151775715Y-91141905D01*
X151728096Y-91237143D01*
X151680477Y-91284762D01*
X151585239Y-91332381D01*
X151347143Y-91332381D01*
X151251905Y-91284762D01*
X151204286Y-91237143D01*
X146523334Y-86932381D02*
X146190000Y-86456190D01*
X145951905Y-86932381D02*
X145951905Y-85932381D01*
X146332858Y-85932381D01*
X146428096Y-85980000D01*
X146475715Y-86027619D01*
X146523334Y-86122857D01*
X146523334Y-86265714D01*
X146475715Y-86360952D01*
X146428096Y-86408571D01*
X146332858Y-86456190D01*
X145951905Y-86456190D01*
X147380477Y-85932381D02*
X147190000Y-85932381D01*
X147094762Y-85980000D01*
X147047143Y-86027619D01*
X146951905Y-86170476D01*
X146904286Y-86360952D01*
X146904286Y-86741905D01*
X146951905Y-86837143D01*
X146999524Y-86884762D01*
X147094762Y-86932381D01*
X147285239Y-86932381D01*
X147380477Y-86884762D01*
X147428096Y-86837143D01*
X147475715Y-86741905D01*
X147475715Y-86503810D01*
X147428096Y-86408571D01*
X147380477Y-86360952D01*
X147285239Y-86313333D01*
X147094762Y-86313333D01*
X146999524Y-86360952D01*
X146951905Y-86408571D01*
X146904286Y-86503810D01*
X142223334Y-85882381D02*
X141890000Y-85406190D01*
X141651905Y-85882381D02*
X141651905Y-84882381D01*
X142032858Y-84882381D01*
X142128096Y-84930000D01*
X142175715Y-84977619D01*
X142223334Y-85072857D01*
X142223334Y-85215714D01*
X142175715Y-85310952D01*
X142128096Y-85358571D01*
X142032858Y-85406190D01*
X141651905Y-85406190D01*
X142556667Y-84882381D02*
X143223334Y-84882381D01*
X142794762Y-85882381D01*
X130673334Y-54082381D02*
X130340000Y-53606190D01*
X130101905Y-54082381D02*
X130101905Y-53082381D01*
X130482858Y-53082381D01*
X130578096Y-53130000D01*
X130625715Y-53177619D01*
X130673334Y-53272857D01*
X130673334Y-53415714D01*
X130625715Y-53510952D01*
X130578096Y-53558571D01*
X130482858Y-53606190D01*
X130101905Y-53606190D01*
X131244762Y-53510952D02*
X131149524Y-53463333D01*
X131101905Y-53415714D01*
X131054286Y-53320476D01*
X131054286Y-53272857D01*
X131101905Y-53177619D01*
X131149524Y-53130000D01*
X131244762Y-53082381D01*
X131435239Y-53082381D01*
X131530477Y-53130000D01*
X131578096Y-53177619D01*
X131625715Y-53272857D01*
X131625715Y-53320476D01*
X131578096Y-53415714D01*
X131530477Y-53463333D01*
X131435239Y-53510952D01*
X131244762Y-53510952D01*
X131149524Y-53558571D01*
X131101905Y-53606190D01*
X131054286Y-53701429D01*
X131054286Y-53891905D01*
X131101905Y-53987143D01*
X131149524Y-54034762D01*
X131244762Y-54082381D01*
X131435239Y-54082381D01*
X131530477Y-54034762D01*
X131578096Y-53987143D01*
X131625715Y-53891905D01*
X131625715Y-53701429D01*
X131578096Y-53606190D01*
X131530477Y-53558571D01*
X131435239Y-53510952D01*
X132623334Y-76332381D02*
X132290000Y-75856190D01*
X132051905Y-76332381D02*
X132051905Y-75332381D01*
X132432858Y-75332381D01*
X132528096Y-75380000D01*
X132575715Y-75427619D01*
X132623334Y-75522857D01*
X132623334Y-75665714D01*
X132575715Y-75760952D01*
X132528096Y-75808571D01*
X132432858Y-75856190D01*
X132051905Y-75856190D01*
X133099524Y-76332381D02*
X133290000Y-76332381D01*
X133385239Y-76284762D01*
X133432858Y-76237143D01*
X133528096Y-76094286D01*
X133575715Y-75903810D01*
X133575715Y-75522857D01*
X133528096Y-75427619D01*
X133480477Y-75380000D01*
X133385239Y-75332381D01*
X133194762Y-75332381D01*
X133099524Y-75380000D01*
X133051905Y-75427619D01*
X133004286Y-75522857D01*
X133004286Y-75760952D01*
X133051905Y-75856190D01*
X133099524Y-75903810D01*
X133194762Y-75951429D01*
X133385239Y-75951429D01*
X133480477Y-75903810D01*
X133528096Y-75856190D01*
X133575715Y-75760952D01*
X113897143Y-74082381D02*
X113563809Y-73606190D01*
X113325714Y-74082381D02*
X113325714Y-73082381D01*
X113706667Y-73082381D01*
X113801905Y-73130000D01*
X113849524Y-73177619D01*
X113897143Y-73272857D01*
X113897143Y-73415714D01*
X113849524Y-73510952D01*
X113801905Y-73558571D01*
X113706667Y-73606190D01*
X113325714Y-73606190D01*
X114849524Y-74082381D02*
X114278095Y-74082381D01*
X114563809Y-74082381D02*
X114563809Y-73082381D01*
X114468571Y-73225238D01*
X114373333Y-73320476D01*
X114278095Y-73368095D01*
X115468571Y-73082381D02*
X115563810Y-73082381D01*
X115659048Y-73130000D01*
X115706667Y-73177619D01*
X115754286Y-73272857D01*
X115801905Y-73463333D01*
X115801905Y-73701429D01*
X115754286Y-73891905D01*
X115706667Y-73987143D01*
X115659048Y-74034762D01*
X115563810Y-74082381D01*
X115468571Y-74082381D01*
X115373333Y-74034762D01*
X115325714Y-73987143D01*
X115278095Y-73891905D01*
X115230476Y-73701429D01*
X115230476Y-73463333D01*
X115278095Y-73272857D01*
X115325714Y-73177619D01*
X115373333Y-73130000D01*
X115468571Y-73082381D01*
X125547143Y-80132381D02*
X125213809Y-79656190D01*
X124975714Y-80132381D02*
X124975714Y-79132381D01*
X125356667Y-79132381D01*
X125451905Y-79180000D01*
X125499524Y-79227619D01*
X125547143Y-79322857D01*
X125547143Y-79465714D01*
X125499524Y-79560952D01*
X125451905Y-79608571D01*
X125356667Y-79656190D01*
X124975714Y-79656190D01*
X126499524Y-80132381D02*
X125928095Y-80132381D01*
X126213809Y-80132381D02*
X126213809Y-79132381D01*
X126118571Y-79275238D01*
X126023333Y-79370476D01*
X125928095Y-79418095D01*
X126880476Y-79227619D02*
X126928095Y-79180000D01*
X127023333Y-79132381D01*
X127261429Y-79132381D01*
X127356667Y-79180000D01*
X127404286Y-79227619D01*
X127451905Y-79322857D01*
X127451905Y-79418095D01*
X127404286Y-79560952D01*
X126832857Y-80132381D01*
X127451905Y-80132381D01*
X155997143Y-47532381D02*
X155663809Y-47056190D01*
X155425714Y-47532381D02*
X155425714Y-46532381D01*
X155806667Y-46532381D01*
X155901905Y-46580000D01*
X155949524Y-46627619D01*
X155997143Y-46722857D01*
X155997143Y-46865714D01*
X155949524Y-46960952D01*
X155901905Y-47008571D01*
X155806667Y-47056190D01*
X155425714Y-47056190D01*
X156949524Y-47532381D02*
X156378095Y-47532381D01*
X156663809Y-47532381D02*
X156663809Y-46532381D01*
X156568571Y-46675238D01*
X156473333Y-46770476D01*
X156378095Y-46818095D01*
X157282857Y-46532381D02*
X157901905Y-46532381D01*
X157568571Y-46913333D01*
X157711429Y-46913333D01*
X157806667Y-46960952D01*
X157854286Y-47008571D01*
X157901905Y-47103810D01*
X157901905Y-47341905D01*
X157854286Y-47437143D01*
X157806667Y-47484762D01*
X157711429Y-47532381D01*
X157425714Y-47532381D01*
X157330476Y-47484762D01*
X157282857Y-47437143D01*
X123397143Y-76432381D02*
X123063809Y-75956190D01*
X122825714Y-76432381D02*
X122825714Y-75432381D01*
X123206667Y-75432381D01*
X123301905Y-75480000D01*
X123349524Y-75527619D01*
X123397143Y-75622857D01*
X123397143Y-75765714D01*
X123349524Y-75860952D01*
X123301905Y-75908571D01*
X123206667Y-75956190D01*
X122825714Y-75956190D01*
X124349524Y-76432381D02*
X123778095Y-76432381D01*
X124063809Y-76432381D02*
X124063809Y-75432381D01*
X123968571Y-75575238D01*
X123873333Y-75670476D01*
X123778095Y-75718095D01*
X125206667Y-75765714D02*
X125206667Y-76432381D01*
X124968571Y-75384762D02*
X124730476Y-76099048D01*
X125349524Y-76099048D01*
X138997143Y-81732381D02*
X138663809Y-81256190D01*
X138425714Y-81732381D02*
X138425714Y-80732381D01*
X138806667Y-80732381D01*
X138901905Y-80780000D01*
X138949524Y-80827619D01*
X138997143Y-80922857D01*
X138997143Y-81065714D01*
X138949524Y-81160952D01*
X138901905Y-81208571D01*
X138806667Y-81256190D01*
X138425714Y-81256190D01*
X139949524Y-81732381D02*
X139378095Y-81732381D01*
X139663809Y-81732381D02*
X139663809Y-80732381D01*
X139568571Y-80875238D01*
X139473333Y-80970476D01*
X139378095Y-81018095D01*
X140854286Y-80732381D02*
X140378095Y-80732381D01*
X140330476Y-81208571D01*
X140378095Y-81160952D01*
X140473333Y-81113333D01*
X140711429Y-81113333D01*
X140806667Y-81160952D01*
X140854286Y-81208571D01*
X140901905Y-81303810D01*
X140901905Y-81541905D01*
X140854286Y-81637143D01*
X140806667Y-81684762D01*
X140711429Y-81732381D01*
X140473333Y-81732381D01*
X140378095Y-81684762D01*
X140330476Y-81637143D01*
X127447143Y-76332381D02*
X127113809Y-75856190D01*
X126875714Y-76332381D02*
X126875714Y-75332381D01*
X127256667Y-75332381D01*
X127351905Y-75380000D01*
X127399524Y-75427619D01*
X127447143Y-75522857D01*
X127447143Y-75665714D01*
X127399524Y-75760952D01*
X127351905Y-75808571D01*
X127256667Y-75856190D01*
X126875714Y-75856190D01*
X128399524Y-76332381D02*
X127828095Y-76332381D01*
X128113809Y-76332381D02*
X128113809Y-75332381D01*
X128018571Y-75475238D01*
X127923333Y-75570476D01*
X127828095Y-75618095D01*
X129256667Y-75332381D02*
X129066190Y-75332381D01*
X128970952Y-75380000D01*
X128923333Y-75427619D01*
X128828095Y-75570476D01*
X128780476Y-75760952D01*
X128780476Y-76141905D01*
X128828095Y-76237143D01*
X128875714Y-76284762D01*
X128970952Y-76332381D01*
X129161429Y-76332381D01*
X129256667Y-76284762D01*
X129304286Y-76237143D01*
X129351905Y-76141905D01*
X129351905Y-75903810D01*
X129304286Y-75808571D01*
X129256667Y-75760952D01*
X129161429Y-75713333D01*
X128970952Y-75713333D01*
X128875714Y-75760952D01*
X128828095Y-75808571D01*
X128780476Y-75903810D01*
X184468572Y-60782381D02*
X184135238Y-60306190D01*
X183897143Y-60782381D02*
X183897143Y-59782381D01*
X184278096Y-59782381D01*
X184373334Y-59830000D01*
X184420953Y-59877619D01*
X184468572Y-59972857D01*
X184468572Y-60115714D01*
X184420953Y-60210952D01*
X184373334Y-60258571D01*
X184278096Y-60306190D01*
X183897143Y-60306190D01*
X185373334Y-60782381D02*
X184897143Y-60782381D01*
X184897143Y-59782381D01*
X186230477Y-60782381D02*
X185659048Y-60782381D01*
X185944762Y-60782381D02*
X185944762Y-59782381D01*
X185849524Y-59925238D01*
X185754286Y-60020476D01*
X185659048Y-60068095D01*
X169038667Y-87172762D02*
X169181524Y-87220381D01*
X169419620Y-87220381D01*
X169514858Y-87172762D01*
X169562477Y-87125143D01*
X169610096Y-87029905D01*
X169610096Y-86934667D01*
X169562477Y-86839429D01*
X169514858Y-86791810D01*
X169419620Y-86744190D01*
X169229143Y-86696571D01*
X169133905Y-86648952D01*
X169086286Y-86601333D01*
X169038667Y-86506095D01*
X169038667Y-86410857D01*
X169086286Y-86315619D01*
X169133905Y-86268000D01*
X169229143Y-86220381D01*
X169467239Y-86220381D01*
X169610096Y-86268000D01*
X169943429Y-86220381D02*
X170181524Y-87220381D01*
X170372001Y-86506095D01*
X170562477Y-87220381D01*
X170800572Y-86220381D01*
X171133905Y-86315619D02*
X171181524Y-86268000D01*
X171276762Y-86220381D01*
X171514858Y-86220381D01*
X171610096Y-86268000D01*
X171657715Y-86315619D01*
X171705334Y-86410857D01*
X171705334Y-86506095D01*
X171657715Y-86648952D01*
X171086286Y-87220381D01*
X171705334Y-87220381D01*
X120706667Y-77058571D02*
X120373333Y-77058571D01*
X120373333Y-77582381D02*
X120373333Y-76582381D01*
X120849524Y-76582381D01*
X121563810Y-77058571D02*
X121706667Y-77106190D01*
X121754286Y-77153810D01*
X121801905Y-77249048D01*
X121801905Y-77391905D01*
X121754286Y-77487143D01*
X121706667Y-77534762D01*
X121611429Y-77582381D01*
X121230476Y-77582381D01*
X121230476Y-76582381D01*
X121563810Y-76582381D01*
X121659048Y-76630000D01*
X121706667Y-76677619D01*
X121754286Y-76772857D01*
X121754286Y-76868095D01*
X121706667Y-76963333D01*
X121659048Y-77010952D01*
X121563810Y-77058571D01*
X121230476Y-77058571D01*
X122754286Y-77582381D02*
X122182857Y-77582381D01*
X122468571Y-77582381D02*
X122468571Y-76582381D01*
X122373333Y-76725238D01*
X122278095Y-76820476D01*
X122182857Y-76868095D01*
X122951905Y-63482381D02*
X122951905Y-62482381D01*
X123332858Y-62482381D01*
X123428096Y-62530000D01*
X123475715Y-62577619D01*
X123523334Y-62672857D01*
X123523334Y-62815714D01*
X123475715Y-62910952D01*
X123428096Y-62958571D01*
X123332858Y-63006190D01*
X122951905Y-63006190D01*
X123856667Y-62482381D02*
X124475715Y-62482381D01*
X124142381Y-62863333D01*
X124285239Y-62863333D01*
X124380477Y-62910952D01*
X124428096Y-62958571D01*
X124475715Y-63053810D01*
X124475715Y-63291905D01*
X124428096Y-63387143D01*
X124380477Y-63434762D01*
X124285239Y-63482381D01*
X123999524Y-63482381D01*
X123904286Y-63434762D01*
X123856667Y-63387143D01*
X113423334Y-60037143D02*
X113375715Y-60084762D01*
X113232858Y-60132381D01*
X113137620Y-60132381D01*
X112994762Y-60084762D01*
X112899524Y-59989524D01*
X112851905Y-59894286D01*
X112804286Y-59703810D01*
X112804286Y-59560952D01*
X112851905Y-59370476D01*
X112899524Y-59275238D01*
X112994762Y-59180000D01*
X113137620Y-59132381D01*
X113232858Y-59132381D01*
X113375715Y-59180000D01*
X113423334Y-59227619D01*
X114375715Y-60132381D02*
X113804286Y-60132381D01*
X114090000Y-60132381D02*
X114090000Y-59132381D01*
X113994762Y-59275238D01*
X113899524Y-59370476D01*
X113804286Y-59418095D01*
X119561143Y-77928666D02*
X119608762Y-77976285D01*
X119656381Y-78119142D01*
X119656381Y-78214380D01*
X119608762Y-78357238D01*
X119513524Y-78452476D01*
X119418286Y-78500095D01*
X119227810Y-78547714D01*
X119084952Y-78547714D01*
X118894476Y-78500095D01*
X118799238Y-78452476D01*
X118704000Y-78357238D01*
X118656381Y-78214380D01*
X118656381Y-78119142D01*
X118704000Y-77976285D01*
X118751619Y-77928666D01*
X118656381Y-77595333D02*
X118656381Y-76928666D01*
X119656381Y-77357238D01*
X115401905Y-60082381D02*
X115401905Y-59082381D01*
X115640000Y-59082381D01*
X115782858Y-59130000D01*
X115878096Y-59225238D01*
X115925715Y-59320476D01*
X115973334Y-59510952D01*
X115973334Y-59653810D01*
X115925715Y-59844286D01*
X115878096Y-59939524D01*
X115782858Y-60034762D01*
X115640000Y-60082381D01*
X115401905Y-60082381D01*
X116354286Y-59177619D02*
X116401905Y-59130000D01*
X116497143Y-59082381D01*
X116735239Y-59082381D01*
X116830477Y-59130000D01*
X116878096Y-59177619D01*
X116925715Y-59272857D01*
X116925715Y-59368095D01*
X116878096Y-59510952D01*
X116306667Y-60082381D01*
X116925715Y-60082381D01*
X126001905Y-92182381D02*
X126001905Y-91182381D01*
X126240000Y-91182381D01*
X126382858Y-91230000D01*
X126478096Y-91325238D01*
X126525715Y-91420476D01*
X126573334Y-91610952D01*
X126573334Y-91753810D01*
X126525715Y-91944286D01*
X126478096Y-92039524D01*
X126382858Y-92134762D01*
X126240000Y-92182381D01*
X126001905Y-92182381D01*
X127430477Y-91182381D02*
X127240000Y-91182381D01*
X127144762Y-91230000D01*
X127097143Y-91277619D01*
X127001905Y-91420476D01*
X126954286Y-91610952D01*
X126954286Y-91991905D01*
X127001905Y-92087143D01*
X127049524Y-92134762D01*
X127144762Y-92182381D01*
X127335239Y-92182381D01*
X127430477Y-92134762D01*
X127478096Y-92087143D01*
X127525715Y-91991905D01*
X127525715Y-91753810D01*
X127478096Y-91658571D01*
X127430477Y-91610952D01*
X127335239Y-91563333D01*
X127144762Y-91563333D01*
X127049524Y-91610952D01*
X127001905Y-91658571D01*
X126954286Y-91753810D01*
X129728095Y-91782381D02*
X129728095Y-90782381D01*
X130299524Y-91782381D02*
X129870952Y-91210952D01*
X130299524Y-90782381D02*
X129728095Y-91353810D01*
X123351905Y-91246667D02*
X123828096Y-91246667D01*
X123256667Y-91532381D02*
X123590000Y-90532381D01*
X123923334Y-91532381D01*
M02*
