G04 #@! TF.GenerationSoftware,KiCad,Pcbnew,6.0.0-rc1-unknown-7a10feb~66~ubuntu18.04.1*
G04 #@! TF.CreationDate,2018-08-22T16:18:46-05:00*
G04 #@! TF.ProjectId,liger,6C696765722E6B696361645F70636200,rev?*
G04 #@! TF.SameCoordinates,Original*
G04 #@! TF.FileFunction,Soldermask,Top*
G04 #@! TF.FilePolarity,Negative*
%FSLAX46Y46*%
G04 Gerber Fmt 4.6, Leading zero omitted, Abs format (unit mm)*
G04 Created by KiCad (PCBNEW 6.0.0-rc1-unknown-7a10feb~66~ubuntu18.04.1) date Wed Aug 22 16:18:46 2018*
%MOMM*%
%LPD*%
G01*
G04 APERTURE LIST*
%ADD10C,2.200000*%
%ADD11R,2.200000X2.200000*%
%ADD12C,0.100000*%
%ADD13C,1.350000*%
%ADD14R,1.300000X1.400000*%
%ADD15R,2.100000X2.100000*%
%ADD16O,2.100000X2.100000*%
%ADD17C,1.900000*%
%ADD18R,1.200000X2.200000*%
%ADD19C,2.024000*%
%ADD20R,1.000000X0.922000*%
%ADD21R,2.000000X2.900000*%
%ADD22R,1.650000X0.850000*%
%ADD23R,0.850000X1.000000*%
%ADD24R,1.000000X0.850000*%
%ADD25C,1.924000*%
%ADD26R,5.400000X3.400000*%
%ADD27R,3.400000X5.400000*%
%ADD28R,1.900000X1.400000*%
G04 APERTURE END LIST*
D10*
G04 #@! TO.C,D1*
X159232600Y-64008000D03*
D11*
X156692600Y-64008000D03*
G04 #@! TD*
D12*
G04 #@! TO.C,D2*
G36*
X156834581Y-111318625D02*
X156867343Y-111323485D01*
X156899471Y-111331533D01*
X156930656Y-111342691D01*
X156960596Y-111356852D01*
X156989005Y-111373879D01*
X157015608Y-111393609D01*
X157040149Y-111415851D01*
X157062391Y-111440392D01*
X157082121Y-111466995D01*
X157099148Y-111495404D01*
X157113309Y-111525344D01*
X157124467Y-111556529D01*
X157132515Y-111588657D01*
X157137375Y-111621419D01*
X157139000Y-111654500D01*
X157139000Y-112429500D01*
X157137375Y-112462581D01*
X157132515Y-112495343D01*
X157124467Y-112527471D01*
X157113309Y-112558656D01*
X157099148Y-112588596D01*
X157082121Y-112617005D01*
X157062391Y-112643608D01*
X157040149Y-112668149D01*
X157015608Y-112690391D01*
X156989005Y-112710121D01*
X156960596Y-112727148D01*
X156930656Y-112741309D01*
X156899471Y-112752467D01*
X156867343Y-112760515D01*
X156834581Y-112765375D01*
X156801500Y-112767000D01*
X156126500Y-112767000D01*
X156093419Y-112765375D01*
X156060657Y-112760515D01*
X156028529Y-112752467D01*
X155997344Y-112741309D01*
X155967404Y-112727148D01*
X155938995Y-112710121D01*
X155912392Y-112690391D01*
X155887851Y-112668149D01*
X155865609Y-112643608D01*
X155845879Y-112617005D01*
X155828852Y-112588596D01*
X155814691Y-112558656D01*
X155803533Y-112527471D01*
X155795485Y-112495343D01*
X155790625Y-112462581D01*
X155789000Y-112429500D01*
X155789000Y-111654500D01*
X155790625Y-111621419D01*
X155795485Y-111588657D01*
X155803533Y-111556529D01*
X155814691Y-111525344D01*
X155828852Y-111495404D01*
X155845879Y-111466995D01*
X155865609Y-111440392D01*
X155887851Y-111415851D01*
X155912392Y-111393609D01*
X155938995Y-111373879D01*
X155967404Y-111356852D01*
X155997344Y-111342691D01*
X156028529Y-111331533D01*
X156060657Y-111323485D01*
X156093419Y-111318625D01*
X156126500Y-111317000D01*
X156801500Y-111317000D01*
X156834581Y-111318625D01*
X156834581Y-111318625D01*
G37*
D13*
X156464000Y-112042000D03*
D12*
G36*
X156834581Y-113068625D02*
X156867343Y-113073485D01*
X156899471Y-113081533D01*
X156930656Y-113092691D01*
X156960596Y-113106852D01*
X156989005Y-113123879D01*
X157015608Y-113143609D01*
X157040149Y-113165851D01*
X157062391Y-113190392D01*
X157082121Y-113216995D01*
X157099148Y-113245404D01*
X157113309Y-113275344D01*
X157124467Y-113306529D01*
X157132515Y-113338657D01*
X157137375Y-113371419D01*
X157139000Y-113404500D01*
X157139000Y-114179500D01*
X157137375Y-114212581D01*
X157132515Y-114245343D01*
X157124467Y-114277471D01*
X157113309Y-114308656D01*
X157099148Y-114338596D01*
X157082121Y-114367005D01*
X157062391Y-114393608D01*
X157040149Y-114418149D01*
X157015608Y-114440391D01*
X156989005Y-114460121D01*
X156960596Y-114477148D01*
X156930656Y-114491309D01*
X156899471Y-114502467D01*
X156867343Y-114510515D01*
X156834581Y-114515375D01*
X156801500Y-114517000D01*
X156126500Y-114517000D01*
X156093419Y-114515375D01*
X156060657Y-114510515D01*
X156028529Y-114502467D01*
X155997344Y-114491309D01*
X155967404Y-114477148D01*
X155938995Y-114460121D01*
X155912392Y-114440391D01*
X155887851Y-114418149D01*
X155865609Y-114393608D01*
X155845879Y-114367005D01*
X155828852Y-114338596D01*
X155814691Y-114308656D01*
X155803533Y-114277471D01*
X155795485Y-114245343D01*
X155790625Y-114212581D01*
X155789000Y-114179500D01*
X155789000Y-113404500D01*
X155790625Y-113371419D01*
X155795485Y-113338657D01*
X155803533Y-113306529D01*
X155814691Y-113275344D01*
X155828852Y-113245404D01*
X155845879Y-113216995D01*
X155865609Y-113190392D01*
X155887851Y-113165851D01*
X155912392Y-113143609D01*
X155938995Y-113123879D01*
X155967404Y-113106852D01*
X155997344Y-113092691D01*
X156028529Y-113081533D01*
X156060657Y-113073485D01*
X156093419Y-113068625D01*
X156126500Y-113067000D01*
X156801500Y-113067000D01*
X156834581Y-113068625D01*
X156834581Y-113068625D01*
G37*
D13*
X156464000Y-113792000D03*
G04 #@! TD*
D12*
G04 #@! TO.C,D4*
G36*
X138292581Y-107226625D02*
X138325343Y-107231485D01*
X138357471Y-107239533D01*
X138388656Y-107250691D01*
X138418596Y-107264852D01*
X138447005Y-107281879D01*
X138473608Y-107301609D01*
X138498149Y-107323851D01*
X138520391Y-107348392D01*
X138540121Y-107374995D01*
X138557148Y-107403404D01*
X138571309Y-107433344D01*
X138582467Y-107464529D01*
X138590515Y-107496657D01*
X138595375Y-107529419D01*
X138597000Y-107562500D01*
X138597000Y-108337500D01*
X138595375Y-108370581D01*
X138590515Y-108403343D01*
X138582467Y-108435471D01*
X138571309Y-108466656D01*
X138557148Y-108496596D01*
X138540121Y-108525005D01*
X138520391Y-108551608D01*
X138498149Y-108576149D01*
X138473608Y-108598391D01*
X138447005Y-108618121D01*
X138418596Y-108635148D01*
X138388656Y-108649309D01*
X138357471Y-108660467D01*
X138325343Y-108668515D01*
X138292581Y-108673375D01*
X138259500Y-108675000D01*
X137584500Y-108675000D01*
X137551419Y-108673375D01*
X137518657Y-108668515D01*
X137486529Y-108660467D01*
X137455344Y-108649309D01*
X137425404Y-108635148D01*
X137396995Y-108618121D01*
X137370392Y-108598391D01*
X137345851Y-108576149D01*
X137323609Y-108551608D01*
X137303879Y-108525005D01*
X137286852Y-108496596D01*
X137272691Y-108466656D01*
X137261533Y-108435471D01*
X137253485Y-108403343D01*
X137248625Y-108370581D01*
X137247000Y-108337500D01*
X137247000Y-107562500D01*
X137248625Y-107529419D01*
X137253485Y-107496657D01*
X137261533Y-107464529D01*
X137272691Y-107433344D01*
X137286852Y-107403404D01*
X137303879Y-107374995D01*
X137323609Y-107348392D01*
X137345851Y-107323851D01*
X137370392Y-107301609D01*
X137396995Y-107281879D01*
X137425404Y-107264852D01*
X137455344Y-107250691D01*
X137486529Y-107239533D01*
X137518657Y-107231485D01*
X137551419Y-107226625D01*
X137584500Y-107225000D01*
X138259500Y-107225000D01*
X138292581Y-107226625D01*
X138292581Y-107226625D01*
G37*
D13*
X137922000Y-107950000D03*
D12*
G36*
X138292581Y-108976625D02*
X138325343Y-108981485D01*
X138357471Y-108989533D01*
X138388656Y-109000691D01*
X138418596Y-109014852D01*
X138447005Y-109031879D01*
X138473608Y-109051609D01*
X138498149Y-109073851D01*
X138520391Y-109098392D01*
X138540121Y-109124995D01*
X138557148Y-109153404D01*
X138571309Y-109183344D01*
X138582467Y-109214529D01*
X138590515Y-109246657D01*
X138595375Y-109279419D01*
X138597000Y-109312500D01*
X138597000Y-110087500D01*
X138595375Y-110120581D01*
X138590515Y-110153343D01*
X138582467Y-110185471D01*
X138571309Y-110216656D01*
X138557148Y-110246596D01*
X138540121Y-110275005D01*
X138520391Y-110301608D01*
X138498149Y-110326149D01*
X138473608Y-110348391D01*
X138447005Y-110368121D01*
X138418596Y-110385148D01*
X138388656Y-110399309D01*
X138357471Y-110410467D01*
X138325343Y-110418515D01*
X138292581Y-110423375D01*
X138259500Y-110425000D01*
X137584500Y-110425000D01*
X137551419Y-110423375D01*
X137518657Y-110418515D01*
X137486529Y-110410467D01*
X137455344Y-110399309D01*
X137425404Y-110385148D01*
X137396995Y-110368121D01*
X137370392Y-110348391D01*
X137345851Y-110326149D01*
X137323609Y-110301608D01*
X137303879Y-110275005D01*
X137286852Y-110246596D01*
X137272691Y-110216656D01*
X137261533Y-110185471D01*
X137253485Y-110153343D01*
X137248625Y-110120581D01*
X137247000Y-110087500D01*
X137247000Y-109312500D01*
X137248625Y-109279419D01*
X137253485Y-109246657D01*
X137261533Y-109214529D01*
X137272691Y-109183344D01*
X137286852Y-109153404D01*
X137303879Y-109124995D01*
X137323609Y-109098392D01*
X137345851Y-109073851D01*
X137370392Y-109051609D01*
X137396995Y-109031879D01*
X137425404Y-109014852D01*
X137455344Y-109000691D01*
X137486529Y-108989533D01*
X137518657Y-108981485D01*
X137551419Y-108976625D01*
X137584500Y-108975000D01*
X138259500Y-108975000D01*
X138292581Y-108976625D01*
X138292581Y-108976625D01*
G37*
D13*
X137922000Y-109700000D03*
G04 #@! TD*
D12*
G04 #@! TO.C,D5*
G36*
X138292581Y-114874625D02*
X138325343Y-114879485D01*
X138357471Y-114887533D01*
X138388656Y-114898691D01*
X138418596Y-114912852D01*
X138447005Y-114929879D01*
X138473608Y-114949609D01*
X138498149Y-114971851D01*
X138520391Y-114996392D01*
X138540121Y-115022995D01*
X138557148Y-115051404D01*
X138571309Y-115081344D01*
X138582467Y-115112529D01*
X138590515Y-115144657D01*
X138595375Y-115177419D01*
X138597000Y-115210500D01*
X138597000Y-115985500D01*
X138595375Y-116018581D01*
X138590515Y-116051343D01*
X138582467Y-116083471D01*
X138571309Y-116114656D01*
X138557148Y-116144596D01*
X138540121Y-116173005D01*
X138520391Y-116199608D01*
X138498149Y-116224149D01*
X138473608Y-116246391D01*
X138447005Y-116266121D01*
X138418596Y-116283148D01*
X138388656Y-116297309D01*
X138357471Y-116308467D01*
X138325343Y-116316515D01*
X138292581Y-116321375D01*
X138259500Y-116323000D01*
X137584500Y-116323000D01*
X137551419Y-116321375D01*
X137518657Y-116316515D01*
X137486529Y-116308467D01*
X137455344Y-116297309D01*
X137425404Y-116283148D01*
X137396995Y-116266121D01*
X137370392Y-116246391D01*
X137345851Y-116224149D01*
X137323609Y-116199608D01*
X137303879Y-116173005D01*
X137286852Y-116144596D01*
X137272691Y-116114656D01*
X137261533Y-116083471D01*
X137253485Y-116051343D01*
X137248625Y-116018581D01*
X137247000Y-115985500D01*
X137247000Y-115210500D01*
X137248625Y-115177419D01*
X137253485Y-115144657D01*
X137261533Y-115112529D01*
X137272691Y-115081344D01*
X137286852Y-115051404D01*
X137303879Y-115022995D01*
X137323609Y-114996392D01*
X137345851Y-114971851D01*
X137370392Y-114949609D01*
X137396995Y-114929879D01*
X137425404Y-114912852D01*
X137455344Y-114898691D01*
X137486529Y-114887533D01*
X137518657Y-114879485D01*
X137551419Y-114874625D01*
X137584500Y-114873000D01*
X138259500Y-114873000D01*
X138292581Y-114874625D01*
X138292581Y-114874625D01*
G37*
D13*
X137922000Y-115598000D03*
D12*
G36*
X138292581Y-116624625D02*
X138325343Y-116629485D01*
X138357471Y-116637533D01*
X138388656Y-116648691D01*
X138418596Y-116662852D01*
X138447005Y-116679879D01*
X138473608Y-116699609D01*
X138498149Y-116721851D01*
X138520391Y-116746392D01*
X138540121Y-116772995D01*
X138557148Y-116801404D01*
X138571309Y-116831344D01*
X138582467Y-116862529D01*
X138590515Y-116894657D01*
X138595375Y-116927419D01*
X138597000Y-116960500D01*
X138597000Y-117735500D01*
X138595375Y-117768581D01*
X138590515Y-117801343D01*
X138582467Y-117833471D01*
X138571309Y-117864656D01*
X138557148Y-117894596D01*
X138540121Y-117923005D01*
X138520391Y-117949608D01*
X138498149Y-117974149D01*
X138473608Y-117996391D01*
X138447005Y-118016121D01*
X138418596Y-118033148D01*
X138388656Y-118047309D01*
X138357471Y-118058467D01*
X138325343Y-118066515D01*
X138292581Y-118071375D01*
X138259500Y-118073000D01*
X137584500Y-118073000D01*
X137551419Y-118071375D01*
X137518657Y-118066515D01*
X137486529Y-118058467D01*
X137455344Y-118047309D01*
X137425404Y-118033148D01*
X137396995Y-118016121D01*
X137370392Y-117996391D01*
X137345851Y-117974149D01*
X137323609Y-117949608D01*
X137303879Y-117923005D01*
X137286852Y-117894596D01*
X137272691Y-117864656D01*
X137261533Y-117833471D01*
X137253485Y-117801343D01*
X137248625Y-117768581D01*
X137247000Y-117735500D01*
X137247000Y-116960500D01*
X137248625Y-116927419D01*
X137253485Y-116894657D01*
X137261533Y-116862529D01*
X137272691Y-116831344D01*
X137286852Y-116801404D01*
X137303879Y-116772995D01*
X137323609Y-116746392D01*
X137345851Y-116721851D01*
X137370392Y-116699609D01*
X137396995Y-116679879D01*
X137425404Y-116662852D01*
X137455344Y-116648691D01*
X137486529Y-116637533D01*
X137518657Y-116629485D01*
X137551419Y-116624625D01*
X137584500Y-116623000D01*
X138259500Y-116623000D01*
X138292581Y-116624625D01*
X138292581Y-116624625D01*
G37*
D13*
X137922000Y-117348000D03*
G04 #@! TD*
D14*
G04 #@! TO.C,FACTORY1*
X158407200Y-115080000D03*
X160007200Y-115080000D03*
X158407200Y-110980000D03*
X160007200Y-110980000D03*
G04 #@! TD*
D15*
G04 #@! TO.C,J1*
X156667200Y-124587000D03*
D16*
X156667200Y-122047000D03*
X154127200Y-124587000D03*
X154127200Y-122047000D03*
X151587200Y-124587000D03*
X151587200Y-122047000D03*
X149047200Y-124587000D03*
X149047200Y-122047000D03*
X146507200Y-124587000D03*
X146507200Y-122047000D03*
X143967200Y-124587000D03*
X143967200Y-122047000D03*
X141427200Y-124587000D03*
X141427200Y-122047000D03*
X138887200Y-124587000D03*
X138887200Y-122047000D03*
G04 #@! TD*
D17*
G04 #@! TO.C,LS1*
X146253200Y-116828400D03*
X146253200Y-109228400D03*
G04 #@! TD*
D14*
G04 #@! TO.C,PROG1*
X134074000Y-111498600D03*
X135674000Y-111498600D03*
X134074000Y-107398600D03*
X135674000Y-107398600D03*
G04 #@! TD*
G04 #@! TO.C,REBOOT1*
X135674000Y-114383600D03*
X134074000Y-114383600D03*
X135674000Y-118483600D03*
X134074000Y-118483600D03*
G04 #@! TD*
D18*
G04 #@! TO.C,U2*
X157556200Y-58674000D03*
X156286200Y-58674000D03*
X158826200Y-58674000D03*
X160096200Y-58674000D03*
G04 #@! TD*
D19*
G04 #@! TO.C,U3*
X139576400Y-60426800D03*
D20*
X140476400Y-61676800D03*
X138676400Y-61676800D03*
X138676400Y-62496800D03*
X139576400Y-62496800D03*
X140476400Y-62496800D03*
G04 #@! TD*
D21*
G04 #@! TO.C,U6*
X134899400Y-63576200D03*
D22*
X136549400Y-64576200D03*
X136549400Y-62576200D03*
X136549400Y-63576200D03*
X133249400Y-64576200D03*
X133249400Y-63576200D03*
X133249400Y-62576200D03*
G04 #@! TD*
D23*
G04 #@! TO.C,U8*
X135432800Y-59253400D03*
D24*
X134232800Y-58953400D03*
X134232800Y-60303400D03*
X135432800Y-60303400D03*
X135432800Y-58953400D03*
G04 #@! TD*
D25*
G04 #@! TO.C,U10*
X149160800Y-59449400D03*
X145570800Y-59439400D03*
X149170800Y-63039400D03*
G04 #@! TD*
D26*
G04 #@! TO.C,U12*
X146720000Y-81472000D03*
D27*
X139620000Y-88392000D03*
D26*
X146720000Y-95492000D03*
D27*
X153670000Y-88392000D03*
G04 #@! TD*
D28*
G04 #@! TO.C,D7*
X144616000Y-87046000D03*
X144616000Y-90246000D03*
X149516000Y-87046000D03*
X149516000Y-90246000D03*
G04 #@! TD*
M02*
