G04 #@! TF.FileFunction,Soldermask,Top*
%FSLAX46Y46*%
G04 Gerber Fmt 4.6, Leading zero omitted, Abs format (unit mm)*
G04 Created by KiCad (PCBNEW 4.0.5+dfsg1-4) date Fri May 26 12:51:21 2017*
%MOMM*%
%LPD*%
G01*
G04 APERTURE LIST*
%ADD10C,0.100000*%
%ADD11R,2.200000X2.200000*%
%ADD12C,2.200000*%
%ADD13R,2.100000X2.100000*%
%ADD14O,2.100000X2.100000*%
%ADD15C,1.924000*%
%ADD16R,1.050000X1.460000*%
%ADD17R,1.300000X1.200000*%
%ADD18R,1.600000X1.300000*%
%ADD19R,1.300000X1.600000*%
%ADD20R,1.400000X2.400000*%
%ADD21R,2.400000X1.400000*%
%ADD22R,4.400000X4.400000*%
%ADD23R,1.150000X1.600000*%
%ADD24R,1.600000X1.150000*%
%ADD25R,1.200000X1.200000*%
%ADD26R,1.600000X1.600000*%
%ADD27C,1.600000*%
%ADD28R,1.400000X1.300000*%
%ADD29R,1.200000X1.300000*%
%ADD30C,7.400000*%
%ADD31C,1.900000*%
%ADD32R,1.460000X1.050000*%
%ADD33C,0.900000*%
%ADD34C,1.000000*%
%ADD35C,2.076000*%
G04 APERTURE END LIST*
D10*
D11*
X181090302Y-102322972D03*
D12*
X183630302Y-102322972D03*
D13*
X188946302Y-89322972D03*
D14*
X188946302Y-91862972D03*
X188946302Y-94402972D03*
X188946302Y-96942972D03*
D15*
X184146302Y-74522972D03*
X181606302Y-74522972D03*
X179066302Y-74522972D03*
D16*
X182296302Y-85122972D03*
X183246302Y-85122972D03*
X184196302Y-85122972D03*
X184196302Y-82922972D03*
X182296302Y-82922972D03*
D13*
X116946302Y-112522972D03*
D14*
X119486302Y-112522972D03*
X122026302Y-112522972D03*
X124566302Y-112522972D03*
X127106302Y-112522972D03*
X129646302Y-112522972D03*
X132186302Y-112522972D03*
X134726302Y-112522972D03*
X137266302Y-112522972D03*
X139806302Y-112522972D03*
X142346302Y-112522972D03*
X144886302Y-112522972D03*
X147426302Y-112522972D03*
X149966302Y-112522972D03*
X152506302Y-112522972D03*
X155046302Y-112522972D03*
X157586302Y-112522972D03*
X160126302Y-112522972D03*
X162666302Y-112522972D03*
X165206302Y-112522972D03*
D16*
X172666302Y-107754972D03*
X173616302Y-107754972D03*
X174566302Y-107754972D03*
X174566302Y-105554972D03*
X172666302Y-105554972D03*
D17*
X163846302Y-82272972D03*
X163846302Y-80372972D03*
X161846302Y-81322972D03*
D18*
X119138302Y-107514972D03*
X121338302Y-107514972D03*
D16*
X116132302Y-94886972D03*
X117082302Y-94886972D03*
X118032302Y-94886972D03*
X118032302Y-92686972D03*
X116132302Y-92686972D03*
D19*
X169914302Y-106824972D03*
X169914302Y-109024972D03*
D20*
X137254302Y-84372972D03*
X137226302Y-102406972D03*
D21*
X121760302Y-97834972D03*
X121760302Y-99104972D03*
X121760302Y-92754972D03*
X121760302Y-94024972D03*
X121760302Y-96564972D03*
X121760302Y-95294972D03*
X121760302Y-90214972D03*
X121760302Y-91484972D03*
X121760302Y-88944972D03*
X121760302Y-87674972D03*
D20*
X139774302Y-102390972D03*
X138496302Y-102406972D03*
X134686302Y-102406972D03*
X135964302Y-102390972D03*
X130884302Y-102390972D03*
X129606302Y-102406972D03*
X132146302Y-102406972D03*
X133424302Y-102390972D03*
X123264302Y-102390972D03*
X125804302Y-102390972D03*
X124526302Y-102406972D03*
X127066302Y-102406972D03*
X128344302Y-102390972D03*
X128344302Y-84356972D03*
X127066302Y-84372972D03*
X124526302Y-84372972D03*
X125804302Y-84356972D03*
X123264302Y-84356972D03*
X133424302Y-84356972D03*
X132146302Y-84372972D03*
X129606302Y-84372972D03*
X130884302Y-84356972D03*
X135964302Y-84356972D03*
X134686302Y-84372972D03*
X138524302Y-84372972D03*
X139794302Y-84372972D03*
D22*
X131107502Y-92699092D03*
D19*
X179596302Y-83072972D03*
X179596302Y-85272972D03*
D23*
X182596302Y-87172972D03*
X182596302Y-89072972D03*
X180596302Y-87072972D03*
X180596302Y-88972972D03*
D24*
X118982302Y-97172972D03*
X117082302Y-97172972D03*
X115304302Y-89298972D03*
X117204302Y-89298972D03*
X163746302Y-78372972D03*
X165646302Y-78372972D03*
D23*
X164346302Y-92572972D03*
X164346302Y-94472972D03*
X172962302Y-96786972D03*
X172962302Y-94886972D03*
X167120302Y-102130972D03*
X167120302Y-104030972D03*
D25*
X179446302Y-81322972D03*
X177846302Y-81322972D03*
D13*
X165816302Y-74347972D03*
D14*
X163276302Y-74347972D03*
X160736302Y-74347972D03*
X158196302Y-74347972D03*
X155656302Y-74347972D03*
X153116302Y-74347972D03*
X150576302Y-74347972D03*
X148036302Y-74347972D03*
X145496302Y-74347972D03*
X142956302Y-74347972D03*
X140416302Y-74347972D03*
X137876302Y-74347972D03*
X135336302Y-74347972D03*
X132796302Y-74347972D03*
X130256302Y-74347972D03*
X127716302Y-74347972D03*
X125176302Y-74347972D03*
X122636302Y-74347972D03*
X120096302Y-74347972D03*
X117556302Y-74347972D03*
D26*
X115908702Y-105523772D03*
D27*
X115908702Y-109536972D03*
X115908702Y-107530372D03*
D28*
X166346302Y-81222972D03*
X166346302Y-82822972D03*
X170446302Y-81222972D03*
X170446302Y-82822972D03*
D29*
X180146302Y-113072972D03*
X182046302Y-113072972D03*
X181096302Y-111072972D03*
X175846302Y-83072972D03*
X173946302Y-83072972D03*
X174896302Y-85072972D03*
D18*
X119146302Y-101347972D03*
X116946302Y-101347972D03*
D19*
X184646302Y-77192972D03*
X184646302Y-79392972D03*
D18*
X177296302Y-113072972D03*
X175096302Y-113072972D03*
D19*
X183122302Y-97426972D03*
X183122302Y-99626972D03*
D18*
X188396302Y-83972972D03*
X186196302Y-83972972D03*
X186038302Y-81322972D03*
X188238302Y-81322972D03*
D19*
X185530302Y-88174972D03*
X185530302Y-85974972D03*
X158738302Y-102592972D03*
X158738302Y-104792972D03*
D18*
X116921302Y-99572972D03*
X119121302Y-99572972D03*
X117021302Y-103297972D03*
X119221302Y-103297972D03*
D19*
X115304302Y-86504972D03*
X115304302Y-84304972D03*
D18*
X171546302Y-85072972D03*
X169346302Y-85072972D03*
X173646302Y-81322972D03*
X175846302Y-81322972D03*
X157346302Y-81322972D03*
X159546302Y-81322972D03*
D19*
X177026302Y-106316972D03*
X177026302Y-108516972D03*
X178550302Y-102252972D03*
X178550302Y-104452972D03*
X174740302Y-94548972D03*
X174740302Y-96748972D03*
X170930302Y-97172972D03*
X170930302Y-94972972D03*
D18*
X169492302Y-104030972D03*
X171692302Y-104030972D03*
X169660302Y-101998972D03*
X171860302Y-101998972D03*
D19*
X151880302Y-79392972D03*
X151880302Y-81592972D03*
X151626302Y-87434972D03*
X151626302Y-85234972D03*
D11*
X180946302Y-107122972D03*
D12*
X183486302Y-107122972D03*
D30*
X194524302Y-93361972D03*
X111466302Y-93361972D03*
D13*
X156746302Y-90722972D03*
D14*
X156746302Y-93262972D03*
X156746302Y-95802972D03*
D31*
X168846302Y-97022972D03*
X168846302Y-89422972D03*
D32*
X176178302Y-103522972D03*
X176178302Y-102572972D03*
X176178302Y-101622972D03*
X173978302Y-101622972D03*
X173978302Y-103522972D03*
D33*
X184796302Y-91722972D03*
X184796302Y-94222972D03*
D34*
X181396302Y-94222972D03*
X181396302Y-92972972D03*
X181396302Y-91722972D03*
X182596302Y-91772972D03*
D35*
X183985342Y-92999012D03*
M02*
