G04 #@! TF.FileFunction,Soldermask,Bot*
%FSLAX46Y46*%
G04 Gerber Fmt 4.6, Leading zero omitted, Abs format (unit mm)*
G04 Created by KiCad (PCBNEW 4.0.7-e2-6376~58~ubuntu17.04.1) date Wed Sep 27 15:15:44 2017*
%MOMM*%
%LPD*%
G01*
G04 APERTURE LIST*
%ADD10C,0.100000*%
%ADD11R,2.100000X2.100000*%
%ADD12O,2.100000X2.100000*%
%ADD13R,1.400000X2.400000*%
%ADD14R,2.400000X1.400000*%
%ADD15R,4.400000X4.400000*%
%ADD16R,1.150000X1.200000*%
%ADD17R,2.000000X1.400000*%
%ADD18C,7.400000*%
%ADD19R,1.200000X1.150000*%
%ADD20R,1.400000X1.650000*%
%ADD21R,2.200000X2.200000*%
%ADD22C,2.200000*%
%ADD23R,1.200000X1.200000*%
%ADD24C,1.900000*%
%ADD25R,1.300000X1.200000*%
%ADD26R,1.200000X1.300000*%
%ADD27R,1.300000X0.900000*%
%ADD28R,0.900000X1.300000*%
%ADD29C,1.924000*%
%ADD30C,2.024000*%
%ADD31R,1.050000X1.460000*%
%ADD32R,1.650000X0.850000*%
%ADD33R,2.000000X2.900000*%
%ADD34R,0.800000X1.900000*%
%ADD35R,2.000000X2.400000*%
%ADD36R,1.150000X1.600000*%
%ADD37R,1.300000X1.600000*%
%ADD38R,0.750000X1.050000*%
%ADD39R,1.600000X1.175000*%
%ADD40R,6.400000X4.200000*%
%ADD41R,3.400000X1.900000*%
%ADD42R,2.400000X1.900000*%
G04 APERTURE END LIST*
D10*
D11*
X163050000Y-120580000D03*
D12*
X165590000Y-120580000D03*
X163050000Y-118040000D03*
X165590000Y-118040000D03*
X163050000Y-115500000D03*
X165590000Y-115500000D03*
X163050000Y-112960000D03*
X165590000Y-112960000D03*
X163050000Y-110420000D03*
X165590000Y-110420000D03*
D13*
X142128200Y-68723880D03*
X142156200Y-86757880D03*
D14*
X157622200Y-82185880D03*
X157622200Y-83455880D03*
X157622200Y-77105880D03*
X157622200Y-78375880D03*
X157622200Y-80915880D03*
X157622200Y-79645880D03*
X157622200Y-74565880D03*
X157622200Y-75835880D03*
X157622200Y-73295880D03*
X157622200Y-72025880D03*
D13*
X139608200Y-86741880D03*
X140886200Y-86757880D03*
X144696200Y-86757880D03*
X143418200Y-86741880D03*
X148498200Y-86741880D03*
X149776200Y-86757880D03*
X147236200Y-86757880D03*
X145958200Y-86741880D03*
X156118200Y-86741880D03*
X153578200Y-86741880D03*
X154856200Y-86757880D03*
X152316200Y-86757880D03*
X151038200Y-86741880D03*
X151038200Y-68707880D03*
X152316200Y-68723880D03*
X154856200Y-68723880D03*
X153578200Y-68707880D03*
X156118200Y-68707880D03*
X145958200Y-68707880D03*
X147236200Y-68723880D03*
X149776200Y-68723880D03*
X148498200Y-68707880D03*
X143418200Y-68707880D03*
X144696200Y-68723880D03*
X140858200Y-68723880D03*
X139588200Y-68723880D03*
D15*
X148275000Y-77050000D03*
D16*
X142790000Y-61240000D03*
X142790000Y-59740000D03*
X164150000Y-95125000D03*
X164150000Y-96625000D03*
X164150000Y-91475000D03*
X164150000Y-92975000D03*
D17*
X144900000Y-59425000D03*
X144900000Y-56425000D03*
D18*
X147684028Y-130516302D03*
X147684028Y-47458302D03*
D16*
X152146000Y-56920000D03*
X152146000Y-58420000D03*
D17*
X156180000Y-58730000D03*
X156180000Y-55730000D03*
D19*
X127266000Y-114300000D03*
X128766000Y-114300000D03*
D16*
X131826000Y-107926000D03*
X131826000Y-106426000D03*
X154160000Y-57350000D03*
X154160000Y-58850000D03*
D19*
X140975000Y-57600000D03*
X142475000Y-57600000D03*
X140650000Y-51450000D03*
X142150000Y-51450000D03*
D17*
X152425000Y-112275000D03*
X152425000Y-115275000D03*
D16*
X146375000Y-114275000D03*
X146375000Y-112775000D03*
X148125000Y-114325000D03*
X148125000Y-112825000D03*
X155150000Y-105550000D03*
X155150000Y-104050000D03*
X141175000Y-99625000D03*
X141175000Y-101125000D03*
X127375000Y-101350000D03*
X127375000Y-102850000D03*
X159900000Y-56675000D03*
X159900000Y-58175000D03*
D19*
X137425000Y-57225000D03*
X138925000Y-57225000D03*
D20*
X139025000Y-61300000D03*
X137025000Y-61300000D03*
X146800000Y-107550000D03*
X144800000Y-107550000D03*
D19*
X147290000Y-57110000D03*
X148790000Y-57110000D03*
D16*
X156225000Y-108525000D03*
X156225000Y-110025000D03*
X137350000Y-53925000D03*
X137350000Y-55425000D03*
X147450000Y-103650000D03*
X147450000Y-105150000D03*
D19*
X134925000Y-52250000D03*
X136425000Y-52250000D03*
D16*
X151700000Y-97800000D03*
X151700000Y-99300000D03*
D19*
X141130000Y-64470000D03*
X142630000Y-64470000D03*
D16*
X143775000Y-105175000D03*
X143775000Y-103675000D03*
X148300000Y-99150000D03*
X148300000Y-97650000D03*
X137800000Y-97100000D03*
X137800000Y-98600000D03*
X136050000Y-99775000D03*
X136050000Y-98275000D03*
D19*
X137550000Y-95150000D03*
X136050000Y-95150000D03*
X134600000Y-103000000D03*
X133100000Y-103000000D03*
D16*
X136050000Y-91275000D03*
X136050000Y-92775000D03*
D21*
X134025000Y-59535000D03*
D22*
X134025000Y-62075000D03*
D23*
X163075000Y-106800000D03*
X164675000Y-106800000D03*
D24*
X137750000Y-117950000D03*
X137750000Y-110350000D03*
D11*
X161410000Y-125300000D03*
D12*
X163950000Y-125300000D03*
X166490000Y-125300000D03*
D25*
X129150000Y-61675000D03*
X129150000Y-59775000D03*
X131150000Y-60725000D03*
D26*
X159000000Y-105500000D03*
X160900000Y-105500000D03*
X159950000Y-107500000D03*
D27*
X152570000Y-64700000D03*
X152570000Y-63200000D03*
X156050000Y-63825000D03*
X156050000Y-65325000D03*
D28*
X167270000Y-65600000D03*
X165770000Y-65600000D03*
X129300000Y-63625000D03*
X130800000Y-63625000D03*
X135475000Y-64775000D03*
X133975000Y-64775000D03*
X160575000Y-79425000D03*
X162075000Y-79425000D03*
X160525000Y-81225000D03*
X162025000Y-81225000D03*
D27*
X152110000Y-61310000D03*
X152110000Y-59810000D03*
X160300000Y-101450000D03*
X160300000Y-102950000D03*
X154300000Y-63800000D03*
X154300000Y-65300000D03*
X136750000Y-125950000D03*
X136750000Y-124450000D03*
X141060000Y-59770000D03*
X141060000Y-61270000D03*
X165925000Y-102975000D03*
X165925000Y-101475000D03*
X127090000Y-111170000D03*
X127090000Y-112670000D03*
X129032000Y-111264000D03*
X129032000Y-112764000D03*
X159925000Y-108850000D03*
X159925000Y-110350000D03*
X156950000Y-104050000D03*
X156950000Y-105550000D03*
X138000000Y-92650000D03*
X138000000Y-91150000D03*
D28*
X138225000Y-63325000D03*
X139725000Y-63325000D03*
D27*
X158900000Y-124575000D03*
X158900000Y-126075000D03*
X147450000Y-61075000D03*
X147450000Y-62575000D03*
X156250000Y-111475000D03*
X156250000Y-112975000D03*
D28*
X138825000Y-59100000D03*
X137325000Y-59100000D03*
X149950000Y-107625000D03*
X148450000Y-107625000D03*
X144050000Y-53640000D03*
X145550000Y-53640000D03*
X147290000Y-55190000D03*
X148790000Y-55190000D03*
D27*
X152350000Y-110075000D03*
X152350000Y-108575000D03*
X154350000Y-108625000D03*
X154350000Y-110125000D03*
X138900000Y-53775000D03*
X138900000Y-55275000D03*
X149500000Y-103500000D03*
X149500000Y-105000000D03*
D28*
X142620000Y-62950000D03*
X141120000Y-62950000D03*
D27*
X145575000Y-103750000D03*
X145575000Y-105250000D03*
X135625000Y-55450000D03*
X135625000Y-53950000D03*
X149900000Y-97700000D03*
X149900000Y-99200000D03*
X146600000Y-99200000D03*
X146600000Y-97700000D03*
X137800000Y-100000000D03*
X137800000Y-101500000D03*
D28*
X129125000Y-92675000D03*
X130625000Y-92675000D03*
X130575000Y-94675000D03*
X129075000Y-94675000D03*
X129125000Y-96525000D03*
X130625000Y-96525000D03*
X130625000Y-98425000D03*
X129125000Y-98425000D03*
D27*
X157825000Y-65225000D03*
X157825000Y-63725000D03*
D29*
X166520000Y-62900000D03*
X166520000Y-60360000D03*
X166520000Y-57820000D03*
D30*
X155040000Y-60750000D03*
D31*
X164100000Y-103875000D03*
X163150000Y-103875000D03*
X162200000Y-103875000D03*
X162200000Y-101675000D03*
X164100000Y-101675000D03*
D32*
X150622000Y-55372000D03*
X150622000Y-54372000D03*
X150622000Y-53372000D03*
X153922000Y-54372000D03*
X153922000Y-55372000D03*
X153922000Y-53372000D03*
D33*
X152272000Y-54372000D03*
D29*
X144910000Y-61765000D03*
X149990000Y-61765000D03*
X147450000Y-59225000D03*
X147425000Y-111175000D03*
X147425000Y-116255000D03*
X149965000Y-113715000D03*
D31*
X142350000Y-55725000D03*
X141400000Y-55725000D03*
X140450000Y-55725000D03*
X140450000Y-53525000D03*
X142350000Y-53525000D03*
X153250000Y-106350000D03*
X152300000Y-106350000D03*
X151350000Y-106350000D03*
X151350000Y-104150000D03*
X153250000Y-104150000D03*
X142850000Y-99200000D03*
X143800000Y-99200000D03*
X144750000Y-99200000D03*
X144750000Y-101400000D03*
X142850000Y-101400000D03*
X129000000Y-100600000D03*
X129950000Y-100600000D03*
X130900000Y-100600000D03*
X130900000Y-102800000D03*
X129000000Y-102800000D03*
D34*
X133125000Y-98400000D03*
X133775000Y-98400000D03*
X134425000Y-98400000D03*
X134425000Y-101060000D03*
X133125000Y-101060000D03*
X134425000Y-95100000D03*
X133775000Y-95100000D03*
X133125000Y-95100000D03*
X133125000Y-92440000D03*
X134425000Y-92440000D03*
D35*
X162950000Y-57475000D03*
X162950000Y-61475000D03*
D36*
X160850000Y-62600000D03*
X160850000Y-60700000D03*
D37*
X160900000Y-64575000D03*
X160900000Y-66775000D03*
X160400000Y-85775000D03*
X160400000Y-83575000D03*
D38*
X130140000Y-109220000D03*
X129490000Y-109220000D03*
X128840000Y-109220000D03*
X128190000Y-109220000D03*
X128190000Y-106120000D03*
X128840000Y-106120000D03*
X129490000Y-106120000D03*
X130140000Y-106120000D03*
D39*
X128565000Y-107282500D03*
X129765000Y-107282500D03*
X128565000Y-108057500D03*
X129765000Y-108057500D03*
D40*
X157000000Y-94025000D03*
D41*
X161420000Y-94025000D03*
D42*
X161750000Y-96325000D03*
X161750000Y-91725000D03*
D27*
X144025000Y-125725000D03*
X144025000Y-124225000D03*
X129655000Y-125965000D03*
X129655000Y-124465000D03*
M02*
