M48
;DRILL file {KiCad 201611132049+7352~55~ubuntu16.04.1-product} date Tue Nov 15 21:52:08 2016
;FORMAT={-:-/ absolute / inch / decimal}
FMAT,2
INCH,TZ
T1C0.016
T2C0.024
T3C0.039
T4C0.039
T5C0.040
T6C0.047
T7C0.236
%
G90
G05
M72
T1
X4.64Y-2.7925
X4.7125Y-3.265
X4.93Y-2.71
X4.97Y-4.215
X4.975Y-4.27
X4.985Y-3.365
X5.205Y-4.365
X5.215Y-4.5375
X5.285Y-4.16
X5.34Y-3.8925
X5.3675Y-2.4475
X5.45Y-2.385
X5.51Y-3.955
X5.5575Y-4.2175
X5.58Y-4.69
T2
X4.5675Y-2.6225
X4.775Y-4.715
X4.805Y-3.08
X4.805Y-4.685
X4.8575Y-2.64
X4.945Y-3.43
X4.9475Y-3.92
X5.1225Y-2.7175
X5.2213Y-2.8926
X5.3325Y-2.5975
X5.34Y-3.575
X5.3675Y-4.6875
X5.3975Y-4.2625
X5.415Y-4.75
X5.5625Y-3.04
X5.65Y-4.76
X5.7349Y-4.7504
X5.795Y-4.745
X5.9125Y-3.905
X5.92Y-3.8025
X5.92Y-3.845
X5.9325Y-4.275
T3
X6.065Y-2.34
X6.065Y-2.44
X6.065Y-2.54
T4
X4.77Y-2.365
X4.77Y-2.465
T5
X4.54Y-3.915
X4.54Y-4.015
X4.54Y-4.115
X4.54Y-4.215
X4.54Y-4.315
X4.54Y-4.415
X4.54Y-4.515
X4.54Y-4.615
X4.54Y-4.715
X4.54Y-4.815
X5.135Y-2.165
X5.18Y-3.43
X5.235Y-2.165
X5.28Y-3.43
X5.335Y-2.165
X5.38Y-3.43
X5.435Y-2.165
X6.02Y-3.955
X6.02Y-4.055
X6.02Y-4.155
X6.02Y-4.255
X6.02Y-4.355
X6.02Y-4.455
X6.02Y-4.555
X6.02Y-4.655
X6.02Y-4.755
X6.02Y-4.855
T6
X5.6075Y-4.9925
X5.7075Y-4.9925
X5.8075Y-4.9925
T7
X5.285Y-1.93
X5.285Y-5.2
T0
M30
