M48
;DRILL file {KiCad 4.0.7-e2-6376~58~ubuntu17.04.1} date Wed Sep 27 15:15:41 2017
;FORMAT={-:-/ absolute / inch / decimal}
FMAT,2
INCH,TZ
T1C0.016
T2C0.030
T3C0.035
T4C0.039
T5C0.049
T6C0.236
%
G90
G05
M72
T1
X4.9732Y-4.2169
X4.9884Y-4.1628
X4.9969Y-4.1031
X5.0128Y-4.2005
X5.0213Y-4.9642
X5.0219Y-4.9012
X5.0461Y-3.5965
X5.0488Y-4.0862
X5.0709Y-4.5394
X5.0748Y-4.15
X5.0787Y-4.0472
X5.0791Y-4.8039
X5.0846Y-2.3533
X5.1024Y-4.122
X5.1181Y-4.0079
X5.1248Y-4.3327
X5.1394Y-4.1193
X5.14Y-4.45
X5.14Y-4.73
X5.1474Y-4.196
X5.1665Y-4.0957
X5.1693Y-3.7598
X5.17Y-3.88
X5.1819Y-4.8417
X5.1827Y-4.9642
X5.1833Y-4.9012
X5.2205Y-3.5787
X5.2402Y-4.0236
X5.2669Y-3.287
X5.2677Y-3.9252
X5.2756Y-3.7982
X5.2805Y-2.874
X5.2815Y-2.8061
X5.2874Y-3.5866
X5.3031Y-4.961
X5.3041Y-4.8976
X5.32Y-3.874
X5.3465Y-2.8612
X5.3551Y-3.1531
X5.3563Y-3.5935
X5.3563Y-3.7461
X5.3799Y-3.4803
X5.3839Y-4.8996
X5.3888Y-3.9557
X5.3907Y-3.5374
X5.3947Y-2.4134
X5.4104Y-2.253
X5.4144Y-2.8317
X5.4173Y-3.4213
X5.42Y-3.49
X5.4252Y-3.7835
X5.4567Y-4.0276
X5.4646Y-4.961
X5.4648Y-2.4618
X5.4656Y-4.8976
X5.47Y-3.84
X5.4791Y-2.8764
X5.4921Y-2.6378
X5.4961Y-2.2825
X5.5049Y-2.1506
X5.51Y-3.94
X5.5197Y-3.9803
X5.5563Y-2.5382
X5.56Y-3.75
X5.5669Y-2.1496
X5.5829Y-2.3791
X5.5886Y-4.8947
X5.5894Y-4.9567
X5.5909Y-2.9371
X5.5913Y-3.4886
X5.5956Y-2.7057
X5.6Y-3.71
X5.6073Y-2.1467
X5.6073Y-2.2325
X5.6217Y-3.1461
X5.6457Y-3.5551
X5.65Y-2.6
X5.6614Y-3.9528
X5.6703Y-4.8907
X5.6732Y-4.0394
X5.68Y-3.48
X5.6818Y-3.0223
X5.6917Y-3.5362
X5.7008Y-4.2343
X5.7047Y-2.2215
X5.7077Y-4.7697
X5.73Y-2.59
X5.74Y-2.77
X5.74Y-2.82
X5.75Y-4.8947
X5.7508Y-4.9567
X5.763Y-3.9551
X5.7874Y-2.935
X5.79Y-3.59
X5.8Y-3.51
X5.84Y-3.63
X5.8457Y-2.8512
X5.8464Y-2.705
X5.88Y-2.14
X5.89Y-3.51
X5.9016Y-3.4701
X5.9065Y-2.75
X5.92Y-2.37
X5.9362Y-4.0205
X5.9464Y-3.415
X5.98Y-2.61
X5.995Y-2.1406
X5.9977Y-4.1606
X6.Y-4.3031
X6.001Y-4.5384
X6.0091Y-2.9476
X6.01Y-2.7756
X6.0295Y-2.4478
X6.03Y-2.25
X6.0354Y-4.1417
X6.04Y-2.84
X6.0599Y-2.1406
X6.06Y-4.76
X6.0679Y-2.4921
X6.0787Y-4.3701
X6.08Y-4.19
X6.09Y-2.64
X6.1053Y-2.4469
X6.1107Y-2.5316
X6.1181Y-3.2844
X6.124Y-2.6292
X6.1407Y-2.4902
X6.1417Y-3.1112
X6.1464Y-2.705
X6.1465Y-2.8517
X6.1488Y-2.1941
X6.1496Y-4.4213
X6.1516Y-3.1772
X6.1811Y-3.7018
X6.2056Y-2.8357
X6.26Y-4.55
X6.2618Y-2.2293
X6.27Y-3.81
X6.29Y-3.45
X6.315Y-3.377
X6.3346Y-2.6289
X6.3681Y-3.6112
X6.37Y-3.25
X6.3701Y-3.5733
X6.41Y-2.65
X6.4154Y-2.4203
X6.4213Y-4.0433
X6.43Y-3.52
X6.4547Y-4.9331
X6.4626Y-3.7451
X6.52Y-3.7
X6.5246Y-2.624
X6.57Y-3.28
X6.62Y-4.59
T2
X5.8376Y-3.0335
T3
X5.2766Y-2.3439
X5.2766Y-2.4439
T4
X5.4232Y-4.3445
X5.4232Y-4.6437
X5.7051Y-2.4317
X5.8041Y-4.377
X5.8041Y-4.577
X5.8051Y-2.3317
X5.9041Y-4.477
X5.9051Y-2.4317
X6.3547Y-4.9331
X6.4193Y-4.3472
X6.4193Y-4.4472
X6.4193Y-4.5472
X6.4193Y-4.6472
X6.4193Y-4.7472
X6.4547Y-4.9331
X6.5193Y-4.3472
X6.5193Y-4.4472
X6.5193Y-4.5472
X6.5193Y-4.6472
X6.5193Y-4.7472
X6.5547Y-4.9331
X6.5559Y-2.2764
X6.5559Y-2.3764
X6.5559Y-2.4764
T5
X6.1039Y-2.3917
T6
X5.8143Y-1.8684
X5.8143Y-5.1384
T0
M30
