G04 #@! TF.FileFunction,Copper,L2,Bot,Signal*
%FSLAX46Y46*%
G04 Gerber Fmt 4.6, Leading zero omitted, Abs format (unit mm)*
G04 Created by KiCad (PCBNEW 4.0.7-e2-6376~58~ubuntu17.04.1) date Wed Sep 27 15:15:44 2017*
%MOMM*%
%LPD*%
G01*
G04 APERTURE LIST*
%ADD10C,0.100000*%
%ADD11R,1.700000X1.700000*%
%ADD12O,1.700000X1.700000*%
%ADD13R,1.000000X2.000000*%
%ADD14R,2.000000X1.000000*%
%ADD15R,4.000000X4.000000*%
%ADD16R,0.750000X0.800000*%
%ADD17R,1.600000X1.000000*%
%ADD18C,7.000000*%
%ADD19R,0.800000X0.750000*%
%ADD20R,1.000000X1.250000*%
%ADD21R,1.800000X1.800000*%
%ADD22C,1.800000*%
%ADD23R,0.800000X0.800000*%
%ADD24C,1.500000*%
%ADD25R,0.900000X0.800000*%
%ADD26R,0.800000X0.900000*%
%ADD27R,0.900000X0.500000*%
%ADD28R,0.500000X0.900000*%
%ADD29C,1.524000*%
%ADD30C,1.624000*%
%ADD31R,0.650000X1.060000*%
%ADD32R,1.250000X0.450000*%
%ADD33R,1.600000X2.500000*%
%ADD34R,0.400000X1.500000*%
%ADD35R,1.600000X2.000000*%
%ADD36R,0.750000X1.200000*%
%ADD37R,0.900000X1.200000*%
%ADD38R,0.350000X0.650000*%
%ADD39R,1.200000X0.775000*%
%ADD40R,6.000000X3.800000*%
%ADD41R,3.000000X1.500000*%
%ADD42R,2.000000X1.500000*%
%ADD43C,0.800000*%
%ADD44C,0.600000*%
%ADD45C,1.200000*%
%ADD46C,0.250000*%
%ADD47C,0.400000*%
%ADD48C,1.000000*%
%ADD49C,2.000000*%
G04 APERTURE END LIST*
D10*
D11*
X163050000Y-120580000D03*
D12*
X165590000Y-120580000D03*
X163050000Y-118040000D03*
X165590000Y-118040000D03*
X163050000Y-115500000D03*
X165590000Y-115500000D03*
X163050000Y-112960000D03*
X165590000Y-112960000D03*
X163050000Y-110420000D03*
X165590000Y-110420000D03*
D13*
X142128200Y-68723880D03*
X142156200Y-86757880D03*
D14*
X157622200Y-82185880D03*
X157622200Y-83455880D03*
X157622200Y-77105880D03*
X157622200Y-78375880D03*
X157622200Y-80915880D03*
X157622200Y-79645880D03*
X157622200Y-74565880D03*
X157622200Y-75835880D03*
X157622200Y-73295880D03*
X157622200Y-72025880D03*
D13*
X139608200Y-86741880D03*
X140886200Y-86757880D03*
X144696200Y-86757880D03*
X143418200Y-86741880D03*
X148498200Y-86741880D03*
X149776200Y-86757880D03*
X147236200Y-86757880D03*
X145958200Y-86741880D03*
X156118200Y-86741880D03*
X153578200Y-86741880D03*
X154856200Y-86757880D03*
X152316200Y-86757880D03*
X151038200Y-86741880D03*
X151038200Y-68707880D03*
X152316200Y-68723880D03*
X154856200Y-68723880D03*
X153578200Y-68707880D03*
X156118200Y-68707880D03*
X145958200Y-68707880D03*
X147236200Y-68723880D03*
X149776200Y-68723880D03*
X148498200Y-68707880D03*
X143418200Y-68707880D03*
X144696200Y-68723880D03*
X140858200Y-68723880D03*
X139588200Y-68723880D03*
D15*
X148275000Y-77050000D03*
D16*
X142790000Y-61240000D03*
X142790000Y-59740000D03*
X164150000Y-95125000D03*
X164150000Y-96625000D03*
X164150000Y-91475000D03*
X164150000Y-92975000D03*
D17*
X144900000Y-59425000D03*
X144900000Y-56425000D03*
D18*
X147684028Y-130516302D03*
X147684028Y-47458302D03*
D16*
X152146000Y-56920000D03*
X152146000Y-58420000D03*
D17*
X156180000Y-58730000D03*
X156180000Y-55730000D03*
D19*
X127266000Y-114300000D03*
X128766000Y-114300000D03*
D16*
X131826000Y-107926000D03*
X131826000Y-106426000D03*
X154160000Y-57350000D03*
X154160000Y-58850000D03*
D19*
X140975000Y-57600000D03*
X142475000Y-57600000D03*
X140650000Y-51450000D03*
X142150000Y-51450000D03*
D17*
X152425000Y-112275000D03*
X152425000Y-115275000D03*
D16*
X146375000Y-114275000D03*
X146375000Y-112775000D03*
X148125000Y-114325000D03*
X148125000Y-112825000D03*
X155150000Y-105550000D03*
X155150000Y-104050000D03*
X141175000Y-99625000D03*
X141175000Y-101125000D03*
X127375000Y-101350000D03*
X127375000Y-102850000D03*
X159900000Y-56675000D03*
X159900000Y-58175000D03*
D19*
X137425000Y-57225000D03*
X138925000Y-57225000D03*
D20*
X139025000Y-61300000D03*
X137025000Y-61300000D03*
X146800000Y-107550000D03*
X144800000Y-107550000D03*
D19*
X147290000Y-57110000D03*
X148790000Y-57110000D03*
D16*
X156225000Y-108525000D03*
X156225000Y-110025000D03*
X137350000Y-53925000D03*
X137350000Y-55425000D03*
X147450000Y-103650000D03*
X147450000Y-105150000D03*
D19*
X134925000Y-52250000D03*
X136425000Y-52250000D03*
D16*
X151700000Y-97800000D03*
X151700000Y-99300000D03*
D19*
X141130000Y-64470000D03*
X142630000Y-64470000D03*
D16*
X143775000Y-105175000D03*
X143775000Y-103675000D03*
X148300000Y-99150000D03*
X148300000Y-97650000D03*
X137800000Y-97100000D03*
X137800000Y-98600000D03*
X136050000Y-99775000D03*
X136050000Y-98275000D03*
D19*
X137550000Y-95150000D03*
X136050000Y-95150000D03*
X134600000Y-103000000D03*
X133100000Y-103000000D03*
D16*
X136050000Y-91275000D03*
X136050000Y-92775000D03*
D21*
X134025000Y-59535000D03*
D22*
X134025000Y-62075000D03*
D23*
X163075000Y-106800000D03*
X164675000Y-106800000D03*
D24*
X137750000Y-117950000D03*
X137750000Y-110350000D03*
D11*
X161410000Y-125300000D03*
D12*
X163950000Y-125300000D03*
X166490000Y-125300000D03*
D25*
X129150000Y-61675000D03*
X129150000Y-59775000D03*
X131150000Y-60725000D03*
D26*
X159000000Y-105500000D03*
X160900000Y-105500000D03*
X159950000Y-107500000D03*
D27*
X152570000Y-64700000D03*
X152570000Y-63200000D03*
X156050000Y-63825000D03*
X156050000Y-65325000D03*
D28*
X167270000Y-65600000D03*
X165770000Y-65600000D03*
X129300000Y-63625000D03*
X130800000Y-63625000D03*
X135475000Y-64775000D03*
X133975000Y-64775000D03*
X160575000Y-79425000D03*
X162075000Y-79425000D03*
X160525000Y-81225000D03*
X162025000Y-81225000D03*
D27*
X152110000Y-61310000D03*
X152110000Y-59810000D03*
X160300000Y-101450000D03*
X160300000Y-102950000D03*
X154300000Y-63800000D03*
X154300000Y-65300000D03*
X136750000Y-125950000D03*
X136750000Y-124450000D03*
X141060000Y-59770000D03*
X141060000Y-61270000D03*
X165925000Y-102975000D03*
X165925000Y-101475000D03*
X127090000Y-111170000D03*
X127090000Y-112670000D03*
X129032000Y-111264000D03*
X129032000Y-112764000D03*
X159925000Y-108850000D03*
X159925000Y-110350000D03*
X156950000Y-104050000D03*
X156950000Y-105550000D03*
X138000000Y-92650000D03*
X138000000Y-91150000D03*
D28*
X138225000Y-63325000D03*
X139725000Y-63325000D03*
D27*
X158900000Y-124575000D03*
X158900000Y-126075000D03*
X147450000Y-61075000D03*
X147450000Y-62575000D03*
X156250000Y-111475000D03*
X156250000Y-112975000D03*
D28*
X138825000Y-59100000D03*
X137325000Y-59100000D03*
X149950000Y-107625000D03*
X148450000Y-107625000D03*
X144050000Y-53640000D03*
X145550000Y-53640000D03*
X147290000Y-55190000D03*
X148790000Y-55190000D03*
D27*
X152350000Y-110075000D03*
X152350000Y-108575000D03*
X154350000Y-108625000D03*
X154350000Y-110125000D03*
X138900000Y-53775000D03*
X138900000Y-55275000D03*
X149500000Y-103500000D03*
X149500000Y-105000000D03*
D28*
X142620000Y-62950000D03*
X141120000Y-62950000D03*
D27*
X145575000Y-103750000D03*
X145575000Y-105250000D03*
X135625000Y-55450000D03*
X135625000Y-53950000D03*
X149900000Y-97700000D03*
X149900000Y-99200000D03*
X146600000Y-99200000D03*
X146600000Y-97700000D03*
X137800000Y-100000000D03*
X137800000Y-101500000D03*
D28*
X129125000Y-92675000D03*
X130625000Y-92675000D03*
X130575000Y-94675000D03*
X129075000Y-94675000D03*
X129125000Y-96525000D03*
X130625000Y-96525000D03*
X130625000Y-98425000D03*
X129125000Y-98425000D03*
D27*
X157825000Y-65225000D03*
X157825000Y-63725000D03*
D29*
X166520000Y-62900000D03*
X166520000Y-60360000D03*
X166520000Y-57820000D03*
D30*
X155040000Y-60750000D03*
D31*
X164100000Y-103875000D03*
X163150000Y-103875000D03*
X162200000Y-103875000D03*
X162200000Y-101675000D03*
X164100000Y-101675000D03*
D32*
X150622000Y-55372000D03*
X150622000Y-54372000D03*
X150622000Y-53372000D03*
X153922000Y-54372000D03*
X153922000Y-55372000D03*
X153922000Y-53372000D03*
D33*
X152272000Y-54372000D03*
D29*
X144910000Y-61765000D03*
X149990000Y-61765000D03*
X147450000Y-59225000D03*
X147425000Y-111175000D03*
X147425000Y-116255000D03*
X149965000Y-113715000D03*
D31*
X142350000Y-55725000D03*
X141400000Y-55725000D03*
X140450000Y-55725000D03*
X140450000Y-53525000D03*
X142350000Y-53525000D03*
X153250000Y-106350000D03*
X152300000Y-106350000D03*
X151350000Y-106350000D03*
X151350000Y-104150000D03*
X153250000Y-104150000D03*
X142850000Y-99200000D03*
X143800000Y-99200000D03*
X144750000Y-99200000D03*
X144750000Y-101400000D03*
X142850000Y-101400000D03*
X129000000Y-100600000D03*
X129950000Y-100600000D03*
X130900000Y-100600000D03*
X130900000Y-102800000D03*
X129000000Y-102800000D03*
D34*
X133125000Y-98400000D03*
X133775000Y-98400000D03*
X134425000Y-98400000D03*
X134425000Y-101060000D03*
X133125000Y-101060000D03*
X134425000Y-95100000D03*
X133775000Y-95100000D03*
X133125000Y-95100000D03*
X133125000Y-92440000D03*
X134425000Y-92440000D03*
D35*
X162950000Y-57475000D03*
X162950000Y-61475000D03*
D36*
X160850000Y-62600000D03*
X160850000Y-60700000D03*
D37*
X160900000Y-64575000D03*
X160900000Y-66775000D03*
X160400000Y-85775000D03*
X160400000Y-83575000D03*
D38*
X130140000Y-109220000D03*
X129490000Y-109220000D03*
X128840000Y-109220000D03*
X128190000Y-109220000D03*
X128190000Y-106120000D03*
X128840000Y-106120000D03*
X129490000Y-106120000D03*
X130140000Y-106120000D03*
D39*
X128565000Y-107282500D03*
X129765000Y-107282500D03*
X128565000Y-108057500D03*
X129765000Y-108057500D03*
D40*
X157000000Y-94025000D03*
D41*
X161420000Y-94025000D03*
D42*
X161750000Y-96325000D03*
X161750000Y-91725000D03*
D27*
X144025000Y-125725000D03*
X144025000Y-124225000D03*
X129655000Y-125965000D03*
X129655000Y-124465000D03*
D43*
X126920000Y-104220000D03*
D44*
X149352000Y-54356000D03*
D43*
X161800000Y-90761427D03*
D44*
X154432000Y-106426000D03*
X164150000Y-95125000D03*
X156180000Y-55730000D03*
X153162000Y-57150000D03*
X152272000Y-54372000D03*
D43*
X157622200Y-72025880D03*
D44*
X136050000Y-91275000D03*
X159050000Y-56625000D03*
X137025000Y-61300000D03*
X137425000Y-57225000D03*
X141130000Y-64470000D03*
X129150000Y-59775000D03*
X137800000Y-96100000D03*
D43*
X134000000Y-96474990D03*
D44*
X156200000Y-112300000D03*
X154400000Y-111000000D03*
D43*
X152341548Y-105680004D03*
D44*
X129600000Y-104700000D03*
X128800000Y-115300000D03*
X127540000Y-126090000D03*
X131640000Y-126090000D03*
X134700000Y-126010000D03*
X138800000Y-126010000D03*
X146070000Y-125900000D03*
X141970000Y-125900000D03*
D43*
X160400000Y-85775000D03*
X161750000Y-91725000D03*
X152425000Y-115275000D03*
X144800000Y-107550000D03*
X137600000Y-86900000D03*
D45*
X148275000Y-77050000D03*
D43*
X139500000Y-67000000D03*
X144900000Y-56425000D03*
X162950000Y-61475000D03*
X141400000Y-54600000D03*
X163100000Y-102700000D03*
X143800000Y-100400000D03*
X133800000Y-99700000D03*
X130000000Y-101800000D03*
D44*
X154125000Y-63300000D03*
X142425000Y-56705002D03*
X142425000Y-54525000D03*
X128900951Y-105410825D03*
X151892000Y-66294000D03*
X145542000Y-65786000D03*
X143510000Y-66040000D03*
X130556000Y-113030000D03*
X130556000Y-120142000D03*
X159004000Y-115570000D03*
X144975000Y-121150000D03*
X153924000Y-120904000D03*
X155550000Y-66780989D03*
X148336000Y-92202000D03*
X160900000Y-66775000D03*
X157000000Y-94025000D03*
X130170000Y-110050000D03*
X143400000Y-90300000D03*
X127324883Y-106692098D03*
X130744714Y-106578595D03*
X134125000Y-73000000D03*
X135800000Y-72675000D03*
X153922000Y-54372000D03*
X139600000Y-57975000D03*
X153300000Y-105200000D03*
X152400000Y-109300000D03*
X140200000Y-101100000D03*
X129000000Y-102800000D03*
X133100000Y-102200000D03*
X132600000Y-90900000D03*
X134300000Y-91100000D03*
X141804995Y-60429107D03*
X139825000Y-54625000D03*
X145796000Y-71628000D03*
X137668000Y-88646000D03*
X139954000Y-100076000D03*
X145796000Y-70358000D03*
X144100000Y-102600000D03*
X138600000Y-102300000D03*
X136925000Y-89850000D03*
X136650000Y-88400000D03*
X135128000Y-98400000D03*
X131318000Y-98552000D03*
X136050000Y-95150000D03*
X131300000Y-95500000D03*
X136750000Y-124450000D03*
X130540000Y-104630000D03*
X131230000Y-104030000D03*
X161798000Y-82550000D03*
X166878000Y-83312000D03*
X168148000Y-116586000D03*
X163950000Y-125300000D03*
X126705847Y-105735997D03*
X126320000Y-107110000D03*
X128240000Y-103790000D03*
X131620000Y-122980000D03*
X128170000Y-91350000D03*
X133780000Y-83490000D03*
X136020000Y-80090000D03*
X139170000Y-73060000D03*
X142128200Y-68723880D03*
X138825000Y-124400000D03*
X134725000Y-124400000D03*
X153150000Y-62175000D03*
X155975000Y-63250000D03*
X165725000Y-66650000D03*
X155400000Y-83425000D03*
X144316594Y-76766594D03*
X142009582Y-74601231D03*
X137525000Y-71925000D03*
X134150000Y-71275000D03*
X150368000Y-60198000D03*
X156000000Y-79025000D03*
X156250000Y-80700000D03*
X155211298Y-64301743D03*
X155075000Y-62150000D03*
X138806433Y-62530379D03*
X163322000Y-89408000D03*
X144272000Y-88392000D03*
X144569422Y-89819231D03*
X150780000Y-102120000D03*
X146380000Y-100460000D03*
X142020000Y-88610000D03*
X142240000Y-94234000D03*
X141224000Y-95250000D03*
X138938000Y-97536000D03*
X147320000Y-89154000D03*
X147066000Y-91186000D03*
X136875000Y-100475000D03*
X149900000Y-88140000D03*
X149606000Y-89154000D03*
X151038200Y-86741880D03*
X156122198Y-72434023D03*
X152630000Y-74870000D03*
X156118200Y-68707880D03*
X152654000Y-70500000D03*
X153416000Y-72136000D03*
X147000000Y-74549998D03*
X150025000Y-69850000D03*
X148480000Y-72420000D03*
X142790000Y-79910000D03*
X148498200Y-68707880D03*
X159766000Y-87630000D03*
X159258000Y-96774000D03*
X131655000Y-124490000D03*
X127555000Y-124490000D03*
X165608000Y-93980000D03*
X162814000Y-67310000D03*
X154686000Y-67056000D03*
X146050000Y-124325000D03*
X141950000Y-124325000D03*
X144025000Y-124225000D03*
X129010000Y-122020000D03*
D46*
X129600000Y-106010000D02*
X129600000Y-105124264D01*
X129490000Y-106120000D02*
X129600000Y-106010000D01*
X129600000Y-105124264D02*
X129600000Y-104700000D01*
X150622000Y-54372000D02*
X152272000Y-54372000D01*
X150622000Y-54372000D02*
X149368000Y-54372000D01*
X149368000Y-54372000D02*
X149352000Y-54356000D01*
X148790000Y-55190000D02*
X148790000Y-54918000D01*
X148790000Y-54918000D02*
X149352000Y-54356000D01*
D47*
X161800000Y-91327112D02*
X161800000Y-90761427D01*
X161800000Y-91675000D02*
X161800000Y-91327112D01*
X161750000Y-91725000D02*
X161800000Y-91675000D01*
D46*
X141986000Y-62298998D02*
X141986000Y-63639000D01*
X141986000Y-63639000D02*
X141155000Y-64470000D01*
X141155000Y-64470000D02*
X141130000Y-64470000D01*
X142790000Y-61494998D02*
X141986000Y-62298998D01*
X142790000Y-61240000D02*
X142790000Y-61494998D01*
X155150000Y-105550000D02*
X155150000Y-105708000D01*
X155150000Y-105708000D02*
X154432000Y-106426000D01*
X152146000Y-56920000D02*
X152932000Y-56920000D01*
X152932000Y-56920000D02*
X153162000Y-57150000D01*
X154160000Y-57350000D02*
X153362000Y-57350000D01*
X153362000Y-57350000D02*
X153162000Y-57150000D01*
X152146000Y-56920000D02*
X152146000Y-54498000D01*
X152146000Y-54498000D02*
X152272000Y-54372000D01*
X160850000Y-60700000D02*
X162175000Y-60700000D01*
X162175000Y-60700000D02*
X162950000Y-61475000D01*
X159900000Y-56675000D02*
X159100000Y-56675000D01*
X159100000Y-56675000D02*
X159050000Y-56625000D01*
X152110000Y-61310000D02*
X150445000Y-61310000D01*
X150445000Y-61310000D02*
X149990000Y-61765000D01*
X140975000Y-57600000D02*
X141400000Y-57175000D01*
X141400000Y-57175000D02*
X141400000Y-55725000D01*
X140650000Y-51450000D02*
X140650000Y-52075000D01*
X140650000Y-52075000D02*
X141400000Y-52825000D01*
X141400000Y-52825000D02*
X141400000Y-54600000D01*
X147450000Y-62575000D02*
X149180000Y-62575000D01*
X149180000Y-62575000D02*
X149990000Y-61765000D01*
X137800000Y-97100000D02*
X137800000Y-96100000D01*
X137550000Y-95150000D02*
X137550000Y-95850000D01*
X137550000Y-95850000D02*
X137800000Y-96100000D01*
D47*
X133999990Y-96474990D02*
X134000000Y-96474990D01*
X133775000Y-96250000D02*
X133999990Y-96474990D01*
X133775000Y-95100000D02*
X133775000Y-96250000D01*
D46*
X143775000Y-105175000D02*
X143775000Y-107275000D01*
X143775000Y-107275000D02*
X144050000Y-107550000D01*
X144050000Y-107550000D02*
X144800000Y-107550000D01*
X148125000Y-114325000D02*
X146425000Y-114325000D01*
X146425000Y-114325000D02*
X146375000Y-114275000D01*
X146375000Y-114275000D02*
X146375000Y-115205000D01*
X146375000Y-115205000D02*
X147425000Y-116255000D01*
X156250000Y-112975000D02*
X156250000Y-112350000D01*
X156250000Y-112350000D02*
X156200000Y-112300000D01*
X154350000Y-110125000D02*
X154350000Y-110950000D01*
X154350000Y-110950000D02*
X154400000Y-111000000D01*
D47*
X152341548Y-106245689D02*
X152341548Y-105680004D01*
X152341548Y-106308452D02*
X152341548Y-106245689D01*
X152300000Y-106350000D02*
X152341548Y-106308452D01*
D46*
X159925000Y-110350000D02*
X162980000Y-110350000D01*
X162980000Y-110350000D02*
X163050000Y-110420000D01*
X163100000Y-102700000D02*
X165650000Y-102700000D01*
X165650000Y-102700000D02*
X165925000Y-102975000D01*
X141175000Y-99625000D02*
X141800000Y-99625000D01*
X141800000Y-99625000D02*
X142575000Y-100400000D01*
X142575000Y-100400000D02*
X143800000Y-100400000D01*
X136050000Y-99775000D02*
X133875000Y-99775000D01*
X133875000Y-99775000D02*
X133800000Y-99700000D01*
X134600000Y-103000000D02*
X134575000Y-103000000D01*
X134575000Y-103000000D02*
X133800000Y-102225000D01*
X133800000Y-102225000D02*
X133800000Y-99700000D01*
X128766000Y-114300000D02*
X128766000Y-115266000D01*
X128766000Y-115266000D02*
X128800000Y-115300000D01*
X129125000Y-98425000D02*
X129125000Y-99125000D01*
X129125000Y-99125000D02*
X129950000Y-99950000D01*
X129950000Y-99950000D02*
X129950000Y-100600000D01*
X127375000Y-101350000D02*
X128000000Y-101350000D01*
X128000000Y-101350000D02*
X128450000Y-101800000D01*
X128450000Y-101800000D02*
X130000000Y-101800000D01*
D47*
X161750000Y-91725000D02*
X163900000Y-91725000D01*
X163900000Y-91725000D02*
X164150000Y-91475000D01*
X139608200Y-86741880D02*
X137758120Y-86741880D01*
X137758120Y-86741880D02*
X137600000Y-86900000D01*
X139588200Y-68723880D02*
X139588200Y-67088200D01*
X139588200Y-67088200D02*
X139500000Y-67000000D01*
X141400000Y-55725000D02*
X141400000Y-54600000D01*
X163150000Y-103875000D02*
X163150000Y-102750000D01*
X163150000Y-102750000D02*
X163100000Y-102700000D01*
X143800000Y-99200000D02*
X143800000Y-100400000D01*
X133775000Y-98400000D02*
X133775000Y-99675000D01*
X133775000Y-99675000D02*
X133800000Y-99700000D01*
X129950000Y-100600000D02*
X129950000Y-101750000D01*
X129950000Y-101750000D02*
X130000000Y-101800000D01*
D48*
X158900000Y-126075000D02*
X160635000Y-126075000D01*
X160635000Y-126075000D02*
X161410000Y-125300000D01*
D46*
X154886000Y-63300000D02*
X156180000Y-62006000D01*
X156180000Y-62006000D02*
X156180000Y-58730000D01*
X154125000Y-63300000D02*
X154886000Y-63300000D01*
X154160000Y-58850000D02*
X152576000Y-58850000D01*
X152576000Y-58850000D02*
X152146000Y-58420000D01*
X154160000Y-58850000D02*
X156060000Y-58850000D01*
X156060000Y-58850000D02*
X156180000Y-58730000D01*
X154125000Y-63300000D02*
X154125000Y-63625000D01*
X154125000Y-63625000D02*
X154300000Y-63800000D01*
X142425000Y-56705002D02*
X142425000Y-57550000D01*
X142425000Y-57550000D02*
X142475000Y-57600000D01*
X142350000Y-53525000D02*
X142350000Y-54450000D01*
X142350000Y-54450000D02*
X142425000Y-54525000D01*
X144900000Y-59425000D02*
X144900000Y-61755000D01*
X144900000Y-61755000D02*
X144910000Y-61765000D01*
X142790000Y-59740000D02*
X144585000Y-59740000D01*
X144585000Y-59740000D02*
X144900000Y-59425000D01*
X141060000Y-59770000D02*
X142760000Y-59770000D01*
X142760000Y-59770000D02*
X142790000Y-59740000D01*
X142475000Y-57600000D02*
X142475000Y-59425000D01*
X142475000Y-59425000D02*
X142790000Y-59740000D01*
X142150000Y-51450000D02*
X142150000Y-53325000D01*
X142150000Y-53325000D02*
X142350000Y-53525000D01*
X144050000Y-53640000D02*
X142465000Y-53640000D01*
X142465000Y-53640000D02*
X142350000Y-53525000D01*
X165590000Y-118040000D02*
X166715001Y-116914999D01*
X166715001Y-116914999D02*
X166715001Y-99840001D01*
X166715001Y-99840001D02*
X164150000Y-97275000D01*
X164150000Y-97275000D02*
X164150000Y-96625000D01*
X164150000Y-96600000D02*
X164150000Y-96625000D01*
X166302998Y-94447002D02*
X164150000Y-96600000D01*
X166302998Y-83035998D02*
X166302998Y-94447002D01*
X168175000Y-81163996D02*
X166302998Y-83035998D01*
X168175000Y-59475000D02*
X168175000Y-81163996D01*
X166520000Y-57820000D02*
X168175000Y-59475000D01*
D49*
X167700000Y-124090000D02*
X167700000Y-118947919D01*
X167700000Y-118947919D02*
X166792081Y-118040000D01*
X166792081Y-118040000D02*
X165590000Y-118040000D01*
X166490000Y-125300000D02*
X167700000Y-124090000D01*
D46*
X159000000Y-105500000D02*
X159000000Y-107200000D01*
X159000000Y-107200000D02*
X159300000Y-107500000D01*
X159300000Y-107500000D02*
X159950000Y-107500000D01*
X159000000Y-105500000D02*
X159000000Y-102550000D01*
X159000000Y-102550000D02*
X160100000Y-101450000D01*
X160100000Y-101450000D02*
X160300000Y-101450000D01*
X162200000Y-101675000D02*
X162200000Y-96775000D01*
X162200000Y-96775000D02*
X161750000Y-96325000D01*
X161750000Y-96325000D02*
X163850000Y-96325000D01*
X163850000Y-96325000D02*
X164150000Y-96625000D01*
X159925000Y-108850000D02*
X159925000Y-107525000D01*
X159925000Y-107525000D02*
X159950000Y-107500000D01*
X160300000Y-101450000D02*
X161975000Y-101450000D01*
X161975000Y-101450000D02*
X162200000Y-101675000D01*
X128840000Y-105471776D02*
X128900951Y-105410825D01*
X128840000Y-106120000D02*
X128840000Y-105471776D01*
X145542000Y-65786000D02*
X146050000Y-66294000D01*
X146050000Y-66294000D02*
X151892000Y-66294000D01*
X140858200Y-67473880D02*
X142292080Y-66040000D01*
X142292080Y-66040000D02*
X143510000Y-66040000D01*
X139725000Y-63325000D02*
X139725000Y-62601302D01*
X139725000Y-62601302D02*
X141031557Y-61294745D01*
X140858200Y-67473880D02*
X140858200Y-65558202D01*
X140858200Y-65558202D02*
X139725000Y-64425002D01*
X139725000Y-64425002D02*
X139725000Y-63325000D01*
X130556000Y-120142000D02*
X130556000Y-113030000D01*
X159004000Y-111279702D02*
X159004000Y-115570000D01*
X156950000Y-109225702D02*
X159004000Y-111279702D01*
X156950000Y-105550000D02*
X156950000Y-109225702D01*
X153924000Y-120904000D02*
X145221000Y-120904000D01*
X145221000Y-120904000D02*
X144975000Y-121150000D01*
X155550000Y-66350000D02*
X155550000Y-66780989D01*
X154500000Y-65300000D02*
X155550000Y-66350000D01*
X154300000Y-65300000D02*
X154500000Y-65300000D01*
X148336000Y-92202000D02*
X150159000Y-94025000D01*
X150159000Y-94025000D02*
X157000000Y-94025000D01*
X160900000Y-66775000D02*
X160900000Y-66925000D01*
X160900000Y-66925000D02*
X162075000Y-68100000D01*
X162075000Y-68100000D02*
X162075000Y-79425000D01*
X140858200Y-67473880D02*
X140858200Y-68723880D01*
X135475000Y-64775000D02*
X138475000Y-64775000D01*
X138475000Y-64775000D02*
X140858200Y-67158200D01*
X140858200Y-67158200D02*
X140858200Y-67473880D01*
X157000000Y-94025000D02*
X161420000Y-94025000D01*
X130170000Y-110050000D02*
X130170000Y-109250000D01*
X130170000Y-109250000D02*
X130140000Y-109220000D01*
X163150000Y-94000000D02*
X161445000Y-94000000D01*
X161445000Y-94000000D02*
X161420000Y-94025000D01*
X164150000Y-92975000D02*
X164150000Y-93000000D01*
X164150000Y-93000000D02*
X163150000Y-94000000D01*
X157900000Y-104800000D02*
X157900000Y-97075000D01*
X157900000Y-97075000D02*
X157000000Y-96175000D01*
X157000000Y-96175000D02*
X157000000Y-94025000D01*
X156950000Y-105550000D02*
X157150000Y-105550000D01*
X157150000Y-105550000D02*
X157900000Y-104800000D01*
X165200000Y-92550000D02*
X165200000Y-85100000D01*
X165200000Y-85100000D02*
X162025000Y-81925000D01*
X162025000Y-81925000D02*
X162025000Y-81225000D01*
X164150000Y-92975000D02*
X164775000Y-92975000D01*
X164775000Y-92975000D02*
X165200000Y-92550000D01*
X162025000Y-81225000D02*
X162025000Y-79475000D01*
X162025000Y-79475000D02*
X162075000Y-79425000D01*
X138000000Y-91150000D02*
X142550000Y-91150000D01*
X142550000Y-91150000D02*
X143400000Y-90300000D01*
X127266000Y-114300000D02*
X127266000Y-112846000D01*
X127266000Y-112846000D02*
X127090000Y-112670000D01*
X129032000Y-112764000D02*
X129732000Y-112764000D01*
X129732000Y-112764000D02*
X131826000Y-110670000D01*
X131826000Y-110670000D02*
X131826000Y-107926000D01*
X126810944Y-106692098D02*
X126900619Y-106692098D01*
X125994999Y-105876153D02*
X126810944Y-106692098D01*
X125994999Y-81130001D02*
X125994999Y-105876153D01*
X134125000Y-73000000D02*
X125994999Y-81130001D01*
X126900619Y-106692098D02*
X127324883Y-106692098D01*
X146500993Y-70758011D02*
X146326002Y-70933002D01*
X147017769Y-70758011D02*
X146500993Y-70758011D01*
X150471080Y-70525000D02*
X147250780Y-70525000D01*
X151038200Y-68707880D02*
X151038200Y-69957880D01*
X145319880Y-70732884D02*
X137742116Y-70732884D01*
X145519998Y-70933002D02*
X145319880Y-70732884D01*
X137742116Y-70732884D02*
X135800000Y-72675000D01*
X151038200Y-69957880D02*
X150471080Y-70525000D01*
X147250780Y-70525000D02*
X147017769Y-70758011D01*
X146326002Y-70933002D02*
X145519998Y-70933002D01*
X130744714Y-106578595D02*
X131673405Y-106578595D01*
X131673405Y-106578595D02*
X131826000Y-106426000D01*
X153922000Y-54372000D02*
X154322000Y-54372000D01*
X158242000Y-55906998D02*
X158242000Y-57142000D01*
X158242000Y-57142000D02*
X159275000Y-58175000D01*
X159275000Y-58175000D02*
X159900000Y-58175000D01*
X153922000Y-54372000D02*
X156707002Y-54372000D01*
X156707002Y-54372000D02*
X158242000Y-55906998D01*
X160149988Y-59074988D02*
X159900000Y-58825000D01*
X159900000Y-58825000D02*
X159900000Y-58175000D01*
X160149988Y-61674988D02*
X160149988Y-59074988D01*
X160850000Y-62375000D02*
X160149988Y-61674988D01*
X160850000Y-62600000D02*
X160850000Y-62375000D01*
X160850000Y-62600000D02*
X160850000Y-64525000D01*
X160850000Y-64525000D02*
X160900000Y-64575000D01*
X159900000Y-58150000D02*
X159900000Y-58175000D01*
X159900000Y-58175000D02*
X162250000Y-58175000D01*
X162250000Y-58175000D02*
X162950000Y-57475000D01*
X138925000Y-57225000D02*
X138925000Y-57300000D01*
X138925000Y-57300000D02*
X139600000Y-57975000D01*
X152425000Y-112275000D02*
X148675000Y-112275000D01*
X148675000Y-112275000D02*
X148125000Y-112825000D01*
X153300000Y-105200000D02*
X153300000Y-104200000D01*
X153300000Y-104200000D02*
X153250000Y-104150000D01*
X152350000Y-110075000D02*
X152350000Y-109350000D01*
X152350000Y-109350000D02*
X152400000Y-109300000D01*
X152425000Y-112275000D02*
X152425000Y-110150000D01*
X152425000Y-110150000D02*
X152350000Y-110075000D01*
X146375000Y-112775000D02*
X146375000Y-112225000D01*
X146375000Y-112225000D02*
X147425000Y-111175000D01*
X148125000Y-112825000D02*
X146425000Y-112825000D01*
X146425000Y-112825000D02*
X146375000Y-112775000D01*
X152350000Y-110075000D02*
X152150000Y-110075000D01*
X155150000Y-104050000D02*
X153350000Y-104050000D01*
X153350000Y-104050000D02*
X153250000Y-104150000D01*
X156950000Y-104050000D02*
X155150000Y-104050000D01*
X127375000Y-102825000D02*
X127375000Y-102850000D01*
X126674999Y-102124999D02*
X127375000Y-102825000D01*
X129125000Y-93375000D02*
X126674999Y-95825001D01*
X129125000Y-92675000D02*
X129125000Y-93375000D01*
X126674999Y-95825001D02*
X126674999Y-102124999D01*
X133079998Y-93700000D02*
X133715000Y-93700000D01*
X133715000Y-93700000D02*
X134425000Y-92990000D01*
X134425000Y-92990000D02*
X134425000Y-92440000D01*
X132000000Y-98935000D02*
X132000000Y-94779998D01*
X132000000Y-94779998D02*
X133079998Y-93700000D01*
X133125000Y-101060000D02*
X133125000Y-100060000D01*
X133125000Y-100060000D02*
X132000000Y-98935000D01*
X140200000Y-101100000D02*
X141150000Y-101100000D01*
X141150000Y-101100000D02*
X141175000Y-101125000D01*
X133100000Y-103000000D02*
X133100000Y-102200000D01*
X133125000Y-101060000D02*
X133125000Y-102175000D01*
X133125000Y-102175000D02*
X133100000Y-102200000D01*
X141175000Y-101125000D02*
X142575000Y-101125000D01*
X142575000Y-101125000D02*
X142850000Y-101400000D01*
X132600000Y-90900000D02*
X130200000Y-90900000D01*
X130200000Y-90900000D02*
X129125000Y-91975000D01*
X129125000Y-91975000D02*
X129125000Y-92675000D01*
X134425000Y-92440000D02*
X134425000Y-91225000D01*
X134425000Y-91225000D02*
X134300000Y-91100000D01*
X136050000Y-92775000D02*
X137875000Y-92775000D01*
X137875000Y-92775000D02*
X138000000Y-92650000D01*
X136050000Y-92775000D02*
X134760000Y-92775000D01*
X134760000Y-92775000D02*
X134425000Y-92440000D01*
X134425000Y-91890000D02*
X134425000Y-92440000D01*
X129000000Y-102800000D02*
X127425000Y-102800000D01*
X127425000Y-102800000D02*
X127375000Y-102850000D01*
X139025000Y-61000000D02*
X137325000Y-59300000D01*
X139025000Y-61300000D02*
X139025000Y-61000000D01*
X137325000Y-59300000D02*
X137325000Y-59100000D01*
X148450000Y-107625000D02*
X146875000Y-107625000D01*
X146875000Y-107625000D02*
X146800000Y-107550000D01*
X142350000Y-55725000D02*
X143665000Y-55725000D01*
X143665000Y-55725000D02*
X145550000Y-53840000D01*
X145550000Y-53840000D02*
X145550000Y-53640000D01*
X147290000Y-55190000D02*
X147100000Y-55190000D01*
X147100000Y-55190000D02*
X145550000Y-53640000D01*
X147290000Y-55190000D02*
X147290000Y-57110000D01*
X148790000Y-57110000D02*
X148790000Y-57885000D01*
X148790000Y-57885000D02*
X147450000Y-59225000D01*
X147450000Y-61075000D02*
X147450000Y-59225000D01*
X154350000Y-108625000D02*
X156125000Y-108625000D01*
X156125000Y-108625000D02*
X156225000Y-108525000D01*
X154350000Y-108625000D02*
X152400000Y-108625000D01*
X152400000Y-108625000D02*
X152350000Y-108575000D01*
X152350000Y-108575000D02*
X153050000Y-108575000D01*
X153050000Y-108575000D02*
X153250000Y-108375000D01*
X153250000Y-108375000D02*
X153250000Y-106350000D01*
X156250000Y-111475000D02*
X156050000Y-111475000D01*
X156050000Y-111475000D02*
X153810000Y-113715000D01*
X153810000Y-113715000D02*
X149965000Y-113715000D01*
X156225000Y-110025000D02*
X156225000Y-111450000D01*
X156225000Y-111450000D02*
X156250000Y-111475000D01*
X141120000Y-62950000D02*
X141120000Y-62528587D01*
X141804995Y-61843592D02*
X141804995Y-60429107D01*
X141120000Y-62528587D02*
X141804995Y-61843592D01*
X138900000Y-53775000D02*
X138975000Y-53775000D01*
X138975000Y-53775000D02*
X139825000Y-54625000D01*
X138900000Y-53775000D02*
X140200000Y-53775000D01*
X140200000Y-53775000D02*
X140450000Y-53525000D01*
X137350000Y-53925000D02*
X138750000Y-53925000D01*
X138750000Y-53925000D02*
X138900000Y-53775000D01*
X136425000Y-52250000D02*
X136425000Y-53000000D01*
X136425000Y-53000000D02*
X137350000Y-53925000D01*
X138825000Y-59100000D02*
X139325000Y-59100000D01*
X140249999Y-58175001D02*
X140249999Y-56705001D01*
X139325000Y-59100000D02*
X140249999Y-58175001D01*
X140249999Y-56705001D02*
X140450000Y-56505000D01*
X140450000Y-56505000D02*
X140450000Y-55725000D01*
X140450000Y-55725000D02*
X139350000Y-55725000D01*
X139350000Y-55725000D02*
X138900000Y-55275000D01*
X138900000Y-55275000D02*
X137500000Y-55275000D01*
X137500000Y-55275000D02*
X137350000Y-55425000D01*
X151700000Y-99300000D02*
X151700000Y-103800000D01*
X151700000Y-103800000D02*
X151350000Y-104150000D01*
X147450000Y-103650000D02*
X147450000Y-103675000D01*
X147450000Y-103675000D02*
X145875000Y-105250000D01*
X145875000Y-105250000D02*
X145575000Y-105250000D01*
X149500000Y-103500000D02*
X147600000Y-103500000D01*
X147600000Y-103500000D02*
X147450000Y-103650000D01*
X151350000Y-104150000D02*
X150150000Y-104150000D01*
X150150000Y-104150000D02*
X149500000Y-103500000D01*
X149500000Y-105000000D02*
X150000000Y-105000000D01*
X150000000Y-105000000D02*
X151350000Y-106350000D01*
X149950000Y-107625000D02*
X150075000Y-107625000D01*
X150075000Y-107625000D02*
X151350000Y-106350000D01*
X147450000Y-105150000D02*
X149350000Y-105150000D01*
X149350000Y-105150000D02*
X149500000Y-105000000D01*
X134925000Y-52250000D02*
X134925000Y-53250000D01*
X134925000Y-53250000D02*
X135625000Y-53950000D01*
X149900000Y-99200000D02*
X150300000Y-99200000D01*
X150300000Y-99200000D02*
X151700000Y-97800000D01*
X142630000Y-64470000D02*
X142970320Y-64470000D01*
X142970320Y-64470000D02*
X145958200Y-67457880D01*
X145958200Y-67457880D02*
X145958200Y-68707880D01*
X142620000Y-62950000D02*
X142620000Y-64460000D01*
X142620000Y-64460000D02*
X142630000Y-64470000D01*
X145796000Y-72136000D02*
X145796000Y-71628000D01*
X136398000Y-81534000D02*
X145796000Y-72136000D01*
X136398000Y-86951736D02*
X136398000Y-81534000D01*
X137668000Y-88646000D02*
X137668000Y-88221736D01*
X137668000Y-88221736D02*
X136398000Y-86951736D01*
X141673987Y-103675000D02*
X139374988Y-101376001D01*
X143775000Y-103675000D02*
X141673987Y-103675000D01*
X139374988Y-101376001D02*
X139374988Y-100655012D01*
X139374988Y-100655012D02*
X139954000Y-100076000D01*
X147236200Y-68723880D02*
X147236200Y-69973880D01*
X147236200Y-69973880D02*
X146852080Y-70358000D01*
X146852080Y-70358000D02*
X145796000Y-70358000D01*
X143775000Y-103675000D02*
X145500000Y-103675000D01*
X145500000Y-103675000D02*
X145575000Y-103750000D01*
X144750000Y-101400000D02*
X144750000Y-100850000D01*
X144750000Y-100850000D02*
X146400000Y-99200000D01*
X146400000Y-99200000D02*
X146600000Y-99200000D01*
X146600000Y-99200000D02*
X148250000Y-99200000D01*
X148250000Y-99200000D02*
X148300000Y-99150000D01*
X144700000Y-102600000D02*
X144750000Y-102550000D01*
X144750000Y-102550000D02*
X144750000Y-101400000D01*
X144100000Y-102600000D02*
X144700000Y-102600000D01*
X137800000Y-101500000D02*
X138600000Y-102300000D01*
X136650000Y-88400000D02*
X134949999Y-86699999D01*
X134949999Y-86699999D02*
X134949999Y-63450001D01*
X134949999Y-63450001D02*
X135625000Y-62775000D01*
X135625000Y-62775000D02*
X135625000Y-55450000D01*
X137649999Y-92124999D02*
X136925000Y-91400000D01*
X136925000Y-91400000D02*
X136925000Y-89850000D01*
X142600000Y-95775000D02*
X138949999Y-92124999D01*
X138949999Y-92124999D02*
X137649999Y-92124999D01*
X142600000Y-97725000D02*
X142600000Y-95775000D01*
X144750000Y-98420000D02*
X144750000Y-99200000D01*
X142600000Y-97725000D02*
X142899999Y-98024999D01*
X142899999Y-98024999D02*
X144354999Y-98024999D01*
X144354999Y-98024999D02*
X144750000Y-98420000D01*
X148300000Y-97650000D02*
X149850000Y-97650000D01*
X149850000Y-97650000D02*
X149900000Y-97700000D01*
X146600000Y-97700000D02*
X148250000Y-97700000D01*
X148250000Y-97700000D02*
X148300000Y-97650000D01*
X144750000Y-99200000D02*
X144750000Y-98995000D01*
X144750000Y-98995000D02*
X146045000Y-97700000D01*
X146045000Y-97700000D02*
X146600000Y-97700000D01*
X135000000Y-97200000D02*
X133325000Y-97200000D01*
X133125000Y-97400000D02*
X133125000Y-98400000D01*
X133325000Y-97200000D02*
X133125000Y-97400000D01*
X135200000Y-97400000D02*
X135000000Y-97200000D01*
X136625000Y-97400000D02*
X135200000Y-97400000D01*
X137800000Y-98600000D02*
X137800000Y-98575000D01*
X137800000Y-98575000D02*
X136625000Y-97400000D01*
X137800000Y-100000000D02*
X137800000Y-98600000D01*
X133125000Y-97400000D02*
X133125000Y-95100000D01*
X134425000Y-98400000D02*
X135128000Y-98400000D01*
X135128000Y-98400000D02*
X135925000Y-98400000D01*
X130625000Y-98425000D02*
X131191000Y-98425000D01*
X131191000Y-98425000D02*
X131318000Y-98552000D01*
X135925000Y-98400000D02*
X136050000Y-98275000D01*
X130625000Y-98425000D02*
X130625000Y-96525000D01*
X130575000Y-94675000D02*
X130575000Y-94775000D01*
X130575000Y-94775000D02*
X131300000Y-95500000D01*
X134425000Y-95100000D02*
X136000000Y-95100000D01*
X136000000Y-95100000D02*
X136050000Y-95150000D01*
X130625000Y-92675000D02*
X130625000Y-94625000D01*
X130625000Y-94625000D02*
X130575000Y-94675000D01*
X131150000Y-60725000D02*
X131200000Y-60725000D01*
X131200000Y-60725000D02*
X132390000Y-59535000D01*
X132390000Y-59535000D02*
X134025000Y-59535000D01*
X133975000Y-64775000D02*
X133975000Y-62125000D01*
X133975000Y-62125000D02*
X134025000Y-62075000D01*
X160300000Y-102950000D02*
X160300000Y-103450000D01*
X160300000Y-103450000D02*
X160000000Y-103750000D01*
X160000000Y-103750000D02*
X160000000Y-105945002D01*
X160000000Y-105945002D02*
X160854998Y-106800000D01*
X160854998Y-106800000D02*
X163075000Y-106800000D01*
X164675000Y-106800000D02*
X164675000Y-104450000D01*
X164675000Y-104450000D02*
X164100000Y-103875000D01*
X130140000Y-106120000D02*
X130140000Y-105030000D01*
X130140000Y-105030000D02*
X130540000Y-104630000D01*
X128190000Y-106120000D02*
X128190000Y-105419002D01*
X129278996Y-104030000D02*
X130805736Y-104030000D01*
X128345001Y-104963995D02*
X129278996Y-104030000D01*
X128190000Y-105419002D02*
X128345001Y-105264001D01*
X130805736Y-104030000D02*
X131230000Y-104030000D01*
X128345001Y-105264001D02*
X128345001Y-104963995D01*
X157622200Y-82185880D02*
X160555882Y-82185880D01*
X160920002Y-82550000D02*
X161798000Y-82550000D01*
X160555882Y-82185880D02*
X160920002Y-82550000D01*
X168148000Y-116586000D02*
X168148000Y-84582000D01*
X168148000Y-84582000D02*
X166878000Y-83312000D01*
X162150000Y-123500000D02*
X160675000Y-123500000D01*
X160675000Y-123500000D02*
X159600000Y-124575000D01*
X159600000Y-124575000D02*
X158900000Y-124575000D01*
X163950000Y-125300000D02*
X162150000Y-123500000D01*
X128240000Y-104399002D02*
X127203004Y-105435998D01*
X127203004Y-105435998D02*
X127005846Y-105435998D01*
X128240000Y-103790000D02*
X128240000Y-104399002D01*
X127005846Y-105435998D02*
X126705847Y-105735997D01*
X126320000Y-107110000D02*
X126320000Y-117680000D01*
X126320000Y-117680000D02*
X131620000Y-122980000D01*
X133780000Y-83490000D02*
X128170000Y-89100000D01*
X128170000Y-89100000D02*
X128170000Y-91350000D01*
X138870001Y-77399999D02*
X136180000Y-80090000D01*
X136180000Y-80090000D02*
X136020000Y-80090000D01*
X139170000Y-73060000D02*
X138870001Y-73359999D01*
X138870001Y-73359999D02*
X138870001Y-77399999D01*
X136750000Y-125950000D02*
X137275000Y-125950000D01*
X137275000Y-125950000D02*
X138525001Y-124699999D01*
X138525001Y-124699999D02*
X138825000Y-124400000D01*
X136750000Y-125950000D02*
X136950000Y-125950000D01*
X136750000Y-125950000D02*
X136550000Y-125950000D01*
X136550000Y-125950000D02*
X135000000Y-124400000D01*
X135000000Y-124400000D02*
X134725000Y-124400000D01*
X129300000Y-63625000D02*
X129300000Y-61825000D01*
X129300000Y-61825000D02*
X129150000Y-61675000D01*
X163750001Y-105750001D02*
X163500000Y-105500000D01*
X163500000Y-105500000D02*
X160900000Y-105500000D01*
X165590000Y-110420000D02*
X165590000Y-109217919D01*
X165590000Y-109217919D02*
X163750001Y-107377920D01*
X163750001Y-107377920D02*
X163750001Y-105750001D01*
X160900000Y-105500000D02*
X160900000Y-105175000D01*
X160900000Y-105175000D02*
X162200000Y-103875000D01*
X152570000Y-64700000D02*
X152570000Y-68470080D01*
X152570000Y-68470080D02*
X152316200Y-68723880D01*
X152570000Y-63200000D02*
X152570000Y-62755000D01*
X152570000Y-62755000D02*
X153150000Y-62175000D01*
X156050000Y-63825000D02*
X156050000Y-63325000D01*
X156050000Y-63325000D02*
X155975000Y-63250000D01*
X153228309Y-70906987D02*
X152910296Y-71225000D01*
X155914095Y-70906987D02*
X153228309Y-70906987D01*
X156975000Y-69846082D02*
X155914095Y-70906987D01*
X147693600Y-71225000D02*
X140886200Y-78032400D01*
X156975000Y-66750000D02*
X156975000Y-69846082D01*
X156050000Y-65825000D02*
X156975000Y-66750000D01*
X140886200Y-85507880D02*
X140886200Y-86757880D01*
X156050000Y-65325000D02*
X156050000Y-65825000D01*
X140886200Y-78032400D02*
X140886200Y-85507880D01*
X152910296Y-71225000D02*
X147693600Y-71225000D01*
X167270000Y-65600000D02*
X167270000Y-63650000D01*
X167270000Y-63650000D02*
X166520000Y-62900000D01*
X165725000Y-66650000D02*
X165725000Y-65645000D01*
X165725000Y-65645000D02*
X165770000Y-65600000D01*
X154856200Y-86757880D02*
X154856200Y-83968800D01*
X154856200Y-83968800D02*
X155400000Y-83425000D01*
X144316594Y-77190858D02*
X144316594Y-76766594D01*
X153578200Y-86741880D02*
X153578200Y-85491880D01*
X153578200Y-85491880D02*
X152786320Y-84700000D01*
X144316594Y-77666594D02*
X144316594Y-77190858D01*
X151350000Y-84700000D02*
X144316594Y-77666594D01*
X152786320Y-84700000D02*
X151350000Y-84700000D01*
X139333351Y-71925000D02*
X142009582Y-74601231D01*
X137525000Y-71925000D02*
X139333351Y-71925000D01*
X130800000Y-63625000D02*
X130800000Y-67925000D01*
X130800000Y-67925000D02*
X134150000Y-71275000D01*
X150622000Y-55372000D02*
X150622000Y-59944000D01*
X150622000Y-59944000D02*
X150368000Y-60198000D01*
X156000000Y-79025000D02*
X156620880Y-79645880D01*
X156620880Y-79645880D02*
X157622200Y-79645880D01*
X160575000Y-79425000D02*
X157843080Y-79425000D01*
X157843080Y-79425000D02*
X157622200Y-79645880D01*
X157600000Y-60820002D02*
X157600000Y-58354998D01*
X157600000Y-58354998D02*
X155800003Y-56555001D01*
X155800003Y-56555001D02*
X154630001Y-56555001D01*
X154630001Y-56555001D02*
X153922000Y-55847000D01*
X153922000Y-55847000D02*
X153922000Y-55372000D01*
X161250000Y-68670002D02*
X161250000Y-80300000D01*
X161250000Y-80300000D02*
X160525000Y-81025000D01*
X160525000Y-81025000D02*
X160525000Y-81225000D01*
X157600000Y-60820002D02*
X159799990Y-63019992D01*
X159799990Y-67219992D02*
X161250000Y-68670002D01*
X159799990Y-63019992D02*
X159799990Y-67219992D01*
X156250000Y-80700000D02*
X157406320Y-80700000D01*
X157406320Y-80700000D02*
X157622200Y-80915880D01*
X160400000Y-80900000D02*
X160384120Y-80915880D01*
X160384120Y-80915880D02*
X157622200Y-80915880D01*
X160525000Y-81025000D02*
X160400000Y-80900000D01*
X155550000Y-64500000D02*
X155351743Y-64301743D01*
X155351743Y-64301743D02*
X155211298Y-64301743D01*
X157550000Y-64500000D02*
X155550000Y-64500000D01*
X157825000Y-63725000D02*
X157825000Y-64225000D01*
X157825000Y-64225000D02*
X157550000Y-64500000D01*
X152110000Y-59810000D02*
X152310000Y-59810000D01*
X152310000Y-59810000D02*
X154650000Y-62150000D01*
X154650000Y-62150000D02*
X155075000Y-62150000D01*
X164100000Y-101675000D02*
X165725000Y-101675000D01*
X165725000Y-101675000D02*
X165925000Y-101475000D01*
X127090000Y-111170000D02*
X127090000Y-109895000D01*
X127090000Y-109895000D02*
X127765000Y-109220000D01*
X127765000Y-109220000D02*
X128190000Y-109220000D01*
X128190000Y-109370000D02*
X128190000Y-109220000D01*
X129032000Y-111264000D02*
X129032000Y-109412000D01*
X129032000Y-109412000D02*
X128840000Y-109220000D01*
X138225000Y-63325000D02*
X138225000Y-63125000D01*
X138225000Y-63125000D02*
X138806433Y-62543567D01*
X138806433Y-62543567D02*
X138806433Y-62530379D01*
X128300000Y-96850000D02*
X128300000Y-99120000D01*
X128300000Y-99120000D02*
X129000000Y-99820000D01*
X129000000Y-99820000D02*
X129000000Y-100600000D01*
X129125000Y-96525000D02*
X128625000Y-96525000D01*
X128625000Y-96525000D02*
X128300000Y-96850000D01*
X129125000Y-96525000D02*
X129125000Y-94725000D01*
X129125000Y-94725000D02*
X129075000Y-94675000D01*
X153393998Y-71306998D02*
X156118002Y-71306998D01*
X147919289Y-71625011D02*
X153075985Y-71625011D01*
X142156200Y-77388100D02*
X147919289Y-71625011D01*
X142156200Y-86757880D02*
X142156200Y-77388100D01*
X153075985Y-71625011D02*
X153393998Y-71306998D01*
X156118002Y-71306998D02*
X157825000Y-69600000D01*
X157825000Y-69600000D02*
X157825000Y-65725000D01*
X157825000Y-65725000D02*
X157825000Y-65225000D01*
X156692406Y-89636406D02*
X163093594Y-89636406D01*
X163093594Y-89636406D02*
X163322000Y-89408000D01*
X156509581Y-89819231D02*
X156692406Y-89636406D01*
X144569422Y-89819231D02*
X156509581Y-89819231D01*
X144272000Y-88392000D02*
X144272000Y-87182080D01*
X144272000Y-87182080D02*
X144696200Y-86757880D01*
X146380000Y-100460000D02*
X148040000Y-102120000D01*
X148040000Y-102120000D02*
X150780000Y-102120000D01*
X143418200Y-86741880D02*
X143418200Y-87991880D01*
X143418200Y-87991880D02*
X142800080Y-88610000D01*
X142800080Y-88610000D02*
X142020000Y-88610000D01*
X144150000Y-92324000D02*
X145928000Y-92324000D01*
X145928000Y-92324000D02*
X147066000Y-91186000D01*
X142240000Y-94234000D02*
X144150000Y-92324000D01*
X138938000Y-97536000D02*
X141224000Y-95250000D01*
X147320000Y-89154000D02*
X148498200Y-87975800D01*
X148498200Y-87975800D02*
X148498200Y-86741880D01*
X134425000Y-101060000D02*
X136290000Y-101060000D01*
X136290000Y-101060000D02*
X136875000Y-100475000D01*
X149900000Y-88140000D02*
X149900000Y-86881680D01*
X149900000Y-86881680D02*
X149776200Y-86757880D01*
X145958200Y-87991880D02*
X145958200Y-86741880D01*
X144729078Y-89221002D02*
X145958200Y-87991880D01*
X141709998Y-89221002D02*
X144729078Y-89221002D01*
X141688996Y-89200000D02*
X141709998Y-89221002D01*
X137965002Y-89200000D02*
X141688996Y-89200000D01*
X137944001Y-89221001D02*
X137965002Y-89200000D01*
X133125000Y-91440000D02*
X135343999Y-89221001D01*
X133125000Y-92440000D02*
X133125000Y-91440000D01*
X135343999Y-89221001D02*
X137944001Y-89221001D01*
X151792000Y-89000000D02*
X151638000Y-89154000D01*
X151638000Y-89154000D02*
X149606000Y-89154000D01*
X151800000Y-89000000D02*
X151792000Y-89000000D01*
X151800000Y-89000000D02*
X152316200Y-88483800D01*
X152316200Y-88483800D02*
X152316200Y-86757880D01*
X152630000Y-74870000D02*
X155065977Y-72434023D01*
X155065977Y-72434023D02*
X156122198Y-72434023D01*
X152654000Y-70500000D02*
X152953999Y-70200001D01*
X152953999Y-70200001D02*
X153336079Y-70200001D01*
X153336079Y-70200001D02*
X153578200Y-69957880D01*
X151002002Y-74549998D02*
X153416000Y-72136000D01*
X147000000Y-74549998D02*
X151002002Y-74549998D01*
X153578200Y-68707880D02*
X153578200Y-69957880D01*
X150025000Y-69850000D02*
X150025000Y-68972680D01*
X150150000Y-69097680D02*
X149776200Y-68723880D01*
X143590000Y-76520000D02*
X147690000Y-72420000D01*
X147690000Y-72420000D02*
X148480000Y-72420000D01*
X143590000Y-79110000D02*
X143590000Y-76520000D01*
X142790000Y-79910000D02*
X143590000Y-79110000D01*
X141375000Y-98300000D02*
X142275000Y-99200000D01*
X138974977Y-99825023D02*
X140500000Y-98300000D01*
X138974977Y-101541690D02*
X138974977Y-99825023D01*
X139400000Y-101966713D02*
X138974977Y-101541690D01*
X137451004Y-104300000D02*
X139400000Y-102351004D01*
X132900000Y-104300000D02*
X137451004Y-104300000D01*
X130900000Y-102300000D02*
X132900000Y-104300000D01*
X142275000Y-99200000D02*
X142850000Y-99200000D01*
X130900000Y-100600000D02*
X130900000Y-102300000D01*
X139400000Y-102351004D02*
X139400000Y-101966713D01*
X140500000Y-98300000D02*
X141375000Y-98300000D01*
X130900000Y-102800000D02*
X130900000Y-100600000D01*
X129655000Y-125965000D02*
X129455000Y-125965000D01*
X129455000Y-125965000D02*
X127980000Y-124490000D01*
X127980000Y-124490000D02*
X127979264Y-124490000D01*
X127979264Y-124490000D02*
X127555000Y-124490000D01*
X159258000Y-96774000D02*
X158324999Y-97707001D01*
X158324999Y-97707001D02*
X158324999Y-110035001D01*
X158324999Y-110035001D02*
X161249998Y-112960000D01*
X161249998Y-112960000D02*
X163050000Y-112960000D01*
X158877880Y-86741880D02*
X159766000Y-87630000D01*
X156118200Y-86741880D02*
X158877880Y-86741880D01*
X163050000Y-112960000D02*
X153040000Y-122970000D01*
X153040000Y-122970000D02*
X133175000Y-122970000D01*
X133175000Y-122970000D02*
X131655000Y-124490000D01*
X129655000Y-125965000D02*
X129855000Y-125965000D01*
X129855000Y-125965000D02*
X131330000Y-124490000D01*
X131330000Y-124490000D02*
X131655000Y-124490000D01*
X144025000Y-125725000D02*
X143825000Y-125725000D01*
X143825000Y-125725000D02*
X142425000Y-124325000D01*
X142425000Y-124325000D02*
X142374264Y-124325000D01*
X142374264Y-124325000D02*
X141950000Y-124325000D01*
X162814000Y-67310000D02*
X165608000Y-70104000D01*
X165608000Y-70104000D02*
X165608000Y-93980000D01*
X154856200Y-68723880D02*
X154856200Y-67226200D01*
X154856200Y-67226200D02*
X154686000Y-67056000D01*
X163050000Y-115500000D02*
X154225000Y-124325000D01*
X154225000Y-124325000D02*
X146050000Y-124325000D01*
X144225000Y-125725000D02*
X145625000Y-124325000D01*
X145625000Y-124325000D02*
X146050000Y-124325000D01*
X160400000Y-83575000D02*
X157741320Y-83575000D01*
X157741320Y-83575000D02*
X157622200Y-83455880D01*
X129655000Y-124465000D02*
X129655000Y-122665000D01*
X129655000Y-122665000D02*
X129010000Y-122020000D01*
M02*
