G04 #@! TF.FileFunction,Soldermask,Bot*
%FSLAX46Y46*%
G04 Gerber Fmt 4.6, Leading zero omitted, Abs format (unit mm)*
G04 Created by KiCad (PCBNEW 4.0.7-e2-6376~58~ubuntu17.04.1) date Fri Nov 24 10:03:54 2017*
%MOMM*%
%LPD*%
G01*
G04 APERTURE LIST*
%ADD10C,0.100000*%
%ADD11R,1.200000X1.300000*%
%ADD12R,1.400000X2.400000*%
%ADD13R,2.400000X1.400000*%
%ADD14R,4.400000X4.400000*%
%ADD15C,1.900000*%
%ADD16R,0.900000X1.300000*%
%ADD17R,1.600000X1.150000*%
%ADD18R,1.300000X1.600000*%
%ADD19R,2.100000X2.100000*%
%ADD20O,2.100000X2.100000*%
%ADD21R,1.150000X0.700000*%
%ADD22R,0.700000X1.150000*%
%ADD23R,1.150000X1.600000*%
%ADD24R,2.200000X2.200000*%
%ADD25C,2.200000*%
%ADD26R,1.600000X1.300000*%
%ADD27R,1.400000X1.400000*%
%ADD28R,1.300000X1.200000*%
%ADD29C,2.024000*%
%ADD30R,1.050000X1.460000*%
%ADD31R,1.460000X1.050000*%
%ADD32C,1.924000*%
G04 APERTURE END LIST*
D10*
D11*
X162200000Y-60925000D03*
X160300000Y-60925000D03*
X161250000Y-58925000D03*
D12*
X142128200Y-68723880D03*
X142156200Y-86757880D03*
D13*
X157622200Y-82185880D03*
X157622200Y-83455880D03*
X157622200Y-77105880D03*
X157622200Y-78375880D03*
X157622200Y-80915880D03*
X157622200Y-79645880D03*
X157622200Y-74565880D03*
X157622200Y-75835880D03*
X157622200Y-73295880D03*
X157622200Y-72025880D03*
D12*
X139608200Y-86741880D03*
X140886200Y-86757880D03*
X144696200Y-86757880D03*
X143418200Y-86741880D03*
X148498200Y-86741880D03*
X149776200Y-86757880D03*
X147236200Y-86757880D03*
X145958200Y-86741880D03*
X156118200Y-86741880D03*
X153578200Y-86741880D03*
X154856200Y-86757880D03*
X152316200Y-86757880D03*
X151038200Y-86741880D03*
X151038200Y-68707880D03*
X152316200Y-68723880D03*
X154856200Y-68723880D03*
X153578200Y-68707880D03*
X156118200Y-68707880D03*
X145958200Y-68707880D03*
X147236200Y-68723880D03*
X149776200Y-68723880D03*
X148498200Y-68707880D03*
X143418200Y-68707880D03*
X144696200Y-68723880D03*
X140858200Y-68723880D03*
X139588200Y-68723880D03*
D14*
X148275000Y-77050000D03*
D15*
X147275000Y-109300000D03*
X147275000Y-116900000D03*
D16*
X134450000Y-117225000D03*
X135950000Y-117225000D03*
X159900000Y-113600000D03*
X158400000Y-113600000D03*
X134385000Y-110880000D03*
X135885000Y-110880000D03*
D17*
X145350000Y-64925000D03*
X147250000Y-64925000D03*
D18*
X153750000Y-59350000D03*
X153750000Y-61550000D03*
D19*
X156305000Y-124490000D03*
D20*
X156305000Y-121950000D03*
X153765000Y-124490000D03*
X153765000Y-121950000D03*
X151225000Y-124490000D03*
X151225000Y-121950000D03*
X148685000Y-124490000D03*
X148685000Y-121950000D03*
X146145000Y-124490000D03*
X146145000Y-121950000D03*
X143605000Y-124490000D03*
X143605000Y-121950000D03*
X141065000Y-124490000D03*
X141065000Y-121950000D03*
X138525000Y-124490000D03*
X138525000Y-121950000D03*
D21*
X142405000Y-111715000D03*
X142405000Y-112215000D03*
X142405000Y-113215000D03*
X142405000Y-112715000D03*
D22*
X144625000Y-110955000D03*
X144125000Y-110955000D03*
X143625000Y-110955000D03*
X143125000Y-110955000D03*
X143125000Y-113935000D03*
X143625000Y-113935000D03*
X144125000Y-113935000D03*
X144625000Y-113935000D03*
D21*
X145325000Y-111675000D03*
X145325000Y-112175000D03*
X145325000Y-112675000D03*
X145325000Y-113175000D03*
D17*
X146500000Y-58225000D03*
X148400000Y-58225000D03*
X146450000Y-56575000D03*
X148350000Y-56575000D03*
D23*
X158500000Y-100625000D03*
X158500000Y-98725000D03*
D17*
X158750000Y-106575000D03*
X156850000Y-106575000D03*
X152475000Y-106600000D03*
X154375000Y-106600000D03*
X134575000Y-57575000D03*
X136475000Y-57575000D03*
D23*
X138225000Y-62950000D03*
X138225000Y-61050000D03*
D17*
X135900000Y-65100000D03*
X137800000Y-65100000D03*
X144200000Y-109275000D03*
X142300000Y-109275000D03*
X145375000Y-63275000D03*
X147275000Y-63275000D03*
D24*
X157335000Y-64325000D03*
D25*
X159875000Y-64325000D03*
D26*
X146725000Y-99900000D03*
X148925000Y-99900000D03*
D27*
X156800000Y-100625000D03*
X154300000Y-100625000D03*
D28*
X154475000Y-102800000D03*
X154475000Y-104700000D03*
X152475000Y-103750000D03*
D26*
X153000000Y-65775000D03*
X150800000Y-65775000D03*
X138500000Y-89375000D03*
X140700000Y-89375000D03*
X156075000Y-58900000D03*
X158275000Y-58900000D03*
X156100000Y-60800000D03*
X158300000Y-60800000D03*
D18*
X148500000Y-89425000D03*
X148500000Y-91625000D03*
X145900000Y-89375000D03*
X145900000Y-91575000D03*
D26*
X143125000Y-63650000D03*
X140925000Y-63650000D03*
X146775000Y-98075000D03*
X148975000Y-98075000D03*
X143150000Y-65400000D03*
X140950000Y-65400000D03*
D18*
X140550000Y-113675000D03*
X140550000Y-111475000D03*
X151925000Y-61475000D03*
X151925000Y-59275000D03*
X145025000Y-101750000D03*
X145025000Y-103950000D03*
X152400000Y-100475000D03*
X152400000Y-98275000D03*
X159325000Y-85425000D03*
X159325000Y-87625000D03*
D29*
X140625000Y-61475000D03*
D30*
X147050000Y-101800000D03*
X148000000Y-101800000D03*
X148950000Y-101800000D03*
X148950000Y-104000000D03*
X147050000Y-104000000D03*
D31*
X156575000Y-104700000D03*
X156575000Y-103750000D03*
X156575000Y-102800000D03*
X158775000Y-102800000D03*
X158775000Y-104700000D03*
D32*
X149925000Y-63775000D03*
X146325000Y-60175000D03*
X149915000Y-60185000D03*
D18*
X162300000Y-63425000D03*
X162300000Y-65625000D03*
M02*
