G04 #@! TF.FileFunction,Legend,Bot*
%FSLAX46Y46*%
G04 Gerber Fmt 4.6, Leading zero omitted, Abs format (unit mm)*
G04 Created by KiCad (PCBNEW 4.0.7-e2-6376~58~ubuntu17.04.1) date Thu Oct 26 07:28:53 2017*
%MOMM*%
%LPD*%
G01*
G04 APERTURE LIST*
%ADD10C,0.100000*%
%ADD11C,0.150000*%
%ADD12C,0.120000*%
%ADD13C,0.080000*%
G04 APERTURE END LIST*
D10*
D11*
X160592857Y-113435715D02*
X160621429Y-113521429D01*
X160621429Y-113664286D01*
X160592857Y-113721429D01*
X160564286Y-113750000D01*
X160507143Y-113778572D01*
X160450000Y-113778572D01*
X160392857Y-113750000D01*
X160364286Y-113721429D01*
X160335714Y-113664286D01*
X160307143Y-113550000D01*
X160278571Y-113492858D01*
X160250000Y-113464286D01*
X160192857Y-113435715D01*
X160135714Y-113435715D01*
X160078571Y-113464286D01*
X160050000Y-113492858D01*
X160021429Y-113550000D01*
X160021429Y-113692858D01*
X160050000Y-113778572D01*
X160564286Y-114378572D02*
X160592857Y-114350001D01*
X160621429Y-114264287D01*
X160621429Y-114207144D01*
X160592857Y-114121429D01*
X160535714Y-114064287D01*
X160478571Y-114035715D01*
X160364286Y-114007144D01*
X160278571Y-114007144D01*
X160164286Y-114035715D01*
X160107143Y-114064287D01*
X160050000Y-114121429D01*
X160021429Y-114207144D01*
X160021429Y-114264287D01*
X160050000Y-114350001D01*
X160078571Y-114378572D01*
X160621429Y-114921429D02*
X160621429Y-114635715D01*
X160021429Y-114635715D01*
X160021429Y-111057143D02*
X160621429Y-111200000D01*
X160192857Y-111314286D01*
X160621429Y-111428572D01*
X160021429Y-111571429D01*
X160592857Y-111771429D02*
X160621429Y-111857143D01*
X160621429Y-112000000D01*
X160592857Y-112057143D01*
X160564286Y-112085714D01*
X160507143Y-112114286D01*
X160450000Y-112114286D01*
X160392857Y-112085714D01*
X160364286Y-112057143D01*
X160335714Y-112000000D01*
X160307143Y-111885714D01*
X160278571Y-111828572D01*
X160250000Y-111800000D01*
X160192857Y-111771429D01*
X160135714Y-111771429D01*
X160078571Y-111800000D01*
X160050000Y-111828572D01*
X160021429Y-111885714D01*
X160021429Y-112028572D01*
X160050000Y-112114286D01*
X160307143Y-108400000D02*
X160335714Y-108485714D01*
X160364286Y-108514286D01*
X160421429Y-108542857D01*
X160507143Y-108542857D01*
X160564286Y-108514286D01*
X160592857Y-108485714D01*
X160621429Y-108428572D01*
X160621429Y-108200000D01*
X160021429Y-108200000D01*
X160021429Y-108400000D01*
X160050000Y-108457143D01*
X160078571Y-108485714D01*
X160135714Y-108514286D01*
X160192857Y-108514286D01*
X160250000Y-108485714D01*
X160278571Y-108457143D01*
X160307143Y-108400000D01*
X160307143Y-108200000D01*
X160564286Y-109142857D02*
X160592857Y-109114286D01*
X160621429Y-109028572D01*
X160621429Y-108971429D01*
X160592857Y-108885714D01*
X160535714Y-108828572D01*
X160478571Y-108800000D01*
X160364286Y-108771429D01*
X160278571Y-108771429D01*
X160164286Y-108800000D01*
X160107143Y-108828572D01*
X160050000Y-108885714D01*
X160021429Y-108971429D01*
X160021429Y-109028572D01*
X160050000Y-109114286D01*
X160078571Y-109142857D01*
X160621429Y-109685714D02*
X160621429Y-109400000D01*
X160021429Y-109400000D01*
X160621429Y-109885714D02*
X160021429Y-109885714D01*
X160621429Y-110228571D02*
X160278571Y-109971428D01*
X160021429Y-110228571D02*
X160364286Y-109885714D01*
X160621429Y-105457143D02*
X160335714Y-105257143D01*
X160621429Y-105114286D02*
X160021429Y-105114286D01*
X160021429Y-105342858D01*
X160050000Y-105400000D01*
X160078571Y-105428572D01*
X160135714Y-105457143D01*
X160221429Y-105457143D01*
X160278571Y-105428572D01*
X160307143Y-105400000D01*
X160335714Y-105342858D01*
X160335714Y-105114286D01*
X160307143Y-105714286D02*
X160307143Y-105914286D01*
X160621429Y-106000000D02*
X160621429Y-105714286D01*
X160021429Y-105714286D01*
X160021429Y-106000000D01*
X160621429Y-106542857D02*
X160621429Y-106257143D01*
X160021429Y-106257143D01*
X160450000Y-106714286D02*
X160450000Y-107000000D01*
X160621429Y-106657143D02*
X160021429Y-106857143D01*
X160621429Y-107057143D01*
X160335714Y-107371429D02*
X160621429Y-107371429D01*
X160021429Y-107171429D02*
X160335714Y-107371429D01*
X160021429Y-107571429D01*
X168421429Y-107142857D02*
X167821429Y-107142857D01*
X167878571Y-107400000D02*
X167850000Y-107428571D01*
X167821429Y-107485714D01*
X167821429Y-107628571D01*
X167850000Y-107685714D01*
X167878571Y-107714285D01*
X167935714Y-107742857D01*
X167992857Y-107742857D01*
X168078571Y-107714285D01*
X168421429Y-107371428D01*
X168421429Y-107742857D01*
X168392857Y-107971429D02*
X168421429Y-108057143D01*
X168421429Y-108200000D01*
X168392857Y-108257143D01*
X168364286Y-108285714D01*
X168307143Y-108314286D01*
X168250000Y-108314286D01*
X168192857Y-108285714D01*
X168164286Y-108257143D01*
X168135714Y-108200000D01*
X168107143Y-108085714D01*
X168078571Y-108028572D01*
X168050000Y-108000000D01*
X167992857Y-107971429D01*
X167935714Y-107971429D01*
X167878571Y-108000000D01*
X167850000Y-108028572D01*
X167821429Y-108085714D01*
X167821429Y-108228572D01*
X167850000Y-108314286D01*
X168478571Y-108428572D02*
X168478571Y-108885715D01*
X167821429Y-109142858D02*
X167821429Y-109257144D01*
X167850000Y-109314286D01*
X167907143Y-109371429D01*
X168021429Y-109400001D01*
X168221429Y-109400001D01*
X168335714Y-109371429D01*
X168392857Y-109314286D01*
X168421429Y-109257144D01*
X168421429Y-109142858D01*
X168392857Y-109085715D01*
X168335714Y-109028572D01*
X168221429Y-109000001D01*
X168021429Y-109000001D01*
X167907143Y-109028572D01*
X167850000Y-109085715D01*
X167821429Y-109142858D01*
X167821429Y-109657143D02*
X168307143Y-109657143D01*
X168364286Y-109685715D01*
X168392857Y-109714286D01*
X168421429Y-109771429D01*
X168421429Y-109885715D01*
X168392857Y-109942857D01*
X168364286Y-109971429D01*
X168307143Y-110000000D01*
X167821429Y-110000000D01*
X167821429Y-110200000D02*
X167821429Y-110542857D01*
X168421429Y-110371428D02*
X167821429Y-110371428D01*
X167421429Y-110192857D02*
X166821429Y-110192857D01*
X166878571Y-110450000D02*
X166850000Y-110478571D01*
X166821429Y-110535714D01*
X166821429Y-110678571D01*
X166850000Y-110735714D01*
X166878571Y-110764285D01*
X166935714Y-110792857D01*
X166992857Y-110792857D01*
X167078571Y-110764285D01*
X167421429Y-110421428D01*
X167421429Y-110792857D01*
X167392857Y-111021429D02*
X167421429Y-111107143D01*
X167421429Y-111250000D01*
X167392857Y-111307143D01*
X167364286Y-111335714D01*
X167307143Y-111364286D01*
X167250000Y-111364286D01*
X167192857Y-111335714D01*
X167164286Y-111307143D01*
X167135714Y-111250000D01*
X167107143Y-111135714D01*
X167078571Y-111078572D01*
X167050000Y-111050000D01*
X166992857Y-111021429D01*
X166935714Y-111021429D01*
X166878571Y-111050000D01*
X166850000Y-111078572D01*
X166821429Y-111135714D01*
X166821429Y-111278572D01*
X166850000Y-111364286D01*
X167478571Y-111478572D02*
X167478571Y-111935715D01*
X167421429Y-112078572D02*
X166821429Y-112078572D01*
X167421429Y-112364286D02*
X166821429Y-112364286D01*
X167421429Y-112707143D01*
X166821429Y-112707143D01*
X167442857Y-113321429D02*
X167471429Y-113407143D01*
X167471429Y-113550000D01*
X167442857Y-113607143D01*
X167414286Y-113635714D01*
X167357143Y-113664286D01*
X167300000Y-113664286D01*
X167242857Y-113635714D01*
X167214286Y-113607143D01*
X167185714Y-113550000D01*
X167157143Y-113435714D01*
X167128571Y-113378572D01*
X167100000Y-113350000D01*
X167042857Y-113321429D01*
X166985714Y-113321429D01*
X166928571Y-113350000D01*
X166900000Y-113378572D01*
X166871429Y-113435714D01*
X166871429Y-113578572D01*
X166900000Y-113664286D01*
X167471429Y-113921429D02*
X166871429Y-113921429D01*
X166871429Y-114064286D01*
X166900000Y-114150001D01*
X166957143Y-114207143D01*
X167014286Y-114235715D01*
X167128571Y-114264286D01*
X167214286Y-114264286D01*
X167328571Y-114235715D01*
X167385714Y-114207143D01*
X167442857Y-114150001D01*
X167471429Y-114064286D01*
X167471429Y-113921429D01*
X167300000Y-114492858D02*
X167300000Y-114778572D01*
X167471429Y-114435715D02*
X166871429Y-114635715D01*
X167471429Y-114835715D01*
X167153571Y-105367858D02*
X167184524Y-105460715D01*
X167215476Y-105491667D01*
X167277381Y-105522619D01*
X167370238Y-105522619D01*
X167432143Y-105491667D01*
X167463095Y-105460715D01*
X167494048Y-105398810D01*
X167494048Y-105151191D01*
X166844048Y-105151191D01*
X166844048Y-105367858D01*
X166875000Y-105429762D01*
X166905952Y-105460715D01*
X166967857Y-105491667D01*
X167029762Y-105491667D01*
X167091667Y-105460715D01*
X167122619Y-105429762D01*
X167153571Y-105367858D01*
X167153571Y-105151191D01*
X167308333Y-105770239D02*
X167308333Y-106079762D01*
X167494048Y-105708334D02*
X166844048Y-105925000D01*
X167494048Y-106141667D01*
X166844048Y-106265477D02*
X166844048Y-106636905D01*
X167494048Y-106451191D02*
X166844048Y-106451191D01*
X167246429Y-106853572D02*
X167246429Y-107348810D01*
X167494048Y-107101191D02*
X166998810Y-107101191D01*
X160507143Y-118550000D02*
X160507143Y-118350000D01*
X160821429Y-118350000D02*
X160221429Y-118350000D01*
X160221429Y-118635714D01*
X160650000Y-118835715D02*
X160650000Y-119121429D01*
X160821429Y-118778572D02*
X160221429Y-118978572D01*
X160821429Y-119178572D01*
X160764286Y-119721429D02*
X160792857Y-119692858D01*
X160821429Y-119607144D01*
X160821429Y-119550001D01*
X160792857Y-119464286D01*
X160735714Y-119407144D01*
X160678571Y-119378572D01*
X160564286Y-119350001D01*
X160478571Y-119350001D01*
X160364286Y-119378572D01*
X160307143Y-119407144D01*
X160250000Y-119464286D01*
X160221429Y-119550001D01*
X160221429Y-119607144D01*
X160250000Y-119692858D01*
X160278571Y-119721429D01*
X160221429Y-119892858D02*
X160221429Y-120235715D01*
X160821429Y-120064286D02*
X160221429Y-120064286D01*
X160721429Y-115428572D02*
X160121429Y-115428572D01*
X160121429Y-115657144D01*
X160150000Y-115714286D01*
X160178571Y-115742858D01*
X160235714Y-115771429D01*
X160321429Y-115771429D01*
X160378571Y-115742858D01*
X160407143Y-115714286D01*
X160435714Y-115657144D01*
X160435714Y-115428572D01*
X160721429Y-116371429D02*
X160435714Y-116171429D01*
X160721429Y-116028572D02*
X160121429Y-116028572D01*
X160121429Y-116257144D01*
X160150000Y-116314286D01*
X160178571Y-116342858D01*
X160235714Y-116371429D01*
X160321429Y-116371429D01*
X160378571Y-116342858D01*
X160407143Y-116314286D01*
X160435714Y-116257144D01*
X160435714Y-116028572D01*
X160121429Y-116742858D02*
X160121429Y-116857144D01*
X160150000Y-116914286D01*
X160207143Y-116971429D01*
X160321429Y-117000001D01*
X160521429Y-117000001D01*
X160635714Y-116971429D01*
X160692857Y-116914286D01*
X160721429Y-116857144D01*
X160721429Y-116742858D01*
X160692857Y-116685715D01*
X160635714Y-116628572D01*
X160521429Y-116600001D01*
X160321429Y-116600001D01*
X160207143Y-116628572D01*
X160150000Y-116685715D01*
X160121429Y-116742858D01*
X160150000Y-117571429D02*
X160121429Y-117514286D01*
X160121429Y-117428572D01*
X160150000Y-117342857D01*
X160207143Y-117285715D01*
X160264286Y-117257143D01*
X160378571Y-117228572D01*
X160464286Y-117228572D01*
X160578571Y-117257143D01*
X160635714Y-117285715D01*
X160692857Y-117342857D01*
X160721429Y-117428572D01*
X160721429Y-117485715D01*
X160692857Y-117571429D01*
X160664286Y-117600000D01*
X160464286Y-117600000D01*
X160464286Y-117485715D01*
X166789286Y-121457143D02*
X166789286Y-121100000D01*
X167146429Y-121064286D01*
X167110714Y-121100000D01*
X167075000Y-121171429D01*
X167075000Y-121350000D01*
X167110714Y-121421429D01*
X167146429Y-121457143D01*
X167217857Y-121492858D01*
X167396429Y-121492858D01*
X167467857Y-121457143D01*
X167503571Y-121421429D01*
X167539286Y-121350000D01*
X167539286Y-121171429D01*
X167503571Y-121100000D01*
X167467857Y-121064286D01*
X166789286Y-121707144D02*
X167539286Y-121957144D01*
X166789286Y-122207144D01*
X163207142Y-126050000D02*
X163264285Y-126021429D01*
X163349999Y-126021429D01*
X163435714Y-126050000D01*
X163492856Y-126107143D01*
X163521428Y-126164286D01*
X163549999Y-126278571D01*
X163549999Y-126364286D01*
X163521428Y-126478571D01*
X163492856Y-126535714D01*
X163435714Y-126592857D01*
X163349999Y-126621429D01*
X163292856Y-126621429D01*
X163207142Y-126592857D01*
X163178571Y-126564286D01*
X163178571Y-126364286D01*
X163292856Y-126364286D01*
X162921428Y-126621429D02*
X162921428Y-126021429D01*
X162578571Y-126621429D01*
X162578571Y-126021429D01*
X162292857Y-126621429D02*
X162292857Y-126021429D01*
X162150000Y-126021429D01*
X162064285Y-126050000D01*
X162007143Y-126107143D01*
X161978571Y-126164286D01*
X161950000Y-126278571D01*
X161950000Y-126364286D01*
X161978571Y-126478571D01*
X162007143Y-126535714D01*
X162064285Y-126592857D01*
X162150000Y-126621429D01*
X162292857Y-126621429D01*
X167589286Y-116425000D02*
X167232143Y-116175000D01*
X167589286Y-115996428D02*
X166839286Y-115996428D01*
X166839286Y-116282143D01*
X166875000Y-116353571D01*
X166910714Y-116389286D01*
X166982143Y-116425000D01*
X167089286Y-116425000D01*
X167160714Y-116389286D01*
X167196429Y-116353571D01*
X167232143Y-116282143D01*
X167232143Y-115996428D01*
X166839286Y-116675000D02*
X167589286Y-117175000D01*
X166839286Y-117175000D02*
X167589286Y-116675000D01*
X166839286Y-119571428D02*
X166839286Y-119142857D01*
X167589286Y-119357143D02*
X166839286Y-119357143D01*
X166839286Y-118964285D02*
X167589286Y-118464285D01*
X166839286Y-118464285D02*
X167589286Y-118964285D01*
X160189286Y-121121429D02*
X160189286Y-121585715D01*
X160475000Y-121335715D01*
X160475000Y-121442857D01*
X160510714Y-121514286D01*
X160546429Y-121550000D01*
X160617857Y-121585715D01*
X160796429Y-121585715D01*
X160867857Y-121550000D01*
X160903571Y-121514286D01*
X160939286Y-121442857D01*
X160939286Y-121228572D01*
X160903571Y-121157143D01*
X160867857Y-121121429D01*
X160189286Y-121800001D02*
X160939286Y-122050001D01*
X160189286Y-122300001D01*
X160189286Y-122478572D02*
X160189286Y-122942858D01*
X160475000Y-122692858D01*
X160475000Y-122800000D01*
X160510714Y-122871429D01*
X160546429Y-122907143D01*
X160617857Y-122942858D01*
X160796429Y-122942858D01*
X160867857Y-122907143D01*
X160903571Y-122871429D01*
X160939286Y-122800000D01*
X160939286Y-122585715D01*
X160903571Y-122514286D01*
X160867857Y-122478572D01*
X166007142Y-126000000D02*
X166064285Y-125971429D01*
X166149999Y-125971429D01*
X166235714Y-126000000D01*
X166292856Y-126057143D01*
X166321428Y-126114286D01*
X166349999Y-126228571D01*
X166349999Y-126314286D01*
X166321428Y-126428571D01*
X166292856Y-126485714D01*
X166235714Y-126542857D01*
X166149999Y-126571429D01*
X166092856Y-126571429D01*
X166007142Y-126542857D01*
X165978571Y-126514286D01*
X165978571Y-126314286D01*
X166092856Y-126314286D01*
X165721428Y-126571429D02*
X165721428Y-125971429D01*
X165378571Y-126571429D01*
X165378571Y-125971429D01*
X165092857Y-126571429D02*
X165092857Y-125971429D01*
X164950000Y-125971429D01*
X164864285Y-126000000D01*
X164807143Y-126057143D01*
X164778571Y-126114286D01*
X164750000Y-126228571D01*
X164750000Y-126314286D01*
X164778571Y-126428571D01*
X164807143Y-126485714D01*
X164864285Y-126542857D01*
X164950000Y-126571429D01*
X165092857Y-126571429D01*
D12*
X151390000Y-53320000D02*
X151390000Y-54020000D01*
X152590000Y-54020000D02*
X152590000Y-53320000D01*
X155740000Y-98230000D02*
X155040000Y-98230000D01*
X155040000Y-99430000D02*
X155740000Y-99430000D01*
D11*
X138108200Y-86723880D02*
X132108200Y-86723880D01*
X132108200Y-86723880D02*
X132108200Y-68723880D01*
X132108200Y-68723880D02*
X138108200Y-68723880D01*
X138108200Y-68723880D02*
X138108200Y-86723880D01*
X138108200Y-86723880D02*
X157608200Y-86723880D01*
X157608200Y-86723880D02*
X157608200Y-68723880D01*
X157608200Y-68723880D02*
X138108200Y-68723880D01*
X145250000Y-114150000D02*
G75*
G03X145250000Y-114150000I-7500000J0D01*
G01*
D12*
X130310000Y-57370000D02*
X130310000Y-58300000D01*
X130310000Y-60530000D02*
X130310000Y-59600000D01*
X130310000Y-60530000D02*
X128150000Y-60530000D01*
X130310000Y-57370000D02*
X128850000Y-57370000D01*
X164560000Y-63570000D02*
X164560000Y-62570000D01*
X163200000Y-62570000D02*
X163200000Y-63570000D01*
X129600000Y-61020000D02*
X128600000Y-61020000D01*
X128600000Y-62380000D02*
X129600000Y-62380000D01*
X136070000Y-124700000D02*
X136070000Y-125700000D01*
X137430000Y-125700000D02*
X137430000Y-124700000D01*
X154250000Y-101410000D02*
X155250000Y-101410000D01*
X155250000Y-100050000D02*
X154250000Y-100050000D01*
X155650000Y-97480000D02*
X155650000Y-96220000D01*
X155650000Y-90660000D02*
X155650000Y-91920000D01*
X159410000Y-97480000D02*
X155650000Y-97480000D01*
X161660000Y-90660000D02*
X155650000Y-90660000D01*
X143345000Y-124475000D02*
X143345000Y-125475000D01*
X144705000Y-125475000D02*
X144705000Y-124475000D01*
X128975000Y-124715000D02*
X128975000Y-125715000D01*
X130335000Y-125715000D02*
X130335000Y-124715000D01*
X139120000Y-59090000D02*
X139120000Y-58390000D01*
X137920000Y-58390000D02*
X137920000Y-59090000D01*
X140590000Y-56060000D02*
X138590000Y-56060000D01*
X138590000Y-54020000D02*
X140590000Y-54020000D01*
X168120000Y-102580000D02*
X168120000Y-101880000D01*
X166920000Y-101880000D02*
X166920000Y-102580000D01*
X129300000Y-97840000D02*
X129300000Y-97140000D01*
X128100000Y-97140000D02*
X128100000Y-97840000D01*
X159530000Y-55880000D02*
X160230000Y-55880000D01*
X160230000Y-54680000D02*
X159530000Y-54680000D01*
X137540000Y-59080000D02*
X137540000Y-58380000D01*
X136340000Y-58380000D02*
X136340000Y-59080000D01*
X159800000Y-64120000D02*
X160500000Y-64120000D01*
X160500000Y-62920000D02*
X159800000Y-62920000D01*
X144310000Y-64820000D02*
X144310000Y-65520000D01*
X145510000Y-65520000D02*
X145510000Y-64820000D01*
X146010000Y-64870000D02*
X146010000Y-65570000D01*
X147210000Y-65570000D02*
X147210000Y-64870000D01*
X147710000Y-64870000D02*
X147710000Y-65570000D01*
X148910000Y-65570000D02*
X148910000Y-64870000D01*
X151780000Y-116950000D02*
X151780000Y-114950000D01*
X153820000Y-114950000D02*
X153820000Y-116950000D01*
X154450000Y-114150000D02*
X154450000Y-114850000D01*
X155650000Y-114850000D02*
X155650000Y-114150000D01*
X157730000Y-110210000D02*
X157730000Y-109510000D01*
X156530000Y-109510000D02*
X156530000Y-110210000D01*
X150080000Y-105190000D02*
X150080000Y-105890000D01*
X151280000Y-105890000D02*
X151280000Y-105190000D01*
X145450000Y-94800000D02*
X145450000Y-95500000D01*
X146650000Y-95500000D02*
X146650000Y-94800000D01*
X162920000Y-67090000D02*
X163620000Y-67090000D01*
X163620000Y-65890000D02*
X162920000Y-65890000D01*
X156650000Y-52700000D02*
X156650000Y-53700000D01*
X154950000Y-53700000D02*
X154950000Y-52700000D01*
X138790000Y-102090000D02*
X138790000Y-101090000D01*
X140490000Y-101090000D02*
X140490000Y-102090000D01*
X147850000Y-56750000D02*
X147150000Y-56750000D01*
X147150000Y-57950000D02*
X147850000Y-57950000D01*
X154030000Y-110360000D02*
X154030000Y-109660000D01*
X152830000Y-109660000D02*
X152830000Y-110360000D01*
X145170000Y-54040000D02*
X145170000Y-53340000D01*
X143970000Y-53340000D02*
X143970000Y-54040000D01*
X145370000Y-105990000D02*
X145370000Y-105290000D01*
X144170000Y-105290000D02*
X144170000Y-105990000D01*
X153600000Y-58050000D02*
X153600000Y-58750000D01*
X154800000Y-58750000D02*
X154800000Y-58050000D01*
X148350000Y-101220000D02*
X148350000Y-100520000D01*
X147150000Y-100520000D02*
X147150000Y-101220000D01*
X151700000Y-62200000D02*
X151700000Y-62900000D01*
X152900000Y-62900000D02*
X152900000Y-62200000D01*
X151350000Y-99550000D02*
X150650000Y-99550000D01*
X150650000Y-100750000D02*
X151350000Y-100750000D01*
X138650000Y-96400000D02*
X138650000Y-95700000D01*
X137450000Y-95700000D02*
X137450000Y-96400000D01*
X143740000Y-88870000D02*
X143040000Y-88870000D01*
X143040000Y-90070000D02*
X143740000Y-90070000D01*
X164770000Y-70880000D02*
X164070000Y-70880000D01*
X164070000Y-72080000D02*
X164770000Y-72080000D01*
X164800000Y-75650000D02*
X164100000Y-75650000D01*
X164100000Y-76850000D02*
X164800000Y-76850000D01*
X161820000Y-78990000D02*
X161820000Y-78290000D01*
X160620000Y-78290000D02*
X160620000Y-78990000D01*
X167980000Y-87130000D02*
X167980000Y-86430000D01*
X166780000Y-86430000D02*
X166780000Y-87130000D01*
X130200000Y-64340000D02*
X132200000Y-64340000D01*
X132200000Y-66380000D02*
X130200000Y-66380000D01*
X133020000Y-66720000D02*
X132320000Y-66720000D01*
X132320000Y-67920000D02*
X133020000Y-67920000D01*
X168080000Y-98060000D02*
X166980000Y-98060000D01*
X166980000Y-98060000D02*
X166980000Y-95460000D01*
X168080000Y-98060000D02*
X168080000Y-95460000D01*
X157860000Y-100030000D02*
X157860000Y-98330000D01*
X157860000Y-98330000D02*
X161010000Y-98330000D01*
X157860000Y-100030000D02*
X161010000Y-100030000D01*
X165140000Y-94680000D02*
X165140000Y-95610000D01*
X165140000Y-97840000D02*
X165140000Y-96910000D01*
X165140000Y-97840000D02*
X162980000Y-97840000D01*
X165140000Y-94680000D02*
X163680000Y-94680000D01*
X149590000Y-64590000D02*
X149590000Y-65590000D01*
X150950000Y-65590000D02*
X150950000Y-64590000D01*
X139920000Y-88640000D02*
X138920000Y-88640000D01*
X138920000Y-90000000D02*
X139920000Y-90000000D01*
X133600000Y-63780000D02*
X134600000Y-63780000D01*
X134600000Y-62420000D02*
X133600000Y-62420000D01*
X149070000Y-91260000D02*
X149070000Y-90260000D01*
X147710000Y-90260000D02*
X147710000Y-91260000D01*
X147040000Y-91260000D02*
X147040000Y-90260000D01*
X145680000Y-90260000D02*
X145680000Y-91260000D01*
X138890000Y-63790000D02*
X138890000Y-64790000D01*
X140250000Y-64790000D02*
X140250000Y-63790000D01*
X164840000Y-98710000D02*
X163840000Y-98710000D01*
X163840000Y-100070000D02*
X164840000Y-100070000D01*
X136650000Y-63350000D02*
X136650000Y-64550000D01*
X138410000Y-64550000D02*
X138410000Y-63350000D01*
X143970000Y-58100000D02*
X143970000Y-59100000D01*
X145330000Y-59100000D02*
X145330000Y-58100000D01*
X143840000Y-65570000D02*
X143840000Y-64570000D01*
X142480000Y-64570000D02*
X142480000Y-65570000D01*
X159480000Y-100800000D02*
X158480000Y-100800000D01*
X158480000Y-102160000D02*
X159480000Y-102160000D01*
X135620000Y-97890000D02*
X135620000Y-96890000D01*
X134260000Y-96890000D02*
X134260000Y-97890000D01*
X140930000Y-96300000D02*
X140930000Y-95100000D01*
X139170000Y-95100000D02*
X139170000Y-96300000D01*
X158490000Y-104360000D02*
X159490000Y-104360000D01*
X159490000Y-103000000D02*
X158490000Y-103000000D01*
X152010000Y-104860000D02*
X152010000Y-105860000D01*
X153370000Y-105860000D02*
X153370000Y-104860000D01*
X148380000Y-95800000D02*
X148380000Y-94800000D01*
X147020000Y-94800000D02*
X147020000Y-95800000D01*
X151180000Y-59050000D02*
X151180000Y-58050000D01*
X149820000Y-58050000D02*
X149820000Y-59050000D01*
X150680000Y-117800000D02*
X150680000Y-116800000D01*
X149320000Y-116800000D02*
X149320000Y-117800000D01*
X154480000Y-54000000D02*
X154480000Y-53000000D01*
X153120000Y-53000000D02*
X153120000Y-54000000D01*
X141010000Y-100800000D02*
X141010000Y-101800000D01*
X142370000Y-101800000D02*
X142370000Y-100800000D01*
X143580000Y-59160000D02*
X143580000Y-58160000D01*
X142220000Y-58160000D02*
X142220000Y-59160000D01*
X150950000Y-109360000D02*
X150950000Y-110360000D01*
X152310000Y-110360000D02*
X152310000Y-109360000D01*
X155910000Y-110360000D02*
X155910000Y-109360000D01*
X154550000Y-109360000D02*
X154550000Y-110360000D01*
X146980000Y-54090000D02*
X146980000Y-53090000D01*
X145620000Y-53090000D02*
X145620000Y-54090000D01*
X143780000Y-105960000D02*
X143780000Y-104960000D01*
X142420000Y-104960000D02*
X142420000Y-105960000D01*
X164880000Y-78980000D02*
X163880000Y-78980000D01*
X163880000Y-80340000D02*
X164880000Y-80340000D01*
X151620000Y-58000000D02*
X151620000Y-59000000D01*
X152980000Y-59000000D02*
X152980000Y-58000000D01*
X150350000Y-102630000D02*
X151350000Y-102630000D01*
X151350000Y-101270000D02*
X150350000Y-101270000D01*
X155270000Y-57850000D02*
X155270000Y-58850000D01*
X156630000Y-58850000D02*
X156630000Y-57850000D01*
X146550000Y-101310000D02*
X146550000Y-100310000D01*
X145190000Y-100310000D02*
X145190000Y-101310000D01*
X142800000Y-92500000D02*
X143800000Y-92500000D01*
X143800000Y-91140000D02*
X142800000Y-91140000D01*
X163860000Y-78590000D02*
X164860000Y-78590000D01*
X164860000Y-77230000D02*
X163860000Y-77230000D01*
X164830000Y-74050000D02*
X163830000Y-74050000D01*
X163830000Y-75410000D02*
X164830000Y-75410000D01*
X163790000Y-73800000D02*
X164790000Y-73800000D01*
X164790000Y-72440000D02*
X163790000Y-72440000D01*
X140740000Y-63800000D02*
X140740000Y-64800000D01*
X142100000Y-64800000D02*
X142100000Y-63800000D01*
X165000000Y-104010000D02*
X163200000Y-104010000D01*
X163200000Y-100790000D02*
X165650000Y-100790000D01*
X147650000Y-54490000D02*
X147650000Y-52690000D01*
X150870000Y-52690000D02*
X150870000Y-55140000D01*
X146170000Y-107000000D02*
X146170000Y-105200000D01*
X149390000Y-105200000D02*
X149390000Y-107650000D01*
X141640000Y-96650000D02*
X141640000Y-94850000D01*
X144860000Y-94850000D02*
X144860000Y-97300000D01*
X162850000Y-85190000D02*
X164650000Y-85190000D01*
X164650000Y-88410000D02*
X162200000Y-88410000D01*
X163160000Y-67730000D02*
X165060000Y-67730000D01*
X164560000Y-70050000D02*
X163160000Y-70050000D01*
X163280000Y-81430000D02*
X165180000Y-81430000D01*
X164680000Y-83750000D02*
X163280000Y-83750000D01*
X161330000Y-105070000D02*
X166530000Y-105070000D01*
X161330000Y-122910000D02*
X161330000Y-105070000D01*
X166530000Y-125510000D02*
X166530000Y-105070000D01*
X161330000Y-122910000D02*
X163930000Y-122910000D01*
X163930000Y-122910000D02*
X163930000Y-125510000D01*
X163930000Y-125510000D02*
X166530000Y-125510000D01*
X161330000Y-124180000D02*
X161330000Y-125510000D01*
X161330000Y-125510000D02*
X162660000Y-125510000D01*
X163980000Y-92800000D02*
X163980000Y-92100000D01*
X162780000Y-92100000D02*
X162780000Y-92800000D01*
D11*
X130360000Y-96010000D02*
X132600000Y-96010000D01*
X130360000Y-99010000D02*
X130360000Y-96010000D01*
X133360000Y-99010000D02*
X130360000Y-99010000D01*
X133360000Y-96740000D02*
X133360000Y-99010000D01*
X132600000Y-96010000D02*
X133360000Y-96740000D01*
D13*
X152363572Y-51666429D02*
X152389762Y-51692619D01*
X152468334Y-51718810D01*
X152520715Y-51718810D01*
X152599286Y-51692619D01*
X152651667Y-51640238D01*
X152677858Y-51587857D01*
X152704048Y-51483095D01*
X152704048Y-51404524D01*
X152677858Y-51299762D01*
X152651667Y-51247381D01*
X152599286Y-51195000D01*
X152520715Y-51168810D01*
X152468334Y-51168810D01*
X152389762Y-51195000D01*
X152363572Y-51221190D01*
X151839762Y-51718810D02*
X152154048Y-51718810D01*
X151996905Y-51718810D02*
X151996905Y-51168810D01*
X152049286Y-51247381D01*
X152101667Y-51299762D01*
X152154048Y-51325952D01*
X151368333Y-51168810D02*
X151473095Y-51168810D01*
X151525476Y-51195000D01*
X151551667Y-51221190D01*
X151604048Y-51299762D01*
X151630238Y-51404524D01*
X151630238Y-51614048D01*
X151604048Y-51666429D01*
X151577857Y-51692619D01*
X151525476Y-51718810D01*
X151420714Y-51718810D01*
X151368333Y-51692619D01*
X151342143Y-51666429D01*
X151315952Y-51614048D01*
X151315952Y-51483095D01*
X151342143Y-51430714D01*
X151368333Y-51404524D01*
X151420714Y-51378333D01*
X151525476Y-51378333D01*
X151577857Y-51404524D01*
X151604048Y-51430714D01*
X151630238Y-51483095D01*
X155471667Y-97966429D02*
X155497857Y-97992619D01*
X155576429Y-98018810D01*
X155628810Y-98018810D01*
X155707381Y-97992619D01*
X155759762Y-97940238D01*
X155785953Y-97887857D01*
X155812143Y-97783095D01*
X155812143Y-97704524D01*
X155785953Y-97599762D01*
X155759762Y-97547381D01*
X155707381Y-97495000D01*
X155628810Y-97468810D01*
X155576429Y-97468810D01*
X155497857Y-97495000D01*
X155471667Y-97521190D01*
X155288334Y-97468810D02*
X154947857Y-97468810D01*
X155131191Y-97678333D01*
X155052619Y-97678333D01*
X155000238Y-97704524D01*
X154974048Y-97730714D01*
X154947857Y-97783095D01*
X154947857Y-97914048D01*
X154974048Y-97966429D01*
X155000238Y-97992619D01*
X155052619Y-98018810D01*
X155209762Y-98018810D01*
X155262143Y-97992619D01*
X155288334Y-97966429D01*
X157794048Y-67873810D02*
X157794048Y-68319048D01*
X157767857Y-68371429D01*
X157741667Y-68397619D01*
X157689286Y-68423810D01*
X157584524Y-68423810D01*
X157532143Y-68397619D01*
X157505952Y-68371429D01*
X157479762Y-68319048D01*
X157479762Y-67873810D01*
X156929762Y-68423810D02*
X157244048Y-68423810D01*
X157086905Y-68423810D02*
X157086905Y-67873810D01*
X157139286Y-67952381D01*
X157191667Y-68004762D01*
X157244048Y-68030952D01*
X133123572Y-107768810D02*
X133385477Y-107768810D01*
X133385477Y-107218810D01*
X132966429Y-107742619D02*
X132887858Y-107768810D01*
X132756905Y-107768810D01*
X132704524Y-107742619D01*
X132678334Y-107716429D01*
X132652143Y-107664048D01*
X132652143Y-107611667D01*
X132678334Y-107559286D01*
X132704524Y-107533095D01*
X132756905Y-107506905D01*
X132861667Y-107480714D01*
X132914048Y-107454524D01*
X132940239Y-107428333D01*
X132966429Y-107375952D01*
X132966429Y-107323571D01*
X132940239Y-107271190D01*
X132914048Y-107245000D01*
X132861667Y-107218810D01*
X132730715Y-107218810D01*
X132652143Y-107245000D01*
X132128333Y-107768810D02*
X132442619Y-107768810D01*
X132285476Y-107768810D02*
X132285476Y-107218810D01*
X132337857Y-107297381D01*
X132390238Y-107349762D01*
X132442619Y-107375952D01*
X129402381Y-57101190D02*
X129454762Y-57075000D01*
X129507143Y-57022619D01*
X129585714Y-56944048D01*
X129638095Y-56917857D01*
X129690476Y-56917857D01*
X129664286Y-57048810D02*
X129716667Y-57022619D01*
X129769048Y-56970238D01*
X129795238Y-56865476D01*
X129795238Y-56682143D01*
X129769048Y-56577381D01*
X129716667Y-56525000D01*
X129664286Y-56498810D01*
X129559524Y-56498810D01*
X129507143Y-56525000D01*
X129454762Y-56577381D01*
X129428571Y-56682143D01*
X129428571Y-56865476D01*
X129454762Y-56970238D01*
X129507143Y-57022619D01*
X129559524Y-57048810D01*
X129664286Y-57048810D01*
X128904762Y-57048810D02*
X129219048Y-57048810D01*
X129061905Y-57048810D02*
X129061905Y-56498810D01*
X129114286Y-56577381D01*
X129166667Y-56629762D01*
X129219048Y-56655952D01*
X164061667Y-61608810D02*
X164245000Y-61346905D01*
X164375953Y-61608810D02*
X164375953Y-61058810D01*
X164166429Y-61058810D01*
X164114048Y-61085000D01*
X164087857Y-61111190D01*
X164061667Y-61163571D01*
X164061667Y-61242143D01*
X164087857Y-61294524D01*
X164114048Y-61320714D01*
X164166429Y-61346905D01*
X164375953Y-61346905D01*
X163878334Y-61058810D02*
X163537857Y-61058810D01*
X163721191Y-61268333D01*
X163642619Y-61268333D01*
X163590238Y-61294524D01*
X163564048Y-61320714D01*
X163537857Y-61373095D01*
X163537857Y-61504048D01*
X163564048Y-61556429D01*
X163590238Y-61582619D01*
X163642619Y-61608810D01*
X163799762Y-61608810D01*
X163852143Y-61582619D01*
X163878334Y-61556429D01*
X127291667Y-62023810D02*
X127475000Y-61761905D01*
X127605953Y-62023810D02*
X127605953Y-61473810D01*
X127396429Y-61473810D01*
X127344048Y-61500000D01*
X127317857Y-61526190D01*
X127291667Y-61578571D01*
X127291667Y-61657143D01*
X127317857Y-61709524D01*
X127344048Y-61735714D01*
X127396429Y-61761905D01*
X127605953Y-61761905D01*
X126820238Y-61657143D02*
X126820238Y-62023810D01*
X126951191Y-61447619D02*
X127082143Y-61840476D01*
X126741667Y-61840476D01*
X137028572Y-123873810D02*
X137211905Y-123611905D01*
X137342858Y-123873810D02*
X137342858Y-123323810D01*
X137133334Y-123323810D01*
X137080953Y-123350000D01*
X137054762Y-123376190D01*
X137028572Y-123428571D01*
X137028572Y-123507143D01*
X137054762Y-123559524D01*
X137080953Y-123585714D01*
X137133334Y-123611905D01*
X137342858Y-123611905D01*
X136504762Y-123873810D02*
X136819048Y-123873810D01*
X136661905Y-123873810D02*
X136661905Y-123323810D01*
X136714286Y-123402381D01*
X136766667Y-123454762D01*
X136819048Y-123480952D01*
X136007143Y-123323810D02*
X136269048Y-123323810D01*
X136295238Y-123585714D01*
X136269048Y-123559524D01*
X136216667Y-123533333D01*
X136085714Y-123533333D01*
X136033333Y-123559524D01*
X136007143Y-123585714D01*
X135980952Y-123638095D01*
X135980952Y-123769048D01*
X136007143Y-123821429D01*
X136033333Y-123847619D01*
X136085714Y-123873810D01*
X136216667Y-123873810D01*
X136269048Y-123847619D01*
X136295238Y-123821429D01*
X155053572Y-102078810D02*
X155236905Y-101816905D01*
X155367858Y-102078810D02*
X155367858Y-101528810D01*
X155158334Y-101528810D01*
X155105953Y-101555000D01*
X155079762Y-101581190D01*
X155053572Y-101633571D01*
X155053572Y-101712143D01*
X155079762Y-101764524D01*
X155105953Y-101790714D01*
X155158334Y-101816905D01*
X155367858Y-101816905D01*
X154844048Y-101581190D02*
X154817858Y-101555000D01*
X154765477Y-101528810D01*
X154634524Y-101528810D01*
X154582143Y-101555000D01*
X154555953Y-101581190D01*
X154529762Y-101633571D01*
X154529762Y-101685952D01*
X154555953Y-101764524D01*
X154870239Y-102078810D01*
X154529762Y-102078810D01*
X154058333Y-101528810D02*
X154163095Y-101528810D01*
X154215476Y-101555000D01*
X154241667Y-101581190D01*
X154294048Y-101659762D01*
X154320238Y-101764524D01*
X154320238Y-101974048D01*
X154294048Y-102026429D01*
X154267857Y-102052619D01*
X154215476Y-102078810D01*
X154110714Y-102078810D01*
X154058333Y-102052619D01*
X154032143Y-102026429D01*
X154005952Y-101974048D01*
X154005952Y-101843095D01*
X154032143Y-101790714D01*
X154058333Y-101764524D01*
X154110714Y-101738333D01*
X154215476Y-101738333D01*
X154267857Y-101764524D01*
X154294048Y-101790714D01*
X154320238Y-101843095D01*
X161590953Y-89743810D02*
X161590953Y-90189048D01*
X161564762Y-90241429D01*
X161538572Y-90267619D01*
X161486191Y-90293810D01*
X161381429Y-90293810D01*
X161329048Y-90267619D01*
X161302857Y-90241429D01*
X161276667Y-90189048D01*
X161276667Y-89743810D01*
X160726667Y-90293810D02*
X161040953Y-90293810D01*
X160883810Y-90293810D02*
X160883810Y-89743810D01*
X160936191Y-89822381D01*
X160988572Y-89874762D01*
X161040953Y-89900952D01*
X160412381Y-89979524D02*
X160464762Y-89953333D01*
X160490953Y-89927143D01*
X160517143Y-89874762D01*
X160517143Y-89848571D01*
X160490953Y-89796190D01*
X160464762Y-89770000D01*
X160412381Y-89743810D01*
X160307619Y-89743810D01*
X160255238Y-89770000D01*
X160229048Y-89796190D01*
X160202857Y-89848571D01*
X160202857Y-89874762D01*
X160229048Y-89927143D01*
X160255238Y-89953333D01*
X160307619Y-89979524D01*
X160412381Y-89979524D01*
X160464762Y-90005714D01*
X160490953Y-90031905D01*
X160517143Y-90084286D01*
X160517143Y-90189048D01*
X160490953Y-90241429D01*
X160464762Y-90267619D01*
X160412381Y-90293810D01*
X160307619Y-90293810D01*
X160255238Y-90267619D01*
X160229048Y-90241429D01*
X160202857Y-90189048D01*
X160202857Y-90084286D01*
X160229048Y-90031905D01*
X160255238Y-90005714D01*
X160307619Y-89979524D01*
X144403572Y-123498810D02*
X144586905Y-123236905D01*
X144717858Y-123498810D02*
X144717858Y-122948810D01*
X144508334Y-122948810D01*
X144455953Y-122975000D01*
X144429762Y-123001190D01*
X144403572Y-123053571D01*
X144403572Y-123132143D01*
X144429762Y-123184524D01*
X144455953Y-123210714D01*
X144508334Y-123236905D01*
X144717858Y-123236905D01*
X143879762Y-123498810D02*
X144194048Y-123498810D01*
X144036905Y-123498810D02*
X144036905Y-122948810D01*
X144089286Y-123027381D01*
X144141667Y-123079762D01*
X144194048Y-123105952D01*
X143408333Y-123132143D02*
X143408333Y-123498810D01*
X143539286Y-122922619D02*
X143670238Y-123315476D01*
X143329762Y-123315476D01*
X130008572Y-123913810D02*
X130191905Y-123651905D01*
X130322858Y-123913810D02*
X130322858Y-123363810D01*
X130113334Y-123363810D01*
X130060953Y-123390000D01*
X130034762Y-123416190D01*
X130008572Y-123468571D01*
X130008572Y-123547143D01*
X130034762Y-123599524D01*
X130060953Y-123625714D01*
X130113334Y-123651905D01*
X130322858Y-123651905D01*
X129484762Y-123913810D02*
X129799048Y-123913810D01*
X129641905Y-123913810D02*
X129641905Y-123363810D01*
X129694286Y-123442381D01*
X129746667Y-123494762D01*
X129799048Y-123520952D01*
X129013333Y-123363810D02*
X129118095Y-123363810D01*
X129170476Y-123390000D01*
X129196667Y-123416190D01*
X129249048Y-123494762D01*
X129275238Y-123599524D01*
X129275238Y-123809048D01*
X129249048Y-123861429D01*
X129222857Y-123887619D01*
X129170476Y-123913810D01*
X129065714Y-123913810D01*
X129013333Y-123887619D01*
X128987143Y-123861429D01*
X128960952Y-123809048D01*
X128960952Y-123678095D01*
X128987143Y-123625714D01*
X129013333Y-123599524D01*
X129065714Y-123573333D01*
X129170476Y-123573333D01*
X129222857Y-123599524D01*
X129249048Y-123625714D01*
X129275238Y-123678095D01*
X138591667Y-56766429D02*
X138617857Y-56792619D01*
X138696429Y-56818810D01*
X138748810Y-56818810D01*
X138827381Y-56792619D01*
X138879762Y-56740238D01*
X138905953Y-56687857D01*
X138932143Y-56583095D01*
X138932143Y-56504524D01*
X138905953Y-56399762D01*
X138879762Y-56347381D01*
X138827381Y-56295000D01*
X138748810Y-56268810D01*
X138696429Y-56268810D01*
X138617857Y-56295000D01*
X138591667Y-56321190D01*
X138067857Y-56818810D02*
X138382143Y-56818810D01*
X138225000Y-56818810D02*
X138225000Y-56268810D01*
X138277381Y-56347381D01*
X138329762Y-56399762D01*
X138382143Y-56425952D01*
X139631667Y-53636429D02*
X139657857Y-53662619D01*
X139736429Y-53688810D01*
X139788810Y-53688810D01*
X139867381Y-53662619D01*
X139919762Y-53610238D01*
X139945953Y-53557857D01*
X139972143Y-53453095D01*
X139972143Y-53374524D01*
X139945953Y-53269762D01*
X139919762Y-53217381D01*
X139867381Y-53165000D01*
X139788810Y-53138810D01*
X139736429Y-53138810D01*
X139657857Y-53165000D01*
X139631667Y-53191190D01*
X139422143Y-53191190D02*
X139395953Y-53165000D01*
X139343572Y-53138810D01*
X139212619Y-53138810D01*
X139160238Y-53165000D01*
X139134048Y-53191190D01*
X139107857Y-53243571D01*
X139107857Y-53295952D01*
X139134048Y-53374524D01*
X139448334Y-53688810D01*
X139107857Y-53688810D01*
X167761667Y-100256429D02*
X167787857Y-100282619D01*
X167866429Y-100308810D01*
X167918810Y-100308810D01*
X167997381Y-100282619D01*
X168049762Y-100230238D01*
X168075953Y-100177857D01*
X168102143Y-100073095D01*
X168102143Y-99994524D01*
X168075953Y-99889762D01*
X168049762Y-99837381D01*
X167997381Y-99785000D01*
X167918810Y-99758810D01*
X167866429Y-99758810D01*
X167787857Y-99785000D01*
X167761667Y-99811190D01*
X167264048Y-99758810D02*
X167525953Y-99758810D01*
X167552143Y-100020714D01*
X167525953Y-99994524D01*
X167473572Y-99968333D01*
X167342619Y-99968333D01*
X167290238Y-99994524D01*
X167264048Y-100020714D01*
X167237857Y-100073095D01*
X167237857Y-100204048D01*
X167264048Y-100256429D01*
X167290238Y-100282619D01*
X167342619Y-100308810D01*
X167473572Y-100308810D01*
X167525953Y-100282619D01*
X167552143Y-100256429D01*
X128841667Y-95506429D02*
X128867857Y-95532619D01*
X128946429Y-95558810D01*
X128998810Y-95558810D01*
X129077381Y-95532619D01*
X129129762Y-95480238D01*
X129155953Y-95427857D01*
X129182143Y-95323095D01*
X129182143Y-95244524D01*
X129155953Y-95139762D01*
X129129762Y-95087381D01*
X129077381Y-95035000D01*
X128998810Y-95008810D01*
X128946429Y-95008810D01*
X128867857Y-95035000D01*
X128841667Y-95061190D01*
X128370238Y-95008810D02*
X128475000Y-95008810D01*
X128527381Y-95035000D01*
X128553572Y-95061190D01*
X128605953Y-95139762D01*
X128632143Y-95244524D01*
X128632143Y-95454048D01*
X128605953Y-95506429D01*
X128579762Y-95532619D01*
X128527381Y-95558810D01*
X128422619Y-95558810D01*
X128370238Y-95532619D01*
X128344048Y-95506429D01*
X128317857Y-95454048D01*
X128317857Y-95323095D01*
X128344048Y-95270714D01*
X128370238Y-95244524D01*
X128422619Y-95218333D01*
X128527381Y-95218333D01*
X128579762Y-95244524D01*
X128605953Y-95270714D01*
X128632143Y-95323095D01*
X159971667Y-56726429D02*
X159997857Y-56752619D01*
X160076429Y-56778810D01*
X160128810Y-56778810D01*
X160207381Y-56752619D01*
X160259762Y-56700238D01*
X160285953Y-56647857D01*
X160312143Y-56543095D01*
X160312143Y-56464524D01*
X160285953Y-56359762D01*
X160259762Y-56307381D01*
X160207381Y-56255000D01*
X160128810Y-56228810D01*
X160076429Y-56228810D01*
X159997857Y-56255000D01*
X159971667Y-56281190D01*
X159788334Y-56228810D02*
X159421667Y-56228810D01*
X159657381Y-56778810D01*
X137111667Y-56776429D02*
X137137857Y-56802619D01*
X137216429Y-56828810D01*
X137268810Y-56828810D01*
X137347381Y-56802619D01*
X137399762Y-56750238D01*
X137425953Y-56697857D01*
X137452143Y-56593095D01*
X137452143Y-56514524D01*
X137425953Y-56409762D01*
X137399762Y-56357381D01*
X137347381Y-56305000D01*
X137268810Y-56278810D01*
X137216429Y-56278810D01*
X137137857Y-56305000D01*
X137111667Y-56331190D01*
X136797381Y-56514524D02*
X136849762Y-56488333D01*
X136875953Y-56462143D01*
X136902143Y-56409762D01*
X136902143Y-56383571D01*
X136875953Y-56331190D01*
X136849762Y-56305000D01*
X136797381Y-56278810D01*
X136692619Y-56278810D01*
X136640238Y-56305000D01*
X136614048Y-56331190D01*
X136587857Y-56383571D01*
X136587857Y-56409762D01*
X136614048Y-56462143D01*
X136640238Y-56488333D01*
X136692619Y-56514524D01*
X136797381Y-56514524D01*
X136849762Y-56540714D01*
X136875953Y-56566905D01*
X136902143Y-56619286D01*
X136902143Y-56724048D01*
X136875953Y-56776429D01*
X136849762Y-56802619D01*
X136797381Y-56828810D01*
X136692619Y-56828810D01*
X136640238Y-56802619D01*
X136614048Y-56776429D01*
X136587857Y-56724048D01*
X136587857Y-56619286D01*
X136614048Y-56566905D01*
X136640238Y-56540714D01*
X136692619Y-56514524D01*
X160241667Y-64966429D02*
X160267857Y-64992619D01*
X160346429Y-65018810D01*
X160398810Y-65018810D01*
X160477381Y-64992619D01*
X160529762Y-64940238D01*
X160555953Y-64887857D01*
X160582143Y-64783095D01*
X160582143Y-64704524D01*
X160555953Y-64599762D01*
X160529762Y-64547381D01*
X160477381Y-64495000D01*
X160398810Y-64468810D01*
X160346429Y-64468810D01*
X160267857Y-64495000D01*
X160241667Y-64521190D01*
X159979762Y-65018810D02*
X159875000Y-65018810D01*
X159822619Y-64992619D01*
X159796429Y-64966429D01*
X159744048Y-64887857D01*
X159717857Y-64783095D01*
X159717857Y-64573571D01*
X159744048Y-64521190D01*
X159770238Y-64495000D01*
X159822619Y-64468810D01*
X159927381Y-64468810D01*
X159979762Y-64495000D01*
X160005953Y-64521190D01*
X160032143Y-64573571D01*
X160032143Y-64704524D01*
X160005953Y-64756905D01*
X159979762Y-64783095D01*
X159927381Y-64809286D01*
X159822619Y-64809286D01*
X159770238Y-64783095D01*
X159744048Y-64756905D01*
X159717857Y-64704524D01*
X145313572Y-63116429D02*
X145339762Y-63142619D01*
X145418334Y-63168810D01*
X145470715Y-63168810D01*
X145549286Y-63142619D01*
X145601667Y-63090238D01*
X145627858Y-63037857D01*
X145654048Y-62933095D01*
X145654048Y-62854524D01*
X145627858Y-62749762D01*
X145601667Y-62697381D01*
X145549286Y-62645000D01*
X145470715Y-62618810D01*
X145418334Y-62618810D01*
X145339762Y-62645000D01*
X145313572Y-62671190D01*
X144789762Y-63168810D02*
X145104048Y-63168810D01*
X144946905Y-63168810D02*
X144946905Y-62618810D01*
X144999286Y-62697381D01*
X145051667Y-62749762D01*
X145104048Y-62775952D01*
X144606429Y-62618810D02*
X144265952Y-62618810D01*
X144449286Y-62828333D01*
X144370714Y-62828333D01*
X144318333Y-62854524D01*
X144292143Y-62880714D01*
X144265952Y-62933095D01*
X144265952Y-63064048D01*
X144292143Y-63116429D01*
X144318333Y-63142619D01*
X144370714Y-63168810D01*
X144527857Y-63168810D01*
X144580238Y-63142619D01*
X144606429Y-63116429D01*
X146963572Y-63188429D02*
X146989762Y-63214619D01*
X147068334Y-63240810D01*
X147120715Y-63240810D01*
X147199286Y-63214619D01*
X147251667Y-63162238D01*
X147277858Y-63109857D01*
X147304048Y-63005095D01*
X147304048Y-62926524D01*
X147277858Y-62821762D01*
X147251667Y-62769381D01*
X147199286Y-62717000D01*
X147120715Y-62690810D01*
X147068334Y-62690810D01*
X146989762Y-62717000D01*
X146963572Y-62743190D01*
X146439762Y-63240810D02*
X146754048Y-63240810D01*
X146596905Y-63240810D02*
X146596905Y-62690810D01*
X146649286Y-62769381D01*
X146701667Y-62821762D01*
X146754048Y-62847952D01*
X145968333Y-62874143D02*
X145968333Y-63240810D01*
X146099286Y-62664619D02*
X146230238Y-63057476D01*
X145889762Y-63057476D01*
X148723572Y-63166429D02*
X148749762Y-63192619D01*
X148828334Y-63218810D01*
X148880715Y-63218810D01*
X148959286Y-63192619D01*
X149011667Y-63140238D01*
X149037858Y-63087857D01*
X149064048Y-62983095D01*
X149064048Y-62904524D01*
X149037858Y-62799762D01*
X149011667Y-62747381D01*
X148959286Y-62695000D01*
X148880715Y-62668810D01*
X148828334Y-62668810D01*
X148749762Y-62695000D01*
X148723572Y-62721190D01*
X148199762Y-63218810D02*
X148514048Y-63218810D01*
X148356905Y-63218810D02*
X148356905Y-62668810D01*
X148409286Y-62747381D01*
X148461667Y-62799762D01*
X148514048Y-62825952D01*
X147702143Y-62668810D02*
X147964048Y-62668810D01*
X147990238Y-62930714D01*
X147964048Y-62904524D01*
X147911667Y-62878333D01*
X147780714Y-62878333D01*
X147728333Y-62904524D01*
X147702143Y-62930714D01*
X147675952Y-62983095D01*
X147675952Y-63114048D01*
X147702143Y-63166429D01*
X147728333Y-63192619D01*
X147780714Y-63218810D01*
X147911667Y-63218810D01*
X147964048Y-63192619D01*
X147990238Y-63166429D01*
X153203572Y-119846429D02*
X153229762Y-119872619D01*
X153308334Y-119898810D01*
X153360715Y-119898810D01*
X153439286Y-119872619D01*
X153491667Y-119820238D01*
X153517858Y-119767857D01*
X153544048Y-119663095D01*
X153544048Y-119584524D01*
X153517858Y-119479762D01*
X153491667Y-119427381D01*
X153439286Y-119375000D01*
X153360715Y-119348810D01*
X153308334Y-119348810D01*
X153229762Y-119375000D01*
X153203572Y-119401190D01*
X152679762Y-119898810D02*
X152994048Y-119898810D01*
X152836905Y-119898810D02*
X152836905Y-119348810D01*
X152889286Y-119427381D01*
X152941667Y-119479762D01*
X152994048Y-119505952D01*
X152496429Y-119348810D02*
X152129762Y-119348810D01*
X152365476Y-119898810D01*
X155453572Y-116926429D02*
X155479762Y-116952619D01*
X155558334Y-116978810D01*
X155610715Y-116978810D01*
X155689286Y-116952619D01*
X155741667Y-116900238D01*
X155767858Y-116847857D01*
X155794048Y-116743095D01*
X155794048Y-116664524D01*
X155767858Y-116559762D01*
X155741667Y-116507381D01*
X155689286Y-116455000D01*
X155610715Y-116428810D01*
X155558334Y-116428810D01*
X155479762Y-116455000D01*
X155453572Y-116481190D01*
X154929762Y-116978810D02*
X155244048Y-116978810D01*
X155086905Y-116978810D02*
X155086905Y-116428810D01*
X155139286Y-116507381D01*
X155191667Y-116559762D01*
X155244048Y-116585952D01*
X154615476Y-116664524D02*
X154667857Y-116638333D01*
X154694048Y-116612143D01*
X154720238Y-116559762D01*
X154720238Y-116533571D01*
X154694048Y-116481190D01*
X154667857Y-116455000D01*
X154615476Y-116428810D01*
X154510714Y-116428810D01*
X154458333Y-116455000D01*
X154432143Y-116481190D01*
X154405952Y-116533571D01*
X154405952Y-116559762D01*
X154432143Y-116612143D01*
X154458333Y-116638333D01*
X154510714Y-116664524D01*
X154615476Y-116664524D01*
X154667857Y-116690714D01*
X154694048Y-116716905D01*
X154720238Y-116769286D01*
X154720238Y-116874048D01*
X154694048Y-116926429D01*
X154667857Y-116952619D01*
X154615476Y-116978810D01*
X154510714Y-116978810D01*
X154458333Y-116952619D01*
X154432143Y-116926429D01*
X154405952Y-116874048D01*
X154405952Y-116769286D01*
X154432143Y-116716905D01*
X154458333Y-116690714D01*
X154510714Y-116664524D01*
X157573572Y-107886429D02*
X157599762Y-107912619D01*
X157678334Y-107938810D01*
X157730715Y-107938810D01*
X157809286Y-107912619D01*
X157861667Y-107860238D01*
X157887858Y-107807857D01*
X157914048Y-107703095D01*
X157914048Y-107624524D01*
X157887858Y-107519762D01*
X157861667Y-107467381D01*
X157809286Y-107415000D01*
X157730715Y-107388810D01*
X157678334Y-107388810D01*
X157599762Y-107415000D01*
X157573572Y-107441190D01*
X157049762Y-107938810D02*
X157364048Y-107938810D01*
X157206905Y-107938810D02*
X157206905Y-107388810D01*
X157259286Y-107467381D01*
X157311667Y-107519762D01*
X157364048Y-107545952D01*
X156787857Y-107938810D02*
X156683095Y-107938810D01*
X156630714Y-107912619D01*
X156604524Y-107886429D01*
X156552143Y-107807857D01*
X156525952Y-107703095D01*
X156525952Y-107493571D01*
X156552143Y-107441190D01*
X156578333Y-107415000D01*
X156630714Y-107388810D01*
X156735476Y-107388810D01*
X156787857Y-107415000D01*
X156814048Y-107441190D01*
X156840238Y-107493571D01*
X156840238Y-107624524D01*
X156814048Y-107676905D01*
X156787857Y-107703095D01*
X156735476Y-107729286D01*
X156630714Y-107729286D01*
X156578333Y-107703095D01*
X156552143Y-107676905D01*
X156525952Y-107624524D01*
X151033572Y-103536429D02*
X151059762Y-103562619D01*
X151138334Y-103588810D01*
X151190715Y-103588810D01*
X151269286Y-103562619D01*
X151321667Y-103510238D01*
X151347858Y-103457857D01*
X151374048Y-103353095D01*
X151374048Y-103274524D01*
X151347858Y-103169762D01*
X151321667Y-103117381D01*
X151269286Y-103065000D01*
X151190715Y-103038810D01*
X151138334Y-103038810D01*
X151059762Y-103065000D01*
X151033572Y-103091190D01*
X150824048Y-103091190D02*
X150797858Y-103065000D01*
X150745477Y-103038810D01*
X150614524Y-103038810D01*
X150562143Y-103065000D01*
X150535953Y-103091190D01*
X150509762Y-103143571D01*
X150509762Y-103195952D01*
X150535953Y-103274524D01*
X150850239Y-103588810D01*
X150509762Y-103588810D01*
X150169286Y-103038810D02*
X150116905Y-103038810D01*
X150064524Y-103065000D01*
X150038333Y-103091190D01*
X150012143Y-103143571D01*
X149985952Y-103248333D01*
X149985952Y-103379286D01*
X150012143Y-103484048D01*
X150038333Y-103536429D01*
X150064524Y-103562619D01*
X150116905Y-103588810D01*
X150169286Y-103588810D01*
X150221667Y-103562619D01*
X150247857Y-103536429D01*
X150274048Y-103484048D01*
X150300238Y-103379286D01*
X150300238Y-103248333D01*
X150274048Y-103143571D01*
X150247857Y-103091190D01*
X150221667Y-103065000D01*
X150169286Y-103038810D01*
X146273572Y-97596429D02*
X146299762Y-97622619D01*
X146378334Y-97648810D01*
X146430715Y-97648810D01*
X146509286Y-97622619D01*
X146561667Y-97570238D01*
X146587858Y-97517857D01*
X146614048Y-97413095D01*
X146614048Y-97334524D01*
X146587858Y-97229762D01*
X146561667Y-97177381D01*
X146509286Y-97125000D01*
X146430715Y-97098810D01*
X146378334Y-97098810D01*
X146299762Y-97125000D01*
X146273572Y-97151190D01*
X146064048Y-97151190D02*
X146037858Y-97125000D01*
X145985477Y-97098810D01*
X145854524Y-97098810D01*
X145802143Y-97125000D01*
X145775953Y-97151190D01*
X145749762Y-97203571D01*
X145749762Y-97255952D01*
X145775953Y-97334524D01*
X146090239Y-97648810D01*
X145749762Y-97648810D01*
X145225952Y-97648810D02*
X145540238Y-97648810D01*
X145383095Y-97648810D02*
X145383095Y-97098810D01*
X145435476Y-97177381D01*
X145487857Y-97229762D01*
X145540238Y-97255952D01*
X163733572Y-65606429D02*
X163759762Y-65632619D01*
X163838334Y-65658810D01*
X163890715Y-65658810D01*
X163969286Y-65632619D01*
X164021667Y-65580238D01*
X164047858Y-65527857D01*
X164074048Y-65423095D01*
X164074048Y-65344524D01*
X164047858Y-65239762D01*
X164021667Y-65187381D01*
X163969286Y-65135000D01*
X163890715Y-65108810D01*
X163838334Y-65108810D01*
X163759762Y-65135000D01*
X163733572Y-65161190D01*
X163524048Y-65161190D02*
X163497858Y-65135000D01*
X163445477Y-65108810D01*
X163314524Y-65108810D01*
X163262143Y-65135000D01*
X163235953Y-65161190D01*
X163209762Y-65213571D01*
X163209762Y-65265952D01*
X163235953Y-65344524D01*
X163550239Y-65658810D01*
X163209762Y-65658810D01*
X163000238Y-65161190D02*
X162974048Y-65135000D01*
X162921667Y-65108810D01*
X162790714Y-65108810D01*
X162738333Y-65135000D01*
X162712143Y-65161190D01*
X162685952Y-65213571D01*
X162685952Y-65265952D01*
X162712143Y-65344524D01*
X163026429Y-65658810D01*
X162685952Y-65658810D01*
X156153572Y-50746429D02*
X156179762Y-50772619D01*
X156258334Y-50798810D01*
X156310715Y-50798810D01*
X156389286Y-50772619D01*
X156441667Y-50720238D01*
X156467858Y-50667857D01*
X156494048Y-50563095D01*
X156494048Y-50484524D01*
X156467858Y-50379762D01*
X156441667Y-50327381D01*
X156389286Y-50275000D01*
X156310715Y-50248810D01*
X156258334Y-50248810D01*
X156179762Y-50275000D01*
X156153572Y-50301190D01*
X155944048Y-50301190D02*
X155917858Y-50275000D01*
X155865477Y-50248810D01*
X155734524Y-50248810D01*
X155682143Y-50275000D01*
X155655953Y-50301190D01*
X155629762Y-50353571D01*
X155629762Y-50405952D01*
X155655953Y-50484524D01*
X155970239Y-50798810D01*
X155629762Y-50798810D01*
X155132143Y-50248810D02*
X155394048Y-50248810D01*
X155420238Y-50510714D01*
X155394048Y-50484524D01*
X155341667Y-50458333D01*
X155210714Y-50458333D01*
X155158333Y-50484524D01*
X155132143Y-50510714D01*
X155105952Y-50563095D01*
X155105952Y-50694048D01*
X155132143Y-50746429D01*
X155158333Y-50772619D01*
X155210714Y-50798810D01*
X155341667Y-50798810D01*
X155394048Y-50772619D01*
X155420238Y-50746429D01*
X139943572Y-99176429D02*
X139969762Y-99202619D01*
X140048334Y-99228810D01*
X140100715Y-99228810D01*
X140179286Y-99202619D01*
X140231667Y-99150238D01*
X140257858Y-99097857D01*
X140284048Y-98993095D01*
X140284048Y-98914524D01*
X140257858Y-98809762D01*
X140231667Y-98757381D01*
X140179286Y-98705000D01*
X140100715Y-98678810D01*
X140048334Y-98678810D01*
X139969762Y-98705000D01*
X139943572Y-98731190D01*
X139734048Y-98731190D02*
X139707858Y-98705000D01*
X139655477Y-98678810D01*
X139524524Y-98678810D01*
X139472143Y-98705000D01*
X139445953Y-98731190D01*
X139419762Y-98783571D01*
X139419762Y-98835952D01*
X139445953Y-98914524D01*
X139760239Y-99228810D01*
X139419762Y-99228810D01*
X138948333Y-98678810D02*
X139053095Y-98678810D01*
X139105476Y-98705000D01*
X139131667Y-98731190D01*
X139184048Y-98809762D01*
X139210238Y-98914524D01*
X139210238Y-99124048D01*
X139184048Y-99176429D01*
X139157857Y-99202619D01*
X139105476Y-99228810D01*
X139000714Y-99228810D01*
X138948333Y-99202619D01*
X138922143Y-99176429D01*
X138895952Y-99124048D01*
X138895952Y-98993095D01*
X138922143Y-98940714D01*
X138948333Y-98914524D01*
X139000714Y-98888333D01*
X139105476Y-98888333D01*
X139157857Y-98914524D01*
X139184048Y-98940714D01*
X139210238Y-98993095D01*
X147943572Y-56526429D02*
X147969762Y-56552619D01*
X148048334Y-56578810D01*
X148100715Y-56578810D01*
X148179286Y-56552619D01*
X148231667Y-56500238D01*
X148257858Y-56447857D01*
X148284048Y-56343095D01*
X148284048Y-56264524D01*
X148257858Y-56159762D01*
X148231667Y-56107381D01*
X148179286Y-56055000D01*
X148100715Y-56028810D01*
X148048334Y-56028810D01*
X147969762Y-56055000D01*
X147943572Y-56081190D01*
X147734048Y-56081190D02*
X147707858Y-56055000D01*
X147655477Y-56028810D01*
X147524524Y-56028810D01*
X147472143Y-56055000D01*
X147445953Y-56081190D01*
X147419762Y-56133571D01*
X147419762Y-56185952D01*
X147445953Y-56264524D01*
X147760239Y-56578810D01*
X147419762Y-56578810D01*
X147236429Y-56028810D02*
X146869762Y-56028810D01*
X147105476Y-56578810D01*
X153803572Y-108026429D02*
X153829762Y-108052619D01*
X153908334Y-108078810D01*
X153960715Y-108078810D01*
X154039286Y-108052619D01*
X154091667Y-108000238D01*
X154117858Y-107947857D01*
X154144048Y-107843095D01*
X154144048Y-107764524D01*
X154117858Y-107659762D01*
X154091667Y-107607381D01*
X154039286Y-107555000D01*
X153960715Y-107528810D01*
X153908334Y-107528810D01*
X153829762Y-107555000D01*
X153803572Y-107581190D01*
X153594048Y-107581190D02*
X153567858Y-107555000D01*
X153515477Y-107528810D01*
X153384524Y-107528810D01*
X153332143Y-107555000D01*
X153305953Y-107581190D01*
X153279762Y-107633571D01*
X153279762Y-107685952D01*
X153305953Y-107764524D01*
X153620239Y-108078810D01*
X153279762Y-108078810D01*
X152965476Y-107764524D02*
X153017857Y-107738333D01*
X153044048Y-107712143D01*
X153070238Y-107659762D01*
X153070238Y-107633571D01*
X153044048Y-107581190D01*
X153017857Y-107555000D01*
X152965476Y-107528810D01*
X152860714Y-107528810D01*
X152808333Y-107555000D01*
X152782143Y-107581190D01*
X152755952Y-107633571D01*
X152755952Y-107659762D01*
X152782143Y-107712143D01*
X152808333Y-107738333D01*
X152860714Y-107764524D01*
X152965476Y-107764524D01*
X153017857Y-107790714D01*
X153044048Y-107816905D01*
X153070238Y-107869286D01*
X153070238Y-107974048D01*
X153044048Y-108026429D01*
X153017857Y-108052619D01*
X152965476Y-108078810D01*
X152860714Y-108078810D01*
X152808333Y-108052619D01*
X152782143Y-108026429D01*
X152755952Y-107974048D01*
X152755952Y-107869286D01*
X152782143Y-107816905D01*
X152808333Y-107790714D01*
X152860714Y-107764524D01*
X145043572Y-51696429D02*
X145069762Y-51722619D01*
X145148334Y-51748810D01*
X145200715Y-51748810D01*
X145279286Y-51722619D01*
X145331667Y-51670238D01*
X145357858Y-51617857D01*
X145384048Y-51513095D01*
X145384048Y-51434524D01*
X145357858Y-51329762D01*
X145331667Y-51277381D01*
X145279286Y-51225000D01*
X145200715Y-51198810D01*
X145148334Y-51198810D01*
X145069762Y-51225000D01*
X145043572Y-51251190D01*
X144834048Y-51251190D02*
X144807858Y-51225000D01*
X144755477Y-51198810D01*
X144624524Y-51198810D01*
X144572143Y-51225000D01*
X144545953Y-51251190D01*
X144519762Y-51303571D01*
X144519762Y-51355952D01*
X144545953Y-51434524D01*
X144860239Y-51748810D01*
X144519762Y-51748810D01*
X144257857Y-51748810D02*
X144153095Y-51748810D01*
X144100714Y-51722619D01*
X144074524Y-51696429D01*
X144022143Y-51617857D01*
X143995952Y-51513095D01*
X143995952Y-51303571D01*
X144022143Y-51251190D01*
X144048333Y-51225000D01*
X144100714Y-51198810D01*
X144205476Y-51198810D01*
X144257857Y-51225000D01*
X144284048Y-51251190D01*
X144310238Y-51303571D01*
X144310238Y-51434524D01*
X144284048Y-51486905D01*
X144257857Y-51513095D01*
X144205476Y-51539286D01*
X144100714Y-51539286D01*
X144048333Y-51513095D01*
X144022143Y-51486905D01*
X143995952Y-51434524D01*
X145123572Y-108086429D02*
X145149762Y-108112619D01*
X145228334Y-108138810D01*
X145280715Y-108138810D01*
X145359286Y-108112619D01*
X145411667Y-108060238D01*
X145437858Y-108007857D01*
X145464048Y-107903095D01*
X145464048Y-107824524D01*
X145437858Y-107719762D01*
X145411667Y-107667381D01*
X145359286Y-107615000D01*
X145280715Y-107588810D01*
X145228334Y-107588810D01*
X145149762Y-107615000D01*
X145123572Y-107641190D01*
X144940239Y-107588810D02*
X144599762Y-107588810D01*
X144783096Y-107798333D01*
X144704524Y-107798333D01*
X144652143Y-107824524D01*
X144625953Y-107850714D01*
X144599762Y-107903095D01*
X144599762Y-108034048D01*
X144625953Y-108086429D01*
X144652143Y-108112619D01*
X144704524Y-108138810D01*
X144861667Y-108138810D01*
X144914048Y-108112619D01*
X144940239Y-108086429D01*
X144259286Y-107588810D02*
X144206905Y-107588810D01*
X144154524Y-107615000D01*
X144128333Y-107641190D01*
X144102143Y-107693571D01*
X144075952Y-107798333D01*
X144075952Y-107929286D01*
X144102143Y-108034048D01*
X144128333Y-108086429D01*
X144154524Y-108112619D01*
X144206905Y-108138810D01*
X144259286Y-108138810D01*
X144311667Y-108112619D01*
X144337857Y-108086429D01*
X144364048Y-108034048D01*
X144390238Y-107929286D01*
X144390238Y-107798333D01*
X144364048Y-107693571D01*
X144337857Y-107641190D01*
X144311667Y-107615000D01*
X144259286Y-107588810D01*
X154653572Y-56346429D02*
X154679762Y-56372619D01*
X154758334Y-56398810D01*
X154810715Y-56398810D01*
X154889286Y-56372619D01*
X154941667Y-56320238D01*
X154967858Y-56267857D01*
X154994048Y-56163095D01*
X154994048Y-56084524D01*
X154967858Y-55979762D01*
X154941667Y-55927381D01*
X154889286Y-55875000D01*
X154810715Y-55848810D01*
X154758334Y-55848810D01*
X154679762Y-55875000D01*
X154653572Y-55901190D01*
X154470239Y-55848810D02*
X154129762Y-55848810D01*
X154313096Y-56058333D01*
X154234524Y-56058333D01*
X154182143Y-56084524D01*
X154155953Y-56110714D01*
X154129762Y-56163095D01*
X154129762Y-56294048D01*
X154155953Y-56346429D01*
X154182143Y-56372619D01*
X154234524Y-56398810D01*
X154391667Y-56398810D01*
X154444048Y-56372619D01*
X154470239Y-56346429D01*
X153605952Y-56398810D02*
X153920238Y-56398810D01*
X153763095Y-56398810D02*
X153763095Y-55848810D01*
X153815476Y-55927381D01*
X153867857Y-55979762D01*
X153920238Y-56005952D01*
X147963572Y-98836429D02*
X147989762Y-98862619D01*
X148068334Y-98888810D01*
X148120715Y-98888810D01*
X148199286Y-98862619D01*
X148251667Y-98810238D01*
X148277858Y-98757857D01*
X148304048Y-98653095D01*
X148304048Y-98574524D01*
X148277858Y-98469762D01*
X148251667Y-98417381D01*
X148199286Y-98365000D01*
X148120715Y-98338810D01*
X148068334Y-98338810D01*
X147989762Y-98365000D01*
X147963572Y-98391190D01*
X147780239Y-98338810D02*
X147439762Y-98338810D01*
X147623096Y-98548333D01*
X147544524Y-98548333D01*
X147492143Y-98574524D01*
X147465953Y-98600714D01*
X147439762Y-98653095D01*
X147439762Y-98784048D01*
X147465953Y-98836429D01*
X147492143Y-98862619D01*
X147544524Y-98888810D01*
X147701667Y-98888810D01*
X147754048Y-98862619D01*
X147780239Y-98836429D01*
X147230238Y-98391190D02*
X147204048Y-98365000D01*
X147151667Y-98338810D01*
X147020714Y-98338810D01*
X146968333Y-98365000D01*
X146942143Y-98391190D01*
X146915952Y-98443571D01*
X146915952Y-98495952D01*
X146942143Y-98574524D01*
X147256429Y-98888810D01*
X146915952Y-98888810D01*
X152663572Y-64966429D02*
X152689762Y-64992619D01*
X152768334Y-65018810D01*
X152820715Y-65018810D01*
X152899286Y-64992619D01*
X152951667Y-64940238D01*
X152977858Y-64887857D01*
X153004048Y-64783095D01*
X153004048Y-64704524D01*
X152977858Y-64599762D01*
X152951667Y-64547381D01*
X152899286Y-64495000D01*
X152820715Y-64468810D01*
X152768334Y-64468810D01*
X152689762Y-64495000D01*
X152663572Y-64521190D01*
X152480239Y-64468810D02*
X152139762Y-64468810D01*
X152323096Y-64678333D01*
X152244524Y-64678333D01*
X152192143Y-64704524D01*
X152165953Y-64730714D01*
X152139762Y-64783095D01*
X152139762Y-64914048D01*
X152165953Y-64966429D01*
X152192143Y-64992619D01*
X152244524Y-65018810D01*
X152401667Y-65018810D01*
X152454048Y-64992619D01*
X152480239Y-64966429D01*
X151956429Y-64468810D02*
X151615952Y-64468810D01*
X151799286Y-64678333D01*
X151720714Y-64678333D01*
X151668333Y-64704524D01*
X151642143Y-64730714D01*
X151615952Y-64783095D01*
X151615952Y-64914048D01*
X151642143Y-64966429D01*
X151668333Y-64992619D01*
X151720714Y-65018810D01*
X151877857Y-65018810D01*
X151930238Y-64992619D01*
X151956429Y-64966429D01*
X151283572Y-99306429D02*
X151309762Y-99332619D01*
X151388334Y-99358810D01*
X151440715Y-99358810D01*
X151519286Y-99332619D01*
X151571667Y-99280238D01*
X151597858Y-99227857D01*
X151624048Y-99123095D01*
X151624048Y-99044524D01*
X151597858Y-98939762D01*
X151571667Y-98887381D01*
X151519286Y-98835000D01*
X151440715Y-98808810D01*
X151388334Y-98808810D01*
X151309762Y-98835000D01*
X151283572Y-98861190D01*
X151100239Y-98808810D02*
X150759762Y-98808810D01*
X150943096Y-99018333D01*
X150864524Y-99018333D01*
X150812143Y-99044524D01*
X150785953Y-99070714D01*
X150759762Y-99123095D01*
X150759762Y-99254048D01*
X150785953Y-99306429D01*
X150812143Y-99332619D01*
X150864524Y-99358810D01*
X151021667Y-99358810D01*
X151074048Y-99332619D01*
X151100239Y-99306429D01*
X150288333Y-98992143D02*
X150288333Y-99358810D01*
X150419286Y-98782619D02*
X150550238Y-99175476D01*
X150209762Y-99175476D01*
X139496429Y-95696428D02*
X139522619Y-95670238D01*
X139548810Y-95591666D01*
X139548810Y-95539285D01*
X139522619Y-95460714D01*
X139470238Y-95408333D01*
X139417857Y-95382142D01*
X139313095Y-95355952D01*
X139234524Y-95355952D01*
X139129762Y-95382142D01*
X139077381Y-95408333D01*
X139025000Y-95460714D01*
X138998810Y-95539285D01*
X138998810Y-95591666D01*
X139025000Y-95670238D01*
X139051190Y-95696428D01*
X138998810Y-95879761D02*
X138998810Y-96220238D01*
X139208333Y-96036904D01*
X139208333Y-96115476D01*
X139234524Y-96167857D01*
X139260714Y-96194047D01*
X139313095Y-96220238D01*
X139444048Y-96220238D01*
X139496429Y-96194047D01*
X139522619Y-96167857D01*
X139548810Y-96115476D01*
X139548810Y-95958333D01*
X139522619Y-95905952D01*
X139496429Y-95879761D01*
X138998810Y-96717857D02*
X138998810Y-96455952D01*
X139260714Y-96429762D01*
X139234524Y-96455952D01*
X139208333Y-96508333D01*
X139208333Y-96639286D01*
X139234524Y-96691667D01*
X139260714Y-96717857D01*
X139313095Y-96744048D01*
X139444048Y-96744048D01*
X139496429Y-96717857D01*
X139522619Y-96691667D01*
X139548810Y-96639286D01*
X139548810Y-96508333D01*
X139522619Y-96455952D01*
X139496429Y-96429762D01*
X143853572Y-88646429D02*
X143879762Y-88672619D01*
X143958334Y-88698810D01*
X144010715Y-88698810D01*
X144089286Y-88672619D01*
X144141667Y-88620238D01*
X144167858Y-88567857D01*
X144194048Y-88463095D01*
X144194048Y-88384524D01*
X144167858Y-88279762D01*
X144141667Y-88227381D01*
X144089286Y-88175000D01*
X144010715Y-88148810D01*
X143958334Y-88148810D01*
X143879762Y-88175000D01*
X143853572Y-88201190D01*
X143670239Y-88148810D02*
X143329762Y-88148810D01*
X143513096Y-88358333D01*
X143434524Y-88358333D01*
X143382143Y-88384524D01*
X143355953Y-88410714D01*
X143329762Y-88463095D01*
X143329762Y-88594048D01*
X143355953Y-88646429D01*
X143382143Y-88672619D01*
X143434524Y-88698810D01*
X143591667Y-88698810D01*
X143644048Y-88672619D01*
X143670239Y-88646429D01*
X142858333Y-88148810D02*
X142963095Y-88148810D01*
X143015476Y-88175000D01*
X143041667Y-88201190D01*
X143094048Y-88279762D01*
X143120238Y-88384524D01*
X143120238Y-88594048D01*
X143094048Y-88646429D01*
X143067857Y-88672619D01*
X143015476Y-88698810D01*
X142910714Y-88698810D01*
X142858333Y-88672619D01*
X142832143Y-88646429D01*
X142805952Y-88594048D01*
X142805952Y-88463095D01*
X142832143Y-88410714D01*
X142858333Y-88384524D01*
X142910714Y-88358333D01*
X143015476Y-88358333D01*
X143067857Y-88384524D01*
X143094048Y-88410714D01*
X143120238Y-88463095D01*
X167393572Y-71766429D02*
X167419762Y-71792619D01*
X167498334Y-71818810D01*
X167550715Y-71818810D01*
X167629286Y-71792619D01*
X167681667Y-71740238D01*
X167707858Y-71687857D01*
X167734048Y-71583095D01*
X167734048Y-71504524D01*
X167707858Y-71399762D01*
X167681667Y-71347381D01*
X167629286Y-71295000D01*
X167550715Y-71268810D01*
X167498334Y-71268810D01*
X167419762Y-71295000D01*
X167393572Y-71321190D01*
X167210239Y-71268810D02*
X166869762Y-71268810D01*
X167053096Y-71478333D01*
X166974524Y-71478333D01*
X166922143Y-71504524D01*
X166895953Y-71530714D01*
X166869762Y-71583095D01*
X166869762Y-71714048D01*
X166895953Y-71766429D01*
X166922143Y-71792619D01*
X166974524Y-71818810D01*
X167131667Y-71818810D01*
X167184048Y-71792619D01*
X167210239Y-71766429D01*
X166686429Y-71268810D02*
X166319762Y-71268810D01*
X166555476Y-71818810D01*
X167483572Y-76496429D02*
X167509762Y-76522619D01*
X167588334Y-76548810D01*
X167640715Y-76548810D01*
X167719286Y-76522619D01*
X167771667Y-76470238D01*
X167797858Y-76417857D01*
X167824048Y-76313095D01*
X167824048Y-76234524D01*
X167797858Y-76129762D01*
X167771667Y-76077381D01*
X167719286Y-76025000D01*
X167640715Y-75998810D01*
X167588334Y-75998810D01*
X167509762Y-76025000D01*
X167483572Y-76051190D01*
X167300239Y-75998810D02*
X166959762Y-75998810D01*
X167143096Y-76208333D01*
X167064524Y-76208333D01*
X167012143Y-76234524D01*
X166985953Y-76260714D01*
X166959762Y-76313095D01*
X166959762Y-76444048D01*
X166985953Y-76496429D01*
X167012143Y-76522619D01*
X167064524Y-76548810D01*
X167221667Y-76548810D01*
X167274048Y-76522619D01*
X167300239Y-76496429D01*
X166645476Y-76234524D02*
X166697857Y-76208333D01*
X166724048Y-76182143D01*
X166750238Y-76129762D01*
X166750238Y-76103571D01*
X166724048Y-76051190D01*
X166697857Y-76025000D01*
X166645476Y-75998810D01*
X166540714Y-75998810D01*
X166488333Y-76025000D01*
X166462143Y-76051190D01*
X166435952Y-76103571D01*
X166435952Y-76129762D01*
X166462143Y-76182143D01*
X166488333Y-76208333D01*
X166540714Y-76234524D01*
X166645476Y-76234524D01*
X166697857Y-76260714D01*
X166724048Y-76286905D01*
X166750238Y-76339286D01*
X166750238Y-76444048D01*
X166724048Y-76496429D01*
X166697857Y-76522619D01*
X166645476Y-76548810D01*
X166540714Y-76548810D01*
X166488333Y-76522619D01*
X166462143Y-76496429D01*
X166435952Y-76444048D01*
X166435952Y-76339286D01*
X166462143Y-76286905D01*
X166488333Y-76260714D01*
X166540714Y-76234524D01*
X161613572Y-81056429D02*
X161639762Y-81082619D01*
X161718334Y-81108810D01*
X161770715Y-81108810D01*
X161849286Y-81082619D01*
X161901667Y-81030238D01*
X161927858Y-80977857D01*
X161954048Y-80873095D01*
X161954048Y-80794524D01*
X161927858Y-80689762D01*
X161901667Y-80637381D01*
X161849286Y-80585000D01*
X161770715Y-80558810D01*
X161718334Y-80558810D01*
X161639762Y-80585000D01*
X161613572Y-80611190D01*
X161430239Y-80558810D02*
X161089762Y-80558810D01*
X161273096Y-80768333D01*
X161194524Y-80768333D01*
X161142143Y-80794524D01*
X161115953Y-80820714D01*
X161089762Y-80873095D01*
X161089762Y-81004048D01*
X161115953Y-81056429D01*
X161142143Y-81082619D01*
X161194524Y-81108810D01*
X161351667Y-81108810D01*
X161404048Y-81082619D01*
X161430239Y-81056429D01*
X160827857Y-81108810D02*
X160723095Y-81108810D01*
X160670714Y-81082619D01*
X160644524Y-81056429D01*
X160592143Y-80977857D01*
X160565952Y-80873095D01*
X160565952Y-80663571D01*
X160592143Y-80611190D01*
X160618333Y-80585000D01*
X160670714Y-80558810D01*
X160775476Y-80558810D01*
X160827857Y-80585000D01*
X160854048Y-80611190D01*
X160880238Y-80663571D01*
X160880238Y-80794524D01*
X160854048Y-80846905D01*
X160827857Y-80873095D01*
X160775476Y-80899286D01*
X160670714Y-80899286D01*
X160618333Y-80873095D01*
X160592143Y-80846905D01*
X160565952Y-80794524D01*
X167843572Y-89206429D02*
X167869762Y-89232619D01*
X167948334Y-89258810D01*
X168000715Y-89258810D01*
X168079286Y-89232619D01*
X168131667Y-89180238D01*
X168157858Y-89127857D01*
X168184048Y-89023095D01*
X168184048Y-88944524D01*
X168157858Y-88839762D01*
X168131667Y-88787381D01*
X168079286Y-88735000D01*
X168000715Y-88708810D01*
X167948334Y-88708810D01*
X167869762Y-88735000D01*
X167843572Y-88761190D01*
X167372143Y-88892143D02*
X167372143Y-89258810D01*
X167503096Y-88682619D02*
X167634048Y-89075476D01*
X167293572Y-89075476D01*
X166979286Y-88708810D02*
X166926905Y-88708810D01*
X166874524Y-88735000D01*
X166848333Y-88761190D01*
X166822143Y-88813571D01*
X166795952Y-88918333D01*
X166795952Y-89049286D01*
X166822143Y-89154048D01*
X166848333Y-89206429D01*
X166874524Y-89232619D01*
X166926905Y-89258810D01*
X166979286Y-89258810D01*
X167031667Y-89232619D01*
X167057857Y-89206429D01*
X167084048Y-89154048D01*
X167110238Y-89049286D01*
X167110238Y-88918333D01*
X167084048Y-88813571D01*
X167057857Y-88761190D01*
X167031667Y-88735000D01*
X166979286Y-88708810D01*
X131653572Y-64076429D02*
X131679762Y-64102619D01*
X131758334Y-64128810D01*
X131810715Y-64128810D01*
X131889286Y-64102619D01*
X131941667Y-64050238D01*
X131967858Y-63997857D01*
X131994048Y-63893095D01*
X131994048Y-63814524D01*
X131967858Y-63709762D01*
X131941667Y-63657381D01*
X131889286Y-63605000D01*
X131810715Y-63578810D01*
X131758334Y-63578810D01*
X131679762Y-63605000D01*
X131653572Y-63631190D01*
X131182143Y-63762143D02*
X131182143Y-64128810D01*
X131313096Y-63552619D02*
X131444048Y-63945476D01*
X131103572Y-63945476D01*
X130605952Y-64128810D02*
X130920238Y-64128810D01*
X130763095Y-64128810D02*
X130763095Y-63578810D01*
X130815476Y-63657381D01*
X130867857Y-63709762D01*
X130920238Y-63735952D01*
X130393572Y-67576429D02*
X130419762Y-67602619D01*
X130498334Y-67628810D01*
X130550715Y-67628810D01*
X130629286Y-67602619D01*
X130681667Y-67550238D01*
X130707858Y-67497857D01*
X130734048Y-67393095D01*
X130734048Y-67314524D01*
X130707858Y-67209762D01*
X130681667Y-67157381D01*
X130629286Y-67105000D01*
X130550715Y-67078810D01*
X130498334Y-67078810D01*
X130419762Y-67105000D01*
X130393572Y-67131190D01*
X129922143Y-67262143D02*
X129922143Y-67628810D01*
X130053096Y-67052619D02*
X130184048Y-67445476D01*
X129843572Y-67445476D01*
X129660238Y-67131190D02*
X129634048Y-67105000D01*
X129581667Y-67078810D01*
X129450714Y-67078810D01*
X129398333Y-67105000D01*
X129372143Y-67131190D01*
X129345952Y-67183571D01*
X129345952Y-67235952D01*
X129372143Y-67314524D01*
X129686429Y-67628810D01*
X129345952Y-67628810D01*
X167955953Y-94168810D02*
X167955953Y-93618810D01*
X167825000Y-93618810D01*
X167746429Y-93645000D01*
X167694048Y-93697381D01*
X167667857Y-93749762D01*
X167641667Y-93854524D01*
X167641667Y-93933095D01*
X167667857Y-94037857D01*
X167694048Y-94090238D01*
X167746429Y-94142619D01*
X167825000Y-94168810D01*
X167955953Y-94168810D01*
X167458334Y-93618810D02*
X167117857Y-93618810D01*
X167301191Y-93828333D01*
X167222619Y-93828333D01*
X167170238Y-93854524D01*
X167144048Y-93880714D01*
X167117857Y-93933095D01*
X167117857Y-94064048D01*
X167144048Y-94116429D01*
X167170238Y-94142619D01*
X167222619Y-94168810D01*
X167379762Y-94168810D01*
X167432143Y-94142619D01*
X167458334Y-94116429D01*
X160265953Y-98128810D02*
X160265953Y-97578810D01*
X160135000Y-97578810D01*
X160056429Y-97605000D01*
X160004048Y-97657381D01*
X159977857Y-97709762D01*
X159951667Y-97814524D01*
X159951667Y-97893095D01*
X159977857Y-97997857D01*
X160004048Y-98050238D01*
X160056429Y-98102619D01*
X160135000Y-98128810D01*
X160265953Y-98128810D01*
X159480238Y-97578810D02*
X159585000Y-97578810D01*
X159637381Y-97605000D01*
X159663572Y-97631190D01*
X159715953Y-97709762D01*
X159742143Y-97814524D01*
X159742143Y-98024048D01*
X159715953Y-98076429D01*
X159689762Y-98102619D01*
X159637381Y-98128810D01*
X159532619Y-98128810D01*
X159480238Y-98102619D01*
X159454048Y-98076429D01*
X159427857Y-98024048D01*
X159427857Y-97893095D01*
X159454048Y-97840714D01*
X159480238Y-97814524D01*
X159532619Y-97788333D01*
X159637381Y-97788333D01*
X159689762Y-97814524D01*
X159715953Y-97840714D01*
X159742143Y-97893095D01*
X165682381Y-94361190D02*
X165734762Y-94335000D01*
X165787143Y-94282619D01*
X165865714Y-94204048D01*
X165918095Y-94177857D01*
X165970476Y-94177857D01*
X165944286Y-94308810D02*
X165996667Y-94282619D01*
X166049048Y-94230238D01*
X166075238Y-94125476D01*
X166075238Y-93942143D01*
X166049048Y-93837381D01*
X165996667Y-93785000D01*
X165944286Y-93758810D01*
X165839524Y-93758810D01*
X165787143Y-93785000D01*
X165734762Y-93837381D01*
X165708571Y-93942143D01*
X165708571Y-94125476D01*
X165734762Y-94230238D01*
X165787143Y-94282619D01*
X165839524Y-94308810D01*
X165944286Y-94308810D01*
X165237143Y-93942143D02*
X165237143Y-94308810D01*
X165368096Y-93732619D02*
X165499048Y-94125476D01*
X165158572Y-94125476D01*
X150961667Y-63108810D02*
X151145000Y-62846905D01*
X151275953Y-63108810D02*
X151275953Y-62558810D01*
X151066429Y-62558810D01*
X151014048Y-62585000D01*
X150987857Y-62611190D01*
X150961667Y-62663571D01*
X150961667Y-62742143D01*
X150987857Y-62794524D01*
X151014048Y-62820714D01*
X151066429Y-62846905D01*
X151275953Y-62846905D01*
X150437857Y-63108810D02*
X150752143Y-63108810D01*
X150595000Y-63108810D02*
X150595000Y-62558810D01*
X150647381Y-62637381D01*
X150699762Y-62689762D01*
X150752143Y-62715952D01*
X139511667Y-91018810D02*
X139695000Y-90756905D01*
X139825953Y-91018810D02*
X139825953Y-90468810D01*
X139616429Y-90468810D01*
X139564048Y-90495000D01*
X139537857Y-90521190D01*
X139511667Y-90573571D01*
X139511667Y-90652143D01*
X139537857Y-90704524D01*
X139564048Y-90730714D01*
X139616429Y-90756905D01*
X139825953Y-90756905D01*
X139302143Y-90521190D02*
X139275953Y-90495000D01*
X139223572Y-90468810D01*
X139092619Y-90468810D01*
X139040238Y-90495000D01*
X139014048Y-90521190D01*
X138987857Y-90573571D01*
X138987857Y-90625952D01*
X139014048Y-90704524D01*
X139328334Y-91018810D01*
X138987857Y-91018810D01*
X136941667Y-63348810D02*
X137125000Y-63086905D01*
X137255953Y-63348810D02*
X137255953Y-62798810D01*
X137046429Y-62798810D01*
X136994048Y-62825000D01*
X136967857Y-62851190D01*
X136941667Y-62903571D01*
X136941667Y-62982143D01*
X136967857Y-63034524D01*
X136994048Y-63060714D01*
X137046429Y-63086905D01*
X137255953Y-63086905D01*
X136444048Y-62798810D02*
X136705953Y-62798810D01*
X136732143Y-63060714D01*
X136705953Y-63034524D01*
X136653572Y-63008333D01*
X136522619Y-63008333D01*
X136470238Y-63034524D01*
X136444048Y-63060714D01*
X136417857Y-63113095D01*
X136417857Y-63244048D01*
X136444048Y-63296429D01*
X136470238Y-63322619D01*
X136522619Y-63348810D01*
X136653572Y-63348810D01*
X136705953Y-63322619D01*
X136732143Y-63296429D01*
X148311667Y-88698810D02*
X148495000Y-88436905D01*
X148625953Y-88698810D02*
X148625953Y-88148810D01*
X148416429Y-88148810D01*
X148364048Y-88175000D01*
X148337857Y-88201190D01*
X148311667Y-88253571D01*
X148311667Y-88332143D01*
X148337857Y-88384524D01*
X148364048Y-88410714D01*
X148416429Y-88436905D01*
X148625953Y-88436905D01*
X147840238Y-88148810D02*
X147945000Y-88148810D01*
X147997381Y-88175000D01*
X148023572Y-88201190D01*
X148075953Y-88279762D01*
X148102143Y-88384524D01*
X148102143Y-88594048D01*
X148075953Y-88646429D01*
X148049762Y-88672619D01*
X147997381Y-88698810D01*
X147892619Y-88698810D01*
X147840238Y-88672619D01*
X147814048Y-88646429D01*
X147787857Y-88594048D01*
X147787857Y-88463095D01*
X147814048Y-88410714D01*
X147840238Y-88384524D01*
X147892619Y-88358333D01*
X147997381Y-88358333D01*
X148049762Y-88384524D01*
X148075953Y-88410714D01*
X148102143Y-88463095D01*
X146541667Y-88678810D02*
X146725000Y-88416905D01*
X146855953Y-88678810D02*
X146855953Y-88128810D01*
X146646429Y-88128810D01*
X146594048Y-88155000D01*
X146567857Y-88181190D01*
X146541667Y-88233571D01*
X146541667Y-88312143D01*
X146567857Y-88364524D01*
X146594048Y-88390714D01*
X146646429Y-88416905D01*
X146855953Y-88416905D01*
X146358334Y-88128810D02*
X145991667Y-88128810D01*
X146227381Y-88678810D01*
X139491667Y-62168810D02*
X139675000Y-61906905D01*
X139805953Y-62168810D02*
X139805953Y-61618810D01*
X139596429Y-61618810D01*
X139544048Y-61645000D01*
X139517857Y-61671190D01*
X139491667Y-61723571D01*
X139491667Y-61802143D01*
X139517857Y-61854524D01*
X139544048Y-61880714D01*
X139596429Y-61906905D01*
X139805953Y-61906905D01*
X139229762Y-62168810D02*
X139125000Y-62168810D01*
X139072619Y-62142619D01*
X139046429Y-62116429D01*
X138994048Y-62037857D01*
X138967857Y-61933095D01*
X138967857Y-61723571D01*
X138994048Y-61671190D01*
X139020238Y-61645000D01*
X139072619Y-61618810D01*
X139177381Y-61618810D01*
X139229762Y-61645000D01*
X139255953Y-61671190D01*
X139282143Y-61723571D01*
X139282143Y-61854524D01*
X139255953Y-61906905D01*
X139229762Y-61933095D01*
X139177381Y-61959286D01*
X139072619Y-61959286D01*
X139020238Y-61933095D01*
X138994048Y-61906905D01*
X138967857Y-61854524D01*
X164713572Y-98588810D02*
X164896905Y-98326905D01*
X165027858Y-98588810D02*
X165027858Y-98038810D01*
X164818334Y-98038810D01*
X164765953Y-98065000D01*
X164739762Y-98091190D01*
X164713572Y-98143571D01*
X164713572Y-98222143D01*
X164739762Y-98274524D01*
X164765953Y-98300714D01*
X164818334Y-98326905D01*
X165027858Y-98326905D01*
X164189762Y-98588810D02*
X164504048Y-98588810D01*
X164346905Y-98588810D02*
X164346905Y-98038810D01*
X164399286Y-98117381D01*
X164451667Y-98169762D01*
X164504048Y-98195952D01*
X163849286Y-98038810D02*
X163796905Y-98038810D01*
X163744524Y-98065000D01*
X163718333Y-98091190D01*
X163692143Y-98143571D01*
X163665952Y-98248333D01*
X163665952Y-98379286D01*
X163692143Y-98484048D01*
X163718333Y-98536429D01*
X163744524Y-98562619D01*
X163796905Y-98588810D01*
X163849286Y-98588810D01*
X163901667Y-98562619D01*
X163927857Y-98536429D01*
X163954048Y-98484048D01*
X163980238Y-98379286D01*
X163980238Y-98248333D01*
X163954048Y-98143571D01*
X163927857Y-98091190D01*
X163901667Y-98065000D01*
X163849286Y-98038810D01*
X137853572Y-61518810D02*
X138036905Y-61256905D01*
X138167858Y-61518810D02*
X138167858Y-60968810D01*
X137958334Y-60968810D01*
X137905953Y-60995000D01*
X137879762Y-61021190D01*
X137853572Y-61073571D01*
X137853572Y-61152143D01*
X137879762Y-61204524D01*
X137905953Y-61230714D01*
X137958334Y-61256905D01*
X138167858Y-61256905D01*
X137329762Y-61518810D02*
X137644048Y-61518810D01*
X137486905Y-61518810D02*
X137486905Y-60968810D01*
X137539286Y-61047381D01*
X137591667Y-61099762D01*
X137644048Y-61125952D01*
X136805952Y-61518810D02*
X137120238Y-61518810D01*
X136963095Y-61518810D02*
X136963095Y-60968810D01*
X137015476Y-61047381D01*
X137067857Y-61099762D01*
X137120238Y-61125952D01*
X144993572Y-56558810D02*
X145176905Y-56296905D01*
X145307858Y-56558810D02*
X145307858Y-56008810D01*
X145098334Y-56008810D01*
X145045953Y-56035000D01*
X145019762Y-56061190D01*
X144993572Y-56113571D01*
X144993572Y-56192143D01*
X145019762Y-56244524D01*
X145045953Y-56270714D01*
X145098334Y-56296905D01*
X145307858Y-56296905D01*
X144469762Y-56558810D02*
X144784048Y-56558810D01*
X144626905Y-56558810D02*
X144626905Y-56008810D01*
X144679286Y-56087381D01*
X144731667Y-56139762D01*
X144784048Y-56165952D01*
X144286429Y-56008810D02*
X143919762Y-56008810D01*
X144155476Y-56558810D01*
X143609572Y-62986810D02*
X143792905Y-62724905D01*
X143923858Y-62986810D02*
X143923858Y-62436810D01*
X143714334Y-62436810D01*
X143661953Y-62463000D01*
X143635762Y-62489190D01*
X143609572Y-62541571D01*
X143609572Y-62620143D01*
X143635762Y-62672524D01*
X143661953Y-62698714D01*
X143714334Y-62724905D01*
X143923858Y-62724905D01*
X143085762Y-62986810D02*
X143400048Y-62986810D01*
X143242905Y-62986810D02*
X143242905Y-62436810D01*
X143295286Y-62515381D01*
X143347667Y-62567762D01*
X143400048Y-62593952D01*
X142771476Y-62672524D02*
X142823857Y-62646333D01*
X142850048Y-62620143D01*
X142876238Y-62567762D01*
X142876238Y-62541571D01*
X142850048Y-62489190D01*
X142823857Y-62463000D01*
X142771476Y-62436810D01*
X142666714Y-62436810D01*
X142614333Y-62463000D01*
X142588143Y-62489190D01*
X142561952Y-62541571D01*
X142561952Y-62567762D01*
X142588143Y-62620143D01*
X142614333Y-62646333D01*
X142666714Y-62672524D01*
X142771476Y-62672524D01*
X142823857Y-62698714D01*
X142850048Y-62724905D01*
X142876238Y-62777286D01*
X142876238Y-62882048D01*
X142850048Y-62934429D01*
X142823857Y-62960619D01*
X142771476Y-62986810D01*
X142666714Y-62986810D01*
X142614333Y-62960619D01*
X142588143Y-62934429D01*
X142561952Y-62882048D01*
X142561952Y-62777286D01*
X142588143Y-62724905D01*
X142614333Y-62698714D01*
X142666714Y-62672524D01*
X159393572Y-102788810D02*
X159576905Y-102526905D01*
X159707858Y-102788810D02*
X159707858Y-102238810D01*
X159498334Y-102238810D01*
X159445953Y-102265000D01*
X159419762Y-102291190D01*
X159393572Y-102343571D01*
X159393572Y-102422143D01*
X159419762Y-102474524D01*
X159445953Y-102500714D01*
X159498334Y-102526905D01*
X159707858Y-102526905D01*
X158869762Y-102788810D02*
X159184048Y-102788810D01*
X159026905Y-102788810D02*
X159026905Y-102238810D01*
X159079286Y-102317381D01*
X159131667Y-102369762D01*
X159184048Y-102395952D01*
X158607857Y-102788810D02*
X158503095Y-102788810D01*
X158450714Y-102762619D01*
X158424524Y-102736429D01*
X158372143Y-102657857D01*
X158345952Y-102553095D01*
X158345952Y-102343571D01*
X158372143Y-102291190D01*
X158398333Y-102265000D01*
X158450714Y-102238810D01*
X158555476Y-102238810D01*
X158607857Y-102265000D01*
X158634048Y-102291190D01*
X158660238Y-102343571D01*
X158660238Y-102474524D01*
X158634048Y-102526905D01*
X158607857Y-102553095D01*
X158555476Y-102579286D01*
X158450714Y-102579286D01*
X158398333Y-102553095D01*
X158372143Y-102526905D01*
X158345952Y-102474524D01*
X135223572Y-95338810D02*
X135406905Y-95076905D01*
X135537858Y-95338810D02*
X135537858Y-94788810D01*
X135328334Y-94788810D01*
X135275953Y-94815000D01*
X135249762Y-94841190D01*
X135223572Y-94893571D01*
X135223572Y-94972143D01*
X135249762Y-95024524D01*
X135275953Y-95050714D01*
X135328334Y-95076905D01*
X135537858Y-95076905D01*
X135014048Y-94841190D02*
X134987858Y-94815000D01*
X134935477Y-94788810D01*
X134804524Y-94788810D01*
X134752143Y-94815000D01*
X134725953Y-94841190D01*
X134699762Y-94893571D01*
X134699762Y-94945952D01*
X134725953Y-95024524D01*
X135040239Y-95338810D01*
X134699762Y-95338810D01*
X134359286Y-94788810D02*
X134306905Y-94788810D01*
X134254524Y-94815000D01*
X134228333Y-94841190D01*
X134202143Y-94893571D01*
X134175952Y-94998333D01*
X134175952Y-95129286D01*
X134202143Y-95234048D01*
X134228333Y-95286429D01*
X134254524Y-95312619D01*
X134306905Y-95338810D01*
X134359286Y-95338810D01*
X134411667Y-95312619D01*
X134437857Y-95286429D01*
X134464048Y-95234048D01*
X134490238Y-95129286D01*
X134490238Y-94998333D01*
X134464048Y-94893571D01*
X134437857Y-94841190D01*
X134411667Y-94815000D01*
X134359286Y-94788810D01*
X138598810Y-95346428D02*
X138336905Y-95163095D01*
X138598810Y-95032142D02*
X138048810Y-95032142D01*
X138048810Y-95241666D01*
X138075000Y-95294047D01*
X138101190Y-95320238D01*
X138153571Y-95346428D01*
X138232143Y-95346428D01*
X138284524Y-95320238D01*
X138310714Y-95294047D01*
X138336905Y-95241666D01*
X138336905Y-95032142D01*
X138101190Y-95555952D02*
X138075000Y-95582142D01*
X138048810Y-95634523D01*
X138048810Y-95765476D01*
X138075000Y-95817857D01*
X138101190Y-95844047D01*
X138153571Y-95870238D01*
X138205952Y-95870238D01*
X138284524Y-95844047D01*
X138598810Y-95529761D01*
X138598810Y-95870238D01*
X138598810Y-96394048D02*
X138598810Y-96079762D01*
X138598810Y-96236905D02*
X138048810Y-96236905D01*
X138127381Y-96184524D01*
X138179762Y-96132143D01*
X138205952Y-96079762D01*
X159403572Y-105068810D02*
X159586905Y-104806905D01*
X159717858Y-105068810D02*
X159717858Y-104518810D01*
X159508334Y-104518810D01*
X159455953Y-104545000D01*
X159429762Y-104571190D01*
X159403572Y-104623571D01*
X159403572Y-104702143D01*
X159429762Y-104754524D01*
X159455953Y-104780714D01*
X159508334Y-104806905D01*
X159717858Y-104806905D01*
X159194048Y-104571190D02*
X159167858Y-104545000D01*
X159115477Y-104518810D01*
X158984524Y-104518810D01*
X158932143Y-104545000D01*
X158905953Y-104571190D01*
X158879762Y-104623571D01*
X158879762Y-104675952D01*
X158905953Y-104754524D01*
X159220239Y-105068810D01*
X158879762Y-105068810D01*
X158670238Y-104571190D02*
X158644048Y-104545000D01*
X158591667Y-104518810D01*
X158460714Y-104518810D01*
X158408333Y-104545000D01*
X158382143Y-104571190D01*
X158355952Y-104623571D01*
X158355952Y-104675952D01*
X158382143Y-104754524D01*
X158696429Y-105068810D01*
X158355952Y-105068810D01*
X153023572Y-103328810D02*
X153206905Y-103066905D01*
X153337858Y-103328810D02*
X153337858Y-102778810D01*
X153128334Y-102778810D01*
X153075953Y-102805000D01*
X153049762Y-102831190D01*
X153023572Y-102883571D01*
X153023572Y-102962143D01*
X153049762Y-103014524D01*
X153075953Y-103040714D01*
X153128334Y-103066905D01*
X153337858Y-103066905D01*
X152814048Y-102831190D02*
X152787858Y-102805000D01*
X152735477Y-102778810D01*
X152604524Y-102778810D01*
X152552143Y-102805000D01*
X152525953Y-102831190D01*
X152499762Y-102883571D01*
X152499762Y-102935952D01*
X152525953Y-103014524D01*
X152840239Y-103328810D01*
X152499762Y-103328810D01*
X152316429Y-102778810D02*
X151975952Y-102778810D01*
X152159286Y-102988333D01*
X152080714Y-102988333D01*
X152028333Y-103014524D01*
X152002143Y-103040714D01*
X151975952Y-103093095D01*
X151975952Y-103224048D01*
X152002143Y-103276429D01*
X152028333Y-103302619D01*
X152080714Y-103328810D01*
X152237857Y-103328810D01*
X152290238Y-103302619D01*
X152316429Y-103276429D01*
X148093572Y-97948810D02*
X148276905Y-97686905D01*
X148407858Y-97948810D02*
X148407858Y-97398810D01*
X148198334Y-97398810D01*
X148145953Y-97425000D01*
X148119762Y-97451190D01*
X148093572Y-97503571D01*
X148093572Y-97582143D01*
X148119762Y-97634524D01*
X148145953Y-97660714D01*
X148198334Y-97686905D01*
X148407858Y-97686905D01*
X147884048Y-97451190D02*
X147857858Y-97425000D01*
X147805477Y-97398810D01*
X147674524Y-97398810D01*
X147622143Y-97425000D01*
X147595953Y-97451190D01*
X147569762Y-97503571D01*
X147569762Y-97555952D01*
X147595953Y-97634524D01*
X147910239Y-97948810D01*
X147569762Y-97948810D01*
X147098333Y-97582143D02*
X147098333Y-97948810D01*
X147229286Y-97372619D02*
X147360238Y-97765476D01*
X147019762Y-97765476D01*
X150823572Y-56478810D02*
X151006905Y-56216905D01*
X151137858Y-56478810D02*
X151137858Y-55928810D01*
X150928334Y-55928810D01*
X150875953Y-55955000D01*
X150849762Y-55981190D01*
X150823572Y-56033571D01*
X150823572Y-56112143D01*
X150849762Y-56164524D01*
X150875953Y-56190714D01*
X150928334Y-56216905D01*
X151137858Y-56216905D01*
X150614048Y-55981190D02*
X150587858Y-55955000D01*
X150535477Y-55928810D01*
X150404524Y-55928810D01*
X150352143Y-55955000D01*
X150325953Y-55981190D01*
X150299762Y-56033571D01*
X150299762Y-56085952D01*
X150325953Y-56164524D01*
X150640239Y-56478810D01*
X150299762Y-56478810D01*
X150116429Y-55928810D02*
X149749762Y-55928810D01*
X149985476Y-56478810D01*
X150403572Y-119948810D02*
X150586905Y-119686905D01*
X150717858Y-119948810D02*
X150717858Y-119398810D01*
X150508334Y-119398810D01*
X150455953Y-119425000D01*
X150429762Y-119451190D01*
X150403572Y-119503571D01*
X150403572Y-119582143D01*
X150429762Y-119634524D01*
X150455953Y-119660714D01*
X150508334Y-119686905D01*
X150717858Y-119686905D01*
X150194048Y-119451190D02*
X150167858Y-119425000D01*
X150115477Y-119398810D01*
X149984524Y-119398810D01*
X149932143Y-119425000D01*
X149905953Y-119451190D01*
X149879762Y-119503571D01*
X149879762Y-119555952D01*
X149905953Y-119634524D01*
X150220239Y-119948810D01*
X149879762Y-119948810D01*
X149565476Y-119634524D02*
X149617857Y-119608333D01*
X149644048Y-119582143D01*
X149670238Y-119529762D01*
X149670238Y-119503571D01*
X149644048Y-119451190D01*
X149617857Y-119425000D01*
X149565476Y-119398810D01*
X149460714Y-119398810D01*
X149408333Y-119425000D01*
X149382143Y-119451190D01*
X149355952Y-119503571D01*
X149355952Y-119529762D01*
X149382143Y-119582143D01*
X149408333Y-119608333D01*
X149460714Y-119634524D01*
X149565476Y-119634524D01*
X149617857Y-119660714D01*
X149644048Y-119686905D01*
X149670238Y-119739286D01*
X149670238Y-119844048D01*
X149644048Y-119896429D01*
X149617857Y-119922619D01*
X149565476Y-119948810D01*
X149460714Y-119948810D01*
X149408333Y-119922619D01*
X149382143Y-119896429D01*
X149355952Y-119844048D01*
X149355952Y-119739286D01*
X149382143Y-119686905D01*
X149408333Y-119660714D01*
X149460714Y-119634524D01*
X154153572Y-51298810D02*
X154336905Y-51036905D01*
X154467858Y-51298810D02*
X154467858Y-50748810D01*
X154258334Y-50748810D01*
X154205953Y-50775000D01*
X154179762Y-50801190D01*
X154153572Y-50853571D01*
X154153572Y-50932143D01*
X154179762Y-50984524D01*
X154205953Y-51010714D01*
X154258334Y-51036905D01*
X154467858Y-51036905D01*
X153944048Y-50801190D02*
X153917858Y-50775000D01*
X153865477Y-50748810D01*
X153734524Y-50748810D01*
X153682143Y-50775000D01*
X153655953Y-50801190D01*
X153629762Y-50853571D01*
X153629762Y-50905952D01*
X153655953Y-50984524D01*
X153970239Y-51298810D01*
X153629762Y-51298810D01*
X153367857Y-51298810D02*
X153263095Y-51298810D01*
X153210714Y-51272619D01*
X153184524Y-51246429D01*
X153132143Y-51167857D01*
X153105952Y-51063095D01*
X153105952Y-50853571D01*
X153132143Y-50801190D01*
X153158333Y-50775000D01*
X153210714Y-50748810D01*
X153315476Y-50748810D01*
X153367857Y-50775000D01*
X153394048Y-50801190D01*
X153420238Y-50853571D01*
X153420238Y-50984524D01*
X153394048Y-51036905D01*
X153367857Y-51063095D01*
X153315476Y-51089286D01*
X153210714Y-51089286D01*
X153158333Y-51063095D01*
X153132143Y-51036905D01*
X153105952Y-50984524D01*
X142023572Y-99258810D02*
X142206905Y-98996905D01*
X142337858Y-99258810D02*
X142337858Y-98708810D01*
X142128334Y-98708810D01*
X142075953Y-98735000D01*
X142049762Y-98761190D01*
X142023572Y-98813571D01*
X142023572Y-98892143D01*
X142049762Y-98944524D01*
X142075953Y-98970714D01*
X142128334Y-98996905D01*
X142337858Y-98996905D01*
X141840239Y-98708810D02*
X141499762Y-98708810D01*
X141683096Y-98918333D01*
X141604524Y-98918333D01*
X141552143Y-98944524D01*
X141525953Y-98970714D01*
X141499762Y-99023095D01*
X141499762Y-99154048D01*
X141525953Y-99206429D01*
X141552143Y-99232619D01*
X141604524Y-99258810D01*
X141761667Y-99258810D01*
X141814048Y-99232619D01*
X141840239Y-99206429D01*
X141159286Y-98708810D02*
X141106905Y-98708810D01*
X141054524Y-98735000D01*
X141028333Y-98761190D01*
X141002143Y-98813571D01*
X140975952Y-98918333D01*
X140975952Y-99049286D01*
X141002143Y-99154048D01*
X141028333Y-99206429D01*
X141054524Y-99232619D01*
X141106905Y-99258810D01*
X141159286Y-99258810D01*
X141211667Y-99232619D01*
X141237857Y-99206429D01*
X141264048Y-99154048D01*
X141290238Y-99049286D01*
X141290238Y-98918333D01*
X141264048Y-98813571D01*
X141237857Y-98761190D01*
X141211667Y-98735000D01*
X141159286Y-98708810D01*
X143303572Y-56528810D02*
X143486905Y-56266905D01*
X143617858Y-56528810D02*
X143617858Y-55978810D01*
X143408334Y-55978810D01*
X143355953Y-56005000D01*
X143329762Y-56031190D01*
X143303572Y-56083571D01*
X143303572Y-56162143D01*
X143329762Y-56214524D01*
X143355953Y-56240714D01*
X143408334Y-56266905D01*
X143617858Y-56266905D01*
X143120239Y-55978810D02*
X142779762Y-55978810D01*
X142963096Y-56188333D01*
X142884524Y-56188333D01*
X142832143Y-56214524D01*
X142805953Y-56240714D01*
X142779762Y-56293095D01*
X142779762Y-56424048D01*
X142805953Y-56476429D01*
X142832143Y-56502619D01*
X142884524Y-56528810D01*
X143041667Y-56528810D01*
X143094048Y-56502619D01*
X143120239Y-56476429D01*
X142255952Y-56528810D02*
X142570238Y-56528810D01*
X142413095Y-56528810D02*
X142413095Y-55978810D01*
X142465476Y-56057381D01*
X142517857Y-56109762D01*
X142570238Y-56135952D01*
X152013572Y-107708810D02*
X152196905Y-107446905D01*
X152327858Y-107708810D02*
X152327858Y-107158810D01*
X152118334Y-107158810D01*
X152065953Y-107185000D01*
X152039762Y-107211190D01*
X152013572Y-107263571D01*
X152013572Y-107342143D01*
X152039762Y-107394524D01*
X152065953Y-107420714D01*
X152118334Y-107446905D01*
X152327858Y-107446905D01*
X151830239Y-107158810D02*
X151489762Y-107158810D01*
X151673096Y-107368333D01*
X151594524Y-107368333D01*
X151542143Y-107394524D01*
X151515953Y-107420714D01*
X151489762Y-107473095D01*
X151489762Y-107604048D01*
X151515953Y-107656429D01*
X151542143Y-107682619D01*
X151594524Y-107708810D01*
X151751667Y-107708810D01*
X151804048Y-107682619D01*
X151830239Y-107656429D01*
X151280238Y-107211190D02*
X151254048Y-107185000D01*
X151201667Y-107158810D01*
X151070714Y-107158810D01*
X151018333Y-107185000D01*
X150992143Y-107211190D01*
X150965952Y-107263571D01*
X150965952Y-107315952D01*
X150992143Y-107394524D01*
X151306429Y-107708810D01*
X150965952Y-107708810D01*
X155603572Y-107818810D02*
X155786905Y-107556905D01*
X155917858Y-107818810D02*
X155917858Y-107268810D01*
X155708334Y-107268810D01*
X155655953Y-107295000D01*
X155629762Y-107321190D01*
X155603572Y-107373571D01*
X155603572Y-107452143D01*
X155629762Y-107504524D01*
X155655953Y-107530714D01*
X155708334Y-107556905D01*
X155917858Y-107556905D01*
X155420239Y-107268810D02*
X155079762Y-107268810D01*
X155263096Y-107478333D01*
X155184524Y-107478333D01*
X155132143Y-107504524D01*
X155105953Y-107530714D01*
X155079762Y-107583095D01*
X155079762Y-107714048D01*
X155105953Y-107766429D01*
X155132143Y-107792619D01*
X155184524Y-107818810D01*
X155341667Y-107818810D01*
X155394048Y-107792619D01*
X155420239Y-107766429D01*
X154896429Y-107268810D02*
X154555952Y-107268810D01*
X154739286Y-107478333D01*
X154660714Y-107478333D01*
X154608333Y-107504524D01*
X154582143Y-107530714D01*
X154555952Y-107583095D01*
X154555952Y-107714048D01*
X154582143Y-107766429D01*
X154608333Y-107792619D01*
X154660714Y-107818810D01*
X154817857Y-107818810D01*
X154870238Y-107792619D01*
X154896429Y-107766429D01*
X146733572Y-51498810D02*
X146916905Y-51236905D01*
X147047858Y-51498810D02*
X147047858Y-50948810D01*
X146838334Y-50948810D01*
X146785953Y-50975000D01*
X146759762Y-51001190D01*
X146733572Y-51053571D01*
X146733572Y-51132143D01*
X146759762Y-51184524D01*
X146785953Y-51210714D01*
X146838334Y-51236905D01*
X147047858Y-51236905D01*
X146550239Y-50948810D02*
X146209762Y-50948810D01*
X146393096Y-51158333D01*
X146314524Y-51158333D01*
X146262143Y-51184524D01*
X146235953Y-51210714D01*
X146209762Y-51263095D01*
X146209762Y-51394048D01*
X146235953Y-51446429D01*
X146262143Y-51472619D01*
X146314524Y-51498810D01*
X146471667Y-51498810D01*
X146524048Y-51472619D01*
X146550239Y-51446429D01*
X145738333Y-51132143D02*
X145738333Y-51498810D01*
X145869286Y-50922619D02*
X146000238Y-51315476D01*
X145659762Y-51315476D01*
X143453572Y-103388810D02*
X143636905Y-103126905D01*
X143767858Y-103388810D02*
X143767858Y-102838810D01*
X143558334Y-102838810D01*
X143505953Y-102865000D01*
X143479762Y-102891190D01*
X143453572Y-102943571D01*
X143453572Y-103022143D01*
X143479762Y-103074524D01*
X143505953Y-103100714D01*
X143558334Y-103126905D01*
X143767858Y-103126905D01*
X143270239Y-102838810D02*
X142929762Y-102838810D01*
X143113096Y-103048333D01*
X143034524Y-103048333D01*
X142982143Y-103074524D01*
X142955953Y-103100714D01*
X142929762Y-103153095D01*
X142929762Y-103284048D01*
X142955953Y-103336429D01*
X142982143Y-103362619D01*
X143034524Y-103388810D01*
X143191667Y-103388810D01*
X143244048Y-103362619D01*
X143270239Y-103336429D01*
X142432143Y-102838810D02*
X142694048Y-102838810D01*
X142720238Y-103100714D01*
X142694048Y-103074524D01*
X142641667Y-103048333D01*
X142510714Y-103048333D01*
X142458333Y-103074524D01*
X142432143Y-103100714D01*
X142405952Y-103153095D01*
X142405952Y-103284048D01*
X142432143Y-103336429D01*
X142458333Y-103362619D01*
X142510714Y-103388810D01*
X142641667Y-103388810D01*
X142694048Y-103362619D01*
X142720238Y-103336429D01*
X167603572Y-79848810D02*
X167786905Y-79586905D01*
X167917858Y-79848810D02*
X167917858Y-79298810D01*
X167708334Y-79298810D01*
X167655953Y-79325000D01*
X167629762Y-79351190D01*
X167603572Y-79403571D01*
X167603572Y-79482143D01*
X167629762Y-79534524D01*
X167655953Y-79560714D01*
X167708334Y-79586905D01*
X167917858Y-79586905D01*
X167420239Y-79298810D02*
X167079762Y-79298810D01*
X167263096Y-79508333D01*
X167184524Y-79508333D01*
X167132143Y-79534524D01*
X167105953Y-79560714D01*
X167079762Y-79613095D01*
X167079762Y-79744048D01*
X167105953Y-79796429D01*
X167132143Y-79822619D01*
X167184524Y-79848810D01*
X167341667Y-79848810D01*
X167394048Y-79822619D01*
X167420239Y-79796429D01*
X166608333Y-79298810D02*
X166713095Y-79298810D01*
X166765476Y-79325000D01*
X166791667Y-79351190D01*
X166844048Y-79429762D01*
X166870238Y-79534524D01*
X166870238Y-79744048D01*
X166844048Y-79796429D01*
X166817857Y-79822619D01*
X166765476Y-79848810D01*
X166660714Y-79848810D01*
X166608333Y-79822619D01*
X166582143Y-79796429D01*
X166555952Y-79744048D01*
X166555952Y-79613095D01*
X166582143Y-79560714D01*
X166608333Y-79534524D01*
X166660714Y-79508333D01*
X166765476Y-79508333D01*
X166817857Y-79534524D01*
X166844048Y-79560714D01*
X166870238Y-79613095D01*
X152663572Y-56418810D02*
X152846905Y-56156905D01*
X152977858Y-56418810D02*
X152977858Y-55868810D01*
X152768334Y-55868810D01*
X152715953Y-55895000D01*
X152689762Y-55921190D01*
X152663572Y-55973571D01*
X152663572Y-56052143D01*
X152689762Y-56104524D01*
X152715953Y-56130714D01*
X152768334Y-56156905D01*
X152977858Y-56156905D01*
X152480239Y-55868810D02*
X152139762Y-55868810D01*
X152323096Y-56078333D01*
X152244524Y-56078333D01*
X152192143Y-56104524D01*
X152165953Y-56130714D01*
X152139762Y-56183095D01*
X152139762Y-56314048D01*
X152165953Y-56366429D01*
X152192143Y-56392619D01*
X152244524Y-56418810D01*
X152401667Y-56418810D01*
X152454048Y-56392619D01*
X152480239Y-56366429D01*
X151956429Y-55868810D02*
X151589762Y-55868810D01*
X151825476Y-56418810D01*
X151073572Y-103428810D02*
X151256905Y-103166905D01*
X151387858Y-103428810D02*
X151387858Y-102878810D01*
X151178334Y-102878810D01*
X151125953Y-102905000D01*
X151099762Y-102931190D01*
X151073572Y-102983571D01*
X151073572Y-103062143D01*
X151099762Y-103114524D01*
X151125953Y-103140714D01*
X151178334Y-103166905D01*
X151387858Y-103166905D01*
X150890239Y-102878810D02*
X150549762Y-102878810D01*
X150733096Y-103088333D01*
X150654524Y-103088333D01*
X150602143Y-103114524D01*
X150575953Y-103140714D01*
X150549762Y-103193095D01*
X150549762Y-103324048D01*
X150575953Y-103376429D01*
X150602143Y-103402619D01*
X150654524Y-103428810D01*
X150811667Y-103428810D01*
X150864048Y-103402619D01*
X150890239Y-103376429D01*
X150235476Y-103114524D02*
X150287857Y-103088333D01*
X150314048Y-103062143D01*
X150340238Y-103009762D01*
X150340238Y-102983571D01*
X150314048Y-102931190D01*
X150287857Y-102905000D01*
X150235476Y-102878810D01*
X150130714Y-102878810D01*
X150078333Y-102905000D01*
X150052143Y-102931190D01*
X150025952Y-102983571D01*
X150025952Y-103009762D01*
X150052143Y-103062143D01*
X150078333Y-103088333D01*
X150130714Y-103114524D01*
X150235476Y-103114524D01*
X150287857Y-103140714D01*
X150314048Y-103166905D01*
X150340238Y-103219286D01*
X150340238Y-103324048D01*
X150314048Y-103376429D01*
X150287857Y-103402619D01*
X150235476Y-103428810D01*
X150130714Y-103428810D01*
X150078333Y-103402619D01*
X150052143Y-103376429D01*
X150025952Y-103324048D01*
X150025952Y-103219286D01*
X150052143Y-103166905D01*
X150078333Y-103140714D01*
X150130714Y-103114524D01*
X156453572Y-56148810D02*
X156636905Y-55886905D01*
X156767858Y-56148810D02*
X156767858Y-55598810D01*
X156558334Y-55598810D01*
X156505953Y-55625000D01*
X156479762Y-55651190D01*
X156453572Y-55703571D01*
X156453572Y-55782143D01*
X156479762Y-55834524D01*
X156505953Y-55860714D01*
X156558334Y-55886905D01*
X156767858Y-55886905D01*
X156270239Y-55598810D02*
X155929762Y-55598810D01*
X156113096Y-55808333D01*
X156034524Y-55808333D01*
X155982143Y-55834524D01*
X155955953Y-55860714D01*
X155929762Y-55913095D01*
X155929762Y-56044048D01*
X155955953Y-56096429D01*
X155982143Y-56122619D01*
X156034524Y-56148810D01*
X156191667Y-56148810D01*
X156244048Y-56122619D01*
X156270239Y-56096429D01*
X155667857Y-56148810D02*
X155563095Y-56148810D01*
X155510714Y-56122619D01*
X155484524Y-56096429D01*
X155432143Y-56017857D01*
X155405952Y-55913095D01*
X155405952Y-55703571D01*
X155432143Y-55651190D01*
X155458333Y-55625000D01*
X155510714Y-55598810D01*
X155615476Y-55598810D01*
X155667857Y-55625000D01*
X155694048Y-55651190D01*
X155720238Y-55703571D01*
X155720238Y-55834524D01*
X155694048Y-55886905D01*
X155667857Y-55913095D01*
X155615476Y-55939286D01*
X155510714Y-55939286D01*
X155458333Y-55913095D01*
X155432143Y-55886905D01*
X155405952Y-55834524D01*
X146183572Y-98748810D02*
X146366905Y-98486905D01*
X146497858Y-98748810D02*
X146497858Y-98198810D01*
X146288334Y-98198810D01*
X146235953Y-98225000D01*
X146209762Y-98251190D01*
X146183572Y-98303571D01*
X146183572Y-98382143D01*
X146209762Y-98434524D01*
X146235953Y-98460714D01*
X146288334Y-98486905D01*
X146497858Y-98486905D01*
X145712143Y-98382143D02*
X145712143Y-98748810D01*
X145843096Y-98172619D02*
X145974048Y-98565476D01*
X145633572Y-98565476D01*
X145319286Y-98198810D02*
X145266905Y-98198810D01*
X145214524Y-98225000D01*
X145188333Y-98251190D01*
X145162143Y-98303571D01*
X145135952Y-98408333D01*
X145135952Y-98539286D01*
X145162143Y-98644048D01*
X145188333Y-98696429D01*
X145214524Y-98722619D01*
X145266905Y-98748810D01*
X145319286Y-98748810D01*
X145371667Y-98722619D01*
X145397857Y-98696429D01*
X145424048Y-98644048D01*
X145450238Y-98539286D01*
X145450238Y-98408333D01*
X145424048Y-98303571D01*
X145397857Y-98251190D01*
X145371667Y-98225000D01*
X145319286Y-98198810D01*
X143603572Y-90978810D02*
X143786905Y-90716905D01*
X143917858Y-90978810D02*
X143917858Y-90428810D01*
X143708334Y-90428810D01*
X143655953Y-90455000D01*
X143629762Y-90481190D01*
X143603572Y-90533571D01*
X143603572Y-90612143D01*
X143629762Y-90664524D01*
X143655953Y-90690714D01*
X143708334Y-90716905D01*
X143917858Y-90716905D01*
X143132143Y-90612143D02*
X143132143Y-90978810D01*
X143263096Y-90402619D02*
X143394048Y-90795476D01*
X143053572Y-90795476D01*
X142870238Y-90481190D02*
X142844048Y-90455000D01*
X142791667Y-90428810D01*
X142660714Y-90428810D01*
X142608333Y-90455000D01*
X142582143Y-90481190D01*
X142555952Y-90533571D01*
X142555952Y-90585952D01*
X142582143Y-90664524D01*
X142896429Y-90978810D01*
X142555952Y-90978810D01*
X167543572Y-78288810D02*
X167726905Y-78026905D01*
X167857858Y-78288810D02*
X167857858Y-77738810D01*
X167648334Y-77738810D01*
X167595953Y-77765000D01*
X167569762Y-77791190D01*
X167543572Y-77843571D01*
X167543572Y-77922143D01*
X167569762Y-77974524D01*
X167595953Y-78000714D01*
X167648334Y-78026905D01*
X167857858Y-78026905D01*
X167072143Y-77922143D02*
X167072143Y-78288810D01*
X167203096Y-77712619D02*
X167334048Y-78105476D01*
X166993572Y-78105476D01*
X166836429Y-77738810D02*
X166495952Y-77738810D01*
X166679286Y-77948333D01*
X166600714Y-77948333D01*
X166548333Y-77974524D01*
X166522143Y-78000714D01*
X166495952Y-78053095D01*
X166495952Y-78184048D01*
X166522143Y-78236429D01*
X166548333Y-78262619D01*
X166600714Y-78288810D01*
X166757857Y-78288810D01*
X166810238Y-78262619D01*
X166836429Y-78236429D01*
X167453572Y-74898810D02*
X167636905Y-74636905D01*
X167767858Y-74898810D02*
X167767858Y-74348810D01*
X167558334Y-74348810D01*
X167505953Y-74375000D01*
X167479762Y-74401190D01*
X167453572Y-74453571D01*
X167453572Y-74532143D01*
X167479762Y-74584524D01*
X167505953Y-74610714D01*
X167558334Y-74636905D01*
X167767858Y-74636905D01*
X166982143Y-74532143D02*
X166982143Y-74898810D01*
X167113096Y-74322619D02*
X167244048Y-74715476D01*
X166903572Y-74715476D01*
X166458333Y-74532143D02*
X166458333Y-74898810D01*
X166589286Y-74322619D02*
X166720238Y-74715476D01*
X166379762Y-74715476D01*
X167453572Y-73418810D02*
X167636905Y-73156905D01*
X167767858Y-73418810D02*
X167767858Y-72868810D01*
X167558334Y-72868810D01*
X167505953Y-72895000D01*
X167479762Y-72921190D01*
X167453572Y-72973571D01*
X167453572Y-73052143D01*
X167479762Y-73104524D01*
X167505953Y-73130714D01*
X167558334Y-73156905D01*
X167767858Y-73156905D01*
X166982143Y-73052143D02*
X166982143Y-73418810D01*
X167113096Y-72842619D02*
X167244048Y-73235476D01*
X166903572Y-73235476D01*
X166432143Y-72868810D02*
X166694048Y-72868810D01*
X166720238Y-73130714D01*
X166694048Y-73104524D01*
X166641667Y-73078333D01*
X166510714Y-73078333D01*
X166458333Y-73104524D01*
X166432143Y-73130714D01*
X166405952Y-73183095D01*
X166405952Y-73314048D01*
X166432143Y-73366429D01*
X166458333Y-73392619D01*
X166510714Y-73418810D01*
X166641667Y-73418810D01*
X166694048Y-73392619D01*
X166720238Y-73366429D01*
X141983572Y-62258810D02*
X142166905Y-61996905D01*
X142297858Y-62258810D02*
X142297858Y-61708810D01*
X142088334Y-61708810D01*
X142035953Y-61735000D01*
X142009762Y-61761190D01*
X141983572Y-61813571D01*
X141983572Y-61892143D01*
X142009762Y-61944524D01*
X142035953Y-61970714D01*
X142088334Y-61996905D01*
X142297858Y-61996905D01*
X141512143Y-61892143D02*
X141512143Y-62258810D01*
X141643096Y-61682619D02*
X141774048Y-62075476D01*
X141433572Y-62075476D01*
X141276429Y-61708810D02*
X140909762Y-61708810D01*
X141145476Y-62258810D01*
X163099048Y-100278810D02*
X163099048Y-100724048D01*
X163072857Y-100776429D01*
X163046667Y-100802619D01*
X162994286Y-100828810D01*
X162889524Y-100828810D01*
X162837143Y-100802619D01*
X162810952Y-100776429D01*
X162784762Y-100724048D01*
X162784762Y-100278810D01*
X162287143Y-100462143D02*
X162287143Y-100828810D01*
X162418096Y-100252619D02*
X162549048Y-100645476D01*
X162208572Y-100645476D01*
X150260953Y-51058810D02*
X150260953Y-51504048D01*
X150234762Y-51556429D01*
X150208572Y-51582619D01*
X150156191Y-51608810D01*
X150051429Y-51608810D01*
X149999048Y-51582619D01*
X149972857Y-51556429D01*
X149946667Y-51504048D01*
X149946667Y-51058810D01*
X149396667Y-51608810D02*
X149710953Y-51608810D01*
X149553810Y-51608810D02*
X149553810Y-51058810D01*
X149606191Y-51137381D01*
X149658572Y-51189762D01*
X149710953Y-51215952D01*
X148872857Y-51608810D02*
X149187143Y-51608810D01*
X149030000Y-51608810D02*
X149030000Y-51058810D01*
X149082381Y-51137381D01*
X149134762Y-51189762D01*
X149187143Y-51215952D01*
X148470953Y-108648810D02*
X148470953Y-109094048D01*
X148444762Y-109146429D01*
X148418572Y-109172619D01*
X148366191Y-109198810D01*
X148261429Y-109198810D01*
X148209048Y-109172619D01*
X148182857Y-109146429D01*
X148156667Y-109094048D01*
X148156667Y-108648810D01*
X147606667Y-109198810D02*
X147920953Y-109198810D01*
X147763810Y-109198810D02*
X147763810Y-108648810D01*
X147816191Y-108727381D01*
X147868572Y-108779762D01*
X147920953Y-108805952D01*
X147423334Y-108648810D02*
X147082857Y-108648810D01*
X147266191Y-108858333D01*
X147187619Y-108858333D01*
X147135238Y-108884524D01*
X147109048Y-108910714D01*
X147082857Y-108963095D01*
X147082857Y-109094048D01*
X147109048Y-109146429D01*
X147135238Y-109172619D01*
X147187619Y-109198810D01*
X147344762Y-109198810D01*
X147397143Y-109172619D01*
X147423334Y-109146429D01*
X143980953Y-92648810D02*
X143980953Y-93094048D01*
X143954762Y-93146429D01*
X143928572Y-93172619D01*
X143876191Y-93198810D01*
X143771429Y-93198810D01*
X143719048Y-93172619D01*
X143692857Y-93146429D01*
X143666667Y-93094048D01*
X143666667Y-92648810D01*
X143116667Y-93198810D02*
X143430953Y-93198810D01*
X143273810Y-93198810D02*
X143273810Y-92648810D01*
X143326191Y-92727381D01*
X143378572Y-92779762D01*
X143430953Y-92805952D01*
X142645238Y-92832143D02*
X142645238Y-93198810D01*
X142776191Y-92622619D02*
X142907143Y-93015476D01*
X142566667Y-93015476D01*
X164544953Y-88694810D02*
X164544953Y-89140048D01*
X164518762Y-89192429D01*
X164492572Y-89218619D01*
X164440191Y-89244810D01*
X164335429Y-89244810D01*
X164283048Y-89218619D01*
X164256857Y-89192429D01*
X164230667Y-89140048D01*
X164230667Y-88694810D01*
X163680667Y-89244810D02*
X163994953Y-89244810D01*
X163837810Y-89244810D02*
X163837810Y-88694810D01*
X163890191Y-88773381D01*
X163942572Y-88825762D01*
X163994953Y-88851952D01*
X163183048Y-88694810D02*
X163444953Y-88694810D01*
X163471143Y-88956714D01*
X163444953Y-88930524D01*
X163392572Y-88904333D01*
X163261619Y-88904333D01*
X163209238Y-88930524D01*
X163183048Y-88956714D01*
X163156857Y-89009095D01*
X163156857Y-89140048D01*
X163183048Y-89192429D01*
X163209238Y-89218619D01*
X163261619Y-89244810D01*
X163392572Y-89244810D01*
X163444953Y-89218619D01*
X163471143Y-89192429D01*
X167830953Y-67828810D02*
X167830953Y-68274048D01*
X167804762Y-68326429D01*
X167778572Y-68352619D01*
X167726191Y-68378810D01*
X167621429Y-68378810D01*
X167569048Y-68352619D01*
X167542857Y-68326429D01*
X167516667Y-68274048D01*
X167516667Y-67828810D01*
X166966667Y-68378810D02*
X167280953Y-68378810D01*
X167123810Y-68378810D02*
X167123810Y-67828810D01*
X167176191Y-67907381D01*
X167228572Y-67959762D01*
X167280953Y-67985952D01*
X166495238Y-67828810D02*
X166600000Y-67828810D01*
X166652381Y-67855000D01*
X166678572Y-67881190D01*
X166730953Y-67959762D01*
X166757143Y-68064524D01*
X166757143Y-68274048D01*
X166730953Y-68326429D01*
X166704762Y-68352619D01*
X166652381Y-68378810D01*
X166547619Y-68378810D01*
X166495238Y-68352619D01*
X166469048Y-68326429D01*
X166442857Y-68274048D01*
X166442857Y-68143095D01*
X166469048Y-68090714D01*
X166495238Y-68064524D01*
X166547619Y-68038333D01*
X166652381Y-68038333D01*
X166704762Y-68064524D01*
X166730953Y-68090714D01*
X166757143Y-68143095D01*
X164630953Y-80578810D02*
X164630953Y-81024048D01*
X164604762Y-81076429D01*
X164578572Y-81102619D01*
X164526191Y-81128810D01*
X164421429Y-81128810D01*
X164369048Y-81102619D01*
X164342857Y-81076429D01*
X164316667Y-81024048D01*
X164316667Y-80578810D01*
X163766667Y-81128810D02*
X164080953Y-81128810D01*
X163923810Y-81128810D02*
X163923810Y-80578810D01*
X163976191Y-80657381D01*
X164028572Y-80709762D01*
X164080953Y-80735952D01*
X163583334Y-80578810D02*
X163216667Y-80578810D01*
X163452381Y-81128810D01*
X164573334Y-104318810D02*
X164573334Y-104711667D01*
X164599524Y-104790238D01*
X164651905Y-104842619D01*
X164730477Y-104868810D01*
X164782858Y-104868810D01*
X164023333Y-104868810D02*
X164337619Y-104868810D01*
X164180476Y-104868810D02*
X164180476Y-104318810D01*
X164232857Y-104397381D01*
X164285238Y-104449762D01*
X164337619Y-104475952D01*
X163471667Y-90446429D02*
X163497857Y-90472619D01*
X163576429Y-90498810D01*
X163628810Y-90498810D01*
X163707381Y-90472619D01*
X163759762Y-90420238D01*
X163785953Y-90367857D01*
X163812143Y-90263095D01*
X163812143Y-90184524D01*
X163785953Y-90079762D01*
X163759762Y-90027381D01*
X163707381Y-89975000D01*
X163628810Y-89948810D01*
X163576429Y-89948810D01*
X163497857Y-89975000D01*
X163471667Y-90001190D01*
X163000238Y-90132143D02*
X163000238Y-90498810D01*
X163131191Y-89922619D02*
X163262143Y-90315476D01*
X162921667Y-90315476D01*
X132299048Y-94838810D02*
X132299048Y-95284048D01*
X132272857Y-95336429D01*
X132246667Y-95362619D01*
X132194286Y-95388810D01*
X132089524Y-95388810D01*
X132037143Y-95362619D01*
X132010952Y-95336429D01*
X131984762Y-95284048D01*
X131984762Y-94838810D01*
X131460953Y-94838810D02*
X131722858Y-94838810D01*
X131749048Y-95100714D01*
X131722858Y-95074524D01*
X131670477Y-95048333D01*
X131539524Y-95048333D01*
X131487143Y-95074524D01*
X131460953Y-95100714D01*
X131434762Y-95153095D01*
X131434762Y-95284048D01*
X131460953Y-95336429D01*
X131487143Y-95362619D01*
X131539524Y-95388810D01*
X131670477Y-95388810D01*
X131722858Y-95362619D01*
X131749048Y-95336429D01*
M02*
