M48
;DRILL file {KiCad 4.0.7-e2-6376~58~ubuntu17.04.1} date Fri Nov 24 10:03:57 2017
;FORMAT={-:-/ absolute / inch / decimal}
FMAT,2
INCH,TZ
T1C0.016
T2C0.024
T3C0.035
T4C0.039
T5C0.049
T6C0.059
%
G90
G05
M72
T1
X5.2234Y-2.3159
X5.3376Y-4.1801
X5.3406Y-4.5728
X5.3494Y-4.6594
X5.3514Y-4.4035
X5.3632Y-2.5256
X5.3652Y-4.3238
X5.3799Y-3.4488
X5.3839Y-4.3533
X5.3957Y-4.6565
X5.3967Y-2.2283
X5.4035Y-4.6004
X5.4065Y-2.5236
X5.4114Y-4.1693
X5.4124Y-2.5896
X5.4774Y-2.5157
X5.4902Y-4.4675
X5.499Y-3.1939
X5.5138Y-3.0906
X5.5177Y-4.3406
X5.5443Y-3.2746
X5.5452Y-3.1798
X5.5482Y-2.5384
X5.5482Y-3.0896
X5.5531Y-3.8691
X5.5531Y-3.8996
X5.5561Y-4.3376
X5.5965Y-2.7618
X5.5974Y-2.8967
X5.5984Y-2.4734
X5.5984Y-3.0059
X5.6368Y-2.628
X5.6378Y-3.6526
X5.6486Y-3.8357
X5.6486Y-3.8659
X5.6673Y-4.437
X5.6711Y-2.8975
X5.6713Y-4.2461
X5.6778Y-2.8589
X5.6841Y-3.6014
X5.6998Y-4.5206
X5.7057Y-4.2333
X5.7224Y-4.5433
X5.7805Y-4.1693
X5.7874Y-3.1929
X5.7957Y-3.6063
X5.8238Y-3.8937
X5.8248Y-4.3789
X5.8425Y-2.3268
X5.8888Y-3.6112
X5.8898Y-2.5896
X5.8967Y-2.7628
X5.9035Y-3.4656
X5.9045Y-3.498
X5.9085Y-3.9951
X5.94Y-3.4685
X5.9547Y-3.7343
X5.9557Y-3.7953
X5.9577Y-3.9577
X5.9596Y-4.0837
X5.9882Y-3.2274
X5.997Y-3.1348
X5.997Y-3.7963
X6.001Y-3.7313
X6.0404Y-3.8691
X6.0413Y-4.126
X6.0955Y-2.3907
X6.0972Y-2.3466
X6.0974Y-2.438
X6.1309Y-3.2037
X6.1358Y-2.7589
X6.1447Y-2.4304
X6.1545Y-4.4026
X6.1909Y-3.4833
X6.1949Y-4.4813
X6.2077Y-4.0837
X6.2106Y-2.752
X6.2411Y-2.6378
X6.2776Y-2.3091
X6.2785Y-4.5128
X6.2874Y-2.6831
X6.3081Y-4.4341
X6.311Y-2.2618
X6.313Y-3.4498
X6.3553Y-2.3543
T2
X5.3898Y-3.1909
X5.4478Y-2.7067
X5.5364Y-2.311
X5.8268Y-4.0522
X6.126Y-4.2274
X6.2726Y-2.8366
X6.2844Y-3.8848
T3
X6.1943Y-2.5325
X6.2943Y-2.5325
T4
X5.4537Y-4.8012
X5.4537Y-4.9012
X5.5537Y-4.8012
X5.5537Y-4.9012
X5.6537Y-4.8012
X5.6537Y-4.9012
X5.7537Y-4.8012
X5.7537Y-4.9012
X5.7608Y-2.3691
X5.7982Y-4.3031
X5.7982Y-4.6024
X5.8537Y-4.8012
X5.8537Y-4.9012
X5.9022Y-2.3695
X5.9026Y-2.5108
X5.9537Y-4.8012
X5.9537Y-4.9012
X6.0537Y-4.8012
X6.0537Y-4.9012
X6.1537Y-4.8012
X6.1537Y-4.9012
T5
X5.5364Y-2.4203
T6
X5.8376Y-2.9055
T0
M30
