G04 #@! TF.FileFunction,Soldermask,Top*
%FSLAX46Y46*%
G04 Gerber Fmt 4.6, Leading zero omitted, Abs format (unit mm)*
G04 Created by KiCad (PCBNEW 4.0.7-e2-6376~58~ubuntu17.04.1) date Thu Oct 26 07:28:53 2017*
%MOMM*%
%LPD*%
G01*
G04 APERTURE LIST*
%ADD10C,0.100000*%
%ADD11R,2.200000X2.200000*%
%ADD12C,2.200000*%
%ADD13R,1.200000X1.200000*%
%ADD14C,1.900000*%
%ADD15C,1.924000*%
%ADD16R,1.000000X0.922000*%
%ADD17C,2.024000*%
%ADD18R,7.400000X3.400000*%
%ADD19R,3.400000X7.400000*%
%ADD20R,1.400000X1.300000*%
%ADD21R,1.600000X1.300000*%
%ADD22R,1.300000X1.600000*%
%ADD23R,1.650000X0.850000*%
%ADD24R,2.000000X2.900000*%
%ADD25R,1.700000X1.100000*%
%ADD26R,1.000000X0.850000*%
%ADD27R,0.850000X1.000000*%
%ADD28R,2.100000X2.100000*%
%ADD29O,2.100000X2.100000*%
G04 APERTURE END LIST*
D10*
D11*
X134150000Y-58310000D03*
D12*
X134150000Y-60850000D03*
D13*
X137680000Y-121310000D03*
X136080000Y-121310000D03*
D14*
X137750000Y-117950000D03*
X137750000Y-110350000D03*
D15*
X166520000Y-62900000D03*
X166520000Y-60360000D03*
X166520000Y-57820000D03*
D16*
X141350000Y-60790000D03*
X140450000Y-60790000D03*
X139550000Y-60790000D03*
X139550000Y-59970000D03*
X141350000Y-59970000D03*
D17*
X140450000Y-58720000D03*
D15*
X144910000Y-61765000D03*
X149990000Y-61765000D03*
X147450000Y-59225000D03*
X147425000Y-111175000D03*
X147425000Y-116255000D03*
X149965000Y-113715000D03*
D18*
X147000000Y-81100000D03*
D19*
X139900000Y-88020000D03*
D18*
X147000000Y-95120000D03*
D19*
X153950000Y-88020000D03*
D13*
X144975000Y-121150000D03*
X143375000Y-121150000D03*
X130610000Y-121370000D03*
X129010000Y-121370000D03*
D20*
X141970000Y-124300000D03*
X141970000Y-125900000D03*
X146070000Y-124300000D03*
X146070000Y-125900000D03*
X127540000Y-124490000D03*
X127540000Y-126090000D03*
X131640000Y-124490000D03*
X131640000Y-126090000D03*
X134700000Y-124410000D03*
X134700000Y-126010000D03*
X138800000Y-124410000D03*
X138800000Y-126010000D03*
D21*
X148270000Y-90690000D03*
X146070000Y-90690000D03*
D22*
X143730000Y-89120000D03*
X143730000Y-86920000D03*
D21*
X148450000Y-85000000D03*
X146250000Y-85000000D03*
D23*
X161240000Y-59480000D03*
X161240000Y-58480000D03*
X161240000Y-57480000D03*
X157940000Y-58480000D03*
X157940000Y-59480000D03*
X157940000Y-57480000D03*
D24*
X159590000Y-58480000D03*
D25*
X148850000Y-86750000D03*
X148840000Y-87850000D03*
X148830000Y-88950000D03*
X145890000Y-87850000D03*
X145900000Y-86750000D03*
X145880000Y-88950000D03*
D26*
X158920000Y-63680000D03*
X158920000Y-62330000D03*
X160120000Y-62330000D03*
X160120000Y-63680000D03*
D27*
X158920000Y-63380000D03*
D28*
X162660000Y-124180000D03*
D29*
X165200000Y-124180000D03*
X162660000Y-121640000D03*
X165200000Y-121640000D03*
X162660000Y-119100000D03*
X165200000Y-119100000D03*
X162660000Y-116560000D03*
X165200000Y-116560000D03*
X162660000Y-114020000D03*
X165200000Y-114020000D03*
X162660000Y-111480000D03*
X165200000Y-111480000D03*
X162660000Y-108940000D03*
X165200000Y-108940000D03*
X162660000Y-106400000D03*
X165200000Y-106400000D03*
M02*
