M48
;DRILL file {KiCad 6.0.0-rc1-unknown-7a10feb~66~ubuntu18.04.1} date Wed Aug 22 16:18:49 2018
;FORMAT={-:-/ absolute / inch / decimal}
FMAT,2
INCH,TZ
T1C0.0157
T2C0.0236
T3C0.0354
T4C0.0394
T5C0.0488
%
G90
G05
M72
T1
X5.19Y-2.48
X5.19Y-3.44
X5.2Y-2.3614
X5.2008Y-3.57
X5.2165Y-4.7362
X5.22Y-3.28
X5.2274Y-3.4999
X5.25Y-2.63
X5.2598Y-4.1575
X5.26Y-4.11
X5.27Y-3.27
X5.27Y-3.54
X5.2716Y-2.262
X5.272Y-3.14
X5.2726Y-3.3809
X5.2785Y-4.2283
X5.2785Y-4.3897
X5.2785Y-4.5033
X5.29Y-3.7
X5.29Y-3.92
X5.29Y-4.05
X5.311Y-2.503
X5.32Y-3.15
X5.32Y-3.27
X5.32Y-3.38
X5.32Y-3.54
X5.32Y-4.11
X5.3228Y-4.1575
X5.33Y-4.31
X5.33Y-4.58
X5.33Y-4.91
X5.3404Y-2.262
X5.35Y-4.83
X5.37Y-4.04
X5.37Y-4.07
X5.3701Y-3.3425
X5.376Y-2.503
X5.3898Y-4.7677
X5.39Y-4.58
X5.4102Y-2.3656
X5.412Y-3.5551
X5.4126Y-3.3048
X5.4126Y-3.7048
X5.4291Y-4.1614
X5.43Y-4.25
X5.43Y-4.62
X5.432Y-4.4046
X5.45Y-2.61
X5.45Y-3.95
X5.4597Y-2.4605
X5.4803Y-4.3937
X5.4803Y-4.4803
X5.4843Y-4.2205
X5.4857Y-2.6605
X5.49Y-2.23
X5.49Y-2.52
X5.4969Y-3.48
X5.5049Y-4.28
X5.52Y-4.04
X5.52Y-4.07
X5.53Y-2.57
X5.5428Y-4.4653
X5.56Y-2.81
X5.56Y-2.95
X5.56Y-4.26
X5.5669Y-4.1339
X5.58Y-4.47
X5.5949Y-4.308
X5.5955Y-4.7488
X5.62Y-3.35
X5.62Y-3.41
X5.622Y-4.0945
X5.626Y-3.7874
X5.63Y-4.38
X5.66Y-4.44
X5.6772Y-4.0433
X5.68Y-4.23
X5.6811Y-3.9843
X5.697Y-5.014
X5.73Y-2.76
X5.7323Y-4.0354
X5.7402Y-4.3937
X5.7677Y-4.7244
X5.7764Y-3.7595
X5.78Y-2.81
X5.78Y-2.85
X5.7844Y-4.26
X5.7953Y-4.3543
X5.7992Y-4.1496
X5.8031Y-4.2244
X5.85Y-2.81
X5.85Y-2.85
X5.897Y-4.3878
X5.8976Y-3.3819
X5.9134Y-3.3228
X5.95Y-3.45
X5.95Y-4.27
X5.99Y-4.65
X6.01Y-3.9
X6.01Y-4.4476
X6.03Y-3.6
X6.0486Y-4.3699
X6.0512Y-3.9488
X6.06Y-4.54
X6.07Y-2.63
X6.08Y-3.14
X6.0876Y-4.5715
X6.1Y-4.24
X6.1Y-4.38
X6.1181Y-3.9134
X6.1375Y-4.5458
X6.14Y-3.98
X6.16Y-4.48
X6.17Y-3.92
X6.185Y-3.6102
X6.19Y-4.54
X6.203Y-2.31
X6.2047Y-3.7835
X6.23Y-4.61
X6.24Y-2.82
X6.24Y-2.95
X6.249Y-4.459
X6.2544Y-2.41
X6.26Y-3.84
X6.3Y-4.18
X6.31Y-3.59
X6.31Y-3.71
X6.31Y-3.8
X6.32Y-3.94
X6.32Y-4.33
X6.33Y-4.65
X6.3671Y-4.3986
X6.3819Y-4.2835
X6.3898Y-4.6535
T2
X5.45Y-3.14
X5.6935Y-3.427
X5.7942Y-3.496
X6.05Y-3.86
T3
X6.169Y-2.52
X6.269Y-2.52
T4
X5.468Y-4.805
X5.468Y-4.905
X5.568Y-4.805
X5.568Y-4.905
X5.668Y-4.805
X5.668Y-4.905
X5.768Y-4.805
X5.768Y-4.905
X5.868Y-4.805
X5.868Y-4.905
X5.968Y-4.805
X5.968Y-4.905
X6.068Y-4.805
X6.068Y-4.905
X6.168Y-4.805
X6.168Y-4.905
X5.7311Y-2.3401
X5.8725Y-2.3405
X5.8729Y-2.4819
X5.758Y-4.3003
X5.758Y-4.5995
T5
X5.4951Y-2.379
T0
M30
