G04 #@! TF.FileFunction,Other,Comment*
%FSLAX46Y46*%
G04 Gerber Fmt 4.6, Leading zero omitted, Abs format (unit mm)*
G04 Created by KiCad (PCBNEW 201610091317+7290~55~ubuntu16.04.1-) date Tue Oct 25 10:25:20 2016*
%MOMM*%
%LPD*%
G01*
G04 APERTURE LIST*
%ADD10C,0.100000*%
%ADD11C,0.300000*%
G04 APERTURE END LIST*
D10*
D11*
X165985571Y-96050928D02*
X165985571Y-95765214D01*
X165914142Y-95622357D01*
X165842714Y-95550928D01*
X165628428Y-95408071D01*
X165342714Y-95336642D01*
X164771285Y-95336642D01*
X164628428Y-95408071D01*
X164557000Y-95479500D01*
X164485571Y-95622357D01*
X164485571Y-95908071D01*
X164557000Y-96050928D01*
X164628428Y-96122357D01*
X164771285Y-96193785D01*
X165128428Y-96193785D01*
X165271285Y-96122357D01*
X165342714Y-96050928D01*
X165414142Y-95908071D01*
X165414142Y-95622357D01*
X165342714Y-95479500D01*
X165271285Y-95408071D01*
X165128428Y-95336642D01*
X165985571Y-93908071D02*
X165985571Y-94765214D01*
X165985571Y-94336642D02*
X164485571Y-94336642D01*
X164699857Y-94479500D01*
X164842714Y-94622357D01*
X164914142Y-94765214D01*
X165842714Y-93265214D02*
X165914142Y-93193785D01*
X165985571Y-93265214D01*
X165914142Y-93336642D01*
X165842714Y-93265214D01*
X165985571Y-93265214D01*
X164485571Y-91836642D02*
X164485571Y-92550928D01*
X165199857Y-92622357D01*
X165128428Y-92550928D01*
X165057000Y-92408071D01*
X165057000Y-92050928D01*
X165128428Y-91908071D01*
X165199857Y-91836642D01*
X165342714Y-91765214D01*
X165699857Y-91765214D01*
X165842714Y-91836642D01*
X165914142Y-91908071D01*
X165985571Y-92050928D01*
X165985571Y-92408071D01*
X165914142Y-92550928D01*
X165842714Y-92622357D01*
X164485571Y-90479500D02*
X164485571Y-90765214D01*
X164557000Y-90908071D01*
X164628428Y-90979500D01*
X164842714Y-91122357D01*
X165128428Y-91193785D01*
X165699857Y-91193785D01*
X165842714Y-91122357D01*
X165914142Y-91050928D01*
X165985571Y-90908071D01*
X165985571Y-90622357D01*
X165914142Y-90479500D01*
X165842714Y-90408071D01*
X165699857Y-90336642D01*
X165342714Y-90336642D01*
X165199857Y-90408071D01*
X165128428Y-90479500D01*
X165057000Y-90622357D01*
X165057000Y-90908071D01*
X165128428Y-91050928D01*
X165199857Y-91122357D01*
X165342714Y-91193785D01*
X164485571Y-89836642D02*
X164485571Y-88836642D01*
X165985571Y-89479500D01*
X165985571Y-87122357D02*
X164985571Y-87122357D01*
X165128428Y-87122357D02*
X165057000Y-87050928D01*
X164985571Y-86908071D01*
X164985571Y-86693785D01*
X165057000Y-86550928D01*
X165199857Y-86479500D01*
X165985571Y-86479500D01*
X165199857Y-86479500D02*
X165057000Y-86408071D01*
X164985571Y-86265214D01*
X164985571Y-86050928D01*
X165057000Y-85908071D01*
X165199857Y-85836642D01*
X165985571Y-85836642D01*
X165985571Y-85122357D02*
X164985571Y-85122357D01*
X165128428Y-85122357D02*
X165057000Y-85050928D01*
X164985571Y-84908071D01*
X164985571Y-84693785D01*
X165057000Y-84550928D01*
X165199857Y-84479500D01*
X165985571Y-84479500D01*
X165199857Y-84479500D02*
X165057000Y-84408071D01*
X164985571Y-84265214D01*
X164985571Y-84050928D01*
X165057000Y-83908071D01*
X165199857Y-83836642D01*
X165985571Y-83836642D01*
X163957000Y-135763000D02*
X163957000Y-44196000D01*
X139319000Y-135763000D02*
X166657000Y-135763000D01*
X139319000Y-44196000D02*
X166657000Y-44196000D01*
X163957000Y-44196000D02*
X164543421Y-45322504D01*
X163957000Y-44196000D02*
X163370579Y-45322504D01*
X163957000Y-135763000D02*
X164543421Y-134636496D01*
X163957000Y-135763000D02*
X163370579Y-134636496D01*
X129183500Y-156697493D02*
X129183500Y-157697493D01*
X128826357Y-156126064D02*
X128469214Y-157197493D01*
X129397785Y-157197493D01*
X129826357Y-156197493D02*
X130754928Y-156197493D01*
X130254928Y-156768922D01*
X130469214Y-156768922D01*
X130612071Y-156840350D01*
X130683500Y-156911779D01*
X130754928Y-157054636D01*
X130754928Y-157411779D01*
X130683500Y-157554636D01*
X130612071Y-157626064D01*
X130469214Y-157697493D01*
X130040642Y-157697493D01*
X129897785Y-157626064D01*
X129826357Y-157554636D01*
X131397785Y-157554636D02*
X131469214Y-157626064D01*
X131397785Y-157697493D01*
X131326357Y-157626064D01*
X131397785Y-157554636D01*
X131397785Y-157697493D01*
X132397785Y-156197493D02*
X132540642Y-156197493D01*
X132683500Y-156268922D01*
X132754928Y-156340350D01*
X132826357Y-156483207D01*
X132897785Y-156768922D01*
X132897785Y-157126064D01*
X132826357Y-157411779D01*
X132754928Y-157554636D01*
X132683500Y-157626064D01*
X132540642Y-157697493D01*
X132397785Y-157697493D01*
X132254928Y-157626064D01*
X132183500Y-157554636D01*
X132112071Y-157411779D01*
X132040642Y-157126064D01*
X132040642Y-156768922D01*
X132112071Y-156483207D01*
X132183500Y-156340350D01*
X132254928Y-156268922D01*
X132397785Y-156197493D01*
X134254928Y-156197493D02*
X133540642Y-156197493D01*
X133469214Y-156911779D01*
X133540642Y-156840350D01*
X133683500Y-156768922D01*
X134040642Y-156768922D01*
X134183500Y-156840350D01*
X134254928Y-156911779D01*
X134326357Y-157054636D01*
X134326357Y-157411779D01*
X134254928Y-157554636D01*
X134183500Y-157626064D01*
X134040642Y-157697493D01*
X133683500Y-157697493D01*
X133540642Y-157626064D01*
X133469214Y-157554636D01*
X134826357Y-156197493D02*
X135754928Y-156197493D01*
X135254928Y-156768922D01*
X135469214Y-156768922D01*
X135612071Y-156840350D01*
X135683500Y-156911779D01*
X135754928Y-157054636D01*
X135754928Y-157411779D01*
X135683500Y-157554636D01*
X135612071Y-157626064D01*
X135469214Y-157697493D01*
X135040642Y-157697493D01*
X134897785Y-157626064D01*
X134826357Y-157554636D01*
X137540642Y-157697493D02*
X137540642Y-156697493D01*
X137540642Y-156840350D02*
X137612071Y-156768922D01*
X137754928Y-156697493D01*
X137969214Y-156697493D01*
X138112071Y-156768922D01*
X138183500Y-156911779D01*
X138183500Y-157697493D01*
X138183500Y-156911779D02*
X138254928Y-156768922D01*
X138397785Y-156697493D01*
X138612071Y-156697493D01*
X138754928Y-156768922D01*
X138826357Y-156911779D01*
X138826357Y-157697493D01*
X139540642Y-157697493D02*
X139540642Y-156697493D01*
X139540642Y-156840350D02*
X139612071Y-156768922D01*
X139754928Y-156697493D01*
X139969214Y-156697493D01*
X140112071Y-156768922D01*
X140183500Y-156911779D01*
X140183500Y-157697493D01*
X140183500Y-156911779D02*
X140254928Y-156768922D01*
X140397785Y-156697493D01*
X140612071Y-156697493D01*
X140754928Y-156768922D01*
X140826357Y-156911779D01*
X140826357Y-157697493D01*
X113157000Y-155668922D02*
X156210000Y-155668922D01*
X113157000Y-130302000D02*
X113157000Y-158368922D01*
X156210000Y-130302000D02*
X156210000Y-158368922D01*
X156210000Y-155668922D02*
X155083496Y-156255343D01*
X156210000Y-155668922D02*
X155083496Y-155082501D01*
X113157000Y-155668922D02*
X114283504Y-156255343D01*
X113157000Y-155668922D02*
X114283504Y-155082501D01*
M02*
