G04 #@! TF.GenerationSoftware,KiCad,Pcbnew,6.0.0-rc1-unknown-ee465fb~66~ubuntu18.04.1*
G04 #@! TF.CreationDate,2018-10-10T09:41:09-05:00*
G04 #@! TF.ProjectId,liger,6C696765722E6B696361645F70636200,rev?*
G04 #@! TF.SameCoordinates,Original*
G04 #@! TF.FileFunction,Copper,L1,Top,Signal*
G04 #@! TF.FilePolarity,Positive*
%FSLAX46Y46*%
G04 Gerber Fmt 4.6, Leading zero omitted, Abs format (unit mm)*
G04 Created by KiCad (PCBNEW 6.0.0-rc1-unknown-ee465fb~66~ubuntu18.04.1) date Wed Oct 10 09:41:09 2018*
%MOMM*%
%LPD*%
G01*
G04 APERTURE LIST*
G04 #@! TA.AperFunction,ComponentPad*
%ADD10C,3.500000*%
G04 #@! TD*
G04 #@! TA.AperFunction,SMDPad,CuDef*
%ADD11R,7.000000X3.000000*%
G04 #@! TD*
G04 #@! TA.AperFunction,SMDPad,CuDef*
%ADD12R,3.000000X7.000000*%
G04 #@! TD*
G04 #@! TA.AperFunction,ComponentPad*
%ADD13C,2.000000*%
G04 #@! TD*
G04 #@! TA.AperFunction,ComponentPad*
%ADD14O,1.200000X1.200000*%
G04 #@! TD*
G04 #@! TA.AperFunction,ComponentPad*
%ADD15O,1.600000X1.200000*%
G04 #@! TD*
G04 #@! TA.AperFunction,SMDPad,CuDef*
%ADD16R,0.900000X1.000000*%
G04 #@! TD*
G04 #@! TA.AperFunction,ComponentPad*
%ADD17C,1.800000*%
G04 #@! TD*
G04 #@! TA.AperFunction,ComponentPad*
%ADD18R,1.800000X1.800000*%
G04 #@! TD*
G04 #@! TA.AperFunction,Conductor*
%ADD19C,0.100000*%
G04 #@! TD*
G04 #@! TA.AperFunction,SMDPad,CuDef*
%ADD20C,0.950000*%
G04 #@! TD*
G04 #@! TA.AperFunction,ComponentPad*
%ADD21R,1.700000X1.700000*%
G04 #@! TD*
G04 #@! TA.AperFunction,ComponentPad*
%ADD22O,1.700000X1.700000*%
G04 #@! TD*
G04 #@! TA.AperFunction,ComponentPad*
%ADD23C,1.500000*%
G04 #@! TD*
G04 #@! TA.AperFunction,SMDPad,CuDef*
%ADD24R,0.800000X1.800000*%
G04 #@! TD*
G04 #@! TA.AperFunction,ComponentPad*
%ADD25C,1.624000*%
G04 #@! TD*
G04 #@! TA.AperFunction,SMDPad,CuDef*
%ADD26R,0.600000X0.522000*%
G04 #@! TD*
G04 #@! TA.AperFunction,SMDPad,CuDef*
%ADD27R,1.600000X2.500000*%
G04 #@! TD*
G04 #@! TA.AperFunction,SMDPad,CuDef*
%ADD28R,1.250000X0.450000*%
G04 #@! TD*
G04 #@! TA.AperFunction,SMDPad,CuDef*
%ADD29R,0.450000X0.600000*%
G04 #@! TD*
G04 #@! TA.AperFunction,SMDPad,CuDef*
%ADD30R,0.600000X0.450000*%
G04 #@! TD*
G04 #@! TA.AperFunction,SMDPad,CuDef*
%ADD31R,1.500000X1.000000*%
G04 #@! TD*
G04 #@! TA.AperFunction,ViaPad*
%ADD32C,0.600000*%
G04 #@! TD*
G04 #@! TA.AperFunction,ViaPad*
%ADD33C,1.000000*%
G04 #@! TD*
G04 #@! TA.AperFunction,ViaPad*
%ADD34C,1.200000*%
G04 #@! TD*
G04 #@! TA.AperFunction,ViaPad*
%ADD35C,0.800000*%
G04 #@! TD*
G04 #@! TA.AperFunction,Conductor*
%ADD36C,0.250000*%
G04 #@! TD*
G04 #@! TA.AperFunction,Conductor*
%ADD37C,0.400000*%
G04 #@! TD*
G04 #@! TA.AperFunction,Conductor*
%ADD38C,0.500000*%
G04 #@! TD*
G04 #@! TA.AperFunction,Conductor*
%ADD39C,0.254000*%
G04 #@! TD*
G04 APERTURE END LIST*
D10*
G04 #@! TO.P,U7,1*
G04 #@! TO.N,GND*
X133000000Y-124800000D03*
X161000000Y-51800000D03*
G04 #@! TD*
D11*
G04 #@! TO.P,U12,3*
G04 #@! TO.N,/T_UP*
X147050000Y-79000000D03*
D12*
G04 #@! TO.P,U12,1*
G04 #@! TO.N,/T_LEFT*
X138100000Y-87850000D03*
D11*
G04 #@! TO.P,U12,4*
G04 #@! TO.N,/T_DOWN*
X147050000Y-96900000D03*
D12*
G04 #@! TO.P,U12,2*
G04 #@! TO.N,/T_RIGHT*
X156050000Y-87900000D03*
D13*
G04 #@! TO.P,U12,*
G04 #@! TO.N,*
X132550000Y-73400000D03*
X161550000Y-73400000D03*
X132550000Y-102400000D03*
X161550000Y-102400000D03*
G04 #@! TD*
D14*
G04 #@! TO.P,U7,3*
G04 #@! TO.N,GND*
X149730000Y-61400000D03*
G04 #@! TO.P,U7,2*
G04 #@! TO.N,Net-(C4-Pad1)*
X147190000Y-63940000D03*
D15*
G04 #@! TO.P,U7,1*
G04 #@! TO.N,/3V3*
X144650000Y-61400000D03*
G04 #@! TD*
D16*
G04 #@! TO.P,PROG1,1*
G04 #@! TO.N,/PROG*
X134074000Y-111498600D03*
G04 #@! TO.P,PROG1,2*
G04 #@! TO.N,GND*
X135674000Y-111498600D03*
G04 #@! TO.P,PROG1,1*
G04 #@! TO.N,/PROG*
X134074000Y-107398600D03*
G04 #@! TO.P,PROG1,2*
G04 #@! TO.N,GND*
X135674000Y-107398600D03*
G04 #@! TD*
D17*
G04 #@! TO.P,D1,2*
G04 #@! TO.N,Net-(D1-Pad2)*
X159232600Y-64008000D03*
D18*
G04 #@! TO.P,D1,1*
G04 #@! TO.N,Net-(D1-Pad1)*
X156692600Y-64008000D03*
G04 #@! TD*
D19*
G04 #@! TO.N,/3V3*
G04 #@! TO.C,D2*
G36*
X156724779Y-111518144D02*
X156747834Y-111521563D01*
X156770443Y-111527227D01*
X156792387Y-111535079D01*
X156813457Y-111545044D01*
X156833448Y-111557026D01*
X156852168Y-111570910D01*
X156869438Y-111586562D01*
X156885090Y-111603832D01*
X156898974Y-111622552D01*
X156910956Y-111642543D01*
X156920921Y-111663613D01*
X156928773Y-111685557D01*
X156934437Y-111708166D01*
X156937856Y-111731221D01*
X156939000Y-111754500D01*
X156939000Y-112329500D01*
X156937856Y-112352779D01*
X156934437Y-112375834D01*
X156928773Y-112398443D01*
X156920921Y-112420387D01*
X156910956Y-112441457D01*
X156898974Y-112461448D01*
X156885090Y-112480168D01*
X156869438Y-112497438D01*
X156852168Y-112513090D01*
X156833448Y-112526974D01*
X156813457Y-112538956D01*
X156792387Y-112548921D01*
X156770443Y-112556773D01*
X156747834Y-112562437D01*
X156724779Y-112565856D01*
X156701500Y-112567000D01*
X156226500Y-112567000D01*
X156203221Y-112565856D01*
X156180166Y-112562437D01*
X156157557Y-112556773D01*
X156135613Y-112548921D01*
X156114543Y-112538956D01*
X156094552Y-112526974D01*
X156075832Y-112513090D01*
X156058562Y-112497438D01*
X156042910Y-112480168D01*
X156029026Y-112461448D01*
X156017044Y-112441457D01*
X156007079Y-112420387D01*
X155999227Y-112398443D01*
X155993563Y-112375834D01*
X155990144Y-112352779D01*
X155989000Y-112329500D01*
X155989000Y-111754500D01*
X155990144Y-111731221D01*
X155993563Y-111708166D01*
X155999227Y-111685557D01*
X156007079Y-111663613D01*
X156017044Y-111642543D01*
X156029026Y-111622552D01*
X156042910Y-111603832D01*
X156058562Y-111586562D01*
X156075832Y-111570910D01*
X156094552Y-111557026D01*
X156114543Y-111545044D01*
X156135613Y-111535079D01*
X156157557Y-111527227D01*
X156180166Y-111521563D01*
X156203221Y-111518144D01*
X156226500Y-111517000D01*
X156701500Y-111517000D01*
X156724779Y-111518144D01*
X156724779Y-111518144D01*
G37*
D20*
G04 #@! TD*
G04 #@! TO.P,D2,2*
G04 #@! TO.N,/3V3*
X156464000Y-112042000D03*
D19*
G04 #@! TO.N,Net-(D2-Pad1)*
G04 #@! TO.C,D2*
G36*
X156724779Y-113268144D02*
X156747834Y-113271563D01*
X156770443Y-113277227D01*
X156792387Y-113285079D01*
X156813457Y-113295044D01*
X156833448Y-113307026D01*
X156852168Y-113320910D01*
X156869438Y-113336562D01*
X156885090Y-113353832D01*
X156898974Y-113372552D01*
X156910956Y-113392543D01*
X156920921Y-113413613D01*
X156928773Y-113435557D01*
X156934437Y-113458166D01*
X156937856Y-113481221D01*
X156939000Y-113504500D01*
X156939000Y-114079500D01*
X156937856Y-114102779D01*
X156934437Y-114125834D01*
X156928773Y-114148443D01*
X156920921Y-114170387D01*
X156910956Y-114191457D01*
X156898974Y-114211448D01*
X156885090Y-114230168D01*
X156869438Y-114247438D01*
X156852168Y-114263090D01*
X156833448Y-114276974D01*
X156813457Y-114288956D01*
X156792387Y-114298921D01*
X156770443Y-114306773D01*
X156747834Y-114312437D01*
X156724779Y-114315856D01*
X156701500Y-114317000D01*
X156226500Y-114317000D01*
X156203221Y-114315856D01*
X156180166Y-114312437D01*
X156157557Y-114306773D01*
X156135613Y-114298921D01*
X156114543Y-114288956D01*
X156094552Y-114276974D01*
X156075832Y-114263090D01*
X156058562Y-114247438D01*
X156042910Y-114230168D01*
X156029026Y-114211448D01*
X156017044Y-114191457D01*
X156007079Y-114170387D01*
X155999227Y-114148443D01*
X155993563Y-114125834D01*
X155990144Y-114102779D01*
X155989000Y-114079500D01*
X155989000Y-113504500D01*
X155990144Y-113481221D01*
X155993563Y-113458166D01*
X155999227Y-113435557D01*
X156007079Y-113413613D01*
X156017044Y-113392543D01*
X156029026Y-113372552D01*
X156042910Y-113353832D01*
X156058562Y-113336562D01*
X156075832Y-113320910D01*
X156094552Y-113307026D01*
X156114543Y-113295044D01*
X156135613Y-113285079D01*
X156157557Y-113277227D01*
X156180166Y-113271563D01*
X156203221Y-113268144D01*
X156226500Y-113267000D01*
X156701500Y-113267000D01*
X156724779Y-113268144D01*
X156724779Y-113268144D01*
G37*
D20*
G04 #@! TD*
G04 #@! TO.P,D2,1*
G04 #@! TO.N,Net-(D2-Pad1)*
X156464000Y-113792000D03*
D19*
G04 #@! TO.N,Net-(D4-Pad1)*
G04 #@! TO.C,D4*
G36*
X138182779Y-107426144D02*
X138205834Y-107429563D01*
X138228443Y-107435227D01*
X138250387Y-107443079D01*
X138271457Y-107453044D01*
X138291448Y-107465026D01*
X138310168Y-107478910D01*
X138327438Y-107494562D01*
X138343090Y-107511832D01*
X138356974Y-107530552D01*
X138368956Y-107550543D01*
X138378921Y-107571613D01*
X138386773Y-107593557D01*
X138392437Y-107616166D01*
X138395856Y-107639221D01*
X138397000Y-107662500D01*
X138397000Y-108237500D01*
X138395856Y-108260779D01*
X138392437Y-108283834D01*
X138386773Y-108306443D01*
X138378921Y-108328387D01*
X138368956Y-108349457D01*
X138356974Y-108369448D01*
X138343090Y-108388168D01*
X138327438Y-108405438D01*
X138310168Y-108421090D01*
X138291448Y-108434974D01*
X138271457Y-108446956D01*
X138250387Y-108456921D01*
X138228443Y-108464773D01*
X138205834Y-108470437D01*
X138182779Y-108473856D01*
X138159500Y-108475000D01*
X137684500Y-108475000D01*
X137661221Y-108473856D01*
X137638166Y-108470437D01*
X137615557Y-108464773D01*
X137593613Y-108456921D01*
X137572543Y-108446956D01*
X137552552Y-108434974D01*
X137533832Y-108421090D01*
X137516562Y-108405438D01*
X137500910Y-108388168D01*
X137487026Y-108369448D01*
X137475044Y-108349457D01*
X137465079Y-108328387D01*
X137457227Y-108306443D01*
X137451563Y-108283834D01*
X137448144Y-108260779D01*
X137447000Y-108237500D01*
X137447000Y-107662500D01*
X137448144Y-107639221D01*
X137451563Y-107616166D01*
X137457227Y-107593557D01*
X137465079Y-107571613D01*
X137475044Y-107550543D01*
X137487026Y-107530552D01*
X137500910Y-107511832D01*
X137516562Y-107494562D01*
X137533832Y-107478910D01*
X137552552Y-107465026D01*
X137572543Y-107453044D01*
X137593613Y-107443079D01*
X137615557Y-107435227D01*
X137638166Y-107429563D01*
X137661221Y-107426144D01*
X137684500Y-107425000D01*
X138159500Y-107425000D01*
X138182779Y-107426144D01*
X138182779Y-107426144D01*
G37*
D20*
G04 #@! TD*
G04 #@! TO.P,D4,1*
G04 #@! TO.N,Net-(D4-Pad1)*
X137922000Y-107950000D03*
D19*
G04 #@! TO.N,/3V3*
G04 #@! TO.C,D4*
G36*
X138182779Y-109176144D02*
X138205834Y-109179563D01*
X138228443Y-109185227D01*
X138250387Y-109193079D01*
X138271457Y-109203044D01*
X138291448Y-109215026D01*
X138310168Y-109228910D01*
X138327438Y-109244562D01*
X138343090Y-109261832D01*
X138356974Y-109280552D01*
X138368956Y-109300543D01*
X138378921Y-109321613D01*
X138386773Y-109343557D01*
X138392437Y-109366166D01*
X138395856Y-109389221D01*
X138397000Y-109412500D01*
X138397000Y-109987500D01*
X138395856Y-110010779D01*
X138392437Y-110033834D01*
X138386773Y-110056443D01*
X138378921Y-110078387D01*
X138368956Y-110099457D01*
X138356974Y-110119448D01*
X138343090Y-110138168D01*
X138327438Y-110155438D01*
X138310168Y-110171090D01*
X138291448Y-110184974D01*
X138271457Y-110196956D01*
X138250387Y-110206921D01*
X138228443Y-110214773D01*
X138205834Y-110220437D01*
X138182779Y-110223856D01*
X138159500Y-110225000D01*
X137684500Y-110225000D01*
X137661221Y-110223856D01*
X137638166Y-110220437D01*
X137615557Y-110214773D01*
X137593613Y-110206921D01*
X137572543Y-110196956D01*
X137552552Y-110184974D01*
X137533832Y-110171090D01*
X137516562Y-110155438D01*
X137500910Y-110138168D01*
X137487026Y-110119448D01*
X137475044Y-110099457D01*
X137465079Y-110078387D01*
X137457227Y-110056443D01*
X137451563Y-110033834D01*
X137448144Y-110010779D01*
X137447000Y-109987500D01*
X137447000Y-109412500D01*
X137448144Y-109389221D01*
X137451563Y-109366166D01*
X137457227Y-109343557D01*
X137465079Y-109321613D01*
X137475044Y-109300543D01*
X137487026Y-109280552D01*
X137500910Y-109261832D01*
X137516562Y-109244562D01*
X137533832Y-109228910D01*
X137552552Y-109215026D01*
X137572543Y-109203044D01*
X137593613Y-109193079D01*
X137615557Y-109185227D01*
X137638166Y-109179563D01*
X137661221Y-109176144D01*
X137684500Y-109175000D01*
X138159500Y-109175000D01*
X138182779Y-109176144D01*
X138182779Y-109176144D01*
G37*
D20*
G04 #@! TD*
G04 #@! TO.P,D4,2*
G04 #@! TO.N,/3V3*
X137922000Y-109700000D03*
D19*
G04 #@! TO.N,/3V3*
G04 #@! TO.C,D5*
G36*
X138182779Y-115074144D02*
X138205834Y-115077563D01*
X138228443Y-115083227D01*
X138250387Y-115091079D01*
X138271457Y-115101044D01*
X138291448Y-115113026D01*
X138310168Y-115126910D01*
X138327438Y-115142562D01*
X138343090Y-115159832D01*
X138356974Y-115178552D01*
X138368956Y-115198543D01*
X138378921Y-115219613D01*
X138386773Y-115241557D01*
X138392437Y-115264166D01*
X138395856Y-115287221D01*
X138397000Y-115310500D01*
X138397000Y-115885500D01*
X138395856Y-115908779D01*
X138392437Y-115931834D01*
X138386773Y-115954443D01*
X138378921Y-115976387D01*
X138368956Y-115997457D01*
X138356974Y-116017448D01*
X138343090Y-116036168D01*
X138327438Y-116053438D01*
X138310168Y-116069090D01*
X138291448Y-116082974D01*
X138271457Y-116094956D01*
X138250387Y-116104921D01*
X138228443Y-116112773D01*
X138205834Y-116118437D01*
X138182779Y-116121856D01*
X138159500Y-116123000D01*
X137684500Y-116123000D01*
X137661221Y-116121856D01*
X137638166Y-116118437D01*
X137615557Y-116112773D01*
X137593613Y-116104921D01*
X137572543Y-116094956D01*
X137552552Y-116082974D01*
X137533832Y-116069090D01*
X137516562Y-116053438D01*
X137500910Y-116036168D01*
X137487026Y-116017448D01*
X137475044Y-115997457D01*
X137465079Y-115976387D01*
X137457227Y-115954443D01*
X137451563Y-115931834D01*
X137448144Y-115908779D01*
X137447000Y-115885500D01*
X137447000Y-115310500D01*
X137448144Y-115287221D01*
X137451563Y-115264166D01*
X137457227Y-115241557D01*
X137465079Y-115219613D01*
X137475044Y-115198543D01*
X137487026Y-115178552D01*
X137500910Y-115159832D01*
X137516562Y-115142562D01*
X137533832Y-115126910D01*
X137552552Y-115113026D01*
X137572543Y-115101044D01*
X137593613Y-115091079D01*
X137615557Y-115083227D01*
X137638166Y-115077563D01*
X137661221Y-115074144D01*
X137684500Y-115073000D01*
X138159500Y-115073000D01*
X138182779Y-115074144D01*
X138182779Y-115074144D01*
G37*
D20*
G04 #@! TD*
G04 #@! TO.P,D5,2*
G04 #@! TO.N,/3V3*
X137922000Y-115598000D03*
D19*
G04 #@! TO.N,Net-(D5-Pad1)*
G04 #@! TO.C,D5*
G36*
X138182779Y-116824144D02*
X138205834Y-116827563D01*
X138228443Y-116833227D01*
X138250387Y-116841079D01*
X138271457Y-116851044D01*
X138291448Y-116863026D01*
X138310168Y-116876910D01*
X138327438Y-116892562D01*
X138343090Y-116909832D01*
X138356974Y-116928552D01*
X138368956Y-116948543D01*
X138378921Y-116969613D01*
X138386773Y-116991557D01*
X138392437Y-117014166D01*
X138395856Y-117037221D01*
X138397000Y-117060500D01*
X138397000Y-117635500D01*
X138395856Y-117658779D01*
X138392437Y-117681834D01*
X138386773Y-117704443D01*
X138378921Y-117726387D01*
X138368956Y-117747457D01*
X138356974Y-117767448D01*
X138343090Y-117786168D01*
X138327438Y-117803438D01*
X138310168Y-117819090D01*
X138291448Y-117832974D01*
X138271457Y-117844956D01*
X138250387Y-117854921D01*
X138228443Y-117862773D01*
X138205834Y-117868437D01*
X138182779Y-117871856D01*
X138159500Y-117873000D01*
X137684500Y-117873000D01*
X137661221Y-117871856D01*
X137638166Y-117868437D01*
X137615557Y-117862773D01*
X137593613Y-117854921D01*
X137572543Y-117844956D01*
X137552552Y-117832974D01*
X137533832Y-117819090D01*
X137516562Y-117803438D01*
X137500910Y-117786168D01*
X137487026Y-117767448D01*
X137475044Y-117747457D01*
X137465079Y-117726387D01*
X137457227Y-117704443D01*
X137451563Y-117681834D01*
X137448144Y-117658779D01*
X137447000Y-117635500D01*
X137447000Y-117060500D01*
X137448144Y-117037221D01*
X137451563Y-117014166D01*
X137457227Y-116991557D01*
X137465079Y-116969613D01*
X137475044Y-116948543D01*
X137487026Y-116928552D01*
X137500910Y-116909832D01*
X137516562Y-116892562D01*
X137533832Y-116876910D01*
X137552552Y-116863026D01*
X137572543Y-116851044D01*
X137593613Y-116841079D01*
X137615557Y-116833227D01*
X137638166Y-116827563D01*
X137661221Y-116824144D01*
X137684500Y-116823000D01*
X138159500Y-116823000D01*
X138182779Y-116824144D01*
X138182779Y-116824144D01*
G37*
D20*
G04 #@! TD*
G04 #@! TO.P,D5,1*
G04 #@! TO.N,Net-(D5-Pad1)*
X137922000Y-117348000D03*
D16*
G04 #@! TO.P,FACTORY1,2*
G04 #@! TO.N,GND*
X158407200Y-115080000D03*
G04 #@! TO.P,FACTORY1,1*
G04 #@! TO.N,/FACTORY_RST*
X160007200Y-115080000D03*
G04 #@! TO.P,FACTORY1,2*
G04 #@! TO.N,GND*
X158407200Y-110980000D03*
G04 #@! TO.P,FACTORY1,1*
G04 #@! TO.N,/FACTORY_RST*
X160007200Y-110980000D03*
G04 #@! TD*
D21*
G04 #@! TO.P,J1,1*
G04 #@! TO.N,GND*
X156667200Y-124587000D03*
D22*
G04 #@! TO.P,J1,2*
X156667200Y-122047000D03*
G04 #@! TO.P,J1,3*
G04 #@! TO.N,/V_BAT*
X154127200Y-124587000D03*
G04 #@! TO.P,J1,4*
G04 #@! TO.N,/V_USB*
X154127200Y-122047000D03*
G04 #@! TO.P,J1,5*
G04 #@! TO.N,/3V3*
X151587200Y-124587000D03*
G04 #@! TO.P,J1,6*
G04 #@! TO.N,/TXD*
X151587200Y-122047000D03*
G04 #@! TO.P,J1,7*
G04 #@! TO.N,/ZERO_DETECT*
X149047200Y-124587000D03*
G04 #@! TO.P,J1,8*
G04 #@! TO.N,/RXD*
X149047200Y-122047000D03*
G04 #@! TO.P,J1,9*
G04 #@! TO.N,/SCL*
X146507200Y-124587000D03*
G04 #@! TO.P,J1,10*
G04 #@! TO.N,/SDA*
X146507200Y-122047000D03*
G04 #@! TO.P,J1,11*
G04 #@! TO.N,/I2S_WS*
X143967200Y-124587000D03*
G04 #@! TO.P,J1,12*
G04 #@! TO.N,/IS2_DATA_IN*
X143967200Y-122047000D03*
G04 #@! TO.P,J1,13*
G04 #@! TO.N,/I2S_BCLK*
X141427200Y-124587000D03*
G04 #@! TO.P,J1,14*
G04 #@! TO.N,/I2S_DATA_OUT*
X141427200Y-122047000D03*
G04 #@! TO.P,J1,15*
G04 #@! TO.N,/PROG*
X138887200Y-124587000D03*
G04 #@! TO.P,J1,16*
G04 #@! TO.N,/RELAY*
X138887200Y-122047000D03*
G04 #@! TD*
D23*
G04 #@! TO.P,LS1,1*
G04 #@! TO.N,Net-(LS1-Pad1)*
X146253200Y-116828400D03*
G04 #@! TO.P,LS1,2*
G04 #@! TO.N,Net-(LS1-Pad2)*
X146253200Y-109228400D03*
G04 #@! TD*
D16*
G04 #@! TO.P,REBOOT1,2*
G04 #@! TO.N,GND*
X135674000Y-114383600D03*
G04 #@! TO.P,REBOOT1,1*
G04 #@! TO.N,/EN*
X134074000Y-114383600D03*
G04 #@! TO.P,REBOOT1,2*
G04 #@! TO.N,GND*
X135674000Y-118483600D03*
G04 #@! TO.P,REBOOT1,1*
G04 #@! TO.N,/EN*
X134074000Y-118483600D03*
G04 #@! TD*
D24*
G04 #@! TO.P,U2,Vs*
G04 #@! TO.N,/3V3*
X157556200Y-58674000D03*
G04 #@! TO.P,U2,GND*
G04 #@! TO.N,GND*
X156286200Y-58674000D03*
G04 #@! TO.P,U2,OUT*
G04 #@! TO.N,Net-(R3-Pad2)*
X158826200Y-58674000D03*
G04 #@! TO.P,U2,GND*
G04 #@! TO.N,GND*
X160096200Y-58674000D03*
G04 #@! TD*
D25*
G04 #@! TO.P,U3,3*
G04 #@! TO.N,GND*
X139576400Y-60426800D03*
D26*
G04 #@! TO.P,U3,2*
X140476400Y-61676800D03*
G04 #@! TO.P,U3,4*
G04 #@! TO.N,/I2S_BCLK*
X138676400Y-61676800D03*
G04 #@! TO.P,U3,5*
G04 #@! TO.N,/3V3*
X138676400Y-62496800D03*
G04 #@! TO.P,U3,6*
G04 #@! TO.N,Net-(R11-Pad2)*
X139576400Y-62496800D03*
G04 #@! TO.P,U3,1*
G04 #@! TO.N,/I2S_WS*
X140476400Y-62496800D03*
G04 #@! TD*
D27*
G04 #@! TO.P,U6,2*
G04 #@! TO.N,GND*
X134899400Y-63576200D03*
D28*
G04 #@! TO.P,U6,4*
G04 #@! TO.N,N/C*
X136549400Y-64576200D03*
G04 #@! TO.P,U6,6*
G04 #@! TO.N,/SCL*
X136549400Y-62576200D03*
G04 #@! TO.P,U6,5*
G04 #@! TO.N,/3V3*
X136549400Y-63576200D03*
G04 #@! TO.P,U6,3*
G04 #@! TO.N,N/C*
X133249400Y-64576200D03*
G04 #@! TO.P,U6,2*
G04 #@! TO.N,GND*
X133249400Y-63576200D03*
G04 #@! TO.P,U6,1*
G04 #@! TO.N,/SDA*
X133249400Y-62576200D03*
G04 #@! TD*
D29*
G04 #@! TO.P,U8,1*
G04 #@! TO.N,/3V3*
X135432800Y-59253400D03*
D30*
G04 #@! TO.P,U8,2*
G04 #@! TO.N,GND*
X134232800Y-58953400D03*
G04 #@! TO.P,U8,3*
G04 #@! TO.N,/SDA*
X134232800Y-60303400D03*
G04 #@! TO.P,U8,4*
G04 #@! TO.N,/SCL*
X135432800Y-60303400D03*
G04 #@! TO.P,U8,1*
G04 #@! TO.N,/3V3*
X135432800Y-58953400D03*
G04 #@! TD*
D31*
G04 #@! TO.P,D7,3*
G04 #@! TO.N,GND*
X144616000Y-87046000D03*
G04 #@! TO.P,D7,4*
G04 #@! TO.N,/BUTTON_LED*
X144616000Y-90246000D03*
G04 #@! TO.P,D7,2*
G04 #@! TO.N,Net-(D7-Pad2)*
X149516000Y-87046000D03*
G04 #@! TO.P,D7,1*
G04 #@! TO.N,/V_USB*
X149516000Y-90246000D03*
G04 #@! TD*
D32*
G04 #@! TO.N,GND*
X133897400Y-57454800D03*
X134899400Y-63576200D03*
X140716000Y-67005200D03*
X135382000Y-116332000D03*
X135382000Y-109474000D03*
X137972800Y-111875600D03*
X154940000Y-107696000D03*
X151130000Y-108458000D03*
X158724600Y-113258600D03*
X152654000Y-99060000D03*
D33*
X138430000Y-79756000D03*
D32*
X160020000Y-106172000D03*
X154940000Y-111252000D03*
X140785972Y-113417970D03*
X152654000Y-112968010D03*
X154624010Y-116115760D03*
X139825010Y-108712000D03*
X137871200Y-68021200D03*
D34*
X153974800Y-68935600D03*
X153517600Y-79908400D03*
X155498800Y-78638400D03*
X144322800Y-88595200D03*
X147167600Y-91592400D03*
X147167600Y-86055200D03*
D32*
X148437600Y-68681600D03*
X138643034Y-100514905D03*
D34*
X149650000Y-58200000D03*
D35*
X158450000Y-97150000D03*
D32*
G04 #@! TO.N,Net-(D2-Pad1)*
X156464000Y-113792000D03*
G04 #@! TO.N,Net-(D4-Pad1)*
X137922000Y-107950000D03*
G04 #@! TO.N,Net-(D5-Pad1)*
X137922000Y-117348000D03*
G04 #@! TO.N,Net-(LS1-Pad1)*
X143764000Y-112776000D03*
G04 #@! TO.N,Net-(LS1-Pad2)*
X143002000Y-111252000D03*
D35*
G04 #@! TO.N,Net-(R3-Pad2)*
X158851600Y-59944000D03*
D32*
G04 #@! TO.N,Net-(R11-Pad2)*
X139672820Y-63985510D03*
G04 #@! TO.N,/V_BAT*
X157226000Y-115316000D03*
X153924000Y-115316000D03*
X152146000Y-118110000D03*
X155892372Y-115464356D03*
G04 #@! TO.N,/3V3*
X135647400Y-57454800D03*
X138684000Y-63296800D03*
D35*
X152806400Y-110896400D03*
X160869000Y-63957200D03*
X156565600Y-101650800D03*
X159461200Y-91490800D03*
D32*
X145200000Y-57200000D03*
G04 #@! TO.N,/V_IN*
X149656800Y-112572800D03*
X143433613Y-109448787D03*
G04 #@! TO.N,/V_USB*
X160782000Y-118110000D03*
X161724990Y-111723200D03*
D35*
X155651200Y-100330000D03*
D32*
G04 #@! TO.N,/BUTTON_LED*
X135800000Y-90600000D03*
G04 #@! TO.N,/FACTORY_RST*
X158242000Y-117094000D03*
D35*
X158850000Y-104800000D03*
D32*
G04 #@! TO.N,/TXD*
X136398000Y-102616000D03*
X143242846Y-102602846D03*
X132774990Y-88896848D03*
X136002999Y-83900000D03*
G04 #@! TO.N,/RELAY*
X147400000Y-107300000D03*
X147300000Y-105400000D03*
X145600000Y-102500000D03*
X147269200Y-110642400D03*
X146202400Y-111861600D03*
X145135600Y-119532400D03*
D35*
X142290800Y-100533200D03*
D32*
G04 #@! TO.N,/RXD*
X136398000Y-103378000D03*
X132101011Y-90678000D03*
X143065410Y-103352406D03*
X136002999Y-85300000D03*
G04 #@! TO.N,/SCL*
X135432800Y-61459600D03*
G04 #@! TO.N,/SDA*
X132638800Y-67005200D03*
X135000000Y-69350000D03*
G04 #@! TO.N,/I2S_WS*
X138531600Y-69291200D03*
X141224000Y-108204000D03*
X141732000Y-113538000D03*
X131826000Y-87376000D03*
X132588000Y-83312000D03*
G04 #@! TO.N,/I2S_BCLK*
X142124990Y-120618510D03*
D35*
X139547600Y-57353200D03*
D32*
G04 #@! TO.N,/I2S_DATA_OUT*
X139300000Y-107200000D03*
X141400000Y-105000000D03*
X139200000Y-111600000D03*
X139200000Y-113800000D03*
X157600000Y-96100000D03*
X157200000Y-92100000D03*
G04 #@! TO.N,/PROG*
X134366000Y-99568000D03*
X133654800Y-108407200D03*
X133374000Y-112248600D03*
X134550000Y-104969000D03*
G04 #@! TO.N,/ZERO_DETECT*
X151282400Y-127101600D03*
X162915600Y-121189301D03*
X161493200Y-109474000D03*
G04 #@! TO.N,/IR_RX*
X148590000Y-71374000D03*
X134366000Y-93980000D03*
X137480800Y-94101600D03*
X142292010Y-71374000D03*
X134112000Y-89712800D03*
X134162800Y-85598000D03*
G04 #@! TO.N,/IR_TX*
X135128000Y-89916000D03*
X148590000Y-72390000D03*
X135128000Y-80010000D03*
X135128000Y-83058000D03*
X142494000Y-72390000D03*
X135128000Y-85852000D03*
G04 #@! TO.N,/EN*
X145999200Y-83718400D03*
X143459200Y-83769200D03*
X140309600Y-104241600D03*
X137617200Y-105918000D03*
X134569200Y-115468400D03*
X132706317Y-112590239D03*
G04 #@! TO.N,/T_UP*
X152350000Y-88350000D03*
G04 #@! TO.N,/T_DOWN*
X146720000Y-95492000D03*
G04 #@! TO.N,/T_RIGHT*
X153600000Y-90300000D03*
G04 #@! TO.N,/T_LEFT*
X142900000Y-86700000D03*
G04 #@! TD*
D36*
G04 #@! TO.N,GND*
X133858000Y-57415400D02*
X133897400Y-57454800D01*
X133858000Y-58103600D02*
X133858000Y-57415400D01*
X134232800Y-58953400D02*
X134232800Y-58478400D01*
X134232800Y-58478400D02*
X133858000Y-58103600D01*
X135674000Y-114383600D02*
X135674000Y-116040000D01*
X135674000Y-116040000D02*
X135382000Y-116332000D01*
X135674000Y-116624000D02*
X135382000Y-116332000D01*
X135674000Y-118483600D02*
X135674000Y-116624000D01*
X135674000Y-111498600D02*
X135674000Y-109766000D01*
X135674000Y-109766000D02*
X135382000Y-109474000D01*
X135674000Y-109182000D02*
X135382000Y-109474000D01*
X135674000Y-107398600D02*
X135674000Y-109182000D01*
X158407200Y-110980000D02*
X158407200Y-112941200D01*
X158407200Y-112941200D02*
X158724600Y-113258600D01*
X158407200Y-113576000D02*
X158724600Y-113258600D01*
X158407200Y-115080000D02*
X158407200Y-113576000D01*
G04 #@! TO.N,Net-(LS1-Pad1)*
X146253200Y-115265200D02*
X146253200Y-116828400D01*
X143764000Y-112776000D02*
X146253200Y-115265200D01*
G04 #@! TO.N,Net-(LS1-Pad2)*
X145025600Y-109228400D02*
X146253200Y-109228400D01*
X143002000Y-111252000D02*
X145025600Y-109228400D01*
G04 #@! TO.N,Net-(R3-Pad2)*
X158851600Y-58699400D02*
X158826200Y-58674000D01*
X158851600Y-59944000D02*
X158851600Y-58699400D01*
G04 #@! TO.N,Net-(R11-Pad2)*
X139576400Y-62496800D02*
X139576400Y-63889090D01*
X139576400Y-63889090D02*
X139672820Y-63985510D01*
D37*
G04 #@! TO.N,/V_BAT*
X153924000Y-116332000D02*
X152146000Y-118110000D01*
X157226000Y-115316000D02*
X156040728Y-115316000D01*
X156040728Y-115316000D02*
X155892372Y-115464356D01*
X153924000Y-115316000D02*
X153924000Y-116332000D01*
G04 #@! TO.N,/3V3*
X135432800Y-59253400D02*
X135432800Y-57669400D01*
X135432800Y-57669400D02*
X135647400Y-57454800D01*
D38*
X138676400Y-62496800D02*
X138676400Y-63289200D01*
X138676400Y-63289200D02*
X138684000Y-63296800D01*
X138404600Y-63576200D02*
X138684000Y-63296800D01*
X136549400Y-63576200D02*
X138404600Y-63576200D01*
D36*
X153952000Y-112042000D02*
X152806400Y-110896400D01*
X156464000Y-112042000D02*
X153952000Y-112042000D01*
X151028400Y-112674400D02*
X151028400Y-117094000D01*
X152806400Y-110896400D02*
X151028400Y-112674400D01*
X151028400Y-117094000D02*
X149301200Y-118821200D01*
X141145200Y-118821200D02*
X137922000Y-115598000D01*
X149301200Y-118821200D02*
X141145200Y-118821200D01*
X137922000Y-114973000D02*
X137160000Y-114211000D01*
X137922000Y-115598000D02*
X137922000Y-114973000D01*
X137160000Y-110462000D02*
X137922000Y-109700000D01*
X137160000Y-114211000D02*
X137160000Y-110462000D01*
X151028400Y-117094000D02*
X150317200Y-117805200D01*
X150317200Y-123317000D02*
X151587200Y-124587000D01*
X150317200Y-117805200D02*
X150317200Y-123317000D01*
D38*
X157556200Y-60078715D02*
X157556200Y-58674000D01*
X160869000Y-63391515D02*
X157556200Y-60078715D01*
X160869000Y-63957200D02*
X160869000Y-63391515D01*
X156565600Y-101650800D02*
X159461200Y-98755200D01*
X159461200Y-98755200D02*
X159461200Y-91490800D01*
X157556200Y-57274000D02*
X156882200Y-56600000D01*
X157556200Y-58674000D02*
X157556200Y-57274000D01*
X156882200Y-56600000D02*
X145800000Y-56600000D01*
X145800000Y-56600000D02*
X145200000Y-57200000D01*
D36*
G04 #@! TO.N,/V_IN*
X147622201Y-109080399D02*
X147622201Y-108449097D01*
X149656800Y-112572800D02*
X149656800Y-111114998D01*
X149656800Y-111114998D02*
X147622201Y-109080399D01*
X146919904Y-107746800D02*
X145542000Y-107746800D01*
X147622201Y-108449097D02*
X146919904Y-107746800D01*
X145542000Y-107746800D02*
X143840013Y-109448787D01*
X143840013Y-109448787D02*
X143433613Y-109448787D01*
D37*
G04 #@! TO.N,/V_USB*
X153670000Y-95300000D02*
X153670000Y-98348800D01*
X149516000Y-90246000D02*
X149516000Y-91146000D01*
X149516000Y-91146000D02*
X153670000Y-95300000D01*
X161724990Y-117167010D02*
X161724990Y-111723200D01*
X160782000Y-118110000D02*
X161724990Y-117167010D01*
X153670000Y-98348800D02*
X155651200Y-100330000D01*
D36*
G04 #@! TO.N,/BUTTON_LED*
X144616000Y-90996000D02*
X143112000Y-92500000D01*
X144616000Y-90246000D02*
X144616000Y-90996000D01*
X143112000Y-92500000D02*
X136450000Y-92500000D01*
X136450000Y-92500000D02*
X135800000Y-91850000D01*
X135800000Y-91850000D02*
X135800000Y-90600000D01*
G04 #@! TO.N,/FACTORY_RST*
X158242000Y-116895200D02*
X158242000Y-117094000D01*
X160007200Y-115130000D02*
X158242000Y-116895200D01*
X160007200Y-115080000D02*
X160007200Y-115130000D01*
X160007200Y-110980000D02*
X160007200Y-115080000D01*
X160007200Y-110980000D02*
X160007200Y-110502800D01*
X158850000Y-109772800D02*
X158850000Y-104800000D01*
X160007200Y-110980000D02*
X160007200Y-110930000D01*
X160007200Y-110930000D02*
X158850000Y-109772800D01*
G04 #@! TO.N,/TXD*
X143229692Y-102616000D02*
X143242846Y-102602846D01*
X136398000Y-102616000D02*
X143229692Y-102616000D01*
X132774990Y-85099310D02*
X132774990Y-88896848D01*
X136002999Y-83900000D02*
X133974300Y-83900000D01*
X133974300Y-83900000D02*
X132774990Y-85099310D01*
G04 #@! TO.N,/RELAY*
X147400000Y-107300000D02*
X147400000Y-105500000D01*
X147400000Y-105500000D02*
X147300000Y-105400000D01*
X145600000Y-102500000D02*
X144300000Y-101200000D01*
X147269200Y-110642400D02*
X147269200Y-110794800D01*
X147269200Y-110794800D02*
X146202400Y-111861600D01*
X141401800Y-119532400D02*
X138887200Y-122047000D01*
X145135600Y-119532400D02*
X141401800Y-119532400D01*
X144300000Y-101200000D02*
X144278400Y-101200000D01*
X144278400Y-101200000D02*
X143611600Y-100533200D01*
X143611600Y-100533200D02*
X142290800Y-100533200D01*
G04 #@! TO.N,/RXD*
X133350000Y-89429011D02*
X132101011Y-90678000D01*
X143039816Y-103378000D02*
X143065410Y-103352406D01*
X136398000Y-103378000D02*
X143039816Y-103378000D01*
X133474400Y-85219600D02*
X133480400Y-85219600D01*
X133480400Y-85219600D02*
X133800000Y-84900000D01*
X133350000Y-85344000D02*
X133350000Y-89429011D01*
X133474400Y-85219600D02*
X133350000Y-85344000D01*
X133800000Y-84900000D02*
X135602999Y-84900000D01*
X135602999Y-84900000D02*
X136002999Y-85300000D01*
G04 #@! TO.N,/SCL*
X135432800Y-61459600D02*
X136549400Y-62576200D01*
X135432800Y-60303400D02*
X135432800Y-61459600D01*
X136549400Y-62576200D02*
X136949400Y-62576200D01*
G04 #@! TO.N,/SDA*
X134232800Y-61592800D02*
X133249400Y-62576200D01*
X134232800Y-60303400D02*
X134232800Y-61592800D01*
X132241800Y-62576200D02*
X131526001Y-63291999D01*
X133249400Y-62576200D02*
X132241800Y-62576200D01*
X131526001Y-63291999D02*
X131526001Y-65892401D01*
X131526001Y-65892401D02*
X132638800Y-67005200D01*
X132655200Y-67005200D02*
X132638800Y-67005200D01*
X135000000Y-69350000D02*
X132655200Y-67005200D01*
G04 #@! TO.N,/I2S_WS*
X140476400Y-62496800D02*
X140476400Y-65568400D01*
X140090999Y-67731801D02*
X138531600Y-69291200D01*
X140476400Y-65568400D02*
X140090999Y-65953801D01*
X140090999Y-65953801D02*
X140090999Y-67731801D01*
X141224000Y-108204000D02*
X141224000Y-111087002D01*
X141732000Y-111595002D02*
X141732000Y-113538000D01*
X141224000Y-111087002D02*
X141732000Y-111595002D01*
X132288001Y-86913999D02*
X131826000Y-87376000D01*
X132588000Y-83312000D02*
X132288001Y-83611999D01*
X132288001Y-83611999D02*
X132288001Y-86913999D01*
G04 #@! TO.N,/I2S_BCLK*
X142700000Y-123314200D02*
X142700000Y-121193520D01*
X141427200Y-124587000D02*
X142700000Y-123314200D01*
X142700000Y-121193520D02*
X142124990Y-120618510D01*
X141427200Y-124779800D02*
X141427200Y-124587000D01*
X141935200Y-124587000D02*
X141427200Y-124587000D01*
X138637400Y-61676800D02*
X138676400Y-61676800D01*
X137922000Y-60961400D02*
X138637400Y-61676800D01*
X137922000Y-58978800D02*
X137922000Y-60961400D01*
X139547600Y-57353200D02*
X137922000Y-58978800D01*
G04 #@! TO.N,/I2S_DATA_OUT*
X139300000Y-107200000D02*
X141400000Y-105100000D01*
X139200000Y-113800000D02*
X139200000Y-111600000D01*
X141400000Y-105100000D02*
X141400000Y-105000000D01*
X157600000Y-96100000D02*
X157600000Y-92500000D01*
X157600000Y-92500000D02*
X157200000Y-92100000D01*
G04 #@! TO.N,/PROG*
X134074000Y-108826400D02*
X133654800Y-108407200D01*
X134074000Y-111498600D02*
X134074000Y-108826400D01*
X133654800Y-107817800D02*
X134074000Y-107398600D01*
X133654800Y-108407200D02*
X133654800Y-107817800D01*
X134074000Y-111498600D02*
X134074000Y-111548600D01*
X134074000Y-111548600D02*
X133374000Y-112248600D01*
X134550000Y-99752000D02*
X134366000Y-99568000D01*
X134550000Y-104969000D02*
X134550000Y-99752000D01*
G04 #@! TO.N,/ZERO_DETECT*
X149047200Y-124587000D02*
X151282400Y-126822200D01*
X151282400Y-126822200D02*
X151282400Y-127101600D01*
X162915600Y-121189301D02*
X162915600Y-110896400D01*
X162915600Y-110896400D02*
X161493200Y-109474000D01*
G04 #@! TO.N,/IR_RX*
X148590000Y-71374000D02*
X142292010Y-71374000D01*
X137359200Y-93980000D02*
X137480800Y-94101600D01*
X134366000Y-93980000D02*
X137359200Y-93980000D01*
X134162800Y-89662000D02*
X134112000Y-89712800D01*
X134162800Y-85598000D02*
X134162800Y-89662000D01*
G04 #@! TO.N,/IR_TX*
X135128000Y-80010000D02*
X135128000Y-83058000D01*
X148590000Y-72390000D02*
X142494000Y-72390000D01*
X135128000Y-85852000D02*
X135128000Y-89916000D01*
G04 #@! TO.N,/EN*
X134074000Y-114383600D02*
X134074000Y-118483600D01*
X145999200Y-83718400D02*
X143510000Y-83718400D01*
X143510000Y-83718400D02*
X143459200Y-83769200D01*
X140309600Y-104241600D02*
X138633200Y-105918000D01*
X138633200Y-105918000D02*
X137617200Y-105918000D01*
X134074000Y-114383600D02*
X134074000Y-114973200D01*
X134074000Y-114973200D02*
X134569200Y-115468400D01*
X134074000Y-114333600D02*
X132706317Y-112965917D01*
X132706317Y-112965917D02*
X132706317Y-112590239D01*
X134074000Y-114383600D02*
X134074000Y-114333600D01*
G04 #@! TO.N,/T_UP*
X152350000Y-82300000D02*
X149050000Y-79000000D01*
X149050000Y-79000000D02*
X147050000Y-79000000D01*
X152350000Y-88350000D02*
X152350000Y-82300000D01*
G04 #@! TO.N,/T_RIGHT*
X153600000Y-88600000D02*
X153600000Y-90300000D01*
X156050000Y-87900000D02*
X154300000Y-87900000D01*
X154300000Y-87900000D02*
X153600000Y-88600000D01*
G04 #@! TO.N,/T_LEFT*
X141750000Y-87850000D02*
X138100000Y-87850000D01*
X142900000Y-86700000D02*
X141750000Y-87850000D01*
G04 #@! TD*
D39*
G04 #@! TO.N,GND*
G36*
X146557404Y-43841129D02*
X145755492Y-44197325D01*
X145057030Y-44728447D01*
X144499487Y-45406005D01*
X144112769Y-46193653D01*
X143917622Y-47049139D01*
X143924514Y-47926574D01*
X144133074Y-48778890D01*
X144532116Y-49560366D01*
X145100233Y-50229083D01*
X145806951Y-50749169D01*
X146614359Y-51092725D01*
X147479147Y-51241323D01*
X148354925Y-51186991D01*
X149194715Y-50932644D01*
X149953468Y-50491925D01*
X150590483Y-49888476D01*
X151071589Y-49154666D01*
X151370979Y-48329860D01*
X151472593Y-47458302D01*
X151472126Y-47398794D01*
X151356835Y-46528939D01*
X151044526Y-45708937D01*
X150551953Y-44982776D01*
X149905538Y-44389407D01*
X149139956Y-43960660D01*
X148309455Y-43723302D01*
X152308028Y-43723302D01*
X152308028Y-43845227D01*
X152308029Y-43845232D01*
X152308028Y-49165916D01*
X152294120Y-49235368D01*
X152308028Y-49305764D01*
X152308028Y-49306227D01*
X152321592Y-49374416D01*
X152348866Y-49512466D01*
X152349130Y-49512863D01*
X152349223Y-49513329D01*
X152427410Y-49630344D01*
X152505487Y-49747521D01*
X152505882Y-49747786D01*
X152506147Y-49748182D01*
X152623444Y-49826558D01*
X152740137Y-49904748D01*
X152740602Y-49904841D01*
X152741000Y-49905107D01*
X152879356Y-49932628D01*
X152947186Y-49946211D01*
X152947648Y-49946212D01*
X153018028Y-49960211D01*
X153087500Y-49946392D01*
X159568265Y-49954761D01*
X159485077Y-50105472D01*
X161000000Y-51620395D01*
X162514923Y-50105472D01*
X162433778Y-49958462D01*
X162915001Y-49959083D01*
X162915001Y-50406771D01*
X162694528Y-50285077D01*
X161179605Y-51800000D01*
X162694528Y-53314923D01*
X162915001Y-53193229D01*
X162915001Y-72452762D01*
X162476153Y-72013914D01*
X161875222Y-71765000D01*
X161224778Y-71765000D01*
X160623847Y-72013914D01*
X160163914Y-72473847D01*
X159915000Y-73074778D01*
X159915000Y-73725222D01*
X160163914Y-74326153D01*
X160623847Y-74786086D01*
X161224778Y-75035000D01*
X161875222Y-75035000D01*
X162476153Y-74786086D01*
X162915001Y-74347238D01*
X162915000Y-101452761D01*
X162476153Y-101013914D01*
X161875222Y-100765000D01*
X161224778Y-100765000D01*
X160623847Y-101013914D01*
X160163914Y-101473847D01*
X159915000Y-102074778D01*
X159915000Y-102725222D01*
X160163914Y-103326153D01*
X160623847Y-103786086D01*
X161224778Y-104035000D01*
X161875222Y-104035000D01*
X162476153Y-103786086D01*
X162915000Y-103347239D01*
X162915000Y-109820998D01*
X162428200Y-109334198D01*
X162428200Y-109288017D01*
X162285855Y-108944365D01*
X162022835Y-108681345D01*
X161679183Y-108539000D01*
X161307217Y-108539000D01*
X160963565Y-108681345D01*
X160700545Y-108944365D01*
X160558200Y-109288017D01*
X160558200Y-109659983D01*
X160645171Y-109869949D01*
X160457200Y-109832560D01*
X160372078Y-109832560D01*
X160303737Y-109786896D01*
X160007200Y-109727911D01*
X159901031Y-109749029D01*
X159610000Y-109457999D01*
X159610000Y-105503711D01*
X159727431Y-105386280D01*
X159885000Y-105005874D01*
X159885000Y-104594126D01*
X159727431Y-104213720D01*
X159436280Y-103922569D01*
X159055874Y-103765000D01*
X158644126Y-103765000D01*
X158263720Y-103922569D01*
X157972569Y-104213720D01*
X157815000Y-104594126D01*
X157815000Y-105005874D01*
X157972569Y-105386280D01*
X158090001Y-105503712D01*
X158090000Y-109697953D01*
X158075112Y-109772800D01*
X158089474Y-109845000D01*
X157830891Y-109845000D01*
X157597502Y-109941673D01*
X157418873Y-110120301D01*
X157322200Y-110353690D01*
X157322200Y-110694250D01*
X157480950Y-110853000D01*
X158280200Y-110853000D01*
X158280200Y-110833000D01*
X158534200Y-110833000D01*
X158534200Y-110853000D01*
X158554200Y-110853000D01*
X158554200Y-111107000D01*
X158534200Y-111107000D01*
X158534200Y-111956250D01*
X158692950Y-112115000D01*
X158983509Y-112115000D01*
X159216898Y-112018327D01*
X159218098Y-112017127D01*
X159247200Y-112036573D01*
X159247201Y-114023427D01*
X159218098Y-114042873D01*
X159216898Y-114041673D01*
X158983509Y-113945000D01*
X158692950Y-113945000D01*
X158534200Y-114103750D01*
X158534200Y-114953000D01*
X158554200Y-114953000D01*
X158554200Y-115207000D01*
X158534200Y-115207000D01*
X158534200Y-115227000D01*
X158280200Y-115227000D01*
X158280200Y-115207000D01*
X158260200Y-115207000D01*
X158260200Y-114953000D01*
X158280200Y-114953000D01*
X158280200Y-114103750D01*
X158121450Y-113945000D01*
X157830891Y-113945000D01*
X157597502Y-114041673D01*
X157586440Y-114052735D01*
X157586440Y-113504500D01*
X157519078Y-113165848D01*
X157352803Y-112917000D01*
X157519078Y-112668152D01*
X157586440Y-112329500D01*
X157586440Y-112007265D01*
X157597502Y-112018327D01*
X157830891Y-112115000D01*
X158121450Y-112115000D01*
X158280200Y-111956250D01*
X158280200Y-111107000D01*
X157480950Y-111107000D01*
X157380099Y-111207851D01*
X157327247Y-111128753D01*
X157040152Y-110936922D01*
X156701500Y-110869560D01*
X156226500Y-110869560D01*
X155887848Y-110936922D01*
X155600753Y-111128753D01*
X155498356Y-111282000D01*
X154266802Y-111282000D01*
X153841400Y-110856599D01*
X153841400Y-110690526D01*
X153683831Y-110310120D01*
X153392680Y-110018969D01*
X153012274Y-109861400D01*
X152600526Y-109861400D01*
X152220120Y-110018969D01*
X151928969Y-110310120D01*
X151771400Y-110690526D01*
X151771400Y-110856598D01*
X150543930Y-112084069D01*
X150483205Y-112124644D01*
X150449455Y-112043165D01*
X150416800Y-112010510D01*
X150416800Y-111189844D01*
X150431688Y-111114997D01*
X150416800Y-111040150D01*
X150416800Y-111040146D01*
X150372704Y-110818461D01*
X150289709Y-110694250D01*
X150247129Y-110630524D01*
X150247127Y-110630522D01*
X150204729Y-110567069D01*
X150141276Y-110524671D01*
X148382201Y-108765598D01*
X148382201Y-108523944D01*
X148397089Y-108449097D01*
X148382201Y-108374250D01*
X148382201Y-108374245D01*
X148338105Y-108152560D01*
X148170130Y-107901168D01*
X148140752Y-107881538D01*
X148192655Y-107829635D01*
X148335000Y-107485983D01*
X148335000Y-107114017D01*
X148192655Y-106770365D01*
X148160000Y-106737710D01*
X148160000Y-105767049D01*
X148235000Y-105585983D01*
X148235000Y-105214017D01*
X148092655Y-104870365D01*
X147829635Y-104607345D01*
X147485983Y-104465000D01*
X147114017Y-104465000D01*
X146770365Y-104607345D01*
X146507345Y-104870365D01*
X146365000Y-105214017D01*
X146365000Y-105585983D01*
X146507345Y-105929635D01*
X146640001Y-106062291D01*
X146640000Y-106737710D01*
X146607345Y-106770365D01*
X146517695Y-106986800D01*
X145616846Y-106986800D01*
X145541999Y-106971912D01*
X145467152Y-106986800D01*
X145467148Y-106986800D01*
X145245463Y-107030896D01*
X144994071Y-107198871D01*
X144951671Y-107262327D01*
X143676600Y-108537399D01*
X143619596Y-108513787D01*
X143247630Y-108513787D01*
X142903978Y-108656132D01*
X142640958Y-108919152D01*
X142498613Y-109262804D01*
X142498613Y-109634770D01*
X142640958Y-109978422D01*
X142903978Y-110241442D01*
X142927863Y-110251336D01*
X142862199Y-110317000D01*
X142816017Y-110317000D01*
X142472365Y-110459345D01*
X142209345Y-110722365D01*
X142128747Y-110916947D01*
X141984000Y-110772200D01*
X141984000Y-108766290D01*
X142016655Y-108733635D01*
X142159000Y-108389983D01*
X142159000Y-108018017D01*
X142016655Y-107674365D01*
X141753635Y-107411345D01*
X141409983Y-107269000D01*
X141038017Y-107269000D01*
X140694365Y-107411345D01*
X140431345Y-107674365D01*
X140289000Y-108018017D01*
X140289000Y-108389983D01*
X140431345Y-108733635D01*
X140464000Y-108766290D01*
X140464001Y-111012150D01*
X140449112Y-111087002D01*
X140508097Y-111383539D01*
X140632479Y-111569689D01*
X140676072Y-111634931D01*
X140739527Y-111677330D01*
X140972000Y-111909804D01*
X140972001Y-112975709D01*
X140939345Y-113008365D01*
X140797000Y-113352017D01*
X140797000Y-113723983D01*
X140939345Y-114067635D01*
X141202365Y-114330655D01*
X141546017Y-114473000D01*
X141917983Y-114473000D01*
X142261635Y-114330655D01*
X142524655Y-114067635D01*
X142667000Y-113723983D01*
X142667000Y-113352017D01*
X142524655Y-113008365D01*
X142492000Y-112975710D01*
X142492000Y-112052788D01*
X142816017Y-112187000D01*
X143030710Y-112187000D01*
X142971345Y-112246365D01*
X142829000Y-112590017D01*
X142829000Y-112961983D01*
X142971345Y-113305635D01*
X143234365Y-113568655D01*
X143578017Y-113711000D01*
X143624199Y-113711000D01*
X145493200Y-115580003D01*
X145493200Y-115644088D01*
X145468660Y-115654253D01*
X145079053Y-116043860D01*
X144868200Y-116552906D01*
X144868200Y-117103894D01*
X145079053Y-117612940D01*
X145468660Y-118002547D01*
X145610261Y-118061200D01*
X141460002Y-118061200D01*
X139044440Y-115645639D01*
X139044440Y-115310500D01*
X138977078Y-114971848D01*
X138785247Y-114684753D01*
X138529069Y-114513580D01*
X138512329Y-114488527D01*
X138469929Y-114425071D01*
X138406473Y-114382671D01*
X137920000Y-113896199D01*
X137920000Y-111414017D01*
X138265000Y-111414017D01*
X138265000Y-111785983D01*
X138407345Y-112129635D01*
X138440001Y-112162291D01*
X138440000Y-113237710D01*
X138407345Y-113270365D01*
X138265000Y-113614017D01*
X138265000Y-113985983D01*
X138407345Y-114329635D01*
X138670365Y-114592655D01*
X139014017Y-114735000D01*
X139385983Y-114735000D01*
X139729635Y-114592655D01*
X139992655Y-114329635D01*
X140135000Y-113985983D01*
X140135000Y-113614017D01*
X139992655Y-113270365D01*
X139960000Y-113237710D01*
X139960000Y-112162290D01*
X139992655Y-112129635D01*
X140135000Y-111785983D01*
X140135000Y-111414017D01*
X139992655Y-111070365D01*
X139729635Y-110807345D01*
X139385983Y-110665000D01*
X139014017Y-110665000D01*
X138670365Y-110807345D01*
X138407345Y-111070365D01*
X138265000Y-111414017D01*
X137920000Y-111414017D01*
X137920000Y-110872440D01*
X138159500Y-110872440D01*
X138498152Y-110805078D01*
X138785247Y-110613247D01*
X138977078Y-110326152D01*
X139044440Y-109987500D01*
X139044440Y-109412500D01*
X138977078Y-109073848D01*
X138810803Y-108825000D01*
X138977078Y-108576152D01*
X139044440Y-108237500D01*
X139044440Y-108106180D01*
X139114017Y-108135000D01*
X139485983Y-108135000D01*
X139829635Y-107992655D01*
X140092655Y-107729635D01*
X140235000Y-107385983D01*
X140235000Y-107339801D01*
X141677859Y-105896944D01*
X141929635Y-105792655D01*
X142192655Y-105529635D01*
X142335000Y-105185983D01*
X142335000Y-104814017D01*
X142192655Y-104470365D01*
X141929635Y-104207345D01*
X141762221Y-104138000D01*
X142528714Y-104138000D01*
X142535775Y-104145061D01*
X142879427Y-104287406D01*
X143251393Y-104287406D01*
X143595045Y-104145061D01*
X143858065Y-103882041D01*
X144000410Y-103538389D01*
X144000410Y-103167572D01*
X144035501Y-103132481D01*
X144177846Y-102788829D01*
X144177846Y-102416863D01*
X144035501Y-102073211D01*
X143772481Y-101810191D01*
X143428829Y-101667846D01*
X143056863Y-101667846D01*
X142713211Y-101810191D01*
X142667402Y-101856000D01*
X136960290Y-101856000D01*
X136927635Y-101823345D01*
X136583983Y-101681000D01*
X136212017Y-101681000D01*
X135868365Y-101823345D01*
X135605345Y-102086365D01*
X135463000Y-102430017D01*
X135463000Y-102801983D01*
X135543779Y-102997000D01*
X135463000Y-103192017D01*
X135463000Y-103563983D01*
X135605345Y-103907635D01*
X135868365Y-104170655D01*
X136212017Y-104313000D01*
X136583983Y-104313000D01*
X136927635Y-104170655D01*
X136960290Y-104138000D01*
X139338398Y-104138000D01*
X138318399Y-105158000D01*
X138179490Y-105158000D01*
X138146835Y-105125345D01*
X137803183Y-104983000D01*
X137431217Y-104983000D01*
X137087565Y-105125345D01*
X136824545Y-105388365D01*
X136682200Y-105732017D01*
X136682200Y-106103983D01*
X136824545Y-106447635D01*
X137087565Y-106710655D01*
X137390346Y-106836071D01*
X137345848Y-106844922D01*
X137058753Y-107036753D01*
X136866922Y-107323848D01*
X136799560Y-107662500D01*
X136799560Y-108237500D01*
X136866922Y-108576152D01*
X137033197Y-108825000D01*
X136866922Y-109073848D01*
X136799560Y-109412500D01*
X136799560Y-109747639D01*
X136675528Y-109871671D01*
X136612072Y-109914071D01*
X136569672Y-109977527D01*
X136569671Y-109977528D01*
X136444097Y-110165463D01*
X136392934Y-110422677D01*
X136250309Y-110363600D01*
X135959750Y-110363600D01*
X135801000Y-110522350D01*
X135801000Y-111371600D01*
X135821000Y-111371600D01*
X135821000Y-111625600D01*
X135801000Y-111625600D01*
X135801000Y-112474850D01*
X135959750Y-112633600D01*
X136250309Y-112633600D01*
X136400000Y-112571596D01*
X136400000Y-113310604D01*
X136250309Y-113248600D01*
X135959750Y-113248600D01*
X135801000Y-113407350D01*
X135801000Y-114256600D01*
X135821000Y-114256600D01*
X135821000Y-114510600D01*
X135801000Y-114510600D01*
X135801000Y-115359850D01*
X135959750Y-115518600D01*
X136250309Y-115518600D01*
X136483698Y-115421927D01*
X136662327Y-115243299D01*
X136759000Y-115009910D01*
X136759000Y-114884801D01*
X136863459Y-114989260D01*
X136799560Y-115310500D01*
X136799560Y-115885500D01*
X136866922Y-116224152D01*
X137033197Y-116473000D01*
X136866922Y-116721848D01*
X136799560Y-117060500D01*
X136799560Y-117635500D01*
X136866922Y-117974152D01*
X137058753Y-118261247D01*
X137345848Y-118453078D01*
X137684500Y-118520440D01*
X138159500Y-118520440D01*
X138498152Y-118453078D01*
X138785247Y-118261247D01*
X138977078Y-117974152D01*
X139017937Y-117768739D01*
X140554298Y-119305100D01*
X139253608Y-120605791D01*
X139033456Y-120562000D01*
X138740944Y-120562000D01*
X138307782Y-120648161D01*
X137816575Y-120976375D01*
X137488361Y-121467582D01*
X137373108Y-122047000D01*
X137488361Y-122626418D01*
X137816575Y-123117625D01*
X138114961Y-123317000D01*
X137816575Y-123516375D01*
X137488361Y-124007582D01*
X137373108Y-124587000D01*
X137488361Y-125166418D01*
X137816575Y-125657625D01*
X138307782Y-125985839D01*
X138740944Y-126072000D01*
X139033456Y-126072000D01*
X139466618Y-125985839D01*
X139957825Y-125657625D01*
X140157200Y-125359239D01*
X140356575Y-125657625D01*
X140847782Y-125985839D01*
X141280944Y-126072000D01*
X141573456Y-126072000D01*
X142006618Y-125985839D01*
X142497825Y-125657625D01*
X142697200Y-125359239D01*
X142896575Y-125657625D01*
X143387782Y-125985839D01*
X143820944Y-126072000D01*
X144113456Y-126072000D01*
X144546618Y-125985839D01*
X145037825Y-125657625D01*
X145237200Y-125359239D01*
X145436575Y-125657625D01*
X145927782Y-125985839D01*
X146360944Y-126072000D01*
X146653456Y-126072000D01*
X147086618Y-125985839D01*
X147577825Y-125657625D01*
X147777200Y-125359239D01*
X147976575Y-125657625D01*
X148467782Y-125985839D01*
X148900944Y-126072000D01*
X149193456Y-126072000D01*
X149413608Y-126028209D01*
X150347400Y-126962002D01*
X150347400Y-127287583D01*
X150489745Y-127631235D01*
X150752765Y-127894255D01*
X151096417Y-128036600D01*
X151468383Y-128036600D01*
X151812035Y-127894255D01*
X152075055Y-127631235D01*
X152217400Y-127287583D01*
X152217400Y-126915617D01*
X152075055Y-126571965D01*
X151936990Y-126433900D01*
X151830329Y-126274271D01*
X151766873Y-126231871D01*
X151607002Y-126072000D01*
X151733456Y-126072000D01*
X152166618Y-125985839D01*
X152657825Y-125657625D01*
X152857200Y-125359239D01*
X153056575Y-125657625D01*
X153547782Y-125985839D01*
X153980944Y-126072000D01*
X154273456Y-126072000D01*
X154706618Y-125985839D01*
X155197825Y-125657625D01*
X155212296Y-125635967D01*
X155278873Y-125796698D01*
X155457501Y-125975327D01*
X155690890Y-126072000D01*
X156381450Y-126072000D01*
X156540200Y-125913250D01*
X156540200Y-124714000D01*
X156794200Y-124714000D01*
X156794200Y-125913250D01*
X156952950Y-126072000D01*
X157643510Y-126072000D01*
X157876899Y-125975327D01*
X158055527Y-125796698D01*
X158152200Y-125563309D01*
X158152200Y-124872750D01*
X157993450Y-124714000D01*
X156794200Y-124714000D01*
X156540200Y-124714000D01*
X156520200Y-124714000D01*
X156520200Y-124460000D01*
X156540200Y-124460000D01*
X156540200Y-122174000D01*
X156794200Y-122174000D01*
X156794200Y-124460000D01*
X157993450Y-124460000D01*
X158152200Y-124301250D01*
X158152200Y-123610691D01*
X158055527Y-123377302D01*
X157876899Y-123198673D01*
X157662992Y-123110070D01*
X157862383Y-122928358D01*
X158108686Y-122403892D01*
X157988019Y-122174000D01*
X156794200Y-122174000D01*
X156540200Y-122174000D01*
X156520200Y-122174000D01*
X156520200Y-121920000D01*
X156540200Y-121920000D01*
X156540200Y-120726845D01*
X156794200Y-120726845D01*
X156794200Y-121920000D01*
X157988019Y-121920000D01*
X158108686Y-121690108D01*
X157862383Y-121165642D01*
X157434124Y-120775355D01*
X157024090Y-120605524D01*
X156794200Y-120726845D01*
X156540200Y-120726845D01*
X156310310Y-120605524D01*
X155900276Y-120775355D01*
X155472017Y-121165642D01*
X155411043Y-121295478D01*
X155197825Y-120976375D01*
X154706618Y-120648161D01*
X154273456Y-120562000D01*
X153980944Y-120562000D01*
X153547782Y-120648161D01*
X153056575Y-120976375D01*
X152857200Y-121274761D01*
X152657825Y-120976375D01*
X152166618Y-120648161D01*
X151733456Y-120562000D01*
X151440944Y-120562000D01*
X151077200Y-120634353D01*
X151077200Y-118120002D01*
X151211000Y-117986202D01*
X151211000Y-118295983D01*
X151353345Y-118639635D01*
X151616365Y-118902655D01*
X151960017Y-119045000D01*
X152331983Y-119045000D01*
X152675635Y-118902655D01*
X152938655Y-118639635D01*
X153038656Y-118398212D01*
X154456283Y-116980585D01*
X154526001Y-116934001D01*
X154710552Y-116657801D01*
X154759000Y-116414237D01*
X154775358Y-116332000D01*
X154759000Y-116249763D01*
X154759000Y-115743405D01*
X154859000Y-115501983D01*
X154859000Y-115130017D01*
X154716655Y-114786365D01*
X154453635Y-114523345D01*
X154109983Y-114381000D01*
X153738017Y-114381000D01*
X153394365Y-114523345D01*
X153131345Y-114786365D01*
X152989000Y-115130017D01*
X152989000Y-115501983D01*
X153089000Y-115743406D01*
X153089001Y-115986132D01*
X151857788Y-117217344D01*
X151771658Y-117253021D01*
X151788400Y-117168852D01*
X151788400Y-117168848D01*
X151803288Y-117094000D01*
X151788400Y-117019152D01*
X151788400Y-112989201D01*
X152806400Y-111971202D01*
X153361671Y-112526473D01*
X153404071Y-112589929D01*
X153655463Y-112757904D01*
X153877148Y-112802000D01*
X153877152Y-112802000D01*
X153951999Y-112816888D01*
X154026846Y-112802000D01*
X155498356Y-112802000D01*
X155575197Y-112917000D01*
X155408922Y-113165848D01*
X155341560Y-113504500D01*
X155341560Y-114079500D01*
X155408922Y-114418152D01*
X155531602Y-114601755D01*
X155362737Y-114671701D01*
X155099717Y-114934721D01*
X154957372Y-115278373D01*
X154957372Y-115650339D01*
X155099717Y-115993991D01*
X155362737Y-116257011D01*
X155706389Y-116399356D01*
X156078355Y-116399356D01*
X156422007Y-116257011D01*
X156528018Y-116151000D01*
X156798595Y-116151000D01*
X157040017Y-116251000D01*
X157411983Y-116251000D01*
X157664893Y-116146241D01*
X157830891Y-116215000D01*
X157847399Y-116215000D01*
X157795482Y-116266917D01*
X157712365Y-116301345D01*
X157449345Y-116564365D01*
X157307000Y-116908017D01*
X157307000Y-117279983D01*
X157449345Y-117623635D01*
X157712365Y-117886655D01*
X158056017Y-118029000D01*
X158427983Y-118029000D01*
X158771635Y-117886655D01*
X159034655Y-117623635D01*
X159177000Y-117279983D01*
X159177000Y-117035001D01*
X159984562Y-116227440D01*
X160457200Y-116227440D01*
X160704965Y-116178157D01*
X160889990Y-116054526D01*
X160889990Y-116821142D01*
X160493788Y-117217344D01*
X160252365Y-117317345D01*
X159989345Y-117580365D01*
X159847000Y-117924017D01*
X159847000Y-118295983D01*
X159989345Y-118639635D01*
X160252365Y-118902655D01*
X160596017Y-119045000D01*
X160967983Y-119045000D01*
X161311635Y-118902655D01*
X161574655Y-118639635D01*
X161674656Y-118398212D01*
X162155600Y-117917267D01*
X162155600Y-120627011D01*
X162122945Y-120659666D01*
X161980600Y-121003318D01*
X161980600Y-121375284D01*
X162122945Y-121718936D01*
X162385965Y-121981956D01*
X162729617Y-122124301D01*
X162915000Y-122124301D01*
X162915000Y-126889686D01*
X153088114Y-126885334D01*
X153018028Y-126871393D01*
X152877970Y-126899252D01*
X152741297Y-126926375D01*
X152741162Y-126926465D01*
X152741001Y-126926497D01*
X152623220Y-127005196D01*
X152506374Y-127083195D01*
X152506283Y-127083331D01*
X152506148Y-127083421D01*
X152428271Y-127199972D01*
X152349346Y-127317978D01*
X152349314Y-127318140D01*
X152349224Y-127318274D01*
X152321828Y-127456006D01*
X152294120Y-127594982D01*
X152308029Y-127665070D01*
X152308028Y-134505302D01*
X143060028Y-134505302D01*
X143060028Y-130104139D01*
X143898057Y-130104139D01*
X143904949Y-130981574D01*
X144113509Y-131833890D01*
X144512551Y-132615366D01*
X145080668Y-133284083D01*
X145787386Y-133804169D01*
X146594794Y-134147725D01*
X147459582Y-134296323D01*
X148335360Y-134241991D01*
X149175150Y-133987644D01*
X149933903Y-133546925D01*
X150570918Y-132943476D01*
X151052024Y-132209666D01*
X151351414Y-131384860D01*
X151453028Y-130513302D01*
X151452561Y-130453794D01*
X151337270Y-129583939D01*
X151024961Y-128763937D01*
X150532388Y-128037776D01*
X149885973Y-127444407D01*
X149120391Y-127015660D01*
X148276710Y-126774535D01*
X147400186Y-126733966D01*
X146537839Y-126896129D01*
X145735927Y-127252325D01*
X145037465Y-127783447D01*
X144479922Y-128461005D01*
X144093204Y-129248653D01*
X143898057Y-130104139D01*
X143060028Y-130104139D01*
X143060028Y-127665085D01*
X143073937Y-127595016D01*
X143046450Y-127457114D01*
X143018833Y-127318274D01*
X143018752Y-127318152D01*
X143018723Y-127318009D01*
X142940190Y-127200577D01*
X142861908Y-127083421D01*
X142861787Y-127083340D01*
X142861706Y-127083219D01*
X142745152Y-127005407D01*
X142627055Y-126926497D01*
X142626910Y-126926468D01*
X142626790Y-126926388D01*
X142490051Y-126899245D01*
X142350028Y-126871393D01*
X142279960Y-126885330D01*
X134205711Y-126888531D01*
X134324636Y-126839271D01*
X134514923Y-126494528D01*
X133000000Y-124979605D01*
X131485077Y-126494528D01*
X131675364Y-126839271D01*
X131801185Y-126889484D01*
X131210000Y-126889719D01*
X131210000Y-126262226D01*
X131305472Y-126314923D01*
X132820395Y-124800000D01*
X133179605Y-124800000D01*
X134694528Y-126314923D01*
X135039271Y-126124636D01*
X135390956Y-125243409D01*
X135378641Y-124294677D01*
X135039271Y-123475364D01*
X134694528Y-123285077D01*
X133179605Y-124800000D01*
X132820395Y-124800000D01*
X131305472Y-123285077D01*
X131210000Y-123337774D01*
X131210000Y-123105472D01*
X131485077Y-123105472D01*
X133000000Y-124620395D01*
X134514923Y-123105472D01*
X134324636Y-122760729D01*
X133443409Y-122409044D01*
X132494677Y-122421359D01*
X131675364Y-122760729D01*
X131485077Y-123105472D01*
X131210000Y-123105472D01*
X131210000Y-112404256D01*
X131771317Y-112404256D01*
X131771317Y-112776222D01*
X131913662Y-113119874D01*
X131974068Y-113180280D01*
X131990413Y-113262453D01*
X132158388Y-113513846D01*
X132221847Y-113556248D01*
X132976560Y-114310962D01*
X132976560Y-114883600D01*
X133025843Y-115131365D01*
X133166191Y-115341409D01*
X133314000Y-115440173D01*
X133314001Y-117427027D01*
X133166191Y-117525791D01*
X133025843Y-117735835D01*
X132976560Y-117983600D01*
X132976560Y-118983600D01*
X133025843Y-119231365D01*
X133166191Y-119441409D01*
X133376235Y-119581757D01*
X133624000Y-119631040D01*
X134524000Y-119631040D01*
X134771765Y-119581757D01*
X134863102Y-119520727D01*
X134864302Y-119521927D01*
X135097691Y-119618600D01*
X135388250Y-119618600D01*
X135547000Y-119459850D01*
X135547000Y-118610600D01*
X135801000Y-118610600D01*
X135801000Y-119459850D01*
X135959750Y-119618600D01*
X136250309Y-119618600D01*
X136483698Y-119521927D01*
X136662327Y-119343299D01*
X136759000Y-119109910D01*
X136759000Y-118769350D01*
X136600250Y-118610600D01*
X135801000Y-118610600D01*
X135547000Y-118610600D01*
X135527000Y-118610600D01*
X135527000Y-118356600D01*
X135547000Y-118356600D01*
X135547000Y-117507350D01*
X135801000Y-117507350D01*
X135801000Y-118356600D01*
X136600250Y-118356600D01*
X136759000Y-118197850D01*
X136759000Y-117857290D01*
X136662327Y-117623901D01*
X136483698Y-117445273D01*
X136250309Y-117348600D01*
X135959750Y-117348600D01*
X135801000Y-117507350D01*
X135547000Y-117507350D01*
X135388250Y-117348600D01*
X135097691Y-117348600D01*
X134864302Y-117445273D01*
X134863102Y-117446473D01*
X134834000Y-117427027D01*
X134834000Y-116370753D01*
X135098835Y-116261055D01*
X135361855Y-115998035D01*
X135504200Y-115654383D01*
X135504200Y-115402650D01*
X135547000Y-115359850D01*
X135547000Y-114510600D01*
X135527000Y-114510600D01*
X135527000Y-114256600D01*
X135547000Y-114256600D01*
X135547000Y-113407350D01*
X135388250Y-113248600D01*
X135097691Y-113248600D01*
X134864302Y-113345273D01*
X134863102Y-113346473D01*
X134771765Y-113285443D01*
X134524000Y-113236160D01*
X134051362Y-113236160D01*
X133870275Y-113055073D01*
X133903635Y-113041255D01*
X134166655Y-112778235D01*
X134221412Y-112646040D01*
X134524000Y-112646040D01*
X134771765Y-112596757D01*
X134863102Y-112535727D01*
X134864302Y-112536927D01*
X135097691Y-112633600D01*
X135388250Y-112633600D01*
X135547000Y-112474850D01*
X135547000Y-111625600D01*
X135527000Y-111625600D01*
X135527000Y-111371600D01*
X135547000Y-111371600D01*
X135547000Y-110522350D01*
X135388250Y-110363600D01*
X135097691Y-110363600D01*
X134864302Y-110460273D01*
X134863102Y-110461473D01*
X134834000Y-110442027D01*
X134834000Y-108901246D01*
X134848888Y-108826399D01*
X134834000Y-108751552D01*
X134834000Y-108751548D01*
X134789904Y-108529863D01*
X134768250Y-108497456D01*
X134771765Y-108496757D01*
X134863102Y-108435727D01*
X134864302Y-108436927D01*
X135097691Y-108533600D01*
X135388250Y-108533600D01*
X135547000Y-108374850D01*
X135547000Y-107525600D01*
X135801000Y-107525600D01*
X135801000Y-108374850D01*
X135959750Y-108533600D01*
X136250309Y-108533600D01*
X136483698Y-108436927D01*
X136662327Y-108258299D01*
X136759000Y-108024910D01*
X136759000Y-107684350D01*
X136600250Y-107525600D01*
X135801000Y-107525600D01*
X135547000Y-107525600D01*
X135527000Y-107525600D01*
X135527000Y-107271600D01*
X135547000Y-107271600D01*
X135547000Y-106422350D01*
X135801000Y-106422350D01*
X135801000Y-107271600D01*
X136600250Y-107271600D01*
X136759000Y-107112850D01*
X136759000Y-106772290D01*
X136662327Y-106538901D01*
X136483698Y-106360273D01*
X136250309Y-106263600D01*
X135959750Y-106263600D01*
X135801000Y-106422350D01*
X135547000Y-106422350D01*
X135388250Y-106263600D01*
X135097691Y-106263600D01*
X134864302Y-106360273D01*
X134863102Y-106361473D01*
X134771765Y-106300443D01*
X134524000Y-106251160D01*
X133624000Y-106251160D01*
X133376235Y-106300443D01*
X133166191Y-106440791D01*
X133025843Y-106650835D01*
X132976560Y-106898600D01*
X132976560Y-107464895D01*
X132938896Y-107521263D01*
X132894800Y-107742948D01*
X132894800Y-107742953D01*
X132879912Y-107817800D01*
X132886880Y-107852830D01*
X132862145Y-107877565D01*
X132719800Y-108221217D01*
X132719800Y-108593183D01*
X132862145Y-108936835D01*
X133125165Y-109199855D01*
X133314001Y-109278073D01*
X133314000Y-110442027D01*
X133166191Y-110540791D01*
X133025843Y-110750835D01*
X132976560Y-110998600D01*
X132976560Y-111401188D01*
X132844365Y-111455945D01*
X132645071Y-111655239D01*
X132520334Y-111655239D01*
X132176682Y-111797584D01*
X131913662Y-112060604D01*
X131771317Y-112404256D01*
X131210000Y-112404256D01*
X131210000Y-103372239D01*
X131623847Y-103786086D01*
X132224778Y-104035000D01*
X132875222Y-104035000D01*
X133476153Y-103786086D01*
X133790000Y-103472239D01*
X133790000Y-104406710D01*
X133757345Y-104439365D01*
X133615000Y-104783017D01*
X133615000Y-105154983D01*
X133757345Y-105498635D01*
X134020365Y-105761655D01*
X134364017Y-105904000D01*
X134735983Y-105904000D01*
X135079635Y-105761655D01*
X135342655Y-105498635D01*
X135485000Y-105154983D01*
X135485000Y-104783017D01*
X135342655Y-104439365D01*
X135310000Y-104406710D01*
X135310000Y-100327326D01*
X141255800Y-100327326D01*
X141255800Y-100739074D01*
X141413369Y-101119480D01*
X141704520Y-101410631D01*
X142084926Y-101568200D01*
X142496674Y-101568200D01*
X142877080Y-101410631D01*
X142994511Y-101293200D01*
X143296799Y-101293200D01*
X143688070Y-101684472D01*
X143730471Y-101747929D01*
X143859025Y-101833826D01*
X144665000Y-102639802D01*
X144665000Y-102685983D01*
X144807345Y-103029635D01*
X145070365Y-103292655D01*
X145414017Y-103435000D01*
X145785983Y-103435000D01*
X146129635Y-103292655D01*
X146392655Y-103029635D01*
X146535000Y-102685983D01*
X146535000Y-102314017D01*
X146392655Y-101970365D01*
X146129635Y-101707345D01*
X145785983Y-101565000D01*
X145739802Y-101565000D01*
X144890331Y-100715530D01*
X144847929Y-100652071D01*
X144719377Y-100566175D01*
X144201931Y-100048730D01*
X144159529Y-99985271D01*
X143908137Y-99817296D01*
X143686452Y-99773200D01*
X143686447Y-99773200D01*
X143611600Y-99758312D01*
X143536753Y-99773200D01*
X142994511Y-99773200D01*
X142877080Y-99655769D01*
X142496674Y-99498200D01*
X142084926Y-99498200D01*
X141704520Y-99655769D01*
X141413369Y-99946920D01*
X141255800Y-100327326D01*
X135310000Y-100327326D01*
X135310000Y-99826846D01*
X135324888Y-99751999D01*
X135310000Y-99677152D01*
X135310000Y-99677148D01*
X135301000Y-99631902D01*
X135301000Y-99382017D01*
X135158655Y-99038365D01*
X134895635Y-98775345D01*
X134551983Y-98633000D01*
X134180017Y-98633000D01*
X133836365Y-98775345D01*
X133573345Y-99038365D01*
X133431000Y-99382017D01*
X133431000Y-99753983D01*
X133573345Y-100097635D01*
X133790001Y-100314291D01*
X133790001Y-101327762D01*
X133476153Y-101013914D01*
X132875222Y-100765000D01*
X132224778Y-100765000D01*
X131623847Y-101013914D01*
X131210000Y-101427761D01*
X131210000Y-95400000D01*
X142902560Y-95400000D01*
X142902560Y-98400000D01*
X142951843Y-98647765D01*
X143092191Y-98857809D01*
X143302235Y-98998157D01*
X143550000Y-99047440D01*
X150550000Y-99047440D01*
X150797765Y-98998157D01*
X151007809Y-98857809D01*
X151148157Y-98647765D01*
X151197440Y-98400000D01*
X151197440Y-95400000D01*
X151148157Y-95152235D01*
X151007809Y-94942191D01*
X150797765Y-94801843D01*
X150550000Y-94752560D01*
X147302850Y-94752560D01*
X147249635Y-94699345D01*
X146905983Y-94557000D01*
X146534017Y-94557000D01*
X146190365Y-94699345D01*
X146137150Y-94752560D01*
X143550000Y-94752560D01*
X143302235Y-94801843D01*
X143092191Y-94942191D01*
X142951843Y-95152235D01*
X142902560Y-95400000D01*
X131210000Y-95400000D01*
X131210000Y-90970182D01*
X131308356Y-91207635D01*
X131571376Y-91470655D01*
X131915028Y-91613000D01*
X132286994Y-91613000D01*
X132630646Y-91470655D01*
X132893666Y-91207635D01*
X133036011Y-90863983D01*
X133036011Y-90817801D01*
X133465361Y-90388451D01*
X133582365Y-90505455D01*
X133926017Y-90647800D01*
X134297983Y-90647800D01*
X134467354Y-90577644D01*
X134598365Y-90708655D01*
X134881558Y-90825957D01*
X135007345Y-91129635D01*
X135040001Y-91162291D01*
X135040000Y-91775153D01*
X135025112Y-91850000D01*
X135040000Y-91924847D01*
X135040000Y-91924851D01*
X135084096Y-92146536D01*
X135252071Y-92397929D01*
X135315530Y-92440331D01*
X135859671Y-92984473D01*
X135902071Y-93047929D01*
X135965527Y-93090329D01*
X136153462Y-93215904D01*
X136174054Y-93220000D01*
X134928290Y-93220000D01*
X134895635Y-93187345D01*
X134551983Y-93045000D01*
X134180017Y-93045000D01*
X133836365Y-93187345D01*
X133573345Y-93450365D01*
X133431000Y-93794017D01*
X133431000Y-94165983D01*
X133573345Y-94509635D01*
X133836365Y-94772655D01*
X134180017Y-94915000D01*
X134551983Y-94915000D01*
X134895635Y-94772655D01*
X134928290Y-94740000D01*
X136796910Y-94740000D01*
X136951165Y-94894255D01*
X137294817Y-95036600D01*
X137666783Y-95036600D01*
X138010435Y-94894255D01*
X138273455Y-94631235D01*
X138415800Y-94287583D01*
X138415800Y-93915617D01*
X138273455Y-93571965D01*
X138010435Y-93308945D01*
X137892271Y-93260000D01*
X143037153Y-93260000D01*
X143112000Y-93274888D01*
X143186847Y-93260000D01*
X143186852Y-93260000D01*
X143408537Y-93215904D01*
X143659929Y-93047929D01*
X143702331Y-92984470D01*
X145100473Y-91586329D01*
X145163929Y-91543929D01*
X145264483Y-91393440D01*
X145366000Y-91393440D01*
X145613765Y-91344157D01*
X145823809Y-91203809D01*
X145964157Y-90993765D01*
X146013440Y-90746000D01*
X146013440Y-89746000D01*
X148118560Y-89746000D01*
X148118560Y-90746000D01*
X148167843Y-90993765D01*
X148308191Y-91203809D01*
X148518235Y-91344157D01*
X148711714Y-91382642D01*
X148729448Y-91471800D01*
X148729449Y-91471801D01*
X148914000Y-91748001D01*
X148983718Y-91794585D01*
X152835000Y-95645868D01*
X152835001Y-98266562D01*
X152818643Y-98348800D01*
X152883448Y-98674600D01*
X152991092Y-98835700D01*
X153068000Y-98950801D01*
X153137718Y-98997385D01*
X154616200Y-100475868D01*
X154616200Y-100535874D01*
X154773769Y-100916280D01*
X155064920Y-101207431D01*
X155445326Y-101365000D01*
X155563706Y-101365000D01*
X155530600Y-101444926D01*
X155530600Y-101856674D01*
X155688169Y-102237080D01*
X155979320Y-102528231D01*
X156359726Y-102685800D01*
X156771474Y-102685800D01*
X157151880Y-102528231D01*
X157443031Y-102237080D01*
X157593031Y-101874947D01*
X160025356Y-99442623D01*
X160099249Y-99393249D01*
X160164898Y-99295000D01*
X160294852Y-99100510D01*
X160307213Y-99038365D01*
X160346200Y-98842365D01*
X160346200Y-98842361D01*
X160363537Y-98755200D01*
X160346200Y-98668039D01*
X160346200Y-92058807D01*
X160496200Y-91696674D01*
X160496200Y-91284926D01*
X160338631Y-90904520D01*
X160047480Y-90613369D01*
X159667074Y-90455800D01*
X159255326Y-90455800D01*
X158874920Y-90613369D01*
X158583769Y-90904520D01*
X158426200Y-91284926D01*
X158426200Y-91696674D01*
X158576201Y-92058809D01*
X158576200Y-98388621D01*
X156686200Y-100278622D01*
X156686200Y-100124126D01*
X156528631Y-99743720D01*
X156237480Y-99452569D01*
X155857074Y-99295000D01*
X155797068Y-99295000D01*
X154505000Y-98002933D01*
X154505000Y-95382232D01*
X154521357Y-95299999D01*
X154505000Y-95217764D01*
X154505000Y-95217763D01*
X154456552Y-94974199D01*
X154272001Y-94697999D01*
X154202283Y-94651415D01*
X150736173Y-91185306D01*
X150864157Y-90993765D01*
X150913440Y-90746000D01*
X150913440Y-89746000D01*
X150864157Y-89498235D01*
X150723809Y-89288191D01*
X150513765Y-89147843D01*
X150266000Y-89098560D01*
X148766000Y-89098560D01*
X148518235Y-89147843D01*
X148308191Y-89288191D01*
X148167843Y-89498235D01*
X148118560Y-89746000D01*
X146013440Y-89746000D01*
X145964157Y-89498235D01*
X145823809Y-89288191D01*
X145613765Y-89147843D01*
X145366000Y-89098560D01*
X143866000Y-89098560D01*
X143618235Y-89147843D01*
X143408191Y-89288191D01*
X143267843Y-89498235D01*
X143218560Y-89746000D01*
X143218560Y-90746000D01*
X143267843Y-90993765D01*
X143378230Y-91158969D01*
X142797199Y-91740000D01*
X140103118Y-91740000D01*
X140198157Y-91597765D01*
X140247440Y-91350000D01*
X140247440Y-88610000D01*
X141675153Y-88610000D01*
X141750000Y-88624888D01*
X141824847Y-88610000D01*
X141824852Y-88610000D01*
X142046537Y-88565904D01*
X142297929Y-88397929D01*
X142340331Y-88334470D01*
X143039802Y-87635000D01*
X143085983Y-87635000D01*
X143231000Y-87574932D01*
X143231000Y-87672310D01*
X143327673Y-87905699D01*
X143506302Y-88084327D01*
X143739691Y-88181000D01*
X144330250Y-88181000D01*
X144489000Y-88022250D01*
X144489000Y-87173000D01*
X144743000Y-87173000D01*
X144743000Y-88022250D01*
X144901750Y-88181000D01*
X145492309Y-88181000D01*
X145725698Y-88084327D01*
X145904327Y-87905699D01*
X146001000Y-87672310D01*
X146001000Y-87331750D01*
X145842250Y-87173000D01*
X144743000Y-87173000D01*
X144489000Y-87173000D01*
X144469000Y-87173000D01*
X144469000Y-86919000D01*
X144489000Y-86919000D01*
X144489000Y-86069750D01*
X144743000Y-86069750D01*
X144743000Y-86919000D01*
X145842250Y-86919000D01*
X146001000Y-86760250D01*
X146001000Y-86546000D01*
X148118560Y-86546000D01*
X148118560Y-87546000D01*
X148167843Y-87793765D01*
X148308191Y-88003809D01*
X148518235Y-88144157D01*
X148766000Y-88193440D01*
X150266000Y-88193440D01*
X150513765Y-88144157D01*
X150723809Y-88003809D01*
X150864157Y-87793765D01*
X150913440Y-87546000D01*
X150913440Y-86546000D01*
X150864157Y-86298235D01*
X150723809Y-86088191D01*
X150513765Y-85947843D01*
X150266000Y-85898560D01*
X148766000Y-85898560D01*
X148518235Y-85947843D01*
X148308191Y-86088191D01*
X148167843Y-86298235D01*
X148118560Y-86546000D01*
X146001000Y-86546000D01*
X146001000Y-86419690D01*
X145904327Y-86186301D01*
X145725698Y-86007673D01*
X145492309Y-85911000D01*
X144901750Y-85911000D01*
X144743000Y-86069750D01*
X144489000Y-86069750D01*
X144330250Y-85911000D01*
X143739691Y-85911000D01*
X143523033Y-86000743D01*
X143429635Y-85907345D01*
X143085983Y-85765000D01*
X142714017Y-85765000D01*
X142370365Y-85907345D01*
X142107345Y-86170365D01*
X141965000Y-86514017D01*
X141965000Y-86560198D01*
X141435199Y-87090000D01*
X140247440Y-87090000D01*
X140247440Y-84350000D01*
X140198157Y-84102235D01*
X140057809Y-83892191D01*
X139847765Y-83751843D01*
X139600000Y-83702560D01*
X136933253Y-83702560D01*
X136883820Y-83583217D01*
X142524200Y-83583217D01*
X142524200Y-83955183D01*
X142666545Y-84298835D01*
X142929565Y-84561855D01*
X143273217Y-84704200D01*
X143645183Y-84704200D01*
X143988835Y-84561855D01*
X144072290Y-84478400D01*
X145436910Y-84478400D01*
X145469565Y-84511055D01*
X145813217Y-84653400D01*
X146185183Y-84653400D01*
X146528835Y-84511055D01*
X146791855Y-84248035D01*
X146934200Y-83904383D01*
X146934200Y-83532417D01*
X146791855Y-83188765D01*
X146528835Y-82925745D01*
X146185183Y-82783400D01*
X145813217Y-82783400D01*
X145469565Y-82925745D01*
X145436910Y-82958400D01*
X143945029Y-82958400D01*
X143645183Y-82834200D01*
X143273217Y-82834200D01*
X142929565Y-82976545D01*
X142666545Y-83239565D01*
X142524200Y-83583217D01*
X136883820Y-83583217D01*
X136795654Y-83370365D01*
X136532634Y-83107345D01*
X136188982Y-82965000D01*
X136063000Y-82965000D01*
X136063000Y-82872017D01*
X135920655Y-82528365D01*
X135888000Y-82495710D01*
X135888000Y-80572290D01*
X135920655Y-80539635D01*
X136063000Y-80195983D01*
X136063000Y-79824017D01*
X135920655Y-79480365D01*
X135657635Y-79217345D01*
X135313983Y-79075000D01*
X134942017Y-79075000D01*
X134598365Y-79217345D01*
X134335345Y-79480365D01*
X134193000Y-79824017D01*
X134193000Y-80195983D01*
X134335345Y-80539635D01*
X134368000Y-80572290D01*
X134368001Y-82495709D01*
X134335345Y-82528365D01*
X134193000Y-82872017D01*
X134193000Y-83140000D01*
X134049146Y-83140000D01*
X133974299Y-83125112D01*
X133899452Y-83140000D01*
X133899448Y-83140000D01*
X133677763Y-83184096D01*
X133615202Y-83225898D01*
X133523000Y-83287505D01*
X133523000Y-83126017D01*
X133380655Y-82782365D01*
X133117635Y-82519345D01*
X132773983Y-82377000D01*
X132402017Y-82377000D01*
X132058365Y-82519345D01*
X131795345Y-82782365D01*
X131653000Y-83126017D01*
X131653000Y-83194383D01*
X131572097Y-83315463D01*
X131528001Y-83537148D01*
X131528001Y-83537152D01*
X131513113Y-83611999D01*
X131528001Y-83686846D01*
X131528002Y-86487398D01*
X131296365Y-86583345D01*
X131210000Y-86669710D01*
X131210000Y-77500000D01*
X142902560Y-77500000D01*
X142902560Y-80500000D01*
X142951843Y-80747765D01*
X143092191Y-80957809D01*
X143302235Y-81098157D01*
X143550000Y-81147440D01*
X150122639Y-81147440D01*
X151590001Y-82614803D01*
X151590000Y-87787710D01*
X151557345Y-87820365D01*
X151415000Y-88164017D01*
X151415000Y-88535983D01*
X151557345Y-88879635D01*
X151820365Y-89142655D01*
X152164017Y-89285000D01*
X152535983Y-89285000D01*
X152840000Y-89159072D01*
X152840001Y-89737709D01*
X152807345Y-89770365D01*
X152665000Y-90114017D01*
X152665000Y-90485983D01*
X152807345Y-90829635D01*
X153070365Y-91092655D01*
X153414017Y-91235000D01*
X153785983Y-91235000D01*
X153902560Y-91186712D01*
X153902560Y-91400000D01*
X153951843Y-91647765D01*
X154092191Y-91857809D01*
X154302235Y-91998157D01*
X154550000Y-92047440D01*
X156265000Y-92047440D01*
X156265000Y-92285983D01*
X156407345Y-92629635D01*
X156670365Y-92892655D01*
X156840001Y-92962920D01*
X156840000Y-95537710D01*
X156807345Y-95570365D01*
X156665000Y-95914017D01*
X156665000Y-96285983D01*
X156807345Y-96629635D01*
X157070365Y-96892655D01*
X157414017Y-97035000D01*
X157785983Y-97035000D01*
X158129635Y-96892655D01*
X158392655Y-96629635D01*
X158535000Y-96285983D01*
X158535000Y-95914017D01*
X158392655Y-95570365D01*
X158360000Y-95537710D01*
X158360000Y-92574846D01*
X158374888Y-92499999D01*
X158360000Y-92425152D01*
X158360000Y-92425148D01*
X158315904Y-92203463D01*
X158147929Y-91952071D01*
X158135000Y-91943432D01*
X158135000Y-91914017D01*
X158071954Y-91761810D01*
X158148157Y-91647765D01*
X158197440Y-91400000D01*
X158197440Y-84400000D01*
X158148157Y-84152235D01*
X158007809Y-83942191D01*
X157797765Y-83801843D01*
X157550000Y-83752560D01*
X154550000Y-83752560D01*
X154302235Y-83801843D01*
X154092191Y-83942191D01*
X153951843Y-84152235D01*
X153902560Y-84400000D01*
X153902560Y-87251517D01*
X153815526Y-87309671D01*
X153815524Y-87309673D01*
X153752071Y-87352071D01*
X153709672Y-87415525D01*
X153190156Y-87935043D01*
X153142655Y-87820365D01*
X153110000Y-87787710D01*
X153110000Y-82374848D01*
X153124888Y-82300000D01*
X153110000Y-82225152D01*
X153110000Y-82225148D01*
X153065904Y-82003463D01*
X153065904Y-82003462D01*
X152940329Y-81815527D01*
X152897929Y-81752071D01*
X152834473Y-81709671D01*
X151197440Y-80072639D01*
X151197440Y-77500000D01*
X151148157Y-77252235D01*
X151007809Y-77042191D01*
X150797765Y-76901843D01*
X150550000Y-76852560D01*
X143550000Y-76852560D01*
X143302235Y-76901843D01*
X143092191Y-77042191D01*
X142951843Y-77252235D01*
X142902560Y-77500000D01*
X131210000Y-77500000D01*
X131210000Y-74372239D01*
X131623847Y-74786086D01*
X132224778Y-75035000D01*
X132875222Y-75035000D01*
X133476153Y-74786086D01*
X133936086Y-74326153D01*
X134185000Y-73725222D01*
X134185000Y-73074778D01*
X133936086Y-72473847D01*
X133476153Y-72013914D01*
X132875222Y-71765000D01*
X132224778Y-71765000D01*
X131623847Y-72013914D01*
X131210000Y-72427761D01*
X131210000Y-71188017D01*
X141357010Y-71188017D01*
X141357010Y-71559983D01*
X141499355Y-71903635D01*
X141629510Y-72033790D01*
X141559000Y-72204017D01*
X141559000Y-72575983D01*
X141701345Y-72919635D01*
X141964365Y-73182655D01*
X142308017Y-73325000D01*
X142679983Y-73325000D01*
X143023635Y-73182655D01*
X143056290Y-73150000D01*
X148027710Y-73150000D01*
X148060365Y-73182655D01*
X148404017Y-73325000D01*
X148775983Y-73325000D01*
X149119635Y-73182655D01*
X149382655Y-72919635D01*
X149525000Y-72575983D01*
X149525000Y-72204017D01*
X149391616Y-71882000D01*
X149525000Y-71559983D01*
X149525000Y-71188017D01*
X149382655Y-70844365D01*
X149119635Y-70581345D01*
X148775983Y-70439000D01*
X148404017Y-70439000D01*
X148060365Y-70581345D01*
X148027710Y-70614000D01*
X142854300Y-70614000D01*
X142821645Y-70581345D01*
X142477993Y-70439000D01*
X142106027Y-70439000D01*
X141762375Y-70581345D01*
X141499355Y-70844365D01*
X141357010Y-71188017D01*
X131210000Y-71188017D01*
X131210000Y-66651201D01*
X131703800Y-67145002D01*
X131703800Y-67191183D01*
X131846145Y-67534835D01*
X132109165Y-67797855D01*
X132452817Y-67940200D01*
X132515399Y-67940200D01*
X134065000Y-69489802D01*
X134065000Y-69535983D01*
X134207345Y-69879635D01*
X134470365Y-70142655D01*
X134814017Y-70285000D01*
X135185983Y-70285000D01*
X135529635Y-70142655D01*
X135792655Y-69879635D01*
X135935000Y-69535983D01*
X135935000Y-69164017D01*
X135792655Y-68820365D01*
X135529635Y-68557345D01*
X135185983Y-68415000D01*
X135139802Y-68415000D01*
X133573800Y-66848999D01*
X133573800Y-66819217D01*
X133431455Y-66475565D01*
X133168435Y-66212545D01*
X132824783Y-66070200D01*
X132778602Y-66070200D01*
X132286001Y-65577600D01*
X132286001Y-65338797D01*
X132376635Y-65399357D01*
X132624400Y-65448640D01*
X133874400Y-65448640D01*
X133920588Y-65439453D01*
X133973091Y-65461200D01*
X134613650Y-65461200D01*
X134772400Y-65302450D01*
X134772400Y-63703200D01*
X134365150Y-63703200D01*
X134350650Y-63688700D01*
X133376400Y-63688700D01*
X133376400Y-63703760D01*
X133122400Y-63703760D01*
X133122400Y-63688700D01*
X133102400Y-63688700D01*
X133102400Y-63463700D01*
X133122400Y-63463700D01*
X133122400Y-63448640D01*
X133376400Y-63448640D01*
X133376400Y-63463700D01*
X134350650Y-63463700D01*
X134365150Y-63449200D01*
X134772400Y-63449200D01*
X134772400Y-63429200D01*
X135026400Y-63429200D01*
X135026400Y-63449200D01*
X135046400Y-63449200D01*
X135046400Y-63703200D01*
X135026400Y-63703200D01*
X135026400Y-65302450D01*
X135185150Y-65461200D01*
X135825709Y-65461200D01*
X135878212Y-65439453D01*
X135924400Y-65448640D01*
X137174400Y-65448640D01*
X137422165Y-65399357D01*
X137632209Y-65259009D01*
X137772557Y-65048965D01*
X137821840Y-64801200D01*
X137821840Y-64461200D01*
X138317439Y-64461200D01*
X138404600Y-64478537D01*
X138491761Y-64461200D01*
X138491765Y-64461200D01*
X138749910Y-64409852D01*
X138817770Y-64364509D01*
X138880165Y-64515145D01*
X139143185Y-64778165D01*
X139486837Y-64920510D01*
X139716401Y-64920510D01*
X139716401Y-65253598D01*
X139606528Y-65363470D01*
X139543070Y-65405872D01*
X139375095Y-65657265D01*
X139330999Y-65878950D01*
X139330999Y-65878954D01*
X139316111Y-65953801D01*
X139330999Y-66028648D01*
X139331000Y-67416998D01*
X138391799Y-68356200D01*
X138345617Y-68356200D01*
X138001965Y-68498545D01*
X137738945Y-68761565D01*
X137596600Y-69105217D01*
X137596600Y-69477183D01*
X137738945Y-69820835D01*
X138001965Y-70083855D01*
X138345617Y-70226200D01*
X138717583Y-70226200D01*
X139061235Y-70083855D01*
X139324255Y-69820835D01*
X139466600Y-69477183D01*
X139466600Y-69431001D01*
X140575472Y-68322130D01*
X140638928Y-68279730D01*
X140806903Y-68028338D01*
X140850999Y-67806653D01*
X140850999Y-67806649D01*
X140865887Y-67731802D01*
X140850999Y-67656955D01*
X140850999Y-66268603D01*
X140960872Y-66158729D01*
X141024329Y-66116329D01*
X141192304Y-65864937D01*
X141236400Y-65643252D01*
X141236400Y-65643248D01*
X141251288Y-65568401D01*
X141236400Y-65493554D01*
X141236400Y-63940000D01*
X145930805Y-63940000D01*
X146026656Y-64421873D01*
X146299615Y-64830385D01*
X146708127Y-65103344D01*
X147068364Y-65175000D01*
X147311636Y-65175000D01*
X147671873Y-65103344D01*
X148080385Y-64830385D01*
X148353344Y-64421873D01*
X148449195Y-63940000D01*
X148353344Y-63458127D01*
X148080385Y-63049615D01*
X147671873Y-62776656D01*
X147311636Y-62705000D01*
X147068364Y-62705000D01*
X146708127Y-62776656D01*
X146299615Y-63049615D01*
X146026656Y-63458127D01*
X145930805Y-63940000D01*
X141236400Y-63940000D01*
X141236400Y-63212330D01*
X141374557Y-63005565D01*
X141423840Y-62757800D01*
X141423840Y-62235800D01*
X141396733Y-62099520D01*
X141411400Y-62064110D01*
X141411400Y-61962550D01*
X141252650Y-61803800D01*
X141251454Y-61803800D01*
X141234209Y-61777991D01*
X141024165Y-61637643D01*
X140776400Y-61588360D01*
X140368874Y-61588360D01*
X140386773Y-61529800D01*
X140499792Y-61529800D01*
X140528065Y-61558073D01*
X140556338Y-61529800D01*
X140603400Y-61529800D01*
X140603400Y-61549800D01*
X141252650Y-61549800D01*
X141402450Y-61400000D01*
X143190805Y-61400000D01*
X143286656Y-61881873D01*
X143559615Y-62290385D01*
X143968127Y-62563344D01*
X144328364Y-62635000D01*
X144971636Y-62635000D01*
X145331873Y-62563344D01*
X145740385Y-62290385D01*
X146013344Y-61881873D01*
X146046018Y-61717609D01*
X148536538Y-61717609D01*
X148661503Y-62019327D01*
X148979844Y-62381080D01*
X149412389Y-62593472D01*
X149603000Y-62469714D01*
X149603000Y-61527000D01*
X149857000Y-61527000D01*
X149857000Y-62469714D01*
X150047611Y-62593472D01*
X150480156Y-62381080D01*
X150798497Y-62019327D01*
X150923462Y-61717609D01*
X150798731Y-61527000D01*
X149857000Y-61527000D01*
X149603000Y-61527000D01*
X148661269Y-61527000D01*
X148536538Y-61717609D01*
X146046018Y-61717609D01*
X146109195Y-61400000D01*
X146046019Y-61082391D01*
X148536538Y-61082391D01*
X148661269Y-61273000D01*
X149603000Y-61273000D01*
X149603000Y-60330286D01*
X149857000Y-60330286D01*
X149857000Y-61273000D01*
X150798731Y-61273000D01*
X150923462Y-61082391D01*
X150798497Y-60780673D01*
X150480156Y-60418920D01*
X150047611Y-60206528D01*
X149857000Y-60330286D01*
X149603000Y-60330286D01*
X149412389Y-60206528D01*
X148979844Y-60418920D01*
X148661503Y-60780673D01*
X148536538Y-61082391D01*
X146046019Y-61082391D01*
X146013344Y-60918127D01*
X145740385Y-60509615D01*
X145331873Y-60236656D01*
X144971636Y-60165000D01*
X144328364Y-60165000D01*
X143968127Y-60236656D01*
X143559615Y-60509615D01*
X143286656Y-60918127D01*
X143190805Y-61400000D01*
X141402450Y-61400000D01*
X141411400Y-61391050D01*
X141411400Y-61289490D01*
X141314727Y-61056101D01*
X141136098Y-60877473D01*
X140975971Y-60811146D01*
X141035306Y-60646444D01*
X141008308Y-60071425D01*
X140840200Y-59665576D01*
X140592836Y-59589969D01*
X139756005Y-60426800D01*
X139770148Y-60440943D01*
X139590543Y-60620548D01*
X139576400Y-60606405D01*
X139562258Y-60620548D01*
X139382653Y-60440943D01*
X139396795Y-60426800D01*
X139382653Y-60412658D01*
X139562258Y-60233053D01*
X139576400Y-60247195D01*
X140413231Y-59410364D01*
X140337624Y-59163000D01*
X139796044Y-58967894D01*
X139221025Y-58994892D01*
X138815176Y-59163000D01*
X138739570Y-59410362D01*
X138682000Y-59352792D01*
X138682000Y-59293601D01*
X139015851Y-58959750D01*
X155251200Y-58959750D01*
X155251200Y-59700310D01*
X155347873Y-59933699D01*
X155526502Y-60112327D01*
X155759891Y-60209000D01*
X156000450Y-60209000D01*
X156159200Y-60050250D01*
X156159200Y-58801000D01*
X155409950Y-58801000D01*
X155251200Y-58959750D01*
X139015851Y-58959750D01*
X139587402Y-58388200D01*
X139753474Y-58388200D01*
X140133880Y-58230631D01*
X140425031Y-57939480D01*
X140582600Y-57559074D01*
X140582600Y-57147326D01*
X140527382Y-57014017D01*
X144265000Y-57014017D01*
X144265000Y-57385983D01*
X144407345Y-57729635D01*
X144670365Y-57992655D01*
X145014017Y-58135000D01*
X145385983Y-58135000D01*
X145729635Y-57992655D01*
X145992655Y-57729635D01*
X146042655Y-57608923D01*
X146166579Y-57485000D01*
X155318588Y-57485000D01*
X155251200Y-57647690D01*
X155251200Y-58388250D01*
X155409950Y-58547000D01*
X156159200Y-58547000D01*
X156159200Y-58527000D01*
X156413200Y-58527000D01*
X156413200Y-58547000D01*
X156433200Y-58547000D01*
X156433200Y-58801000D01*
X156413200Y-58801000D01*
X156413200Y-60050250D01*
X156571950Y-60209000D01*
X156679777Y-60209000D01*
X156722548Y-60424024D01*
X156918151Y-60716764D01*
X156992047Y-60766140D01*
X158765793Y-62539886D01*
X158363093Y-62706690D01*
X158193875Y-62875908D01*
X158190757Y-62860235D01*
X158050409Y-62650191D01*
X157840365Y-62509843D01*
X157592600Y-62460560D01*
X155792600Y-62460560D01*
X155544835Y-62509843D01*
X155334791Y-62650191D01*
X155194443Y-62860235D01*
X155145160Y-63108000D01*
X155145160Y-64908000D01*
X155194443Y-65155765D01*
X155334791Y-65365809D01*
X155544835Y-65506157D01*
X155792600Y-65555440D01*
X157592600Y-65555440D01*
X157840365Y-65506157D01*
X158050409Y-65365809D01*
X158190757Y-65155765D01*
X158193875Y-65140092D01*
X158363093Y-65309310D01*
X158927270Y-65543000D01*
X159537930Y-65543000D01*
X160102107Y-65309310D01*
X160490656Y-64920761D01*
X160663126Y-64992200D01*
X161074874Y-64992200D01*
X161455280Y-64834631D01*
X161746431Y-64543480D01*
X161904000Y-64163074D01*
X161904000Y-63751326D01*
X161766025Y-63418223D01*
X161771337Y-63391515D01*
X161754000Y-63304354D01*
X161754000Y-63304350D01*
X161702652Y-63046205D01*
X161668747Y-62995463D01*
X161556424Y-62827360D01*
X161556423Y-62827359D01*
X161507049Y-62753466D01*
X161433156Y-62704092D01*
X159494187Y-60765124D01*
X159729031Y-60530280D01*
X159886600Y-60149874D01*
X159886600Y-60132850D01*
X159969200Y-60050250D01*
X159969200Y-58801000D01*
X160223200Y-58801000D01*
X160223200Y-60050250D01*
X160381950Y-60209000D01*
X160622509Y-60209000D01*
X160855898Y-60112327D01*
X161034527Y-59933699D01*
X161131200Y-59700310D01*
X161131200Y-58959750D01*
X160972450Y-58801000D01*
X160223200Y-58801000D01*
X159969200Y-58801000D01*
X159949200Y-58801000D01*
X159949200Y-58547000D01*
X159969200Y-58547000D01*
X159969200Y-57297750D01*
X160223200Y-57297750D01*
X160223200Y-58547000D01*
X160972450Y-58547000D01*
X161131200Y-58388250D01*
X161131200Y-57647690D01*
X161034527Y-57414301D01*
X160855898Y-57235673D01*
X160622509Y-57139000D01*
X160381950Y-57139000D01*
X160223200Y-57297750D01*
X159969200Y-57297750D01*
X159810450Y-57139000D01*
X159569891Y-57139000D01*
X159476636Y-57177628D01*
X159473965Y-57175843D01*
X159226200Y-57126560D01*
X158429211Y-57126560D01*
X158389852Y-56928690D01*
X158194249Y-56635951D01*
X158120356Y-56586577D01*
X157569625Y-56035847D01*
X157520249Y-55961951D01*
X157227510Y-55766348D01*
X156969365Y-55715000D01*
X156969361Y-55715000D01*
X156882200Y-55697663D01*
X156795039Y-55715000D01*
X145887159Y-55715000D01*
X145799999Y-55697663D01*
X145712839Y-55715000D01*
X145712835Y-55715000D01*
X145454690Y-55766348D01*
X145454688Y-55766349D01*
X145454689Y-55766349D01*
X145235845Y-55912576D01*
X145235844Y-55912577D01*
X145161951Y-55961951D01*
X145112577Y-56035844D01*
X144791077Y-56357345D01*
X144670365Y-56407345D01*
X144407345Y-56670365D01*
X144265000Y-57014017D01*
X140527382Y-57014017D01*
X140425031Y-56766920D01*
X140133880Y-56475769D01*
X139753474Y-56318200D01*
X139341726Y-56318200D01*
X138961320Y-56475769D01*
X138670169Y-56766920D01*
X138512600Y-57147326D01*
X138512600Y-57313398D01*
X137437530Y-58388469D01*
X137374071Y-58430871D01*
X137206096Y-58682264D01*
X137162000Y-58903949D01*
X137162000Y-58903953D01*
X137147112Y-58978800D01*
X137162000Y-59053647D01*
X137162001Y-60886548D01*
X137147112Y-60961400D01*
X137206097Y-61257937D01*
X137301021Y-61400000D01*
X137374072Y-61509329D01*
X137437527Y-61551728D01*
X137728960Y-61843162D01*
X137728960Y-61937800D01*
X137757392Y-62080739D01*
X137632209Y-61893391D01*
X137422165Y-61753043D01*
X137174400Y-61703760D01*
X136751762Y-61703760D01*
X136367800Y-61319799D01*
X136367800Y-61273617D01*
X136226502Y-60932492D01*
X136330957Y-60776165D01*
X136380240Y-60528400D01*
X136380240Y-60078400D01*
X136330957Y-59830635D01*
X136268645Y-59737379D01*
X136305240Y-59553400D01*
X136305240Y-59464653D01*
X136330957Y-59426165D01*
X136380240Y-59178400D01*
X136380240Y-58728400D01*
X136330957Y-58480635D01*
X136267800Y-58386115D01*
X136267800Y-58156690D01*
X136440055Y-57984435D01*
X136582400Y-57640783D01*
X136582400Y-57268817D01*
X136440055Y-56925165D01*
X136177035Y-56662145D01*
X135833383Y-56519800D01*
X135461417Y-56519800D01*
X135117765Y-56662145D01*
X134854745Y-56925165D01*
X134738795Y-57205095D01*
X134646248Y-57343600D01*
X134581443Y-57669400D01*
X134597801Y-57751638D01*
X134597801Y-58093400D01*
X134518550Y-58093400D01*
X134359800Y-58252150D01*
X134359800Y-58840900D01*
X134379800Y-58840900D01*
X134379800Y-59065900D01*
X134359800Y-59065900D01*
X134359800Y-59100400D01*
X134105800Y-59100400D01*
X134105800Y-59065900D01*
X133456550Y-59065900D01*
X133297800Y-59224650D01*
X133297800Y-59304709D01*
X133394473Y-59538098D01*
X133476175Y-59619800D01*
X133474991Y-59620591D01*
X133334643Y-59830635D01*
X133285360Y-60078400D01*
X133285360Y-60528400D01*
X133334643Y-60776165D01*
X133472801Y-60982931D01*
X133472801Y-61277998D01*
X133047039Y-61703760D01*
X132624400Y-61703760D01*
X132376635Y-61753043D01*
X132290037Y-61810907D01*
X132241800Y-61801312D01*
X132166952Y-61816200D01*
X132166948Y-61816200D01*
X131997276Y-61849950D01*
X131945262Y-61860296D01*
X131812701Y-61948871D01*
X131693871Y-62028271D01*
X131651471Y-62091727D01*
X131210000Y-62533199D01*
X131210000Y-58602091D01*
X133297800Y-58602091D01*
X133297800Y-58682150D01*
X133456550Y-58840900D01*
X134105800Y-58840900D01*
X134105800Y-58252150D01*
X133947050Y-58093400D01*
X133806490Y-58093400D01*
X133573101Y-58190073D01*
X133394473Y-58368702D01*
X133297800Y-58602091D01*
X131210000Y-58602091D01*
X131210000Y-53494528D01*
X159485077Y-53494528D01*
X159675364Y-53839271D01*
X160556591Y-54190956D01*
X161505323Y-54178641D01*
X162324636Y-53839271D01*
X162514923Y-53494528D01*
X161000000Y-51979605D01*
X159485077Y-53494528D01*
X131210000Y-53494528D01*
X131210000Y-51356591D01*
X158609044Y-51356591D01*
X158621359Y-52305323D01*
X158960729Y-53124636D01*
X159305472Y-53314923D01*
X160820395Y-51800000D01*
X159305472Y-50285077D01*
X158960729Y-50475364D01*
X158609044Y-51356591D01*
X131210000Y-51356591D01*
X131210000Y-49935663D01*
X142533769Y-49946236D01*
X142604028Y-49960211D01*
X142743135Y-49932541D01*
X142880431Y-49905365D01*
X142880717Y-49905174D01*
X142881056Y-49905107D01*
X142998922Y-49826352D01*
X143115430Y-49748660D01*
X143115620Y-49748376D01*
X143115909Y-49748183D01*
X143194827Y-49630074D01*
X143272573Y-49513954D01*
X143272640Y-49513619D01*
X143272833Y-49513330D01*
X143300533Y-49374071D01*
X143327936Y-49236977D01*
X143314028Y-49166714D01*
X143314028Y-43723302D01*
X147183982Y-43723302D01*
X146557404Y-43841129D01*
X146557404Y-43841129D01*
G37*
X146557404Y-43841129D02*
X145755492Y-44197325D01*
X145057030Y-44728447D01*
X144499487Y-45406005D01*
X144112769Y-46193653D01*
X143917622Y-47049139D01*
X143924514Y-47926574D01*
X144133074Y-48778890D01*
X144532116Y-49560366D01*
X145100233Y-50229083D01*
X145806951Y-50749169D01*
X146614359Y-51092725D01*
X147479147Y-51241323D01*
X148354925Y-51186991D01*
X149194715Y-50932644D01*
X149953468Y-50491925D01*
X150590483Y-49888476D01*
X151071589Y-49154666D01*
X151370979Y-48329860D01*
X151472593Y-47458302D01*
X151472126Y-47398794D01*
X151356835Y-46528939D01*
X151044526Y-45708937D01*
X150551953Y-44982776D01*
X149905538Y-44389407D01*
X149139956Y-43960660D01*
X148309455Y-43723302D01*
X152308028Y-43723302D01*
X152308028Y-43845227D01*
X152308029Y-43845232D01*
X152308028Y-49165916D01*
X152294120Y-49235368D01*
X152308028Y-49305764D01*
X152308028Y-49306227D01*
X152321592Y-49374416D01*
X152348866Y-49512466D01*
X152349130Y-49512863D01*
X152349223Y-49513329D01*
X152427410Y-49630344D01*
X152505487Y-49747521D01*
X152505882Y-49747786D01*
X152506147Y-49748182D01*
X152623444Y-49826558D01*
X152740137Y-49904748D01*
X152740602Y-49904841D01*
X152741000Y-49905107D01*
X152879356Y-49932628D01*
X152947186Y-49946211D01*
X152947648Y-49946212D01*
X153018028Y-49960211D01*
X153087500Y-49946392D01*
X159568265Y-49954761D01*
X159485077Y-50105472D01*
X161000000Y-51620395D01*
X162514923Y-50105472D01*
X162433778Y-49958462D01*
X162915001Y-49959083D01*
X162915001Y-50406771D01*
X162694528Y-50285077D01*
X161179605Y-51800000D01*
X162694528Y-53314923D01*
X162915001Y-53193229D01*
X162915001Y-72452762D01*
X162476153Y-72013914D01*
X161875222Y-71765000D01*
X161224778Y-71765000D01*
X160623847Y-72013914D01*
X160163914Y-72473847D01*
X159915000Y-73074778D01*
X159915000Y-73725222D01*
X160163914Y-74326153D01*
X160623847Y-74786086D01*
X161224778Y-75035000D01*
X161875222Y-75035000D01*
X162476153Y-74786086D01*
X162915001Y-74347238D01*
X162915000Y-101452761D01*
X162476153Y-101013914D01*
X161875222Y-100765000D01*
X161224778Y-100765000D01*
X160623847Y-101013914D01*
X160163914Y-101473847D01*
X159915000Y-102074778D01*
X159915000Y-102725222D01*
X160163914Y-103326153D01*
X160623847Y-103786086D01*
X161224778Y-104035000D01*
X161875222Y-104035000D01*
X162476153Y-103786086D01*
X162915000Y-103347239D01*
X162915000Y-109820998D01*
X162428200Y-109334198D01*
X162428200Y-109288017D01*
X162285855Y-108944365D01*
X162022835Y-108681345D01*
X161679183Y-108539000D01*
X161307217Y-108539000D01*
X160963565Y-108681345D01*
X160700545Y-108944365D01*
X160558200Y-109288017D01*
X160558200Y-109659983D01*
X160645171Y-109869949D01*
X160457200Y-109832560D01*
X160372078Y-109832560D01*
X160303737Y-109786896D01*
X160007200Y-109727911D01*
X159901031Y-109749029D01*
X159610000Y-109457999D01*
X159610000Y-105503711D01*
X159727431Y-105386280D01*
X159885000Y-105005874D01*
X159885000Y-104594126D01*
X159727431Y-104213720D01*
X159436280Y-103922569D01*
X159055874Y-103765000D01*
X158644126Y-103765000D01*
X158263720Y-103922569D01*
X157972569Y-104213720D01*
X157815000Y-104594126D01*
X157815000Y-105005874D01*
X157972569Y-105386280D01*
X158090001Y-105503712D01*
X158090000Y-109697953D01*
X158075112Y-109772800D01*
X158089474Y-109845000D01*
X157830891Y-109845000D01*
X157597502Y-109941673D01*
X157418873Y-110120301D01*
X157322200Y-110353690D01*
X157322200Y-110694250D01*
X157480950Y-110853000D01*
X158280200Y-110853000D01*
X158280200Y-110833000D01*
X158534200Y-110833000D01*
X158534200Y-110853000D01*
X158554200Y-110853000D01*
X158554200Y-111107000D01*
X158534200Y-111107000D01*
X158534200Y-111956250D01*
X158692950Y-112115000D01*
X158983509Y-112115000D01*
X159216898Y-112018327D01*
X159218098Y-112017127D01*
X159247200Y-112036573D01*
X159247201Y-114023427D01*
X159218098Y-114042873D01*
X159216898Y-114041673D01*
X158983509Y-113945000D01*
X158692950Y-113945000D01*
X158534200Y-114103750D01*
X158534200Y-114953000D01*
X158554200Y-114953000D01*
X158554200Y-115207000D01*
X158534200Y-115207000D01*
X158534200Y-115227000D01*
X158280200Y-115227000D01*
X158280200Y-115207000D01*
X158260200Y-115207000D01*
X158260200Y-114953000D01*
X158280200Y-114953000D01*
X158280200Y-114103750D01*
X158121450Y-113945000D01*
X157830891Y-113945000D01*
X157597502Y-114041673D01*
X157586440Y-114052735D01*
X157586440Y-113504500D01*
X157519078Y-113165848D01*
X157352803Y-112917000D01*
X157519078Y-112668152D01*
X157586440Y-112329500D01*
X157586440Y-112007265D01*
X157597502Y-112018327D01*
X157830891Y-112115000D01*
X158121450Y-112115000D01*
X158280200Y-111956250D01*
X158280200Y-111107000D01*
X157480950Y-111107000D01*
X157380099Y-111207851D01*
X157327247Y-111128753D01*
X157040152Y-110936922D01*
X156701500Y-110869560D01*
X156226500Y-110869560D01*
X155887848Y-110936922D01*
X155600753Y-111128753D01*
X155498356Y-111282000D01*
X154266802Y-111282000D01*
X153841400Y-110856599D01*
X153841400Y-110690526D01*
X153683831Y-110310120D01*
X153392680Y-110018969D01*
X153012274Y-109861400D01*
X152600526Y-109861400D01*
X152220120Y-110018969D01*
X151928969Y-110310120D01*
X151771400Y-110690526D01*
X151771400Y-110856598D01*
X150543930Y-112084069D01*
X150483205Y-112124644D01*
X150449455Y-112043165D01*
X150416800Y-112010510D01*
X150416800Y-111189844D01*
X150431688Y-111114997D01*
X150416800Y-111040150D01*
X150416800Y-111040146D01*
X150372704Y-110818461D01*
X150289709Y-110694250D01*
X150247129Y-110630524D01*
X150247127Y-110630522D01*
X150204729Y-110567069D01*
X150141276Y-110524671D01*
X148382201Y-108765598D01*
X148382201Y-108523944D01*
X148397089Y-108449097D01*
X148382201Y-108374250D01*
X148382201Y-108374245D01*
X148338105Y-108152560D01*
X148170130Y-107901168D01*
X148140752Y-107881538D01*
X148192655Y-107829635D01*
X148335000Y-107485983D01*
X148335000Y-107114017D01*
X148192655Y-106770365D01*
X148160000Y-106737710D01*
X148160000Y-105767049D01*
X148235000Y-105585983D01*
X148235000Y-105214017D01*
X148092655Y-104870365D01*
X147829635Y-104607345D01*
X147485983Y-104465000D01*
X147114017Y-104465000D01*
X146770365Y-104607345D01*
X146507345Y-104870365D01*
X146365000Y-105214017D01*
X146365000Y-105585983D01*
X146507345Y-105929635D01*
X146640001Y-106062291D01*
X146640000Y-106737710D01*
X146607345Y-106770365D01*
X146517695Y-106986800D01*
X145616846Y-106986800D01*
X145541999Y-106971912D01*
X145467152Y-106986800D01*
X145467148Y-106986800D01*
X145245463Y-107030896D01*
X144994071Y-107198871D01*
X144951671Y-107262327D01*
X143676600Y-108537399D01*
X143619596Y-108513787D01*
X143247630Y-108513787D01*
X142903978Y-108656132D01*
X142640958Y-108919152D01*
X142498613Y-109262804D01*
X142498613Y-109634770D01*
X142640958Y-109978422D01*
X142903978Y-110241442D01*
X142927863Y-110251336D01*
X142862199Y-110317000D01*
X142816017Y-110317000D01*
X142472365Y-110459345D01*
X142209345Y-110722365D01*
X142128747Y-110916947D01*
X141984000Y-110772200D01*
X141984000Y-108766290D01*
X142016655Y-108733635D01*
X142159000Y-108389983D01*
X142159000Y-108018017D01*
X142016655Y-107674365D01*
X141753635Y-107411345D01*
X141409983Y-107269000D01*
X141038017Y-107269000D01*
X140694365Y-107411345D01*
X140431345Y-107674365D01*
X140289000Y-108018017D01*
X140289000Y-108389983D01*
X140431345Y-108733635D01*
X140464000Y-108766290D01*
X140464001Y-111012150D01*
X140449112Y-111087002D01*
X140508097Y-111383539D01*
X140632479Y-111569689D01*
X140676072Y-111634931D01*
X140739527Y-111677330D01*
X140972000Y-111909804D01*
X140972001Y-112975709D01*
X140939345Y-113008365D01*
X140797000Y-113352017D01*
X140797000Y-113723983D01*
X140939345Y-114067635D01*
X141202365Y-114330655D01*
X141546017Y-114473000D01*
X141917983Y-114473000D01*
X142261635Y-114330655D01*
X142524655Y-114067635D01*
X142667000Y-113723983D01*
X142667000Y-113352017D01*
X142524655Y-113008365D01*
X142492000Y-112975710D01*
X142492000Y-112052788D01*
X142816017Y-112187000D01*
X143030710Y-112187000D01*
X142971345Y-112246365D01*
X142829000Y-112590017D01*
X142829000Y-112961983D01*
X142971345Y-113305635D01*
X143234365Y-113568655D01*
X143578017Y-113711000D01*
X143624199Y-113711000D01*
X145493200Y-115580003D01*
X145493200Y-115644088D01*
X145468660Y-115654253D01*
X145079053Y-116043860D01*
X144868200Y-116552906D01*
X144868200Y-117103894D01*
X145079053Y-117612940D01*
X145468660Y-118002547D01*
X145610261Y-118061200D01*
X141460002Y-118061200D01*
X139044440Y-115645639D01*
X139044440Y-115310500D01*
X138977078Y-114971848D01*
X138785247Y-114684753D01*
X138529069Y-114513580D01*
X138512329Y-114488527D01*
X138469929Y-114425071D01*
X138406473Y-114382671D01*
X137920000Y-113896199D01*
X137920000Y-111414017D01*
X138265000Y-111414017D01*
X138265000Y-111785983D01*
X138407345Y-112129635D01*
X138440001Y-112162291D01*
X138440000Y-113237710D01*
X138407345Y-113270365D01*
X138265000Y-113614017D01*
X138265000Y-113985983D01*
X138407345Y-114329635D01*
X138670365Y-114592655D01*
X139014017Y-114735000D01*
X139385983Y-114735000D01*
X139729635Y-114592655D01*
X139992655Y-114329635D01*
X140135000Y-113985983D01*
X140135000Y-113614017D01*
X139992655Y-113270365D01*
X139960000Y-113237710D01*
X139960000Y-112162290D01*
X139992655Y-112129635D01*
X140135000Y-111785983D01*
X140135000Y-111414017D01*
X139992655Y-111070365D01*
X139729635Y-110807345D01*
X139385983Y-110665000D01*
X139014017Y-110665000D01*
X138670365Y-110807345D01*
X138407345Y-111070365D01*
X138265000Y-111414017D01*
X137920000Y-111414017D01*
X137920000Y-110872440D01*
X138159500Y-110872440D01*
X138498152Y-110805078D01*
X138785247Y-110613247D01*
X138977078Y-110326152D01*
X139044440Y-109987500D01*
X139044440Y-109412500D01*
X138977078Y-109073848D01*
X138810803Y-108825000D01*
X138977078Y-108576152D01*
X139044440Y-108237500D01*
X139044440Y-108106180D01*
X139114017Y-108135000D01*
X139485983Y-108135000D01*
X139829635Y-107992655D01*
X140092655Y-107729635D01*
X140235000Y-107385983D01*
X140235000Y-107339801D01*
X141677859Y-105896944D01*
X141929635Y-105792655D01*
X142192655Y-105529635D01*
X142335000Y-105185983D01*
X142335000Y-104814017D01*
X142192655Y-104470365D01*
X141929635Y-104207345D01*
X141762221Y-104138000D01*
X142528714Y-104138000D01*
X142535775Y-104145061D01*
X142879427Y-104287406D01*
X143251393Y-104287406D01*
X143595045Y-104145061D01*
X143858065Y-103882041D01*
X144000410Y-103538389D01*
X144000410Y-103167572D01*
X144035501Y-103132481D01*
X144177846Y-102788829D01*
X144177846Y-102416863D01*
X144035501Y-102073211D01*
X143772481Y-101810191D01*
X143428829Y-101667846D01*
X143056863Y-101667846D01*
X142713211Y-101810191D01*
X142667402Y-101856000D01*
X136960290Y-101856000D01*
X136927635Y-101823345D01*
X136583983Y-101681000D01*
X136212017Y-101681000D01*
X135868365Y-101823345D01*
X135605345Y-102086365D01*
X135463000Y-102430017D01*
X135463000Y-102801983D01*
X135543779Y-102997000D01*
X135463000Y-103192017D01*
X135463000Y-103563983D01*
X135605345Y-103907635D01*
X135868365Y-104170655D01*
X136212017Y-104313000D01*
X136583983Y-104313000D01*
X136927635Y-104170655D01*
X136960290Y-104138000D01*
X139338398Y-104138000D01*
X138318399Y-105158000D01*
X138179490Y-105158000D01*
X138146835Y-105125345D01*
X137803183Y-104983000D01*
X137431217Y-104983000D01*
X137087565Y-105125345D01*
X136824545Y-105388365D01*
X136682200Y-105732017D01*
X136682200Y-106103983D01*
X136824545Y-106447635D01*
X137087565Y-106710655D01*
X137390346Y-106836071D01*
X137345848Y-106844922D01*
X137058753Y-107036753D01*
X136866922Y-107323848D01*
X136799560Y-107662500D01*
X136799560Y-108237500D01*
X136866922Y-108576152D01*
X137033197Y-108825000D01*
X136866922Y-109073848D01*
X136799560Y-109412500D01*
X136799560Y-109747639D01*
X136675528Y-109871671D01*
X136612072Y-109914071D01*
X136569672Y-109977527D01*
X136569671Y-109977528D01*
X136444097Y-110165463D01*
X136392934Y-110422677D01*
X136250309Y-110363600D01*
X135959750Y-110363600D01*
X135801000Y-110522350D01*
X135801000Y-111371600D01*
X135821000Y-111371600D01*
X135821000Y-111625600D01*
X135801000Y-111625600D01*
X135801000Y-112474850D01*
X135959750Y-112633600D01*
X136250309Y-112633600D01*
X136400000Y-112571596D01*
X136400000Y-113310604D01*
X136250309Y-113248600D01*
X135959750Y-113248600D01*
X135801000Y-113407350D01*
X135801000Y-114256600D01*
X135821000Y-114256600D01*
X135821000Y-114510600D01*
X135801000Y-114510600D01*
X135801000Y-115359850D01*
X135959750Y-115518600D01*
X136250309Y-115518600D01*
X136483698Y-115421927D01*
X136662327Y-115243299D01*
X136759000Y-115009910D01*
X136759000Y-114884801D01*
X136863459Y-114989260D01*
X136799560Y-115310500D01*
X136799560Y-115885500D01*
X136866922Y-116224152D01*
X137033197Y-116473000D01*
X136866922Y-116721848D01*
X136799560Y-117060500D01*
X136799560Y-117635500D01*
X136866922Y-117974152D01*
X137058753Y-118261247D01*
X137345848Y-118453078D01*
X137684500Y-118520440D01*
X138159500Y-118520440D01*
X138498152Y-118453078D01*
X138785247Y-118261247D01*
X138977078Y-117974152D01*
X139017937Y-117768739D01*
X140554298Y-119305100D01*
X139253608Y-120605791D01*
X139033456Y-120562000D01*
X138740944Y-120562000D01*
X138307782Y-120648161D01*
X137816575Y-120976375D01*
X137488361Y-121467582D01*
X137373108Y-122047000D01*
X137488361Y-122626418D01*
X137816575Y-123117625D01*
X138114961Y-123317000D01*
X137816575Y-123516375D01*
X137488361Y-124007582D01*
X137373108Y-124587000D01*
X137488361Y-125166418D01*
X137816575Y-125657625D01*
X138307782Y-125985839D01*
X138740944Y-126072000D01*
X139033456Y-126072000D01*
X139466618Y-125985839D01*
X139957825Y-125657625D01*
X140157200Y-125359239D01*
X140356575Y-125657625D01*
X140847782Y-125985839D01*
X141280944Y-126072000D01*
X141573456Y-126072000D01*
X142006618Y-125985839D01*
X142497825Y-125657625D01*
X142697200Y-125359239D01*
X142896575Y-125657625D01*
X143387782Y-125985839D01*
X143820944Y-126072000D01*
X144113456Y-126072000D01*
X144546618Y-125985839D01*
X145037825Y-125657625D01*
X145237200Y-125359239D01*
X145436575Y-125657625D01*
X145927782Y-125985839D01*
X146360944Y-126072000D01*
X146653456Y-126072000D01*
X147086618Y-125985839D01*
X147577825Y-125657625D01*
X147777200Y-125359239D01*
X147976575Y-125657625D01*
X148467782Y-125985839D01*
X148900944Y-126072000D01*
X149193456Y-126072000D01*
X149413608Y-126028209D01*
X150347400Y-126962002D01*
X150347400Y-127287583D01*
X150489745Y-127631235D01*
X150752765Y-127894255D01*
X151096417Y-128036600D01*
X151468383Y-128036600D01*
X151812035Y-127894255D01*
X152075055Y-127631235D01*
X152217400Y-127287583D01*
X152217400Y-126915617D01*
X152075055Y-126571965D01*
X151936990Y-126433900D01*
X151830329Y-126274271D01*
X151766873Y-126231871D01*
X151607002Y-126072000D01*
X151733456Y-126072000D01*
X152166618Y-125985839D01*
X152657825Y-125657625D01*
X152857200Y-125359239D01*
X153056575Y-125657625D01*
X153547782Y-125985839D01*
X153980944Y-126072000D01*
X154273456Y-126072000D01*
X154706618Y-125985839D01*
X155197825Y-125657625D01*
X155212296Y-125635967D01*
X155278873Y-125796698D01*
X155457501Y-125975327D01*
X155690890Y-126072000D01*
X156381450Y-126072000D01*
X156540200Y-125913250D01*
X156540200Y-124714000D01*
X156794200Y-124714000D01*
X156794200Y-125913250D01*
X156952950Y-126072000D01*
X157643510Y-126072000D01*
X157876899Y-125975327D01*
X158055527Y-125796698D01*
X158152200Y-125563309D01*
X158152200Y-124872750D01*
X157993450Y-124714000D01*
X156794200Y-124714000D01*
X156540200Y-124714000D01*
X156520200Y-124714000D01*
X156520200Y-124460000D01*
X156540200Y-124460000D01*
X156540200Y-122174000D01*
X156794200Y-122174000D01*
X156794200Y-124460000D01*
X157993450Y-124460000D01*
X158152200Y-124301250D01*
X158152200Y-123610691D01*
X158055527Y-123377302D01*
X157876899Y-123198673D01*
X157662992Y-123110070D01*
X157862383Y-122928358D01*
X158108686Y-122403892D01*
X157988019Y-122174000D01*
X156794200Y-122174000D01*
X156540200Y-122174000D01*
X156520200Y-122174000D01*
X156520200Y-121920000D01*
X156540200Y-121920000D01*
X156540200Y-120726845D01*
X156794200Y-120726845D01*
X156794200Y-121920000D01*
X157988019Y-121920000D01*
X158108686Y-121690108D01*
X157862383Y-121165642D01*
X157434124Y-120775355D01*
X157024090Y-120605524D01*
X156794200Y-120726845D01*
X156540200Y-120726845D01*
X156310310Y-120605524D01*
X155900276Y-120775355D01*
X155472017Y-121165642D01*
X155411043Y-121295478D01*
X155197825Y-120976375D01*
X154706618Y-120648161D01*
X154273456Y-120562000D01*
X153980944Y-120562000D01*
X153547782Y-120648161D01*
X153056575Y-120976375D01*
X152857200Y-121274761D01*
X152657825Y-120976375D01*
X152166618Y-120648161D01*
X151733456Y-120562000D01*
X151440944Y-120562000D01*
X151077200Y-120634353D01*
X151077200Y-118120002D01*
X151211000Y-117986202D01*
X151211000Y-118295983D01*
X151353345Y-118639635D01*
X151616365Y-118902655D01*
X151960017Y-119045000D01*
X152331983Y-119045000D01*
X152675635Y-118902655D01*
X152938655Y-118639635D01*
X153038656Y-118398212D01*
X154456283Y-116980585D01*
X154526001Y-116934001D01*
X154710552Y-116657801D01*
X154759000Y-116414237D01*
X154775358Y-116332000D01*
X154759000Y-116249763D01*
X154759000Y-115743405D01*
X154859000Y-115501983D01*
X154859000Y-115130017D01*
X154716655Y-114786365D01*
X154453635Y-114523345D01*
X154109983Y-114381000D01*
X153738017Y-114381000D01*
X153394365Y-114523345D01*
X153131345Y-114786365D01*
X152989000Y-115130017D01*
X152989000Y-115501983D01*
X153089000Y-115743406D01*
X153089001Y-115986132D01*
X151857788Y-117217344D01*
X151771658Y-117253021D01*
X151788400Y-117168852D01*
X151788400Y-117168848D01*
X151803288Y-117094000D01*
X151788400Y-117019152D01*
X151788400Y-112989201D01*
X152806400Y-111971202D01*
X153361671Y-112526473D01*
X153404071Y-112589929D01*
X153655463Y-112757904D01*
X153877148Y-112802000D01*
X153877152Y-112802000D01*
X153951999Y-112816888D01*
X154026846Y-112802000D01*
X155498356Y-112802000D01*
X155575197Y-112917000D01*
X155408922Y-113165848D01*
X155341560Y-113504500D01*
X155341560Y-114079500D01*
X155408922Y-114418152D01*
X155531602Y-114601755D01*
X155362737Y-114671701D01*
X155099717Y-114934721D01*
X154957372Y-115278373D01*
X154957372Y-115650339D01*
X155099717Y-115993991D01*
X155362737Y-116257011D01*
X155706389Y-116399356D01*
X156078355Y-116399356D01*
X156422007Y-116257011D01*
X156528018Y-116151000D01*
X156798595Y-116151000D01*
X157040017Y-116251000D01*
X157411983Y-116251000D01*
X157664893Y-116146241D01*
X157830891Y-116215000D01*
X157847399Y-116215000D01*
X157795482Y-116266917D01*
X157712365Y-116301345D01*
X157449345Y-116564365D01*
X157307000Y-116908017D01*
X157307000Y-117279983D01*
X157449345Y-117623635D01*
X157712365Y-117886655D01*
X158056017Y-118029000D01*
X158427983Y-118029000D01*
X158771635Y-117886655D01*
X159034655Y-117623635D01*
X159177000Y-117279983D01*
X159177000Y-117035001D01*
X159984562Y-116227440D01*
X160457200Y-116227440D01*
X160704965Y-116178157D01*
X160889990Y-116054526D01*
X160889990Y-116821142D01*
X160493788Y-117217344D01*
X160252365Y-117317345D01*
X159989345Y-117580365D01*
X159847000Y-117924017D01*
X159847000Y-118295983D01*
X159989345Y-118639635D01*
X160252365Y-118902655D01*
X160596017Y-119045000D01*
X160967983Y-119045000D01*
X161311635Y-118902655D01*
X161574655Y-118639635D01*
X161674656Y-118398212D01*
X162155600Y-117917267D01*
X162155600Y-120627011D01*
X162122945Y-120659666D01*
X161980600Y-121003318D01*
X161980600Y-121375284D01*
X162122945Y-121718936D01*
X162385965Y-121981956D01*
X162729617Y-122124301D01*
X162915000Y-122124301D01*
X162915000Y-126889686D01*
X153088114Y-126885334D01*
X153018028Y-126871393D01*
X152877970Y-126899252D01*
X152741297Y-126926375D01*
X152741162Y-126926465D01*
X152741001Y-126926497D01*
X152623220Y-127005196D01*
X152506374Y-127083195D01*
X152506283Y-127083331D01*
X152506148Y-127083421D01*
X152428271Y-127199972D01*
X152349346Y-127317978D01*
X152349314Y-127318140D01*
X152349224Y-127318274D01*
X152321828Y-127456006D01*
X152294120Y-127594982D01*
X152308029Y-127665070D01*
X152308028Y-134505302D01*
X143060028Y-134505302D01*
X143060028Y-130104139D01*
X143898057Y-130104139D01*
X143904949Y-130981574D01*
X144113509Y-131833890D01*
X144512551Y-132615366D01*
X145080668Y-133284083D01*
X145787386Y-133804169D01*
X146594794Y-134147725D01*
X147459582Y-134296323D01*
X148335360Y-134241991D01*
X149175150Y-133987644D01*
X149933903Y-133546925D01*
X150570918Y-132943476D01*
X151052024Y-132209666D01*
X151351414Y-131384860D01*
X151453028Y-130513302D01*
X151452561Y-130453794D01*
X151337270Y-129583939D01*
X151024961Y-128763937D01*
X150532388Y-128037776D01*
X149885973Y-127444407D01*
X149120391Y-127015660D01*
X148276710Y-126774535D01*
X147400186Y-126733966D01*
X146537839Y-126896129D01*
X145735927Y-127252325D01*
X145037465Y-127783447D01*
X144479922Y-128461005D01*
X144093204Y-129248653D01*
X143898057Y-130104139D01*
X143060028Y-130104139D01*
X143060028Y-127665085D01*
X143073937Y-127595016D01*
X143046450Y-127457114D01*
X143018833Y-127318274D01*
X143018752Y-127318152D01*
X143018723Y-127318009D01*
X142940190Y-127200577D01*
X142861908Y-127083421D01*
X142861787Y-127083340D01*
X142861706Y-127083219D01*
X142745152Y-127005407D01*
X142627055Y-126926497D01*
X142626910Y-126926468D01*
X142626790Y-126926388D01*
X142490051Y-126899245D01*
X142350028Y-126871393D01*
X142279960Y-126885330D01*
X134205711Y-126888531D01*
X134324636Y-126839271D01*
X134514923Y-126494528D01*
X133000000Y-124979605D01*
X131485077Y-126494528D01*
X131675364Y-126839271D01*
X131801185Y-126889484D01*
X131210000Y-126889719D01*
X131210000Y-126262226D01*
X131305472Y-126314923D01*
X132820395Y-124800000D01*
X133179605Y-124800000D01*
X134694528Y-126314923D01*
X135039271Y-126124636D01*
X135390956Y-125243409D01*
X135378641Y-124294677D01*
X135039271Y-123475364D01*
X134694528Y-123285077D01*
X133179605Y-124800000D01*
X132820395Y-124800000D01*
X131305472Y-123285077D01*
X131210000Y-123337774D01*
X131210000Y-123105472D01*
X131485077Y-123105472D01*
X133000000Y-124620395D01*
X134514923Y-123105472D01*
X134324636Y-122760729D01*
X133443409Y-122409044D01*
X132494677Y-122421359D01*
X131675364Y-122760729D01*
X131485077Y-123105472D01*
X131210000Y-123105472D01*
X131210000Y-112404256D01*
X131771317Y-112404256D01*
X131771317Y-112776222D01*
X131913662Y-113119874D01*
X131974068Y-113180280D01*
X131990413Y-113262453D01*
X132158388Y-113513846D01*
X132221847Y-113556248D01*
X132976560Y-114310962D01*
X132976560Y-114883600D01*
X133025843Y-115131365D01*
X133166191Y-115341409D01*
X133314000Y-115440173D01*
X133314001Y-117427027D01*
X133166191Y-117525791D01*
X133025843Y-117735835D01*
X132976560Y-117983600D01*
X132976560Y-118983600D01*
X133025843Y-119231365D01*
X133166191Y-119441409D01*
X133376235Y-119581757D01*
X133624000Y-119631040D01*
X134524000Y-119631040D01*
X134771765Y-119581757D01*
X134863102Y-119520727D01*
X134864302Y-119521927D01*
X135097691Y-119618600D01*
X135388250Y-119618600D01*
X135547000Y-119459850D01*
X135547000Y-118610600D01*
X135801000Y-118610600D01*
X135801000Y-119459850D01*
X135959750Y-119618600D01*
X136250309Y-119618600D01*
X136483698Y-119521927D01*
X136662327Y-119343299D01*
X136759000Y-119109910D01*
X136759000Y-118769350D01*
X136600250Y-118610600D01*
X135801000Y-118610600D01*
X135547000Y-118610600D01*
X135527000Y-118610600D01*
X135527000Y-118356600D01*
X135547000Y-118356600D01*
X135547000Y-117507350D01*
X135801000Y-117507350D01*
X135801000Y-118356600D01*
X136600250Y-118356600D01*
X136759000Y-118197850D01*
X136759000Y-117857290D01*
X136662327Y-117623901D01*
X136483698Y-117445273D01*
X136250309Y-117348600D01*
X135959750Y-117348600D01*
X135801000Y-117507350D01*
X135547000Y-117507350D01*
X135388250Y-117348600D01*
X135097691Y-117348600D01*
X134864302Y-117445273D01*
X134863102Y-117446473D01*
X134834000Y-117427027D01*
X134834000Y-116370753D01*
X135098835Y-116261055D01*
X135361855Y-115998035D01*
X135504200Y-115654383D01*
X135504200Y-115402650D01*
X135547000Y-115359850D01*
X135547000Y-114510600D01*
X135527000Y-114510600D01*
X135527000Y-114256600D01*
X135547000Y-114256600D01*
X135547000Y-113407350D01*
X135388250Y-113248600D01*
X135097691Y-113248600D01*
X134864302Y-113345273D01*
X134863102Y-113346473D01*
X134771765Y-113285443D01*
X134524000Y-113236160D01*
X134051362Y-113236160D01*
X133870275Y-113055073D01*
X133903635Y-113041255D01*
X134166655Y-112778235D01*
X134221412Y-112646040D01*
X134524000Y-112646040D01*
X134771765Y-112596757D01*
X134863102Y-112535727D01*
X134864302Y-112536927D01*
X135097691Y-112633600D01*
X135388250Y-112633600D01*
X135547000Y-112474850D01*
X135547000Y-111625600D01*
X135527000Y-111625600D01*
X135527000Y-111371600D01*
X135547000Y-111371600D01*
X135547000Y-110522350D01*
X135388250Y-110363600D01*
X135097691Y-110363600D01*
X134864302Y-110460273D01*
X134863102Y-110461473D01*
X134834000Y-110442027D01*
X134834000Y-108901246D01*
X134848888Y-108826399D01*
X134834000Y-108751552D01*
X134834000Y-108751548D01*
X134789904Y-108529863D01*
X134768250Y-108497456D01*
X134771765Y-108496757D01*
X134863102Y-108435727D01*
X134864302Y-108436927D01*
X135097691Y-108533600D01*
X135388250Y-108533600D01*
X135547000Y-108374850D01*
X135547000Y-107525600D01*
X135801000Y-107525600D01*
X135801000Y-108374850D01*
X135959750Y-108533600D01*
X136250309Y-108533600D01*
X136483698Y-108436927D01*
X136662327Y-108258299D01*
X136759000Y-108024910D01*
X136759000Y-107684350D01*
X136600250Y-107525600D01*
X135801000Y-107525600D01*
X135547000Y-107525600D01*
X135527000Y-107525600D01*
X135527000Y-107271600D01*
X135547000Y-107271600D01*
X135547000Y-106422350D01*
X135801000Y-106422350D01*
X135801000Y-107271600D01*
X136600250Y-107271600D01*
X136759000Y-107112850D01*
X136759000Y-106772290D01*
X136662327Y-106538901D01*
X136483698Y-106360273D01*
X136250309Y-106263600D01*
X135959750Y-106263600D01*
X135801000Y-106422350D01*
X135547000Y-106422350D01*
X135388250Y-106263600D01*
X135097691Y-106263600D01*
X134864302Y-106360273D01*
X134863102Y-106361473D01*
X134771765Y-106300443D01*
X134524000Y-106251160D01*
X133624000Y-106251160D01*
X133376235Y-106300443D01*
X133166191Y-106440791D01*
X133025843Y-106650835D01*
X132976560Y-106898600D01*
X132976560Y-107464895D01*
X132938896Y-107521263D01*
X132894800Y-107742948D01*
X132894800Y-107742953D01*
X132879912Y-107817800D01*
X132886880Y-107852830D01*
X132862145Y-107877565D01*
X132719800Y-108221217D01*
X132719800Y-108593183D01*
X132862145Y-108936835D01*
X133125165Y-109199855D01*
X133314001Y-109278073D01*
X133314000Y-110442027D01*
X133166191Y-110540791D01*
X133025843Y-110750835D01*
X132976560Y-110998600D01*
X132976560Y-111401188D01*
X132844365Y-111455945D01*
X132645071Y-111655239D01*
X132520334Y-111655239D01*
X132176682Y-111797584D01*
X131913662Y-112060604D01*
X131771317Y-112404256D01*
X131210000Y-112404256D01*
X131210000Y-103372239D01*
X131623847Y-103786086D01*
X132224778Y-104035000D01*
X132875222Y-104035000D01*
X133476153Y-103786086D01*
X133790000Y-103472239D01*
X133790000Y-104406710D01*
X133757345Y-104439365D01*
X133615000Y-104783017D01*
X133615000Y-105154983D01*
X133757345Y-105498635D01*
X134020365Y-105761655D01*
X134364017Y-105904000D01*
X134735983Y-105904000D01*
X135079635Y-105761655D01*
X135342655Y-105498635D01*
X135485000Y-105154983D01*
X135485000Y-104783017D01*
X135342655Y-104439365D01*
X135310000Y-104406710D01*
X135310000Y-100327326D01*
X141255800Y-100327326D01*
X141255800Y-100739074D01*
X141413369Y-101119480D01*
X141704520Y-101410631D01*
X142084926Y-101568200D01*
X142496674Y-101568200D01*
X142877080Y-101410631D01*
X142994511Y-101293200D01*
X143296799Y-101293200D01*
X143688070Y-101684472D01*
X143730471Y-101747929D01*
X143859025Y-101833826D01*
X144665000Y-102639802D01*
X144665000Y-102685983D01*
X144807345Y-103029635D01*
X145070365Y-103292655D01*
X145414017Y-103435000D01*
X145785983Y-103435000D01*
X146129635Y-103292655D01*
X146392655Y-103029635D01*
X146535000Y-102685983D01*
X146535000Y-102314017D01*
X146392655Y-101970365D01*
X146129635Y-101707345D01*
X145785983Y-101565000D01*
X145739802Y-101565000D01*
X144890331Y-100715530D01*
X144847929Y-100652071D01*
X144719377Y-100566175D01*
X144201931Y-100048730D01*
X144159529Y-99985271D01*
X143908137Y-99817296D01*
X143686452Y-99773200D01*
X143686447Y-99773200D01*
X143611600Y-99758312D01*
X143536753Y-99773200D01*
X142994511Y-99773200D01*
X142877080Y-99655769D01*
X142496674Y-99498200D01*
X142084926Y-99498200D01*
X141704520Y-99655769D01*
X141413369Y-99946920D01*
X141255800Y-100327326D01*
X135310000Y-100327326D01*
X135310000Y-99826846D01*
X135324888Y-99751999D01*
X135310000Y-99677152D01*
X135310000Y-99677148D01*
X135301000Y-99631902D01*
X135301000Y-99382017D01*
X135158655Y-99038365D01*
X134895635Y-98775345D01*
X134551983Y-98633000D01*
X134180017Y-98633000D01*
X133836365Y-98775345D01*
X133573345Y-99038365D01*
X133431000Y-99382017D01*
X133431000Y-99753983D01*
X133573345Y-100097635D01*
X133790001Y-100314291D01*
X133790001Y-101327762D01*
X133476153Y-101013914D01*
X132875222Y-100765000D01*
X132224778Y-100765000D01*
X131623847Y-101013914D01*
X131210000Y-101427761D01*
X131210000Y-95400000D01*
X142902560Y-95400000D01*
X142902560Y-98400000D01*
X142951843Y-98647765D01*
X143092191Y-98857809D01*
X143302235Y-98998157D01*
X143550000Y-99047440D01*
X150550000Y-99047440D01*
X150797765Y-98998157D01*
X151007809Y-98857809D01*
X151148157Y-98647765D01*
X151197440Y-98400000D01*
X151197440Y-95400000D01*
X151148157Y-95152235D01*
X151007809Y-94942191D01*
X150797765Y-94801843D01*
X150550000Y-94752560D01*
X147302850Y-94752560D01*
X147249635Y-94699345D01*
X146905983Y-94557000D01*
X146534017Y-94557000D01*
X146190365Y-94699345D01*
X146137150Y-94752560D01*
X143550000Y-94752560D01*
X143302235Y-94801843D01*
X143092191Y-94942191D01*
X142951843Y-95152235D01*
X142902560Y-95400000D01*
X131210000Y-95400000D01*
X131210000Y-90970182D01*
X131308356Y-91207635D01*
X131571376Y-91470655D01*
X131915028Y-91613000D01*
X132286994Y-91613000D01*
X132630646Y-91470655D01*
X132893666Y-91207635D01*
X133036011Y-90863983D01*
X133036011Y-90817801D01*
X133465361Y-90388451D01*
X133582365Y-90505455D01*
X133926017Y-90647800D01*
X134297983Y-90647800D01*
X134467354Y-90577644D01*
X134598365Y-90708655D01*
X134881558Y-90825957D01*
X135007345Y-91129635D01*
X135040001Y-91162291D01*
X135040000Y-91775153D01*
X135025112Y-91850000D01*
X135040000Y-91924847D01*
X135040000Y-91924851D01*
X135084096Y-92146536D01*
X135252071Y-92397929D01*
X135315530Y-92440331D01*
X135859671Y-92984473D01*
X135902071Y-93047929D01*
X135965527Y-93090329D01*
X136153462Y-93215904D01*
X136174054Y-93220000D01*
X134928290Y-93220000D01*
X134895635Y-93187345D01*
X134551983Y-93045000D01*
X134180017Y-93045000D01*
X133836365Y-93187345D01*
X133573345Y-93450365D01*
X133431000Y-93794017D01*
X133431000Y-94165983D01*
X133573345Y-94509635D01*
X133836365Y-94772655D01*
X134180017Y-94915000D01*
X134551983Y-94915000D01*
X134895635Y-94772655D01*
X134928290Y-94740000D01*
X136796910Y-94740000D01*
X136951165Y-94894255D01*
X137294817Y-95036600D01*
X137666783Y-95036600D01*
X138010435Y-94894255D01*
X138273455Y-94631235D01*
X138415800Y-94287583D01*
X138415800Y-93915617D01*
X138273455Y-93571965D01*
X138010435Y-93308945D01*
X137892271Y-93260000D01*
X143037153Y-93260000D01*
X143112000Y-93274888D01*
X143186847Y-93260000D01*
X143186852Y-93260000D01*
X143408537Y-93215904D01*
X143659929Y-93047929D01*
X143702331Y-92984470D01*
X145100473Y-91586329D01*
X145163929Y-91543929D01*
X145264483Y-91393440D01*
X145366000Y-91393440D01*
X145613765Y-91344157D01*
X145823809Y-91203809D01*
X145964157Y-90993765D01*
X146013440Y-90746000D01*
X146013440Y-89746000D01*
X148118560Y-89746000D01*
X148118560Y-90746000D01*
X148167843Y-90993765D01*
X148308191Y-91203809D01*
X148518235Y-91344157D01*
X148711714Y-91382642D01*
X148729448Y-91471800D01*
X148729449Y-91471801D01*
X148914000Y-91748001D01*
X148983718Y-91794585D01*
X152835000Y-95645868D01*
X152835001Y-98266562D01*
X152818643Y-98348800D01*
X152883448Y-98674600D01*
X152991092Y-98835700D01*
X153068000Y-98950801D01*
X153137718Y-98997385D01*
X154616200Y-100475868D01*
X154616200Y-100535874D01*
X154773769Y-100916280D01*
X155064920Y-101207431D01*
X155445326Y-101365000D01*
X155563706Y-101365000D01*
X155530600Y-101444926D01*
X155530600Y-101856674D01*
X155688169Y-102237080D01*
X155979320Y-102528231D01*
X156359726Y-102685800D01*
X156771474Y-102685800D01*
X157151880Y-102528231D01*
X157443031Y-102237080D01*
X157593031Y-101874947D01*
X160025356Y-99442623D01*
X160099249Y-99393249D01*
X160164898Y-99295000D01*
X160294852Y-99100510D01*
X160307213Y-99038365D01*
X160346200Y-98842365D01*
X160346200Y-98842361D01*
X160363537Y-98755200D01*
X160346200Y-98668039D01*
X160346200Y-92058807D01*
X160496200Y-91696674D01*
X160496200Y-91284926D01*
X160338631Y-90904520D01*
X160047480Y-90613369D01*
X159667074Y-90455800D01*
X159255326Y-90455800D01*
X158874920Y-90613369D01*
X158583769Y-90904520D01*
X158426200Y-91284926D01*
X158426200Y-91696674D01*
X158576201Y-92058809D01*
X158576200Y-98388621D01*
X156686200Y-100278622D01*
X156686200Y-100124126D01*
X156528631Y-99743720D01*
X156237480Y-99452569D01*
X155857074Y-99295000D01*
X155797068Y-99295000D01*
X154505000Y-98002933D01*
X154505000Y-95382232D01*
X154521357Y-95299999D01*
X154505000Y-95217764D01*
X154505000Y-95217763D01*
X154456552Y-94974199D01*
X154272001Y-94697999D01*
X154202283Y-94651415D01*
X150736173Y-91185306D01*
X150864157Y-90993765D01*
X150913440Y-90746000D01*
X150913440Y-89746000D01*
X150864157Y-89498235D01*
X150723809Y-89288191D01*
X150513765Y-89147843D01*
X150266000Y-89098560D01*
X148766000Y-89098560D01*
X148518235Y-89147843D01*
X148308191Y-89288191D01*
X148167843Y-89498235D01*
X148118560Y-89746000D01*
X146013440Y-89746000D01*
X145964157Y-89498235D01*
X145823809Y-89288191D01*
X145613765Y-89147843D01*
X145366000Y-89098560D01*
X143866000Y-89098560D01*
X143618235Y-89147843D01*
X143408191Y-89288191D01*
X143267843Y-89498235D01*
X143218560Y-89746000D01*
X143218560Y-90746000D01*
X143267843Y-90993765D01*
X143378230Y-91158969D01*
X142797199Y-91740000D01*
X140103118Y-91740000D01*
X140198157Y-91597765D01*
X140247440Y-91350000D01*
X140247440Y-88610000D01*
X141675153Y-88610000D01*
X141750000Y-88624888D01*
X141824847Y-88610000D01*
X141824852Y-88610000D01*
X142046537Y-88565904D01*
X142297929Y-88397929D01*
X142340331Y-88334470D01*
X143039802Y-87635000D01*
X143085983Y-87635000D01*
X143231000Y-87574932D01*
X143231000Y-87672310D01*
X143327673Y-87905699D01*
X143506302Y-88084327D01*
X143739691Y-88181000D01*
X144330250Y-88181000D01*
X144489000Y-88022250D01*
X144489000Y-87173000D01*
X144743000Y-87173000D01*
X144743000Y-88022250D01*
X144901750Y-88181000D01*
X145492309Y-88181000D01*
X145725698Y-88084327D01*
X145904327Y-87905699D01*
X146001000Y-87672310D01*
X146001000Y-87331750D01*
X145842250Y-87173000D01*
X144743000Y-87173000D01*
X144489000Y-87173000D01*
X144469000Y-87173000D01*
X144469000Y-86919000D01*
X144489000Y-86919000D01*
X144489000Y-86069750D01*
X144743000Y-86069750D01*
X144743000Y-86919000D01*
X145842250Y-86919000D01*
X146001000Y-86760250D01*
X146001000Y-86546000D01*
X148118560Y-86546000D01*
X148118560Y-87546000D01*
X148167843Y-87793765D01*
X148308191Y-88003809D01*
X148518235Y-88144157D01*
X148766000Y-88193440D01*
X150266000Y-88193440D01*
X150513765Y-88144157D01*
X150723809Y-88003809D01*
X150864157Y-87793765D01*
X150913440Y-87546000D01*
X150913440Y-86546000D01*
X150864157Y-86298235D01*
X150723809Y-86088191D01*
X150513765Y-85947843D01*
X150266000Y-85898560D01*
X148766000Y-85898560D01*
X148518235Y-85947843D01*
X148308191Y-86088191D01*
X148167843Y-86298235D01*
X148118560Y-86546000D01*
X146001000Y-86546000D01*
X146001000Y-86419690D01*
X145904327Y-86186301D01*
X145725698Y-86007673D01*
X145492309Y-85911000D01*
X144901750Y-85911000D01*
X144743000Y-86069750D01*
X144489000Y-86069750D01*
X144330250Y-85911000D01*
X143739691Y-85911000D01*
X143523033Y-86000743D01*
X143429635Y-85907345D01*
X143085983Y-85765000D01*
X142714017Y-85765000D01*
X142370365Y-85907345D01*
X142107345Y-86170365D01*
X141965000Y-86514017D01*
X141965000Y-86560198D01*
X141435199Y-87090000D01*
X140247440Y-87090000D01*
X140247440Y-84350000D01*
X140198157Y-84102235D01*
X140057809Y-83892191D01*
X139847765Y-83751843D01*
X139600000Y-83702560D01*
X136933253Y-83702560D01*
X136883820Y-83583217D01*
X142524200Y-83583217D01*
X142524200Y-83955183D01*
X142666545Y-84298835D01*
X142929565Y-84561855D01*
X143273217Y-84704200D01*
X143645183Y-84704200D01*
X143988835Y-84561855D01*
X144072290Y-84478400D01*
X145436910Y-84478400D01*
X145469565Y-84511055D01*
X145813217Y-84653400D01*
X146185183Y-84653400D01*
X146528835Y-84511055D01*
X146791855Y-84248035D01*
X146934200Y-83904383D01*
X146934200Y-83532417D01*
X146791855Y-83188765D01*
X146528835Y-82925745D01*
X146185183Y-82783400D01*
X145813217Y-82783400D01*
X145469565Y-82925745D01*
X145436910Y-82958400D01*
X143945029Y-82958400D01*
X143645183Y-82834200D01*
X143273217Y-82834200D01*
X142929565Y-82976545D01*
X142666545Y-83239565D01*
X142524200Y-83583217D01*
X136883820Y-83583217D01*
X136795654Y-83370365D01*
X136532634Y-83107345D01*
X136188982Y-82965000D01*
X136063000Y-82965000D01*
X136063000Y-82872017D01*
X135920655Y-82528365D01*
X135888000Y-82495710D01*
X135888000Y-80572290D01*
X135920655Y-80539635D01*
X136063000Y-80195983D01*
X136063000Y-79824017D01*
X135920655Y-79480365D01*
X135657635Y-79217345D01*
X135313983Y-79075000D01*
X134942017Y-79075000D01*
X134598365Y-79217345D01*
X134335345Y-79480365D01*
X134193000Y-79824017D01*
X134193000Y-80195983D01*
X134335345Y-80539635D01*
X134368000Y-80572290D01*
X134368001Y-82495709D01*
X134335345Y-82528365D01*
X134193000Y-82872017D01*
X134193000Y-83140000D01*
X134049146Y-83140000D01*
X133974299Y-83125112D01*
X133899452Y-83140000D01*
X133899448Y-83140000D01*
X133677763Y-83184096D01*
X133615202Y-83225898D01*
X133523000Y-83287505D01*
X133523000Y-83126017D01*
X133380655Y-82782365D01*
X133117635Y-82519345D01*
X132773983Y-82377000D01*
X132402017Y-82377000D01*
X132058365Y-82519345D01*
X131795345Y-82782365D01*
X131653000Y-83126017D01*
X131653000Y-83194383D01*
X131572097Y-83315463D01*
X131528001Y-83537148D01*
X131528001Y-83537152D01*
X131513113Y-83611999D01*
X131528001Y-83686846D01*
X131528002Y-86487398D01*
X131296365Y-86583345D01*
X131210000Y-86669710D01*
X131210000Y-77500000D01*
X142902560Y-77500000D01*
X142902560Y-80500000D01*
X142951843Y-80747765D01*
X143092191Y-80957809D01*
X143302235Y-81098157D01*
X143550000Y-81147440D01*
X150122639Y-81147440D01*
X151590001Y-82614803D01*
X151590000Y-87787710D01*
X151557345Y-87820365D01*
X151415000Y-88164017D01*
X151415000Y-88535983D01*
X151557345Y-88879635D01*
X151820365Y-89142655D01*
X152164017Y-89285000D01*
X152535983Y-89285000D01*
X152840000Y-89159072D01*
X152840001Y-89737709D01*
X152807345Y-89770365D01*
X152665000Y-90114017D01*
X152665000Y-90485983D01*
X152807345Y-90829635D01*
X153070365Y-91092655D01*
X153414017Y-91235000D01*
X153785983Y-91235000D01*
X153902560Y-91186712D01*
X153902560Y-91400000D01*
X153951843Y-91647765D01*
X154092191Y-91857809D01*
X154302235Y-91998157D01*
X154550000Y-92047440D01*
X156265000Y-92047440D01*
X156265000Y-92285983D01*
X156407345Y-92629635D01*
X156670365Y-92892655D01*
X156840001Y-92962920D01*
X156840000Y-95537710D01*
X156807345Y-95570365D01*
X156665000Y-95914017D01*
X156665000Y-96285983D01*
X156807345Y-96629635D01*
X157070365Y-96892655D01*
X157414017Y-97035000D01*
X157785983Y-97035000D01*
X158129635Y-96892655D01*
X158392655Y-96629635D01*
X158535000Y-96285983D01*
X158535000Y-95914017D01*
X158392655Y-95570365D01*
X158360000Y-95537710D01*
X158360000Y-92574846D01*
X158374888Y-92499999D01*
X158360000Y-92425152D01*
X158360000Y-92425148D01*
X158315904Y-92203463D01*
X158147929Y-91952071D01*
X158135000Y-91943432D01*
X158135000Y-91914017D01*
X158071954Y-91761810D01*
X158148157Y-91647765D01*
X158197440Y-91400000D01*
X158197440Y-84400000D01*
X158148157Y-84152235D01*
X158007809Y-83942191D01*
X157797765Y-83801843D01*
X157550000Y-83752560D01*
X154550000Y-83752560D01*
X154302235Y-83801843D01*
X154092191Y-83942191D01*
X153951843Y-84152235D01*
X153902560Y-84400000D01*
X153902560Y-87251517D01*
X153815526Y-87309671D01*
X153815524Y-87309673D01*
X153752071Y-87352071D01*
X153709672Y-87415525D01*
X153190156Y-87935043D01*
X153142655Y-87820365D01*
X153110000Y-87787710D01*
X153110000Y-82374848D01*
X153124888Y-82300000D01*
X153110000Y-82225152D01*
X153110000Y-82225148D01*
X153065904Y-82003463D01*
X153065904Y-82003462D01*
X152940329Y-81815527D01*
X152897929Y-81752071D01*
X152834473Y-81709671D01*
X151197440Y-80072639D01*
X151197440Y-77500000D01*
X151148157Y-77252235D01*
X151007809Y-77042191D01*
X150797765Y-76901843D01*
X150550000Y-76852560D01*
X143550000Y-76852560D01*
X143302235Y-76901843D01*
X143092191Y-77042191D01*
X142951843Y-77252235D01*
X142902560Y-77500000D01*
X131210000Y-77500000D01*
X131210000Y-74372239D01*
X131623847Y-74786086D01*
X132224778Y-75035000D01*
X132875222Y-75035000D01*
X133476153Y-74786086D01*
X133936086Y-74326153D01*
X134185000Y-73725222D01*
X134185000Y-73074778D01*
X133936086Y-72473847D01*
X133476153Y-72013914D01*
X132875222Y-71765000D01*
X132224778Y-71765000D01*
X131623847Y-72013914D01*
X131210000Y-72427761D01*
X131210000Y-71188017D01*
X141357010Y-71188017D01*
X141357010Y-71559983D01*
X141499355Y-71903635D01*
X141629510Y-72033790D01*
X141559000Y-72204017D01*
X141559000Y-72575983D01*
X141701345Y-72919635D01*
X141964365Y-73182655D01*
X142308017Y-73325000D01*
X142679983Y-73325000D01*
X143023635Y-73182655D01*
X143056290Y-73150000D01*
X148027710Y-73150000D01*
X148060365Y-73182655D01*
X148404017Y-73325000D01*
X148775983Y-73325000D01*
X149119635Y-73182655D01*
X149382655Y-72919635D01*
X149525000Y-72575983D01*
X149525000Y-72204017D01*
X149391616Y-71882000D01*
X149525000Y-71559983D01*
X149525000Y-71188017D01*
X149382655Y-70844365D01*
X149119635Y-70581345D01*
X148775983Y-70439000D01*
X148404017Y-70439000D01*
X148060365Y-70581345D01*
X148027710Y-70614000D01*
X142854300Y-70614000D01*
X142821645Y-70581345D01*
X142477993Y-70439000D01*
X142106027Y-70439000D01*
X141762375Y-70581345D01*
X141499355Y-70844365D01*
X141357010Y-71188017D01*
X131210000Y-71188017D01*
X131210000Y-66651201D01*
X131703800Y-67145002D01*
X131703800Y-67191183D01*
X131846145Y-67534835D01*
X132109165Y-67797855D01*
X132452817Y-67940200D01*
X132515399Y-67940200D01*
X134065000Y-69489802D01*
X134065000Y-69535983D01*
X134207345Y-69879635D01*
X134470365Y-70142655D01*
X134814017Y-70285000D01*
X135185983Y-70285000D01*
X135529635Y-70142655D01*
X135792655Y-69879635D01*
X135935000Y-69535983D01*
X135935000Y-69164017D01*
X135792655Y-68820365D01*
X135529635Y-68557345D01*
X135185983Y-68415000D01*
X135139802Y-68415000D01*
X133573800Y-66848999D01*
X133573800Y-66819217D01*
X133431455Y-66475565D01*
X133168435Y-66212545D01*
X132824783Y-66070200D01*
X132778602Y-66070200D01*
X132286001Y-65577600D01*
X132286001Y-65338797D01*
X132376635Y-65399357D01*
X132624400Y-65448640D01*
X133874400Y-65448640D01*
X133920588Y-65439453D01*
X133973091Y-65461200D01*
X134613650Y-65461200D01*
X134772400Y-65302450D01*
X134772400Y-63703200D01*
X134365150Y-63703200D01*
X134350650Y-63688700D01*
X133376400Y-63688700D01*
X133376400Y-63703760D01*
X133122400Y-63703760D01*
X133122400Y-63688700D01*
X133102400Y-63688700D01*
X133102400Y-63463700D01*
X133122400Y-63463700D01*
X133122400Y-63448640D01*
X133376400Y-63448640D01*
X133376400Y-63463700D01*
X134350650Y-63463700D01*
X134365150Y-63449200D01*
X134772400Y-63449200D01*
X134772400Y-63429200D01*
X135026400Y-63429200D01*
X135026400Y-63449200D01*
X135046400Y-63449200D01*
X135046400Y-63703200D01*
X135026400Y-63703200D01*
X135026400Y-65302450D01*
X135185150Y-65461200D01*
X135825709Y-65461200D01*
X135878212Y-65439453D01*
X135924400Y-65448640D01*
X137174400Y-65448640D01*
X137422165Y-65399357D01*
X137632209Y-65259009D01*
X137772557Y-65048965D01*
X137821840Y-64801200D01*
X137821840Y-64461200D01*
X138317439Y-64461200D01*
X138404600Y-64478537D01*
X138491761Y-64461200D01*
X138491765Y-64461200D01*
X138749910Y-64409852D01*
X138817770Y-64364509D01*
X138880165Y-64515145D01*
X139143185Y-64778165D01*
X139486837Y-64920510D01*
X139716401Y-64920510D01*
X139716401Y-65253598D01*
X139606528Y-65363470D01*
X139543070Y-65405872D01*
X139375095Y-65657265D01*
X139330999Y-65878950D01*
X139330999Y-65878954D01*
X139316111Y-65953801D01*
X139330999Y-66028648D01*
X139331000Y-67416998D01*
X138391799Y-68356200D01*
X138345617Y-68356200D01*
X138001965Y-68498545D01*
X137738945Y-68761565D01*
X137596600Y-69105217D01*
X137596600Y-69477183D01*
X137738945Y-69820835D01*
X138001965Y-70083855D01*
X138345617Y-70226200D01*
X138717583Y-70226200D01*
X139061235Y-70083855D01*
X139324255Y-69820835D01*
X139466600Y-69477183D01*
X139466600Y-69431001D01*
X140575472Y-68322130D01*
X140638928Y-68279730D01*
X140806903Y-68028338D01*
X140850999Y-67806653D01*
X140850999Y-67806649D01*
X140865887Y-67731802D01*
X140850999Y-67656955D01*
X140850999Y-66268603D01*
X140960872Y-66158729D01*
X141024329Y-66116329D01*
X141192304Y-65864937D01*
X141236400Y-65643252D01*
X141236400Y-65643248D01*
X141251288Y-65568401D01*
X141236400Y-65493554D01*
X141236400Y-63940000D01*
X145930805Y-63940000D01*
X146026656Y-64421873D01*
X146299615Y-64830385D01*
X146708127Y-65103344D01*
X147068364Y-65175000D01*
X147311636Y-65175000D01*
X147671873Y-65103344D01*
X148080385Y-64830385D01*
X148353344Y-64421873D01*
X148449195Y-63940000D01*
X148353344Y-63458127D01*
X148080385Y-63049615D01*
X147671873Y-62776656D01*
X147311636Y-62705000D01*
X147068364Y-62705000D01*
X146708127Y-62776656D01*
X146299615Y-63049615D01*
X146026656Y-63458127D01*
X145930805Y-63940000D01*
X141236400Y-63940000D01*
X141236400Y-63212330D01*
X141374557Y-63005565D01*
X141423840Y-62757800D01*
X141423840Y-62235800D01*
X141396733Y-62099520D01*
X141411400Y-62064110D01*
X141411400Y-61962550D01*
X141252650Y-61803800D01*
X141251454Y-61803800D01*
X141234209Y-61777991D01*
X141024165Y-61637643D01*
X140776400Y-61588360D01*
X140368874Y-61588360D01*
X140386773Y-61529800D01*
X140499792Y-61529800D01*
X140528065Y-61558073D01*
X140556338Y-61529800D01*
X140603400Y-61529800D01*
X140603400Y-61549800D01*
X141252650Y-61549800D01*
X141402450Y-61400000D01*
X143190805Y-61400000D01*
X143286656Y-61881873D01*
X143559615Y-62290385D01*
X143968127Y-62563344D01*
X144328364Y-62635000D01*
X144971636Y-62635000D01*
X145331873Y-62563344D01*
X145740385Y-62290385D01*
X146013344Y-61881873D01*
X146046018Y-61717609D01*
X148536538Y-61717609D01*
X148661503Y-62019327D01*
X148979844Y-62381080D01*
X149412389Y-62593472D01*
X149603000Y-62469714D01*
X149603000Y-61527000D01*
X149857000Y-61527000D01*
X149857000Y-62469714D01*
X150047611Y-62593472D01*
X150480156Y-62381080D01*
X150798497Y-62019327D01*
X150923462Y-61717609D01*
X150798731Y-61527000D01*
X149857000Y-61527000D01*
X149603000Y-61527000D01*
X148661269Y-61527000D01*
X148536538Y-61717609D01*
X146046018Y-61717609D01*
X146109195Y-61400000D01*
X146046019Y-61082391D01*
X148536538Y-61082391D01*
X148661269Y-61273000D01*
X149603000Y-61273000D01*
X149603000Y-60330286D01*
X149857000Y-60330286D01*
X149857000Y-61273000D01*
X150798731Y-61273000D01*
X150923462Y-61082391D01*
X150798497Y-60780673D01*
X150480156Y-60418920D01*
X150047611Y-60206528D01*
X149857000Y-60330286D01*
X149603000Y-60330286D01*
X149412389Y-60206528D01*
X148979844Y-60418920D01*
X148661503Y-60780673D01*
X148536538Y-61082391D01*
X146046019Y-61082391D01*
X146013344Y-60918127D01*
X145740385Y-60509615D01*
X145331873Y-60236656D01*
X144971636Y-60165000D01*
X144328364Y-60165000D01*
X143968127Y-60236656D01*
X143559615Y-60509615D01*
X143286656Y-60918127D01*
X143190805Y-61400000D01*
X141402450Y-61400000D01*
X141411400Y-61391050D01*
X141411400Y-61289490D01*
X141314727Y-61056101D01*
X141136098Y-60877473D01*
X140975971Y-60811146D01*
X141035306Y-60646444D01*
X141008308Y-60071425D01*
X140840200Y-59665576D01*
X140592836Y-59589969D01*
X139756005Y-60426800D01*
X139770148Y-60440943D01*
X139590543Y-60620548D01*
X139576400Y-60606405D01*
X139562258Y-60620548D01*
X139382653Y-60440943D01*
X139396795Y-60426800D01*
X139382653Y-60412658D01*
X139562258Y-60233053D01*
X139576400Y-60247195D01*
X140413231Y-59410364D01*
X140337624Y-59163000D01*
X139796044Y-58967894D01*
X139221025Y-58994892D01*
X138815176Y-59163000D01*
X138739570Y-59410362D01*
X138682000Y-59352792D01*
X138682000Y-59293601D01*
X139015851Y-58959750D01*
X155251200Y-58959750D01*
X155251200Y-59700310D01*
X155347873Y-59933699D01*
X155526502Y-60112327D01*
X155759891Y-60209000D01*
X156000450Y-60209000D01*
X156159200Y-60050250D01*
X156159200Y-58801000D01*
X155409950Y-58801000D01*
X155251200Y-58959750D01*
X139015851Y-58959750D01*
X139587402Y-58388200D01*
X139753474Y-58388200D01*
X140133880Y-58230631D01*
X140425031Y-57939480D01*
X140582600Y-57559074D01*
X140582600Y-57147326D01*
X140527382Y-57014017D01*
X144265000Y-57014017D01*
X144265000Y-57385983D01*
X144407345Y-57729635D01*
X144670365Y-57992655D01*
X145014017Y-58135000D01*
X145385983Y-58135000D01*
X145729635Y-57992655D01*
X145992655Y-57729635D01*
X146042655Y-57608923D01*
X146166579Y-57485000D01*
X155318588Y-57485000D01*
X155251200Y-57647690D01*
X155251200Y-58388250D01*
X155409950Y-58547000D01*
X156159200Y-58547000D01*
X156159200Y-58527000D01*
X156413200Y-58527000D01*
X156413200Y-58547000D01*
X156433200Y-58547000D01*
X156433200Y-58801000D01*
X156413200Y-58801000D01*
X156413200Y-60050250D01*
X156571950Y-60209000D01*
X156679777Y-60209000D01*
X156722548Y-60424024D01*
X156918151Y-60716764D01*
X156992047Y-60766140D01*
X158765793Y-62539886D01*
X158363093Y-62706690D01*
X158193875Y-62875908D01*
X158190757Y-62860235D01*
X158050409Y-62650191D01*
X157840365Y-62509843D01*
X157592600Y-62460560D01*
X155792600Y-62460560D01*
X155544835Y-62509843D01*
X155334791Y-62650191D01*
X155194443Y-62860235D01*
X155145160Y-63108000D01*
X155145160Y-64908000D01*
X155194443Y-65155765D01*
X155334791Y-65365809D01*
X155544835Y-65506157D01*
X155792600Y-65555440D01*
X157592600Y-65555440D01*
X157840365Y-65506157D01*
X158050409Y-65365809D01*
X158190757Y-65155765D01*
X158193875Y-65140092D01*
X158363093Y-65309310D01*
X158927270Y-65543000D01*
X159537930Y-65543000D01*
X160102107Y-65309310D01*
X160490656Y-64920761D01*
X160663126Y-64992200D01*
X161074874Y-64992200D01*
X161455280Y-64834631D01*
X161746431Y-64543480D01*
X161904000Y-64163074D01*
X161904000Y-63751326D01*
X161766025Y-63418223D01*
X161771337Y-63391515D01*
X161754000Y-63304354D01*
X161754000Y-63304350D01*
X161702652Y-63046205D01*
X161668747Y-62995463D01*
X161556424Y-62827360D01*
X161556423Y-62827359D01*
X161507049Y-62753466D01*
X161433156Y-62704092D01*
X159494187Y-60765124D01*
X159729031Y-60530280D01*
X159886600Y-60149874D01*
X159886600Y-60132850D01*
X159969200Y-60050250D01*
X159969200Y-58801000D01*
X160223200Y-58801000D01*
X160223200Y-60050250D01*
X160381950Y-60209000D01*
X160622509Y-60209000D01*
X160855898Y-60112327D01*
X161034527Y-59933699D01*
X161131200Y-59700310D01*
X161131200Y-58959750D01*
X160972450Y-58801000D01*
X160223200Y-58801000D01*
X159969200Y-58801000D01*
X159949200Y-58801000D01*
X159949200Y-58547000D01*
X159969200Y-58547000D01*
X159969200Y-57297750D01*
X160223200Y-57297750D01*
X160223200Y-58547000D01*
X160972450Y-58547000D01*
X161131200Y-58388250D01*
X161131200Y-57647690D01*
X161034527Y-57414301D01*
X160855898Y-57235673D01*
X160622509Y-57139000D01*
X160381950Y-57139000D01*
X160223200Y-57297750D01*
X159969200Y-57297750D01*
X159810450Y-57139000D01*
X159569891Y-57139000D01*
X159476636Y-57177628D01*
X159473965Y-57175843D01*
X159226200Y-57126560D01*
X158429211Y-57126560D01*
X158389852Y-56928690D01*
X158194249Y-56635951D01*
X158120356Y-56586577D01*
X157569625Y-56035847D01*
X157520249Y-55961951D01*
X157227510Y-55766348D01*
X156969365Y-55715000D01*
X156969361Y-55715000D01*
X156882200Y-55697663D01*
X156795039Y-55715000D01*
X145887159Y-55715000D01*
X145799999Y-55697663D01*
X145712839Y-55715000D01*
X145712835Y-55715000D01*
X145454690Y-55766348D01*
X145454688Y-55766349D01*
X145454689Y-55766349D01*
X145235845Y-55912576D01*
X145235844Y-55912577D01*
X145161951Y-55961951D01*
X145112577Y-56035844D01*
X144791077Y-56357345D01*
X144670365Y-56407345D01*
X144407345Y-56670365D01*
X144265000Y-57014017D01*
X140527382Y-57014017D01*
X140425031Y-56766920D01*
X140133880Y-56475769D01*
X139753474Y-56318200D01*
X139341726Y-56318200D01*
X138961320Y-56475769D01*
X138670169Y-56766920D01*
X138512600Y-57147326D01*
X138512600Y-57313398D01*
X137437530Y-58388469D01*
X137374071Y-58430871D01*
X137206096Y-58682264D01*
X137162000Y-58903949D01*
X137162000Y-58903953D01*
X137147112Y-58978800D01*
X137162000Y-59053647D01*
X137162001Y-60886548D01*
X137147112Y-60961400D01*
X137206097Y-61257937D01*
X137301021Y-61400000D01*
X137374072Y-61509329D01*
X137437527Y-61551728D01*
X137728960Y-61843162D01*
X137728960Y-61937800D01*
X137757392Y-62080739D01*
X137632209Y-61893391D01*
X137422165Y-61753043D01*
X137174400Y-61703760D01*
X136751762Y-61703760D01*
X136367800Y-61319799D01*
X136367800Y-61273617D01*
X136226502Y-60932492D01*
X136330957Y-60776165D01*
X136380240Y-60528400D01*
X136380240Y-60078400D01*
X136330957Y-59830635D01*
X136268645Y-59737379D01*
X136305240Y-59553400D01*
X136305240Y-59464653D01*
X136330957Y-59426165D01*
X136380240Y-59178400D01*
X136380240Y-58728400D01*
X136330957Y-58480635D01*
X136267800Y-58386115D01*
X136267800Y-58156690D01*
X136440055Y-57984435D01*
X136582400Y-57640783D01*
X136582400Y-57268817D01*
X136440055Y-56925165D01*
X136177035Y-56662145D01*
X135833383Y-56519800D01*
X135461417Y-56519800D01*
X135117765Y-56662145D01*
X134854745Y-56925165D01*
X134738795Y-57205095D01*
X134646248Y-57343600D01*
X134581443Y-57669400D01*
X134597801Y-57751638D01*
X134597801Y-58093400D01*
X134518550Y-58093400D01*
X134359800Y-58252150D01*
X134359800Y-58840900D01*
X134379800Y-58840900D01*
X134379800Y-59065900D01*
X134359800Y-59065900D01*
X134359800Y-59100400D01*
X134105800Y-59100400D01*
X134105800Y-59065900D01*
X133456550Y-59065900D01*
X133297800Y-59224650D01*
X133297800Y-59304709D01*
X133394473Y-59538098D01*
X133476175Y-59619800D01*
X133474991Y-59620591D01*
X133334643Y-59830635D01*
X133285360Y-60078400D01*
X133285360Y-60528400D01*
X133334643Y-60776165D01*
X133472801Y-60982931D01*
X133472801Y-61277998D01*
X133047039Y-61703760D01*
X132624400Y-61703760D01*
X132376635Y-61753043D01*
X132290037Y-61810907D01*
X132241800Y-61801312D01*
X132166952Y-61816200D01*
X132166948Y-61816200D01*
X131997276Y-61849950D01*
X131945262Y-61860296D01*
X131812701Y-61948871D01*
X131693871Y-62028271D01*
X131651471Y-62091727D01*
X131210000Y-62533199D01*
X131210000Y-58602091D01*
X133297800Y-58602091D01*
X133297800Y-58682150D01*
X133456550Y-58840900D01*
X134105800Y-58840900D01*
X134105800Y-58252150D01*
X133947050Y-58093400D01*
X133806490Y-58093400D01*
X133573101Y-58190073D01*
X133394473Y-58368702D01*
X133297800Y-58602091D01*
X131210000Y-58602091D01*
X131210000Y-53494528D01*
X159485077Y-53494528D01*
X159675364Y-53839271D01*
X160556591Y-54190956D01*
X161505323Y-54178641D01*
X162324636Y-53839271D01*
X162514923Y-53494528D01*
X161000000Y-51979605D01*
X159485077Y-53494528D01*
X131210000Y-53494528D01*
X131210000Y-51356591D01*
X158609044Y-51356591D01*
X158621359Y-52305323D01*
X158960729Y-53124636D01*
X159305472Y-53314923D01*
X160820395Y-51800000D01*
X159305472Y-50285077D01*
X158960729Y-50475364D01*
X158609044Y-51356591D01*
X131210000Y-51356591D01*
X131210000Y-49935663D01*
X142533769Y-49946236D01*
X142604028Y-49960211D01*
X142743135Y-49932541D01*
X142880431Y-49905365D01*
X142880717Y-49905174D01*
X142881056Y-49905107D01*
X142998922Y-49826352D01*
X143115430Y-49748660D01*
X143115620Y-49748376D01*
X143115909Y-49748183D01*
X143194827Y-49630074D01*
X143272573Y-49513954D01*
X143272640Y-49513619D01*
X143272833Y-49513330D01*
X143300533Y-49374071D01*
X143327936Y-49236977D01*
X143314028Y-49166714D01*
X143314028Y-43723302D01*
X147183982Y-43723302D01*
X146557404Y-43841129D01*
G04 #@! TD*
M02*
