G04 #@! TF.FileFunction,Copper,L1,Top,Signal*
%FSLAX46Y46*%
G04 Gerber Fmt 4.6, Leading zero omitted, Abs format (unit mm)*
G04 Created by KiCad (PCBNEW 201610091317+7290~55~ubuntu16.04.1-) date Tue Oct 25 10:25:20 2016*
%MOMM*%
%LPD*%
G01*
G04 APERTURE LIST*
%ADD10C,0.100000*%
%ADD11R,1.500000X1.000000*%
%ADD12R,1.200000X0.900000*%
%ADD13C,7.000000*%
%ADD14R,0.800100X0.800100*%
%ADD15R,0.750000X0.800000*%
%ADD16R,0.650000X1.060000*%
%ADD17C,2.000000*%
%ADD18R,2.000000X2.000000*%
%ADD19R,0.750000X1.200000*%
%ADD20R,0.900000X1.200000*%
%ADD21R,0.797560X0.797560*%
%ADD22O,2.032000X1.727200*%
%ADD23R,2.032000X1.727200*%
%ADD24C,1.524000*%
%ADD25R,1.727200X2.032000*%
%ADD26O,1.727200X2.032000*%
%ADD27O,2.000000X2.600000*%
%ADD28R,2.000000X2.600000*%
%ADD29R,0.900000X1.000000*%
%ADD30C,0.900000*%
%ADD31C,0.600000*%
%ADD32C,0.600000*%
%ADD33C,0.400000*%
G04 APERTURE END LIST*
D10*
D11*
X124841000Y-103934000D03*
X124841000Y-102434000D03*
X124841000Y-100934000D03*
X124841000Y-105434000D03*
X124841000Y-106934000D03*
X124841000Y-108434000D03*
X124841000Y-112934000D03*
X124841000Y-111434000D03*
X124841000Y-109934000D03*
X142841000Y-109934000D03*
X142841000Y-111434000D03*
X142841000Y-112934000D03*
X142841000Y-108434000D03*
X142841000Y-106934000D03*
X142841000Y-105434000D03*
X142841000Y-100934000D03*
X142841000Y-102434000D03*
X142841000Y-103934000D03*
D12*
X132588000Y-116776500D03*
X134788000Y-116776500D03*
D13*
X134239000Y-49022000D03*
X134239000Y-132080000D03*
D14*
X121219000Y-65184020D03*
X122169000Y-67183000D03*
X120269000Y-67183000D03*
D15*
X120904000Y-118261000D03*
X120904000Y-119761000D03*
D12*
X132588000Y-118999000D03*
X134788000Y-118999000D03*
D16*
X132654000Y-122852000D03*
X134554000Y-122852000D03*
X134554000Y-125052000D03*
X133604000Y-125052000D03*
X132654000Y-125052000D03*
D17*
X121158000Y-60071000D03*
D18*
X121158000Y-62611000D03*
D12*
X122301000Y-69215000D03*
X120101000Y-69215000D03*
D19*
X137414000Y-61915000D03*
X137414000Y-63815000D03*
X139573000Y-61976000D03*
X139573000Y-63876000D03*
D20*
X127508000Y-72304000D03*
X127508000Y-70104000D03*
D12*
X133822800Y-65862200D03*
X131622800Y-65862200D03*
X131622800Y-67792600D03*
X133822800Y-67792600D03*
D20*
X141986000Y-61976000D03*
X141986000Y-64176000D03*
X135763000Y-72237600D03*
X135763000Y-70037600D03*
D16*
X131561800Y-70147000D03*
X133461800Y-70147000D03*
X133461800Y-72347000D03*
X132511800Y-72347000D03*
X131561800Y-72347000D03*
D21*
X115849400Y-83883500D03*
X117348000Y-83883500D03*
D14*
X124680980Y-75758000D03*
X122682000Y-76708000D03*
X122682000Y-74808000D03*
D20*
X124714000Y-78740000D03*
X124714000Y-80940000D03*
D15*
X127254000Y-123595000D03*
X127254000Y-125095000D03*
D20*
X124968000Y-125136000D03*
X124968000Y-122936000D03*
D15*
X119253000Y-118261000D03*
X119253000Y-119761000D03*
X120269000Y-77089000D03*
X120269000Y-78589000D03*
D12*
X118067000Y-81153000D03*
X115867000Y-81153000D03*
X117495500Y-85852000D03*
X115295500Y-85852000D03*
D20*
X120396000Y-74828400D03*
X120396000Y-72628400D03*
D14*
X117695980Y-72705000D03*
X115697000Y-73655000D03*
X115697000Y-71755000D03*
D22*
X115316000Y-99441000D03*
X115316000Y-101981000D03*
X115316000Y-104521000D03*
X115316000Y-107061000D03*
X115316000Y-109601000D03*
X115316000Y-112141000D03*
X115316000Y-114681000D03*
X115316000Y-117221000D03*
X115316000Y-119761000D03*
D23*
X115316000Y-122301000D03*
D22*
X152908000Y-123317000D03*
X152908000Y-120777000D03*
X152908000Y-118237000D03*
X152908000Y-115697000D03*
X152908000Y-113157000D03*
X152908000Y-110617000D03*
X152908000Y-108077000D03*
X152908000Y-105537000D03*
X152908000Y-102997000D03*
D23*
X152908000Y-100457000D03*
D20*
X154178000Y-69637000D03*
X154178000Y-67437000D03*
X125349000Y-70190000D03*
X125349000Y-72390000D03*
D24*
X154051000Y-64516000D03*
X154051000Y-61976000D03*
X154051000Y-59436000D03*
D25*
X136652000Y-87122000D03*
D26*
X134112000Y-87122000D03*
X131572000Y-87122000D03*
X130429000Y-54991000D03*
X132969000Y-54991000D03*
X135509000Y-54991000D03*
D25*
X138049000Y-54991000D03*
D27*
X147510500Y-126809500D03*
X144970500Y-126809500D03*
D28*
X142430500Y-126809500D03*
D29*
X116052500Y-64561500D03*
X114452500Y-64561500D03*
X116052500Y-68661500D03*
X114452500Y-68661500D03*
D30*
X133604000Y-126301500D03*
X139382500Y-119634000D03*
X123507500Y-123126500D03*
X132620215Y-73471990D03*
X135445500Y-65976500D03*
X150177500Y-99187000D03*
X150368000Y-97663000D03*
X150368000Y-96583500D03*
X150685500Y-108585000D03*
X122047000Y-78232000D03*
X123380500Y-67056000D03*
X116014500Y-66611500D03*
D31*
X136334500Y-62166500D03*
D30*
X141287500Y-77216000D03*
X137096500Y-108267500D03*
X125666500Y-99568000D03*
X118872000Y-84836000D03*
X123444000Y-72453500D03*
X136334500Y-119062500D03*
X130111500Y-69024500D03*
D31*
X138430000Y-60579000D03*
X125222000Y-68834000D03*
X126428500Y-109982000D03*
X132461000Y-115252500D03*
X134302500Y-111569500D03*
X126746000Y-108458000D03*
X126682500Y-88455500D03*
X117856000Y-70929500D03*
X139954000Y-100457000D03*
X135636000Y-98869500D03*
X119697500Y-82931000D03*
X141160500Y-107124500D03*
X134239000Y-105664000D03*
D32*
X133604000Y-125052000D02*
X133604000Y-126301500D01*
X134788000Y-116776500D02*
X136525000Y-116776500D01*
X136525000Y-116776500D02*
X139382500Y-119634000D01*
X124968000Y-122936000D02*
X123698000Y-122936000D01*
X123698000Y-122936000D02*
X123507500Y-123126500D01*
X132511800Y-72347000D02*
X132511800Y-73363575D01*
X132511800Y-73363575D02*
X132620215Y-73471990D01*
X137414000Y-63815000D02*
X137414000Y-64008000D01*
X137414000Y-64008000D02*
X135445500Y-65976500D01*
X133822800Y-65862200D02*
X135331200Y-65862200D01*
X135331200Y-65862200D02*
X135445500Y-65976500D01*
X127254000Y-123595000D02*
X125627000Y-123595000D01*
X125627000Y-123595000D02*
X124968000Y-122936000D01*
X148463000Y-100901500D02*
X150177500Y-99187000D01*
X150368000Y-97663000D02*
X150368000Y-98996500D01*
X150368000Y-98996500D02*
X150177500Y-99187000D01*
X150368000Y-96583500D02*
X150368000Y-97663000D01*
X144223500Y-100901500D02*
X148463000Y-100901500D01*
X142841000Y-100934000D02*
X144191000Y-100934000D01*
X144191000Y-100934000D02*
X144223500Y-100901500D01*
X142841000Y-108434000D02*
X150534500Y-108434000D01*
X150534500Y-108434000D02*
X150685500Y-108585000D01*
X120269000Y-78589000D02*
X121690000Y-78589000D01*
X121690000Y-78589000D02*
X122047000Y-78232000D01*
X122682000Y-76708000D02*
X122682000Y-77597000D01*
X122682000Y-77597000D02*
X122047000Y-78232000D01*
X122169000Y-67183000D02*
X123253500Y-67183000D01*
X123253500Y-67183000D02*
X123380500Y-67056000D01*
X116027000Y-64516000D02*
X116027000Y-66599000D01*
X116027000Y-66599000D02*
X116014500Y-66611500D01*
X116027000Y-68616000D02*
X116027000Y-66624000D01*
X116027000Y-66624000D02*
X116014500Y-66611500D01*
X120904000Y-118261000D02*
X120904000Y-116621000D01*
X120904000Y-116621000D02*
X124591000Y-112934000D01*
X124591000Y-112934000D02*
X124841000Y-112934000D01*
X119253000Y-118261000D02*
X120904000Y-118261000D01*
X115316000Y-119761000D02*
X116816000Y-118261000D01*
X116816000Y-118261000D02*
X119253000Y-118261000D01*
D33*
X136334500Y-62166500D02*
X137162500Y-62166500D01*
X137162500Y-62166500D02*
X137414000Y-61915000D01*
X120396000Y-74828400D02*
X120396000Y-76962000D01*
X120396000Y-76962000D02*
X120269000Y-77089000D01*
X120396000Y-74828400D02*
X122661600Y-74828400D01*
X122661600Y-74828400D02*
X122682000Y-74808000D01*
D32*
X138329000Y-129032000D02*
X145588000Y-129032000D01*
X145588000Y-129032000D02*
X147510500Y-127109500D01*
X147510500Y-127109500D02*
X147510500Y-126809500D01*
X134554000Y-125257000D02*
X138329000Y-129032000D01*
X147510500Y-126809500D02*
X147510500Y-124909500D01*
X135953500Y-113352500D02*
X147510500Y-124909500D01*
X131572000Y-87122000D02*
X131572000Y-98171000D01*
X131572000Y-98171000D02*
X135953500Y-102552500D01*
X135953500Y-102552500D02*
X135953500Y-113352500D01*
X147510500Y-124909500D02*
X151643000Y-120777000D01*
X151643000Y-120777000D02*
X152908000Y-120777000D01*
X132654000Y-125052000D02*
X132654000Y-125257000D01*
X132654000Y-125257000D02*
X131762500Y-126148500D01*
X132397500Y-127508000D02*
X134556500Y-127508000D01*
X134554000Y-125257000D02*
X134554000Y-125052000D01*
X131762500Y-126148500D02*
X131762500Y-126873000D01*
X131762500Y-126873000D02*
X132397500Y-127508000D01*
X135479000Y-126585500D02*
X135479000Y-126182000D01*
X134556500Y-127508000D02*
X135479000Y-126585500D01*
X135479000Y-126182000D02*
X134554000Y-125257000D01*
X152085584Y-120777000D02*
X152908000Y-120777000D01*
X147614781Y-125847803D02*
X147614781Y-125547803D01*
X127254000Y-125095000D02*
X132611000Y-125095000D01*
X132611000Y-125095000D02*
X132654000Y-125052000D01*
X154051000Y-64516000D02*
X141351000Y-77216000D01*
X141351000Y-77216000D02*
X141287500Y-77216000D01*
X138049000Y-54991000D02*
X144526000Y-54991000D01*
X144526000Y-54991000D02*
X154051000Y-64516000D01*
X127254000Y-125095000D02*
X125009000Y-125095000D01*
X125009000Y-125095000D02*
X124968000Y-125136000D01*
X152755600Y-120777000D02*
X152908000Y-120777000D01*
X137096500Y-108267500D02*
X137546499Y-108717499D01*
X137546499Y-108717499D02*
X137546499Y-109969501D01*
X137546499Y-109969501D02*
X145813998Y-118237000D01*
X145813998Y-118237000D02*
X151292000Y-118237000D01*
X151292000Y-118237000D02*
X152908000Y-118237000D01*
X120904000Y-119761000D02*
X129768000Y-119761000D01*
X129768000Y-119761000D02*
X132654000Y-122647000D01*
X132654000Y-122647000D02*
X132654000Y-122852000D01*
X124841000Y-100934000D02*
X124841000Y-100393500D01*
X124841000Y-100393500D02*
X125666500Y-99568000D01*
X124841000Y-100934000D02*
X116809000Y-100934000D01*
X116809000Y-100934000D02*
X115316000Y-99441000D01*
X117495500Y-85852000D02*
X117856000Y-85852000D01*
X117856000Y-85852000D02*
X118872000Y-84836000D01*
X123444000Y-72453500D02*
X125285500Y-72453500D01*
X125285500Y-72453500D02*
X125349000Y-72390000D01*
X136334500Y-119062500D02*
X134851500Y-119062500D01*
X134851500Y-119062500D02*
X134788000Y-118999000D01*
X130111500Y-69024500D02*
X130439300Y-69024500D01*
X130439300Y-69024500D02*
X131561800Y-70147000D01*
X119253000Y-119761000D02*
X120904000Y-119761000D01*
X132654000Y-122852000D02*
X132654000Y-121133000D01*
X132654000Y-121133000D02*
X134788000Y-118999000D01*
X117495500Y-85852000D02*
X117495500Y-84031000D01*
X117495500Y-84031000D02*
X117348000Y-83883500D01*
X115316000Y-90678000D02*
X117495500Y-88498500D01*
X117495500Y-88498500D02*
X117495500Y-85852000D01*
X115316000Y-99441000D02*
X115316000Y-90678000D01*
X125349000Y-72390000D02*
X127422000Y-72390000D01*
X127422000Y-72390000D02*
X127508000Y-72304000D01*
X127508000Y-72304000D02*
X129404800Y-72304000D01*
X129404800Y-72304000D02*
X131561800Y-70147000D01*
D33*
X139573000Y-63876000D02*
X140086000Y-63876000D01*
X140086000Y-63876000D02*
X141986000Y-61976000D01*
X138430000Y-60579000D02*
X138430000Y-60833000D01*
X138430000Y-60833000D02*
X139573000Y-61976000D01*
X115867000Y-81153000D02*
X115867000Y-83865900D01*
X115867000Y-83865900D02*
X115849400Y-83883500D01*
X115697000Y-73655000D02*
X115697000Y-80983000D01*
X115697000Y-80983000D02*
X115867000Y-81153000D01*
X121158000Y-62611000D02*
X121158000Y-65123020D01*
X121158000Y-65123020D02*
X121219000Y-65184020D01*
X125349000Y-70190000D02*
X125349000Y-68961000D01*
X125349000Y-68961000D02*
X125222000Y-68834000D01*
X128206500Y-110299500D02*
X127072000Y-111434000D01*
X127072000Y-111434000D02*
X124841000Y-111434000D01*
X128206500Y-85432500D02*
X128206500Y-110299500D01*
X124714000Y-80940000D02*
X124714000Y-81940000D01*
X124714000Y-81940000D02*
X128206500Y-85432500D01*
X124841000Y-111434000D02*
X121103000Y-111434000D01*
X121103000Y-111434000D02*
X116732000Y-115805000D01*
X116732000Y-115805000D02*
X116732000Y-115957400D01*
X116732000Y-115957400D02*
X115468400Y-117221000D01*
X115468400Y-117221000D02*
X115316000Y-117221000D01*
X126428500Y-109982000D02*
X124889000Y-109982000D01*
X124889000Y-109982000D02*
X124841000Y-109934000D01*
X132588000Y-116776500D02*
X132588000Y-115379500D01*
X132588000Y-115379500D02*
X132461000Y-115252500D01*
X124841000Y-109934000D02*
X120063000Y-109934000D01*
X120063000Y-109934000D02*
X116732000Y-113265000D01*
X115468400Y-114681000D02*
X115316000Y-114681000D01*
X116732000Y-113265000D02*
X116732000Y-113417400D01*
X116732000Y-113417400D02*
X115468400Y-114681000D01*
X134302500Y-112832886D02*
X134302500Y-111993764D01*
X144970500Y-123500886D02*
X134302500Y-112832886D01*
X134302500Y-111993764D02*
X134302500Y-111569500D01*
X144970500Y-126809500D02*
X144970500Y-123500886D01*
X124841000Y-108434000D02*
X126722000Y-108434000D01*
X126722000Y-108434000D02*
X126746000Y-108458000D01*
X124841000Y-108434000D02*
X119023000Y-108434000D01*
X119023000Y-108434000D02*
X116732000Y-110725000D01*
X116732000Y-110725000D02*
X116732000Y-110877400D01*
X116732000Y-110877400D02*
X115468400Y-112141000D01*
X115468400Y-112141000D02*
X115316000Y-112141000D01*
X124841000Y-106934000D02*
X117983000Y-106934000D01*
X117983000Y-106934000D02*
X116732000Y-108185000D01*
X116732000Y-108185000D02*
X116732000Y-108337400D01*
X116732000Y-108337400D02*
X115468400Y-109601000D01*
X115468400Y-109601000D02*
X115316000Y-109601000D01*
X124841000Y-105434000D02*
X125991000Y-105434000D01*
X126682500Y-104742500D02*
X126682500Y-88455500D01*
X125991000Y-105434000D02*
X126682500Y-104742500D01*
X124841000Y-105434000D02*
X116943000Y-105434000D01*
X116943000Y-105434000D02*
X116732000Y-105645000D01*
X115468400Y-107061000D02*
X115316000Y-107061000D01*
X116732000Y-105645000D02*
X116732000Y-105797400D01*
X116732000Y-105797400D02*
X115468400Y-107061000D01*
X122301000Y-69215000D02*
X122151000Y-69215000D01*
X122151000Y-69215000D02*
X120436500Y-70929500D01*
X120436500Y-70929500D02*
X117856000Y-70929500D01*
X122301000Y-69215000D02*
X123301000Y-69215000D01*
X123301000Y-69215000D02*
X132969000Y-59547000D01*
X132969000Y-59547000D02*
X132969000Y-56407000D01*
X132969000Y-56407000D02*
X132969000Y-54991000D01*
X124841000Y-103934000D02*
X115903000Y-103934000D01*
X115903000Y-103934000D02*
X115316000Y-104521000D01*
X115295500Y-85852000D02*
X115295500Y-86702000D01*
X115295500Y-86702000D02*
X113799990Y-88197510D01*
X113799990Y-100617390D02*
X115163600Y-101981000D01*
X113799990Y-88197510D02*
X113799990Y-100617390D01*
X115163600Y-101981000D02*
X115316000Y-101981000D01*
X115316000Y-101981000D02*
X124388000Y-101981000D01*
X124388000Y-101981000D02*
X124841000Y-102434000D01*
X139954000Y-100457000D02*
X141931000Y-102434000D01*
X141931000Y-102434000D02*
X142841000Y-102434000D01*
X142841000Y-102434000D02*
X150931000Y-102434000D01*
X150931000Y-102434000D02*
X151492000Y-101873000D01*
X151492000Y-101873000D02*
X151492000Y-101720600D01*
X151492000Y-101720600D02*
X152755600Y-100457000D01*
X152755600Y-100457000D02*
X152908000Y-100457000D01*
X138557000Y-100800000D02*
X138557000Y-76031600D01*
X138557000Y-76031600D02*
X135763000Y-73237600D01*
X135763000Y-73237600D02*
X135763000Y-72237600D01*
X142841000Y-103934000D02*
X141691000Y-103934000D01*
X141691000Y-103934000D02*
X138557000Y-100800000D01*
X132007412Y-74422000D02*
X133728600Y-74422000D01*
X133728600Y-74422000D02*
X135763000Y-72387600D01*
X135763000Y-72387600D02*
X135763000Y-72237600D01*
X131561800Y-72347000D02*
X131561800Y-73976388D01*
X131561800Y-73976388D02*
X132007412Y-74422000D01*
X142841000Y-103934000D02*
X151971000Y-103934000D01*
X151971000Y-103934000D02*
X152908000Y-102997000D01*
X115697000Y-71755000D02*
X115697000Y-72134898D01*
X115697000Y-72134898D02*
X118067000Y-74504898D01*
X118067000Y-74504898D02*
X118067000Y-80303000D01*
X118067000Y-80303000D02*
X118067000Y-81153000D01*
X142841000Y-105434000D02*
X141691000Y-105434000D01*
X141691000Y-105434000D02*
X135636000Y-99379000D01*
X135636000Y-99379000D02*
X135636000Y-98869500D01*
X118067000Y-81153000D02*
X118067000Y-81300500D01*
X118067000Y-81300500D02*
X119697500Y-82931000D01*
X118067000Y-81153000D02*
X118217000Y-81153000D01*
X114427000Y-68616000D02*
X114427000Y-67716000D01*
X114427000Y-67716000D02*
X114427000Y-64516000D01*
X115697000Y-71755000D02*
X114427000Y-70485000D01*
X114427000Y-70485000D02*
X114427000Y-68616000D01*
X142841000Y-105434000D02*
X152805000Y-105434000D01*
X152805000Y-105434000D02*
X152908000Y-105537000D01*
X141160500Y-107124500D02*
X142650500Y-107124500D01*
X142650500Y-107124500D02*
X142841000Y-106934000D01*
X142841000Y-106934000D02*
X151765000Y-106934000D01*
X151765000Y-106934000D02*
X152908000Y-108077000D01*
X142841000Y-109934000D02*
X152225000Y-109934000D01*
X152225000Y-109934000D02*
X152908000Y-110617000D01*
X142841000Y-111434000D02*
X151185000Y-111434000D01*
X152755600Y-113157000D02*
X152908000Y-113157000D01*
X151185000Y-111434000D02*
X151492000Y-111741000D01*
X151492000Y-111893400D02*
X152755600Y-113157000D01*
X151492000Y-111741000D02*
X151492000Y-111893400D01*
X154940000Y-71399000D02*
X154940000Y-113817400D01*
X154940000Y-113817400D02*
X153060400Y-115697000D01*
X153060400Y-115697000D02*
X152908000Y-115697000D01*
X154178000Y-69637000D02*
X154178000Y-70637000D01*
X154178000Y-70637000D02*
X154940000Y-71399000D01*
X142841000Y-112934000D02*
X150145000Y-112934000D01*
X150145000Y-112934000D02*
X151492000Y-114281000D01*
X152755600Y-115697000D02*
X152908000Y-115697000D01*
X151492000Y-114281000D02*
X151492000Y-114433400D01*
X151492000Y-114433400D02*
X152755600Y-115697000D01*
X124680980Y-75758000D02*
X124680980Y-78706980D01*
X124680980Y-78706980D02*
X124714000Y-78740000D01*
X120396000Y-72628400D02*
X117772580Y-72628400D01*
X117772580Y-72628400D02*
X117695980Y-72705000D01*
X120269000Y-67183000D02*
X120269000Y-69047000D01*
X120269000Y-69047000D02*
X120101000Y-69215000D01*
X127508000Y-70104000D02*
X127508000Y-69104000D01*
X127508000Y-69104000D02*
X128819400Y-67792600D01*
X128819400Y-67792600D02*
X130622800Y-67792600D01*
X130622800Y-67792600D02*
X131622800Y-67792600D01*
X131622800Y-65862200D02*
X131622800Y-67792600D01*
X133822800Y-67792600D02*
X133672800Y-67792600D01*
X133461800Y-71417000D02*
X133461800Y-72347000D01*
X133672800Y-67792600D02*
X132736799Y-68728601D01*
X132736799Y-68728601D02*
X132736799Y-71014799D01*
X132736799Y-71014799D02*
X133038999Y-71316999D01*
X133038999Y-71316999D02*
X133361799Y-71316999D01*
X133361799Y-71316999D02*
X133461800Y-71417000D01*
X135763000Y-70037600D02*
X135763000Y-69887600D01*
X135763000Y-69887600D02*
X141474600Y-64176000D01*
X141474600Y-64176000D02*
X141986000Y-64176000D01*
X135763000Y-70037600D02*
X133571200Y-70037600D01*
X133571200Y-70037600D02*
X133461800Y-70147000D01*
X154051000Y-59436000D02*
X155313001Y-60698001D01*
X155313001Y-60698001D02*
X155313001Y-65301999D01*
X155313001Y-65301999D02*
X154178000Y-66437000D01*
X154178000Y-66437000D02*
X154178000Y-67437000D01*
X131064000Y-117625000D02*
X131064000Y-108839000D01*
X131064000Y-108839000D02*
X133588000Y-106315000D01*
X132588000Y-118999000D02*
X132438000Y-118999000D01*
X132438000Y-118999000D02*
X131064000Y-117625000D01*
X132588000Y-118999000D02*
X132738000Y-118999000D01*
X133588000Y-106315000D02*
X134239000Y-105664000D01*
M02*
