G04 #@! TF.FileFunction,Copper,L2,Bot,Signal*
%FSLAX46Y46*%
G04 Gerber Fmt 4.6, Leading zero omitted, Abs format (unit mm)*
G04 Created by KiCad (PCBNEW 201610091317+7290~55~ubuntu16.04.1-) date Tue Oct 25 10:25:20 2016*
%MOMM*%
%LPD*%
G01*
G04 APERTURE LIST*
%ADD10C,0.100000*%
%ADD11C,7.000000*%
%ADD12C,2.000000*%
%ADD13R,2.000000X2.000000*%
%ADD14C,0.600000*%
%ADD15C,0.500000*%
%ADD16R,1.100000X1.500000*%
%ADD17O,2.032000X1.727200*%
%ADD18R,2.032000X1.727200*%
%ADD19C,1.524000*%
%ADD20R,1.727200X2.032000*%
%ADD21O,1.727200X2.032000*%
%ADD22O,2.000000X2.600000*%
%ADD23R,2.000000X2.600000*%
%ADD24C,0.900000*%
%ADD25C,0.400000*%
%ADD26C,0.600000*%
%ADD27C,0.254000*%
G04 APERTURE END LIST*
D10*
D11*
X134239000Y-49022000D03*
X134239000Y-132080000D03*
D12*
X121158000Y-60071000D03*
D13*
X121158000Y-62611000D03*
D14*
X135394000Y-61468000D03*
X135444000Y-60268000D03*
X134194000Y-60268000D03*
X132944000Y-60268000D03*
X132969000Y-61468000D03*
D15*
X132944000Y-63668000D03*
X135444000Y-63668000D03*
D16*
X134340600Y-113385600D03*
X132537200Y-113385600D03*
X132537200Y-103886000D03*
X134340600Y-103886000D03*
X136144000Y-103886000D03*
D17*
X115316000Y-99441000D03*
X115316000Y-101981000D03*
X115316000Y-104521000D03*
X115316000Y-107061000D03*
X115316000Y-109601000D03*
X115316000Y-112141000D03*
X115316000Y-114681000D03*
X115316000Y-117221000D03*
X115316000Y-119761000D03*
D18*
X115316000Y-122301000D03*
D17*
X152908000Y-123317000D03*
X152908000Y-120777000D03*
X152908000Y-118237000D03*
X152908000Y-115697000D03*
X152908000Y-113157000D03*
X152908000Y-110617000D03*
X152908000Y-108077000D03*
X152908000Y-105537000D03*
X152908000Y-102997000D03*
D18*
X152908000Y-100457000D03*
D19*
X154051000Y-64516000D03*
X154051000Y-61976000D03*
X154051000Y-59436000D03*
D20*
X136652000Y-87122000D03*
D21*
X134112000Y-87122000D03*
X131572000Y-87122000D03*
X130429000Y-54991000D03*
X132969000Y-54991000D03*
X135509000Y-54991000D03*
D20*
X138049000Y-54991000D03*
D22*
X147510500Y-126809500D03*
X144970500Y-126809500D03*
D23*
X142430500Y-126809500D03*
D24*
X133604000Y-126301500D03*
X139382500Y-119634000D03*
X123507500Y-123126500D03*
X132620215Y-73471990D03*
X135445500Y-65976500D03*
X150177500Y-99187000D03*
X150368000Y-97663000D03*
X150368000Y-96583500D03*
X150685500Y-108585000D03*
X122047000Y-78232000D03*
X123380500Y-67056000D03*
X116014500Y-66611500D03*
D14*
X136334500Y-62166500D03*
D24*
X141287500Y-77216000D03*
X137096500Y-108267500D03*
X125666500Y-99568000D03*
X118872000Y-84836000D03*
X123444000Y-72453500D03*
X136334500Y-119062500D03*
X130111500Y-69024500D03*
D14*
X138430000Y-60579000D03*
X125222000Y-68834000D03*
X126428500Y-109982000D03*
X132461000Y-115252500D03*
X134302500Y-111569500D03*
X126746000Y-108458000D03*
X126682500Y-88455500D03*
X117856000Y-70929500D03*
X139954000Y-100457000D03*
X135636000Y-98869500D03*
X119697500Y-82931000D03*
X141160500Y-107124500D03*
X134239000Y-105664000D03*
D25*
X135394000Y-61468000D02*
X135636000Y-61468000D01*
X135636000Y-61468000D02*
X136334500Y-62166500D01*
D26*
X141287500Y-77216000D02*
X131572000Y-86931500D01*
X131572000Y-86931500D02*
X131572000Y-87122000D01*
X136144000Y-103886000D02*
X136144000Y-107315000D01*
X136144000Y-107315000D02*
X137096500Y-108267500D01*
X131699000Y-99568000D02*
X132537200Y-100406200D01*
X132537200Y-100406200D02*
X132537200Y-102536000D01*
X125666500Y-99568000D02*
X131699000Y-99568000D01*
X118872000Y-84836000D02*
X118872000Y-84199604D01*
X118872000Y-84199604D02*
X118684751Y-84012355D01*
X118684751Y-84012355D02*
X118684751Y-77212749D01*
X123444000Y-72453500D02*
X118684751Y-77212749D01*
X152908000Y-118237000D02*
X137160000Y-118237000D01*
X137160000Y-118237000D02*
X136334500Y-119062500D01*
X132944000Y-60268000D02*
X132519736Y-60268000D01*
X132519736Y-60268000D02*
X130111500Y-62676236D01*
X130111500Y-62676236D02*
X130111500Y-69024500D01*
X136144000Y-103886000D02*
X136143999Y-102535999D01*
X136143999Y-102535999D02*
X132537200Y-102536000D01*
X132537200Y-102536000D02*
X132537200Y-103886000D01*
D25*
X135444000Y-60268000D02*
X138119000Y-60268000D01*
X138119000Y-60268000D02*
X138430000Y-60579000D01*
X125222000Y-68834000D02*
X125222000Y-62720787D01*
X122572213Y-60071000D02*
X121158000Y-60071000D01*
X125222000Y-62720787D02*
X122572213Y-60071000D01*
X132537200Y-113385600D02*
X129832100Y-113385600D01*
X129832100Y-113385600D02*
X126428500Y-109982000D01*
X132461000Y-115252500D02*
X132461000Y-113461800D01*
X132461000Y-113461800D02*
X132537200Y-113385600D01*
X126746000Y-108458000D02*
X129857500Y-111569500D01*
X129857500Y-111569500D02*
X134302500Y-111569500D01*
X126682500Y-88455500D02*
X126982499Y-88155501D01*
X126982499Y-88155501D02*
X126982499Y-63669901D01*
X126982499Y-63669901D02*
X135509000Y-55143400D01*
X135509000Y-55143400D02*
X135509000Y-54991000D01*
X117856000Y-102133400D02*
X115468400Y-104521000D01*
X117856000Y-70929500D02*
X117856000Y-102133400D01*
X115468400Y-104521000D02*
X115316000Y-104521000D01*
X134112000Y-87122000D02*
X134112000Y-94615000D01*
X134112000Y-94615000D02*
X139954000Y-100457000D01*
X119697500Y-82931000D02*
X135636000Y-98869500D01*
X134340600Y-113385600D02*
X134340600Y-113185600D01*
X134340600Y-113185600D02*
X140401700Y-107124500D01*
X140401700Y-107124500D02*
X141160500Y-107124500D01*
X134239000Y-105664000D02*
X134239000Y-103987600D01*
X134239000Y-103987600D02*
X134340600Y-103886000D01*
D27*
G36*
X120135543Y-59146000D02*
X119991317Y-59289974D01*
X119781240Y-59795896D01*
X119780762Y-60343701D01*
X119989956Y-60849989D01*
X120133743Y-60994027D01*
X120133512Y-61231486D01*
X120010902Y-61255875D01*
X119886199Y-61339199D01*
X119802875Y-61463902D01*
X119773615Y-61611000D01*
X119773615Y-63611000D01*
X119802875Y-63758098D01*
X119886199Y-63882801D01*
X120010902Y-63966125D01*
X120130826Y-63989980D01*
X120120350Y-74749017D01*
X118433000Y-76436366D01*
X118433000Y-71305297D01*
X118532882Y-71064754D01*
X118533117Y-70795427D01*
X118430267Y-70546511D01*
X118239990Y-70355902D01*
X117991254Y-70252618D01*
X117721927Y-70252383D01*
X117473011Y-70355233D01*
X117282402Y-70545510D01*
X117179118Y-70794246D01*
X117178883Y-71063573D01*
X117279000Y-71305875D01*
X117279000Y-101894399D01*
X116489247Y-102684152D01*
X116641855Y-102455757D01*
X116736290Y-101981000D01*
X116641855Y-101506243D01*
X116372927Y-101103763D01*
X115970447Y-100834835D01*
X115495690Y-100740400D01*
X115136310Y-100740400D01*
X114661553Y-100834835D01*
X114259073Y-101103763D01*
X113990145Y-101506243D01*
X113895710Y-101981000D01*
X113990145Y-102455757D01*
X114259073Y-102858237D01*
X114661553Y-103127165D01*
X115136310Y-103221600D01*
X115495690Y-103221600D01*
X115970447Y-103127165D01*
X116198841Y-102974557D01*
X115827081Y-103346318D01*
X115495690Y-103280400D01*
X115136310Y-103280400D01*
X114661553Y-103374835D01*
X114259073Y-103643763D01*
X113990145Y-104046243D01*
X113895710Y-104521000D01*
X113990145Y-104995757D01*
X114259073Y-105398237D01*
X114661553Y-105667165D01*
X115136310Y-105761600D01*
X115495690Y-105761600D01*
X115970447Y-105667165D01*
X116372927Y-105398237D01*
X116641855Y-104995757D01*
X116736290Y-104521000D01*
X116661317Y-104144085D01*
X118263998Y-102541403D01*
X118264001Y-102541401D01*
X118389078Y-102354208D01*
X118433000Y-102133400D01*
X118433000Y-85603313D01*
X118696789Y-85712847D01*
X119045681Y-85713151D01*
X119368131Y-85579918D01*
X119615051Y-85333429D01*
X119748847Y-85011211D01*
X119749151Y-84662319D01*
X119615918Y-84339869D01*
X119599000Y-84322921D01*
X119599000Y-84199604D01*
X119543660Y-83921393D01*
X119411751Y-83723976D01*
X119411751Y-83545391D01*
X119555635Y-83605137D01*
X120111186Y-84160688D01*
X120078500Y-117728876D01*
X120088120Y-117777487D01*
X120115610Y-117818715D01*
X120156785Y-117846285D01*
X120205500Y-117856000D01*
X136512867Y-117856000D01*
X136183498Y-118185369D01*
X136160819Y-118185349D01*
X135838369Y-118318582D01*
X135591449Y-118565071D01*
X135457653Y-118887289D01*
X135457349Y-119236181D01*
X135590582Y-119558631D01*
X135837071Y-119805551D01*
X136159289Y-119939347D01*
X136508181Y-119939651D01*
X136830631Y-119806418D01*
X137077551Y-119559929D01*
X137211347Y-119237711D01*
X137211368Y-119213766D01*
X137461133Y-118964000D01*
X151690729Y-118964000D01*
X151814738Y-119149592D01*
X152233439Y-119429359D01*
X152623767Y-119507000D01*
X152233439Y-119584641D01*
X151814738Y-119864408D01*
X151534971Y-120283109D01*
X151436730Y-120777000D01*
X151534971Y-121270891D01*
X151814738Y-121689592D01*
X152205757Y-121950862D01*
X151993680Y-122025046D01*
X151557268Y-122414964D01*
X151303291Y-122942209D01*
X151300642Y-122957974D01*
X151421783Y-123190000D01*
X152781000Y-123190000D01*
X152781000Y-123170000D01*
X153035000Y-123170000D01*
X153035000Y-123190000D01*
X154394217Y-123190000D01*
X154515358Y-122957974D01*
X154512709Y-122942209D01*
X154258732Y-122414964D01*
X153822320Y-122025046D01*
X153610243Y-121950862D01*
X154001262Y-121689592D01*
X154281029Y-121270891D01*
X154379270Y-120777000D01*
X154281029Y-120283109D01*
X154001262Y-119864408D01*
X153582561Y-119584641D01*
X153192233Y-119507000D01*
X153582561Y-119429359D01*
X154001262Y-119149592D01*
X154281029Y-118730891D01*
X154379270Y-118237000D01*
X154281029Y-117743109D01*
X154001262Y-117324408D01*
X153582561Y-117044641D01*
X153088670Y-116946400D01*
X152727330Y-116946400D01*
X152233439Y-117044641D01*
X151814738Y-117324408D01*
X151690729Y-117510000D01*
X149670976Y-117510000D01*
X149683171Y-115697000D01*
X151487710Y-115697000D01*
X151582145Y-116171757D01*
X151851073Y-116574237D01*
X152253553Y-116843165D01*
X152728310Y-116937600D01*
X153087690Y-116937600D01*
X153562447Y-116843165D01*
X153964927Y-116574237D01*
X154233855Y-116171757D01*
X154328290Y-115697000D01*
X154233855Y-115222243D01*
X153964927Y-114819763D01*
X153562447Y-114550835D01*
X153087690Y-114456400D01*
X152728310Y-114456400D01*
X152253553Y-114550835D01*
X151851073Y-114819763D01*
X151582145Y-115222243D01*
X151487710Y-115697000D01*
X149683171Y-115697000D01*
X149700256Y-113157000D01*
X151487710Y-113157000D01*
X151582145Y-113631757D01*
X151851073Y-114034237D01*
X152253553Y-114303165D01*
X152728310Y-114397600D01*
X153087690Y-114397600D01*
X153562447Y-114303165D01*
X153964927Y-114034237D01*
X154233855Y-113631757D01*
X154328290Y-113157000D01*
X154233855Y-112682243D01*
X153964927Y-112279763D01*
X153562447Y-112010835D01*
X153087690Y-111916400D01*
X152728310Y-111916400D01*
X152253553Y-112010835D01*
X151851073Y-112279763D01*
X151582145Y-112682243D01*
X151487710Y-113157000D01*
X149700256Y-113157000D01*
X149717341Y-110617000D01*
X151487710Y-110617000D01*
X151582145Y-111091757D01*
X151851073Y-111494237D01*
X152253553Y-111763165D01*
X152728310Y-111857600D01*
X153087690Y-111857600D01*
X153562447Y-111763165D01*
X153964927Y-111494237D01*
X154233855Y-111091757D01*
X154328290Y-110617000D01*
X154233855Y-110142243D01*
X153964927Y-109739763D01*
X153562447Y-109470835D01*
X153087690Y-109376400D01*
X152728310Y-109376400D01*
X152253553Y-109470835D01*
X151851073Y-109739763D01*
X151582145Y-110142243D01*
X151487710Y-110617000D01*
X149717341Y-110617000D01*
X149734426Y-108077000D01*
X151487710Y-108077000D01*
X151582145Y-108551757D01*
X151851073Y-108954237D01*
X152253553Y-109223165D01*
X152728310Y-109317600D01*
X153087690Y-109317600D01*
X153562447Y-109223165D01*
X153964927Y-108954237D01*
X154233855Y-108551757D01*
X154328290Y-108077000D01*
X154233855Y-107602243D01*
X153964927Y-107199763D01*
X153562447Y-106930835D01*
X153087690Y-106836400D01*
X152728310Y-106836400D01*
X152253553Y-106930835D01*
X151851073Y-107199763D01*
X151582145Y-107602243D01*
X151487710Y-108077000D01*
X149734426Y-108077000D01*
X149751511Y-105537000D01*
X151487710Y-105537000D01*
X151582145Y-106011757D01*
X151851073Y-106414237D01*
X152253553Y-106683165D01*
X152728310Y-106777600D01*
X153087690Y-106777600D01*
X153562447Y-106683165D01*
X153964927Y-106414237D01*
X154233855Y-106011757D01*
X154328290Y-105537000D01*
X154233855Y-105062243D01*
X153964927Y-104659763D01*
X153562447Y-104390835D01*
X153087690Y-104296400D01*
X152728310Y-104296400D01*
X152253553Y-104390835D01*
X151851073Y-104659763D01*
X151582145Y-105062243D01*
X151487710Y-105537000D01*
X149751511Y-105537000D01*
X149768596Y-102997000D01*
X151487710Y-102997000D01*
X151582145Y-103471757D01*
X151851073Y-103874237D01*
X152253553Y-104143165D01*
X152728310Y-104237600D01*
X153087690Y-104237600D01*
X153562447Y-104143165D01*
X153964927Y-103874237D01*
X154233855Y-103471757D01*
X154328290Y-102997000D01*
X154233855Y-102522243D01*
X153964927Y-102119763D01*
X153562447Y-101850835D01*
X153087690Y-101756400D01*
X152728310Y-101756400D01*
X152253553Y-101850835D01*
X151851073Y-102119763D01*
X151582145Y-102522243D01*
X151487710Y-102997000D01*
X149768596Y-102997000D01*
X149791490Y-99593400D01*
X151507615Y-99593400D01*
X151507615Y-101320600D01*
X151536875Y-101467698D01*
X151620199Y-101592401D01*
X151744902Y-101675725D01*
X151892000Y-101704985D01*
X153924000Y-101704985D01*
X154071098Y-101675725D01*
X154195801Y-101592401D01*
X154279125Y-101467698D01*
X154308385Y-101320600D01*
X154308385Y-99593400D01*
X154279125Y-99446302D01*
X154195801Y-99321599D01*
X154071098Y-99238275D01*
X153924000Y-99209015D01*
X151892000Y-99209015D01*
X151744902Y-99238275D01*
X151620199Y-99321599D01*
X151536875Y-99446302D01*
X151507615Y-99593400D01*
X149791490Y-99593400D01*
X149859997Y-89408854D01*
X149850657Y-89360190D01*
X149823405Y-89318804D01*
X149782389Y-89290997D01*
X149733000Y-89281000D01*
X134689000Y-89281000D01*
X134689000Y-88379539D01*
X134989237Y-88178927D01*
X135153400Y-87933239D01*
X135153400Y-88264309D01*
X135250073Y-88497698D01*
X135428701Y-88676327D01*
X135662090Y-88773000D01*
X136366250Y-88773000D01*
X136525000Y-88614250D01*
X136525000Y-87249000D01*
X136779000Y-87249000D01*
X136779000Y-88614250D01*
X136937750Y-88773000D01*
X137641910Y-88773000D01*
X137875299Y-88676327D01*
X138053927Y-88497698D01*
X138150600Y-88264309D01*
X138150600Y-87407750D01*
X137991850Y-87249000D01*
X136779000Y-87249000D01*
X136525000Y-87249000D01*
X136505000Y-87249000D01*
X136505000Y-86995000D01*
X136525000Y-86995000D01*
X136525000Y-85629750D01*
X136779000Y-85629750D01*
X136779000Y-86995000D01*
X137991850Y-86995000D01*
X138150600Y-86836250D01*
X138150600Y-85979691D01*
X138053927Y-85746302D01*
X137875299Y-85567673D01*
X137641910Y-85471000D01*
X136937750Y-85471000D01*
X136779000Y-85629750D01*
X136525000Y-85629750D01*
X136366250Y-85471000D01*
X135662090Y-85471000D01*
X135428701Y-85567673D01*
X135250073Y-85746302D01*
X135153400Y-85979691D01*
X135153400Y-86310761D01*
X134989237Y-86065073D01*
X134586757Y-85796145D01*
X134112000Y-85701710D01*
X133759884Y-85771750D01*
X141438503Y-78093131D01*
X141461181Y-78093151D01*
X141783631Y-77959918D01*
X142030551Y-77713429D01*
X142164347Y-77391211D01*
X142164651Y-77042319D01*
X142031418Y-76719869D01*
X141784929Y-76472949D01*
X141462711Y-76339153D01*
X141113819Y-76338849D01*
X140791369Y-76472082D01*
X140544449Y-76718571D01*
X140410653Y-77040789D01*
X140410632Y-77064734D01*
X131782721Y-85692645D01*
X131572000Y-85650730D01*
X131078109Y-85748971D01*
X130659408Y-86028738D01*
X130379641Y-86447439D01*
X130281400Y-86941330D01*
X130281400Y-87302670D01*
X130379641Y-87796561D01*
X130659408Y-88215262D01*
X131078109Y-88495029D01*
X131572000Y-88593270D01*
X132065891Y-88495029D01*
X132484592Y-88215262D01*
X132764359Y-87796561D01*
X132862600Y-87302670D01*
X132862600Y-86941330D01*
X132817423Y-86714211D01*
X132941440Y-86590194D01*
X132871400Y-86942310D01*
X132871400Y-87301690D01*
X132965835Y-87776447D01*
X133234763Y-88178927D01*
X133535000Y-88379539D01*
X133535000Y-89281000D01*
X126863502Y-89281000D01*
X126715030Y-89132528D01*
X126816573Y-89132617D01*
X127065489Y-89029767D01*
X127256098Y-88839490D01*
X127356637Y-88597364D01*
X127390497Y-88563504D01*
X127390500Y-88563502D01*
X127515577Y-88376309D01*
X127526729Y-88320246D01*
X127559500Y-88155501D01*
X127559499Y-88155496D01*
X127559499Y-69198181D01*
X129234349Y-69198181D01*
X129367582Y-69520631D01*
X129614071Y-69767551D01*
X129936289Y-69901347D01*
X130285181Y-69901651D01*
X130607631Y-69768418D01*
X130854551Y-69521929D01*
X130988347Y-69199711D01*
X130988651Y-68850819D01*
X130855418Y-68528369D01*
X130838500Y-68511421D01*
X130838500Y-64751469D01*
X152861794Y-64751469D01*
X153042427Y-65188635D01*
X153376606Y-65523397D01*
X153813456Y-65704793D01*
X154286469Y-65705206D01*
X154723635Y-65524573D01*
X155058397Y-65190394D01*
X155239793Y-64753544D01*
X155240206Y-64280531D01*
X155059573Y-63843365D01*
X154725394Y-63508603D01*
X154365167Y-63359024D01*
X154398368Y-63357362D01*
X154782143Y-63198397D01*
X154851608Y-62956213D01*
X154051000Y-62155605D01*
X153250392Y-62956213D01*
X153319857Y-63198397D01*
X153752615Y-63352790D01*
X153378365Y-63507427D01*
X153043603Y-63841606D01*
X152862207Y-64278456D01*
X152861794Y-64751469D01*
X130838500Y-64751469D01*
X130838500Y-63792171D01*
X132316891Y-63792171D01*
X132412145Y-64022703D01*
X132588369Y-64199235D01*
X132818735Y-64294891D01*
X133068171Y-64295109D01*
X133117559Y-64274702D01*
X135014075Y-64274702D01*
X135019860Y-64464442D01*
X135356930Y-64566128D01*
X135707257Y-64531083D01*
X135868140Y-64464442D01*
X135873925Y-64274702D01*
X135444000Y-63844777D01*
X135014075Y-64274702D01*
X133117559Y-64274702D01*
X133298703Y-64199855D01*
X133475235Y-64023631D01*
X133570891Y-63793265D01*
X133571076Y-63580930D01*
X134545872Y-63580930D01*
X134580917Y-63931257D01*
X134647558Y-64092140D01*
X134837298Y-64097925D01*
X135267223Y-63668000D01*
X135620777Y-63668000D01*
X136050702Y-64097925D01*
X136240442Y-64092140D01*
X136342128Y-63755070D01*
X136307083Y-63404743D01*
X136240442Y-63243860D01*
X136050702Y-63238075D01*
X135620777Y-63668000D01*
X135267223Y-63668000D01*
X134837298Y-63238075D01*
X134647558Y-63243860D01*
X134545872Y-63580930D01*
X133571076Y-63580930D01*
X133571109Y-63543829D01*
X133475855Y-63313297D01*
X133299631Y-63136765D01*
X133117886Y-63061298D01*
X135014075Y-63061298D01*
X135444000Y-63491223D01*
X135873925Y-63061298D01*
X135868140Y-62871558D01*
X135531070Y-62769872D01*
X135180743Y-62804917D01*
X135019860Y-62871558D01*
X135014075Y-63061298D01*
X133117886Y-63061298D01*
X133069265Y-63041109D01*
X132819829Y-63040891D01*
X132589297Y-63136145D01*
X132412765Y-63312369D01*
X132317109Y-63542735D01*
X132316891Y-63792171D01*
X130838500Y-63792171D01*
X130838500Y-62977370D01*
X132291951Y-61523919D01*
X132291883Y-61602073D01*
X132394733Y-61850989D01*
X132585010Y-62041598D01*
X132833746Y-62144882D01*
X133103073Y-62145117D01*
X133351989Y-62042267D01*
X133542598Y-61851990D01*
X133645882Y-61603254D01*
X133646117Y-61333927D01*
X133543267Y-61085011D01*
X133352990Y-60894402D01*
X133342394Y-60890002D01*
X133355275Y-60884680D01*
X133559961Y-60680350D01*
X133596002Y-60593555D01*
X133619733Y-60650989D01*
X133810010Y-60841598D01*
X134058746Y-60944882D01*
X134328073Y-60945117D01*
X134576989Y-60842267D01*
X134767598Y-60651990D01*
X134818999Y-60528203D01*
X134869733Y-60650989D01*
X135060010Y-60841598D01*
X135098503Y-60857582D01*
X135011011Y-60893733D01*
X134820402Y-61084010D01*
X134717118Y-61332746D01*
X134716883Y-61602073D01*
X134819733Y-61850989D01*
X135010010Y-62041598D01*
X135258746Y-62144882D01*
X135497088Y-62145090D01*
X135660771Y-62308772D01*
X135760233Y-62549489D01*
X135950510Y-62740098D01*
X136199246Y-62843382D01*
X136468573Y-62843617D01*
X136717489Y-62740767D01*
X136908098Y-62550490D01*
X137011382Y-62301754D01*
X137011617Y-62032427D01*
X136908767Y-61783511D01*
X136893585Y-61768302D01*
X152641856Y-61768302D01*
X152669638Y-62323368D01*
X152828603Y-62707143D01*
X153070787Y-62776608D01*
X153871395Y-61976000D01*
X154230605Y-61976000D01*
X155031213Y-62776608D01*
X155273397Y-62707143D01*
X155460144Y-62183698D01*
X155432362Y-61628632D01*
X155273397Y-61244857D01*
X155031213Y-61175392D01*
X154230605Y-61976000D01*
X153871395Y-61976000D01*
X153070787Y-61175392D01*
X152828603Y-61244857D01*
X152641856Y-61768302D01*
X136893585Y-61768302D01*
X136718490Y-61592902D01*
X136476364Y-61492363D01*
X136044001Y-61059999D01*
X135856808Y-60934922D01*
X135808933Y-60925399D01*
X135777990Y-60894402D01*
X135739497Y-60878418D01*
X135820375Y-60845000D01*
X137807394Y-60845000D01*
X137855733Y-60961989D01*
X138046010Y-61152598D01*
X138294746Y-61255882D01*
X138564073Y-61256117D01*
X138812989Y-61153267D01*
X139003598Y-60962990D01*
X139106882Y-60714254D01*
X139107117Y-60444927D01*
X139004267Y-60196011D01*
X138813990Y-60005402D01*
X138571865Y-59904863D01*
X138527001Y-59859999D01*
X138339808Y-59734922D01*
X138119000Y-59690999D01*
X138118995Y-59691000D01*
X135819797Y-59691000D01*
X135748915Y-59661567D01*
X152911803Y-59661567D01*
X153084840Y-60080349D01*
X153404966Y-60401034D01*
X153823445Y-60574802D01*
X154095209Y-60575039D01*
X153703632Y-60594638D01*
X153319857Y-60753603D01*
X153250392Y-60995787D01*
X154051000Y-61796395D01*
X154851608Y-60995787D01*
X154782143Y-60753603D01*
X154279120Y-60574142D01*
X154695349Y-60402160D01*
X155016034Y-60082034D01*
X155189802Y-59663555D01*
X155190197Y-59210433D01*
X155017160Y-58791651D01*
X154697034Y-58470966D01*
X154278555Y-58297198D01*
X153825433Y-58296803D01*
X153406651Y-58469840D01*
X153085966Y-58789966D01*
X152912198Y-59208445D01*
X152911803Y-59661567D01*
X135748915Y-59661567D01*
X135579254Y-59591118D01*
X135309927Y-59590883D01*
X135061011Y-59693733D01*
X134870402Y-59884010D01*
X134819001Y-60007797D01*
X134768267Y-59885011D01*
X134577990Y-59694402D01*
X134329254Y-59591118D01*
X134059927Y-59590883D01*
X133811011Y-59693733D01*
X133620402Y-59884010D01*
X133596118Y-59942492D01*
X133560680Y-59856725D01*
X133356350Y-59652039D01*
X133089244Y-59541126D01*
X132800025Y-59540874D01*
X132799720Y-59541000D01*
X132519741Y-59541000D01*
X132519736Y-59540999D01*
X132287684Y-59587158D01*
X132241525Y-59596340D01*
X132094764Y-59694402D01*
X132005669Y-59753933D01*
X129597433Y-62162169D01*
X129439840Y-62398025D01*
X129439840Y-62398026D01*
X129384499Y-62676236D01*
X129384500Y-62676241D01*
X129384500Y-68511048D01*
X129368449Y-68527071D01*
X129234653Y-68849289D01*
X129234349Y-69198181D01*
X127559499Y-69198181D01*
X127559499Y-63908903D01*
X135132084Y-56336317D01*
X135509000Y-56411290D01*
X135983757Y-56316855D01*
X136386237Y-56047927D01*
X136655165Y-55645447D01*
X136749600Y-55170690D01*
X136749600Y-54811310D01*
X136655165Y-54336553D01*
X136413584Y-53975000D01*
X136750035Y-53975000D01*
X136750035Y-56007000D01*
X136783175Y-56173607D01*
X136877550Y-56314850D01*
X137018793Y-56409225D01*
X137185400Y-56442365D01*
X138912600Y-56442365D01*
X139079207Y-56409225D01*
X139220450Y-56314850D01*
X139314825Y-56173607D01*
X139347965Y-56007000D01*
X139347965Y-53975000D01*
X139314825Y-53808393D01*
X139220450Y-53667150D01*
X139079207Y-53572775D01*
X138912600Y-53539635D01*
X137185400Y-53539635D01*
X137018793Y-53572775D01*
X136877550Y-53667150D01*
X136783175Y-53808393D01*
X136750035Y-53975000D01*
X136413584Y-53975000D01*
X136386237Y-53934073D01*
X135983757Y-53665145D01*
X135509000Y-53570710D01*
X135034243Y-53665145D01*
X134631763Y-53934073D01*
X134362835Y-54336553D01*
X134268400Y-54811310D01*
X134268400Y-55170690D01*
X134334318Y-55502081D01*
X133962556Y-55873843D01*
X134115165Y-55645447D01*
X134209600Y-55170690D01*
X134209600Y-54811310D01*
X134115165Y-54336553D01*
X133846237Y-53934073D01*
X133443757Y-53665145D01*
X132969000Y-53570710D01*
X132494243Y-53665145D01*
X132091763Y-53934073D01*
X131822835Y-54336553D01*
X131818855Y-54356561D01*
X131720954Y-54076680D01*
X131331036Y-53640268D01*
X130803791Y-53386291D01*
X130788026Y-53383642D01*
X130556000Y-53504783D01*
X130556000Y-54864000D01*
X130576000Y-54864000D01*
X130576000Y-55118000D01*
X130556000Y-55118000D01*
X130556000Y-56477217D01*
X130788026Y-56598358D01*
X130803791Y-56595709D01*
X131331036Y-56341732D01*
X131720954Y-55905320D01*
X131818855Y-55625439D01*
X131822835Y-55645447D01*
X132091763Y-56047927D01*
X132494243Y-56316855D01*
X132969000Y-56411290D01*
X133443757Y-56316855D01*
X133672153Y-56164246D01*
X126574498Y-63261900D01*
X126449421Y-63449093D01*
X126405498Y-63669901D01*
X126405499Y-63669906D01*
X126405499Y-87837440D01*
X126299511Y-87881233D01*
X126108902Y-88071510D01*
X126005618Y-88320246D01*
X126005528Y-88423026D01*
X120448240Y-82865738D01*
X120437264Y-76488370D01*
X123595002Y-73330631D01*
X123617681Y-73330651D01*
X123940131Y-73197418D01*
X124187051Y-72950929D01*
X124320847Y-72628711D01*
X124321151Y-72279819D01*
X124187918Y-71957369D01*
X123941429Y-71710449D01*
X123619211Y-71576653D01*
X123270319Y-71576349D01*
X122947869Y-71709582D01*
X122700949Y-71956071D01*
X122567153Y-72278289D01*
X122567132Y-72302235D01*
X120433731Y-74435636D01*
X120415761Y-63995385D01*
X122158000Y-63995385D01*
X122305098Y-63966125D01*
X122429801Y-63882801D01*
X122513125Y-63758098D01*
X122542385Y-63611000D01*
X122542385Y-61611000D01*
X122513125Y-61463902D01*
X122429801Y-61339199D01*
X122305098Y-61255875D01*
X122158000Y-61226615D01*
X121949440Y-61226615D01*
X122324683Y-60852026D01*
X122387047Y-60701836D01*
X124645000Y-62959788D01*
X124645000Y-68458203D01*
X124545118Y-68698746D01*
X124544883Y-68968073D01*
X124647733Y-69216989D01*
X124838010Y-69407598D01*
X125086746Y-69510882D01*
X125356073Y-69511117D01*
X125604989Y-69408267D01*
X125795598Y-69217990D01*
X125898882Y-68969254D01*
X125899117Y-68699927D01*
X125799000Y-68457625D01*
X125799000Y-62720792D01*
X125799001Y-62720787D01*
X125755078Y-62499979D01*
X125679794Y-62387308D01*
X125630001Y-62312786D01*
X125629998Y-62312784D01*
X122980214Y-59662999D01*
X122793021Y-59537922D01*
X122572213Y-59493999D01*
X122572208Y-59494000D01*
X122409504Y-59494000D01*
X122326044Y-59292011D01*
X121939026Y-58904317D01*
X121433104Y-58694240D01*
X120885299Y-58693762D01*
X120406976Y-58891401D01*
X120400886Y-55352913D01*
X128943816Y-55352913D01*
X129137046Y-55905320D01*
X129526964Y-56341732D01*
X130054209Y-56595709D01*
X130069974Y-56598358D01*
X130302000Y-56477217D01*
X130302000Y-55118000D01*
X129088076Y-55118000D01*
X128943816Y-55352913D01*
X120400886Y-55352913D01*
X120399641Y-54629087D01*
X128943816Y-54629087D01*
X129088076Y-54864000D01*
X130302000Y-54864000D01*
X130302000Y-53504783D01*
X130069974Y-53383642D01*
X130054209Y-53386291D01*
X129526964Y-53640268D01*
X129137046Y-54076680D01*
X128943816Y-54629087D01*
X120399641Y-54629087D01*
X120396219Y-52641500D01*
X132845929Y-52641500D01*
X133464434Y-52898326D01*
X135006800Y-52899672D01*
X135631623Y-52641500D01*
X155575000Y-52641500D01*
X155575000Y-129413000D01*
X137054778Y-129413000D01*
X136438012Y-128795156D01*
X135013566Y-128203674D01*
X133471200Y-128202328D01*
X132045725Y-128791323D01*
X131422962Y-129413000D01*
X113665210Y-129413000D01*
X113669031Y-127095250D01*
X140795500Y-127095250D01*
X140795500Y-128235810D01*
X140892173Y-128469199D01*
X141070802Y-128647827D01*
X141304191Y-128744500D01*
X142144750Y-128744500D01*
X142303500Y-128585750D01*
X142303500Y-126936500D01*
X140954250Y-126936500D01*
X140795500Y-127095250D01*
X113669031Y-127095250D01*
X113671853Y-125383190D01*
X140795500Y-125383190D01*
X140795500Y-126523750D01*
X140954250Y-126682500D01*
X142303500Y-126682500D01*
X142303500Y-125033250D01*
X142557500Y-125033250D01*
X142557500Y-126682500D01*
X142577500Y-126682500D01*
X142577500Y-126936500D01*
X142557500Y-126936500D01*
X142557500Y-128585750D01*
X142716250Y-128744500D01*
X143556809Y-128744500D01*
X143790198Y-128647827D01*
X143968827Y-128469199D01*
X144065500Y-128235810D01*
X144065500Y-128161935D01*
X144443545Y-128414536D01*
X144970500Y-128519354D01*
X145497455Y-128414536D01*
X145944186Y-128116040D01*
X146210683Y-127717199D01*
X146501459Y-128152375D01*
X146964411Y-128461710D01*
X147510500Y-128570334D01*
X148056589Y-128461710D01*
X148519541Y-128152375D01*
X148828876Y-127689423D01*
X148937500Y-127143334D01*
X148937500Y-126475666D01*
X148828876Y-125929577D01*
X148519541Y-125466625D01*
X148056589Y-125157290D01*
X147510500Y-125048666D01*
X146964411Y-125157290D01*
X146501459Y-125466625D01*
X146210683Y-125901801D01*
X145944186Y-125502960D01*
X145497455Y-125204464D01*
X144970500Y-125099646D01*
X144443545Y-125204464D01*
X144065500Y-125457065D01*
X144065500Y-125383190D01*
X143968827Y-125149801D01*
X143790198Y-124971173D01*
X143556809Y-124874500D01*
X142716250Y-124874500D01*
X142557500Y-125033250D01*
X142303500Y-125033250D01*
X142144750Y-124874500D01*
X141304191Y-124874500D01*
X141070802Y-124971173D01*
X140892173Y-125149801D01*
X140795500Y-125383190D01*
X113671853Y-125383190D01*
X113675263Y-123315688D01*
X113761673Y-123524299D01*
X113940302Y-123702927D01*
X114173691Y-123799600D01*
X115030250Y-123799600D01*
X115189000Y-123640850D01*
X115189000Y-122428000D01*
X115443000Y-122428000D01*
X115443000Y-123640850D01*
X115601750Y-123799600D01*
X116458309Y-123799600D01*
X116691698Y-123702927D01*
X116718599Y-123676026D01*
X151300642Y-123676026D01*
X151303291Y-123691791D01*
X151557268Y-124219036D01*
X151993680Y-124608954D01*
X152546087Y-124802184D01*
X152781000Y-124657924D01*
X152781000Y-123444000D01*
X153035000Y-123444000D01*
X153035000Y-124657924D01*
X153269913Y-124802184D01*
X153822320Y-124608954D01*
X154258732Y-124219036D01*
X154512709Y-123691791D01*
X154515358Y-123676026D01*
X154394217Y-123444000D01*
X153035000Y-123444000D01*
X152781000Y-123444000D01*
X151421783Y-123444000D01*
X151300642Y-123676026D01*
X116718599Y-123676026D01*
X116870327Y-123524299D01*
X116967000Y-123290910D01*
X116967000Y-122586750D01*
X116808250Y-122428000D01*
X115443000Y-122428000D01*
X115189000Y-122428000D01*
X115169000Y-122428000D01*
X115169000Y-122174000D01*
X115189000Y-122174000D01*
X115189000Y-119888000D01*
X115443000Y-119888000D01*
X115443000Y-122174000D01*
X116808250Y-122174000D01*
X116967000Y-122015250D01*
X116967000Y-121311090D01*
X116870327Y-121077701D01*
X116691698Y-120899073D01*
X116494139Y-120817241D01*
X116666732Y-120663036D01*
X116920709Y-120135791D01*
X116923358Y-120120026D01*
X116802217Y-119888000D01*
X115443000Y-119888000D01*
X115189000Y-119888000D01*
X115169000Y-119888000D01*
X115169000Y-119634000D01*
X115189000Y-119634000D01*
X115189000Y-119614000D01*
X115443000Y-119614000D01*
X115443000Y-119634000D01*
X116802217Y-119634000D01*
X116923358Y-119401974D01*
X116920709Y-119386209D01*
X116666732Y-118858964D01*
X116230320Y-118469046D01*
X115950439Y-118371145D01*
X115970447Y-118367165D01*
X116372927Y-118098237D01*
X116641855Y-117695757D01*
X116736290Y-117221000D01*
X116641855Y-116746243D01*
X116372927Y-116343763D01*
X115970447Y-116074835D01*
X115495690Y-115980400D01*
X115136310Y-115980400D01*
X114661553Y-116074835D01*
X114259073Y-116343763D01*
X113990145Y-116746243D01*
X113895710Y-117221000D01*
X113990145Y-117695757D01*
X114259073Y-118098237D01*
X114661553Y-118367165D01*
X114681561Y-118371145D01*
X114401680Y-118469046D01*
X113965268Y-118858964D01*
X113711291Y-119386209D01*
X113708642Y-119401974D01*
X113829782Y-119633998D01*
X113681334Y-119633998D01*
X113689500Y-114681000D01*
X113895710Y-114681000D01*
X113990145Y-115155757D01*
X114259073Y-115558237D01*
X114661553Y-115827165D01*
X115136310Y-115921600D01*
X115495690Y-115921600D01*
X115970447Y-115827165D01*
X116372927Y-115558237D01*
X116641855Y-115155757D01*
X116736290Y-114681000D01*
X116641855Y-114206243D01*
X116372927Y-113803763D01*
X115970447Y-113534835D01*
X115495690Y-113440400D01*
X115136310Y-113440400D01*
X114661553Y-113534835D01*
X114259073Y-113803763D01*
X113990145Y-114206243D01*
X113895710Y-114681000D01*
X113689500Y-114681000D01*
X113693688Y-112141000D01*
X113895710Y-112141000D01*
X113990145Y-112615757D01*
X114259073Y-113018237D01*
X114661553Y-113287165D01*
X115136310Y-113381600D01*
X115495690Y-113381600D01*
X115970447Y-113287165D01*
X116372927Y-113018237D01*
X116641855Y-112615757D01*
X116736290Y-112141000D01*
X116641855Y-111666243D01*
X116372927Y-111263763D01*
X115970447Y-110994835D01*
X115495690Y-110900400D01*
X115136310Y-110900400D01*
X114661553Y-110994835D01*
X114259073Y-111263763D01*
X113990145Y-111666243D01*
X113895710Y-112141000D01*
X113693688Y-112141000D01*
X113697876Y-109601000D01*
X113895710Y-109601000D01*
X113990145Y-110075757D01*
X114259073Y-110478237D01*
X114661553Y-110747165D01*
X115136310Y-110841600D01*
X115495690Y-110841600D01*
X115970447Y-110747165D01*
X116372927Y-110478237D01*
X116641855Y-110075757D01*
X116736290Y-109601000D01*
X116641855Y-109126243D01*
X116372927Y-108723763D01*
X115970447Y-108454835D01*
X115495690Y-108360400D01*
X115136310Y-108360400D01*
X114661553Y-108454835D01*
X114259073Y-108723763D01*
X113990145Y-109126243D01*
X113895710Y-109601000D01*
X113697876Y-109601000D01*
X113702064Y-107061000D01*
X113895710Y-107061000D01*
X113990145Y-107535757D01*
X114259073Y-107938237D01*
X114661553Y-108207165D01*
X115136310Y-108301600D01*
X115495690Y-108301600D01*
X115970447Y-108207165D01*
X116372927Y-107938237D01*
X116641855Y-107535757D01*
X116736290Y-107061000D01*
X116641855Y-106586243D01*
X116372927Y-106183763D01*
X115970447Y-105914835D01*
X115495690Y-105820400D01*
X115136310Y-105820400D01*
X114661553Y-105914835D01*
X114259073Y-106183763D01*
X113990145Y-106586243D01*
X113895710Y-107061000D01*
X113702064Y-107061000D01*
X113714628Y-99441000D01*
X113844730Y-99441000D01*
X113942971Y-99934891D01*
X114222738Y-100353592D01*
X114641439Y-100633359D01*
X115135330Y-100731600D01*
X115496670Y-100731600D01*
X115990561Y-100633359D01*
X116409262Y-100353592D01*
X116689029Y-99934891D01*
X116787270Y-99441000D01*
X116689029Y-98947109D01*
X116409262Y-98528408D01*
X115990561Y-98248641D01*
X115496670Y-98150400D01*
X115135330Y-98150400D01*
X114641439Y-98248641D01*
X114222738Y-98528408D01*
X113942971Y-98947109D01*
X113844730Y-99441000D01*
X113714628Y-99441000D01*
X113791791Y-52641500D01*
X120141876Y-52641500D01*
X120135543Y-59146000D01*
X120135543Y-59146000D01*
G37*
X120135543Y-59146000D02*
X119991317Y-59289974D01*
X119781240Y-59795896D01*
X119780762Y-60343701D01*
X119989956Y-60849989D01*
X120133743Y-60994027D01*
X120133512Y-61231486D01*
X120010902Y-61255875D01*
X119886199Y-61339199D01*
X119802875Y-61463902D01*
X119773615Y-61611000D01*
X119773615Y-63611000D01*
X119802875Y-63758098D01*
X119886199Y-63882801D01*
X120010902Y-63966125D01*
X120130826Y-63989980D01*
X120120350Y-74749017D01*
X118433000Y-76436366D01*
X118433000Y-71305297D01*
X118532882Y-71064754D01*
X118533117Y-70795427D01*
X118430267Y-70546511D01*
X118239990Y-70355902D01*
X117991254Y-70252618D01*
X117721927Y-70252383D01*
X117473011Y-70355233D01*
X117282402Y-70545510D01*
X117179118Y-70794246D01*
X117178883Y-71063573D01*
X117279000Y-71305875D01*
X117279000Y-101894399D01*
X116489247Y-102684152D01*
X116641855Y-102455757D01*
X116736290Y-101981000D01*
X116641855Y-101506243D01*
X116372927Y-101103763D01*
X115970447Y-100834835D01*
X115495690Y-100740400D01*
X115136310Y-100740400D01*
X114661553Y-100834835D01*
X114259073Y-101103763D01*
X113990145Y-101506243D01*
X113895710Y-101981000D01*
X113990145Y-102455757D01*
X114259073Y-102858237D01*
X114661553Y-103127165D01*
X115136310Y-103221600D01*
X115495690Y-103221600D01*
X115970447Y-103127165D01*
X116198841Y-102974557D01*
X115827081Y-103346318D01*
X115495690Y-103280400D01*
X115136310Y-103280400D01*
X114661553Y-103374835D01*
X114259073Y-103643763D01*
X113990145Y-104046243D01*
X113895710Y-104521000D01*
X113990145Y-104995757D01*
X114259073Y-105398237D01*
X114661553Y-105667165D01*
X115136310Y-105761600D01*
X115495690Y-105761600D01*
X115970447Y-105667165D01*
X116372927Y-105398237D01*
X116641855Y-104995757D01*
X116736290Y-104521000D01*
X116661317Y-104144085D01*
X118263998Y-102541403D01*
X118264001Y-102541401D01*
X118389078Y-102354208D01*
X118433000Y-102133400D01*
X118433000Y-85603313D01*
X118696789Y-85712847D01*
X119045681Y-85713151D01*
X119368131Y-85579918D01*
X119615051Y-85333429D01*
X119748847Y-85011211D01*
X119749151Y-84662319D01*
X119615918Y-84339869D01*
X119599000Y-84322921D01*
X119599000Y-84199604D01*
X119543660Y-83921393D01*
X119411751Y-83723976D01*
X119411751Y-83545391D01*
X119555635Y-83605137D01*
X120111186Y-84160688D01*
X120078500Y-117728876D01*
X120088120Y-117777487D01*
X120115610Y-117818715D01*
X120156785Y-117846285D01*
X120205500Y-117856000D01*
X136512867Y-117856000D01*
X136183498Y-118185369D01*
X136160819Y-118185349D01*
X135838369Y-118318582D01*
X135591449Y-118565071D01*
X135457653Y-118887289D01*
X135457349Y-119236181D01*
X135590582Y-119558631D01*
X135837071Y-119805551D01*
X136159289Y-119939347D01*
X136508181Y-119939651D01*
X136830631Y-119806418D01*
X137077551Y-119559929D01*
X137211347Y-119237711D01*
X137211368Y-119213766D01*
X137461133Y-118964000D01*
X151690729Y-118964000D01*
X151814738Y-119149592D01*
X152233439Y-119429359D01*
X152623767Y-119507000D01*
X152233439Y-119584641D01*
X151814738Y-119864408D01*
X151534971Y-120283109D01*
X151436730Y-120777000D01*
X151534971Y-121270891D01*
X151814738Y-121689592D01*
X152205757Y-121950862D01*
X151993680Y-122025046D01*
X151557268Y-122414964D01*
X151303291Y-122942209D01*
X151300642Y-122957974D01*
X151421783Y-123190000D01*
X152781000Y-123190000D01*
X152781000Y-123170000D01*
X153035000Y-123170000D01*
X153035000Y-123190000D01*
X154394217Y-123190000D01*
X154515358Y-122957974D01*
X154512709Y-122942209D01*
X154258732Y-122414964D01*
X153822320Y-122025046D01*
X153610243Y-121950862D01*
X154001262Y-121689592D01*
X154281029Y-121270891D01*
X154379270Y-120777000D01*
X154281029Y-120283109D01*
X154001262Y-119864408D01*
X153582561Y-119584641D01*
X153192233Y-119507000D01*
X153582561Y-119429359D01*
X154001262Y-119149592D01*
X154281029Y-118730891D01*
X154379270Y-118237000D01*
X154281029Y-117743109D01*
X154001262Y-117324408D01*
X153582561Y-117044641D01*
X153088670Y-116946400D01*
X152727330Y-116946400D01*
X152233439Y-117044641D01*
X151814738Y-117324408D01*
X151690729Y-117510000D01*
X149670976Y-117510000D01*
X149683171Y-115697000D01*
X151487710Y-115697000D01*
X151582145Y-116171757D01*
X151851073Y-116574237D01*
X152253553Y-116843165D01*
X152728310Y-116937600D01*
X153087690Y-116937600D01*
X153562447Y-116843165D01*
X153964927Y-116574237D01*
X154233855Y-116171757D01*
X154328290Y-115697000D01*
X154233855Y-115222243D01*
X153964927Y-114819763D01*
X153562447Y-114550835D01*
X153087690Y-114456400D01*
X152728310Y-114456400D01*
X152253553Y-114550835D01*
X151851073Y-114819763D01*
X151582145Y-115222243D01*
X151487710Y-115697000D01*
X149683171Y-115697000D01*
X149700256Y-113157000D01*
X151487710Y-113157000D01*
X151582145Y-113631757D01*
X151851073Y-114034237D01*
X152253553Y-114303165D01*
X152728310Y-114397600D01*
X153087690Y-114397600D01*
X153562447Y-114303165D01*
X153964927Y-114034237D01*
X154233855Y-113631757D01*
X154328290Y-113157000D01*
X154233855Y-112682243D01*
X153964927Y-112279763D01*
X153562447Y-112010835D01*
X153087690Y-111916400D01*
X152728310Y-111916400D01*
X152253553Y-112010835D01*
X151851073Y-112279763D01*
X151582145Y-112682243D01*
X151487710Y-113157000D01*
X149700256Y-113157000D01*
X149717341Y-110617000D01*
X151487710Y-110617000D01*
X151582145Y-111091757D01*
X151851073Y-111494237D01*
X152253553Y-111763165D01*
X152728310Y-111857600D01*
X153087690Y-111857600D01*
X153562447Y-111763165D01*
X153964927Y-111494237D01*
X154233855Y-111091757D01*
X154328290Y-110617000D01*
X154233855Y-110142243D01*
X153964927Y-109739763D01*
X153562447Y-109470835D01*
X153087690Y-109376400D01*
X152728310Y-109376400D01*
X152253553Y-109470835D01*
X151851073Y-109739763D01*
X151582145Y-110142243D01*
X151487710Y-110617000D01*
X149717341Y-110617000D01*
X149734426Y-108077000D01*
X151487710Y-108077000D01*
X151582145Y-108551757D01*
X151851073Y-108954237D01*
X152253553Y-109223165D01*
X152728310Y-109317600D01*
X153087690Y-109317600D01*
X153562447Y-109223165D01*
X153964927Y-108954237D01*
X154233855Y-108551757D01*
X154328290Y-108077000D01*
X154233855Y-107602243D01*
X153964927Y-107199763D01*
X153562447Y-106930835D01*
X153087690Y-106836400D01*
X152728310Y-106836400D01*
X152253553Y-106930835D01*
X151851073Y-107199763D01*
X151582145Y-107602243D01*
X151487710Y-108077000D01*
X149734426Y-108077000D01*
X149751511Y-105537000D01*
X151487710Y-105537000D01*
X151582145Y-106011757D01*
X151851073Y-106414237D01*
X152253553Y-106683165D01*
X152728310Y-106777600D01*
X153087690Y-106777600D01*
X153562447Y-106683165D01*
X153964927Y-106414237D01*
X154233855Y-106011757D01*
X154328290Y-105537000D01*
X154233855Y-105062243D01*
X153964927Y-104659763D01*
X153562447Y-104390835D01*
X153087690Y-104296400D01*
X152728310Y-104296400D01*
X152253553Y-104390835D01*
X151851073Y-104659763D01*
X151582145Y-105062243D01*
X151487710Y-105537000D01*
X149751511Y-105537000D01*
X149768596Y-102997000D01*
X151487710Y-102997000D01*
X151582145Y-103471757D01*
X151851073Y-103874237D01*
X152253553Y-104143165D01*
X152728310Y-104237600D01*
X153087690Y-104237600D01*
X153562447Y-104143165D01*
X153964927Y-103874237D01*
X154233855Y-103471757D01*
X154328290Y-102997000D01*
X154233855Y-102522243D01*
X153964927Y-102119763D01*
X153562447Y-101850835D01*
X153087690Y-101756400D01*
X152728310Y-101756400D01*
X152253553Y-101850835D01*
X151851073Y-102119763D01*
X151582145Y-102522243D01*
X151487710Y-102997000D01*
X149768596Y-102997000D01*
X149791490Y-99593400D01*
X151507615Y-99593400D01*
X151507615Y-101320600D01*
X151536875Y-101467698D01*
X151620199Y-101592401D01*
X151744902Y-101675725D01*
X151892000Y-101704985D01*
X153924000Y-101704985D01*
X154071098Y-101675725D01*
X154195801Y-101592401D01*
X154279125Y-101467698D01*
X154308385Y-101320600D01*
X154308385Y-99593400D01*
X154279125Y-99446302D01*
X154195801Y-99321599D01*
X154071098Y-99238275D01*
X153924000Y-99209015D01*
X151892000Y-99209015D01*
X151744902Y-99238275D01*
X151620199Y-99321599D01*
X151536875Y-99446302D01*
X151507615Y-99593400D01*
X149791490Y-99593400D01*
X149859997Y-89408854D01*
X149850657Y-89360190D01*
X149823405Y-89318804D01*
X149782389Y-89290997D01*
X149733000Y-89281000D01*
X134689000Y-89281000D01*
X134689000Y-88379539D01*
X134989237Y-88178927D01*
X135153400Y-87933239D01*
X135153400Y-88264309D01*
X135250073Y-88497698D01*
X135428701Y-88676327D01*
X135662090Y-88773000D01*
X136366250Y-88773000D01*
X136525000Y-88614250D01*
X136525000Y-87249000D01*
X136779000Y-87249000D01*
X136779000Y-88614250D01*
X136937750Y-88773000D01*
X137641910Y-88773000D01*
X137875299Y-88676327D01*
X138053927Y-88497698D01*
X138150600Y-88264309D01*
X138150600Y-87407750D01*
X137991850Y-87249000D01*
X136779000Y-87249000D01*
X136525000Y-87249000D01*
X136505000Y-87249000D01*
X136505000Y-86995000D01*
X136525000Y-86995000D01*
X136525000Y-85629750D01*
X136779000Y-85629750D01*
X136779000Y-86995000D01*
X137991850Y-86995000D01*
X138150600Y-86836250D01*
X138150600Y-85979691D01*
X138053927Y-85746302D01*
X137875299Y-85567673D01*
X137641910Y-85471000D01*
X136937750Y-85471000D01*
X136779000Y-85629750D01*
X136525000Y-85629750D01*
X136366250Y-85471000D01*
X135662090Y-85471000D01*
X135428701Y-85567673D01*
X135250073Y-85746302D01*
X135153400Y-85979691D01*
X135153400Y-86310761D01*
X134989237Y-86065073D01*
X134586757Y-85796145D01*
X134112000Y-85701710D01*
X133759884Y-85771750D01*
X141438503Y-78093131D01*
X141461181Y-78093151D01*
X141783631Y-77959918D01*
X142030551Y-77713429D01*
X142164347Y-77391211D01*
X142164651Y-77042319D01*
X142031418Y-76719869D01*
X141784929Y-76472949D01*
X141462711Y-76339153D01*
X141113819Y-76338849D01*
X140791369Y-76472082D01*
X140544449Y-76718571D01*
X140410653Y-77040789D01*
X140410632Y-77064734D01*
X131782721Y-85692645D01*
X131572000Y-85650730D01*
X131078109Y-85748971D01*
X130659408Y-86028738D01*
X130379641Y-86447439D01*
X130281400Y-86941330D01*
X130281400Y-87302670D01*
X130379641Y-87796561D01*
X130659408Y-88215262D01*
X131078109Y-88495029D01*
X131572000Y-88593270D01*
X132065891Y-88495029D01*
X132484592Y-88215262D01*
X132764359Y-87796561D01*
X132862600Y-87302670D01*
X132862600Y-86941330D01*
X132817423Y-86714211D01*
X132941440Y-86590194D01*
X132871400Y-86942310D01*
X132871400Y-87301690D01*
X132965835Y-87776447D01*
X133234763Y-88178927D01*
X133535000Y-88379539D01*
X133535000Y-89281000D01*
X126863502Y-89281000D01*
X126715030Y-89132528D01*
X126816573Y-89132617D01*
X127065489Y-89029767D01*
X127256098Y-88839490D01*
X127356637Y-88597364D01*
X127390497Y-88563504D01*
X127390500Y-88563502D01*
X127515577Y-88376309D01*
X127526729Y-88320246D01*
X127559500Y-88155501D01*
X127559499Y-88155496D01*
X127559499Y-69198181D01*
X129234349Y-69198181D01*
X129367582Y-69520631D01*
X129614071Y-69767551D01*
X129936289Y-69901347D01*
X130285181Y-69901651D01*
X130607631Y-69768418D01*
X130854551Y-69521929D01*
X130988347Y-69199711D01*
X130988651Y-68850819D01*
X130855418Y-68528369D01*
X130838500Y-68511421D01*
X130838500Y-64751469D01*
X152861794Y-64751469D01*
X153042427Y-65188635D01*
X153376606Y-65523397D01*
X153813456Y-65704793D01*
X154286469Y-65705206D01*
X154723635Y-65524573D01*
X155058397Y-65190394D01*
X155239793Y-64753544D01*
X155240206Y-64280531D01*
X155059573Y-63843365D01*
X154725394Y-63508603D01*
X154365167Y-63359024D01*
X154398368Y-63357362D01*
X154782143Y-63198397D01*
X154851608Y-62956213D01*
X154051000Y-62155605D01*
X153250392Y-62956213D01*
X153319857Y-63198397D01*
X153752615Y-63352790D01*
X153378365Y-63507427D01*
X153043603Y-63841606D01*
X152862207Y-64278456D01*
X152861794Y-64751469D01*
X130838500Y-64751469D01*
X130838500Y-63792171D01*
X132316891Y-63792171D01*
X132412145Y-64022703D01*
X132588369Y-64199235D01*
X132818735Y-64294891D01*
X133068171Y-64295109D01*
X133117559Y-64274702D01*
X135014075Y-64274702D01*
X135019860Y-64464442D01*
X135356930Y-64566128D01*
X135707257Y-64531083D01*
X135868140Y-64464442D01*
X135873925Y-64274702D01*
X135444000Y-63844777D01*
X135014075Y-64274702D01*
X133117559Y-64274702D01*
X133298703Y-64199855D01*
X133475235Y-64023631D01*
X133570891Y-63793265D01*
X133571076Y-63580930D01*
X134545872Y-63580930D01*
X134580917Y-63931257D01*
X134647558Y-64092140D01*
X134837298Y-64097925D01*
X135267223Y-63668000D01*
X135620777Y-63668000D01*
X136050702Y-64097925D01*
X136240442Y-64092140D01*
X136342128Y-63755070D01*
X136307083Y-63404743D01*
X136240442Y-63243860D01*
X136050702Y-63238075D01*
X135620777Y-63668000D01*
X135267223Y-63668000D01*
X134837298Y-63238075D01*
X134647558Y-63243860D01*
X134545872Y-63580930D01*
X133571076Y-63580930D01*
X133571109Y-63543829D01*
X133475855Y-63313297D01*
X133299631Y-63136765D01*
X133117886Y-63061298D01*
X135014075Y-63061298D01*
X135444000Y-63491223D01*
X135873925Y-63061298D01*
X135868140Y-62871558D01*
X135531070Y-62769872D01*
X135180743Y-62804917D01*
X135019860Y-62871558D01*
X135014075Y-63061298D01*
X133117886Y-63061298D01*
X133069265Y-63041109D01*
X132819829Y-63040891D01*
X132589297Y-63136145D01*
X132412765Y-63312369D01*
X132317109Y-63542735D01*
X132316891Y-63792171D01*
X130838500Y-63792171D01*
X130838500Y-62977370D01*
X132291951Y-61523919D01*
X132291883Y-61602073D01*
X132394733Y-61850989D01*
X132585010Y-62041598D01*
X132833746Y-62144882D01*
X133103073Y-62145117D01*
X133351989Y-62042267D01*
X133542598Y-61851990D01*
X133645882Y-61603254D01*
X133646117Y-61333927D01*
X133543267Y-61085011D01*
X133352990Y-60894402D01*
X133342394Y-60890002D01*
X133355275Y-60884680D01*
X133559961Y-60680350D01*
X133596002Y-60593555D01*
X133619733Y-60650989D01*
X133810010Y-60841598D01*
X134058746Y-60944882D01*
X134328073Y-60945117D01*
X134576989Y-60842267D01*
X134767598Y-60651990D01*
X134818999Y-60528203D01*
X134869733Y-60650989D01*
X135060010Y-60841598D01*
X135098503Y-60857582D01*
X135011011Y-60893733D01*
X134820402Y-61084010D01*
X134717118Y-61332746D01*
X134716883Y-61602073D01*
X134819733Y-61850989D01*
X135010010Y-62041598D01*
X135258746Y-62144882D01*
X135497088Y-62145090D01*
X135660771Y-62308772D01*
X135760233Y-62549489D01*
X135950510Y-62740098D01*
X136199246Y-62843382D01*
X136468573Y-62843617D01*
X136717489Y-62740767D01*
X136908098Y-62550490D01*
X137011382Y-62301754D01*
X137011617Y-62032427D01*
X136908767Y-61783511D01*
X136893585Y-61768302D01*
X152641856Y-61768302D01*
X152669638Y-62323368D01*
X152828603Y-62707143D01*
X153070787Y-62776608D01*
X153871395Y-61976000D01*
X154230605Y-61976000D01*
X155031213Y-62776608D01*
X155273397Y-62707143D01*
X155460144Y-62183698D01*
X155432362Y-61628632D01*
X155273397Y-61244857D01*
X155031213Y-61175392D01*
X154230605Y-61976000D01*
X153871395Y-61976000D01*
X153070787Y-61175392D01*
X152828603Y-61244857D01*
X152641856Y-61768302D01*
X136893585Y-61768302D01*
X136718490Y-61592902D01*
X136476364Y-61492363D01*
X136044001Y-61059999D01*
X135856808Y-60934922D01*
X135808933Y-60925399D01*
X135777990Y-60894402D01*
X135739497Y-60878418D01*
X135820375Y-60845000D01*
X137807394Y-60845000D01*
X137855733Y-60961989D01*
X138046010Y-61152598D01*
X138294746Y-61255882D01*
X138564073Y-61256117D01*
X138812989Y-61153267D01*
X139003598Y-60962990D01*
X139106882Y-60714254D01*
X139107117Y-60444927D01*
X139004267Y-60196011D01*
X138813990Y-60005402D01*
X138571865Y-59904863D01*
X138527001Y-59859999D01*
X138339808Y-59734922D01*
X138119000Y-59690999D01*
X138118995Y-59691000D01*
X135819797Y-59691000D01*
X135748915Y-59661567D01*
X152911803Y-59661567D01*
X153084840Y-60080349D01*
X153404966Y-60401034D01*
X153823445Y-60574802D01*
X154095209Y-60575039D01*
X153703632Y-60594638D01*
X153319857Y-60753603D01*
X153250392Y-60995787D01*
X154051000Y-61796395D01*
X154851608Y-60995787D01*
X154782143Y-60753603D01*
X154279120Y-60574142D01*
X154695349Y-60402160D01*
X155016034Y-60082034D01*
X155189802Y-59663555D01*
X155190197Y-59210433D01*
X155017160Y-58791651D01*
X154697034Y-58470966D01*
X154278555Y-58297198D01*
X153825433Y-58296803D01*
X153406651Y-58469840D01*
X153085966Y-58789966D01*
X152912198Y-59208445D01*
X152911803Y-59661567D01*
X135748915Y-59661567D01*
X135579254Y-59591118D01*
X135309927Y-59590883D01*
X135061011Y-59693733D01*
X134870402Y-59884010D01*
X134819001Y-60007797D01*
X134768267Y-59885011D01*
X134577990Y-59694402D01*
X134329254Y-59591118D01*
X134059927Y-59590883D01*
X133811011Y-59693733D01*
X133620402Y-59884010D01*
X133596118Y-59942492D01*
X133560680Y-59856725D01*
X133356350Y-59652039D01*
X133089244Y-59541126D01*
X132800025Y-59540874D01*
X132799720Y-59541000D01*
X132519741Y-59541000D01*
X132519736Y-59540999D01*
X132287684Y-59587158D01*
X132241525Y-59596340D01*
X132094764Y-59694402D01*
X132005669Y-59753933D01*
X129597433Y-62162169D01*
X129439840Y-62398025D01*
X129439840Y-62398026D01*
X129384499Y-62676236D01*
X129384500Y-62676241D01*
X129384500Y-68511048D01*
X129368449Y-68527071D01*
X129234653Y-68849289D01*
X129234349Y-69198181D01*
X127559499Y-69198181D01*
X127559499Y-63908903D01*
X135132084Y-56336317D01*
X135509000Y-56411290D01*
X135983757Y-56316855D01*
X136386237Y-56047927D01*
X136655165Y-55645447D01*
X136749600Y-55170690D01*
X136749600Y-54811310D01*
X136655165Y-54336553D01*
X136413584Y-53975000D01*
X136750035Y-53975000D01*
X136750035Y-56007000D01*
X136783175Y-56173607D01*
X136877550Y-56314850D01*
X137018793Y-56409225D01*
X137185400Y-56442365D01*
X138912600Y-56442365D01*
X139079207Y-56409225D01*
X139220450Y-56314850D01*
X139314825Y-56173607D01*
X139347965Y-56007000D01*
X139347965Y-53975000D01*
X139314825Y-53808393D01*
X139220450Y-53667150D01*
X139079207Y-53572775D01*
X138912600Y-53539635D01*
X137185400Y-53539635D01*
X137018793Y-53572775D01*
X136877550Y-53667150D01*
X136783175Y-53808393D01*
X136750035Y-53975000D01*
X136413584Y-53975000D01*
X136386237Y-53934073D01*
X135983757Y-53665145D01*
X135509000Y-53570710D01*
X135034243Y-53665145D01*
X134631763Y-53934073D01*
X134362835Y-54336553D01*
X134268400Y-54811310D01*
X134268400Y-55170690D01*
X134334318Y-55502081D01*
X133962556Y-55873843D01*
X134115165Y-55645447D01*
X134209600Y-55170690D01*
X134209600Y-54811310D01*
X134115165Y-54336553D01*
X133846237Y-53934073D01*
X133443757Y-53665145D01*
X132969000Y-53570710D01*
X132494243Y-53665145D01*
X132091763Y-53934073D01*
X131822835Y-54336553D01*
X131818855Y-54356561D01*
X131720954Y-54076680D01*
X131331036Y-53640268D01*
X130803791Y-53386291D01*
X130788026Y-53383642D01*
X130556000Y-53504783D01*
X130556000Y-54864000D01*
X130576000Y-54864000D01*
X130576000Y-55118000D01*
X130556000Y-55118000D01*
X130556000Y-56477217D01*
X130788026Y-56598358D01*
X130803791Y-56595709D01*
X131331036Y-56341732D01*
X131720954Y-55905320D01*
X131818855Y-55625439D01*
X131822835Y-55645447D01*
X132091763Y-56047927D01*
X132494243Y-56316855D01*
X132969000Y-56411290D01*
X133443757Y-56316855D01*
X133672153Y-56164246D01*
X126574498Y-63261900D01*
X126449421Y-63449093D01*
X126405498Y-63669901D01*
X126405499Y-63669906D01*
X126405499Y-87837440D01*
X126299511Y-87881233D01*
X126108902Y-88071510D01*
X126005618Y-88320246D01*
X126005528Y-88423026D01*
X120448240Y-82865738D01*
X120437264Y-76488370D01*
X123595002Y-73330631D01*
X123617681Y-73330651D01*
X123940131Y-73197418D01*
X124187051Y-72950929D01*
X124320847Y-72628711D01*
X124321151Y-72279819D01*
X124187918Y-71957369D01*
X123941429Y-71710449D01*
X123619211Y-71576653D01*
X123270319Y-71576349D01*
X122947869Y-71709582D01*
X122700949Y-71956071D01*
X122567153Y-72278289D01*
X122567132Y-72302235D01*
X120433731Y-74435636D01*
X120415761Y-63995385D01*
X122158000Y-63995385D01*
X122305098Y-63966125D01*
X122429801Y-63882801D01*
X122513125Y-63758098D01*
X122542385Y-63611000D01*
X122542385Y-61611000D01*
X122513125Y-61463902D01*
X122429801Y-61339199D01*
X122305098Y-61255875D01*
X122158000Y-61226615D01*
X121949440Y-61226615D01*
X122324683Y-60852026D01*
X122387047Y-60701836D01*
X124645000Y-62959788D01*
X124645000Y-68458203D01*
X124545118Y-68698746D01*
X124544883Y-68968073D01*
X124647733Y-69216989D01*
X124838010Y-69407598D01*
X125086746Y-69510882D01*
X125356073Y-69511117D01*
X125604989Y-69408267D01*
X125795598Y-69217990D01*
X125898882Y-68969254D01*
X125899117Y-68699927D01*
X125799000Y-68457625D01*
X125799000Y-62720792D01*
X125799001Y-62720787D01*
X125755078Y-62499979D01*
X125679794Y-62387308D01*
X125630001Y-62312786D01*
X125629998Y-62312784D01*
X122980214Y-59662999D01*
X122793021Y-59537922D01*
X122572213Y-59493999D01*
X122572208Y-59494000D01*
X122409504Y-59494000D01*
X122326044Y-59292011D01*
X121939026Y-58904317D01*
X121433104Y-58694240D01*
X120885299Y-58693762D01*
X120406976Y-58891401D01*
X120400886Y-55352913D01*
X128943816Y-55352913D01*
X129137046Y-55905320D01*
X129526964Y-56341732D01*
X130054209Y-56595709D01*
X130069974Y-56598358D01*
X130302000Y-56477217D01*
X130302000Y-55118000D01*
X129088076Y-55118000D01*
X128943816Y-55352913D01*
X120400886Y-55352913D01*
X120399641Y-54629087D01*
X128943816Y-54629087D01*
X129088076Y-54864000D01*
X130302000Y-54864000D01*
X130302000Y-53504783D01*
X130069974Y-53383642D01*
X130054209Y-53386291D01*
X129526964Y-53640268D01*
X129137046Y-54076680D01*
X128943816Y-54629087D01*
X120399641Y-54629087D01*
X120396219Y-52641500D01*
X132845929Y-52641500D01*
X133464434Y-52898326D01*
X135006800Y-52899672D01*
X135631623Y-52641500D01*
X155575000Y-52641500D01*
X155575000Y-129413000D01*
X137054778Y-129413000D01*
X136438012Y-128795156D01*
X135013566Y-128203674D01*
X133471200Y-128202328D01*
X132045725Y-128791323D01*
X131422962Y-129413000D01*
X113665210Y-129413000D01*
X113669031Y-127095250D01*
X140795500Y-127095250D01*
X140795500Y-128235810D01*
X140892173Y-128469199D01*
X141070802Y-128647827D01*
X141304191Y-128744500D01*
X142144750Y-128744500D01*
X142303500Y-128585750D01*
X142303500Y-126936500D01*
X140954250Y-126936500D01*
X140795500Y-127095250D01*
X113669031Y-127095250D01*
X113671853Y-125383190D01*
X140795500Y-125383190D01*
X140795500Y-126523750D01*
X140954250Y-126682500D01*
X142303500Y-126682500D01*
X142303500Y-125033250D01*
X142557500Y-125033250D01*
X142557500Y-126682500D01*
X142577500Y-126682500D01*
X142577500Y-126936500D01*
X142557500Y-126936500D01*
X142557500Y-128585750D01*
X142716250Y-128744500D01*
X143556809Y-128744500D01*
X143790198Y-128647827D01*
X143968827Y-128469199D01*
X144065500Y-128235810D01*
X144065500Y-128161935D01*
X144443545Y-128414536D01*
X144970500Y-128519354D01*
X145497455Y-128414536D01*
X145944186Y-128116040D01*
X146210683Y-127717199D01*
X146501459Y-128152375D01*
X146964411Y-128461710D01*
X147510500Y-128570334D01*
X148056589Y-128461710D01*
X148519541Y-128152375D01*
X148828876Y-127689423D01*
X148937500Y-127143334D01*
X148937500Y-126475666D01*
X148828876Y-125929577D01*
X148519541Y-125466625D01*
X148056589Y-125157290D01*
X147510500Y-125048666D01*
X146964411Y-125157290D01*
X146501459Y-125466625D01*
X146210683Y-125901801D01*
X145944186Y-125502960D01*
X145497455Y-125204464D01*
X144970500Y-125099646D01*
X144443545Y-125204464D01*
X144065500Y-125457065D01*
X144065500Y-125383190D01*
X143968827Y-125149801D01*
X143790198Y-124971173D01*
X143556809Y-124874500D01*
X142716250Y-124874500D01*
X142557500Y-125033250D01*
X142303500Y-125033250D01*
X142144750Y-124874500D01*
X141304191Y-124874500D01*
X141070802Y-124971173D01*
X140892173Y-125149801D01*
X140795500Y-125383190D01*
X113671853Y-125383190D01*
X113675263Y-123315688D01*
X113761673Y-123524299D01*
X113940302Y-123702927D01*
X114173691Y-123799600D01*
X115030250Y-123799600D01*
X115189000Y-123640850D01*
X115189000Y-122428000D01*
X115443000Y-122428000D01*
X115443000Y-123640850D01*
X115601750Y-123799600D01*
X116458309Y-123799600D01*
X116691698Y-123702927D01*
X116718599Y-123676026D01*
X151300642Y-123676026D01*
X151303291Y-123691791D01*
X151557268Y-124219036D01*
X151993680Y-124608954D01*
X152546087Y-124802184D01*
X152781000Y-124657924D01*
X152781000Y-123444000D01*
X153035000Y-123444000D01*
X153035000Y-124657924D01*
X153269913Y-124802184D01*
X153822320Y-124608954D01*
X154258732Y-124219036D01*
X154512709Y-123691791D01*
X154515358Y-123676026D01*
X154394217Y-123444000D01*
X153035000Y-123444000D01*
X152781000Y-123444000D01*
X151421783Y-123444000D01*
X151300642Y-123676026D01*
X116718599Y-123676026D01*
X116870327Y-123524299D01*
X116967000Y-123290910D01*
X116967000Y-122586750D01*
X116808250Y-122428000D01*
X115443000Y-122428000D01*
X115189000Y-122428000D01*
X115169000Y-122428000D01*
X115169000Y-122174000D01*
X115189000Y-122174000D01*
X115189000Y-119888000D01*
X115443000Y-119888000D01*
X115443000Y-122174000D01*
X116808250Y-122174000D01*
X116967000Y-122015250D01*
X116967000Y-121311090D01*
X116870327Y-121077701D01*
X116691698Y-120899073D01*
X116494139Y-120817241D01*
X116666732Y-120663036D01*
X116920709Y-120135791D01*
X116923358Y-120120026D01*
X116802217Y-119888000D01*
X115443000Y-119888000D01*
X115189000Y-119888000D01*
X115169000Y-119888000D01*
X115169000Y-119634000D01*
X115189000Y-119634000D01*
X115189000Y-119614000D01*
X115443000Y-119614000D01*
X115443000Y-119634000D01*
X116802217Y-119634000D01*
X116923358Y-119401974D01*
X116920709Y-119386209D01*
X116666732Y-118858964D01*
X116230320Y-118469046D01*
X115950439Y-118371145D01*
X115970447Y-118367165D01*
X116372927Y-118098237D01*
X116641855Y-117695757D01*
X116736290Y-117221000D01*
X116641855Y-116746243D01*
X116372927Y-116343763D01*
X115970447Y-116074835D01*
X115495690Y-115980400D01*
X115136310Y-115980400D01*
X114661553Y-116074835D01*
X114259073Y-116343763D01*
X113990145Y-116746243D01*
X113895710Y-117221000D01*
X113990145Y-117695757D01*
X114259073Y-118098237D01*
X114661553Y-118367165D01*
X114681561Y-118371145D01*
X114401680Y-118469046D01*
X113965268Y-118858964D01*
X113711291Y-119386209D01*
X113708642Y-119401974D01*
X113829782Y-119633998D01*
X113681334Y-119633998D01*
X113689500Y-114681000D01*
X113895710Y-114681000D01*
X113990145Y-115155757D01*
X114259073Y-115558237D01*
X114661553Y-115827165D01*
X115136310Y-115921600D01*
X115495690Y-115921600D01*
X115970447Y-115827165D01*
X116372927Y-115558237D01*
X116641855Y-115155757D01*
X116736290Y-114681000D01*
X116641855Y-114206243D01*
X116372927Y-113803763D01*
X115970447Y-113534835D01*
X115495690Y-113440400D01*
X115136310Y-113440400D01*
X114661553Y-113534835D01*
X114259073Y-113803763D01*
X113990145Y-114206243D01*
X113895710Y-114681000D01*
X113689500Y-114681000D01*
X113693688Y-112141000D01*
X113895710Y-112141000D01*
X113990145Y-112615757D01*
X114259073Y-113018237D01*
X114661553Y-113287165D01*
X115136310Y-113381600D01*
X115495690Y-113381600D01*
X115970447Y-113287165D01*
X116372927Y-113018237D01*
X116641855Y-112615757D01*
X116736290Y-112141000D01*
X116641855Y-111666243D01*
X116372927Y-111263763D01*
X115970447Y-110994835D01*
X115495690Y-110900400D01*
X115136310Y-110900400D01*
X114661553Y-110994835D01*
X114259073Y-111263763D01*
X113990145Y-111666243D01*
X113895710Y-112141000D01*
X113693688Y-112141000D01*
X113697876Y-109601000D01*
X113895710Y-109601000D01*
X113990145Y-110075757D01*
X114259073Y-110478237D01*
X114661553Y-110747165D01*
X115136310Y-110841600D01*
X115495690Y-110841600D01*
X115970447Y-110747165D01*
X116372927Y-110478237D01*
X116641855Y-110075757D01*
X116736290Y-109601000D01*
X116641855Y-109126243D01*
X116372927Y-108723763D01*
X115970447Y-108454835D01*
X115495690Y-108360400D01*
X115136310Y-108360400D01*
X114661553Y-108454835D01*
X114259073Y-108723763D01*
X113990145Y-109126243D01*
X113895710Y-109601000D01*
X113697876Y-109601000D01*
X113702064Y-107061000D01*
X113895710Y-107061000D01*
X113990145Y-107535757D01*
X114259073Y-107938237D01*
X114661553Y-108207165D01*
X115136310Y-108301600D01*
X115495690Y-108301600D01*
X115970447Y-108207165D01*
X116372927Y-107938237D01*
X116641855Y-107535757D01*
X116736290Y-107061000D01*
X116641855Y-106586243D01*
X116372927Y-106183763D01*
X115970447Y-105914835D01*
X115495690Y-105820400D01*
X115136310Y-105820400D01*
X114661553Y-105914835D01*
X114259073Y-106183763D01*
X113990145Y-106586243D01*
X113895710Y-107061000D01*
X113702064Y-107061000D01*
X113714628Y-99441000D01*
X113844730Y-99441000D01*
X113942971Y-99934891D01*
X114222738Y-100353592D01*
X114641439Y-100633359D01*
X115135330Y-100731600D01*
X115496670Y-100731600D01*
X115990561Y-100633359D01*
X116409262Y-100353592D01*
X116689029Y-99934891D01*
X116787270Y-99441000D01*
X116689029Y-98947109D01*
X116409262Y-98528408D01*
X115990561Y-98248641D01*
X115496670Y-98150400D01*
X115135330Y-98150400D01*
X114641439Y-98248641D01*
X114222738Y-98528408D01*
X113942971Y-98947109D01*
X113844730Y-99441000D01*
X113714628Y-99441000D01*
X113791791Y-52641500D01*
X120141876Y-52641500D01*
X120135543Y-59146000D01*
M02*
