G04 #@! TF.FileFunction,Soldermask,Top*
%FSLAX46Y46*%
G04 Gerber Fmt 4.6, Leading zero omitted, Abs format (unit mm)*
G04 Created by KiCad (PCBNEW 4.0.7-e2-6376~58~ubuntu17.04.1) date Wed Sep 27 15:15:44 2017*
%MOMM*%
%LPD*%
G01*
G04 APERTURE LIST*
%ADD10C,0.100000*%
%ADD11R,1.300000X0.900000*%
%ADD12R,2.100000X2.100000*%
%ADD13O,2.100000X2.100000*%
%ADD14C,7.400000*%
%ADD15R,2.200000X2.200000*%
%ADD16C,2.200000*%
%ADD17R,1.200000X1.200000*%
%ADD18C,1.900000*%
%ADD19R,0.900000X1.300000*%
%ADD20C,1.924000*%
%ADD21R,1.000000X0.922000*%
%ADD22C,2.024000*%
%ADD23R,0.750000X1.050000*%
%ADD24R,1.200000X1.400000*%
%ADD25R,1.700000X1.100000*%
%ADD26R,7.400000X3.400000*%
%ADD27R,3.400000X7.400000*%
%ADD28R,1.400000X1.300000*%
G04 APERTURE END LIST*
D10*
D11*
X143400000Y-89400000D03*
X143400000Y-87900000D03*
D12*
X163050000Y-120580000D03*
D13*
X165590000Y-120580000D03*
X163050000Y-118040000D03*
X165590000Y-118040000D03*
X163050000Y-115500000D03*
X165590000Y-115500000D03*
X163050000Y-112960000D03*
X165590000Y-112960000D03*
X163050000Y-110420000D03*
X165590000Y-110420000D03*
D14*
X147684028Y-130516302D03*
X147684028Y-47458302D03*
D15*
X134025000Y-59535000D03*
D16*
X134025000Y-62075000D03*
D17*
X137680000Y-121310000D03*
X136080000Y-121310000D03*
D18*
X137750000Y-117950000D03*
X137750000Y-110350000D03*
D12*
X161410000Y-125300000D03*
D13*
X163950000Y-125300000D03*
X166490000Y-125300000D03*
D19*
X147800000Y-91400000D03*
X146300000Y-91400000D03*
X147950000Y-85000000D03*
X146450000Y-85000000D03*
D20*
X166520000Y-62900000D03*
X166520000Y-60360000D03*
X166520000Y-57820000D03*
D21*
X155940000Y-62820000D03*
X155040000Y-62820000D03*
X154140000Y-62820000D03*
X154140000Y-62000000D03*
X155940000Y-62000000D03*
D22*
X155040000Y-60750000D03*
D23*
X139800000Y-59675000D03*
X139150000Y-59675000D03*
X138500000Y-59675000D03*
X138500000Y-61775000D03*
X139150000Y-61775000D03*
X139800000Y-61775000D03*
D24*
X138750000Y-60725000D03*
X139550000Y-60725000D03*
D25*
X148550000Y-87000000D03*
X148540000Y-88100000D03*
X148530000Y-89200000D03*
X145590000Y-88100000D03*
X145600000Y-87000000D03*
X145580000Y-89200000D03*
D20*
X144910000Y-61765000D03*
X149990000Y-61765000D03*
X147450000Y-59225000D03*
X147425000Y-111175000D03*
X147425000Y-116255000D03*
X149965000Y-113715000D03*
D26*
X147000000Y-81100000D03*
D27*
X139900000Y-88020000D03*
D26*
X147000000Y-95120000D03*
D27*
X153950000Y-88020000D03*
D17*
X144975000Y-121150000D03*
X143375000Y-121150000D03*
X130610000Y-121370000D03*
X129010000Y-121370000D03*
D28*
X141970000Y-124300000D03*
X141970000Y-125900000D03*
X146070000Y-124300000D03*
X146070000Y-125900000D03*
X127540000Y-124490000D03*
X127540000Y-126090000D03*
X131640000Y-124490000D03*
X131640000Y-126090000D03*
X134700000Y-124410000D03*
X134700000Y-126010000D03*
X138800000Y-124410000D03*
X138800000Y-126010000D03*
M02*
