G04 #@! TF.FileFunction,Soldermask,Bot*
%FSLAX46Y46*%
G04 Gerber Fmt 4.6, Leading zero omitted, Abs format (unit mm)*
G04 Created by KiCad (PCBNEW 4.0.6+dfsg1-1) date Tue Aug 29 14:41:36 2017*
%MOMM*%
%LPD*%
G01*
G04 APERTURE LIST*
%ADD10C,0.100000*%
%ADD11C,0.900000*%
%ADD12C,0.800000*%
%ADD13C,1.000000*%
%ADD14C,2.076000*%
%ADD15C,7.400000*%
%ADD16R,2.200000X2.200000*%
%ADD17C,2.200000*%
%ADD18C,1.900000*%
%ADD19C,1.924000*%
%ADD20R,7.400000X3.400000*%
%ADD21R,3.400000X7.400000*%
%ADD22R,1.100000X1.700000*%
%ADD23R,2.100000X2.100000*%
%ADD24O,2.100000X2.100000*%
G04 APERTURE END LIST*
D10*
D11*
X143550000Y-57870000D03*
X146050000Y-57870000D03*
D12*
X146025000Y-60070000D03*
D13*
X146050000Y-61270000D03*
X144800000Y-61270000D03*
X143550000Y-61270000D03*
X143600000Y-60070000D03*
D14*
X144826040Y-58680960D03*
D15*
X147684028Y-130516302D03*
X147684028Y-47458302D03*
D16*
X159860000Y-58340000D03*
D17*
X159860000Y-60880000D03*
D16*
X153290000Y-58410000D03*
D17*
X153290000Y-60950000D03*
D18*
X143780000Y-78200000D03*
X151380000Y-78200000D03*
D19*
X128220000Y-62230000D03*
X128220000Y-59690000D03*
X128220000Y-57150000D03*
D20*
X146987260Y-116619020D03*
D21*
X139887260Y-109699020D03*
D20*
X146987260Y-102599020D03*
D21*
X153937260Y-109699020D03*
D22*
X148143320Y-108078800D03*
X147043320Y-108088800D03*
X145943320Y-108098800D03*
X147043320Y-111038800D03*
X148143320Y-111028800D03*
X145943320Y-111048800D03*
D23*
X166070280Y-120233440D03*
D24*
X166070280Y-117693440D03*
X166070280Y-115153440D03*
X166070280Y-112613440D03*
X166070280Y-110073440D03*
X166070280Y-107533440D03*
X166070280Y-104993440D03*
X166070280Y-102453440D03*
X166070280Y-99913440D03*
X166070280Y-97373440D03*
X166070280Y-94833440D03*
X166070280Y-92293440D03*
X166070280Y-89753440D03*
X166070280Y-87213440D03*
X166070280Y-84673440D03*
X166070280Y-82133440D03*
X166070280Y-79593440D03*
X166070280Y-77053440D03*
X166070280Y-74513440D03*
X166070280Y-71973440D03*
D23*
X149803800Y-87711280D03*
D24*
X147263800Y-87711280D03*
X144723800Y-87711280D03*
D23*
X160741360Y-124861320D03*
D24*
X163281360Y-124861320D03*
X165821360Y-124861320D03*
D23*
X151587200Y-52796440D03*
D24*
X149047200Y-52796440D03*
X146507200Y-52796440D03*
X143967200Y-52796440D03*
D23*
X128498600Y-76250800D03*
D24*
X128498600Y-78790800D03*
X128498600Y-81330800D03*
X128498600Y-83870800D03*
X128498600Y-86410800D03*
X128498600Y-88950800D03*
X128498600Y-91490800D03*
X128498600Y-94030800D03*
X128498600Y-96570800D03*
X128498600Y-99110800D03*
X128498600Y-101650800D03*
X128498600Y-104190800D03*
X128498600Y-106730800D03*
X128498600Y-109270800D03*
X128498600Y-111810800D03*
X128498600Y-114350800D03*
X128498600Y-116890800D03*
X128498600Y-119430800D03*
X128498600Y-121970800D03*
X128498600Y-124510800D03*
M02*
