M48
;DRILL file {KiCad 4.0.7-e2-6376~58~ubuntu17.04.1} date Wed Oct 25 20:24:15 2017
;FORMAT={-:-/ absolute / inch / decimal}
FMAT,2
INCH,TZ
T1C0.016
T2C0.030
T3C0.035
T4C0.039
T5C0.049
%
G90
G05
M72
T1
X5.0193Y-2.2839
X5.0213Y-4.9012
X5.0228Y-2.5732
X5.0394Y-4.7827
X5.0496Y-2.7539
X5.0665Y-3.9248
X5.0913Y-2.7138
X5.1461Y-3.9148
X5.1703Y-3.8541
X5.1827Y-4.9012
X5.2004Y-3.8094
X5.2209Y-3.7389
X5.2557Y-3.7362
X5.2815Y-3.6063
X5.2852Y-3.734
X5.3031Y-4.898
X5.313Y-3.5303
X5.3154Y-4.7772
X5.3161Y-3.9092
X5.3209Y-3.7311
X5.3445Y-2.9161
X5.3626Y-2.8197
X5.3705Y-2.892
X5.4025Y-2.609
X5.4031Y-2.8201
X5.4516Y-4.0488
X5.4613Y-2.6238
X5.4634Y-2.8185
X5.4646Y-4.898
X5.4657Y-2.4268
X5.4953Y-2.5382
X5.4953Y-2.7693
X5.4965Y-3.2709
X5.5291Y-2.4406
X5.5417Y-3.6469
X5.5453Y-2.7693
X5.5813Y-3.8838
X5.5894Y-4.8937
X5.5913Y-2.6538
X5.6067Y-4.7713
X5.626Y-2.3528
X5.6413Y-3.5738
X5.6457Y-3.8717
X5.6575Y-2.2161
X5.6646Y-2.5606
X5.7012Y-2.9039
X5.7035Y-2.6362
X5.7362Y-2.3724
X5.7396Y-2.7713
X5.7417Y-4.7673
X5.7433Y-2.3193
X5.7508Y-4.8937
X5.7618Y-2.8289
X5.7622Y-3.6165
X5.7854Y-3.828
X5.7858Y-4.8343
X5.7874Y-3.1929
X5.7992Y-3.6535
X5.8113Y-4.2738
X5.8283Y-3.311
X5.8313Y-3.6644
X5.839Y-3.2815
X5.8421Y-3.6165
X5.8441Y-2.7831
X5.8508Y-3.8315
X5.8559Y-3.9244
X5.8669Y-2.072
X5.8717Y-2.1846
X5.8858Y-3.826
X5.8858Y-2.7618
X5.8909Y-3.5488
X5.8986Y-3.2839
X5.8997Y-2.8355
X5.9012Y-3.5181
X5.902Y-3.352
X5.9048Y-3.4824
X5.9072Y-3.9432
X5.9143Y-3.6595
X5.9189Y-3.8562
X5.9315Y-4.2299
X5.9341Y-3.5877
X5.9364Y-3.6172
X5.9472Y-3.9039
X5.9504Y-3.9773
X5.9594Y-3.1957
X5.961Y-4.0492
X5.9614Y-2.2114
X5.9688Y-3.6185
X5.9754Y-3.5427
X5.985Y-3.2783
X5.9965Y-3.6374
X6.0013Y-3.7038
X6.0063Y-3.8457
X6.0126Y-2.1559
X6.0126Y-4.2327
X6.0157Y-4.4862
X6.0256Y-2.4992
X6.0437Y-3.0069
X6.0449Y-2.7882
X6.0513Y-2.6338
X6.0579Y-4.0902
X6.0677Y-3.0741
X6.072Y-3.9287
X6.0764Y-4.1201
X6.0783Y-4.1653
X6.0953Y-4.0031
X6.0955Y-4.0915
X6.1012Y-2.5929
X6.1224Y-4.1047
X6.1437Y-4.2315
X6.1465Y-4.3283
X6.1571Y-3.9429
X6.1576Y-3.5111
X6.1689Y-3.3469
X6.1758Y-3.4878
X6.189Y-3.9417
X6.1913Y-3.4193
X6.1933Y-4.7681
X6.2039Y-2.1835
X6.2061Y-3.5903
X6.2157Y-3.9953
X6.2161Y-4.0819
X6.2169Y-3.561
X6.2362Y-2.7965
X6.2431Y-3.4838
X6.2441Y-3.3398
X6.252Y-3.4465
X6.261Y-2.5303
X6.274Y-3.3815
X6.2894Y-2.9181
X6.3024Y-3.9953
X6.311Y-4.0402
X6.3134Y-2.5878
X6.3228Y-3.2378
X6.3346Y-3.5146
X6.3378Y-2.5677
X6.3409Y-3.0146
X6.3425Y-2.5008
X6.3504Y-3.4492
X6.3768Y-2.176
X6.387Y-3.1028
X6.3878Y-2.4476
X6.3927Y-2.8296
X6.4173Y-3.9941
X6.437Y-3.002
X6.439Y-4.1122
X6.4433Y-3.2492
X6.4445Y-3.4169
X6.465Y-3.3126
X6.4685Y-4.0319
X6.5094Y-2.6177
X6.5118Y-3.8287
X6.5512Y-4.0642
X6.5547Y-2.711
X6.5587Y-3.2496
X6.589Y-3.3317
T2
X5.9488Y-3.0346
X6.1882Y-2.0469
X6.2787Y-3.55
T3
X5.2815Y-2.2957
X5.2815Y-2.3957
T4
X5.4232Y-4.3445
X5.4232Y-4.6437
X5.7051Y-2.4317
X5.8041Y-4.377
X5.8041Y-4.577
X5.8051Y-2.3317
X5.9041Y-4.477
X5.9051Y-2.4317
X6.4039Y-4.189
X6.4039Y-4.289
X6.4039Y-4.389
X6.4039Y-4.489
X6.4039Y-4.589
X6.4039Y-4.689
X6.4039Y-4.789
X6.4039Y-4.889
X6.5039Y-4.189
X6.5039Y-4.289
X6.5039Y-4.389
X6.5039Y-4.489
X6.5039Y-4.589
X6.5039Y-4.689
X6.5039Y-4.789
X6.5039Y-4.889
X6.5559Y-2.2764
X6.5559Y-2.3764
X6.5559Y-2.4764
T5
X5.5295Y-2.3118
T0
M30
