M48
;DRILL file {KiCad 4.0.5+dfsg1-4} date Fri May 26 12:56:03 2017
;FORMAT={-:-/ absolute / inch / decimal}
FMAT,2
INCH,TZ
T1C0.016
T2C0.024
T3C0.035
T4C0.039
T5C0.040
T6C0.236
%
G90
G05
M72
T1
X4.4995Y-3.4457
X4.5871Y-3.3229
X4.6195Y-3.5757
X4.6371Y-4.2129
X4.6971Y-3.7129
X4.7292Y-3.808
X4.7321Y-3.7529
X4.7597Y-3.9901
X4.9034Y-3.433
X4.9152Y-3.8218
X5.053Y-3.9753
X5.0589Y-3.807
X5.4371Y-3.3929
X5.4615Y-3.5127
X5.4969Y-3.8877
X5.5176Y-4.242
X5.5195Y-4.2834
X5.5243Y-3.2048
X5.6871Y-3.7729
X6.2171Y-4.1729
X6.6671Y-3.1529
X6.7162Y-4.0857
X6.8071Y-3.6629
X6.8095Y-3.8757
X6.8522Y-3.0659
X7.1171Y-3.5529
X7.1396Y-3.7529
X7.1471Y-3.4029
X7.1888Y-3.5659
X7.2695Y-3.1857
X7.3394Y-3.4271
X7.4143Y-3.4148
T2
X4.6162Y-3.78
X4.6195Y-3.3757
X4.6419Y-3.9547
X4.7795Y-3.2657
X5.3231Y-3.6721
X5.5571Y-3.2929
X5.5995Y-4.1057
X5.8395Y-3.6757
X5.9671Y-3.4929
X6.3895Y-3.0957
X6.4271Y-3.7329
X6.6298Y-3.2883
X6.8495Y-4.3257
X6.8771Y-3.6729
X6.9526Y-3.7194
X6.9869Y-3.9731
X6.988Y-3.7548
X7.0195Y-3.7863
X7.023Y-4.2427
X7.0766Y-4.1111
X7.1396Y-3.2981
X7.2195Y-4.4657
X7.2243Y-3.7706
X7.228Y-3.3996
X7.2295Y-3.4457
X7.2774Y-3.8907
X7.4043Y-3.1448
T3
X7.1239Y-4.2174
X7.1295Y-4.0285
X7.2239Y-4.2174
X7.2295Y-4.0285
T4
X4.5633Y-4.1545
X4.5633Y-4.2335
X4.5633Y-4.3125
X4.6042Y-4.43
X4.6282Y-2.9271
X4.7042Y-4.43
X4.7282Y-2.9271
X4.8042Y-4.43
X4.8282Y-2.9271
X4.9042Y-4.43
X4.9282Y-2.9271
X5.0042Y-4.43
X5.0282Y-2.9271
X5.1042Y-4.43
X5.1282Y-2.9271
X5.2042Y-4.43
X5.2282Y-2.9271
X5.3042Y-4.43
X5.3282Y-2.9271
X5.4042Y-4.43
X5.4282Y-2.9271
X5.5042Y-4.43
X5.5282Y-2.9271
X5.6042Y-4.43
X5.6282Y-2.9271
X5.7042Y-4.43
X5.7282Y-2.9271
X5.8042Y-4.43
X5.8282Y-2.9271
X5.9042Y-4.43
X5.9282Y-2.9271
X6.0042Y-4.43
X6.0282Y-2.9271
X6.1042Y-4.43
X6.1282Y-2.9271
X6.1711Y-3.5718
X6.1711Y-3.6718
X6.1711Y-3.7718
X6.2042Y-4.43
X6.2282Y-2.9271
X6.3042Y-4.43
X6.3282Y-2.9271
X6.4042Y-4.43
X6.4282Y-2.9271
X6.5042Y-4.43
X6.5282Y-2.9271
X6.6475Y-3.5206
X6.6475Y-3.8198
X7.0499Y-2.934
X7.1499Y-2.934
X7.2499Y-2.934
X7.4388Y-3.5167
X7.4388Y-3.6167
X7.4388Y-3.7167
X7.4388Y-3.8167
T5
X7.2435Y-3.6614
T6
X4.3884Y-3.6757
X7.6584Y-3.6757
T0
M30
