G04 #@! TF.FileFunction,Copper,L2,Bot,Signal*
%FSLAX46Y46*%
G04 Gerber Fmt 4.6, Leading zero omitted, Abs format (unit mm)*
G04 Created by KiCad (PCBNEW 4.0.5+dfsg1-4) date Fri May 26 12:51:21 2017*
%MOMM*%
%LPD*%
G01*
G04 APERTURE LIST*
%ADD10C,0.100000*%
%ADD11R,1.800000X1.800000*%
%ADD12C,1.800000*%
%ADD13R,1.700000X1.700000*%
%ADD14O,1.700000X1.700000*%
%ADD15C,1.524000*%
%ADD16R,1.200000X1.200000*%
%ADD17C,1.200000*%
%ADD18R,1.100000X1.500000*%
%ADD19C,7.000000*%
%ADD20C,1.500000*%
%ADD21C,0.500000*%
%ADD22C,0.600000*%
%ADD23C,1.676000*%
%ADD24C,0.900000*%
%ADD25C,0.400000*%
%ADD26C,0.250000*%
%ADD27C,0.600000*%
%ADD28C,0.254000*%
G04 APERTURE END LIST*
D10*
D11*
X181090302Y-102322972D03*
D12*
X183630302Y-102322972D03*
D13*
X188946302Y-89322972D03*
D14*
X188946302Y-91862972D03*
X188946302Y-94402972D03*
X188946302Y-96942972D03*
D15*
X184146302Y-74522972D03*
X181606302Y-74522972D03*
X179066302Y-74522972D03*
D13*
X116946302Y-112522972D03*
D14*
X119486302Y-112522972D03*
X122026302Y-112522972D03*
X124566302Y-112522972D03*
X127106302Y-112522972D03*
X129646302Y-112522972D03*
X132186302Y-112522972D03*
X134726302Y-112522972D03*
X137266302Y-112522972D03*
X139806302Y-112522972D03*
X142346302Y-112522972D03*
X144886302Y-112522972D03*
X147426302Y-112522972D03*
X149966302Y-112522972D03*
X152506302Y-112522972D03*
X155046302Y-112522972D03*
X157586302Y-112522972D03*
X160126302Y-112522972D03*
X162666302Y-112522972D03*
X165206302Y-112522972D03*
D13*
X165816302Y-74347972D03*
D14*
X163276302Y-74347972D03*
X160736302Y-74347972D03*
X158196302Y-74347972D03*
X155656302Y-74347972D03*
X153116302Y-74347972D03*
X150576302Y-74347972D03*
X148036302Y-74347972D03*
X145496302Y-74347972D03*
X142956302Y-74347972D03*
X140416302Y-74347972D03*
X137876302Y-74347972D03*
X135336302Y-74347972D03*
X132796302Y-74347972D03*
X130256302Y-74347972D03*
X127716302Y-74347972D03*
X125176302Y-74347972D03*
X122636302Y-74347972D03*
X120096302Y-74347972D03*
X117556302Y-74347972D03*
D16*
X115908702Y-105523772D03*
D17*
X115908702Y-109536972D03*
X115908702Y-107530372D03*
D18*
X132146502Y-88763572D03*
X130343102Y-88763572D03*
X128539702Y-88763572D03*
X128539702Y-98263172D03*
X130343102Y-98263172D03*
D15*
X139596302Y-100072972D03*
X124846302Y-98572972D03*
X124596302Y-88372972D03*
D11*
X180946302Y-107122972D03*
D12*
X183486302Y-107122972D03*
D15*
X139546302Y-88372972D03*
D19*
X194524302Y-93361972D03*
X111466302Y-93361972D03*
D13*
X156746302Y-90722972D03*
D14*
X156746302Y-93262972D03*
X156746302Y-95802972D03*
D20*
X168846302Y-97022972D03*
X168846302Y-89422972D03*
D21*
X184796302Y-91722972D03*
X184796302Y-94222972D03*
D22*
X182596302Y-94197972D03*
X181396302Y-94222972D03*
X181396302Y-92972972D03*
X181396302Y-91722972D03*
X182596302Y-91772972D03*
D23*
X183985342Y-92999012D03*
D22*
X174046302Y-77872972D03*
D24*
X176596302Y-94472972D03*
X177496302Y-95372972D03*
X178296302Y-96172972D03*
X188070302Y-79878972D03*
X183496302Y-95772972D03*
X184846302Y-98822972D03*
X177467551Y-100916221D03*
X173978302Y-109872972D03*
X178384698Y-107765074D03*
X117252215Y-96013124D03*
X117336302Y-85742972D03*
X117904587Y-100449781D03*
X162294302Y-78630972D03*
X168396302Y-83522972D03*
X183376302Y-113428972D03*
X183630302Y-87520972D03*
X183590954Y-86348607D03*
X148324302Y-93362972D03*
X135207624Y-93271650D03*
X142228302Y-104284972D03*
X121400302Y-82948972D03*
X141150302Y-83638972D03*
X151564302Y-88718972D03*
X174678302Y-93290972D03*
X163248302Y-94814972D03*
D22*
X182596302Y-90572972D03*
X180774302Y-90242972D03*
X128346302Y-100972972D03*
X184646302Y-80916972D03*
D24*
X179746302Y-104422972D03*
D22*
X119306302Y-94306972D03*
X144452302Y-95830972D03*
X186421302Y-87047972D03*
X188324302Y-86736972D03*
X116512302Y-84400972D03*
X172962302Y-98442972D03*
X170592300Y-103776972D03*
X172900302Y-93036972D03*
X138721302Y-89222972D03*
X139621302Y-98747972D03*
X124846302Y-97072972D03*
X124546302Y-87197972D03*
X120196302Y-95322972D03*
X120121302Y-96722972D03*
X157914302Y-105990972D03*
X181536302Y-86432972D03*
X128496302Y-96697972D03*
X120896302Y-101347972D03*
X140318302Y-81402972D03*
X169344302Y-80082972D03*
X140196302Y-108797972D03*
X140146302Y-107747972D03*
D24*
X181346302Y-83772972D03*
D22*
X117336302Y-90822972D03*
X114288302Y-87520972D03*
X117782302Y-107006972D03*
X138102302Y-86178972D03*
X181346302Y-95322972D03*
D25*
X183496302Y-95772972D02*
X183496302Y-95097972D01*
X183496302Y-95097972D02*
X182596302Y-94197972D01*
X184796302Y-94222972D02*
X184796302Y-94472972D01*
X184796302Y-94472972D02*
X183496302Y-95772972D01*
X184796302Y-91722972D02*
X184796302Y-92188052D01*
X184796302Y-92188052D02*
X183985342Y-92999012D01*
X184796302Y-91722972D02*
X184796302Y-88686972D01*
X184796302Y-88686972D02*
X183630302Y-87520972D01*
X184796302Y-94222972D02*
X184796302Y-93809972D01*
X184796302Y-93809972D02*
X183985342Y-92999012D01*
X181396302Y-92972972D02*
X181396302Y-92997972D01*
X181396302Y-92997972D02*
X182596302Y-94197972D01*
X182596302Y-94247972D02*
X182596302Y-94222972D01*
X184796302Y-91772972D02*
X184796302Y-88686972D01*
X183630302Y-102322972D02*
X183630302Y-102252972D01*
X117252215Y-96013124D02*
X116546311Y-95307220D01*
X116546311Y-95307220D02*
X116546311Y-91216983D01*
X116536301Y-91206973D02*
X116536301Y-86542973D01*
X116546311Y-91216983D02*
X116536301Y-91206973D01*
X116536301Y-86542973D02*
X117336302Y-85742972D01*
X135207624Y-93271650D02*
X148232980Y-93271650D01*
X148232980Y-93271650D02*
X148324302Y-93362972D01*
X182596302Y-90572972D02*
X182596302Y-91822972D01*
X181396302Y-91772972D02*
X181396302Y-90864972D01*
X181396302Y-90864972D02*
X180774302Y-90242972D01*
D26*
X130343102Y-98263172D02*
X130343102Y-98463172D01*
X130343102Y-98463172D02*
X128346302Y-100459972D01*
X128346302Y-100459972D02*
X128346302Y-100972972D01*
D25*
X184646302Y-80916972D02*
X185546303Y-81816973D01*
X185546303Y-95184971D02*
X165850302Y-114880972D01*
X185546303Y-81816973D02*
X185546303Y-95184971D01*
X132004302Y-114880972D02*
X129646302Y-112522972D01*
X165850302Y-114880972D02*
X132004302Y-114880972D01*
D27*
X179746302Y-104422972D02*
X184796302Y-104422972D01*
X184796302Y-104422972D02*
X187496301Y-101722973D01*
X187496301Y-101722973D02*
X187496301Y-90886973D01*
X187496301Y-90886973D02*
X188946302Y-89436972D01*
X188946302Y-89436972D02*
X188946302Y-89322972D01*
X144452302Y-95830972D02*
X143910301Y-96372973D01*
X143910301Y-96372973D02*
X130232301Y-96372973D01*
X130232301Y-96372973D02*
X128166300Y-94306972D01*
X128166300Y-94306972D02*
X119306302Y-94306972D01*
D25*
X186421302Y-87047972D02*
X186755848Y-87382518D01*
X186755848Y-87382518D02*
X187678756Y-87382518D01*
X187678756Y-87382518D02*
X188324302Y-86736972D01*
X130343102Y-88563572D02*
X126180502Y-84400972D01*
X126180502Y-84400972D02*
X116512302Y-84400972D01*
X130343102Y-88563572D02*
X130343102Y-88763572D01*
X170592300Y-103776972D02*
X172962302Y-101406970D01*
X172962302Y-101406970D02*
X172962302Y-98442972D01*
X172900302Y-93036972D02*
X172900302Y-82602970D01*
X172900302Y-82602970D02*
X166795315Y-76497983D01*
X166795315Y-76497983D02*
X142566313Y-76497983D01*
X142566313Y-76497983D02*
X140416302Y-74347972D01*
D26*
X138721302Y-89222972D02*
X138721302Y-89197972D01*
X138721302Y-89197972D02*
X139546302Y-88372972D01*
X139621302Y-98747972D02*
X139621302Y-100047972D01*
X139621302Y-100047972D02*
X139596302Y-100072972D01*
X124846302Y-97072972D02*
X124846302Y-98572972D01*
X124546302Y-87197972D02*
X124546302Y-88322972D01*
X124546302Y-88322972D02*
X124596302Y-88372972D01*
D25*
X188946302Y-91862972D02*
X190246302Y-90562972D01*
X190246302Y-90562972D02*
X190246302Y-78903210D01*
X190246302Y-78903210D02*
X184341063Y-72997971D01*
X184341063Y-72997971D02*
X131606303Y-72997971D01*
X131606303Y-72997971D02*
X130256302Y-74347972D01*
D26*
X119021302Y-109347972D02*
X119021302Y-96497972D01*
X119021302Y-96497972D02*
X120196302Y-95322972D01*
X116946302Y-112522972D02*
X116946302Y-111422972D01*
X116946302Y-111422972D02*
X119021302Y-109347972D01*
X119486302Y-112522972D02*
X119486302Y-97357972D01*
X119486302Y-97357972D02*
X120121302Y-96722972D01*
D25*
X132186302Y-112522972D02*
X151446302Y-93262972D01*
X151446302Y-93262972D02*
X156746302Y-93262972D01*
X181536302Y-86432972D02*
X180074301Y-87894973D01*
X180074301Y-87894973D02*
X180074301Y-99652975D01*
X180074301Y-99652975D02*
X165854303Y-113872973D01*
X165854303Y-113872973D02*
X143696303Y-113872973D01*
X143696303Y-113872973D02*
X142346302Y-112522972D01*
X157914302Y-105990972D02*
X140867300Y-105990972D01*
X140867300Y-105990972D02*
X139446301Y-107411971D01*
X139446301Y-107411971D02*
X139446301Y-109622971D01*
X139446301Y-109622971D02*
X142346302Y-112522972D01*
D26*
X128496302Y-96697972D02*
X128496302Y-98219772D01*
X128496302Y-98219772D02*
X128539702Y-98263172D01*
X120896302Y-101347972D02*
X125654902Y-101347972D01*
X125654902Y-101347972D02*
X128539702Y-98463172D01*
X128539702Y-98463172D02*
X128539702Y-98263172D01*
D25*
X165718302Y-81402972D02*
X167038302Y-80082972D01*
X167038302Y-80082972D02*
X169344302Y-80082972D01*
X140318302Y-81402972D02*
X165718302Y-81402972D01*
X140196302Y-108797972D02*
X148781302Y-108797972D01*
X148781302Y-108797972D02*
X152506302Y-112522972D01*
X155046302Y-112522972D02*
X150271302Y-107747972D01*
X150271302Y-107747972D02*
X140146302Y-107747972D01*
D27*
X178446302Y-84172972D02*
X180946302Y-84172972D01*
X180946302Y-84172972D02*
X181346302Y-83772972D01*
X170393303Y-75797973D02*
X170393303Y-76119973D01*
X170393303Y-76119973D02*
X178446302Y-84172972D01*
X117336302Y-90822972D02*
X126680302Y-90822972D01*
X126680302Y-90822972D02*
X128539702Y-88963572D01*
X128539702Y-88963572D02*
X128539702Y-88763572D01*
X114288302Y-90263970D02*
X114288302Y-87520972D01*
X115746301Y-103081369D02*
X115746301Y-91721969D01*
X115746301Y-91721969D02*
X114288302Y-90263970D01*
X181396302Y-94272972D02*
X181374060Y-94272972D01*
X117782302Y-105117370D02*
X115746301Y-103081369D01*
X117782302Y-107006972D02*
X117782302Y-105117370D01*
X138102302Y-86178972D02*
X137340302Y-86940972D01*
X137340302Y-86940972D02*
X133276302Y-86940972D01*
X132146502Y-88070772D02*
X132146502Y-88763572D01*
X133276302Y-86940972D02*
X132146502Y-88070772D01*
X128539702Y-88763572D02*
X128539702Y-89160174D01*
X128539702Y-89160174D02*
X129393101Y-90013573D01*
X131293103Y-90013573D02*
X132146502Y-89160174D01*
X129393101Y-90013573D02*
X131293103Y-90013573D01*
X132146502Y-89160174D02*
X132146502Y-88763572D01*
X170393303Y-75797973D02*
X162186303Y-75797973D01*
X162186303Y-75797973D02*
X160736302Y-74347972D01*
D25*
X128539702Y-88763572D02*
X128539702Y-88980174D01*
X132146502Y-88963572D02*
X132146502Y-88763572D01*
D27*
X181346302Y-95322972D02*
X181346302Y-94322972D01*
X181346302Y-94322972D02*
X181396302Y-94272972D01*
D28*
G36*
X113954302Y-114622972D02*
X113954302Y-98441972D01*
X113900256Y-98170267D01*
X113746348Y-97939926D01*
X113516007Y-97786018D01*
X113244302Y-97731972D01*
X107731302Y-97731972D01*
X107731302Y-95150672D01*
X107958776Y-95701201D01*
X109120955Y-96865410D01*
X110640191Y-97496252D01*
X112285196Y-97497688D01*
X113805531Y-96869498D01*
X114811301Y-95865482D01*
X114811301Y-103081369D01*
X114882474Y-103439178D01*
X115085156Y-103742514D01*
X115781700Y-104439058D01*
X115781700Y-104447520D01*
X115622952Y-104288772D01*
X115182392Y-104288772D01*
X114949003Y-104385445D01*
X114770375Y-104564074D01*
X114673702Y-104797463D01*
X114673702Y-105238022D01*
X114832452Y-105396772D01*
X115781702Y-105396772D01*
X115781702Y-105376772D01*
X116035702Y-105376772D01*
X116035702Y-105396772D01*
X116055702Y-105396772D01*
X116055702Y-105650772D01*
X116035702Y-105650772D01*
X116035702Y-105670772D01*
X115781702Y-105670772D01*
X115781702Y-105650772D01*
X114832452Y-105650772D01*
X114673702Y-105809522D01*
X114673702Y-106250081D01*
X114770375Y-106483470D01*
X114949003Y-106662099D01*
X115006539Y-106685931D01*
X114862331Y-106829887D01*
X114673917Y-107283638D01*
X114673488Y-107774951D01*
X114861110Y-108229029D01*
X115165448Y-108533899D01*
X114862331Y-108836487D01*
X114673917Y-109290238D01*
X114673488Y-109781551D01*
X114861110Y-110235629D01*
X115208217Y-110583343D01*
X115661968Y-110771757D01*
X116153281Y-110772186D01*
X116607359Y-110584564D01*
X116955073Y-110237457D01*
X117143487Y-109783706D01*
X117143916Y-109292393D01*
X116956294Y-108838315D01*
X116651956Y-108533445D01*
X116955073Y-108230857D01*
X117143487Y-107777106D01*
X117143563Y-107690562D01*
X117251975Y-107799164D01*
X117595503Y-107941810D01*
X117967469Y-107942134D01*
X118261302Y-107820725D01*
X118261302Y-109033170D01*
X116408901Y-110885571D01*
X116315382Y-111025532D01*
X116096302Y-111025532D01*
X115860985Y-111069810D01*
X115644861Y-111208882D01*
X115499871Y-111421082D01*
X115448862Y-111672972D01*
X115448862Y-113372972D01*
X115493140Y-113608289D01*
X115632212Y-113824413D01*
X115844412Y-113969403D01*
X116096302Y-114020412D01*
X117796302Y-114020412D01*
X118031619Y-113976134D01*
X118247743Y-113837062D01*
X118392733Y-113624862D01*
X118406388Y-113557431D01*
X118436248Y-113602119D01*
X118918017Y-113924026D01*
X119486302Y-114037065D01*
X120054587Y-113924026D01*
X120536356Y-113602119D01*
X120756302Y-113272946D01*
X120976248Y-113602119D01*
X121458017Y-113924026D01*
X122026302Y-114037065D01*
X122594587Y-113924026D01*
X123076356Y-113602119D01*
X123296302Y-113272946D01*
X123516248Y-113602119D01*
X123998017Y-113924026D01*
X124566302Y-114037065D01*
X125134587Y-113924026D01*
X125616356Y-113602119D01*
X125836302Y-113272946D01*
X126056248Y-113602119D01*
X126538017Y-113924026D01*
X127106302Y-114037065D01*
X127674587Y-113924026D01*
X128156356Y-113602119D01*
X128376302Y-113272946D01*
X128596248Y-113602119D01*
X129078017Y-113924026D01*
X129646302Y-114037065D01*
X129924241Y-113981779D01*
X130565434Y-114622972D01*
X113954302Y-114622972D01*
X113954302Y-114622972D01*
G37*
X113954302Y-114622972D02*
X113954302Y-98441972D01*
X113900256Y-98170267D01*
X113746348Y-97939926D01*
X113516007Y-97786018D01*
X113244302Y-97731972D01*
X107731302Y-97731972D01*
X107731302Y-95150672D01*
X107958776Y-95701201D01*
X109120955Y-96865410D01*
X110640191Y-97496252D01*
X112285196Y-97497688D01*
X113805531Y-96869498D01*
X114811301Y-95865482D01*
X114811301Y-103081369D01*
X114882474Y-103439178D01*
X115085156Y-103742514D01*
X115781700Y-104439058D01*
X115781700Y-104447520D01*
X115622952Y-104288772D01*
X115182392Y-104288772D01*
X114949003Y-104385445D01*
X114770375Y-104564074D01*
X114673702Y-104797463D01*
X114673702Y-105238022D01*
X114832452Y-105396772D01*
X115781702Y-105396772D01*
X115781702Y-105376772D01*
X116035702Y-105376772D01*
X116035702Y-105396772D01*
X116055702Y-105396772D01*
X116055702Y-105650772D01*
X116035702Y-105650772D01*
X116035702Y-105670772D01*
X115781702Y-105670772D01*
X115781702Y-105650772D01*
X114832452Y-105650772D01*
X114673702Y-105809522D01*
X114673702Y-106250081D01*
X114770375Y-106483470D01*
X114949003Y-106662099D01*
X115006539Y-106685931D01*
X114862331Y-106829887D01*
X114673917Y-107283638D01*
X114673488Y-107774951D01*
X114861110Y-108229029D01*
X115165448Y-108533899D01*
X114862331Y-108836487D01*
X114673917Y-109290238D01*
X114673488Y-109781551D01*
X114861110Y-110235629D01*
X115208217Y-110583343D01*
X115661968Y-110771757D01*
X116153281Y-110772186D01*
X116607359Y-110584564D01*
X116955073Y-110237457D01*
X117143487Y-109783706D01*
X117143916Y-109292393D01*
X116956294Y-108838315D01*
X116651956Y-108533445D01*
X116955073Y-108230857D01*
X117143487Y-107777106D01*
X117143563Y-107690562D01*
X117251975Y-107799164D01*
X117595503Y-107941810D01*
X117967469Y-107942134D01*
X118261302Y-107820725D01*
X118261302Y-109033170D01*
X116408901Y-110885571D01*
X116315382Y-111025532D01*
X116096302Y-111025532D01*
X115860985Y-111069810D01*
X115644861Y-111208882D01*
X115499871Y-111421082D01*
X115448862Y-111672972D01*
X115448862Y-113372972D01*
X115493140Y-113608289D01*
X115632212Y-113824413D01*
X115844412Y-113969403D01*
X116096302Y-114020412D01*
X117796302Y-114020412D01*
X118031619Y-113976134D01*
X118247743Y-113837062D01*
X118392733Y-113624862D01*
X118406388Y-113557431D01*
X118436248Y-113602119D01*
X118918017Y-113924026D01*
X119486302Y-114037065D01*
X120054587Y-113924026D01*
X120536356Y-113602119D01*
X120756302Y-113272946D01*
X120976248Y-113602119D01*
X121458017Y-113924026D01*
X122026302Y-114037065D01*
X122594587Y-113924026D01*
X123076356Y-113602119D01*
X123296302Y-113272946D01*
X123516248Y-113602119D01*
X123998017Y-113924026D01*
X124566302Y-114037065D01*
X125134587Y-113924026D01*
X125616356Y-113602119D01*
X125836302Y-113272946D01*
X126056248Y-113602119D01*
X126538017Y-113924026D01*
X127106302Y-114037065D01*
X127674587Y-113924026D01*
X128156356Y-113602119D01*
X128376302Y-113272946D01*
X128596248Y-113602119D01*
X129078017Y-113924026D01*
X129646302Y-114037065D01*
X129924241Y-113981779D01*
X130565434Y-114622972D01*
X113954302Y-114622972D01*
G36*
X188416610Y-87825532D02*
X188612635Y-87629507D01*
X188853245Y-87530089D01*
X189116494Y-87267299D01*
X189259140Y-86923771D01*
X189259464Y-86551805D01*
X189117419Y-86208029D01*
X188854629Y-85944780D01*
X188511101Y-85802134D01*
X188139135Y-85801810D01*
X187795359Y-85943855D01*
X187532110Y-86206645D01*
X187431524Y-86448882D01*
X187332888Y-86547518D01*
X187226190Y-86547518D01*
X187214419Y-86519029D01*
X186951629Y-86255780D01*
X186608101Y-86113134D01*
X186381303Y-86112936D01*
X186381303Y-81816973D01*
X186317743Y-81497433D01*
X186136737Y-81226539D01*
X185538837Y-80628639D01*
X185439419Y-80388029D01*
X185176629Y-80124780D01*
X184833101Y-79982134D01*
X184461135Y-79981810D01*
X184117359Y-80123855D01*
X183854110Y-80386645D01*
X183711464Y-80730173D01*
X183711140Y-81102139D01*
X183853185Y-81445915D01*
X184115975Y-81709164D01*
X184358212Y-81809750D01*
X184711303Y-82162841D01*
X184711303Y-90842057D01*
X184533045Y-90859889D01*
X184372162Y-90926530D01*
X184366377Y-91116270D01*
X184711303Y-91461196D01*
X184711303Y-91695260D01*
X184524021Y-91627468D01*
X184189600Y-91293047D01*
X183999860Y-91298832D01*
X183931039Y-91526959D01*
X183625805Y-91540825D01*
X183528676Y-91581057D01*
X183431302Y-91345394D01*
X183431302Y-91000206D01*
X183531140Y-90759771D01*
X183531464Y-90387805D01*
X183389419Y-90044029D01*
X183126629Y-89780780D01*
X182783101Y-89638134D01*
X182411135Y-89637810D01*
X182067359Y-89779855D01*
X181804110Y-90042645D01*
X181789655Y-90077457D01*
X181666837Y-89954639D01*
X181567419Y-89714029D01*
X181304629Y-89450780D01*
X180961101Y-89308134D01*
X180909301Y-89308089D01*
X180909301Y-88240841D01*
X181824635Y-87325507D01*
X182065245Y-87226089D01*
X182328494Y-86963299D01*
X182471140Y-86619771D01*
X182471464Y-86247805D01*
X182329419Y-85904029D01*
X182066629Y-85640780D01*
X181723101Y-85498134D01*
X181351135Y-85497810D01*
X181007359Y-85639855D01*
X180744110Y-85902645D01*
X180643524Y-86144882D01*
X179483867Y-87304539D01*
X179302861Y-87575433D01*
X179239301Y-87894973D01*
X179239301Y-99307107D01*
X166562320Y-111984088D01*
X166401485Y-111641614D01*
X165973226Y-111251327D01*
X165563192Y-111081496D01*
X165333302Y-111202817D01*
X165333302Y-112395972D01*
X165353302Y-112395972D01*
X165353302Y-112649972D01*
X165333302Y-112649972D01*
X165333302Y-112669972D01*
X165079302Y-112669972D01*
X165079302Y-112649972D01*
X162793302Y-112649972D01*
X162793302Y-112669972D01*
X162539302Y-112669972D01*
X162539302Y-112649972D01*
X162519302Y-112649972D01*
X162519302Y-112395972D01*
X162539302Y-112395972D01*
X162539302Y-111202817D01*
X162309412Y-111081496D01*
X161899378Y-111251327D01*
X161471119Y-111641614D01*
X161404004Y-111784525D01*
X161176356Y-111443825D01*
X160694587Y-111121918D01*
X160126302Y-111008879D01*
X159558017Y-111121918D01*
X159076248Y-111443825D01*
X158856302Y-111772998D01*
X158636356Y-111443825D01*
X158154587Y-111121918D01*
X157586302Y-111008879D01*
X157018017Y-111121918D01*
X156536248Y-111443825D01*
X156316302Y-111772998D01*
X156096356Y-111443825D01*
X155614587Y-111121918D01*
X155046302Y-111008879D01*
X154768363Y-111064165D01*
X150861736Y-107157538D01*
X150590843Y-106976533D01*
X150271302Y-106912972D01*
X141126168Y-106912972D01*
X141213168Y-106825972D01*
X157487068Y-106825972D01*
X157727503Y-106925810D01*
X158099469Y-106926134D01*
X158443245Y-106784089D01*
X158706494Y-106521299D01*
X158849140Y-106177771D01*
X158849464Y-105805805D01*
X158707419Y-105462029D01*
X158444629Y-105198780D01*
X158101101Y-105056134D01*
X157729135Y-105055810D01*
X157486724Y-105155972D01*
X140867300Y-105155972D01*
X140701113Y-105189029D01*
X143213529Y-102676613D01*
X147563547Y-102633966D01*
X147608461Y-102625287D01*
X147650855Y-102598007D01*
X147679296Y-102556382D01*
X147689302Y-102506972D01*
X147689302Y-98200840D01*
X151792170Y-94097972D01*
X155523461Y-94097972D01*
X155667155Y-94313026D01*
X155996328Y-94532972D01*
X155667155Y-94752918D01*
X155345248Y-95234687D01*
X155232209Y-95802972D01*
X155345248Y-96371257D01*
X155667155Y-96853026D01*
X156148924Y-97174933D01*
X156717209Y-97287972D01*
X156775395Y-97287972D01*
X157343680Y-97174933D01*
X157825449Y-96853026D01*
X158147356Y-96371257D01*
X158260395Y-95802972D01*
X158147356Y-95234687D01*
X157825449Y-94752918D01*
X157496276Y-94532972D01*
X157825449Y-94313026D01*
X158147356Y-93831257D01*
X158260395Y-93262972D01*
X158147356Y-92694687D01*
X157825449Y-92212918D01*
X157781525Y-92183569D01*
X157956000Y-92111299D01*
X158134629Y-91932671D01*
X158231302Y-91699282D01*
X158231302Y-91008722D01*
X158072552Y-90849972D01*
X156873302Y-90849972D01*
X156873302Y-90869972D01*
X156619302Y-90869972D01*
X156619302Y-90849972D01*
X155420052Y-90849972D01*
X155261302Y-91008722D01*
X155261302Y-91699282D01*
X155357975Y-91932671D01*
X155536604Y-92111299D01*
X155711079Y-92183569D01*
X155667155Y-92212918D01*
X155523461Y-92427972D01*
X151446302Y-92427972D01*
X151126761Y-92491533D01*
X150861736Y-92668617D01*
X150855868Y-92672538D01*
X147689302Y-95839104D01*
X147689302Y-84218972D01*
X147680617Y-84172813D01*
X147653337Y-84130419D01*
X147611712Y-84101978D01*
X147562302Y-84091972D01*
X127052370Y-84091972D01*
X126770936Y-83810538D01*
X126500043Y-83629533D01*
X126180502Y-83565972D01*
X116939536Y-83565972D01*
X116699101Y-83466134D01*
X116327135Y-83465810D01*
X115983359Y-83607855D01*
X115720110Y-83870645D01*
X115577464Y-84214173D01*
X115577140Y-84586139D01*
X115719185Y-84929915D01*
X115981975Y-85193164D01*
X116325503Y-85335810D01*
X116697469Y-85336134D01*
X116939880Y-85235972D01*
X121527302Y-85235972D01*
X121527302Y-89887972D01*
X117337118Y-89887972D01*
X117151135Y-89887810D01*
X116807359Y-90029855D01*
X116544110Y-90292645D01*
X116401464Y-90636173D01*
X116401140Y-91008139D01*
X116447966Y-91121466D01*
X116407446Y-91060824D01*
X115223302Y-89876680D01*
X115223302Y-87521788D01*
X115223464Y-87335805D01*
X115081419Y-86992029D01*
X114818629Y-86728780D01*
X114475101Y-86586134D01*
X114103135Y-86585810D01*
X113954302Y-86647306D01*
X113954302Y-72862972D01*
X117410042Y-72862972D01*
X116988017Y-72946918D01*
X116506248Y-73268825D01*
X116184341Y-73750594D01*
X116071302Y-74318879D01*
X116071302Y-74377065D01*
X116184341Y-74945350D01*
X116506248Y-75427119D01*
X116988017Y-75749026D01*
X117556302Y-75862065D01*
X118124587Y-75749026D01*
X118606356Y-75427119D01*
X118826302Y-75097946D01*
X119046248Y-75427119D01*
X119528017Y-75749026D01*
X120096302Y-75862065D01*
X120664587Y-75749026D01*
X121146356Y-75427119D01*
X121366302Y-75097946D01*
X121586248Y-75427119D01*
X122068017Y-75749026D01*
X122636302Y-75862065D01*
X123204587Y-75749026D01*
X123686356Y-75427119D01*
X123906302Y-75097946D01*
X124126248Y-75427119D01*
X124608017Y-75749026D01*
X125176302Y-75862065D01*
X125744587Y-75749026D01*
X126226356Y-75427119D01*
X126446302Y-75097946D01*
X126666248Y-75427119D01*
X127148017Y-75749026D01*
X127716302Y-75862065D01*
X128284587Y-75749026D01*
X128766356Y-75427119D01*
X128986302Y-75097946D01*
X129206248Y-75427119D01*
X129688017Y-75749026D01*
X130256302Y-75862065D01*
X130824587Y-75749026D01*
X131306356Y-75427119D01*
X131526302Y-75097946D01*
X131746248Y-75427119D01*
X132228017Y-75749026D01*
X132796302Y-75862065D01*
X133364587Y-75749026D01*
X133846356Y-75427119D01*
X134066302Y-75097946D01*
X134286248Y-75427119D01*
X134768017Y-75749026D01*
X135336302Y-75862065D01*
X135904587Y-75749026D01*
X136386356Y-75427119D01*
X136606302Y-75097946D01*
X136826248Y-75427119D01*
X137308017Y-75749026D01*
X137876302Y-75862065D01*
X138444587Y-75749026D01*
X138926356Y-75427119D01*
X139146302Y-75097946D01*
X139366248Y-75427119D01*
X139848017Y-75749026D01*
X140416302Y-75862065D01*
X140694241Y-75806779D01*
X141975879Y-77088417D01*
X142246773Y-77269423D01*
X142566313Y-77332983D01*
X166449447Y-77332983D01*
X168364436Y-79247972D01*
X167038302Y-79247972D01*
X166718761Y-79311533D01*
X166621741Y-79376360D01*
X166447868Y-79492538D01*
X165372434Y-80567972D01*
X140745536Y-80567972D01*
X140505101Y-80468134D01*
X140133135Y-80467810D01*
X139789359Y-80609855D01*
X139526110Y-80872645D01*
X139383464Y-81216173D01*
X139383140Y-81588139D01*
X139525185Y-81931915D01*
X139787975Y-82195164D01*
X140131503Y-82337810D01*
X140503469Y-82338134D01*
X140745880Y-82237972D01*
X156460552Y-82237972D01*
X156460552Y-89237972D01*
X155769993Y-89237972D01*
X155536604Y-89334645D01*
X155357975Y-89513273D01*
X155261302Y-89746662D01*
X155261302Y-90437222D01*
X155420052Y-90595972D01*
X156619302Y-90595972D01*
X156619302Y-89396722D01*
X156460552Y-89237972D01*
X156460552Y-82237972D01*
X157722611Y-82237972D01*
X157722611Y-89237972D01*
X157032052Y-89237972D01*
X156873302Y-89396722D01*
X156873302Y-90595972D01*
X158072552Y-90595972D01*
X158231302Y-90437222D01*
X158231302Y-89746662D01*
X158134629Y-89513273D01*
X157956000Y-89334645D01*
X157722611Y-89237972D01*
X157722611Y-82237972D01*
X164849412Y-82237972D01*
X164849412Y-111081496D01*
X164439378Y-111251327D01*
X164011119Y-111641614D01*
X163936302Y-111800926D01*
X163861485Y-111641614D01*
X163433226Y-111251327D01*
X163023192Y-111081496D01*
X162793302Y-111202817D01*
X162793302Y-112395972D01*
X165079302Y-112395972D01*
X165079302Y-111202817D01*
X164849412Y-111081496D01*
X164849412Y-82237972D01*
X165718302Y-82237972D01*
X166037843Y-82174411D01*
X166308736Y-81993406D01*
X167384170Y-80917972D01*
X167874785Y-80917972D01*
X167874785Y-88631060D01*
X167633842Y-88699049D01*
X167449101Y-89218143D01*
X167477072Y-89768420D01*
X167633842Y-90146895D01*
X167874785Y-90214884D01*
X168666697Y-89422972D01*
X167874785Y-88631060D01*
X167874785Y-80917972D01*
X168917068Y-80917972D01*
X169051131Y-80973640D01*
X169051131Y-88025771D01*
X168500854Y-88053742D01*
X168122379Y-88210512D01*
X168054390Y-88451455D01*
X168846302Y-89243367D01*
X168846302Y-89602577D01*
X168054390Y-90394489D01*
X168122379Y-90635432D01*
X168572017Y-90795454D01*
X168572017Y-95637732D01*
X168062787Y-95848141D01*
X167672841Y-96237408D01*
X167461543Y-96746270D01*
X167461062Y-97297257D01*
X167671471Y-97806487D01*
X168060738Y-98196433D01*
X168569600Y-98407731D01*
X169120587Y-98408212D01*
X169629817Y-98197803D01*
X170019763Y-97808536D01*
X170231061Y-97299674D01*
X170231542Y-96748687D01*
X170021133Y-96239457D01*
X169631866Y-95849511D01*
X169123004Y-95638213D01*
X168572017Y-95637732D01*
X168572017Y-90795454D01*
X168641473Y-90820173D01*
X169191750Y-90792202D01*
X169570225Y-90635432D01*
X169638214Y-90394489D01*
X168846302Y-89602577D01*
X168846302Y-89243367D01*
X169638214Y-88451455D01*
X169570225Y-88210512D01*
X169051131Y-88025771D01*
X169051131Y-80973640D01*
X169157503Y-81017810D01*
X169529469Y-81018134D01*
X169817819Y-80898991D01*
X169817819Y-88631060D01*
X169025907Y-89422972D01*
X169817819Y-90214884D01*
X170058762Y-90146895D01*
X170243503Y-89627801D01*
X170215532Y-89077524D01*
X170058762Y-88699049D01*
X169817819Y-88631060D01*
X169817819Y-80898991D01*
X169873245Y-80876089D01*
X169932951Y-80816487D01*
X172065302Y-82948838D01*
X172065302Y-92609738D01*
X171965464Y-92850173D01*
X171965140Y-93222139D01*
X172107185Y-93565915D01*
X172369975Y-93829164D01*
X172713503Y-93971810D01*
X172777135Y-93971865D01*
X172777135Y-97507810D01*
X172433359Y-97649855D01*
X172170110Y-97912645D01*
X172027464Y-98256173D01*
X172027140Y-98628139D01*
X172127302Y-98870550D01*
X172127302Y-101061102D01*
X170303967Y-102884437D01*
X170063357Y-102983855D01*
X169800108Y-103246645D01*
X169657462Y-103590173D01*
X169657138Y-103962139D01*
X169799183Y-104305915D01*
X170061973Y-104569164D01*
X170405501Y-104711810D01*
X170777467Y-104712134D01*
X171121243Y-104570089D01*
X171384492Y-104307299D01*
X171485078Y-104065062D01*
X173552736Y-101997404D01*
X173733741Y-101726511D01*
X173797302Y-101406970D01*
X173797302Y-98870206D01*
X173897140Y-98629771D01*
X173897464Y-98257805D01*
X173755419Y-97914029D01*
X173492629Y-97650780D01*
X173149101Y-97508134D01*
X172777135Y-97507810D01*
X172777135Y-93971865D01*
X173085469Y-93972134D01*
X173429245Y-93830089D01*
X173692494Y-93567299D01*
X173835140Y-93223771D01*
X173835464Y-92851805D01*
X173735302Y-92609394D01*
X173735302Y-82602970D01*
X173671741Y-82283429D01*
X173552736Y-82105326D01*
X173490736Y-82012536D01*
X168211173Y-76732973D01*
X169699989Y-76732973D01*
X169732158Y-76781118D01*
X177785157Y-84834117D01*
X178088493Y-85036799D01*
X178446302Y-85107972D01*
X180946302Y-85107972D01*
X181304111Y-85036799D01*
X181588137Y-84847019D01*
X181960102Y-84693326D01*
X182265584Y-84388377D01*
X182431113Y-83989739D01*
X182431490Y-83558099D01*
X182266656Y-83159172D01*
X181961707Y-82853690D01*
X181563069Y-82688161D01*
X181131429Y-82687784D01*
X180732502Y-82852618D01*
X180427020Y-83157567D01*
X180393633Y-83237972D01*
X178833592Y-83237972D01*
X174353381Y-78757761D01*
X174575245Y-78666089D01*
X174838494Y-78403299D01*
X174981140Y-78059771D01*
X174981464Y-77687805D01*
X174839419Y-77344029D01*
X174576629Y-77080780D01*
X174233101Y-76938134D01*
X173861135Y-76937810D01*
X173517359Y-77079855D01*
X173254110Y-77342645D01*
X173161439Y-77565819D01*
X171312091Y-75716471D01*
X171257130Y-75440164D01*
X171054448Y-75136828D01*
X170751112Y-74934146D01*
X170393303Y-74862973D01*
X167301302Y-74862973D01*
X167301302Y-74633722D01*
X167142552Y-74474972D01*
X165943302Y-74474972D01*
X165943302Y-74494972D01*
X165689302Y-74494972D01*
X165689302Y-74474972D01*
X163403302Y-74474972D01*
X163403302Y-74494972D01*
X163149302Y-74494972D01*
X163149302Y-74474972D01*
X163129302Y-74474972D01*
X163129302Y-74220972D01*
X163149302Y-74220972D01*
X163149302Y-74200972D01*
X163403302Y-74200972D01*
X163403302Y-74220972D01*
X165689302Y-74220972D01*
X165689302Y-74200972D01*
X165943302Y-74200972D01*
X165943302Y-74220972D01*
X167142552Y-74220972D01*
X167301302Y-74062222D01*
X167301302Y-73832971D01*
X177840166Y-73832971D01*
X177669545Y-74243872D01*
X177669060Y-74799633D01*
X177881292Y-75313275D01*
X178273932Y-75706601D01*
X178787202Y-75919729D01*
X179342963Y-75920214D01*
X179856605Y-75707982D01*
X180249931Y-75315342D01*
X180329697Y-75123245D01*
X180383905Y-75254115D01*
X180626089Y-75323580D01*
X181426697Y-74522972D01*
X181412554Y-74508830D01*
X181592159Y-74329225D01*
X181606302Y-74343367D01*
X181606302Y-74702577D01*
X180805694Y-75503185D01*
X180875159Y-75745369D01*
X181398604Y-75932116D01*
X181953670Y-75904334D01*
X182337445Y-75745369D01*
X182406910Y-75503185D01*
X181606302Y-74702577D01*
X181606302Y-74343367D01*
X181620444Y-74329225D01*
X181800049Y-74508830D01*
X181785907Y-74522972D01*
X182586515Y-75323580D01*
X182828699Y-75254115D01*
X182878811Y-75113654D01*
X182961292Y-75313275D01*
X183353932Y-75706601D01*
X183867202Y-75919729D01*
X184422963Y-75920214D01*
X184936605Y-75707982D01*
X185329931Y-75315342D01*
X185373248Y-75211024D01*
X189411302Y-79249078D01*
X189411302Y-87825532D01*
X188416610Y-87825532D01*
X188416610Y-87825532D01*
G37*
X188416610Y-87825532D02*
X188612635Y-87629507D01*
X188853245Y-87530089D01*
X189116494Y-87267299D01*
X189259140Y-86923771D01*
X189259464Y-86551805D01*
X189117419Y-86208029D01*
X188854629Y-85944780D01*
X188511101Y-85802134D01*
X188139135Y-85801810D01*
X187795359Y-85943855D01*
X187532110Y-86206645D01*
X187431524Y-86448882D01*
X187332888Y-86547518D01*
X187226190Y-86547518D01*
X187214419Y-86519029D01*
X186951629Y-86255780D01*
X186608101Y-86113134D01*
X186381303Y-86112936D01*
X186381303Y-81816973D01*
X186317743Y-81497433D01*
X186136737Y-81226539D01*
X185538837Y-80628639D01*
X185439419Y-80388029D01*
X185176629Y-80124780D01*
X184833101Y-79982134D01*
X184461135Y-79981810D01*
X184117359Y-80123855D01*
X183854110Y-80386645D01*
X183711464Y-80730173D01*
X183711140Y-81102139D01*
X183853185Y-81445915D01*
X184115975Y-81709164D01*
X184358212Y-81809750D01*
X184711303Y-82162841D01*
X184711303Y-90842057D01*
X184533045Y-90859889D01*
X184372162Y-90926530D01*
X184366377Y-91116270D01*
X184711303Y-91461196D01*
X184711303Y-91695260D01*
X184524021Y-91627468D01*
X184189600Y-91293047D01*
X183999860Y-91298832D01*
X183931039Y-91526959D01*
X183625805Y-91540825D01*
X183528676Y-91581057D01*
X183431302Y-91345394D01*
X183431302Y-91000206D01*
X183531140Y-90759771D01*
X183531464Y-90387805D01*
X183389419Y-90044029D01*
X183126629Y-89780780D01*
X182783101Y-89638134D01*
X182411135Y-89637810D01*
X182067359Y-89779855D01*
X181804110Y-90042645D01*
X181789655Y-90077457D01*
X181666837Y-89954639D01*
X181567419Y-89714029D01*
X181304629Y-89450780D01*
X180961101Y-89308134D01*
X180909301Y-89308089D01*
X180909301Y-88240841D01*
X181824635Y-87325507D01*
X182065245Y-87226089D01*
X182328494Y-86963299D01*
X182471140Y-86619771D01*
X182471464Y-86247805D01*
X182329419Y-85904029D01*
X182066629Y-85640780D01*
X181723101Y-85498134D01*
X181351135Y-85497810D01*
X181007359Y-85639855D01*
X180744110Y-85902645D01*
X180643524Y-86144882D01*
X179483867Y-87304539D01*
X179302861Y-87575433D01*
X179239301Y-87894973D01*
X179239301Y-99307107D01*
X166562320Y-111984088D01*
X166401485Y-111641614D01*
X165973226Y-111251327D01*
X165563192Y-111081496D01*
X165333302Y-111202817D01*
X165333302Y-112395972D01*
X165353302Y-112395972D01*
X165353302Y-112649972D01*
X165333302Y-112649972D01*
X165333302Y-112669972D01*
X165079302Y-112669972D01*
X165079302Y-112649972D01*
X162793302Y-112649972D01*
X162793302Y-112669972D01*
X162539302Y-112669972D01*
X162539302Y-112649972D01*
X162519302Y-112649972D01*
X162519302Y-112395972D01*
X162539302Y-112395972D01*
X162539302Y-111202817D01*
X162309412Y-111081496D01*
X161899378Y-111251327D01*
X161471119Y-111641614D01*
X161404004Y-111784525D01*
X161176356Y-111443825D01*
X160694587Y-111121918D01*
X160126302Y-111008879D01*
X159558017Y-111121918D01*
X159076248Y-111443825D01*
X158856302Y-111772998D01*
X158636356Y-111443825D01*
X158154587Y-111121918D01*
X157586302Y-111008879D01*
X157018017Y-111121918D01*
X156536248Y-111443825D01*
X156316302Y-111772998D01*
X156096356Y-111443825D01*
X155614587Y-111121918D01*
X155046302Y-111008879D01*
X154768363Y-111064165D01*
X150861736Y-107157538D01*
X150590843Y-106976533D01*
X150271302Y-106912972D01*
X141126168Y-106912972D01*
X141213168Y-106825972D01*
X157487068Y-106825972D01*
X157727503Y-106925810D01*
X158099469Y-106926134D01*
X158443245Y-106784089D01*
X158706494Y-106521299D01*
X158849140Y-106177771D01*
X158849464Y-105805805D01*
X158707419Y-105462029D01*
X158444629Y-105198780D01*
X158101101Y-105056134D01*
X157729135Y-105055810D01*
X157486724Y-105155972D01*
X140867300Y-105155972D01*
X140701113Y-105189029D01*
X143213529Y-102676613D01*
X147563547Y-102633966D01*
X147608461Y-102625287D01*
X147650855Y-102598007D01*
X147679296Y-102556382D01*
X147689302Y-102506972D01*
X147689302Y-98200840D01*
X151792170Y-94097972D01*
X155523461Y-94097972D01*
X155667155Y-94313026D01*
X155996328Y-94532972D01*
X155667155Y-94752918D01*
X155345248Y-95234687D01*
X155232209Y-95802972D01*
X155345248Y-96371257D01*
X155667155Y-96853026D01*
X156148924Y-97174933D01*
X156717209Y-97287972D01*
X156775395Y-97287972D01*
X157343680Y-97174933D01*
X157825449Y-96853026D01*
X158147356Y-96371257D01*
X158260395Y-95802972D01*
X158147356Y-95234687D01*
X157825449Y-94752918D01*
X157496276Y-94532972D01*
X157825449Y-94313026D01*
X158147356Y-93831257D01*
X158260395Y-93262972D01*
X158147356Y-92694687D01*
X157825449Y-92212918D01*
X157781525Y-92183569D01*
X157956000Y-92111299D01*
X158134629Y-91932671D01*
X158231302Y-91699282D01*
X158231302Y-91008722D01*
X158072552Y-90849972D01*
X156873302Y-90849972D01*
X156873302Y-90869972D01*
X156619302Y-90869972D01*
X156619302Y-90849972D01*
X155420052Y-90849972D01*
X155261302Y-91008722D01*
X155261302Y-91699282D01*
X155357975Y-91932671D01*
X155536604Y-92111299D01*
X155711079Y-92183569D01*
X155667155Y-92212918D01*
X155523461Y-92427972D01*
X151446302Y-92427972D01*
X151126761Y-92491533D01*
X150861736Y-92668617D01*
X150855868Y-92672538D01*
X147689302Y-95839104D01*
X147689302Y-84218972D01*
X147680617Y-84172813D01*
X147653337Y-84130419D01*
X147611712Y-84101978D01*
X147562302Y-84091972D01*
X127052370Y-84091972D01*
X126770936Y-83810538D01*
X126500043Y-83629533D01*
X126180502Y-83565972D01*
X116939536Y-83565972D01*
X116699101Y-83466134D01*
X116327135Y-83465810D01*
X115983359Y-83607855D01*
X115720110Y-83870645D01*
X115577464Y-84214173D01*
X115577140Y-84586139D01*
X115719185Y-84929915D01*
X115981975Y-85193164D01*
X116325503Y-85335810D01*
X116697469Y-85336134D01*
X116939880Y-85235972D01*
X121527302Y-85235972D01*
X121527302Y-89887972D01*
X117337118Y-89887972D01*
X117151135Y-89887810D01*
X116807359Y-90029855D01*
X116544110Y-90292645D01*
X116401464Y-90636173D01*
X116401140Y-91008139D01*
X116447966Y-91121466D01*
X116407446Y-91060824D01*
X115223302Y-89876680D01*
X115223302Y-87521788D01*
X115223464Y-87335805D01*
X115081419Y-86992029D01*
X114818629Y-86728780D01*
X114475101Y-86586134D01*
X114103135Y-86585810D01*
X113954302Y-86647306D01*
X113954302Y-72862972D01*
X117410042Y-72862972D01*
X116988017Y-72946918D01*
X116506248Y-73268825D01*
X116184341Y-73750594D01*
X116071302Y-74318879D01*
X116071302Y-74377065D01*
X116184341Y-74945350D01*
X116506248Y-75427119D01*
X116988017Y-75749026D01*
X117556302Y-75862065D01*
X118124587Y-75749026D01*
X118606356Y-75427119D01*
X118826302Y-75097946D01*
X119046248Y-75427119D01*
X119528017Y-75749026D01*
X120096302Y-75862065D01*
X120664587Y-75749026D01*
X121146356Y-75427119D01*
X121366302Y-75097946D01*
X121586248Y-75427119D01*
X122068017Y-75749026D01*
X122636302Y-75862065D01*
X123204587Y-75749026D01*
X123686356Y-75427119D01*
X123906302Y-75097946D01*
X124126248Y-75427119D01*
X124608017Y-75749026D01*
X125176302Y-75862065D01*
X125744587Y-75749026D01*
X126226356Y-75427119D01*
X126446302Y-75097946D01*
X126666248Y-75427119D01*
X127148017Y-75749026D01*
X127716302Y-75862065D01*
X128284587Y-75749026D01*
X128766356Y-75427119D01*
X128986302Y-75097946D01*
X129206248Y-75427119D01*
X129688017Y-75749026D01*
X130256302Y-75862065D01*
X130824587Y-75749026D01*
X131306356Y-75427119D01*
X131526302Y-75097946D01*
X131746248Y-75427119D01*
X132228017Y-75749026D01*
X132796302Y-75862065D01*
X133364587Y-75749026D01*
X133846356Y-75427119D01*
X134066302Y-75097946D01*
X134286248Y-75427119D01*
X134768017Y-75749026D01*
X135336302Y-75862065D01*
X135904587Y-75749026D01*
X136386356Y-75427119D01*
X136606302Y-75097946D01*
X136826248Y-75427119D01*
X137308017Y-75749026D01*
X137876302Y-75862065D01*
X138444587Y-75749026D01*
X138926356Y-75427119D01*
X139146302Y-75097946D01*
X139366248Y-75427119D01*
X139848017Y-75749026D01*
X140416302Y-75862065D01*
X140694241Y-75806779D01*
X141975879Y-77088417D01*
X142246773Y-77269423D01*
X142566313Y-77332983D01*
X166449447Y-77332983D01*
X168364436Y-79247972D01*
X167038302Y-79247972D01*
X166718761Y-79311533D01*
X166621741Y-79376360D01*
X166447868Y-79492538D01*
X165372434Y-80567972D01*
X140745536Y-80567972D01*
X140505101Y-80468134D01*
X140133135Y-80467810D01*
X139789359Y-80609855D01*
X139526110Y-80872645D01*
X139383464Y-81216173D01*
X139383140Y-81588139D01*
X139525185Y-81931915D01*
X139787975Y-82195164D01*
X140131503Y-82337810D01*
X140503469Y-82338134D01*
X140745880Y-82237972D01*
X156460552Y-82237972D01*
X156460552Y-89237972D01*
X155769993Y-89237972D01*
X155536604Y-89334645D01*
X155357975Y-89513273D01*
X155261302Y-89746662D01*
X155261302Y-90437222D01*
X155420052Y-90595972D01*
X156619302Y-90595972D01*
X156619302Y-89396722D01*
X156460552Y-89237972D01*
X156460552Y-82237972D01*
X157722611Y-82237972D01*
X157722611Y-89237972D01*
X157032052Y-89237972D01*
X156873302Y-89396722D01*
X156873302Y-90595972D01*
X158072552Y-90595972D01*
X158231302Y-90437222D01*
X158231302Y-89746662D01*
X158134629Y-89513273D01*
X157956000Y-89334645D01*
X157722611Y-89237972D01*
X157722611Y-82237972D01*
X164849412Y-82237972D01*
X164849412Y-111081496D01*
X164439378Y-111251327D01*
X164011119Y-111641614D01*
X163936302Y-111800926D01*
X163861485Y-111641614D01*
X163433226Y-111251327D01*
X163023192Y-111081496D01*
X162793302Y-111202817D01*
X162793302Y-112395972D01*
X165079302Y-112395972D01*
X165079302Y-111202817D01*
X164849412Y-111081496D01*
X164849412Y-82237972D01*
X165718302Y-82237972D01*
X166037843Y-82174411D01*
X166308736Y-81993406D01*
X167384170Y-80917972D01*
X167874785Y-80917972D01*
X167874785Y-88631060D01*
X167633842Y-88699049D01*
X167449101Y-89218143D01*
X167477072Y-89768420D01*
X167633842Y-90146895D01*
X167874785Y-90214884D01*
X168666697Y-89422972D01*
X167874785Y-88631060D01*
X167874785Y-80917972D01*
X168917068Y-80917972D01*
X169051131Y-80973640D01*
X169051131Y-88025771D01*
X168500854Y-88053742D01*
X168122379Y-88210512D01*
X168054390Y-88451455D01*
X168846302Y-89243367D01*
X168846302Y-89602577D01*
X168054390Y-90394489D01*
X168122379Y-90635432D01*
X168572017Y-90795454D01*
X168572017Y-95637732D01*
X168062787Y-95848141D01*
X167672841Y-96237408D01*
X167461543Y-96746270D01*
X167461062Y-97297257D01*
X167671471Y-97806487D01*
X168060738Y-98196433D01*
X168569600Y-98407731D01*
X169120587Y-98408212D01*
X169629817Y-98197803D01*
X170019763Y-97808536D01*
X170231061Y-97299674D01*
X170231542Y-96748687D01*
X170021133Y-96239457D01*
X169631866Y-95849511D01*
X169123004Y-95638213D01*
X168572017Y-95637732D01*
X168572017Y-90795454D01*
X168641473Y-90820173D01*
X169191750Y-90792202D01*
X169570225Y-90635432D01*
X169638214Y-90394489D01*
X168846302Y-89602577D01*
X168846302Y-89243367D01*
X169638214Y-88451455D01*
X169570225Y-88210512D01*
X169051131Y-88025771D01*
X169051131Y-80973640D01*
X169157503Y-81017810D01*
X169529469Y-81018134D01*
X169817819Y-80898991D01*
X169817819Y-88631060D01*
X169025907Y-89422972D01*
X169817819Y-90214884D01*
X170058762Y-90146895D01*
X170243503Y-89627801D01*
X170215532Y-89077524D01*
X170058762Y-88699049D01*
X169817819Y-88631060D01*
X169817819Y-80898991D01*
X169873245Y-80876089D01*
X169932951Y-80816487D01*
X172065302Y-82948838D01*
X172065302Y-92609738D01*
X171965464Y-92850173D01*
X171965140Y-93222139D01*
X172107185Y-93565915D01*
X172369975Y-93829164D01*
X172713503Y-93971810D01*
X172777135Y-93971865D01*
X172777135Y-97507810D01*
X172433359Y-97649855D01*
X172170110Y-97912645D01*
X172027464Y-98256173D01*
X172027140Y-98628139D01*
X172127302Y-98870550D01*
X172127302Y-101061102D01*
X170303967Y-102884437D01*
X170063357Y-102983855D01*
X169800108Y-103246645D01*
X169657462Y-103590173D01*
X169657138Y-103962139D01*
X169799183Y-104305915D01*
X170061973Y-104569164D01*
X170405501Y-104711810D01*
X170777467Y-104712134D01*
X171121243Y-104570089D01*
X171384492Y-104307299D01*
X171485078Y-104065062D01*
X173552736Y-101997404D01*
X173733741Y-101726511D01*
X173797302Y-101406970D01*
X173797302Y-98870206D01*
X173897140Y-98629771D01*
X173897464Y-98257805D01*
X173755419Y-97914029D01*
X173492629Y-97650780D01*
X173149101Y-97508134D01*
X172777135Y-97507810D01*
X172777135Y-93971865D01*
X173085469Y-93972134D01*
X173429245Y-93830089D01*
X173692494Y-93567299D01*
X173835140Y-93223771D01*
X173835464Y-92851805D01*
X173735302Y-92609394D01*
X173735302Y-82602970D01*
X173671741Y-82283429D01*
X173552736Y-82105326D01*
X173490736Y-82012536D01*
X168211173Y-76732973D01*
X169699989Y-76732973D01*
X169732158Y-76781118D01*
X177785157Y-84834117D01*
X178088493Y-85036799D01*
X178446302Y-85107972D01*
X180946302Y-85107972D01*
X181304111Y-85036799D01*
X181588137Y-84847019D01*
X181960102Y-84693326D01*
X182265584Y-84388377D01*
X182431113Y-83989739D01*
X182431490Y-83558099D01*
X182266656Y-83159172D01*
X181961707Y-82853690D01*
X181563069Y-82688161D01*
X181131429Y-82687784D01*
X180732502Y-82852618D01*
X180427020Y-83157567D01*
X180393633Y-83237972D01*
X178833592Y-83237972D01*
X174353381Y-78757761D01*
X174575245Y-78666089D01*
X174838494Y-78403299D01*
X174981140Y-78059771D01*
X174981464Y-77687805D01*
X174839419Y-77344029D01*
X174576629Y-77080780D01*
X174233101Y-76938134D01*
X173861135Y-76937810D01*
X173517359Y-77079855D01*
X173254110Y-77342645D01*
X173161439Y-77565819D01*
X171312091Y-75716471D01*
X171257130Y-75440164D01*
X171054448Y-75136828D01*
X170751112Y-74934146D01*
X170393303Y-74862973D01*
X167301302Y-74862973D01*
X167301302Y-74633722D01*
X167142552Y-74474972D01*
X165943302Y-74474972D01*
X165943302Y-74494972D01*
X165689302Y-74494972D01*
X165689302Y-74474972D01*
X163403302Y-74474972D01*
X163403302Y-74494972D01*
X163149302Y-74494972D01*
X163149302Y-74474972D01*
X163129302Y-74474972D01*
X163129302Y-74220972D01*
X163149302Y-74220972D01*
X163149302Y-74200972D01*
X163403302Y-74200972D01*
X163403302Y-74220972D01*
X165689302Y-74220972D01*
X165689302Y-74200972D01*
X165943302Y-74200972D01*
X165943302Y-74220972D01*
X167142552Y-74220972D01*
X167301302Y-74062222D01*
X167301302Y-73832971D01*
X177840166Y-73832971D01*
X177669545Y-74243872D01*
X177669060Y-74799633D01*
X177881292Y-75313275D01*
X178273932Y-75706601D01*
X178787202Y-75919729D01*
X179342963Y-75920214D01*
X179856605Y-75707982D01*
X180249931Y-75315342D01*
X180329697Y-75123245D01*
X180383905Y-75254115D01*
X180626089Y-75323580D01*
X181426697Y-74522972D01*
X181412554Y-74508830D01*
X181592159Y-74329225D01*
X181606302Y-74343367D01*
X181606302Y-74702577D01*
X180805694Y-75503185D01*
X180875159Y-75745369D01*
X181398604Y-75932116D01*
X181953670Y-75904334D01*
X182337445Y-75745369D01*
X182406910Y-75503185D01*
X181606302Y-74702577D01*
X181606302Y-74343367D01*
X181620444Y-74329225D01*
X181800049Y-74508830D01*
X181785907Y-74522972D01*
X182586515Y-75323580D01*
X182828699Y-75254115D01*
X182878811Y-75113654D01*
X182961292Y-75313275D01*
X183353932Y-75706601D01*
X183867202Y-75919729D01*
X184422963Y-75920214D01*
X184936605Y-75707982D01*
X185329931Y-75315342D01*
X185373248Y-75211024D01*
X189411302Y-79249078D01*
X189411302Y-87825532D01*
X188416610Y-87825532D01*
G36*
X119307118Y-93371972D02*
X119121135Y-93371810D01*
X118777359Y-93513855D01*
X118514110Y-93776645D01*
X118371464Y-94120173D01*
X118371140Y-94492139D01*
X118513185Y-94835915D01*
X118775975Y-95099164D01*
X119119503Y-95241810D01*
X119202590Y-95241882D01*
X118483901Y-95960571D01*
X118319154Y-96207133D01*
X118261302Y-96497972D01*
X118261302Y-104274080D01*
X116681301Y-102694079D01*
X116681301Y-91721969D01*
X116623745Y-91432615D01*
X116805975Y-91615164D01*
X117149503Y-91757810D01*
X117521469Y-91758134D01*
X117521861Y-91757972D01*
X121527302Y-91757972D01*
X121527302Y-93371972D01*
X119307118Y-93371972D01*
X119307118Y-93371972D01*
G37*
X119307118Y-93371972D02*
X119121135Y-93371810D01*
X118777359Y-93513855D01*
X118514110Y-93776645D01*
X118371464Y-94120173D01*
X118371140Y-94492139D01*
X118513185Y-94835915D01*
X118775975Y-95099164D01*
X119119503Y-95241810D01*
X119202590Y-95241882D01*
X118483901Y-95960571D01*
X118319154Y-96207133D01*
X118261302Y-96497972D01*
X118261302Y-104274080D01*
X116681301Y-102694079D01*
X116681301Y-91721969D01*
X116623745Y-91432615D01*
X116805975Y-91615164D01*
X117149503Y-91757810D01*
X117521469Y-91758134D01*
X117521861Y-91757972D01*
X121527302Y-91757972D01*
X121527302Y-93371972D01*
X119307118Y-93371972D01*
G36*
X191603302Y-97985972D02*
X191331597Y-98040018D01*
X191101256Y-98193926D01*
X190947348Y-98424267D01*
X190893302Y-98695972D01*
X190893302Y-114622972D01*
X167289170Y-114622972D01*
X179542862Y-102369280D01*
X179542862Y-103222972D01*
X179564471Y-103337813D01*
X179531429Y-103337784D01*
X179132502Y-103502618D01*
X178827020Y-103807567D01*
X178661491Y-104206205D01*
X178661114Y-104637845D01*
X178825948Y-105036772D01*
X179130897Y-105342254D01*
X179529535Y-105507783D01*
X179961175Y-105508160D01*
X180324656Y-105357972D01*
X181846302Y-105357972D01*
X181846302Y-105575532D01*
X180046302Y-105575532D01*
X179810985Y-105619810D01*
X179594861Y-105758882D01*
X179449871Y-105971082D01*
X179398862Y-106222972D01*
X179398862Y-108022972D01*
X179443140Y-108258289D01*
X179582212Y-108474413D01*
X179794412Y-108619403D01*
X180046302Y-108670412D01*
X181846302Y-108670412D01*
X182081619Y-108626134D01*
X182297743Y-108487062D01*
X182442733Y-108274862D01*
X182446869Y-108254438D01*
X182615659Y-108423523D01*
X183179632Y-108657705D01*
X183790293Y-108658237D01*
X184354673Y-108425040D01*
X184786853Y-107993615D01*
X185021035Y-107429642D01*
X185021567Y-106818981D01*
X184788370Y-106254601D01*
X184356945Y-105822421D01*
X183792972Y-105588239D01*
X183182311Y-105587707D01*
X182617931Y-105820904D01*
X182449689Y-105988852D01*
X182449464Y-105987655D01*
X182310392Y-105771531D01*
X182098192Y-105626541D01*
X181846302Y-105575532D01*
X181846302Y-105357972D01*
X184796302Y-105357972D01*
X185154111Y-105286799D01*
X185457447Y-105084117D01*
X188157446Y-102384118D01*
X188360128Y-102080782D01*
X188431301Y-101722973D01*
X188431301Y-98310206D01*
X188589410Y-98384458D01*
X188819302Y-98263791D01*
X188819302Y-97069972D01*
X188799302Y-97069972D01*
X188799302Y-96815972D01*
X188819302Y-96815972D01*
X188819302Y-96795972D01*
X189073302Y-96795972D01*
X189073302Y-96815972D01*
X190266457Y-96815972D01*
X190266457Y-97069972D01*
X189073302Y-97069972D01*
X189073302Y-98263791D01*
X189303194Y-98384458D01*
X189827660Y-98138155D01*
X190217947Y-97709896D01*
X190387778Y-97299862D01*
X190266457Y-97069972D01*
X190266457Y-96815972D01*
X190387778Y-96586082D01*
X190217947Y-96176048D01*
X189827660Y-95747789D01*
X189684749Y-95680674D01*
X190025449Y-95453026D01*
X190347356Y-94971257D01*
X190460395Y-94402972D01*
X190441863Y-94309807D01*
X191016776Y-95701201D01*
X192178955Y-96865410D01*
X193698191Y-97496252D01*
X195343196Y-97497688D01*
X196863531Y-96869498D01*
X198027740Y-95707319D01*
X198513302Y-94537956D01*
X198513302Y-97985972D01*
X191603302Y-97985972D01*
X191603302Y-97985972D01*
G37*
X191603302Y-97985972D02*
X191331597Y-98040018D01*
X191101256Y-98193926D01*
X190947348Y-98424267D01*
X190893302Y-98695972D01*
X190893302Y-114622972D01*
X167289170Y-114622972D01*
X179542862Y-102369280D01*
X179542862Y-103222972D01*
X179564471Y-103337813D01*
X179531429Y-103337784D01*
X179132502Y-103502618D01*
X178827020Y-103807567D01*
X178661491Y-104206205D01*
X178661114Y-104637845D01*
X178825948Y-105036772D01*
X179130897Y-105342254D01*
X179529535Y-105507783D01*
X179961175Y-105508160D01*
X180324656Y-105357972D01*
X181846302Y-105357972D01*
X181846302Y-105575532D01*
X180046302Y-105575532D01*
X179810985Y-105619810D01*
X179594861Y-105758882D01*
X179449871Y-105971082D01*
X179398862Y-106222972D01*
X179398862Y-108022972D01*
X179443140Y-108258289D01*
X179582212Y-108474413D01*
X179794412Y-108619403D01*
X180046302Y-108670412D01*
X181846302Y-108670412D01*
X182081619Y-108626134D01*
X182297743Y-108487062D01*
X182442733Y-108274862D01*
X182446869Y-108254438D01*
X182615659Y-108423523D01*
X183179632Y-108657705D01*
X183790293Y-108658237D01*
X184354673Y-108425040D01*
X184786853Y-107993615D01*
X185021035Y-107429642D01*
X185021567Y-106818981D01*
X184788370Y-106254601D01*
X184356945Y-105822421D01*
X183792972Y-105588239D01*
X183182311Y-105587707D01*
X182617931Y-105820904D01*
X182449689Y-105988852D01*
X182449464Y-105987655D01*
X182310392Y-105771531D01*
X182098192Y-105626541D01*
X181846302Y-105575532D01*
X181846302Y-105357972D01*
X184796302Y-105357972D01*
X185154111Y-105286799D01*
X185457447Y-105084117D01*
X188157446Y-102384118D01*
X188360128Y-102080782D01*
X188431301Y-101722973D01*
X188431301Y-98310206D01*
X188589410Y-98384458D01*
X188819302Y-98263791D01*
X188819302Y-97069972D01*
X188799302Y-97069972D01*
X188799302Y-96815972D01*
X188819302Y-96815972D01*
X188819302Y-96795972D01*
X189073302Y-96795972D01*
X189073302Y-96815972D01*
X190266457Y-96815972D01*
X190266457Y-97069972D01*
X189073302Y-97069972D01*
X189073302Y-98263791D01*
X189303194Y-98384458D01*
X189827660Y-98138155D01*
X190217947Y-97709896D01*
X190387778Y-97299862D01*
X190266457Y-97069972D01*
X190266457Y-96815972D01*
X190387778Y-96586082D01*
X190217947Y-96176048D01*
X189827660Y-95747789D01*
X189684749Y-95680674D01*
X190025449Y-95453026D01*
X190347356Y-94971257D01*
X190460395Y-94402972D01*
X190441863Y-94309807D01*
X191016776Y-95701201D01*
X192178955Y-96865410D01*
X193698191Y-97496252D01*
X195343196Y-97497688D01*
X196863531Y-96869498D01*
X198027740Y-95707319D01*
X198513302Y-94537956D01*
X198513302Y-97985972D01*
X191603302Y-97985972D01*
G36*
X184366377Y-94829674D02*
X184372162Y-95019414D01*
X184494182Y-95056224D01*
X180909301Y-98641105D01*
X180909301Y-96153917D01*
X181159503Y-96257810D01*
X181531469Y-96258134D01*
X181875245Y-96116089D01*
X182138494Y-95853299D01*
X182281140Y-95509771D01*
X182281464Y-95137805D01*
X182281302Y-95137413D01*
X182281302Y-95079316D01*
X182499229Y-95146335D01*
X182869541Y-95111294D01*
X183048909Y-95036997D01*
X183061121Y-94842396D01*
X182596302Y-94377577D01*
X182582159Y-94391720D01*
X182402554Y-94212115D01*
X182416697Y-94197972D01*
X182402554Y-94183830D01*
X182582159Y-94004225D01*
X182596302Y-94018367D01*
X182610444Y-94004225D01*
X182790049Y-94183830D01*
X182775907Y-94197972D01*
X183240726Y-94662791D01*
X183435327Y-94650579D01*
X183513952Y-94394913D01*
X183759486Y-94483791D01*
X183932190Y-94475946D01*
X183933219Y-94486229D01*
X183999860Y-94647112D01*
X184189600Y-94652897D01*
X184413878Y-94428619D01*
X184711303Y-94305423D01*
X184711303Y-94484748D01*
X184366377Y-94829674D01*
X184366377Y-94829674D01*
G37*
X184366377Y-94829674D02*
X184372162Y-95019414D01*
X184494182Y-95056224D01*
X180909301Y-98641105D01*
X180909301Y-96153917D01*
X181159503Y-96257810D01*
X181531469Y-96258134D01*
X181875245Y-96116089D01*
X182138494Y-95853299D01*
X182281140Y-95509771D01*
X182281464Y-95137805D01*
X182281302Y-95137413D01*
X182281302Y-95079316D01*
X182499229Y-95146335D01*
X182869541Y-95111294D01*
X183048909Y-95036997D01*
X183061121Y-94842396D01*
X182596302Y-94377577D01*
X182582159Y-94391720D01*
X182402554Y-94212115D01*
X182416697Y-94197972D01*
X182402554Y-94183830D01*
X182582159Y-94004225D01*
X182596302Y-94018367D01*
X182610444Y-94004225D01*
X182790049Y-94183830D01*
X182775907Y-94197972D01*
X183240726Y-94662791D01*
X183435327Y-94650579D01*
X183513952Y-94394913D01*
X183759486Y-94483791D01*
X183932190Y-94475946D01*
X183933219Y-94486229D01*
X183999860Y-94647112D01*
X184189600Y-94652897D01*
X184413878Y-94428619D01*
X184711303Y-94305423D01*
X184711303Y-94484748D01*
X184366377Y-94829674D01*
G36*
X187499871Y-88221082D02*
X187448862Y-88472972D01*
X187448862Y-89612122D01*
X186835156Y-90225828D01*
X186632474Y-90529164D01*
X186561301Y-90886973D01*
X186561301Y-101335683D01*
X185086418Y-102810566D01*
X185176760Y-102563636D01*
X185151141Y-101953512D01*
X184966945Y-101508824D01*
X184710461Y-101422418D01*
X183809907Y-102322972D01*
X183824049Y-102337115D01*
X183644444Y-102516720D01*
X183630302Y-102502577D01*
X183616159Y-102516720D01*
X183436554Y-102337115D01*
X183450697Y-102322972D01*
X183436554Y-102308830D01*
X183616159Y-102129225D01*
X183630302Y-102143367D01*
X184530856Y-101242813D01*
X184444450Y-100986329D01*
X183870966Y-100776514D01*
X183260842Y-100802133D01*
X182816154Y-100986329D01*
X182729749Y-101242811D01*
X182615192Y-101128254D01*
X182578714Y-101164732D01*
X182454392Y-100971531D01*
X182242192Y-100826541D01*
X181990302Y-100775532D01*
X181136610Y-100775532D01*
X186136737Y-95775405D01*
X186165414Y-95732487D01*
X186317742Y-95504512D01*
X186381303Y-95184971D01*
X186381303Y-88117204D01*
X186436307Y-88153957D01*
X186755848Y-88217518D01*
X187502306Y-88217518D01*
X187499871Y-88221082D01*
X187499871Y-88221082D01*
G37*
X187499871Y-88221082D02*
X187448862Y-88472972D01*
X187448862Y-89612122D01*
X186835156Y-90225828D01*
X186632474Y-90529164D01*
X186561301Y-90886973D01*
X186561301Y-101335683D01*
X185086418Y-102810566D01*
X185176760Y-102563636D01*
X185151141Y-101953512D01*
X184966945Y-101508824D01*
X184710461Y-101422418D01*
X183809907Y-102322972D01*
X183824049Y-102337115D01*
X183644444Y-102516720D01*
X183630302Y-102502577D01*
X183616159Y-102516720D01*
X183436554Y-102337115D01*
X183450697Y-102322972D01*
X183436554Y-102308830D01*
X183616159Y-102129225D01*
X183630302Y-102143367D01*
X184530856Y-101242813D01*
X184444450Y-100986329D01*
X183870966Y-100776514D01*
X183260842Y-100802133D01*
X182816154Y-100986329D01*
X182729749Y-101242811D01*
X182615192Y-101128254D01*
X182578714Y-101164732D01*
X182454392Y-100971531D01*
X182242192Y-100826541D01*
X181990302Y-100775532D01*
X181136610Y-100775532D01*
X186136737Y-95775405D01*
X186165414Y-95732487D01*
X186317742Y-95504512D01*
X186381303Y-95184971D01*
X186381303Y-88117204D01*
X186436307Y-88153957D01*
X186755848Y-88217518D01*
X187502306Y-88217518D01*
X187499871Y-88221082D01*
G36*
X181410444Y-93166720D02*
X181396302Y-93152577D01*
X181382159Y-93166720D01*
X181202554Y-92987115D01*
X181216697Y-92972972D01*
X181202554Y-92958830D01*
X181382159Y-92779225D01*
X181396302Y-92793367D01*
X181410444Y-92779225D01*
X181590049Y-92958830D01*
X181575907Y-92972972D01*
X181590049Y-92987115D01*
X181410444Y-93166720D01*
X181410444Y-93166720D01*
G37*
X181410444Y-93166720D02*
X181396302Y-93152577D01*
X181382159Y-93166720D01*
X181202554Y-92987115D01*
X181216697Y-92972972D01*
X181202554Y-92958830D01*
X181382159Y-92779225D01*
X181396302Y-92793367D01*
X181410444Y-92779225D01*
X181590049Y-92958830D01*
X181575907Y-92972972D01*
X181590049Y-92987115D01*
X181410444Y-93166720D01*
G36*
X183999484Y-93192760D02*
X183985342Y-93178617D01*
X183971199Y-93192760D01*
X183791594Y-93013155D01*
X183805737Y-92999012D01*
X183791594Y-92984870D01*
X183971199Y-92805265D01*
X183985342Y-92819407D01*
X183999484Y-92805265D01*
X184179089Y-92984870D01*
X184164947Y-92999012D01*
X184179089Y-93013155D01*
X183999484Y-93192760D01*
X183999484Y-93192760D01*
G37*
X183999484Y-93192760D02*
X183985342Y-93178617D01*
X183971199Y-93192760D01*
X183791594Y-93013155D01*
X183805737Y-92999012D01*
X183791594Y-92984870D01*
X183971199Y-92805265D01*
X183985342Y-92819407D01*
X183999484Y-92805265D01*
X184179089Y-92984870D01*
X184164947Y-92999012D01*
X184179089Y-93013155D01*
X183999484Y-93192760D01*
M02*
