M48
;DRILL file {KiCad 201610091317+7290~55~ubuntu16.04.1-} date Tue Oct 25 10:22:27 2016
;FORMAT={-:-/ absolute / metric / decimal}
FMAT,2
METRIC,TZ
T1C0.400
T2C0.600
T3C1.000
T4C1.001
T5C1.016
T6C1.200
T7C6.000
%
G90
G05
M71
T1
X117.856Y-70.929
X119.697Y-82.931
X125.222Y-68.834
X126.428Y-109.982
X126.682Y-88.456
X126.746Y-108.458
X132.461Y-115.252
X134.239Y-105.664
X134.302Y-111.569
X135.636Y-98.87
X136.334Y-62.166
X138.43Y-60.579
X139.954Y-100.457
X141.16Y-107.124
T2
X116.014Y-66.611
X118.872Y-84.836
X122.047Y-78.232
X123.38Y-67.056
X123.444Y-72.453
X123.507Y-123.126
X125.666Y-99.568
X130.112Y-69.025
X132.62Y-73.472
X133.604Y-126.301
X135.445Y-65.977
X136.334Y-119.062
X137.096Y-108.267
X139.382Y-119.634
X141.287Y-77.216
X150.177Y-99.187
X150.368Y-96.584
X150.368Y-97.663
X150.685Y-108.585
T3
X154.051Y-59.436
X154.051Y-61.976
X154.051Y-64.516
T4
X121.158Y-60.071
X121.158Y-62.611
T5
X115.316Y-99.441
X115.316Y-101.981
X115.316Y-104.521
X115.316Y-107.061
X115.316Y-109.601
X115.316Y-112.141
X115.316Y-114.681
X115.316Y-117.221
X115.316Y-119.761
X115.316Y-122.301
X130.429Y-54.991
X131.572Y-87.122
X132.969Y-54.991
X134.112Y-87.122
X135.509Y-54.991
X136.652Y-87.122
X138.049Y-54.991
X152.908Y-100.457
X152.908Y-102.997
X152.908Y-105.537
X152.908Y-108.077
X152.908Y-110.617
X152.908Y-113.157
X152.908Y-115.697
X152.908Y-118.237
X152.908Y-120.777
X152.908Y-123.317
T6
X142.43Y-126.809
X144.97Y-126.809
X147.511Y-126.809
T7
X134.239Y-49.022
X134.239Y-132.08
T0
M30
