G04 #@! TF.GenerationSoftware,KiCad,Pcbnew,no-vcs-found-9485a4d~59~ubuntu17.04.1*
G04 #@! TF.CreationDate,2017-08-14T12:47:50-05:00*
G04 #@! TF.ProjectId,liger,6C696765722E6B696361645F70636200,rev?*
G04 #@! TF.SameCoordinates,Original*
G04 #@! TF.FileFunction,Copper,L2,Bot,Signal*
G04 #@! TF.FilePolarity,Positive*
%FSLAX46Y46*%
G04 Gerber Fmt 4.6, Leading zero omitted, Abs format (unit mm)*
G04 Created by KiCad (PCBNEW no-vcs-found-9485a4d~59~ubuntu17.04.1) date Mon Aug 14 12:47:50 2017*
%MOMM*%
%LPD*%
G01*
G04 APERTURE LIST*
%ADD10R,1.700000X1.700000*%
%ADD11O,1.700000X1.700000*%
%ADD12C,0.500000*%
%ADD13C,0.600000*%
%ADD14C,1.676000*%
%ADD15R,5.000000X7.000000*%
%ADD16R,7.000000X5.000000*%
%ADD17C,7.000000*%
%ADD18R,1.800000X1.800000*%
%ADD19C,1.800000*%
%ADD20C,1.500000*%
%ADD21C,1.524000*%
%ADD22R,1.300000X0.700000*%
%ADD23C,0.900000*%
%ADD24C,0.400000*%
%ADD25C,0.250000*%
%ADD26C,0.600000*%
%ADD27C,0.254000*%
G04 APERTURE END LIST*
D10*
X150450000Y-88200000D03*
D11*
X147910000Y-88200000D03*
X145370000Y-88200000D03*
D12*
X143550000Y-57870000D03*
X146050000Y-57870000D03*
D13*
X146025000Y-60070000D03*
X146050000Y-61270000D03*
X144800000Y-61270000D03*
X143550000Y-61270000D03*
X143600000Y-60070000D03*
D14*
X144826040Y-58680960D03*
D15*
X147228000Y-116394000D03*
D16*
X140128000Y-109474000D03*
D15*
X147228000Y-102374000D03*
D16*
X154178000Y-109474000D03*
D17*
X147684028Y-130516302D03*
X147684028Y-47458302D03*
D18*
X159860000Y-58340000D03*
D19*
X159860000Y-60880000D03*
D18*
X153290000Y-58410000D03*
D19*
X153290000Y-60950000D03*
D20*
X143780000Y-78200000D03*
X151380000Y-78200000D03*
D10*
X128880000Y-75990000D03*
D11*
X128880000Y-78530000D03*
X128880000Y-81070000D03*
X128880000Y-83610000D03*
X128880000Y-86150000D03*
X128880000Y-88690000D03*
X128880000Y-91230000D03*
X128880000Y-93770000D03*
X128880000Y-96310000D03*
X128880000Y-98850000D03*
X128880000Y-101390000D03*
X128880000Y-103930000D03*
X128880000Y-106470000D03*
X128880000Y-109010000D03*
X128880000Y-111550000D03*
X128880000Y-114090000D03*
X128880000Y-116630000D03*
X128880000Y-119170000D03*
X128880000Y-121710000D03*
X128880000Y-124250000D03*
D10*
X165890000Y-119430000D03*
D11*
X165890000Y-116890000D03*
X165890000Y-114350000D03*
X165890000Y-111810000D03*
X165890000Y-109270000D03*
X165890000Y-106730000D03*
X165890000Y-104190000D03*
X165890000Y-101650000D03*
X165890000Y-99110000D03*
X165890000Y-96570000D03*
X165890000Y-94030000D03*
X165890000Y-91490000D03*
X165890000Y-88950000D03*
X165890000Y-86410000D03*
X165890000Y-83870000D03*
X165890000Y-81330000D03*
X165890000Y-78790000D03*
X165890000Y-76250000D03*
X165890000Y-73710000D03*
X165890000Y-71170000D03*
D10*
X151410000Y-52850000D03*
D11*
X148870000Y-52850000D03*
X146330000Y-52850000D03*
X143790000Y-52850000D03*
D21*
X128220000Y-62230000D03*
X128220000Y-59690000D03*
X128220000Y-57150000D03*
D22*
X145820000Y-108488000D03*
X145830000Y-109588000D03*
X145840000Y-110688000D03*
X148780000Y-109588000D03*
X148770000Y-108488000D03*
X148790000Y-110688000D03*
D10*
X161036000Y-124714000D03*
D11*
X163576000Y-124714000D03*
X166116000Y-124714000D03*
D23*
X146281398Y-78696534D03*
X143548272Y-71680675D03*
X137736420Y-76075994D03*
X137274908Y-89194406D03*
X137250310Y-93917125D03*
X156200000Y-89400000D03*
X149492708Y-122825389D03*
X142227988Y-102617984D03*
X157483830Y-99421350D03*
X132500000Y-124600000D03*
X142250000Y-67750000D03*
X137594343Y-61528837D03*
X138824990Y-124961343D03*
X142000000Y-104750000D03*
X140750000Y-119000000D03*
X163150000Y-52500000D03*
X133200000Y-120500000D03*
X155031281Y-56581281D03*
X132800000Y-56000000D03*
X166000000Y-55900000D03*
D13*
X141050000Y-58650000D03*
X141590494Y-77556742D03*
X153874990Y-105963593D03*
X153950000Y-114050000D03*
X155450000Y-116850000D03*
X155000000Y-112474002D03*
X153305274Y-112474002D03*
X152705564Y-106433697D03*
X160250000Y-100913370D03*
X157735279Y-89412926D03*
X143785515Y-85887321D03*
X139516556Y-85826930D03*
X138683589Y-82807422D03*
X129408863Y-69010926D03*
X141150000Y-61150000D03*
X138193932Y-74317425D03*
X135953472Y-72941704D03*
X135226649Y-69287567D03*
X132994277Y-63773437D03*
X147000000Y-85250000D03*
X156800000Y-80200000D03*
X162200000Y-80200000D03*
X147799837Y-80226318D03*
X136196214Y-69473054D03*
X141382977Y-70719826D03*
X166800000Y-64600000D03*
X154750000Y-122375010D03*
X164450000Y-63300000D03*
X154550000Y-115600000D03*
X150944388Y-116611565D03*
X148090845Y-123852665D03*
X150022386Y-108063010D03*
X133579779Y-91990441D03*
X131750000Y-65750000D03*
X152390634Y-64075766D03*
X143909617Y-75314445D03*
X141352818Y-76476627D03*
X135409424Y-88003915D03*
X133510198Y-89264608D03*
X150750000Y-59000000D03*
X153500000Y-56500000D03*
X141000000Y-106250000D03*
X149000000Y-111943989D03*
D12*
X144250000Y-116250000D03*
D13*
X157608180Y-97692688D03*
X147094868Y-97559657D03*
X145750000Y-97500000D03*
X155250000Y-102500000D03*
D12*
X146177971Y-98405024D03*
X147400000Y-98400000D03*
D13*
X155250000Y-104500000D03*
D12*
X159400000Y-95800000D03*
D13*
X158471514Y-94974260D03*
X138050310Y-92950358D03*
X138641481Y-90911730D03*
X137533531Y-86337226D03*
X137112510Y-83806226D03*
X137201146Y-82321573D03*
X138419891Y-81191464D03*
X137784762Y-77532180D03*
X139059975Y-75226232D03*
X136180000Y-64025000D03*
X142897658Y-124568888D03*
X140282752Y-63828322D03*
X138650000Y-121400000D03*
X147300000Y-62450000D03*
X145600000Y-121800000D03*
X150177998Y-110266333D03*
X150944386Y-114596314D03*
X151293084Y-122550161D03*
X131972501Y-85500000D03*
X127500000Y-119250000D03*
X131056418Y-84634682D03*
D24*
X137250310Y-93917125D02*
X137250310Y-89219004D01*
X137250310Y-89219004D02*
X137274908Y-89194406D01*
D25*
X142429110Y-67000000D02*
X142429110Y-67570890D01*
X142429110Y-67570890D02*
X142250000Y-67750000D01*
X137594343Y-61528837D02*
X137594343Y-62165233D01*
X137594343Y-62165233D02*
X142429110Y-67000000D01*
X153290000Y-60950000D02*
X155031281Y-59208719D01*
X155031281Y-59208719D02*
X155031281Y-56581281D01*
X146050000Y-57870000D02*
X145637000Y-57870000D01*
X145637000Y-57870000D02*
X144826040Y-58680960D01*
X146025000Y-60070000D02*
X146000000Y-60070000D01*
X146000000Y-60070000D02*
X144800000Y-61270000D01*
X146025000Y-60070000D02*
X146025000Y-59879920D01*
X146025000Y-59879920D02*
X144826040Y-58680960D01*
X143550000Y-57870000D02*
X144015080Y-57870000D01*
X144015080Y-57870000D02*
X144826040Y-58680960D01*
X141050000Y-58650000D02*
X142470000Y-60070000D01*
X142470000Y-60070000D02*
X143600000Y-60070000D01*
X146552981Y-101698981D02*
X147228000Y-102374000D01*
X141290495Y-91306016D02*
X146552981Y-96568502D01*
X146552981Y-96568502D02*
X146552981Y-101698981D01*
X141590494Y-77556742D02*
X141290495Y-77856741D01*
X141290495Y-77856741D02*
X141290495Y-91306016D01*
X147228000Y-102374000D02*
X150285397Y-102374000D01*
X150285397Y-102374000D02*
X153874990Y-105963593D01*
X146824999Y-101970999D02*
X147228000Y-102374000D01*
X155450000Y-116850000D02*
X155450000Y-115550000D01*
X155450000Y-115550000D02*
X153950000Y-114050000D01*
X165890000Y-114350000D02*
X163576000Y-116664000D01*
X163576000Y-116664000D02*
X163576000Y-124714000D01*
D24*
X153305274Y-112474002D02*
X155000000Y-112474002D01*
X149099888Y-106438110D02*
X152701151Y-106438110D01*
X152701151Y-106438110D02*
X152705564Y-106433697D01*
X145840000Y-110688000D02*
X146890000Y-110688000D01*
X146890000Y-110688000D02*
X147719999Y-109858001D01*
X147719999Y-109858001D02*
X147719999Y-107817999D01*
X147719999Y-107817999D02*
X149099888Y-106438110D01*
D25*
X160250000Y-100913370D02*
X165890000Y-106553370D01*
X165890000Y-106553370D02*
X165890000Y-106730000D01*
X149109540Y-90842542D02*
X156305663Y-90842542D01*
X156305663Y-90842542D02*
X157735279Y-89412926D01*
X143785515Y-85887321D02*
X144465107Y-85887321D01*
X144465107Y-85887321D02*
X146934999Y-88357213D01*
X146934999Y-88357213D02*
X146934999Y-88668001D01*
X146934999Y-88668001D02*
X149109540Y-90842542D01*
X138683589Y-82807422D02*
X139516556Y-83640389D01*
X139516556Y-83640389D02*
X139516556Y-85826930D01*
X128220000Y-62230000D02*
X128220000Y-67822063D01*
X128220000Y-67822063D02*
X129408863Y-69010926D01*
X141150000Y-61150000D02*
X141270000Y-61270000D01*
X141270000Y-61270000D02*
X143550000Y-61270000D01*
X144885978Y-75920914D02*
X147799837Y-78834773D01*
X147799837Y-78834773D02*
X147799837Y-80226318D01*
X143191385Y-75617866D02*
X143494433Y-75920914D01*
X143494433Y-75920914D02*
X144885978Y-75920914D01*
X138193932Y-74317425D02*
X138493931Y-74617424D01*
X138493931Y-74617424D02*
X140132242Y-74617424D01*
X140132242Y-74617424D02*
X141132684Y-75617866D01*
X135226649Y-69287567D02*
X135226649Y-72214881D01*
X135226649Y-72214881D02*
X135953472Y-72941704D01*
X141132684Y-75617866D02*
X143191385Y-75617866D01*
X135226649Y-69287567D02*
X135226649Y-69711831D01*
X132994277Y-63773437D02*
X132994277Y-61924277D01*
X132994277Y-61924277D02*
X128220000Y-57150000D01*
D24*
X147000000Y-85250000D02*
X147000000Y-81026155D01*
X147000000Y-81026155D02*
X147799837Y-80226318D01*
X156800000Y-80200000D02*
X147826155Y-80200000D01*
X147826155Y-80200000D02*
X147799837Y-80226318D01*
X164453682Y-80226318D02*
X162226318Y-80226318D01*
X162226318Y-80226318D02*
X162200000Y-80200000D01*
X164453682Y-80226318D02*
X165890000Y-78790000D01*
X128220000Y-57150000D02*
X134011697Y-51358303D01*
X134011697Y-51358303D02*
X151168303Y-51358303D01*
X151168303Y-51358303D02*
X151410000Y-51600000D01*
X151410000Y-51600000D02*
X151410000Y-52850000D01*
D25*
X141382977Y-70719826D02*
X140136205Y-69473054D01*
X140136205Y-69473054D02*
X136196214Y-69473054D01*
X166800000Y-64600000D02*
X167165001Y-64965001D01*
X167165001Y-64965001D02*
X167165001Y-100374999D01*
X167165001Y-100374999D02*
X165890000Y-101650000D01*
X154550000Y-115600000D02*
X154550000Y-122175010D01*
X154550000Y-122175010D02*
X154750000Y-122375010D01*
X164450000Y-63300000D02*
X163425001Y-62275001D01*
X148870000Y-58491002D02*
X148870000Y-52850000D01*
X163425001Y-62275001D02*
X152653999Y-62275001D01*
X152653999Y-62275001D02*
X148870000Y-58491002D01*
D24*
X149447990Y-120894012D02*
X150296533Y-120894012D01*
X150296533Y-120894012D02*
X150944388Y-120246157D01*
X148090845Y-122251157D02*
X149447990Y-120894012D01*
X148090845Y-123852665D02*
X148090845Y-122251157D01*
X150944388Y-120246157D02*
X150944388Y-116611565D01*
X148770000Y-108488000D02*
X149597396Y-108488000D01*
X149597396Y-108488000D02*
X150022386Y-108063010D01*
D25*
X128880000Y-101390000D02*
X133579779Y-96690221D01*
X133579779Y-96690221D02*
X133579779Y-91990441D01*
X131750000Y-65750000D02*
X132597511Y-66597511D01*
X132597511Y-66597511D02*
X132597511Y-87512489D01*
X132597511Y-87512489D02*
X128880000Y-91230000D01*
X143909617Y-75314445D02*
X143909617Y-72556783D01*
X143909617Y-72556783D02*
X152390634Y-64075766D01*
X135409424Y-88003915D02*
X135409424Y-82420021D01*
X135409424Y-82420021D02*
X141352818Y-76476627D01*
X128880000Y-93770000D02*
X133385392Y-89264608D01*
X133385392Y-89264608D02*
X133510198Y-89264608D01*
X153500000Y-56500000D02*
X152814998Y-56500000D01*
X152814998Y-56500000D02*
X150750000Y-58564998D01*
X150750000Y-58564998D02*
X150750000Y-59000000D01*
X140128000Y-109474000D02*
X140128000Y-106724000D01*
X140128000Y-106724000D02*
X140602000Y-106250000D01*
X140602000Y-106250000D02*
X141000000Y-106250000D01*
X151533012Y-112118988D02*
X154178000Y-109474000D01*
X149174999Y-112118988D02*
X151533012Y-112118988D01*
X149000000Y-111943989D02*
X149174999Y-112118988D01*
X144250000Y-116250000D02*
X147084000Y-116250000D01*
X147084000Y-116250000D02*
X147228000Y-116394000D01*
X157608180Y-97692688D02*
X157908179Y-97992687D01*
X157908179Y-97992687D02*
X159692687Y-97992687D01*
X159692687Y-97992687D02*
X165040001Y-103340001D01*
X165040001Y-103340001D02*
X165890000Y-104190000D01*
X150309657Y-97559657D02*
X155250000Y-102500000D01*
X147094868Y-97559657D02*
X150309657Y-97559657D01*
X144930000Y-109588000D02*
X145830000Y-109588000D01*
X145750000Y-97500000D02*
X144750000Y-97500000D01*
X144750000Y-97500000D02*
X143952988Y-98297012D01*
X143952988Y-98297012D02*
X143952988Y-106702988D01*
X143952988Y-106702988D02*
X143953001Y-106703001D01*
X143953001Y-106703001D02*
X143953001Y-108611001D01*
X143953001Y-108611001D02*
X144930000Y-109588000D01*
X144611974Y-98405024D02*
X145824418Y-98405024D01*
X145824418Y-98405024D02*
X146177971Y-98405024D01*
X144402999Y-98613999D02*
X144611974Y-98405024D01*
X145820000Y-108488000D02*
X145820000Y-107551002D01*
X145820000Y-107551002D02*
X144402999Y-106134001D01*
X144402999Y-106134001D02*
X144402999Y-98613999D01*
X147400000Y-98400000D02*
X150000000Y-98400000D01*
X150000000Y-98400000D02*
X155250000Y-103650000D01*
X155250000Y-103650000D02*
X155250000Y-104500000D01*
X159400000Y-95800000D02*
X165890000Y-89310000D01*
X165890000Y-89310000D02*
X165890000Y-88950000D01*
X158471514Y-94974260D02*
X158471514Y-94549996D01*
X158471514Y-94549996D02*
X158450000Y-94528482D01*
X158450000Y-94528482D02*
X158450000Y-93850000D01*
X158450000Y-93850000D02*
X165890000Y-86410000D01*
X138641481Y-90911730D02*
X138641481Y-92359187D01*
X138641481Y-92359187D02*
X138050310Y-92950358D01*
X137112510Y-83806226D02*
X137533531Y-84227247D01*
X137533531Y-84227247D02*
X137533531Y-86337226D01*
X138419891Y-81191464D02*
X138331255Y-81191464D01*
X138331255Y-81191464D02*
X137201146Y-82321573D01*
X139117074Y-75707595D02*
X139117074Y-76199868D01*
X139117074Y-76199868D02*
X137784762Y-77532180D01*
X139059975Y-75226232D02*
X139059975Y-75650496D01*
X139059975Y-75650496D02*
X139117074Y-75707595D01*
D24*
X134352039Y-117102039D02*
X134352039Y-65852961D01*
X138650000Y-121400000D02*
X134352039Y-117102039D01*
X134352039Y-65852961D02*
X136180000Y-64025000D01*
X138650000Y-121400000D02*
X139728770Y-121400000D01*
X139728770Y-121400000D02*
X142897658Y-124568888D01*
X143491678Y-63828322D02*
X140282752Y-63828322D01*
X146050000Y-61270000D02*
X143491678Y-63828322D01*
X147300000Y-62450000D02*
X147230000Y-62450000D01*
X147230000Y-62450000D02*
X146050000Y-61270000D01*
D26*
X143200000Y-113521998D02*
X143200000Y-119400000D01*
X143200000Y-119400000D02*
X145600000Y-121800000D01*
X148790000Y-110688000D02*
X148490000Y-110688000D01*
X148490000Y-110688000D02*
X146784001Y-112393999D01*
X146784001Y-112393999D02*
X144327999Y-112393999D01*
X144327999Y-112393999D02*
X143200000Y-113521998D01*
D24*
X150177998Y-110266333D02*
X149499665Y-109588000D01*
X149499665Y-109588000D02*
X148780000Y-109588000D01*
X151644390Y-122198855D02*
X151644390Y-115296318D01*
X151644390Y-115296318D02*
X150944386Y-114596314D01*
X151293084Y-122550161D02*
X151644390Y-122198855D01*
D25*
X127500000Y-119250000D02*
X127500000Y-88330998D01*
X127500000Y-88330998D02*
X128505997Y-87325001D01*
X128505997Y-87325001D02*
X130147500Y-87325001D01*
X130147500Y-87325001D02*
X131972501Y-85500000D01*
X131056418Y-84634682D02*
X130716101Y-84974999D01*
X130716101Y-84974999D02*
X128315999Y-84974999D01*
X128315999Y-84974999D02*
X126750000Y-86540998D01*
X126750000Y-86540998D02*
X126750000Y-120782081D01*
X126750000Y-120782081D02*
X127677919Y-121710000D01*
X127677919Y-121710000D02*
X128880000Y-121710000D01*
D27*
G36*
X145344799Y-43950776D02*
X144180590Y-45112955D01*
X143549748Y-46632191D01*
X143548312Y-48277196D01*
X144176502Y-49797531D01*
X144901008Y-50523303D01*
X134011697Y-50523303D01*
X133692156Y-50586864D01*
X133425557Y-50765000D01*
X133421263Y-50767869D01*
X128435944Y-55753188D01*
X127943339Y-55752758D01*
X127429697Y-55964990D01*
X127036371Y-56357630D01*
X126823243Y-56870900D01*
X126822758Y-57426661D01*
X127034990Y-57940303D01*
X127427630Y-58333629D01*
X127619727Y-58413395D01*
X127488857Y-58467603D01*
X127419392Y-58709787D01*
X128220000Y-59510395D01*
X128234143Y-59496253D01*
X128413748Y-59675858D01*
X128399605Y-59690000D01*
X129200213Y-60490608D01*
X129442397Y-60421143D01*
X129629144Y-59897698D01*
X129615247Y-59620049D01*
X132234277Y-62239079D01*
X132234277Y-63210974D01*
X132202085Y-63243110D01*
X132059439Y-63586638D01*
X132059115Y-63958604D01*
X132201160Y-64302380D01*
X132463950Y-64565629D01*
X132807478Y-64708275D01*
X133179444Y-64708599D01*
X133523220Y-64566554D01*
X133786469Y-64303764D01*
X133929115Y-63960236D01*
X133929439Y-63588270D01*
X133787394Y-63244494D01*
X133754277Y-63211319D01*
X133754277Y-61924277D01*
X133741405Y-61859566D01*
X133696425Y-61633437D01*
X133531678Y-61386876D01*
X129604183Y-57459381D01*
X129616757Y-57429100D01*
X129616901Y-57263298D01*
X143120075Y-57263298D01*
X143550000Y-57693223D01*
X143979925Y-57263298D01*
X143974140Y-57073558D01*
X143637070Y-56971872D01*
X143286743Y-57006917D01*
X143125860Y-57073558D01*
X143120075Y-57263298D01*
X129616901Y-57263298D01*
X129617189Y-56933679D01*
X133343976Y-53206892D01*
X142348514Y-53206892D01*
X142594817Y-53731358D01*
X143023076Y-54121645D01*
X143433110Y-54291476D01*
X143663000Y-54170155D01*
X143663000Y-52977000D01*
X142469181Y-52977000D01*
X142348514Y-53206892D01*
X133343976Y-53206892D01*
X134357565Y-52193303D01*
X142489310Y-52193303D01*
X142348514Y-52493108D01*
X142469181Y-52723000D01*
X143663000Y-52723000D01*
X143663000Y-52703000D01*
X143917000Y-52703000D01*
X143917000Y-52723000D01*
X143937000Y-52723000D01*
X143937000Y-52977000D01*
X143917000Y-52977000D01*
X143917000Y-54170155D01*
X144146890Y-54291476D01*
X144556924Y-54121645D01*
X144985183Y-53731358D01*
X145052298Y-53588447D01*
X145279946Y-53929147D01*
X145761715Y-54251054D01*
X146330000Y-54364093D01*
X146898285Y-54251054D01*
X147380054Y-53929147D01*
X147600000Y-53599974D01*
X147819946Y-53929147D01*
X148110000Y-54122954D01*
X148110000Y-58491002D01*
X148167852Y-58781841D01*
X148332599Y-59028403D01*
X152116598Y-62812402D01*
X152363160Y-62977149D01*
X152653999Y-63035001D01*
X163110199Y-63035001D01*
X163514878Y-63439680D01*
X163514838Y-63485167D01*
X163656883Y-63828943D01*
X163919673Y-64092192D01*
X164263201Y-64234838D01*
X164635167Y-64235162D01*
X164978943Y-64093117D01*
X165242192Y-63830327D01*
X165384838Y-63486799D01*
X165385162Y-63114833D01*
X165243117Y-62771057D01*
X164980327Y-62507808D01*
X164636799Y-62365162D01*
X164589923Y-62365121D01*
X163962402Y-61737600D01*
X163715840Y-61572853D01*
X163425001Y-61515001D01*
X161258398Y-61515001D01*
X161394733Y-61186670D01*
X161395265Y-60576009D01*
X161162068Y-60011629D01*
X160992025Y-59841288D01*
X161007765Y-59838157D01*
X161217809Y-59697809D01*
X161358157Y-59487765D01*
X161407440Y-59240000D01*
X161407440Y-57440000D01*
X161358157Y-57192235D01*
X161217809Y-56982191D01*
X161007765Y-56841843D01*
X160760000Y-56792560D01*
X158960000Y-56792560D01*
X158712235Y-56841843D01*
X158502191Y-56982191D01*
X158361843Y-57192235D01*
X158312560Y-57440000D01*
X158312560Y-59240000D01*
X158361843Y-59487765D01*
X158502191Y-59697809D01*
X158712235Y-59838157D01*
X158727839Y-59841261D01*
X158559449Y-60009357D01*
X158325267Y-60573330D01*
X158324735Y-61183991D01*
X158461506Y-61515001D01*
X154717796Y-61515001D01*
X154836458Y-61190664D01*
X154810839Y-60580540D01*
X154626643Y-60135852D01*
X154370161Y-60049447D01*
X154484718Y-59934890D01*
X154449886Y-59900058D01*
X154647809Y-59767809D01*
X154788157Y-59557765D01*
X154837440Y-59310000D01*
X154837440Y-57510000D01*
X154788157Y-57262235D01*
X154647809Y-57052191D01*
X154437765Y-56911843D01*
X154348744Y-56894136D01*
X154434838Y-56686799D01*
X154435162Y-56314833D01*
X154293117Y-55971057D01*
X154030327Y-55707808D01*
X153686799Y-55565162D01*
X153314833Y-55564838D01*
X152971057Y-55706883D01*
X152937882Y-55740000D01*
X152814998Y-55740000D01*
X152524158Y-55797852D01*
X152277597Y-55962599D01*
X150212599Y-58027597D01*
X150047852Y-58274159D01*
X150021636Y-58405957D01*
X149957808Y-58469673D01*
X149947734Y-58493934D01*
X149630000Y-58176200D01*
X149630000Y-54122954D01*
X149920054Y-53929147D01*
X149949403Y-53885223D01*
X149961843Y-53947765D01*
X150102191Y-54157809D01*
X150312235Y-54298157D01*
X150560000Y-54347440D01*
X152260000Y-54347440D01*
X152507765Y-54298157D01*
X152717809Y-54157809D01*
X152858157Y-53947765D01*
X152907440Y-53700000D01*
X152907440Y-52000000D01*
X152858157Y-51752235D01*
X152717809Y-51542191D01*
X152507765Y-51401843D01*
X152260000Y-51352560D01*
X152195781Y-51352560D01*
X152181439Y-51280459D01*
X152000434Y-51009566D01*
X151758737Y-50767869D01*
X151754443Y-50765000D01*
X151487844Y-50586864D01*
X151168303Y-50523303D01*
X150466555Y-50523303D01*
X151187466Y-49803649D01*
X151818308Y-48284413D01*
X151819744Y-46639408D01*
X151191554Y-45119073D01*
X150029375Y-43954864D01*
X149471712Y-43723302D01*
X152308028Y-43723302D01*
X152308028Y-49236302D01*
X152362074Y-49508007D01*
X152515982Y-49738348D01*
X152746323Y-49892256D01*
X153018028Y-49946302D01*
X168183028Y-49946302D01*
X168183028Y-126885302D01*
X153018028Y-126885302D01*
X152746323Y-126939348D01*
X152515982Y-127093256D01*
X152362074Y-127323597D01*
X152308028Y-127595302D01*
X152308028Y-134505302D01*
X148858002Y-134505302D01*
X150023257Y-134023828D01*
X151187466Y-132861649D01*
X151818308Y-131342413D01*
X151819744Y-129697408D01*
X151191554Y-128177073D01*
X150029375Y-127012864D01*
X148510139Y-126382022D01*
X146865134Y-126380586D01*
X145344799Y-127008776D01*
X144180590Y-128170955D01*
X143549748Y-129690191D01*
X143548312Y-131335196D01*
X144176502Y-132855531D01*
X145338681Y-134019740D01*
X146508044Y-134505302D01*
X143060028Y-134505302D01*
X143060028Y-127595302D01*
X143005982Y-127323597D01*
X142852074Y-127093256D01*
X142621733Y-126939348D01*
X142350028Y-126885302D01*
X126423028Y-126885302D01*
X126423028Y-121529911D01*
X127140518Y-122247401D01*
X127387080Y-122412148D01*
X127596182Y-122453741D01*
X127800853Y-122760054D01*
X128130026Y-122980000D01*
X127800853Y-123199946D01*
X127478946Y-123681715D01*
X127365907Y-124250000D01*
X127478946Y-124818285D01*
X127800853Y-125300054D01*
X128282622Y-125621961D01*
X128850907Y-125735000D01*
X128909093Y-125735000D01*
X129477378Y-125621961D01*
X129959147Y-125300054D01*
X130281054Y-124818285D01*
X130394093Y-124250000D01*
X130281054Y-123681715D01*
X129959147Y-123199946D01*
X129629974Y-122980000D01*
X129959147Y-122760054D01*
X130281054Y-122278285D01*
X130394093Y-121710000D01*
X130281054Y-121141715D01*
X129959147Y-120659946D01*
X129629974Y-120440000D01*
X129959147Y-120220054D01*
X130281054Y-119738285D01*
X130394093Y-119170000D01*
X130281054Y-118601715D01*
X129959147Y-118119946D01*
X129629974Y-117900000D01*
X129959147Y-117680054D01*
X130281054Y-117198285D01*
X130394093Y-116630000D01*
X130281054Y-116061715D01*
X129959147Y-115579946D01*
X129629974Y-115360000D01*
X129959147Y-115140054D01*
X130281054Y-114658285D01*
X130394093Y-114090000D01*
X130281054Y-113521715D01*
X129959147Y-113039946D01*
X129629974Y-112820000D01*
X129959147Y-112600054D01*
X130281054Y-112118285D01*
X130394093Y-111550000D01*
X130281054Y-110981715D01*
X129959147Y-110499946D01*
X129629974Y-110280000D01*
X129959147Y-110060054D01*
X130281054Y-109578285D01*
X130394093Y-109010000D01*
X130281054Y-108441715D01*
X129959147Y-107959946D01*
X129629974Y-107740000D01*
X129959147Y-107520054D01*
X130281054Y-107038285D01*
X130394093Y-106470000D01*
X130281054Y-105901715D01*
X129959147Y-105419946D01*
X129629974Y-105200000D01*
X129959147Y-104980054D01*
X130281054Y-104498285D01*
X130394093Y-103930000D01*
X130281054Y-103361715D01*
X129959147Y-102879946D01*
X129629974Y-102660000D01*
X129959147Y-102440054D01*
X130281054Y-101958285D01*
X130394093Y-101390000D01*
X130321210Y-101023592D01*
X133517039Y-97827763D01*
X133517039Y-117102039D01*
X133580600Y-117421580D01*
X133605126Y-117458285D01*
X133761605Y-117692473D01*
X137757465Y-121688333D01*
X137856883Y-121928943D01*
X138119673Y-122192192D01*
X138463201Y-122334838D01*
X138835167Y-122335162D01*
X139077578Y-122235000D01*
X139382902Y-122235000D01*
X142005123Y-124857221D01*
X142104541Y-125097831D01*
X142367331Y-125361080D01*
X142710859Y-125503726D01*
X143082825Y-125504050D01*
X143426601Y-125362005D01*
X143689850Y-125099215D01*
X143731151Y-124999750D01*
X159551000Y-124999750D01*
X159551000Y-125690309D01*
X159647673Y-125923698D01*
X159826301Y-126102327D01*
X160059690Y-126199000D01*
X160750250Y-126199000D01*
X160909000Y-126040250D01*
X160909000Y-124841000D01*
X159709750Y-124841000D01*
X159551000Y-124999750D01*
X143731151Y-124999750D01*
X143832496Y-124755687D01*
X143832820Y-124383721D01*
X143690775Y-124039945D01*
X143427985Y-123776696D01*
X143185748Y-123676110D01*
X140319204Y-120809566D01*
X140211812Y-120737809D01*
X140048311Y-120628561D01*
X139728770Y-120565000D01*
X139077234Y-120565000D01*
X138938090Y-120507222D01*
X135187039Y-116756171D01*
X135187039Y-88923976D01*
X135222625Y-88938753D01*
X135594591Y-88939077D01*
X135938367Y-88797032D01*
X136201616Y-88534242D01*
X136344262Y-88190714D01*
X136344586Y-87818748D01*
X136202541Y-87474972D01*
X136169424Y-87441797D01*
X136169424Y-82734823D01*
X136304439Y-82599808D01*
X136408029Y-82850516D01*
X136576941Y-83019723D01*
X136320318Y-83275899D01*
X136177672Y-83619427D01*
X136177348Y-83991393D01*
X136319393Y-84335169D01*
X136582183Y-84598418D01*
X136773531Y-84677873D01*
X136773531Y-85774763D01*
X136741339Y-85806899D01*
X136598693Y-86150427D01*
X136598369Y-86522393D01*
X136740414Y-86866169D01*
X137003204Y-87129418D01*
X137346732Y-87272064D01*
X137718698Y-87272388D01*
X138062474Y-87130343D01*
X138325723Y-86867553D01*
X138468369Y-86524025D01*
X138468693Y-86152059D01*
X138326648Y-85808283D01*
X138293531Y-85775108D01*
X138293531Y-84227247D01*
X138235679Y-83936408D01*
X138070932Y-83689846D01*
X138047632Y-83666546D01*
X138047672Y-83621059D01*
X137957983Y-83403994D01*
X138153262Y-83599614D01*
X138496790Y-83742260D01*
X138543666Y-83742301D01*
X138756556Y-83955191D01*
X138756556Y-85264467D01*
X138724364Y-85296603D01*
X138581718Y-85640131D01*
X138581394Y-86012097D01*
X138723439Y-86355873D01*
X138986229Y-86619122D01*
X139329757Y-86761768D01*
X139701723Y-86762092D01*
X140045499Y-86620047D01*
X140308748Y-86357257D01*
X140451394Y-86013729D01*
X140451718Y-85641763D01*
X140309673Y-85297987D01*
X140276556Y-85264812D01*
X140276556Y-83640389D01*
X140218704Y-83349550D01*
X140218704Y-83349549D01*
X140053957Y-83102988D01*
X139618711Y-82667742D01*
X139618751Y-82622255D01*
X139476706Y-82278479D01*
X139213916Y-82015230D01*
X139005023Y-81928490D01*
X139212083Y-81721791D01*
X139354729Y-81378263D01*
X139355053Y-81006297D01*
X139213008Y-80662521D01*
X138950218Y-80399272D01*
X138635612Y-80268635D01*
X140530495Y-78373752D01*
X140530495Y-91306016D01*
X140588347Y-91596855D01*
X140753094Y-91843417D01*
X141532677Y-92623000D01*
X139349005Y-92623000D01*
X139401481Y-92359187D01*
X139401481Y-91474193D01*
X139433673Y-91442057D01*
X139576319Y-91098529D01*
X139576643Y-90726563D01*
X139434598Y-90382787D01*
X139171808Y-90119538D01*
X138828280Y-89976892D01*
X138456314Y-89976568D01*
X138112538Y-90118613D01*
X137849289Y-90381403D01*
X137706643Y-90724931D01*
X137706319Y-91096897D01*
X137848364Y-91440673D01*
X137881481Y-91473848D01*
X137881481Y-92015210D01*
X137865143Y-92015196D01*
X137521367Y-92157241D01*
X137258118Y-92420031D01*
X137115472Y-92763559D01*
X137115148Y-93135525D01*
X137257193Y-93479301D01*
X137519983Y-93742550D01*
X137863511Y-93885196D01*
X138123000Y-93885422D01*
X138123000Y-99250000D01*
X138132667Y-99298601D01*
X138160197Y-99339803D01*
X138201399Y-99367333D01*
X138250000Y-99377000D01*
X143192988Y-99377000D01*
X143192988Y-106326560D01*
X141934934Y-106326560D01*
X141935162Y-106064833D01*
X141793117Y-105721057D01*
X141530327Y-105457808D01*
X141186799Y-105315162D01*
X140814833Y-105314838D01*
X140471057Y-105456883D01*
X140397042Y-105530769D01*
X140311160Y-105547852D01*
X140064599Y-105712599D01*
X139590599Y-106186599D01*
X139497080Y-106326560D01*
X136628000Y-106326560D01*
X136380235Y-106375843D01*
X136170191Y-106516191D01*
X136029843Y-106726235D01*
X135980560Y-106974000D01*
X135980560Y-111974000D01*
X136029843Y-112221765D01*
X136170191Y-112431809D01*
X136380235Y-112572157D01*
X136628000Y-112621440D01*
X142778268Y-112621440D01*
X142538855Y-112860853D01*
X142336173Y-113164189D01*
X142265000Y-113521998D01*
X142265000Y-119400000D01*
X142336173Y-119757809D01*
X142538855Y-120061145D01*
X144938564Y-122460854D01*
X145069673Y-122592192D01*
X145413201Y-122734838D01*
X145599999Y-122735001D01*
X145600001Y-122735001D01*
X145785167Y-122735162D01*
X146128943Y-122593117D01*
X146392192Y-122330327D01*
X146534838Y-121986799D01*
X146535162Y-121614833D01*
X146393117Y-121271057D01*
X146130327Y-121007808D01*
X146129935Y-121007645D01*
X145663730Y-120541440D01*
X148619694Y-120541440D01*
X147500411Y-121660723D01*
X147319406Y-121931616D01*
X147255845Y-122251157D01*
X147255845Y-123425431D01*
X147156007Y-123665866D01*
X147155683Y-124037832D01*
X147297728Y-124381608D01*
X147560518Y-124644857D01*
X147904046Y-124787503D01*
X148276012Y-124787827D01*
X148619788Y-124645782D01*
X148883037Y-124382992D01*
X149025683Y-124039464D01*
X149025945Y-123737691D01*
X159551000Y-123737691D01*
X159551000Y-124428250D01*
X159709750Y-124587000D01*
X160909000Y-124587000D01*
X160909000Y-123387750D01*
X160750250Y-123229000D01*
X160059690Y-123229000D01*
X159826301Y-123325673D01*
X159647673Y-123504302D01*
X159551000Y-123737691D01*
X149025945Y-123737691D01*
X149026007Y-123667498D01*
X148925845Y-123425087D01*
X148925845Y-122597025D01*
X149793858Y-121729012D01*
X150296533Y-121729012D01*
X150616074Y-121665451D01*
X150809390Y-121536281D01*
X150809390Y-121738348D01*
X150764141Y-121757044D01*
X150500892Y-122019834D01*
X150358246Y-122363362D01*
X150357922Y-122735328D01*
X150499967Y-123079104D01*
X150762757Y-123342353D01*
X151106285Y-123484999D01*
X151478251Y-123485323D01*
X151822027Y-123343278D01*
X152085276Y-123080488D01*
X152185862Y-122838251D01*
X152234824Y-122789289D01*
X152415830Y-122518395D01*
X152479390Y-122198855D01*
X152479390Y-115296318D01*
X152415829Y-114976777D01*
X152234824Y-114705884D01*
X151836921Y-114307981D01*
X151737503Y-114067371D01*
X151474713Y-113804122D01*
X151131185Y-113661476D01*
X150759219Y-113661152D01*
X150415443Y-113803197D01*
X150375440Y-113843130D01*
X150375440Y-112894000D01*
X150372454Y-112878988D01*
X151533012Y-112878988D01*
X151823851Y-112821136D01*
X152070413Y-112656389D01*
X152105362Y-112621440D01*
X152370145Y-112621440D01*
X152370112Y-112659169D01*
X152512157Y-113002945D01*
X152774947Y-113266194D01*
X153118475Y-113408840D01*
X153268704Y-113408971D01*
X153157808Y-113519673D01*
X153015162Y-113863201D01*
X153014838Y-114235167D01*
X153156883Y-114578943D01*
X153419673Y-114842192D01*
X153763201Y-114984838D01*
X153810077Y-114984879D01*
X153826399Y-115001201D01*
X153757808Y-115069673D01*
X153615162Y-115413201D01*
X153614838Y-115785167D01*
X153756883Y-116128943D01*
X153790000Y-116162118D01*
X153790000Y-122175010D01*
X153815064Y-122301013D01*
X153814838Y-122560177D01*
X153956883Y-122903953D01*
X154219673Y-123167202D01*
X154563201Y-123309848D01*
X154935167Y-123310172D01*
X155278943Y-123168127D01*
X155542192Y-122905337D01*
X155684838Y-122561809D01*
X155685162Y-122189843D01*
X155543117Y-121846067D01*
X155310000Y-121612543D01*
X155310000Y-117784879D01*
X155635167Y-117785162D01*
X155978943Y-117643117D01*
X156242192Y-117380327D01*
X156384838Y-117036799D01*
X156385162Y-116664833D01*
X156243117Y-116321057D01*
X156210000Y-116287882D01*
X156210000Y-115550000D01*
X156182789Y-115413201D01*
X156152148Y-115259160D01*
X155987401Y-115012599D01*
X154885122Y-113910320D01*
X154885162Y-113864833D01*
X154743117Y-113521057D01*
X154531432Y-113309002D01*
X154572766Y-113309002D01*
X154813201Y-113408840D01*
X155185167Y-113409164D01*
X155528943Y-113267119D01*
X155792192Y-113004329D01*
X155934838Y-112660801D01*
X155934872Y-112621440D01*
X157678000Y-112621440D01*
X157925765Y-112572157D01*
X158135809Y-112431809D01*
X158276157Y-112221765D01*
X158325440Y-111974000D01*
X158325440Y-106974000D01*
X158276157Y-106726235D01*
X158135809Y-106516191D01*
X157925765Y-106375843D01*
X157678000Y-106326560D01*
X154736676Y-106326560D01*
X154809828Y-106150392D01*
X154810152Y-105778426D01*
X154668107Y-105434650D01*
X154405317Y-105171401D01*
X154061789Y-105028755D01*
X154014913Y-105028714D01*
X150822798Y-101836599D01*
X150576236Y-101671852D01*
X150375440Y-101631911D01*
X150375440Y-99850242D01*
X154476356Y-103951158D01*
X154457808Y-103969673D01*
X154315162Y-104313201D01*
X154314838Y-104685167D01*
X154456883Y-105028943D01*
X154719673Y-105292192D01*
X155063201Y-105434838D01*
X155435167Y-105435162D01*
X155778943Y-105293117D01*
X156042192Y-105030327D01*
X156184838Y-104686799D01*
X156185162Y-104314833D01*
X156043117Y-103971057D01*
X156010000Y-103937882D01*
X156010000Y-103650000D01*
X155952148Y-103359161D01*
X155952148Y-103359160D01*
X155856373Y-103215822D01*
X156042192Y-103030327D01*
X156184838Y-102686799D01*
X156185162Y-102314833D01*
X156043117Y-101971057D01*
X155780327Y-101707808D01*
X155436799Y-101565162D01*
X155389923Y-101565121D01*
X153201802Y-99377000D01*
X157250000Y-99377000D01*
X157298601Y-99367333D01*
X157339803Y-99339803D01*
X157367333Y-99298601D01*
X157377000Y-99250000D01*
X157377000Y-98609097D01*
X157421381Y-98627526D01*
X157516729Y-98627609D01*
X157617340Y-98694835D01*
X157908179Y-98752687D01*
X159377885Y-98752687D01*
X160722267Y-100097069D01*
X160436799Y-99978532D01*
X160064833Y-99978208D01*
X159721057Y-100120253D01*
X159457808Y-100383043D01*
X159315162Y-100726571D01*
X159314838Y-101098537D01*
X159456883Y-101442313D01*
X159719673Y-101705562D01*
X160063201Y-101848208D01*
X160110077Y-101848249D01*
X164478095Y-106216268D01*
X164375907Y-106730000D01*
X164488946Y-107298285D01*
X164810853Y-107780054D01*
X165140026Y-108000000D01*
X164810853Y-108219946D01*
X164488946Y-108701715D01*
X164375907Y-109270000D01*
X164488946Y-109838285D01*
X164810853Y-110320054D01*
X165140026Y-110540000D01*
X164810853Y-110759946D01*
X164488946Y-111241715D01*
X164375907Y-111810000D01*
X164488946Y-112378285D01*
X164810853Y-112860054D01*
X165140026Y-113080000D01*
X164810853Y-113299946D01*
X164488946Y-113781715D01*
X164375907Y-114350000D01*
X164448790Y-114716408D01*
X163038599Y-116126599D01*
X162873852Y-116373161D01*
X162816000Y-116664000D01*
X162816000Y-123441046D01*
X162525946Y-123634853D01*
X162496597Y-123678777D01*
X162424327Y-123504302D01*
X162245699Y-123325673D01*
X162012310Y-123229000D01*
X161321750Y-123229000D01*
X161163000Y-123387750D01*
X161163000Y-124587000D01*
X161183000Y-124587000D01*
X161183000Y-124841000D01*
X161163000Y-124841000D01*
X161163000Y-126040250D01*
X161321750Y-126199000D01*
X162012310Y-126199000D01*
X162245699Y-126102327D01*
X162424327Y-125923698D01*
X162496597Y-125749223D01*
X162525946Y-125793147D01*
X163007715Y-126115054D01*
X163576000Y-126228093D01*
X164144285Y-126115054D01*
X164626054Y-125793147D01*
X164846000Y-125463974D01*
X165065946Y-125793147D01*
X165547715Y-126115054D01*
X166116000Y-126228093D01*
X166684285Y-126115054D01*
X167166054Y-125793147D01*
X167487961Y-125311378D01*
X167601000Y-124743093D01*
X167601000Y-124684907D01*
X167487961Y-124116622D01*
X167166054Y-123634853D01*
X166684285Y-123312946D01*
X166116000Y-123199907D01*
X165547715Y-123312946D01*
X165065946Y-123634853D01*
X164846000Y-123964026D01*
X164626054Y-123634853D01*
X164336000Y-123441046D01*
X164336000Y-116978802D01*
X164384019Y-116930783D01*
X164488946Y-117458285D01*
X164810853Y-117940054D01*
X164854777Y-117969403D01*
X164792235Y-117981843D01*
X164582191Y-118122191D01*
X164441843Y-118332235D01*
X164392560Y-118580000D01*
X164392560Y-120280000D01*
X164441843Y-120527765D01*
X164582191Y-120737809D01*
X164792235Y-120878157D01*
X165040000Y-120927440D01*
X166740000Y-120927440D01*
X166987765Y-120878157D01*
X167197809Y-120737809D01*
X167338157Y-120527765D01*
X167387440Y-120280000D01*
X167387440Y-118580000D01*
X167338157Y-118332235D01*
X167197809Y-118122191D01*
X166987765Y-117981843D01*
X166925223Y-117969403D01*
X166969147Y-117940054D01*
X167291054Y-117458285D01*
X167404093Y-116890000D01*
X167291054Y-116321715D01*
X166969147Y-115839946D01*
X166639974Y-115620000D01*
X166969147Y-115400054D01*
X167291054Y-114918285D01*
X167404093Y-114350000D01*
X167291054Y-113781715D01*
X166969147Y-113299946D01*
X166639974Y-113080000D01*
X166969147Y-112860054D01*
X167291054Y-112378285D01*
X167404093Y-111810000D01*
X167291054Y-111241715D01*
X166969147Y-110759946D01*
X166639974Y-110540000D01*
X166969147Y-110320054D01*
X167291054Y-109838285D01*
X167404093Y-109270000D01*
X167291054Y-108701715D01*
X166969147Y-108219946D01*
X166639974Y-108000000D01*
X166969147Y-107780054D01*
X167291054Y-107298285D01*
X167404093Y-106730000D01*
X167291054Y-106161715D01*
X166969147Y-105679946D01*
X166639974Y-105460000D01*
X166969147Y-105240054D01*
X167291054Y-104758285D01*
X167404093Y-104190000D01*
X167291054Y-103621715D01*
X166969147Y-103139946D01*
X166639974Y-102920000D01*
X166969147Y-102700054D01*
X167291054Y-102218285D01*
X167404093Y-101650000D01*
X167331210Y-101283592D01*
X167702402Y-100912400D01*
X167867149Y-100665838D01*
X167925001Y-100374999D01*
X167925001Y-64965001D01*
X167895196Y-64815162D01*
X167867149Y-64674161D01*
X167735108Y-64476548D01*
X167735162Y-64414833D01*
X167593117Y-64071057D01*
X167330327Y-63807808D01*
X166986799Y-63665162D01*
X166614833Y-63664838D01*
X166271057Y-63806883D01*
X166007808Y-64069673D01*
X165865162Y-64413201D01*
X165864838Y-64785167D01*
X166006883Y-65128943D01*
X166269673Y-65392192D01*
X166405001Y-65448385D01*
X166405001Y-69802766D01*
X166246892Y-69728514D01*
X166017000Y-69849181D01*
X166017000Y-71043000D01*
X166037000Y-71043000D01*
X166037000Y-71297000D01*
X166017000Y-71297000D01*
X166017000Y-73583000D01*
X166037000Y-73583000D01*
X166037000Y-73837000D01*
X166017000Y-73837000D01*
X166017000Y-73857000D01*
X165763000Y-73857000D01*
X165763000Y-73837000D01*
X164569845Y-73837000D01*
X164448524Y-74066890D01*
X164618355Y-74476924D01*
X165008642Y-74905183D01*
X165151553Y-74972298D01*
X164810853Y-75199946D01*
X164488946Y-75681715D01*
X164375907Y-76250000D01*
X164488946Y-76818285D01*
X164810853Y-77300054D01*
X165140026Y-77520000D01*
X164810853Y-77739946D01*
X164488946Y-78221715D01*
X164375907Y-78790000D01*
X164431193Y-79067939D01*
X164107814Y-79391318D01*
X162690615Y-79391318D01*
X162386799Y-79265162D01*
X162014833Y-79264838D01*
X161671057Y-79406883D01*
X161407808Y-79669673D01*
X161265162Y-80013201D01*
X161264838Y-80385167D01*
X161406883Y-80728943D01*
X161669673Y-80992192D01*
X162013201Y-81134838D01*
X162385167Y-81135162D01*
X162563884Y-81061318D01*
X164429351Y-81061318D01*
X164375907Y-81330000D01*
X164488946Y-81898285D01*
X164810853Y-82380054D01*
X165140026Y-82600000D01*
X164810853Y-82819946D01*
X164488946Y-83301715D01*
X164375907Y-83870000D01*
X164488946Y-84438285D01*
X164810853Y-84920054D01*
X165140026Y-85140000D01*
X164810853Y-85359946D01*
X164488946Y-85841715D01*
X164375907Y-86410000D01*
X164448790Y-86776408D01*
X157912599Y-93312599D01*
X157747852Y-93559161D01*
X157690000Y-93850000D01*
X157690000Y-94433274D01*
X157679322Y-94443933D01*
X157536676Y-94787461D01*
X157536352Y-95159427D01*
X157678397Y-95503203D01*
X157941187Y-95766452D01*
X158284715Y-95909098D01*
X158514905Y-95909299D01*
X158514847Y-95975265D01*
X158649296Y-96300657D01*
X158898033Y-96549829D01*
X159223190Y-96684846D01*
X159575265Y-96685153D01*
X159900657Y-96550704D01*
X160149829Y-96301967D01*
X160275511Y-95999291D01*
X164443747Y-91831055D01*
X164488946Y-92058285D01*
X164810853Y-92540054D01*
X165140026Y-92760000D01*
X164810853Y-92979946D01*
X164488946Y-93461715D01*
X164375907Y-94030000D01*
X164488946Y-94598285D01*
X164810853Y-95080054D01*
X165140026Y-95300000D01*
X164810853Y-95519946D01*
X164488946Y-96001715D01*
X164375907Y-96570000D01*
X164488946Y-97138285D01*
X164810853Y-97620054D01*
X165140026Y-97840000D01*
X164810853Y-98059946D01*
X164488946Y-98541715D01*
X164375907Y-99110000D01*
X164488946Y-99678285D01*
X164810853Y-100160054D01*
X165140026Y-100380000D01*
X164810853Y-100599946D01*
X164488946Y-101081715D01*
X164384019Y-101609217D01*
X160230088Y-97455286D01*
X159983526Y-97290539D01*
X159692687Y-97232687D01*
X158429783Y-97232687D01*
X158401297Y-97163745D01*
X158138507Y-96900496D01*
X157794979Y-96757850D01*
X157423013Y-96757526D01*
X157377000Y-96776538D01*
X157377000Y-92750000D01*
X157367333Y-92701399D01*
X157339803Y-92660197D01*
X157298601Y-92632667D01*
X157250000Y-92623000D01*
X143682281Y-92623000D01*
X142050495Y-90991214D01*
X142050495Y-86072488D01*
X142850353Y-86072488D01*
X142992398Y-86416264D01*
X143255188Y-86679513D01*
X143598716Y-86822159D01*
X143970682Y-86822483D01*
X144221734Y-86718750D01*
X144502116Y-86999132D01*
X144319946Y-87120853D01*
X143998039Y-87602622D01*
X143885000Y-88170907D01*
X143885000Y-88229093D01*
X143998039Y-88797378D01*
X144319946Y-89279147D01*
X144801715Y-89601054D01*
X145370000Y-89714093D01*
X145938285Y-89601054D01*
X146420054Y-89279147D01*
X146440597Y-89248401D01*
X148572139Y-91379943D01*
X148818700Y-91544690D01*
X149109540Y-91602542D01*
X156305663Y-91602542D01*
X156596502Y-91544690D01*
X156843064Y-91379943D01*
X157874959Y-90348048D01*
X157920446Y-90348088D01*
X158264222Y-90206043D01*
X158527471Y-89943253D01*
X158670117Y-89599725D01*
X158670441Y-89227759D01*
X158528396Y-88883983D01*
X158265606Y-88620734D01*
X157922078Y-88478088D01*
X157550112Y-88477764D01*
X157206336Y-88619809D01*
X156943087Y-88882599D01*
X156800441Y-89226127D01*
X156800400Y-89273003D01*
X155990861Y-90082542D01*
X149424342Y-90082542D01*
X148756774Y-89414974D01*
X148960054Y-89279147D01*
X148989403Y-89235223D01*
X149061673Y-89409698D01*
X149240301Y-89588327D01*
X149473690Y-89685000D01*
X150164250Y-89685000D01*
X150323000Y-89526250D01*
X150323000Y-88327000D01*
X150577000Y-88327000D01*
X150577000Y-89526250D01*
X150735750Y-89685000D01*
X151426310Y-89685000D01*
X151659699Y-89588327D01*
X151838327Y-89409698D01*
X151935000Y-89176309D01*
X151935000Y-88485750D01*
X151776250Y-88327000D01*
X150577000Y-88327000D01*
X150323000Y-88327000D01*
X150303000Y-88327000D01*
X150303000Y-88073000D01*
X150323000Y-88073000D01*
X150323000Y-86873750D01*
X150577000Y-86873750D01*
X150577000Y-88073000D01*
X151776250Y-88073000D01*
X151935000Y-87914250D01*
X151935000Y-87223691D01*
X151838327Y-86990302D01*
X151659699Y-86811673D01*
X151426310Y-86715000D01*
X150735750Y-86715000D01*
X150577000Y-86873750D01*
X150323000Y-86873750D01*
X150164250Y-86715000D01*
X149473690Y-86715000D01*
X149240301Y-86811673D01*
X149061673Y-86990302D01*
X148989403Y-87164777D01*
X148960054Y-87120853D01*
X148478285Y-86798946D01*
X147910000Y-86685907D01*
X147341715Y-86798946D01*
X146859946Y-87120853D01*
X146825297Y-87172709D01*
X145002508Y-85349920D01*
X144755946Y-85185173D01*
X144465107Y-85127321D01*
X144347978Y-85127321D01*
X144315842Y-85095129D01*
X143972314Y-84952483D01*
X143600348Y-84952159D01*
X143256572Y-85094204D01*
X142993323Y-85356994D01*
X142850677Y-85700522D01*
X142850353Y-86072488D01*
X142050495Y-86072488D01*
X142050495Y-78378345D01*
X142119437Y-78349859D01*
X142382686Y-78087069D01*
X142395124Y-78057115D01*
X142394760Y-78474285D01*
X142605169Y-78983515D01*
X142994436Y-79373461D01*
X143503298Y-79584759D01*
X144054285Y-79585240D01*
X144563515Y-79374831D01*
X144953461Y-78985564D01*
X145164759Y-78476702D01*
X145165240Y-77925715D01*
X144954831Y-77416485D01*
X144565564Y-77026539D01*
X144056702Y-76815241D01*
X143505715Y-76814760D01*
X142996485Y-77025169D01*
X142606539Y-77414436D01*
X142525449Y-77609723D01*
X142525656Y-77371575D01*
X142383611Y-77027799D01*
X142208990Y-76852873D01*
X142287656Y-76663426D01*
X142287905Y-76377866D01*
X142876583Y-76377866D01*
X142957032Y-76458315D01*
X143203594Y-76623062D01*
X143494433Y-76680914D01*
X144571176Y-76680914D01*
X147039837Y-79149575D01*
X147039837Y-79663855D01*
X147007645Y-79695991D01*
X146907059Y-79938228D01*
X146409566Y-80435721D01*
X146228561Y-80706614D01*
X146165000Y-81026155D01*
X146165000Y-84822766D01*
X146065162Y-85063201D01*
X146064838Y-85435167D01*
X146206883Y-85778943D01*
X146469673Y-86042192D01*
X146813201Y-86184838D01*
X147185167Y-86185162D01*
X147528943Y-86043117D01*
X147792192Y-85780327D01*
X147934838Y-85436799D01*
X147935162Y-85064833D01*
X147835000Y-84822422D01*
X147835000Y-81372023D01*
X148088170Y-81118853D01*
X148291110Y-81035000D01*
X156372766Y-81035000D01*
X156613201Y-81134838D01*
X156985167Y-81135162D01*
X157328943Y-80993117D01*
X157592192Y-80730327D01*
X157734838Y-80386799D01*
X157735162Y-80014833D01*
X157593117Y-79671057D01*
X157330327Y-79407808D01*
X156986799Y-79265162D01*
X156614833Y-79264838D01*
X156372422Y-79365000D01*
X152173363Y-79365000D01*
X152553461Y-78985564D01*
X152764759Y-78476702D01*
X152765240Y-77925715D01*
X152554831Y-77416485D01*
X152165564Y-77026539D01*
X151656702Y-76815241D01*
X151105715Y-76814760D01*
X150596485Y-77025169D01*
X150206539Y-77414436D01*
X149995241Y-77923298D01*
X149994760Y-78474285D01*
X150205169Y-78983515D01*
X150585990Y-79365000D01*
X148559837Y-79365000D01*
X148559837Y-78834773D01*
X148501985Y-78543934D01*
X148337238Y-78297372D01*
X145423379Y-75383513D01*
X145176817Y-75218766D01*
X144885978Y-75160914D01*
X144844751Y-75160914D01*
X144844779Y-75129278D01*
X144702734Y-74785502D01*
X144669617Y-74752327D01*
X144669617Y-72871585D01*
X146014312Y-71526890D01*
X164448524Y-71526890D01*
X164618355Y-71936924D01*
X165008642Y-72365183D01*
X165167954Y-72440000D01*
X165008642Y-72514817D01*
X164618355Y-72943076D01*
X164448524Y-73353110D01*
X164569845Y-73583000D01*
X165763000Y-73583000D01*
X165763000Y-71297000D01*
X164569845Y-71297000D01*
X164448524Y-71526890D01*
X146014312Y-71526890D01*
X146728092Y-70813110D01*
X164448524Y-70813110D01*
X164569845Y-71043000D01*
X165763000Y-71043000D01*
X165763000Y-69849181D01*
X165533108Y-69728514D01*
X165008642Y-69974817D01*
X164618355Y-70403076D01*
X164448524Y-70813110D01*
X146728092Y-70813110D01*
X152530314Y-65010888D01*
X152575801Y-65010928D01*
X152919577Y-64868883D01*
X153182826Y-64606093D01*
X153325472Y-64262565D01*
X153325796Y-63890599D01*
X153183751Y-63546823D01*
X152920961Y-63283574D01*
X152577433Y-63140928D01*
X152205467Y-63140604D01*
X151861691Y-63282649D01*
X151598442Y-63545439D01*
X151455796Y-63888967D01*
X151455755Y-63935843D01*
X143372216Y-72019382D01*
X143207469Y-72265944D01*
X143149617Y-72556783D01*
X143149617Y-74751982D01*
X143117425Y-74784118D01*
X143086802Y-74857866D01*
X141447486Y-74857866D01*
X140669643Y-74080023D01*
X140423081Y-73915276D01*
X140132242Y-73857424D01*
X139015535Y-73857424D01*
X138987049Y-73788482D01*
X138724259Y-73525233D01*
X138380731Y-73382587D01*
X138008765Y-73382263D01*
X137664989Y-73524308D01*
X137401740Y-73787098D01*
X137259094Y-74130626D01*
X137258770Y-74502592D01*
X137400815Y-74846368D01*
X137663605Y-75109617D01*
X138007133Y-75252263D01*
X138102481Y-75252346D01*
X138124938Y-75267352D01*
X138124813Y-75411399D01*
X138266858Y-75755175D01*
X138334220Y-75822654D01*
X138348366Y-75893774D01*
X137645082Y-76597058D01*
X137599595Y-76597018D01*
X137255819Y-76739063D01*
X136992570Y-77001853D01*
X136849924Y-77345381D01*
X136849600Y-77717347D01*
X136991645Y-78061123D01*
X137254435Y-78324372D01*
X137597963Y-78467018D01*
X137969929Y-78467342D01*
X138313705Y-78325297D01*
X138576954Y-78062507D01*
X138719600Y-77718979D01*
X138719641Y-77672103D01*
X139654475Y-76737269D01*
X139819222Y-76490707D01*
X139877074Y-76199868D01*
X139877074Y-75707595D01*
X139875592Y-75700145D01*
X139953218Y-75513202D01*
X140509483Y-76069467D01*
X140417980Y-76289828D01*
X140417939Y-76336704D01*
X135187039Y-81567604D01*
X135187039Y-73497378D01*
X135423145Y-73733896D01*
X135766673Y-73876542D01*
X136138639Y-73876866D01*
X136482415Y-73734821D01*
X136745664Y-73472031D01*
X136888310Y-73128503D01*
X136888634Y-72756537D01*
X136746589Y-72412761D01*
X136483799Y-72149512D01*
X136140271Y-72006866D01*
X136093395Y-72006825D01*
X135986649Y-71900079D01*
X135986649Y-70398439D01*
X136009415Y-70407892D01*
X136381381Y-70408216D01*
X136725157Y-70266171D01*
X136758332Y-70233054D01*
X139821403Y-70233054D01*
X140447855Y-70859506D01*
X140447815Y-70904993D01*
X140589860Y-71248769D01*
X140852650Y-71512018D01*
X141196178Y-71654664D01*
X141568144Y-71654988D01*
X141911920Y-71512943D01*
X142175169Y-71250153D01*
X142317815Y-70906625D01*
X142318139Y-70534659D01*
X142176094Y-70190883D01*
X141913304Y-69927634D01*
X141569776Y-69784988D01*
X141522900Y-69784947D01*
X140673606Y-68935653D01*
X140427044Y-68770906D01*
X140136205Y-68713054D01*
X136758677Y-68713054D01*
X136726541Y-68680862D01*
X136383013Y-68538216D01*
X136011047Y-68537892D01*
X135861219Y-68599800D01*
X135756976Y-68495375D01*
X135413448Y-68352729D01*
X135187039Y-68352532D01*
X135187039Y-66198829D01*
X136468333Y-64917535D01*
X136708943Y-64818117D01*
X136972192Y-64555327D01*
X137114838Y-64211799D01*
X137115010Y-64013489D01*
X139347590Y-64013489D01*
X139489635Y-64357265D01*
X139752425Y-64620514D01*
X140095953Y-64763160D01*
X140467919Y-64763484D01*
X140710330Y-64663322D01*
X143491678Y-64663322D01*
X143811219Y-64599761D01*
X144082112Y-64418756D01*
X146050000Y-62450868D01*
X146456755Y-62857623D01*
X146506883Y-62978943D01*
X146769673Y-63242192D01*
X147113201Y-63384838D01*
X147485167Y-63385162D01*
X147828943Y-63243117D01*
X148092192Y-62980327D01*
X148234838Y-62636799D01*
X148235162Y-62264833D01*
X148093117Y-61921057D01*
X147830327Y-61657808D01*
X147486799Y-61515162D01*
X147476021Y-61515153D01*
X146942535Y-60981667D01*
X146843117Y-60741057D01*
X146770931Y-60668745D01*
X146787142Y-60652534D01*
X146669427Y-60534819D01*
X146864025Y-60522607D01*
X146973363Y-60167073D01*
X146938322Y-59796761D01*
X146864025Y-59617393D01*
X146669424Y-59605181D01*
X146204605Y-60070000D01*
X146218748Y-60084143D01*
X146039143Y-60263748D01*
X146025000Y-60249605D01*
X146010858Y-60263748D01*
X145831253Y-60084143D01*
X145845395Y-60070000D01*
X145831253Y-60055858D01*
X146010858Y-59876253D01*
X146025000Y-59890395D01*
X146489819Y-59425576D01*
X146477607Y-59230975D01*
X146221941Y-59152350D01*
X146310819Y-58906816D01*
X146302974Y-58734112D01*
X146313257Y-58733083D01*
X146474140Y-58666442D01*
X146479925Y-58476702D01*
X146255647Y-58252424D01*
X146111366Y-57904096D01*
X146003167Y-57870000D01*
X146226777Y-57870000D01*
X146656702Y-58299925D01*
X146846442Y-58294140D01*
X146948128Y-57957070D01*
X146913083Y-57606743D01*
X146846442Y-57445860D01*
X146656702Y-57440075D01*
X146226777Y-57870000D01*
X146003167Y-57870000D01*
X145861308Y-57825297D01*
X145844914Y-57841691D01*
X145665309Y-57662086D01*
X145681703Y-57645692D01*
X145602904Y-57395634D01*
X145237314Y-57263298D01*
X145620075Y-57263298D01*
X146050000Y-57693223D01*
X146479925Y-57263298D01*
X146474140Y-57073558D01*
X146137070Y-56971872D01*
X145786743Y-57006917D01*
X145625860Y-57073558D01*
X145620075Y-57263298D01*
X145237314Y-57263298D01*
X145051896Y-57196181D01*
X144466503Y-57222773D01*
X144049176Y-57395634D01*
X143979254Y-57617523D01*
X143762603Y-57834174D01*
X143540714Y-57904096D01*
X143454496Y-58142281D01*
X143120075Y-58476702D01*
X143125860Y-58666442D01*
X143353987Y-58735263D01*
X143367853Y-59040497D01*
X143408085Y-59137626D01*
X143071057Y-59276883D01*
X143037882Y-59310000D01*
X142784802Y-59310000D01*
X141985122Y-58510320D01*
X141985162Y-58464833D01*
X141843117Y-58121057D01*
X141580327Y-57857808D01*
X141400002Y-57782930D01*
X142651872Y-57782930D01*
X142686917Y-58133257D01*
X142753558Y-58294140D01*
X142943298Y-58299925D01*
X143373223Y-57870000D01*
X142943298Y-57440075D01*
X142753558Y-57445860D01*
X142651872Y-57782930D01*
X141400002Y-57782930D01*
X141236799Y-57715162D01*
X140864833Y-57714838D01*
X140521057Y-57856883D01*
X140257808Y-58119673D01*
X140115162Y-58463201D01*
X140114838Y-58835167D01*
X140256883Y-59178943D01*
X140519673Y-59442192D01*
X140863201Y-59584838D01*
X140910077Y-59584879D01*
X141835198Y-60510000D01*
X141832254Y-60510000D01*
X141680327Y-60357808D01*
X141336799Y-60215162D01*
X140964833Y-60214838D01*
X140621057Y-60356883D01*
X140357808Y-60619673D01*
X140215162Y-60963201D01*
X140214838Y-61335167D01*
X140356883Y-61678943D01*
X140619673Y-61942192D01*
X140963201Y-62084838D01*
X141335167Y-62085162D01*
X141468670Y-62030000D01*
X142987537Y-62030000D01*
X143019673Y-62062192D01*
X143363201Y-62204838D01*
X143735167Y-62205162D01*
X144073953Y-62065179D01*
X143145810Y-62993322D01*
X140709986Y-62993322D01*
X140469551Y-62893484D01*
X140097585Y-62893160D01*
X139753809Y-63035205D01*
X139490560Y-63297995D01*
X139347914Y-63641523D01*
X139347590Y-64013489D01*
X137115010Y-64013489D01*
X137115162Y-63839833D01*
X136973117Y-63496057D01*
X136710327Y-63232808D01*
X136366799Y-63090162D01*
X135994833Y-63089838D01*
X135651057Y-63231883D01*
X135387808Y-63494673D01*
X135287222Y-63736910D01*
X133761605Y-65262527D01*
X133580600Y-65533420D01*
X133517039Y-65852961D01*
X133517039Y-88329613D01*
X133325031Y-88329446D01*
X132981255Y-88471491D01*
X132718006Y-88734281D01*
X132630727Y-88944471D01*
X130385981Y-91189217D01*
X130321210Y-90863592D01*
X133134912Y-88049890D01*
X133299659Y-87803329D01*
X133309257Y-87755075D01*
X133357511Y-87512489D01*
X133357511Y-66597511D01*
X133299659Y-66306672D01*
X133134912Y-66060110D01*
X132685122Y-65610320D01*
X132685162Y-65564833D01*
X132543117Y-65221057D01*
X132280327Y-64957808D01*
X131936799Y-64815162D01*
X131564833Y-64814838D01*
X131221057Y-64956883D01*
X130957808Y-65219673D01*
X130815162Y-65563201D01*
X130814838Y-65935167D01*
X130956883Y-66278943D01*
X131219673Y-66542192D01*
X131563201Y-66684838D01*
X131610077Y-66684879D01*
X131837511Y-66912313D01*
X131837511Y-84093694D01*
X131586745Y-83842490D01*
X131243217Y-83699844D01*
X130871251Y-83699520D01*
X130527475Y-83841565D01*
X130303572Y-84065077D01*
X130394093Y-83610000D01*
X130281054Y-83041715D01*
X129959147Y-82559946D01*
X129629974Y-82340000D01*
X129959147Y-82120054D01*
X130281054Y-81638285D01*
X130394093Y-81070000D01*
X130281054Y-80501715D01*
X129959147Y-80019946D01*
X129618447Y-79792298D01*
X129761358Y-79725183D01*
X130151645Y-79296924D01*
X130321476Y-78886890D01*
X130200155Y-78657000D01*
X129007000Y-78657000D01*
X129007000Y-78677000D01*
X128753000Y-78677000D01*
X128753000Y-78657000D01*
X127559845Y-78657000D01*
X127438524Y-78886890D01*
X127608355Y-79296924D01*
X127998642Y-79725183D01*
X128141553Y-79792298D01*
X127800853Y-80019946D01*
X127478946Y-80501715D01*
X127365907Y-81070000D01*
X127478946Y-81638285D01*
X127800853Y-82120054D01*
X128130026Y-82340000D01*
X127800853Y-82559946D01*
X127478946Y-83041715D01*
X127365907Y-83610000D01*
X127478946Y-84178285D01*
X127702836Y-84513360D01*
X126423028Y-85793168D01*
X126423028Y-76275750D01*
X127395000Y-76275750D01*
X127395000Y-76966310D01*
X127491673Y-77199699D01*
X127670302Y-77378327D01*
X127879878Y-77465136D01*
X127608355Y-77763076D01*
X127438524Y-78173110D01*
X127559845Y-78403000D01*
X128753000Y-78403000D01*
X128753000Y-76117000D01*
X129007000Y-76117000D01*
X129007000Y-78403000D01*
X130200155Y-78403000D01*
X130321476Y-78173110D01*
X130151645Y-77763076D01*
X129880122Y-77465136D01*
X130089698Y-77378327D01*
X130268327Y-77199699D01*
X130365000Y-76966310D01*
X130365000Y-76275750D01*
X130206250Y-76117000D01*
X129007000Y-76117000D01*
X128753000Y-76117000D01*
X127553750Y-76117000D01*
X127395000Y-76275750D01*
X126423028Y-76275750D01*
X126423028Y-75013690D01*
X127395000Y-75013690D01*
X127395000Y-75704250D01*
X127553750Y-75863000D01*
X128753000Y-75863000D01*
X128753000Y-74663750D01*
X129007000Y-74663750D01*
X129007000Y-75863000D01*
X130206250Y-75863000D01*
X130365000Y-75704250D01*
X130365000Y-75013690D01*
X130268327Y-74780301D01*
X130089698Y-74601673D01*
X129856309Y-74505000D01*
X129165750Y-74505000D01*
X129007000Y-74663750D01*
X128753000Y-74663750D01*
X128594250Y-74505000D01*
X127903691Y-74505000D01*
X127670302Y-74601673D01*
X127491673Y-74780301D01*
X127395000Y-75013690D01*
X126423028Y-75013690D01*
X126423028Y-62506661D01*
X126822758Y-62506661D01*
X127034990Y-63020303D01*
X127427630Y-63413629D01*
X127460000Y-63427070D01*
X127460000Y-67822063D01*
X127517852Y-68112902D01*
X127682599Y-68359464D01*
X128473741Y-69150606D01*
X128473701Y-69196093D01*
X128615746Y-69539869D01*
X128878536Y-69803118D01*
X129222064Y-69945764D01*
X129594030Y-69946088D01*
X129937806Y-69804043D01*
X130201055Y-69541253D01*
X130343701Y-69197725D01*
X130344025Y-68825759D01*
X130201980Y-68481983D01*
X129939190Y-68218734D01*
X129595662Y-68076088D01*
X129548786Y-68076047D01*
X128980000Y-67507261D01*
X128980000Y-63427531D01*
X129010303Y-63415010D01*
X129403629Y-63022370D01*
X129616757Y-62509100D01*
X129617242Y-61953339D01*
X129405010Y-61439697D01*
X129012370Y-61046371D01*
X128820273Y-60966605D01*
X128951143Y-60912397D01*
X129020608Y-60670213D01*
X128220000Y-59869605D01*
X127419392Y-60670213D01*
X127488857Y-60912397D01*
X127629318Y-60962509D01*
X127429697Y-61044990D01*
X127036371Y-61437630D01*
X126823243Y-61950900D01*
X126822758Y-62506661D01*
X126423028Y-62506661D01*
X126423028Y-59482302D01*
X126810856Y-59482302D01*
X126838638Y-60037368D01*
X126997603Y-60421143D01*
X127239787Y-60490608D01*
X128040395Y-59690000D01*
X127239787Y-58889392D01*
X126997603Y-58958857D01*
X126810856Y-59482302D01*
X126423028Y-59482302D01*
X126423028Y-49946302D01*
X142604028Y-49946302D01*
X142875733Y-49892256D01*
X143106074Y-49738348D01*
X143259982Y-49508007D01*
X143314028Y-49236302D01*
X143314028Y-43723302D01*
X145895328Y-43723302D01*
X145344799Y-43950776D01*
X145344799Y-43950776D01*
G37*
X145344799Y-43950776D02*
X144180590Y-45112955D01*
X143549748Y-46632191D01*
X143548312Y-48277196D01*
X144176502Y-49797531D01*
X144901008Y-50523303D01*
X134011697Y-50523303D01*
X133692156Y-50586864D01*
X133425557Y-50765000D01*
X133421263Y-50767869D01*
X128435944Y-55753188D01*
X127943339Y-55752758D01*
X127429697Y-55964990D01*
X127036371Y-56357630D01*
X126823243Y-56870900D01*
X126822758Y-57426661D01*
X127034990Y-57940303D01*
X127427630Y-58333629D01*
X127619727Y-58413395D01*
X127488857Y-58467603D01*
X127419392Y-58709787D01*
X128220000Y-59510395D01*
X128234143Y-59496253D01*
X128413748Y-59675858D01*
X128399605Y-59690000D01*
X129200213Y-60490608D01*
X129442397Y-60421143D01*
X129629144Y-59897698D01*
X129615247Y-59620049D01*
X132234277Y-62239079D01*
X132234277Y-63210974D01*
X132202085Y-63243110D01*
X132059439Y-63586638D01*
X132059115Y-63958604D01*
X132201160Y-64302380D01*
X132463950Y-64565629D01*
X132807478Y-64708275D01*
X133179444Y-64708599D01*
X133523220Y-64566554D01*
X133786469Y-64303764D01*
X133929115Y-63960236D01*
X133929439Y-63588270D01*
X133787394Y-63244494D01*
X133754277Y-63211319D01*
X133754277Y-61924277D01*
X133741405Y-61859566D01*
X133696425Y-61633437D01*
X133531678Y-61386876D01*
X129604183Y-57459381D01*
X129616757Y-57429100D01*
X129616901Y-57263298D01*
X143120075Y-57263298D01*
X143550000Y-57693223D01*
X143979925Y-57263298D01*
X143974140Y-57073558D01*
X143637070Y-56971872D01*
X143286743Y-57006917D01*
X143125860Y-57073558D01*
X143120075Y-57263298D01*
X129616901Y-57263298D01*
X129617189Y-56933679D01*
X133343976Y-53206892D01*
X142348514Y-53206892D01*
X142594817Y-53731358D01*
X143023076Y-54121645D01*
X143433110Y-54291476D01*
X143663000Y-54170155D01*
X143663000Y-52977000D01*
X142469181Y-52977000D01*
X142348514Y-53206892D01*
X133343976Y-53206892D01*
X134357565Y-52193303D01*
X142489310Y-52193303D01*
X142348514Y-52493108D01*
X142469181Y-52723000D01*
X143663000Y-52723000D01*
X143663000Y-52703000D01*
X143917000Y-52703000D01*
X143917000Y-52723000D01*
X143937000Y-52723000D01*
X143937000Y-52977000D01*
X143917000Y-52977000D01*
X143917000Y-54170155D01*
X144146890Y-54291476D01*
X144556924Y-54121645D01*
X144985183Y-53731358D01*
X145052298Y-53588447D01*
X145279946Y-53929147D01*
X145761715Y-54251054D01*
X146330000Y-54364093D01*
X146898285Y-54251054D01*
X147380054Y-53929147D01*
X147600000Y-53599974D01*
X147819946Y-53929147D01*
X148110000Y-54122954D01*
X148110000Y-58491002D01*
X148167852Y-58781841D01*
X148332599Y-59028403D01*
X152116598Y-62812402D01*
X152363160Y-62977149D01*
X152653999Y-63035001D01*
X163110199Y-63035001D01*
X163514878Y-63439680D01*
X163514838Y-63485167D01*
X163656883Y-63828943D01*
X163919673Y-64092192D01*
X164263201Y-64234838D01*
X164635167Y-64235162D01*
X164978943Y-64093117D01*
X165242192Y-63830327D01*
X165384838Y-63486799D01*
X165385162Y-63114833D01*
X165243117Y-62771057D01*
X164980327Y-62507808D01*
X164636799Y-62365162D01*
X164589923Y-62365121D01*
X163962402Y-61737600D01*
X163715840Y-61572853D01*
X163425001Y-61515001D01*
X161258398Y-61515001D01*
X161394733Y-61186670D01*
X161395265Y-60576009D01*
X161162068Y-60011629D01*
X160992025Y-59841288D01*
X161007765Y-59838157D01*
X161217809Y-59697809D01*
X161358157Y-59487765D01*
X161407440Y-59240000D01*
X161407440Y-57440000D01*
X161358157Y-57192235D01*
X161217809Y-56982191D01*
X161007765Y-56841843D01*
X160760000Y-56792560D01*
X158960000Y-56792560D01*
X158712235Y-56841843D01*
X158502191Y-56982191D01*
X158361843Y-57192235D01*
X158312560Y-57440000D01*
X158312560Y-59240000D01*
X158361843Y-59487765D01*
X158502191Y-59697809D01*
X158712235Y-59838157D01*
X158727839Y-59841261D01*
X158559449Y-60009357D01*
X158325267Y-60573330D01*
X158324735Y-61183991D01*
X158461506Y-61515001D01*
X154717796Y-61515001D01*
X154836458Y-61190664D01*
X154810839Y-60580540D01*
X154626643Y-60135852D01*
X154370161Y-60049447D01*
X154484718Y-59934890D01*
X154449886Y-59900058D01*
X154647809Y-59767809D01*
X154788157Y-59557765D01*
X154837440Y-59310000D01*
X154837440Y-57510000D01*
X154788157Y-57262235D01*
X154647809Y-57052191D01*
X154437765Y-56911843D01*
X154348744Y-56894136D01*
X154434838Y-56686799D01*
X154435162Y-56314833D01*
X154293117Y-55971057D01*
X154030327Y-55707808D01*
X153686799Y-55565162D01*
X153314833Y-55564838D01*
X152971057Y-55706883D01*
X152937882Y-55740000D01*
X152814998Y-55740000D01*
X152524158Y-55797852D01*
X152277597Y-55962599D01*
X150212599Y-58027597D01*
X150047852Y-58274159D01*
X150021636Y-58405957D01*
X149957808Y-58469673D01*
X149947734Y-58493934D01*
X149630000Y-58176200D01*
X149630000Y-54122954D01*
X149920054Y-53929147D01*
X149949403Y-53885223D01*
X149961843Y-53947765D01*
X150102191Y-54157809D01*
X150312235Y-54298157D01*
X150560000Y-54347440D01*
X152260000Y-54347440D01*
X152507765Y-54298157D01*
X152717809Y-54157809D01*
X152858157Y-53947765D01*
X152907440Y-53700000D01*
X152907440Y-52000000D01*
X152858157Y-51752235D01*
X152717809Y-51542191D01*
X152507765Y-51401843D01*
X152260000Y-51352560D01*
X152195781Y-51352560D01*
X152181439Y-51280459D01*
X152000434Y-51009566D01*
X151758737Y-50767869D01*
X151754443Y-50765000D01*
X151487844Y-50586864D01*
X151168303Y-50523303D01*
X150466555Y-50523303D01*
X151187466Y-49803649D01*
X151818308Y-48284413D01*
X151819744Y-46639408D01*
X151191554Y-45119073D01*
X150029375Y-43954864D01*
X149471712Y-43723302D01*
X152308028Y-43723302D01*
X152308028Y-49236302D01*
X152362074Y-49508007D01*
X152515982Y-49738348D01*
X152746323Y-49892256D01*
X153018028Y-49946302D01*
X168183028Y-49946302D01*
X168183028Y-126885302D01*
X153018028Y-126885302D01*
X152746323Y-126939348D01*
X152515982Y-127093256D01*
X152362074Y-127323597D01*
X152308028Y-127595302D01*
X152308028Y-134505302D01*
X148858002Y-134505302D01*
X150023257Y-134023828D01*
X151187466Y-132861649D01*
X151818308Y-131342413D01*
X151819744Y-129697408D01*
X151191554Y-128177073D01*
X150029375Y-127012864D01*
X148510139Y-126382022D01*
X146865134Y-126380586D01*
X145344799Y-127008776D01*
X144180590Y-128170955D01*
X143549748Y-129690191D01*
X143548312Y-131335196D01*
X144176502Y-132855531D01*
X145338681Y-134019740D01*
X146508044Y-134505302D01*
X143060028Y-134505302D01*
X143060028Y-127595302D01*
X143005982Y-127323597D01*
X142852074Y-127093256D01*
X142621733Y-126939348D01*
X142350028Y-126885302D01*
X126423028Y-126885302D01*
X126423028Y-121529911D01*
X127140518Y-122247401D01*
X127387080Y-122412148D01*
X127596182Y-122453741D01*
X127800853Y-122760054D01*
X128130026Y-122980000D01*
X127800853Y-123199946D01*
X127478946Y-123681715D01*
X127365907Y-124250000D01*
X127478946Y-124818285D01*
X127800853Y-125300054D01*
X128282622Y-125621961D01*
X128850907Y-125735000D01*
X128909093Y-125735000D01*
X129477378Y-125621961D01*
X129959147Y-125300054D01*
X130281054Y-124818285D01*
X130394093Y-124250000D01*
X130281054Y-123681715D01*
X129959147Y-123199946D01*
X129629974Y-122980000D01*
X129959147Y-122760054D01*
X130281054Y-122278285D01*
X130394093Y-121710000D01*
X130281054Y-121141715D01*
X129959147Y-120659946D01*
X129629974Y-120440000D01*
X129959147Y-120220054D01*
X130281054Y-119738285D01*
X130394093Y-119170000D01*
X130281054Y-118601715D01*
X129959147Y-118119946D01*
X129629974Y-117900000D01*
X129959147Y-117680054D01*
X130281054Y-117198285D01*
X130394093Y-116630000D01*
X130281054Y-116061715D01*
X129959147Y-115579946D01*
X129629974Y-115360000D01*
X129959147Y-115140054D01*
X130281054Y-114658285D01*
X130394093Y-114090000D01*
X130281054Y-113521715D01*
X129959147Y-113039946D01*
X129629974Y-112820000D01*
X129959147Y-112600054D01*
X130281054Y-112118285D01*
X130394093Y-111550000D01*
X130281054Y-110981715D01*
X129959147Y-110499946D01*
X129629974Y-110280000D01*
X129959147Y-110060054D01*
X130281054Y-109578285D01*
X130394093Y-109010000D01*
X130281054Y-108441715D01*
X129959147Y-107959946D01*
X129629974Y-107740000D01*
X129959147Y-107520054D01*
X130281054Y-107038285D01*
X130394093Y-106470000D01*
X130281054Y-105901715D01*
X129959147Y-105419946D01*
X129629974Y-105200000D01*
X129959147Y-104980054D01*
X130281054Y-104498285D01*
X130394093Y-103930000D01*
X130281054Y-103361715D01*
X129959147Y-102879946D01*
X129629974Y-102660000D01*
X129959147Y-102440054D01*
X130281054Y-101958285D01*
X130394093Y-101390000D01*
X130321210Y-101023592D01*
X133517039Y-97827763D01*
X133517039Y-117102039D01*
X133580600Y-117421580D01*
X133605126Y-117458285D01*
X133761605Y-117692473D01*
X137757465Y-121688333D01*
X137856883Y-121928943D01*
X138119673Y-122192192D01*
X138463201Y-122334838D01*
X138835167Y-122335162D01*
X139077578Y-122235000D01*
X139382902Y-122235000D01*
X142005123Y-124857221D01*
X142104541Y-125097831D01*
X142367331Y-125361080D01*
X142710859Y-125503726D01*
X143082825Y-125504050D01*
X143426601Y-125362005D01*
X143689850Y-125099215D01*
X143731151Y-124999750D01*
X159551000Y-124999750D01*
X159551000Y-125690309D01*
X159647673Y-125923698D01*
X159826301Y-126102327D01*
X160059690Y-126199000D01*
X160750250Y-126199000D01*
X160909000Y-126040250D01*
X160909000Y-124841000D01*
X159709750Y-124841000D01*
X159551000Y-124999750D01*
X143731151Y-124999750D01*
X143832496Y-124755687D01*
X143832820Y-124383721D01*
X143690775Y-124039945D01*
X143427985Y-123776696D01*
X143185748Y-123676110D01*
X140319204Y-120809566D01*
X140211812Y-120737809D01*
X140048311Y-120628561D01*
X139728770Y-120565000D01*
X139077234Y-120565000D01*
X138938090Y-120507222D01*
X135187039Y-116756171D01*
X135187039Y-88923976D01*
X135222625Y-88938753D01*
X135594591Y-88939077D01*
X135938367Y-88797032D01*
X136201616Y-88534242D01*
X136344262Y-88190714D01*
X136344586Y-87818748D01*
X136202541Y-87474972D01*
X136169424Y-87441797D01*
X136169424Y-82734823D01*
X136304439Y-82599808D01*
X136408029Y-82850516D01*
X136576941Y-83019723D01*
X136320318Y-83275899D01*
X136177672Y-83619427D01*
X136177348Y-83991393D01*
X136319393Y-84335169D01*
X136582183Y-84598418D01*
X136773531Y-84677873D01*
X136773531Y-85774763D01*
X136741339Y-85806899D01*
X136598693Y-86150427D01*
X136598369Y-86522393D01*
X136740414Y-86866169D01*
X137003204Y-87129418D01*
X137346732Y-87272064D01*
X137718698Y-87272388D01*
X138062474Y-87130343D01*
X138325723Y-86867553D01*
X138468369Y-86524025D01*
X138468693Y-86152059D01*
X138326648Y-85808283D01*
X138293531Y-85775108D01*
X138293531Y-84227247D01*
X138235679Y-83936408D01*
X138070932Y-83689846D01*
X138047632Y-83666546D01*
X138047672Y-83621059D01*
X137957983Y-83403994D01*
X138153262Y-83599614D01*
X138496790Y-83742260D01*
X138543666Y-83742301D01*
X138756556Y-83955191D01*
X138756556Y-85264467D01*
X138724364Y-85296603D01*
X138581718Y-85640131D01*
X138581394Y-86012097D01*
X138723439Y-86355873D01*
X138986229Y-86619122D01*
X139329757Y-86761768D01*
X139701723Y-86762092D01*
X140045499Y-86620047D01*
X140308748Y-86357257D01*
X140451394Y-86013729D01*
X140451718Y-85641763D01*
X140309673Y-85297987D01*
X140276556Y-85264812D01*
X140276556Y-83640389D01*
X140218704Y-83349550D01*
X140218704Y-83349549D01*
X140053957Y-83102988D01*
X139618711Y-82667742D01*
X139618751Y-82622255D01*
X139476706Y-82278479D01*
X139213916Y-82015230D01*
X139005023Y-81928490D01*
X139212083Y-81721791D01*
X139354729Y-81378263D01*
X139355053Y-81006297D01*
X139213008Y-80662521D01*
X138950218Y-80399272D01*
X138635612Y-80268635D01*
X140530495Y-78373752D01*
X140530495Y-91306016D01*
X140588347Y-91596855D01*
X140753094Y-91843417D01*
X141532677Y-92623000D01*
X139349005Y-92623000D01*
X139401481Y-92359187D01*
X139401481Y-91474193D01*
X139433673Y-91442057D01*
X139576319Y-91098529D01*
X139576643Y-90726563D01*
X139434598Y-90382787D01*
X139171808Y-90119538D01*
X138828280Y-89976892D01*
X138456314Y-89976568D01*
X138112538Y-90118613D01*
X137849289Y-90381403D01*
X137706643Y-90724931D01*
X137706319Y-91096897D01*
X137848364Y-91440673D01*
X137881481Y-91473848D01*
X137881481Y-92015210D01*
X137865143Y-92015196D01*
X137521367Y-92157241D01*
X137258118Y-92420031D01*
X137115472Y-92763559D01*
X137115148Y-93135525D01*
X137257193Y-93479301D01*
X137519983Y-93742550D01*
X137863511Y-93885196D01*
X138123000Y-93885422D01*
X138123000Y-99250000D01*
X138132667Y-99298601D01*
X138160197Y-99339803D01*
X138201399Y-99367333D01*
X138250000Y-99377000D01*
X143192988Y-99377000D01*
X143192988Y-106326560D01*
X141934934Y-106326560D01*
X141935162Y-106064833D01*
X141793117Y-105721057D01*
X141530327Y-105457808D01*
X141186799Y-105315162D01*
X140814833Y-105314838D01*
X140471057Y-105456883D01*
X140397042Y-105530769D01*
X140311160Y-105547852D01*
X140064599Y-105712599D01*
X139590599Y-106186599D01*
X139497080Y-106326560D01*
X136628000Y-106326560D01*
X136380235Y-106375843D01*
X136170191Y-106516191D01*
X136029843Y-106726235D01*
X135980560Y-106974000D01*
X135980560Y-111974000D01*
X136029843Y-112221765D01*
X136170191Y-112431809D01*
X136380235Y-112572157D01*
X136628000Y-112621440D01*
X142778268Y-112621440D01*
X142538855Y-112860853D01*
X142336173Y-113164189D01*
X142265000Y-113521998D01*
X142265000Y-119400000D01*
X142336173Y-119757809D01*
X142538855Y-120061145D01*
X144938564Y-122460854D01*
X145069673Y-122592192D01*
X145413201Y-122734838D01*
X145599999Y-122735001D01*
X145600001Y-122735001D01*
X145785167Y-122735162D01*
X146128943Y-122593117D01*
X146392192Y-122330327D01*
X146534838Y-121986799D01*
X146535162Y-121614833D01*
X146393117Y-121271057D01*
X146130327Y-121007808D01*
X146129935Y-121007645D01*
X145663730Y-120541440D01*
X148619694Y-120541440D01*
X147500411Y-121660723D01*
X147319406Y-121931616D01*
X147255845Y-122251157D01*
X147255845Y-123425431D01*
X147156007Y-123665866D01*
X147155683Y-124037832D01*
X147297728Y-124381608D01*
X147560518Y-124644857D01*
X147904046Y-124787503D01*
X148276012Y-124787827D01*
X148619788Y-124645782D01*
X148883037Y-124382992D01*
X149025683Y-124039464D01*
X149025945Y-123737691D01*
X159551000Y-123737691D01*
X159551000Y-124428250D01*
X159709750Y-124587000D01*
X160909000Y-124587000D01*
X160909000Y-123387750D01*
X160750250Y-123229000D01*
X160059690Y-123229000D01*
X159826301Y-123325673D01*
X159647673Y-123504302D01*
X159551000Y-123737691D01*
X149025945Y-123737691D01*
X149026007Y-123667498D01*
X148925845Y-123425087D01*
X148925845Y-122597025D01*
X149793858Y-121729012D01*
X150296533Y-121729012D01*
X150616074Y-121665451D01*
X150809390Y-121536281D01*
X150809390Y-121738348D01*
X150764141Y-121757044D01*
X150500892Y-122019834D01*
X150358246Y-122363362D01*
X150357922Y-122735328D01*
X150499967Y-123079104D01*
X150762757Y-123342353D01*
X151106285Y-123484999D01*
X151478251Y-123485323D01*
X151822027Y-123343278D01*
X152085276Y-123080488D01*
X152185862Y-122838251D01*
X152234824Y-122789289D01*
X152415830Y-122518395D01*
X152479390Y-122198855D01*
X152479390Y-115296318D01*
X152415829Y-114976777D01*
X152234824Y-114705884D01*
X151836921Y-114307981D01*
X151737503Y-114067371D01*
X151474713Y-113804122D01*
X151131185Y-113661476D01*
X150759219Y-113661152D01*
X150415443Y-113803197D01*
X150375440Y-113843130D01*
X150375440Y-112894000D01*
X150372454Y-112878988D01*
X151533012Y-112878988D01*
X151823851Y-112821136D01*
X152070413Y-112656389D01*
X152105362Y-112621440D01*
X152370145Y-112621440D01*
X152370112Y-112659169D01*
X152512157Y-113002945D01*
X152774947Y-113266194D01*
X153118475Y-113408840D01*
X153268704Y-113408971D01*
X153157808Y-113519673D01*
X153015162Y-113863201D01*
X153014838Y-114235167D01*
X153156883Y-114578943D01*
X153419673Y-114842192D01*
X153763201Y-114984838D01*
X153810077Y-114984879D01*
X153826399Y-115001201D01*
X153757808Y-115069673D01*
X153615162Y-115413201D01*
X153614838Y-115785167D01*
X153756883Y-116128943D01*
X153790000Y-116162118D01*
X153790000Y-122175010D01*
X153815064Y-122301013D01*
X153814838Y-122560177D01*
X153956883Y-122903953D01*
X154219673Y-123167202D01*
X154563201Y-123309848D01*
X154935167Y-123310172D01*
X155278943Y-123168127D01*
X155542192Y-122905337D01*
X155684838Y-122561809D01*
X155685162Y-122189843D01*
X155543117Y-121846067D01*
X155310000Y-121612543D01*
X155310000Y-117784879D01*
X155635167Y-117785162D01*
X155978943Y-117643117D01*
X156242192Y-117380327D01*
X156384838Y-117036799D01*
X156385162Y-116664833D01*
X156243117Y-116321057D01*
X156210000Y-116287882D01*
X156210000Y-115550000D01*
X156182789Y-115413201D01*
X156152148Y-115259160D01*
X155987401Y-115012599D01*
X154885122Y-113910320D01*
X154885162Y-113864833D01*
X154743117Y-113521057D01*
X154531432Y-113309002D01*
X154572766Y-113309002D01*
X154813201Y-113408840D01*
X155185167Y-113409164D01*
X155528943Y-113267119D01*
X155792192Y-113004329D01*
X155934838Y-112660801D01*
X155934872Y-112621440D01*
X157678000Y-112621440D01*
X157925765Y-112572157D01*
X158135809Y-112431809D01*
X158276157Y-112221765D01*
X158325440Y-111974000D01*
X158325440Y-106974000D01*
X158276157Y-106726235D01*
X158135809Y-106516191D01*
X157925765Y-106375843D01*
X157678000Y-106326560D01*
X154736676Y-106326560D01*
X154809828Y-106150392D01*
X154810152Y-105778426D01*
X154668107Y-105434650D01*
X154405317Y-105171401D01*
X154061789Y-105028755D01*
X154014913Y-105028714D01*
X150822798Y-101836599D01*
X150576236Y-101671852D01*
X150375440Y-101631911D01*
X150375440Y-99850242D01*
X154476356Y-103951158D01*
X154457808Y-103969673D01*
X154315162Y-104313201D01*
X154314838Y-104685167D01*
X154456883Y-105028943D01*
X154719673Y-105292192D01*
X155063201Y-105434838D01*
X155435167Y-105435162D01*
X155778943Y-105293117D01*
X156042192Y-105030327D01*
X156184838Y-104686799D01*
X156185162Y-104314833D01*
X156043117Y-103971057D01*
X156010000Y-103937882D01*
X156010000Y-103650000D01*
X155952148Y-103359161D01*
X155952148Y-103359160D01*
X155856373Y-103215822D01*
X156042192Y-103030327D01*
X156184838Y-102686799D01*
X156185162Y-102314833D01*
X156043117Y-101971057D01*
X155780327Y-101707808D01*
X155436799Y-101565162D01*
X155389923Y-101565121D01*
X153201802Y-99377000D01*
X157250000Y-99377000D01*
X157298601Y-99367333D01*
X157339803Y-99339803D01*
X157367333Y-99298601D01*
X157377000Y-99250000D01*
X157377000Y-98609097D01*
X157421381Y-98627526D01*
X157516729Y-98627609D01*
X157617340Y-98694835D01*
X157908179Y-98752687D01*
X159377885Y-98752687D01*
X160722267Y-100097069D01*
X160436799Y-99978532D01*
X160064833Y-99978208D01*
X159721057Y-100120253D01*
X159457808Y-100383043D01*
X159315162Y-100726571D01*
X159314838Y-101098537D01*
X159456883Y-101442313D01*
X159719673Y-101705562D01*
X160063201Y-101848208D01*
X160110077Y-101848249D01*
X164478095Y-106216268D01*
X164375907Y-106730000D01*
X164488946Y-107298285D01*
X164810853Y-107780054D01*
X165140026Y-108000000D01*
X164810853Y-108219946D01*
X164488946Y-108701715D01*
X164375907Y-109270000D01*
X164488946Y-109838285D01*
X164810853Y-110320054D01*
X165140026Y-110540000D01*
X164810853Y-110759946D01*
X164488946Y-111241715D01*
X164375907Y-111810000D01*
X164488946Y-112378285D01*
X164810853Y-112860054D01*
X165140026Y-113080000D01*
X164810853Y-113299946D01*
X164488946Y-113781715D01*
X164375907Y-114350000D01*
X164448790Y-114716408D01*
X163038599Y-116126599D01*
X162873852Y-116373161D01*
X162816000Y-116664000D01*
X162816000Y-123441046D01*
X162525946Y-123634853D01*
X162496597Y-123678777D01*
X162424327Y-123504302D01*
X162245699Y-123325673D01*
X162012310Y-123229000D01*
X161321750Y-123229000D01*
X161163000Y-123387750D01*
X161163000Y-124587000D01*
X161183000Y-124587000D01*
X161183000Y-124841000D01*
X161163000Y-124841000D01*
X161163000Y-126040250D01*
X161321750Y-126199000D01*
X162012310Y-126199000D01*
X162245699Y-126102327D01*
X162424327Y-125923698D01*
X162496597Y-125749223D01*
X162525946Y-125793147D01*
X163007715Y-126115054D01*
X163576000Y-126228093D01*
X164144285Y-126115054D01*
X164626054Y-125793147D01*
X164846000Y-125463974D01*
X165065946Y-125793147D01*
X165547715Y-126115054D01*
X166116000Y-126228093D01*
X166684285Y-126115054D01*
X167166054Y-125793147D01*
X167487961Y-125311378D01*
X167601000Y-124743093D01*
X167601000Y-124684907D01*
X167487961Y-124116622D01*
X167166054Y-123634853D01*
X166684285Y-123312946D01*
X166116000Y-123199907D01*
X165547715Y-123312946D01*
X165065946Y-123634853D01*
X164846000Y-123964026D01*
X164626054Y-123634853D01*
X164336000Y-123441046D01*
X164336000Y-116978802D01*
X164384019Y-116930783D01*
X164488946Y-117458285D01*
X164810853Y-117940054D01*
X164854777Y-117969403D01*
X164792235Y-117981843D01*
X164582191Y-118122191D01*
X164441843Y-118332235D01*
X164392560Y-118580000D01*
X164392560Y-120280000D01*
X164441843Y-120527765D01*
X164582191Y-120737809D01*
X164792235Y-120878157D01*
X165040000Y-120927440D01*
X166740000Y-120927440D01*
X166987765Y-120878157D01*
X167197809Y-120737809D01*
X167338157Y-120527765D01*
X167387440Y-120280000D01*
X167387440Y-118580000D01*
X167338157Y-118332235D01*
X167197809Y-118122191D01*
X166987765Y-117981843D01*
X166925223Y-117969403D01*
X166969147Y-117940054D01*
X167291054Y-117458285D01*
X167404093Y-116890000D01*
X167291054Y-116321715D01*
X166969147Y-115839946D01*
X166639974Y-115620000D01*
X166969147Y-115400054D01*
X167291054Y-114918285D01*
X167404093Y-114350000D01*
X167291054Y-113781715D01*
X166969147Y-113299946D01*
X166639974Y-113080000D01*
X166969147Y-112860054D01*
X167291054Y-112378285D01*
X167404093Y-111810000D01*
X167291054Y-111241715D01*
X166969147Y-110759946D01*
X166639974Y-110540000D01*
X166969147Y-110320054D01*
X167291054Y-109838285D01*
X167404093Y-109270000D01*
X167291054Y-108701715D01*
X166969147Y-108219946D01*
X166639974Y-108000000D01*
X166969147Y-107780054D01*
X167291054Y-107298285D01*
X167404093Y-106730000D01*
X167291054Y-106161715D01*
X166969147Y-105679946D01*
X166639974Y-105460000D01*
X166969147Y-105240054D01*
X167291054Y-104758285D01*
X167404093Y-104190000D01*
X167291054Y-103621715D01*
X166969147Y-103139946D01*
X166639974Y-102920000D01*
X166969147Y-102700054D01*
X167291054Y-102218285D01*
X167404093Y-101650000D01*
X167331210Y-101283592D01*
X167702402Y-100912400D01*
X167867149Y-100665838D01*
X167925001Y-100374999D01*
X167925001Y-64965001D01*
X167895196Y-64815162D01*
X167867149Y-64674161D01*
X167735108Y-64476548D01*
X167735162Y-64414833D01*
X167593117Y-64071057D01*
X167330327Y-63807808D01*
X166986799Y-63665162D01*
X166614833Y-63664838D01*
X166271057Y-63806883D01*
X166007808Y-64069673D01*
X165865162Y-64413201D01*
X165864838Y-64785167D01*
X166006883Y-65128943D01*
X166269673Y-65392192D01*
X166405001Y-65448385D01*
X166405001Y-69802766D01*
X166246892Y-69728514D01*
X166017000Y-69849181D01*
X166017000Y-71043000D01*
X166037000Y-71043000D01*
X166037000Y-71297000D01*
X166017000Y-71297000D01*
X166017000Y-73583000D01*
X166037000Y-73583000D01*
X166037000Y-73837000D01*
X166017000Y-73837000D01*
X166017000Y-73857000D01*
X165763000Y-73857000D01*
X165763000Y-73837000D01*
X164569845Y-73837000D01*
X164448524Y-74066890D01*
X164618355Y-74476924D01*
X165008642Y-74905183D01*
X165151553Y-74972298D01*
X164810853Y-75199946D01*
X164488946Y-75681715D01*
X164375907Y-76250000D01*
X164488946Y-76818285D01*
X164810853Y-77300054D01*
X165140026Y-77520000D01*
X164810853Y-77739946D01*
X164488946Y-78221715D01*
X164375907Y-78790000D01*
X164431193Y-79067939D01*
X164107814Y-79391318D01*
X162690615Y-79391318D01*
X162386799Y-79265162D01*
X162014833Y-79264838D01*
X161671057Y-79406883D01*
X161407808Y-79669673D01*
X161265162Y-80013201D01*
X161264838Y-80385167D01*
X161406883Y-80728943D01*
X161669673Y-80992192D01*
X162013201Y-81134838D01*
X162385167Y-81135162D01*
X162563884Y-81061318D01*
X164429351Y-81061318D01*
X164375907Y-81330000D01*
X164488946Y-81898285D01*
X164810853Y-82380054D01*
X165140026Y-82600000D01*
X164810853Y-82819946D01*
X164488946Y-83301715D01*
X164375907Y-83870000D01*
X164488946Y-84438285D01*
X164810853Y-84920054D01*
X165140026Y-85140000D01*
X164810853Y-85359946D01*
X164488946Y-85841715D01*
X164375907Y-86410000D01*
X164448790Y-86776408D01*
X157912599Y-93312599D01*
X157747852Y-93559161D01*
X157690000Y-93850000D01*
X157690000Y-94433274D01*
X157679322Y-94443933D01*
X157536676Y-94787461D01*
X157536352Y-95159427D01*
X157678397Y-95503203D01*
X157941187Y-95766452D01*
X158284715Y-95909098D01*
X158514905Y-95909299D01*
X158514847Y-95975265D01*
X158649296Y-96300657D01*
X158898033Y-96549829D01*
X159223190Y-96684846D01*
X159575265Y-96685153D01*
X159900657Y-96550704D01*
X160149829Y-96301967D01*
X160275511Y-95999291D01*
X164443747Y-91831055D01*
X164488946Y-92058285D01*
X164810853Y-92540054D01*
X165140026Y-92760000D01*
X164810853Y-92979946D01*
X164488946Y-93461715D01*
X164375907Y-94030000D01*
X164488946Y-94598285D01*
X164810853Y-95080054D01*
X165140026Y-95300000D01*
X164810853Y-95519946D01*
X164488946Y-96001715D01*
X164375907Y-96570000D01*
X164488946Y-97138285D01*
X164810853Y-97620054D01*
X165140026Y-97840000D01*
X164810853Y-98059946D01*
X164488946Y-98541715D01*
X164375907Y-99110000D01*
X164488946Y-99678285D01*
X164810853Y-100160054D01*
X165140026Y-100380000D01*
X164810853Y-100599946D01*
X164488946Y-101081715D01*
X164384019Y-101609217D01*
X160230088Y-97455286D01*
X159983526Y-97290539D01*
X159692687Y-97232687D01*
X158429783Y-97232687D01*
X158401297Y-97163745D01*
X158138507Y-96900496D01*
X157794979Y-96757850D01*
X157423013Y-96757526D01*
X157377000Y-96776538D01*
X157377000Y-92750000D01*
X157367333Y-92701399D01*
X157339803Y-92660197D01*
X157298601Y-92632667D01*
X157250000Y-92623000D01*
X143682281Y-92623000D01*
X142050495Y-90991214D01*
X142050495Y-86072488D01*
X142850353Y-86072488D01*
X142992398Y-86416264D01*
X143255188Y-86679513D01*
X143598716Y-86822159D01*
X143970682Y-86822483D01*
X144221734Y-86718750D01*
X144502116Y-86999132D01*
X144319946Y-87120853D01*
X143998039Y-87602622D01*
X143885000Y-88170907D01*
X143885000Y-88229093D01*
X143998039Y-88797378D01*
X144319946Y-89279147D01*
X144801715Y-89601054D01*
X145370000Y-89714093D01*
X145938285Y-89601054D01*
X146420054Y-89279147D01*
X146440597Y-89248401D01*
X148572139Y-91379943D01*
X148818700Y-91544690D01*
X149109540Y-91602542D01*
X156305663Y-91602542D01*
X156596502Y-91544690D01*
X156843064Y-91379943D01*
X157874959Y-90348048D01*
X157920446Y-90348088D01*
X158264222Y-90206043D01*
X158527471Y-89943253D01*
X158670117Y-89599725D01*
X158670441Y-89227759D01*
X158528396Y-88883983D01*
X158265606Y-88620734D01*
X157922078Y-88478088D01*
X157550112Y-88477764D01*
X157206336Y-88619809D01*
X156943087Y-88882599D01*
X156800441Y-89226127D01*
X156800400Y-89273003D01*
X155990861Y-90082542D01*
X149424342Y-90082542D01*
X148756774Y-89414974D01*
X148960054Y-89279147D01*
X148989403Y-89235223D01*
X149061673Y-89409698D01*
X149240301Y-89588327D01*
X149473690Y-89685000D01*
X150164250Y-89685000D01*
X150323000Y-89526250D01*
X150323000Y-88327000D01*
X150577000Y-88327000D01*
X150577000Y-89526250D01*
X150735750Y-89685000D01*
X151426310Y-89685000D01*
X151659699Y-89588327D01*
X151838327Y-89409698D01*
X151935000Y-89176309D01*
X151935000Y-88485750D01*
X151776250Y-88327000D01*
X150577000Y-88327000D01*
X150323000Y-88327000D01*
X150303000Y-88327000D01*
X150303000Y-88073000D01*
X150323000Y-88073000D01*
X150323000Y-86873750D01*
X150577000Y-86873750D01*
X150577000Y-88073000D01*
X151776250Y-88073000D01*
X151935000Y-87914250D01*
X151935000Y-87223691D01*
X151838327Y-86990302D01*
X151659699Y-86811673D01*
X151426310Y-86715000D01*
X150735750Y-86715000D01*
X150577000Y-86873750D01*
X150323000Y-86873750D01*
X150164250Y-86715000D01*
X149473690Y-86715000D01*
X149240301Y-86811673D01*
X149061673Y-86990302D01*
X148989403Y-87164777D01*
X148960054Y-87120853D01*
X148478285Y-86798946D01*
X147910000Y-86685907D01*
X147341715Y-86798946D01*
X146859946Y-87120853D01*
X146825297Y-87172709D01*
X145002508Y-85349920D01*
X144755946Y-85185173D01*
X144465107Y-85127321D01*
X144347978Y-85127321D01*
X144315842Y-85095129D01*
X143972314Y-84952483D01*
X143600348Y-84952159D01*
X143256572Y-85094204D01*
X142993323Y-85356994D01*
X142850677Y-85700522D01*
X142850353Y-86072488D01*
X142050495Y-86072488D01*
X142050495Y-78378345D01*
X142119437Y-78349859D01*
X142382686Y-78087069D01*
X142395124Y-78057115D01*
X142394760Y-78474285D01*
X142605169Y-78983515D01*
X142994436Y-79373461D01*
X143503298Y-79584759D01*
X144054285Y-79585240D01*
X144563515Y-79374831D01*
X144953461Y-78985564D01*
X145164759Y-78476702D01*
X145165240Y-77925715D01*
X144954831Y-77416485D01*
X144565564Y-77026539D01*
X144056702Y-76815241D01*
X143505715Y-76814760D01*
X142996485Y-77025169D01*
X142606539Y-77414436D01*
X142525449Y-77609723D01*
X142525656Y-77371575D01*
X142383611Y-77027799D01*
X142208990Y-76852873D01*
X142287656Y-76663426D01*
X142287905Y-76377866D01*
X142876583Y-76377866D01*
X142957032Y-76458315D01*
X143203594Y-76623062D01*
X143494433Y-76680914D01*
X144571176Y-76680914D01*
X147039837Y-79149575D01*
X147039837Y-79663855D01*
X147007645Y-79695991D01*
X146907059Y-79938228D01*
X146409566Y-80435721D01*
X146228561Y-80706614D01*
X146165000Y-81026155D01*
X146165000Y-84822766D01*
X146065162Y-85063201D01*
X146064838Y-85435167D01*
X146206883Y-85778943D01*
X146469673Y-86042192D01*
X146813201Y-86184838D01*
X147185167Y-86185162D01*
X147528943Y-86043117D01*
X147792192Y-85780327D01*
X147934838Y-85436799D01*
X147935162Y-85064833D01*
X147835000Y-84822422D01*
X147835000Y-81372023D01*
X148088170Y-81118853D01*
X148291110Y-81035000D01*
X156372766Y-81035000D01*
X156613201Y-81134838D01*
X156985167Y-81135162D01*
X157328943Y-80993117D01*
X157592192Y-80730327D01*
X157734838Y-80386799D01*
X157735162Y-80014833D01*
X157593117Y-79671057D01*
X157330327Y-79407808D01*
X156986799Y-79265162D01*
X156614833Y-79264838D01*
X156372422Y-79365000D01*
X152173363Y-79365000D01*
X152553461Y-78985564D01*
X152764759Y-78476702D01*
X152765240Y-77925715D01*
X152554831Y-77416485D01*
X152165564Y-77026539D01*
X151656702Y-76815241D01*
X151105715Y-76814760D01*
X150596485Y-77025169D01*
X150206539Y-77414436D01*
X149995241Y-77923298D01*
X149994760Y-78474285D01*
X150205169Y-78983515D01*
X150585990Y-79365000D01*
X148559837Y-79365000D01*
X148559837Y-78834773D01*
X148501985Y-78543934D01*
X148337238Y-78297372D01*
X145423379Y-75383513D01*
X145176817Y-75218766D01*
X144885978Y-75160914D01*
X144844751Y-75160914D01*
X144844779Y-75129278D01*
X144702734Y-74785502D01*
X144669617Y-74752327D01*
X144669617Y-72871585D01*
X146014312Y-71526890D01*
X164448524Y-71526890D01*
X164618355Y-71936924D01*
X165008642Y-72365183D01*
X165167954Y-72440000D01*
X165008642Y-72514817D01*
X164618355Y-72943076D01*
X164448524Y-73353110D01*
X164569845Y-73583000D01*
X165763000Y-73583000D01*
X165763000Y-71297000D01*
X164569845Y-71297000D01*
X164448524Y-71526890D01*
X146014312Y-71526890D01*
X146728092Y-70813110D01*
X164448524Y-70813110D01*
X164569845Y-71043000D01*
X165763000Y-71043000D01*
X165763000Y-69849181D01*
X165533108Y-69728514D01*
X165008642Y-69974817D01*
X164618355Y-70403076D01*
X164448524Y-70813110D01*
X146728092Y-70813110D01*
X152530314Y-65010888D01*
X152575801Y-65010928D01*
X152919577Y-64868883D01*
X153182826Y-64606093D01*
X153325472Y-64262565D01*
X153325796Y-63890599D01*
X153183751Y-63546823D01*
X152920961Y-63283574D01*
X152577433Y-63140928D01*
X152205467Y-63140604D01*
X151861691Y-63282649D01*
X151598442Y-63545439D01*
X151455796Y-63888967D01*
X151455755Y-63935843D01*
X143372216Y-72019382D01*
X143207469Y-72265944D01*
X143149617Y-72556783D01*
X143149617Y-74751982D01*
X143117425Y-74784118D01*
X143086802Y-74857866D01*
X141447486Y-74857866D01*
X140669643Y-74080023D01*
X140423081Y-73915276D01*
X140132242Y-73857424D01*
X139015535Y-73857424D01*
X138987049Y-73788482D01*
X138724259Y-73525233D01*
X138380731Y-73382587D01*
X138008765Y-73382263D01*
X137664989Y-73524308D01*
X137401740Y-73787098D01*
X137259094Y-74130626D01*
X137258770Y-74502592D01*
X137400815Y-74846368D01*
X137663605Y-75109617D01*
X138007133Y-75252263D01*
X138102481Y-75252346D01*
X138124938Y-75267352D01*
X138124813Y-75411399D01*
X138266858Y-75755175D01*
X138334220Y-75822654D01*
X138348366Y-75893774D01*
X137645082Y-76597058D01*
X137599595Y-76597018D01*
X137255819Y-76739063D01*
X136992570Y-77001853D01*
X136849924Y-77345381D01*
X136849600Y-77717347D01*
X136991645Y-78061123D01*
X137254435Y-78324372D01*
X137597963Y-78467018D01*
X137969929Y-78467342D01*
X138313705Y-78325297D01*
X138576954Y-78062507D01*
X138719600Y-77718979D01*
X138719641Y-77672103D01*
X139654475Y-76737269D01*
X139819222Y-76490707D01*
X139877074Y-76199868D01*
X139877074Y-75707595D01*
X139875592Y-75700145D01*
X139953218Y-75513202D01*
X140509483Y-76069467D01*
X140417980Y-76289828D01*
X140417939Y-76336704D01*
X135187039Y-81567604D01*
X135187039Y-73497378D01*
X135423145Y-73733896D01*
X135766673Y-73876542D01*
X136138639Y-73876866D01*
X136482415Y-73734821D01*
X136745664Y-73472031D01*
X136888310Y-73128503D01*
X136888634Y-72756537D01*
X136746589Y-72412761D01*
X136483799Y-72149512D01*
X136140271Y-72006866D01*
X136093395Y-72006825D01*
X135986649Y-71900079D01*
X135986649Y-70398439D01*
X136009415Y-70407892D01*
X136381381Y-70408216D01*
X136725157Y-70266171D01*
X136758332Y-70233054D01*
X139821403Y-70233054D01*
X140447855Y-70859506D01*
X140447815Y-70904993D01*
X140589860Y-71248769D01*
X140852650Y-71512018D01*
X141196178Y-71654664D01*
X141568144Y-71654988D01*
X141911920Y-71512943D01*
X142175169Y-71250153D01*
X142317815Y-70906625D01*
X142318139Y-70534659D01*
X142176094Y-70190883D01*
X141913304Y-69927634D01*
X141569776Y-69784988D01*
X141522900Y-69784947D01*
X140673606Y-68935653D01*
X140427044Y-68770906D01*
X140136205Y-68713054D01*
X136758677Y-68713054D01*
X136726541Y-68680862D01*
X136383013Y-68538216D01*
X136011047Y-68537892D01*
X135861219Y-68599800D01*
X135756976Y-68495375D01*
X135413448Y-68352729D01*
X135187039Y-68352532D01*
X135187039Y-66198829D01*
X136468333Y-64917535D01*
X136708943Y-64818117D01*
X136972192Y-64555327D01*
X137114838Y-64211799D01*
X137115010Y-64013489D01*
X139347590Y-64013489D01*
X139489635Y-64357265D01*
X139752425Y-64620514D01*
X140095953Y-64763160D01*
X140467919Y-64763484D01*
X140710330Y-64663322D01*
X143491678Y-64663322D01*
X143811219Y-64599761D01*
X144082112Y-64418756D01*
X146050000Y-62450868D01*
X146456755Y-62857623D01*
X146506883Y-62978943D01*
X146769673Y-63242192D01*
X147113201Y-63384838D01*
X147485167Y-63385162D01*
X147828943Y-63243117D01*
X148092192Y-62980327D01*
X148234838Y-62636799D01*
X148235162Y-62264833D01*
X148093117Y-61921057D01*
X147830327Y-61657808D01*
X147486799Y-61515162D01*
X147476021Y-61515153D01*
X146942535Y-60981667D01*
X146843117Y-60741057D01*
X146770931Y-60668745D01*
X146787142Y-60652534D01*
X146669427Y-60534819D01*
X146864025Y-60522607D01*
X146973363Y-60167073D01*
X146938322Y-59796761D01*
X146864025Y-59617393D01*
X146669424Y-59605181D01*
X146204605Y-60070000D01*
X146218748Y-60084143D01*
X146039143Y-60263748D01*
X146025000Y-60249605D01*
X146010858Y-60263748D01*
X145831253Y-60084143D01*
X145845395Y-60070000D01*
X145831253Y-60055858D01*
X146010858Y-59876253D01*
X146025000Y-59890395D01*
X146489819Y-59425576D01*
X146477607Y-59230975D01*
X146221941Y-59152350D01*
X146310819Y-58906816D01*
X146302974Y-58734112D01*
X146313257Y-58733083D01*
X146474140Y-58666442D01*
X146479925Y-58476702D01*
X146255647Y-58252424D01*
X146111366Y-57904096D01*
X146003167Y-57870000D01*
X146226777Y-57870000D01*
X146656702Y-58299925D01*
X146846442Y-58294140D01*
X146948128Y-57957070D01*
X146913083Y-57606743D01*
X146846442Y-57445860D01*
X146656702Y-57440075D01*
X146226777Y-57870000D01*
X146003167Y-57870000D01*
X145861308Y-57825297D01*
X145844914Y-57841691D01*
X145665309Y-57662086D01*
X145681703Y-57645692D01*
X145602904Y-57395634D01*
X145237314Y-57263298D01*
X145620075Y-57263298D01*
X146050000Y-57693223D01*
X146479925Y-57263298D01*
X146474140Y-57073558D01*
X146137070Y-56971872D01*
X145786743Y-57006917D01*
X145625860Y-57073558D01*
X145620075Y-57263298D01*
X145237314Y-57263298D01*
X145051896Y-57196181D01*
X144466503Y-57222773D01*
X144049176Y-57395634D01*
X143979254Y-57617523D01*
X143762603Y-57834174D01*
X143540714Y-57904096D01*
X143454496Y-58142281D01*
X143120075Y-58476702D01*
X143125860Y-58666442D01*
X143353987Y-58735263D01*
X143367853Y-59040497D01*
X143408085Y-59137626D01*
X143071057Y-59276883D01*
X143037882Y-59310000D01*
X142784802Y-59310000D01*
X141985122Y-58510320D01*
X141985162Y-58464833D01*
X141843117Y-58121057D01*
X141580327Y-57857808D01*
X141400002Y-57782930D01*
X142651872Y-57782930D01*
X142686917Y-58133257D01*
X142753558Y-58294140D01*
X142943298Y-58299925D01*
X143373223Y-57870000D01*
X142943298Y-57440075D01*
X142753558Y-57445860D01*
X142651872Y-57782930D01*
X141400002Y-57782930D01*
X141236799Y-57715162D01*
X140864833Y-57714838D01*
X140521057Y-57856883D01*
X140257808Y-58119673D01*
X140115162Y-58463201D01*
X140114838Y-58835167D01*
X140256883Y-59178943D01*
X140519673Y-59442192D01*
X140863201Y-59584838D01*
X140910077Y-59584879D01*
X141835198Y-60510000D01*
X141832254Y-60510000D01*
X141680327Y-60357808D01*
X141336799Y-60215162D01*
X140964833Y-60214838D01*
X140621057Y-60356883D01*
X140357808Y-60619673D01*
X140215162Y-60963201D01*
X140214838Y-61335167D01*
X140356883Y-61678943D01*
X140619673Y-61942192D01*
X140963201Y-62084838D01*
X141335167Y-62085162D01*
X141468670Y-62030000D01*
X142987537Y-62030000D01*
X143019673Y-62062192D01*
X143363201Y-62204838D01*
X143735167Y-62205162D01*
X144073953Y-62065179D01*
X143145810Y-62993322D01*
X140709986Y-62993322D01*
X140469551Y-62893484D01*
X140097585Y-62893160D01*
X139753809Y-63035205D01*
X139490560Y-63297995D01*
X139347914Y-63641523D01*
X139347590Y-64013489D01*
X137115010Y-64013489D01*
X137115162Y-63839833D01*
X136973117Y-63496057D01*
X136710327Y-63232808D01*
X136366799Y-63090162D01*
X135994833Y-63089838D01*
X135651057Y-63231883D01*
X135387808Y-63494673D01*
X135287222Y-63736910D01*
X133761605Y-65262527D01*
X133580600Y-65533420D01*
X133517039Y-65852961D01*
X133517039Y-88329613D01*
X133325031Y-88329446D01*
X132981255Y-88471491D01*
X132718006Y-88734281D01*
X132630727Y-88944471D01*
X130385981Y-91189217D01*
X130321210Y-90863592D01*
X133134912Y-88049890D01*
X133299659Y-87803329D01*
X133309257Y-87755075D01*
X133357511Y-87512489D01*
X133357511Y-66597511D01*
X133299659Y-66306672D01*
X133134912Y-66060110D01*
X132685122Y-65610320D01*
X132685162Y-65564833D01*
X132543117Y-65221057D01*
X132280327Y-64957808D01*
X131936799Y-64815162D01*
X131564833Y-64814838D01*
X131221057Y-64956883D01*
X130957808Y-65219673D01*
X130815162Y-65563201D01*
X130814838Y-65935167D01*
X130956883Y-66278943D01*
X131219673Y-66542192D01*
X131563201Y-66684838D01*
X131610077Y-66684879D01*
X131837511Y-66912313D01*
X131837511Y-84093694D01*
X131586745Y-83842490D01*
X131243217Y-83699844D01*
X130871251Y-83699520D01*
X130527475Y-83841565D01*
X130303572Y-84065077D01*
X130394093Y-83610000D01*
X130281054Y-83041715D01*
X129959147Y-82559946D01*
X129629974Y-82340000D01*
X129959147Y-82120054D01*
X130281054Y-81638285D01*
X130394093Y-81070000D01*
X130281054Y-80501715D01*
X129959147Y-80019946D01*
X129618447Y-79792298D01*
X129761358Y-79725183D01*
X130151645Y-79296924D01*
X130321476Y-78886890D01*
X130200155Y-78657000D01*
X129007000Y-78657000D01*
X129007000Y-78677000D01*
X128753000Y-78677000D01*
X128753000Y-78657000D01*
X127559845Y-78657000D01*
X127438524Y-78886890D01*
X127608355Y-79296924D01*
X127998642Y-79725183D01*
X128141553Y-79792298D01*
X127800853Y-80019946D01*
X127478946Y-80501715D01*
X127365907Y-81070000D01*
X127478946Y-81638285D01*
X127800853Y-82120054D01*
X128130026Y-82340000D01*
X127800853Y-82559946D01*
X127478946Y-83041715D01*
X127365907Y-83610000D01*
X127478946Y-84178285D01*
X127702836Y-84513360D01*
X126423028Y-85793168D01*
X126423028Y-76275750D01*
X127395000Y-76275750D01*
X127395000Y-76966310D01*
X127491673Y-77199699D01*
X127670302Y-77378327D01*
X127879878Y-77465136D01*
X127608355Y-77763076D01*
X127438524Y-78173110D01*
X127559845Y-78403000D01*
X128753000Y-78403000D01*
X128753000Y-76117000D01*
X129007000Y-76117000D01*
X129007000Y-78403000D01*
X130200155Y-78403000D01*
X130321476Y-78173110D01*
X130151645Y-77763076D01*
X129880122Y-77465136D01*
X130089698Y-77378327D01*
X130268327Y-77199699D01*
X130365000Y-76966310D01*
X130365000Y-76275750D01*
X130206250Y-76117000D01*
X129007000Y-76117000D01*
X128753000Y-76117000D01*
X127553750Y-76117000D01*
X127395000Y-76275750D01*
X126423028Y-76275750D01*
X126423028Y-75013690D01*
X127395000Y-75013690D01*
X127395000Y-75704250D01*
X127553750Y-75863000D01*
X128753000Y-75863000D01*
X128753000Y-74663750D01*
X129007000Y-74663750D01*
X129007000Y-75863000D01*
X130206250Y-75863000D01*
X130365000Y-75704250D01*
X130365000Y-75013690D01*
X130268327Y-74780301D01*
X130089698Y-74601673D01*
X129856309Y-74505000D01*
X129165750Y-74505000D01*
X129007000Y-74663750D01*
X128753000Y-74663750D01*
X128594250Y-74505000D01*
X127903691Y-74505000D01*
X127670302Y-74601673D01*
X127491673Y-74780301D01*
X127395000Y-75013690D01*
X126423028Y-75013690D01*
X126423028Y-62506661D01*
X126822758Y-62506661D01*
X127034990Y-63020303D01*
X127427630Y-63413629D01*
X127460000Y-63427070D01*
X127460000Y-67822063D01*
X127517852Y-68112902D01*
X127682599Y-68359464D01*
X128473741Y-69150606D01*
X128473701Y-69196093D01*
X128615746Y-69539869D01*
X128878536Y-69803118D01*
X129222064Y-69945764D01*
X129594030Y-69946088D01*
X129937806Y-69804043D01*
X130201055Y-69541253D01*
X130343701Y-69197725D01*
X130344025Y-68825759D01*
X130201980Y-68481983D01*
X129939190Y-68218734D01*
X129595662Y-68076088D01*
X129548786Y-68076047D01*
X128980000Y-67507261D01*
X128980000Y-63427531D01*
X129010303Y-63415010D01*
X129403629Y-63022370D01*
X129616757Y-62509100D01*
X129617242Y-61953339D01*
X129405010Y-61439697D01*
X129012370Y-61046371D01*
X128820273Y-60966605D01*
X128951143Y-60912397D01*
X129020608Y-60670213D01*
X128220000Y-59869605D01*
X127419392Y-60670213D01*
X127488857Y-60912397D01*
X127629318Y-60962509D01*
X127429697Y-61044990D01*
X127036371Y-61437630D01*
X126823243Y-61950900D01*
X126822758Y-62506661D01*
X126423028Y-62506661D01*
X126423028Y-59482302D01*
X126810856Y-59482302D01*
X126838638Y-60037368D01*
X126997603Y-60421143D01*
X127239787Y-60490608D01*
X128040395Y-59690000D01*
X127239787Y-58889392D01*
X126997603Y-58958857D01*
X126810856Y-59482302D01*
X126423028Y-59482302D01*
X126423028Y-49946302D01*
X142604028Y-49946302D01*
X142875733Y-49892256D01*
X143106074Y-49738348D01*
X143259982Y-49508007D01*
X143314028Y-49236302D01*
X143314028Y-43723302D01*
X145895328Y-43723302D01*
X145344799Y-43950776D01*
G36*
X144938511Y-61200621D02*
X144730621Y-61408511D01*
X144606253Y-61284143D01*
X144620395Y-61270000D01*
X144606253Y-61255858D01*
X144785858Y-61076253D01*
X144800000Y-61090395D01*
X144814143Y-61076253D01*
X144938511Y-61200621D01*
X144938511Y-61200621D01*
G37*
X144938511Y-61200621D02*
X144730621Y-61408511D01*
X144606253Y-61284143D01*
X144620395Y-61270000D01*
X144606253Y-61255858D01*
X144785858Y-61076253D01*
X144800000Y-61090395D01*
X144814143Y-61076253D01*
X144938511Y-61200621D01*
G36*
X144826040Y-58501355D02*
X145189032Y-58138363D01*
X145253558Y-58294140D01*
X145388355Y-58298250D01*
X145005645Y-58680960D01*
X145019788Y-58695103D01*
X144840183Y-58874708D01*
X144826040Y-58860565D01*
X144811898Y-58874708D01*
X144632293Y-58695103D01*
X144646435Y-58680960D01*
X144262184Y-58296709D01*
X144346442Y-58294140D01*
X144409569Y-58084884D01*
X144826040Y-58501355D01*
X144826040Y-58501355D01*
G37*
X144826040Y-58501355D02*
X145189032Y-58138363D01*
X145253558Y-58294140D01*
X145388355Y-58298250D01*
X145005645Y-58680960D01*
X145019788Y-58695103D01*
X144840183Y-58874708D01*
X144826040Y-58860565D01*
X144811898Y-58874708D01*
X144632293Y-58695103D01*
X144646435Y-58680960D01*
X144262184Y-58296709D01*
X144346442Y-58294140D01*
X144409569Y-58084884D01*
X144826040Y-58501355D01*
G36*
X153483748Y-60935858D02*
X153469605Y-60950000D01*
X153483748Y-60964143D01*
X153304143Y-61143748D01*
X153290000Y-61129605D01*
X153275858Y-61143748D01*
X153096253Y-60964143D01*
X153110395Y-60950000D01*
X153096253Y-60935858D01*
X153275858Y-60756253D01*
X153290000Y-60770395D01*
X153304143Y-60756253D01*
X153483748Y-60935858D01*
X153483748Y-60935858D01*
G37*
X153483748Y-60935858D02*
X153469605Y-60950000D01*
X153483748Y-60964143D01*
X153304143Y-61143748D01*
X153290000Y-61129605D01*
X153275858Y-61143748D01*
X153096253Y-60964143D01*
X153110395Y-60950000D01*
X153096253Y-60935858D01*
X153275858Y-60756253D01*
X153290000Y-60770395D01*
X153304143Y-60756253D01*
X153483748Y-60935858D01*
M02*
