G04 #@! TF.FileFunction,Copper,L2,Bot,Signal*
%FSLAX46Y46*%
G04 Gerber Fmt 4.6, Leading zero omitted, Abs format (unit mm)*
G04 Created by KiCad (PCBNEW 4.0.7-e2-6376~58~ubuntu17.04.1) date Wed Oct 25 20:24:03 2017*
%MOMM*%
%LPD*%
G01*
G04 APERTURE LIST*
%ADD10C,0.100000*%
%ADD11R,0.750000X1.200000*%
%ADD12R,1.200000X0.750000*%
%ADD13R,1.000000X2.000000*%
%ADD14R,2.000000X1.000000*%
%ADD15R,4.000000X4.000000*%
%ADD16R,1.800000X1.800000*%
%ADD17C,1.800000*%
%ADD18C,1.500000*%
%ADD19R,0.900000X0.800000*%
%ADD20R,0.900000X0.500000*%
%ADD21R,0.500000X0.900000*%
%ADD22C,1.524000*%
%ADD23C,1.624000*%
%ADD24R,6.000000X3.800000*%
%ADD25R,3.000000X1.500000*%
%ADD26R,2.000000X1.500000*%
%ADD27R,2.000000X1.600000*%
%ADD28R,1.600000X2.000000*%
%ADD29R,1.250000X1.500000*%
%ADD30R,0.900000X1.200000*%
%ADD31R,1.000000X1.000000*%
%ADD32R,1.200000X0.900000*%
%ADD33R,1.300000X1.500000*%
%ADD34R,1.060000X0.650000*%
%ADD35R,0.650000X1.060000*%
%ADD36R,0.650000X1.560000*%
%ADD37R,1.560000X0.650000*%
%ADD38R,1.500000X0.400000*%
%ADD39R,1.700000X1.700000*%
%ADD40O,1.700000X1.700000*%
%ADD41R,0.750000X0.300000*%
%ADD42R,0.300000X0.750000*%
%ADD43C,0.600000*%
%ADD44C,0.800000*%
%ADD45C,1.200000*%
%ADD46C,0.250000*%
%ADD47C,0.400000*%
%ADD48C,1.000000*%
%ADD49C,2.000000*%
G04 APERTURE END LIST*
D10*
D11*
X151990000Y-52720000D03*
X151990000Y-54620000D03*
D12*
X156340000Y-98830000D03*
X154440000Y-98830000D03*
D13*
X142128200Y-68723880D03*
X142156200Y-86757880D03*
D14*
X157622200Y-82185880D03*
X157622200Y-83455880D03*
X157622200Y-77105880D03*
X157622200Y-78375880D03*
X157622200Y-80915880D03*
X157622200Y-79645880D03*
X157622200Y-74565880D03*
X157622200Y-75835880D03*
X157622200Y-73295880D03*
X157622200Y-72025880D03*
D13*
X139608200Y-86741880D03*
X140886200Y-86757880D03*
X144696200Y-86757880D03*
X143418200Y-86741880D03*
X148498200Y-86741880D03*
X149776200Y-86757880D03*
X147236200Y-86757880D03*
X145958200Y-86741880D03*
X156118200Y-86741880D03*
X153578200Y-86741880D03*
X154856200Y-86757880D03*
X152316200Y-86757880D03*
X151038200Y-86741880D03*
X151038200Y-68707880D03*
X152316200Y-68723880D03*
X154856200Y-68723880D03*
X153578200Y-68707880D03*
X156118200Y-68707880D03*
X145958200Y-68707880D03*
X147236200Y-68723880D03*
X149776200Y-68723880D03*
X148498200Y-68707880D03*
X143418200Y-68707880D03*
X144696200Y-68723880D03*
X140858200Y-68723880D03*
X139588200Y-68723880D03*
D15*
X148275000Y-77050000D03*
D16*
X134150000Y-58310000D03*
D17*
X134150000Y-60850000D03*
D18*
X137750000Y-117950000D03*
X137750000Y-110350000D03*
D19*
X128550000Y-59900000D03*
X128550000Y-58000000D03*
X130550000Y-58950000D03*
D20*
X163880000Y-62320000D03*
X163880000Y-63820000D03*
D21*
X128350000Y-61700000D03*
X129850000Y-61700000D03*
D20*
X136750000Y-125950000D03*
X136750000Y-124450000D03*
D21*
X155500000Y-100730000D03*
X154000000Y-100730000D03*
D22*
X166520000Y-62900000D03*
X166520000Y-60360000D03*
X166520000Y-57820000D03*
D23*
X140450000Y-58720000D03*
D22*
X144910000Y-61765000D03*
X149990000Y-61765000D03*
X147450000Y-59225000D03*
X147425000Y-111175000D03*
X147425000Y-116255000D03*
X149965000Y-113715000D03*
D24*
X155960000Y-94070000D03*
D25*
X160380000Y-94070000D03*
D26*
X160710000Y-96370000D03*
X160710000Y-91770000D03*
D20*
X144025000Y-125725000D03*
X144025000Y-124225000D03*
X129655000Y-125965000D03*
X129655000Y-124465000D03*
D11*
X138520000Y-59690000D03*
X138520000Y-57790000D03*
D27*
X137590000Y-55040000D03*
X141590000Y-55040000D03*
D11*
X167520000Y-103180000D03*
X167520000Y-101280000D03*
X128700000Y-98440000D03*
X128700000Y-96540000D03*
D12*
X158930000Y-55280000D03*
X160830000Y-55280000D03*
D11*
X136940000Y-59680000D03*
X136940000Y-57780000D03*
D12*
X159200000Y-63520000D03*
X161100000Y-63520000D03*
D11*
X144910000Y-64220000D03*
X144910000Y-66120000D03*
X146610000Y-64270000D03*
X146610000Y-66170000D03*
X148310000Y-64270000D03*
X148310000Y-66170000D03*
D28*
X152800000Y-113950000D03*
X152800000Y-117950000D03*
D11*
X155050000Y-113550000D03*
X155050000Y-115450000D03*
X157130000Y-110810000D03*
X157130000Y-108910000D03*
X150680000Y-104590000D03*
X150680000Y-106490000D03*
X146050000Y-94200000D03*
X146050000Y-96100000D03*
D12*
X162320000Y-66490000D03*
X164220000Y-66490000D03*
D29*
X155800000Y-54450000D03*
X155800000Y-51950000D03*
X139640000Y-100340000D03*
X139640000Y-102840000D03*
D12*
X148450000Y-57350000D03*
X146550000Y-57350000D03*
D11*
X153430000Y-110960000D03*
X153430000Y-109060000D03*
X144570000Y-54640000D03*
X144570000Y-52740000D03*
X144770000Y-106590000D03*
X144770000Y-104690000D03*
X154200000Y-57450000D03*
X154200000Y-59350000D03*
X147750000Y-101820000D03*
X147750000Y-99920000D03*
X152300000Y-61600000D03*
X152300000Y-63500000D03*
D12*
X151950000Y-100150000D03*
X150050000Y-100150000D03*
D11*
X138050000Y-97000000D03*
X138050000Y-95100000D03*
D12*
X144340000Y-89470000D03*
X142440000Y-89470000D03*
X165370000Y-71480000D03*
X163470000Y-71480000D03*
X165400000Y-76250000D03*
X163500000Y-76250000D03*
D11*
X161220000Y-79590000D03*
X161220000Y-77690000D03*
X167380000Y-87730000D03*
X167380000Y-85830000D03*
D27*
X133200000Y-65360000D03*
X129200000Y-65360000D03*
D12*
X133620000Y-67320000D03*
X131720000Y-67320000D03*
D30*
X167530000Y-97360000D03*
X167530000Y-95160000D03*
D31*
X158510000Y-99180000D03*
X161010000Y-99180000D03*
D19*
X163380000Y-97210000D03*
X163380000Y-95310000D03*
X165380000Y-96260000D03*
D30*
X150270000Y-66190000D03*
X150270000Y-63990000D03*
D32*
X138320000Y-89320000D03*
X140520000Y-89320000D03*
X135200000Y-63100000D03*
X133000000Y-63100000D03*
D30*
X148390000Y-89660000D03*
X148390000Y-91860000D03*
X146360000Y-89660000D03*
X146360000Y-91860000D03*
X139570000Y-65390000D03*
X139570000Y-63190000D03*
D32*
X163240000Y-99390000D03*
X165440000Y-99390000D03*
D33*
X137530000Y-65300000D03*
X137530000Y-62600000D03*
D30*
X144650000Y-59700000D03*
X144650000Y-57500000D03*
X143160000Y-63970000D03*
X143160000Y-66170000D03*
D32*
X157880000Y-101480000D03*
X160080000Y-101480000D03*
D30*
X134940000Y-96290000D03*
X134940000Y-98490000D03*
D33*
X140050000Y-94350000D03*
X140050000Y-97050000D03*
D32*
X160090000Y-103680000D03*
X157890000Y-103680000D03*
D30*
X152690000Y-106460000D03*
X152690000Y-104260000D03*
X147700000Y-94200000D03*
X147700000Y-96400000D03*
X150500000Y-57450000D03*
X150500000Y-59650000D03*
X150000000Y-116200000D03*
X150000000Y-118400000D03*
X153800000Y-52400000D03*
X153800000Y-54600000D03*
X141690000Y-102400000D03*
X141690000Y-100200000D03*
X142900000Y-57560000D03*
X142900000Y-59760000D03*
X151630000Y-110960000D03*
X151630000Y-108760000D03*
X155230000Y-108760000D03*
X155230000Y-110960000D03*
X146300000Y-52490000D03*
X146300000Y-54690000D03*
X143100000Y-104360000D03*
X143100000Y-106560000D03*
D32*
X163280000Y-79660000D03*
X165480000Y-79660000D03*
D30*
X152300000Y-59600000D03*
X152300000Y-57400000D03*
D32*
X151950000Y-101950000D03*
X149750000Y-101950000D03*
D30*
X155950000Y-59450000D03*
X155950000Y-57250000D03*
X145870000Y-99710000D03*
X145870000Y-101910000D03*
D32*
X144400000Y-91820000D03*
X142200000Y-91820000D03*
X165460000Y-77910000D03*
X163260000Y-77910000D03*
X163230000Y-74730000D03*
X165430000Y-74730000D03*
X165390000Y-73120000D03*
X163190000Y-73120000D03*
D30*
X141420000Y-65400000D03*
X141420000Y-63200000D03*
D34*
X165200000Y-101450000D03*
X165200000Y-102400000D03*
X165200000Y-103350000D03*
X163000000Y-103350000D03*
X163000000Y-101450000D03*
D35*
X150210000Y-54690000D03*
X149260000Y-54690000D03*
X148310000Y-54690000D03*
X148310000Y-52490000D03*
X150210000Y-52490000D03*
D36*
X148730000Y-107450000D03*
X147780000Y-107450000D03*
X146830000Y-107450000D03*
X146830000Y-104750000D03*
X148730000Y-104750000D03*
X144200000Y-97100000D03*
X143250000Y-97100000D03*
X142300000Y-97100000D03*
X142300000Y-94400000D03*
X144200000Y-94400000D03*
D37*
X162400000Y-87750000D03*
X162400000Y-86800000D03*
X162400000Y-85850000D03*
X165100000Y-85850000D03*
X165100000Y-87750000D03*
D38*
X165190000Y-68240000D03*
X165190000Y-68890000D03*
X165190000Y-69540000D03*
X162530000Y-69540000D03*
X162530000Y-68240000D03*
X165310000Y-81940000D03*
X165310000Y-82590000D03*
X165310000Y-83240000D03*
X162650000Y-83240000D03*
X162650000Y-81940000D03*
D39*
X162660000Y-124180000D03*
D40*
X165200000Y-124180000D03*
X162660000Y-121640000D03*
X165200000Y-121640000D03*
X162660000Y-119100000D03*
X165200000Y-119100000D03*
X162660000Y-116560000D03*
X165200000Y-116560000D03*
X162660000Y-114020000D03*
X165200000Y-114020000D03*
X162660000Y-111480000D03*
X165200000Y-111480000D03*
X162660000Y-108940000D03*
X165200000Y-108940000D03*
X162660000Y-106400000D03*
X165200000Y-106400000D03*
D11*
X163380000Y-93400000D03*
X163380000Y-91500000D03*
D41*
X133330000Y-98230000D03*
X133330000Y-97730000D03*
X133330000Y-96730000D03*
X133330000Y-97230000D03*
D42*
X131110000Y-98990000D03*
X131610000Y-98990000D03*
X132110000Y-98990000D03*
X132610000Y-98990000D03*
X132610000Y-96010000D03*
X132110000Y-96010000D03*
X131610000Y-96010000D03*
X131110000Y-96010000D03*
D41*
X130410000Y-98270000D03*
X130410000Y-97770000D03*
X130410000Y-97270000D03*
X130410000Y-96770000D03*
D43*
X144870000Y-66960000D03*
X161100000Y-63520000D03*
X150043051Y-100156949D03*
X152720000Y-54760000D03*
X161060010Y-76570000D03*
X162374010Y-71870952D03*
X158400000Y-71030000D03*
X150660000Y-107440000D03*
X162250000Y-62170000D03*
X142900000Y-59760000D03*
X139580000Y-64470000D03*
X167360222Y-84625797D03*
D44*
X140760000Y-92630000D03*
X139610000Y-83080000D03*
D43*
X147608000Y-108554000D03*
X135028843Y-99292990D03*
X153050000Y-63480000D03*
X157880000Y-101480000D03*
X157890000Y-103680000D03*
X143400000Y-98340000D03*
X138470000Y-102840000D03*
X132091421Y-96759383D03*
X149140000Y-55490000D03*
D45*
X157180000Y-51990000D03*
D43*
X163690000Y-86790000D03*
X154230000Y-99790000D03*
X164300000Y-102410000D03*
D45*
X159480000Y-90170000D03*
D43*
X166590000Y-82540000D03*
X163500000Y-76250000D03*
X166490000Y-68860000D03*
X165340000Y-66490000D03*
X161970000Y-55270000D03*
D45*
X151100000Y-77080000D03*
D44*
X139580000Y-70340000D03*
X127580000Y-65360000D03*
D43*
X127490000Y-58010000D03*
X156120000Y-109940000D03*
X138830000Y-61640000D03*
X145880000Y-58910000D03*
X143700000Y-56290000D03*
D44*
X163550000Y-104450000D03*
D43*
X159030000Y-64270000D03*
X148390000Y-91860000D03*
X151060000Y-99160000D03*
X151139987Y-101024213D03*
X151410000Y-102850002D03*
X154970000Y-65860000D03*
X159750000Y-74120000D03*
X160600000Y-82240000D03*
X160900000Y-89270000D03*
X143880000Y-65040000D03*
X146360000Y-91860000D03*
D44*
X150339536Y-97948464D03*
D43*
X146950000Y-97230000D03*
X141766000Y-98648000D03*
D44*
X137224359Y-66268989D03*
X152434000Y-94076000D03*
D43*
X145840000Y-121090000D03*
X157310000Y-121110000D03*
X130710000Y-99435000D03*
X128690000Y-99690000D03*
X157580000Y-55460000D03*
D44*
X140850000Y-70340000D03*
D43*
X152720000Y-107510000D03*
X152800000Y-113950000D03*
X164210000Y-84140000D03*
X163659989Y-82530000D03*
X156402680Y-89181557D03*
X150725136Y-91128051D03*
X148116000Y-93075011D03*
X158575021Y-88488000D03*
X151420000Y-56170000D03*
X149020000Y-52630000D03*
X146350808Y-71855313D03*
X145785783Y-70389966D03*
X151775556Y-89984444D03*
X149824882Y-83411694D03*
X153704000Y-66898000D03*
X143290000Y-90774000D03*
X159360000Y-85890000D03*
X157260000Y-86850000D03*
X149630000Y-90140000D03*
X147300000Y-92800000D03*
X135010000Y-121340000D03*
X157634989Y-91192483D03*
X156390000Y-100150000D03*
X138800000Y-124410000D03*
X128260000Y-69950000D03*
X129320000Y-68930000D03*
X138718000Y-66644000D03*
X142020000Y-67406000D03*
X134700000Y-124410000D03*
D44*
X166400000Y-103230000D03*
X165400000Y-97250000D03*
D43*
X145700000Y-60260000D03*
X135750000Y-74070000D03*
X134950000Y-89670000D03*
X154341041Y-104649513D03*
X133495000Y-94900000D03*
X136410000Y-73455700D03*
X154390022Y-105799525D03*
X132610855Y-94967212D03*
X136210000Y-71620000D03*
X144810000Y-73760000D03*
X151370000Y-81170000D03*
X152020000Y-83270000D03*
X160980000Y-65219274D03*
X149500000Y-97180000D03*
X154820000Y-101680000D03*
X156050000Y-107480000D03*
X148740000Y-99680000D03*
X148610000Y-97319978D03*
X160360000Y-65730000D03*
X140440000Y-61990000D03*
X163000000Y-101450000D03*
X160080000Y-101480000D03*
X151608688Y-91908688D03*
X154825476Y-103923497D03*
X148038124Y-84098602D03*
X152560000Y-97680000D03*
X155510000Y-104260000D03*
X152310000Y-92390000D03*
X148310000Y-83350000D03*
X149983017Y-88453796D03*
X149890000Y-89360000D03*
X149910000Y-85140000D03*
X154120526Y-78081825D03*
X153540000Y-70820000D03*
X147000000Y-81100000D03*
X153510000Y-76374990D03*
X149851985Y-72021985D03*
X149500556Y-70150556D03*
X148440000Y-70690000D03*
X156865342Y-88591251D03*
X150224146Y-92950389D03*
X150784657Y-91875697D03*
X158800000Y-87540000D03*
X127540000Y-124490000D03*
X160300000Y-102620000D03*
X157200000Y-100120000D03*
X157910000Y-90450000D03*
X158600000Y-84830000D03*
X156690000Y-85010000D03*
X146960000Y-122790000D03*
X131640000Y-124490000D03*
X141970000Y-124300000D03*
X146070000Y-124300000D03*
X142410000Y-121190000D03*
X128000000Y-121480000D03*
X131325102Y-97895010D03*
X161300000Y-87610000D03*
X162230000Y-78810000D03*
X135150000Y-94770000D03*
X153870826Y-103891292D03*
X134242858Y-94843202D03*
X134150000Y-91600000D03*
X137240000Y-71630000D03*
X138770000Y-71590000D03*
D46*
X144910000Y-66120000D02*
X144910000Y-66920000D01*
X144910000Y-66920000D02*
X144870000Y-66960000D01*
X148310000Y-66170000D02*
X148310000Y-65945000D01*
X130410000Y-97270000D02*
X131580804Y-97270000D01*
X131580804Y-97270000D02*
X132091421Y-96759383D01*
X130410000Y-97270000D02*
X129430000Y-97270000D01*
X129430000Y-97270000D02*
X128700000Y-96540000D01*
X128700000Y-96540000D02*
X128700000Y-96610000D01*
X132091421Y-96759383D02*
X132091421Y-97183647D01*
X132091421Y-97183647D02*
X132637774Y-97730000D01*
X132637774Y-97730000D02*
X133330000Y-97730000D01*
X134940000Y-98490000D02*
X134180000Y-97730000D01*
X134180000Y-97730000D02*
X133330000Y-97730000D01*
X161100000Y-63520000D02*
X161100000Y-63320000D01*
X161100000Y-63320000D02*
X162250000Y-62170000D01*
D47*
X154000000Y-100730000D02*
X154000000Y-100020000D01*
X154000000Y-100020000D02*
X154230000Y-99790000D01*
X151990000Y-54620000D02*
X152580000Y-54620000D01*
X152580000Y-54620000D02*
X152720000Y-54760000D01*
X161100000Y-76570000D02*
X161060010Y-76570000D01*
X161220000Y-76690000D02*
X161100000Y-76570000D01*
X161220000Y-77690000D02*
X161220000Y-76690000D01*
X162764962Y-71480000D02*
X162374010Y-71870952D01*
X163470000Y-71480000D02*
X162764962Y-71480000D01*
X157622200Y-72025880D02*
X157622200Y-71807800D01*
X157622200Y-71807800D02*
X158400000Y-71030000D01*
X150680000Y-106490000D02*
X150680000Y-107420000D01*
X150680000Y-107420000D02*
X150660000Y-107440000D01*
D46*
X139570000Y-65390000D02*
X139570000Y-64480000D01*
X139570000Y-64480000D02*
X139580000Y-64470000D01*
D47*
X167380000Y-84645575D02*
X167360222Y-84625797D01*
X167380000Y-85830000D02*
X167380000Y-84645575D01*
D46*
X142440000Y-89470000D02*
X142440000Y-89944998D01*
X142440000Y-89944998D02*
X140760000Y-91624998D01*
X140760000Y-91624998D02*
X140760000Y-92630000D01*
D48*
X139608200Y-86741880D02*
X139608200Y-83081800D01*
X139608200Y-83081800D02*
X139610000Y-83080000D01*
D46*
X147780000Y-107450000D02*
X147780000Y-108382000D01*
X147780000Y-108382000D02*
X147608000Y-108554000D01*
X146050000Y-96100000D02*
X145425000Y-96100000D01*
X143325001Y-95994999D02*
X143250000Y-96070000D01*
X145425000Y-96100000D02*
X145319999Y-95994999D01*
X143250000Y-96070000D02*
X143250000Y-97100000D01*
X145319999Y-95994999D02*
X143325001Y-95994999D01*
D47*
X135028843Y-98868726D02*
X135028843Y-99292990D01*
X135028843Y-98578843D02*
X135028843Y-98868726D01*
X134940000Y-98490000D02*
X135028843Y-98578843D01*
X152300000Y-63500000D02*
X153030000Y-63500000D01*
X153030000Y-63500000D02*
X153050000Y-63480000D01*
X150500000Y-59650000D02*
X150500000Y-61255000D01*
X150500000Y-61255000D02*
X149990000Y-61765000D01*
X146610000Y-66170000D02*
X148310000Y-66170000D01*
X144910000Y-66120000D02*
X146560000Y-66120000D01*
X146560000Y-66120000D02*
X146610000Y-66170000D01*
X138520000Y-57790000D02*
X139520000Y-57790000D01*
X139520000Y-57790000D02*
X140450000Y-58720000D01*
X136940000Y-57780000D02*
X138510000Y-57780000D01*
X138510000Y-57780000D02*
X138520000Y-57790000D01*
X141590000Y-55040000D02*
X141590000Y-57580000D01*
X141590000Y-57580000D02*
X140450000Y-58720000D01*
X143250000Y-97100000D02*
X143250000Y-98190000D01*
X143250000Y-98190000D02*
X143400000Y-98340000D01*
X139640000Y-102840000D02*
X138470000Y-102840000D01*
D46*
X132110000Y-96010000D02*
X132110000Y-96740804D01*
X132110000Y-96740804D02*
X132091421Y-96759383D01*
D47*
X149260000Y-54690000D02*
X149260000Y-55370000D01*
X149260000Y-55370000D02*
X149140000Y-55490000D01*
D48*
X155800000Y-51950000D02*
X157140000Y-51950000D01*
X157140000Y-51950000D02*
X157180000Y-51990000D01*
D47*
X162400000Y-86800000D02*
X163680000Y-86800000D01*
X163680000Y-86800000D02*
X163690000Y-86790000D01*
D46*
X154440000Y-98830000D02*
X154440000Y-99580000D01*
X154440000Y-99580000D02*
X154230000Y-99790000D01*
D47*
X167520000Y-101280000D02*
X167520000Y-101505000D01*
X166695010Y-102329990D02*
X166027204Y-102329990D01*
X167520000Y-101505000D02*
X166695010Y-102329990D01*
X166027204Y-102329990D02*
X165957194Y-102400000D01*
X165957194Y-102400000D02*
X165200000Y-102400000D01*
X165200000Y-102400000D02*
X164310000Y-102400000D01*
X164310000Y-102400000D02*
X164300000Y-102410000D01*
D49*
X160710000Y-91770000D02*
X160710000Y-91400000D01*
X160710000Y-91400000D02*
X159480000Y-90170000D01*
D47*
X160710000Y-91770000D02*
X163110000Y-91770000D01*
X163110000Y-91770000D02*
X163380000Y-91500000D01*
X165310000Y-82590000D02*
X166540000Y-82590000D01*
X166540000Y-82590000D02*
X166590000Y-82540000D01*
X163190000Y-73120000D02*
X163190000Y-71760000D01*
X163190000Y-71760000D02*
X163470000Y-71480000D01*
D46*
X165190000Y-68890000D02*
X166460000Y-68890000D01*
X166460000Y-68890000D02*
X166490000Y-68860000D01*
X164220000Y-66490000D02*
X165340000Y-66490000D01*
X160830000Y-55280000D02*
X161960000Y-55280000D01*
X161960000Y-55280000D02*
X161970000Y-55270000D01*
D48*
X148275000Y-77050000D02*
X151070000Y-77050000D01*
X151070000Y-77050000D02*
X151100000Y-77080000D01*
D47*
X139588200Y-68723880D02*
X139588200Y-70331800D01*
X139588200Y-70331800D02*
X139580000Y-70340000D01*
D48*
X129200000Y-65360000D02*
X127580000Y-65360000D01*
X131720000Y-67320000D02*
X131160000Y-67320000D01*
X131160000Y-67320000D02*
X129200000Y-65360000D01*
D47*
X128550000Y-58000000D02*
X127500000Y-58000000D01*
X127500000Y-58000000D02*
X127490000Y-58010000D01*
X157130000Y-108910000D02*
X157130000Y-108930000D01*
X157130000Y-108930000D02*
X156120000Y-109940000D01*
X155230000Y-110960000D02*
X155230000Y-110830000D01*
X155230000Y-110830000D02*
X156120000Y-109940000D01*
X155230000Y-110960000D02*
X155230000Y-110810000D01*
D48*
X152800000Y-117950000D02*
X150450000Y-117950000D01*
X150450000Y-117950000D02*
X150000000Y-118400000D01*
X155050000Y-115450000D02*
X155050000Y-115700000D01*
X155050000Y-115700000D02*
X152800000Y-117950000D01*
X150000000Y-118400000D02*
X149570000Y-118400000D01*
X149570000Y-118400000D02*
X147425000Y-116255000D01*
D47*
X138830000Y-61640000D02*
X138830000Y-60000000D01*
X138830000Y-60000000D02*
X138520000Y-59690000D01*
X137530000Y-62600000D02*
X137870000Y-62600000D01*
X137870000Y-62600000D02*
X138830000Y-61640000D01*
X136940000Y-59680000D02*
X138510000Y-59680000D01*
X138510000Y-59680000D02*
X138520000Y-59690000D01*
X135970000Y-56460000D02*
X135970000Y-58485000D01*
X135970000Y-58485000D02*
X136940000Y-59455000D01*
X136940000Y-59455000D02*
X136940000Y-59680000D01*
X137590000Y-55040000D02*
X137390000Y-55040000D01*
X137390000Y-55040000D02*
X135970000Y-56460000D01*
D46*
X137620000Y-54440000D02*
X137420000Y-54440000D01*
X145880000Y-58910000D02*
X145440000Y-58910000D01*
X145440000Y-58910000D02*
X144650000Y-59700000D01*
X143300000Y-52150000D02*
X143300000Y-55890000D01*
X143300000Y-55890000D02*
X143700000Y-56290000D01*
X144060000Y-51390000D02*
X143300000Y-52150000D01*
X149315000Y-51390000D02*
X144060000Y-51390000D01*
X150210000Y-52490000D02*
X150210000Y-52285000D01*
X150210000Y-52285000D02*
X149315000Y-51390000D01*
X150210000Y-52490000D02*
X151760000Y-52490000D01*
X151760000Y-52490000D02*
X151990000Y-52720000D01*
X144650000Y-59700000D02*
X144650000Y-61505000D01*
X144650000Y-61505000D02*
X144910000Y-61765000D01*
X144910000Y-64220000D02*
X144910000Y-61765000D01*
X144910000Y-64220000D02*
X143410000Y-64220000D01*
X143410000Y-64220000D02*
X143160000Y-63970000D01*
X146610000Y-64270000D02*
X144960000Y-64270000D01*
X144960000Y-64270000D02*
X144910000Y-64220000D01*
X148310000Y-64270000D02*
X146610000Y-64270000D01*
D47*
X160090000Y-103680000D02*
X162670000Y-103680000D01*
X162670000Y-103680000D02*
X163000000Y-103350000D01*
D48*
X163240000Y-99390000D02*
X163090000Y-99390000D01*
X163090000Y-99390000D02*
X161470000Y-101010000D01*
X161470000Y-101010000D02*
X161470000Y-102025000D01*
X161470000Y-102025000D02*
X162795000Y-103350000D01*
X162795000Y-103350000D02*
X163000000Y-103350000D01*
X163380000Y-97210000D02*
X163380000Y-99250000D01*
X163380000Y-99250000D02*
X163240000Y-99390000D01*
X161010000Y-99180000D02*
X163030000Y-99180000D01*
X163030000Y-99180000D02*
X163240000Y-99390000D01*
X163550000Y-104450000D02*
X163550000Y-103900000D01*
X163550000Y-103900000D02*
X163000000Y-103350000D01*
D46*
X131610000Y-98990000D02*
X131610000Y-98469998D01*
X131610000Y-98469998D02*
X131849998Y-98230000D01*
X131849998Y-98230000D02*
X133330000Y-98230000D01*
X131110000Y-98990000D02*
X131610000Y-98990000D01*
X130710000Y-99435000D02*
X130710000Y-99390000D01*
X130710000Y-99390000D02*
X131110000Y-98990000D01*
X138464000Y-98648000D02*
X141766000Y-98648000D01*
X137194000Y-99918000D02*
X138464000Y-98648000D01*
X131193000Y-99918000D02*
X137194000Y-99918000D01*
X130710000Y-99435000D02*
X131193000Y-99918000D01*
X159200000Y-63520000D02*
X159200000Y-64100000D01*
X159200000Y-64100000D02*
X159030000Y-64270000D01*
X151139987Y-101024213D02*
X151060000Y-100944226D01*
X151060000Y-100944226D02*
X151060000Y-99160000D01*
X152690000Y-104110000D02*
X151410000Y-102850002D01*
X152690000Y-104260000D02*
X152690000Y-104110000D01*
X165125000Y-57820000D02*
X166520000Y-57820000D01*
X160514999Y-62430001D02*
X165125000Y-57820000D01*
X159200000Y-62895000D02*
X159664999Y-62430001D01*
X159200000Y-63520000D02*
X159200000Y-62895000D01*
X159664999Y-62430001D02*
X160514999Y-62430001D01*
D47*
X160600000Y-82240000D02*
X159750000Y-81390000D01*
X159750000Y-81390000D02*
X159750000Y-74120000D01*
X163890000Y-89580000D02*
X161210000Y-89580000D01*
X161210000Y-89580000D02*
X160900000Y-89270000D01*
X164780000Y-90470000D02*
X163890000Y-89580000D01*
X164780000Y-92775000D02*
X164780000Y-90470000D01*
X163380000Y-93400000D02*
X164155000Y-93400000D01*
X164155000Y-93400000D02*
X164780000Y-92775000D01*
X160380000Y-94070000D02*
X162710000Y-94070000D01*
X162710000Y-94070000D02*
X163380000Y-93400000D01*
X154970000Y-65860000D02*
X157310000Y-63520000D01*
X157310000Y-63520000D02*
X159200000Y-63520000D01*
X143160000Y-66170000D02*
X143160000Y-65760000D01*
X143160000Y-65760000D02*
X143880000Y-65040000D01*
D46*
X148849123Y-92319123D02*
X148390000Y-91860000D01*
X148849123Y-95100877D02*
X148849123Y-92319123D01*
X147700000Y-96250000D02*
X148849123Y-95100877D01*
X153815012Y-106142368D02*
X154577642Y-106904998D01*
X153815012Y-105540188D02*
X153815012Y-106142368D01*
X154577642Y-106904998D02*
X156651498Y-106904998D01*
X153390000Y-105110000D02*
X153390000Y-105115176D01*
X152690000Y-104410000D02*
X153390000Y-105110000D01*
X152690000Y-104260000D02*
X152690000Y-104410000D01*
X161534999Y-111788499D02*
X161534999Y-116885001D01*
X153390000Y-105115176D02*
X153815012Y-105540188D01*
X161534999Y-116885001D02*
X157310000Y-121110000D01*
X156651498Y-106904998D02*
X161534999Y-111788499D01*
D48*
X147649998Y-97776002D02*
X148143984Y-98269988D01*
X147700000Y-96400000D02*
X147649998Y-96450002D01*
X150147998Y-98140002D02*
X150339536Y-97948464D01*
X147649998Y-96450002D02*
X147649998Y-97776002D01*
X148143984Y-98269988D02*
X149066016Y-98269988D01*
X149066016Y-98269988D02*
X149196002Y-98140002D01*
X149196002Y-98140002D02*
X150147998Y-98140002D01*
D46*
X146950000Y-97230000D02*
X146950000Y-97150000D01*
X146950000Y-97150000D02*
X147700000Y-96400000D01*
D47*
X137224359Y-65703304D02*
X137224359Y-66268989D01*
X137224359Y-65605641D02*
X137224359Y-65703304D01*
X137530000Y-65300000D02*
X137224359Y-65605641D01*
D48*
X155960000Y-94070000D02*
X152440000Y-94070000D01*
X152440000Y-94070000D02*
X152434000Y-94076000D01*
D46*
X166520000Y-57820000D02*
X160845000Y-57820000D01*
X160845000Y-57820000D02*
X158930000Y-55905000D01*
X158930000Y-55905000D02*
X158930000Y-55280000D01*
X157310000Y-121110000D02*
X145860000Y-121110000D01*
X145860000Y-121110000D02*
X145840000Y-121090000D01*
X128700000Y-98440000D02*
X128700000Y-99680000D01*
X128700000Y-99680000D02*
X128690000Y-99690000D01*
D47*
X147700000Y-96250000D02*
X147700000Y-96400000D01*
D46*
X146360000Y-91860000D02*
X146230000Y-91860000D01*
X148390000Y-91860000D02*
X146360000Y-91860000D01*
D47*
X155960000Y-94070000D02*
X160380000Y-94070000D01*
D46*
X157580000Y-55460000D02*
X158750000Y-55460000D01*
X158750000Y-55460000D02*
X158930000Y-55280000D01*
D47*
X140858200Y-68723880D02*
X140858200Y-70331800D01*
X140858200Y-70331800D02*
X140850000Y-70340000D01*
X143160000Y-66170000D02*
X142310000Y-66170000D01*
X142310000Y-66170000D02*
X140858200Y-67621800D01*
X140858200Y-67621800D02*
X140858200Y-68723880D01*
X137530000Y-65400000D02*
X137530000Y-65300000D01*
X135200000Y-63100000D02*
X135330000Y-63100000D01*
X135330000Y-63100000D02*
X137530000Y-65300000D01*
X133200000Y-65360000D02*
X133200000Y-65100000D01*
X133200000Y-65100000D02*
X135200000Y-63100000D01*
X133620000Y-67320000D02*
X133620000Y-65780000D01*
X133620000Y-65780000D02*
X133200000Y-65360000D01*
X152325000Y-106460000D02*
X152690000Y-106460000D01*
X150680000Y-104815000D02*
X152325000Y-106460000D01*
X150680000Y-104590000D02*
X150680000Y-104815000D01*
X152690000Y-106460000D02*
X152690000Y-107480000D01*
X152690000Y-107480000D02*
X152720000Y-107510000D01*
X148730000Y-104750000D02*
X150520000Y-104750000D01*
X150520000Y-104750000D02*
X150680000Y-104590000D01*
D46*
X155050000Y-113550000D02*
X155050000Y-113115000D01*
X155050000Y-113115000D02*
X157130000Y-111035000D01*
X157130000Y-111035000D02*
X157130000Y-110810000D01*
X155050000Y-113550000D02*
X153200000Y-113550000D01*
X153200000Y-113550000D02*
X152800000Y-113950000D01*
X151630000Y-110960000D02*
X147640000Y-110960000D01*
X147640000Y-110960000D02*
X147425000Y-111175000D01*
D47*
X165030000Y-84960000D02*
X165945002Y-84960000D01*
X165945002Y-84960000D02*
X166280000Y-85294998D01*
X166280000Y-85294998D02*
X166280000Y-87025000D01*
X166280000Y-87025000D02*
X165555000Y-87750000D01*
X165555000Y-87750000D02*
X165100000Y-87750000D01*
X164210000Y-84140000D02*
X165030000Y-84960000D01*
X162650000Y-81940000D02*
X163069989Y-81940000D01*
X163069989Y-81940000D02*
X163659989Y-82530000D01*
X160360000Y-75950000D02*
X160360000Y-78505000D01*
X160360000Y-78505000D02*
X161220000Y-79365000D01*
X161220000Y-79365000D02*
X161220000Y-79590000D01*
X161570000Y-74740000D02*
X160360000Y-75950000D01*
X161570000Y-71684998D02*
X161570000Y-74740000D01*
X163630001Y-70239999D02*
X163014999Y-70239999D01*
X163014999Y-70239999D02*
X161570000Y-71684998D01*
X162900000Y-68329998D02*
X163630001Y-69059999D01*
X163630001Y-69059999D02*
X163630001Y-70239999D01*
X162900000Y-68240000D02*
X162900000Y-68329998D01*
X162530000Y-68240000D02*
X162900000Y-68240000D01*
D46*
X151025135Y-90828052D02*
X154756185Y-90828052D01*
X154756185Y-90828052D02*
X156402680Y-89181557D01*
X150725136Y-91128051D02*
X151025135Y-90828052D01*
X147700000Y-94200000D02*
X147700000Y-93350000D01*
X147700000Y-93350000D02*
X147974989Y-93075011D01*
X147974989Y-93075011D02*
X148116000Y-93075011D01*
X163332000Y-88488000D02*
X158575021Y-88488000D01*
X164070000Y-87750000D02*
X163332000Y-88488000D01*
X165100000Y-87750000D02*
X164070000Y-87750000D01*
D47*
X146050000Y-94200000D02*
X147700000Y-94200000D01*
X144200000Y-94400000D02*
X145850000Y-94400000D01*
X145850000Y-94400000D02*
X146050000Y-94200000D01*
X162530000Y-68240000D02*
X162530000Y-66700000D01*
X162530000Y-66700000D02*
X162320000Y-66490000D01*
X165100000Y-87750000D02*
X167360000Y-87750000D01*
X167360000Y-87750000D02*
X167380000Y-87730000D01*
X163280000Y-79660000D02*
X163280000Y-81310000D01*
X163280000Y-81310000D02*
X162650000Y-81940000D01*
X161220000Y-79590000D02*
X163210000Y-79590000D01*
X163210000Y-79590000D02*
X163280000Y-79660000D01*
D46*
X153800000Y-54600000D02*
X155650000Y-54600000D01*
X155650000Y-54600000D02*
X155800000Y-54450000D01*
X139640000Y-100340000D02*
X141550000Y-100340000D01*
X141550000Y-100340000D02*
X141690000Y-100200000D01*
X150210000Y-54690000D02*
X150210000Y-55470000D01*
X147425001Y-56699999D02*
X146775000Y-57350000D01*
X150210000Y-55470000D02*
X148980001Y-56699999D01*
X148980001Y-56699999D02*
X147425001Y-56699999D01*
X146775000Y-57350000D02*
X146550000Y-57350000D01*
X145910000Y-57500000D02*
X146060000Y-57350000D01*
X146060000Y-57350000D02*
X146550000Y-57350000D01*
X144650000Y-57500000D02*
X145910000Y-57500000D01*
X142900000Y-57560000D02*
X144590000Y-57560000D01*
X144590000Y-57560000D02*
X144650000Y-57500000D01*
X147450000Y-59225000D02*
X147450000Y-58350000D01*
X147450000Y-58350000D02*
X148450000Y-57350000D01*
X150500000Y-57450000D02*
X148550000Y-57450000D01*
X148550000Y-57450000D02*
X148450000Y-57350000D01*
X151630000Y-108760000D02*
X149585000Y-108760000D01*
X149585000Y-108760000D02*
X148730000Y-107905000D01*
X148730000Y-107905000D02*
X148730000Y-107450000D01*
X153430000Y-109060000D02*
X151930000Y-109060000D01*
X151930000Y-109060000D02*
X151630000Y-108760000D01*
X155230000Y-108760000D02*
X153730000Y-108760000D01*
X153730000Y-108760000D02*
X153430000Y-109060000D01*
X149965000Y-113715000D02*
X151005001Y-112674999D01*
X151940001Y-112674999D02*
X153430000Y-111185000D01*
X151005001Y-112674999D02*
X151940001Y-112674999D01*
X153430000Y-111185000D02*
X153430000Y-110960000D01*
X150000000Y-116200000D02*
X150000000Y-113750000D01*
X150000000Y-113750000D02*
X149965000Y-113715000D01*
X151420000Y-56170000D02*
X151420000Y-56520000D01*
X151420000Y-56520000D02*
X152300000Y-57400000D01*
X148310000Y-52490000D02*
X148880000Y-52490000D01*
X148880000Y-52490000D02*
X149020000Y-52630000D01*
X154200000Y-57450000D02*
X152350000Y-57450000D01*
X152350000Y-57450000D02*
X152300000Y-57400000D01*
X146300000Y-52490000D02*
X148310000Y-52490000D01*
X144570000Y-52740000D02*
X146050000Y-52740000D01*
X146050000Y-52740000D02*
X146300000Y-52490000D01*
X153800000Y-52400000D02*
X153800000Y-53250000D01*
X153800000Y-53250000D02*
X153355001Y-53694999D01*
X153355001Y-53694999D02*
X148525001Y-53694999D01*
X148525001Y-53694999D02*
X148310000Y-53910000D01*
X148310000Y-53910000D02*
X148310000Y-54690000D01*
X146300000Y-54690000D02*
X148310000Y-54690000D01*
X144570000Y-54640000D02*
X146250000Y-54640000D01*
X146250000Y-54640000D02*
X146300000Y-54690000D01*
X147750000Y-101820000D02*
X149620000Y-101820000D01*
X149620000Y-101820000D02*
X149750000Y-101950000D01*
X148970000Y-103430000D02*
X147695000Y-103430000D01*
X147695000Y-103430000D02*
X146830000Y-104295000D01*
X146830000Y-104295000D02*
X146830000Y-104750000D01*
X149750000Y-101950000D02*
X149750000Y-102650000D01*
X149750000Y-102650000D02*
X148970000Y-103430000D01*
X144770000Y-104690000D02*
X146770000Y-104690000D01*
X146770000Y-104690000D02*
X146830000Y-104750000D01*
X143100000Y-104360000D02*
X144440000Y-104360000D01*
X144440000Y-104360000D02*
X144770000Y-104690000D01*
X141690000Y-102400000D02*
X141690000Y-105850000D01*
X141690000Y-105850000D02*
X142400000Y-106560000D01*
X142400000Y-106560000D02*
X143100000Y-106560000D01*
X144770000Y-106590000D02*
X144770000Y-106815000D01*
X145405000Y-107450000D02*
X146830000Y-107450000D01*
X144770000Y-106815000D02*
X145405000Y-107450000D01*
X143100000Y-106560000D02*
X144740000Y-106560000D01*
X144740000Y-106560000D02*
X144770000Y-106590000D01*
X154200000Y-59350000D02*
X154200000Y-59125000D01*
X155950000Y-57375000D02*
X155950000Y-57250000D01*
X154200000Y-59125000D02*
X155950000Y-57375000D01*
X147750000Y-99920000D02*
X147750000Y-100145000D01*
X147750000Y-100145000D02*
X145985000Y-101910000D01*
X145985000Y-101910000D02*
X145870000Y-101910000D01*
X151310000Y-64495002D02*
X151310000Y-62815000D01*
X151310000Y-62815000D02*
X152300000Y-61825000D01*
X152300000Y-61825000D02*
X152300000Y-61600000D01*
X150024998Y-64890000D02*
X150915002Y-64890000D01*
X150915002Y-64890000D02*
X151310000Y-64495002D01*
X149270000Y-66770002D02*
X149270000Y-65644998D01*
X149270000Y-65644998D02*
X150024998Y-64890000D01*
X145958200Y-68707880D02*
X145958200Y-67457880D01*
X145958200Y-67457880D02*
X146321079Y-67095001D01*
X146321079Y-67095001D02*
X148945001Y-67095001D01*
X148945001Y-67095001D02*
X149270000Y-66770002D01*
X152300000Y-59600000D02*
X152300000Y-61600000D01*
X151950000Y-101950000D02*
X151950000Y-100150000D01*
X146820114Y-70389966D02*
X145785783Y-70389966D01*
X143714987Y-78665991D02*
X143714987Y-72298309D01*
X143714987Y-72298309D02*
X144157983Y-71855313D01*
X144157983Y-71855313D02*
X146350808Y-71855313D01*
X147823994Y-82774998D02*
X143714987Y-78665991D01*
X149824882Y-83411694D02*
X149188186Y-82774998D01*
X149188186Y-82774998D02*
X147823994Y-82774998D01*
X147236200Y-69973880D02*
X146820114Y-70389966D01*
X147236200Y-68723880D02*
X147236200Y-69973880D01*
X151950000Y-100150000D02*
X151950000Y-97897200D01*
X151055556Y-89984444D02*
X151775556Y-89984444D01*
X151950000Y-97897200D02*
X150799980Y-96747180D01*
X150799980Y-96747180D02*
X150799980Y-92597527D01*
X150799980Y-92597527D02*
X150653151Y-92450698D01*
X150653151Y-92450698D02*
X150508656Y-92450698D01*
X150508656Y-92450698D02*
X150060634Y-92002676D01*
X150060634Y-92002676D02*
X150060634Y-90979366D01*
X150060634Y-90979366D02*
X151055556Y-89984444D01*
X142300000Y-94400000D02*
X142300000Y-91920000D01*
X142300000Y-91920000D02*
X142200000Y-91820000D01*
X140050000Y-94350000D02*
X142250000Y-94350000D01*
X142250000Y-94350000D02*
X142300000Y-94400000D01*
X138050000Y-95100000D02*
X139300000Y-95100000D01*
X139300000Y-95100000D02*
X140050000Y-94350000D01*
X153700000Y-65170000D02*
X153700000Y-66894000D01*
X153700000Y-66894000D02*
X153704000Y-66898000D01*
X153700000Y-65170000D02*
X154212000Y-64658000D01*
X154212000Y-64658000D02*
X154212000Y-61338000D01*
X143290000Y-90774000D02*
X143290000Y-95369998D01*
X143290000Y-95369998D02*
X142300000Y-96359998D01*
X142300000Y-96359998D02*
X142300000Y-97100000D01*
X155950000Y-59450000D02*
X155950000Y-59600000D01*
X155950000Y-59600000D02*
X154212000Y-61338000D01*
X140050000Y-97050000D02*
X138100000Y-97050000D01*
X138100000Y-97050000D02*
X138050000Y-97000000D01*
X142300000Y-97100000D02*
X140100000Y-97100000D01*
X140100000Y-97100000D02*
X140050000Y-97050000D01*
X145870000Y-99710000D02*
X143880000Y-99710000D01*
X143880000Y-99710000D02*
X142300000Y-98130000D01*
X142300000Y-98130000D02*
X142300000Y-97100000D01*
X164258998Y-83240000D02*
X164310000Y-83240000D01*
X163634999Y-83863999D02*
X164258998Y-83240000D01*
X161386001Y-83863999D02*
X163634999Y-83863999D01*
X159360000Y-85890000D02*
X161386001Y-83863999D01*
X164105012Y-70195012D02*
X164105012Y-68324988D01*
X164425001Y-70515001D02*
X164105012Y-70195012D01*
X164234999Y-81569999D02*
X164425001Y-81379997D01*
X164234999Y-83164999D02*
X164234999Y-81569999D01*
X164310000Y-83240000D02*
X164234999Y-83164999D01*
X164425001Y-81379997D02*
X164425001Y-70515001D01*
X164105012Y-68324988D02*
X164190000Y-68240000D01*
X164190000Y-68240000D02*
X165190000Y-68240000D01*
X164310000Y-83240000D02*
X165310000Y-83240000D01*
X151312355Y-88816262D02*
X155283738Y-88816262D01*
X156893201Y-87961881D02*
X156893201Y-87216799D01*
X155283738Y-88816262D02*
X156083119Y-88016881D01*
X156083119Y-88016881D02*
X156838201Y-88016881D01*
X156838201Y-88016881D02*
X156893201Y-87961881D01*
X156893201Y-87216799D02*
X157260000Y-86850000D01*
X149630000Y-90140000D02*
X149988617Y-90140000D01*
X149988617Y-90140000D02*
X151312355Y-88816262D01*
X146004998Y-93050000D02*
X147050000Y-93050000D01*
X147050000Y-93050000D02*
X147300000Y-92800000D01*
X145240000Y-90995000D02*
X145240000Y-92285002D01*
X145240000Y-92285002D02*
X146004998Y-93050000D01*
X144340000Y-89470000D02*
X144340000Y-90095000D01*
X144340000Y-90095000D02*
X145240000Y-90995000D01*
X144400000Y-91820000D02*
X144400000Y-89530000D01*
X144400000Y-89530000D02*
X144340000Y-89470000D01*
X165190000Y-69540000D02*
X165190000Y-71300000D01*
X165190000Y-71300000D02*
X165370000Y-71480000D01*
X165390000Y-73120000D02*
X165390000Y-74690000D01*
X165390000Y-74690000D02*
X165430000Y-74730000D01*
X165370000Y-71480000D02*
X165370000Y-73100000D01*
X165370000Y-73100000D02*
X165390000Y-73120000D01*
X165310000Y-81940000D02*
X165310000Y-79830000D01*
X165310000Y-79830000D02*
X165480000Y-79660000D01*
X165400000Y-76250000D02*
X165400000Y-77850000D01*
X165400000Y-77850000D02*
X165460000Y-77910000D01*
X165460000Y-77910000D02*
X165460000Y-79640000D01*
X165460000Y-79640000D02*
X165480000Y-79660000D01*
X130550000Y-58950000D02*
X133510000Y-58950000D01*
X133510000Y-58950000D02*
X134150000Y-58310000D01*
X133000000Y-63100000D02*
X133000000Y-62000000D01*
X133000000Y-62000000D02*
X134150000Y-60850000D01*
X136750000Y-124450000D02*
X136750000Y-123080000D01*
X136750000Y-123080000D02*
X135010000Y-121340000D01*
X165440000Y-99390000D02*
X165590000Y-99390000D01*
X165590000Y-99390000D02*
X166290000Y-98690000D01*
X166290000Y-98690000D02*
X166290000Y-96550000D01*
X166290000Y-96550000D02*
X167530000Y-95310000D01*
X167530000Y-95310000D02*
X167530000Y-95160000D01*
X167530000Y-97360000D02*
X167530000Y-99325000D01*
X167530000Y-99325000D02*
X165405000Y-101450000D01*
X165405000Y-101450000D02*
X165200000Y-101450000D01*
X157835002Y-87116002D02*
X157506002Y-87445002D01*
X157506002Y-89992994D02*
X157334990Y-90164006D01*
X157506002Y-87445002D02*
X157506002Y-89992994D01*
X157622200Y-86361196D02*
X157835002Y-86573998D01*
X157334990Y-90892484D02*
X157634989Y-91192483D01*
X157622200Y-83455880D02*
X157622200Y-86361196D01*
X157334990Y-90164006D02*
X157334990Y-90892484D01*
X157835002Y-86573998D02*
X157835002Y-87116002D01*
X155500000Y-100730000D02*
X155810000Y-100730000D01*
X155810000Y-100730000D02*
X156390000Y-100150000D01*
X159070000Y-103224998D02*
X159070000Y-104205002D01*
X159070000Y-104205002D02*
X161264998Y-106400000D01*
X161264998Y-106400000D02*
X162660000Y-106400000D01*
X157320000Y-102750000D02*
X158595002Y-102750000D01*
X158595002Y-102750000D02*
X159070000Y-103224998D01*
X155500000Y-100730000D02*
X155500000Y-100930000D01*
X155500000Y-100930000D02*
X157320000Y-102750000D01*
X136750000Y-125950000D02*
X136950000Y-125950000D01*
X136950000Y-125950000D02*
X138490000Y-124410000D01*
X138490000Y-124410000D02*
X138800000Y-124410000D01*
X136750000Y-125950000D02*
X136550000Y-125950000D01*
X136550000Y-125950000D02*
X135010000Y-124410000D01*
X135010000Y-124410000D02*
X134700000Y-124410000D01*
X128260000Y-69950000D02*
X127960001Y-70249999D01*
X127960001Y-70249999D02*
X127960001Y-70289999D01*
X127960001Y-70289999D02*
X127034000Y-71216000D01*
X127034000Y-114904000D02*
X134700000Y-122570000D01*
X134700000Y-122570000D02*
X134700000Y-124410000D01*
X127034000Y-71216000D02*
X127034000Y-114904000D01*
X134146000Y-68930000D02*
X129320000Y-68930000D01*
X136132001Y-66943999D02*
X134146000Y-68930000D01*
X138418001Y-66943999D02*
X136132001Y-66943999D01*
X138718000Y-66644000D02*
X138418001Y-66943999D01*
X142128200Y-68723880D02*
X142128200Y-67514200D01*
X142128200Y-67514200D02*
X142020000Y-67406000D01*
X128550000Y-59900000D02*
X128550000Y-61500000D01*
X128550000Y-61500000D02*
X128350000Y-61700000D01*
D48*
X165200000Y-106400000D02*
X165200000Y-103425001D01*
X166400000Y-103230000D02*
X167470000Y-103230000D01*
X167470000Y-103230000D02*
X167520000Y-103180000D01*
X165380000Y-96260000D02*
X165380000Y-97230000D01*
X165380000Y-97230000D02*
X165400000Y-97250000D01*
X167520000Y-103180000D02*
X167520000Y-104080000D01*
X167520000Y-104080000D02*
X165200000Y-106400000D01*
D46*
X150270000Y-66190000D02*
X151032320Y-66190000D01*
X151032320Y-66190000D02*
X152316200Y-67473880D01*
X152316200Y-67473880D02*
X152316200Y-68723880D01*
X145700000Y-60260000D02*
X149430000Y-63990000D01*
X149430000Y-63990000D02*
X150270000Y-63990000D01*
X134950000Y-89670000D02*
X135750000Y-88870000D01*
X135750000Y-88870000D02*
X135750000Y-74070000D01*
X162660000Y-108940000D02*
X160383598Y-108940000D01*
X160383598Y-108940000D02*
X156278600Y-104835002D01*
X155048509Y-104649513D02*
X154341041Y-104649513D01*
X156278600Y-104835002D02*
X155233998Y-104835002D01*
X155233998Y-104835002D02*
X155048509Y-104649513D01*
X132610000Y-95785000D02*
X133495000Y-94900000D01*
X132610000Y-96010000D02*
X132610000Y-95785000D01*
X132610000Y-96010000D02*
X132610000Y-95892267D01*
X136410000Y-87560000D02*
X136410000Y-73455700D01*
X156111725Y-105799525D02*
X154390022Y-105799525D01*
X160942201Y-110630001D02*
X156111725Y-105799525D01*
X161810001Y-110630001D02*
X160942201Y-110630001D01*
X162660000Y-111480000D02*
X161810001Y-110630001D01*
X132027788Y-94967212D02*
X132610855Y-94967212D01*
X131610000Y-95385000D02*
X132027788Y-94967212D01*
X131610000Y-96010000D02*
X131610000Y-95385000D01*
X131610000Y-96010000D02*
X131610000Y-95180000D01*
X131610000Y-95180000D02*
X137470000Y-89320000D01*
X137470000Y-89320000D02*
X138320000Y-89320000D01*
X136410000Y-87560000D02*
X138170000Y-89320000D01*
X138170000Y-89320000D02*
X138320000Y-89320000D01*
X140520000Y-89320000D02*
X140520000Y-87124080D01*
X140520000Y-87124080D02*
X140886200Y-86757880D01*
X163880000Y-62320000D02*
X165940000Y-62320000D01*
X165940000Y-62320000D02*
X166520000Y-62900000D01*
X163680000Y-63820000D02*
X163880000Y-63820000D01*
X163180000Y-64320000D02*
X163680000Y-63820000D01*
X162730276Y-64320000D02*
X163180000Y-64320000D01*
X156962482Y-70990000D02*
X161420000Y-66532482D01*
X156050000Y-71513078D02*
X156573078Y-70990000D01*
X161420000Y-65630276D02*
X162730276Y-64320000D01*
X156050000Y-75911896D02*
X156050000Y-71513078D01*
X156315035Y-76176931D02*
X156050000Y-75911896D01*
X156315035Y-84049045D02*
X156315035Y-76176931D01*
X161420000Y-66532482D02*
X161420000Y-65630276D01*
X154856200Y-85507880D02*
X156315035Y-84049045D01*
X154856200Y-86757880D02*
X154856200Y-85507880D01*
X156573078Y-70990000D02*
X156962482Y-70990000D01*
X136210000Y-71620000D02*
X130950000Y-71620000D01*
X126670000Y-67340000D02*
X126670000Y-64610000D01*
X128560000Y-63190000D02*
X129850000Y-61900000D01*
X130950000Y-71620000D02*
X126670000Y-67340000D01*
X126670000Y-64610000D02*
X128090000Y-63190000D01*
X128090000Y-63190000D02*
X128560000Y-63190000D01*
X129850000Y-61900000D02*
X129850000Y-61700000D01*
X146429998Y-79790000D02*
X144810000Y-78170002D01*
X144810000Y-78170002D02*
X144810000Y-73760000D01*
X149565736Y-79790000D02*
X146429998Y-79790000D01*
X151370000Y-81170000D02*
X150945736Y-81170000D01*
X150945736Y-81170000D02*
X149565736Y-79790000D01*
X153578200Y-86741880D02*
X153578200Y-84828200D01*
X153578200Y-84828200D02*
X152020000Y-83270000D01*
X148390000Y-89810000D02*
X149090000Y-90510000D01*
X149090000Y-90510000D02*
X149150702Y-90510000D01*
X148390000Y-89660000D02*
X148390000Y-89810000D01*
X149649145Y-96606591D02*
X149500000Y-96755736D01*
X149500000Y-96755736D02*
X149500000Y-97180000D01*
X149649145Y-91008443D02*
X149649145Y-96606591D01*
X149150702Y-90510000D02*
X149649145Y-91008443D01*
X160980000Y-66374300D02*
X160980000Y-65219274D01*
X156764311Y-70589989D02*
X160980000Y-66374300D01*
X156407389Y-70589989D02*
X156764311Y-70589989D01*
X155490011Y-71507367D02*
X156407389Y-70589989D01*
X155490011Y-75917607D02*
X155490011Y-71507367D01*
X149758701Y-84440297D02*
X150212983Y-84440297D01*
X150212983Y-84440297D02*
X150799895Y-83853385D01*
X150799895Y-83853385D02*
X150799895Y-83315805D01*
X150799895Y-83315805D02*
X155915024Y-78200676D01*
X148498200Y-86741880D02*
X148498200Y-85700798D01*
X148498200Y-85700798D02*
X149758701Y-84440297D01*
X155915024Y-76342620D02*
X155490011Y-75917607D01*
X155915024Y-78200676D02*
X155915024Y-76342620D01*
X154820000Y-101680000D02*
X155119999Y-101979999D01*
X165850000Y-107720000D02*
X166850000Y-108720000D01*
X155119999Y-101979999D02*
X155119999Y-102545001D01*
X155119999Y-102545001D02*
X160294998Y-107720000D01*
X160294998Y-107720000D02*
X165850000Y-107720000D01*
X166850000Y-108720000D02*
X166850000Y-112370000D01*
X166850000Y-112370000D02*
X165200000Y-114020000D01*
X148390000Y-89660000D02*
X148390000Y-86850080D01*
X148390000Y-86850080D02*
X148498200Y-86741880D01*
X148740000Y-99680000D02*
X148740000Y-100400002D01*
X148740000Y-100400002D02*
X149564997Y-101224999D01*
X150570001Y-101224999D02*
X150625001Y-101279999D01*
X151964999Y-104256005D02*
X151964999Y-105080001D01*
X149564997Y-101224999D02*
X150570001Y-101224999D01*
X150625001Y-101279999D02*
X150625001Y-102916007D01*
X150625001Y-102916007D02*
X151964999Y-104256005D01*
X151964999Y-105080001D02*
X152294998Y-105410000D01*
X153119124Y-105410000D02*
X153415001Y-105705877D01*
X152294998Y-105410000D02*
X153119124Y-105410000D01*
X153415001Y-105705877D02*
X153415001Y-107014891D01*
X153415001Y-107014891D02*
X153880110Y-107480000D01*
X153880110Y-107480000D02*
X156050000Y-107480000D01*
X148610000Y-96895714D02*
X148610000Y-97319978D01*
X149060001Y-90984999D02*
X149249134Y-91174132D01*
X147534999Y-90984999D02*
X149060001Y-90984999D01*
X146360000Y-89660000D02*
X146360000Y-89810000D01*
X149249134Y-91174132D02*
X149249134Y-96256580D01*
X149249134Y-96256580D02*
X148610000Y-96895714D01*
X146360000Y-89810000D02*
X147534999Y-90984999D01*
X155090000Y-76083296D02*
X155090000Y-71341678D01*
X155515013Y-78034987D02*
X155515013Y-76508309D01*
X150399884Y-83150116D02*
X155515013Y-78034987D01*
X155090000Y-71341678D02*
X156241700Y-70189978D01*
X150399884Y-83687696D02*
X150399884Y-83150116D01*
X160360000Y-66428600D02*
X160360000Y-65730000D01*
X156598622Y-70189978D02*
X160360000Y-66428600D01*
X156241700Y-70189978D02*
X156598622Y-70189978D01*
X148924988Y-84708310D02*
X149593012Y-84040286D01*
X146741770Y-84708310D02*
X148924988Y-84708310D01*
X145958200Y-85491880D02*
X146741770Y-84708310D01*
X145958200Y-86741880D02*
X145958200Y-85491880D01*
X149593012Y-84040286D02*
X150047294Y-84040286D01*
X150047294Y-84040286D02*
X150399884Y-83687696D01*
X155515013Y-76508309D02*
X155090000Y-76083296D01*
X145958200Y-86741880D02*
X145958200Y-89258200D01*
X145958200Y-89258200D02*
X146360000Y-89660000D01*
X139570000Y-63190000D02*
X141410000Y-63190000D01*
X141410000Y-63190000D02*
X141420000Y-63200000D01*
X140440000Y-61990000D02*
X140440000Y-62220000D01*
X140440000Y-62220000D02*
X141420000Y-63200000D01*
X134940000Y-96290000D02*
X134000000Y-97230000D01*
X134000000Y-97230000D02*
X133330000Y-97230000D01*
X151199991Y-92317385D02*
X151608688Y-91908688D01*
X151199991Y-96319991D02*
X151199991Y-92317385D01*
X152560000Y-97680000D02*
X151199991Y-96319991D01*
X154825476Y-103406178D02*
X154825476Y-103923497D01*
X152560000Y-97680000D02*
X152560000Y-98104264D01*
X152560000Y-98104264D02*
X152825001Y-98369265D01*
X152825001Y-101405703D02*
X154825476Y-103406178D01*
X152825001Y-98369265D02*
X152825001Y-101405703D01*
X144696200Y-86757880D02*
X144696200Y-85507880D01*
X146105478Y-84098602D02*
X148038124Y-84098602D01*
X144696200Y-85507880D02*
X146105478Y-84098602D01*
X155510000Y-103525002D02*
X155510000Y-104260000D01*
X153225012Y-101095012D02*
X153424999Y-101294999D01*
X153424999Y-101294999D02*
X153424999Y-101440001D01*
X153424999Y-101440001D02*
X155510000Y-103525002D01*
X151658992Y-95888992D02*
X153225012Y-97455012D01*
X153225012Y-97455012D02*
X153225012Y-101095012D01*
X151658992Y-93754980D02*
X151658992Y-95888992D01*
X152310000Y-92390000D02*
X152010001Y-92689999D01*
X152010001Y-92689999D02*
X152010001Y-93403970D01*
X152010001Y-93403970D02*
X151658992Y-93754980D01*
X148240000Y-83420000D02*
X148310000Y-83350000D01*
X145490080Y-83420000D02*
X148240000Y-83420000D01*
X143418200Y-86741880D02*
X143418200Y-85491880D01*
X143418200Y-85491880D02*
X145490080Y-83420000D01*
X162530000Y-69540000D02*
X161980000Y-69540000D01*
X161980000Y-69540000D02*
X161530000Y-69990000D01*
X161530000Y-70458234D02*
X158692354Y-73295880D01*
X161530000Y-69990000D02*
X161530000Y-70458234D01*
X158692354Y-73295880D02*
X157622200Y-73295880D01*
X149776200Y-88246979D02*
X149983017Y-88453796D01*
X149776200Y-86757880D02*
X149776200Y-88246979D01*
X157622200Y-82185880D02*
X158872200Y-82185880D01*
X158872200Y-82185880D02*
X159926320Y-83240000D01*
X159926320Y-83240000D02*
X162650000Y-83240000D01*
X151233119Y-88016881D02*
X151758201Y-88016881D01*
X152316200Y-87458882D02*
X152316200Y-86757880D01*
X151758201Y-88016881D02*
X152316200Y-87458882D01*
X149890000Y-89360000D02*
X151233119Y-88016881D01*
X149910000Y-85140000D02*
X150686320Y-85140000D01*
X150686320Y-85140000D02*
X151038200Y-85491880D01*
X151038200Y-85491880D02*
X151038200Y-86741880D01*
X154173406Y-71479494D02*
X154173406Y-75732402D01*
X156118200Y-69534700D02*
X154173406Y-71479494D01*
X156118200Y-68707880D02*
X156118200Y-69534700D01*
X154544790Y-78081825D02*
X154120526Y-78081825D01*
X154173406Y-75732402D02*
X155115002Y-76673998D01*
X155115002Y-76673998D02*
X155115002Y-77511613D01*
X155115002Y-77511613D02*
X154544790Y-78081825D01*
X153540000Y-70820000D02*
X153540000Y-68746080D01*
X153540000Y-68746080D02*
X153578200Y-68707880D01*
X149851985Y-72021985D02*
X153510000Y-75680000D01*
X153510000Y-75680000D02*
X153510000Y-76374990D01*
X149599524Y-70150556D02*
X149500556Y-70150556D01*
X149776200Y-68723880D02*
X149776200Y-69973880D01*
X149776200Y-69973880D02*
X149599524Y-70150556D01*
X148440000Y-68766080D02*
X148498200Y-68707880D01*
X148440000Y-70690000D02*
X148440000Y-68766080D01*
X149517022Y-98915013D02*
X150469018Y-98915013D01*
X155230761Y-91290595D02*
X157039978Y-89481378D01*
X157039978Y-89481378D02*
X157039978Y-88765887D01*
X151413594Y-91290595D02*
X155230761Y-91290595D01*
X150784657Y-91875697D02*
X150828492Y-91875697D01*
X150828492Y-91875697D02*
X151413594Y-91290595D01*
X157039978Y-88765887D02*
X156865342Y-88591251D01*
X151114544Y-98269487D02*
X151114544Y-97627444D01*
X147583375Y-99044999D02*
X149387036Y-99044999D01*
X151114544Y-97627444D02*
X150224146Y-96737046D01*
X150224146Y-96737046D02*
X150224146Y-92950389D01*
X149387036Y-99044999D02*
X149517022Y-98915013D01*
X150469018Y-98915013D02*
X151114544Y-98269487D01*
X145638376Y-97100000D02*
X147583375Y-99044999D01*
X144200000Y-97100000D02*
X145638376Y-97100000D01*
X162400000Y-85850000D02*
X160490000Y-85850000D01*
X160490000Y-85850000D02*
X158800000Y-87540000D01*
X162400000Y-85850000D02*
X165100000Y-85850000D01*
X129655000Y-125965000D02*
X129455000Y-125965000D01*
X129455000Y-125965000D02*
X127980000Y-124490000D01*
X127980000Y-124490000D02*
X127540000Y-124490000D01*
X157910000Y-87616704D02*
X157910000Y-90450000D01*
X158600000Y-86926704D02*
X157910000Y-87616704D01*
X158600000Y-84830000D02*
X158600000Y-86926704D01*
X157200000Y-100120000D02*
X158155002Y-100120000D01*
X158155002Y-100120000D02*
X159204999Y-101169997D01*
X159204999Y-101169997D02*
X159204999Y-102150001D01*
X159204999Y-102150001D02*
X159674998Y-102620000D01*
X159674998Y-102620000D02*
X160300000Y-102620000D01*
X156118200Y-86741880D02*
X156118200Y-85581800D01*
X156118200Y-85581800D02*
X156690000Y-85010000D01*
X156481002Y-122790000D02*
X146960000Y-122790000D01*
X157885001Y-121386001D02*
X156481002Y-122790000D01*
X157885001Y-121334999D02*
X157885001Y-121386001D01*
X162660000Y-116560000D02*
X157885001Y-121334999D01*
X129655000Y-125965000D02*
X129855000Y-125965000D01*
X131330000Y-124490000D02*
X131640000Y-124490000D01*
X129855000Y-125965000D02*
X131330000Y-124490000D01*
X144025000Y-125725000D02*
X143825000Y-125725000D01*
X143825000Y-125725000D02*
X142400000Y-124300000D01*
X142400000Y-124300000D02*
X141970000Y-124300000D01*
X146070000Y-124300000D02*
X157460000Y-124300000D01*
X144025000Y-125725000D02*
X144595000Y-125725000D01*
X144595000Y-125725000D02*
X146020000Y-124300000D01*
X146020000Y-124300000D02*
X146070000Y-124300000D01*
X154856200Y-68723880D02*
X154856200Y-67473880D01*
X167960000Y-84450000D02*
X168480000Y-84970000D01*
X154856200Y-67473880D02*
X157485078Y-64845002D01*
X157485078Y-64845002D02*
X160394998Y-64845002D01*
X164435002Y-63180000D02*
X167960000Y-66704998D01*
X160394998Y-64845002D02*
X160660000Y-64580000D01*
X160660000Y-64580000D02*
X161820000Y-64580000D01*
X161820000Y-64580000D02*
X163040000Y-63360000D01*
X163040000Y-63360000D02*
X163040000Y-63180000D01*
X163040000Y-63180000D02*
X164435002Y-63180000D01*
X163785001Y-117974999D02*
X162660000Y-119100000D01*
X167960000Y-66704998D02*
X167960000Y-84450000D01*
X168480000Y-84970000D02*
X168480000Y-114945002D01*
X168480000Y-114945002D02*
X165450003Y-117974999D01*
X165450003Y-117974999D02*
X163785001Y-117974999D01*
X162660000Y-119100000D02*
X157460000Y-124300000D01*
X144025000Y-124225000D02*
X144025000Y-122805000D01*
X144025000Y-122805000D02*
X142410000Y-121190000D01*
X129655000Y-124465000D02*
X129655000Y-123135000D01*
X129655000Y-123135000D02*
X128000000Y-121480000D01*
D48*
X158510000Y-99180000D02*
X158510000Y-98570000D01*
X158510000Y-98570000D02*
X160710000Y-96370000D01*
X156340000Y-98830000D02*
X158160000Y-98830000D01*
X158160000Y-98830000D02*
X158510000Y-99180000D01*
X163380000Y-95310000D02*
X162320000Y-96370000D01*
X162320000Y-96370000D02*
X160710000Y-96370000D01*
D46*
X131035000Y-98270000D02*
X131325102Y-97979898D01*
X130410000Y-98270000D02*
X131035000Y-98270000D01*
X131325102Y-97979898D02*
X131325102Y-97895010D01*
X129670000Y-97885000D02*
X129670000Y-102270000D01*
X129670000Y-102270000D02*
X137750000Y-110350000D01*
X130410000Y-97770000D02*
X129785000Y-97770000D01*
X129785000Y-97770000D02*
X129670000Y-97885000D01*
X161300000Y-87610000D02*
X162260000Y-87610000D01*
X162260000Y-87610000D02*
X162400000Y-87750000D01*
X163260000Y-77910000D02*
X163130000Y-77910000D01*
X163130000Y-77910000D02*
X162230000Y-78810000D01*
X163230000Y-74730000D02*
X163080000Y-74730000D01*
X163080000Y-74730000D02*
X162410000Y-75400000D01*
X162410000Y-77210000D02*
X163110000Y-77910000D01*
X163110000Y-77910000D02*
X163260000Y-77910000D01*
X162410000Y-75400000D02*
X162410000Y-77210000D01*
X142156200Y-76326200D02*
X142156200Y-86757880D01*
X137950000Y-72120000D02*
X142156200Y-76326200D01*
X137950000Y-67977700D02*
X137950000Y-72120000D01*
X138607700Y-67320000D02*
X137950000Y-67977700D01*
X139650000Y-67320000D02*
X138607700Y-67320000D01*
X141420000Y-65550000D02*
X139650000Y-67320000D01*
X141420000Y-65400000D02*
X141420000Y-65550000D01*
X140945002Y-90440000D02*
X139480000Y-90440000D01*
X139480000Y-90440000D02*
X135150000Y-94770000D01*
X142156200Y-86757880D02*
X142156200Y-87626198D01*
X142156200Y-87626198D02*
X141395001Y-88387397D01*
X141395001Y-88387397D02*
X141395001Y-89990001D01*
X141395001Y-89990001D02*
X140945002Y-90440000D01*
X133650000Y-95490000D02*
X133330000Y-95810000D01*
X133330000Y-95810000D02*
X133330000Y-96730000D01*
X134020324Y-95490000D02*
X133650000Y-95490000D01*
X134242858Y-94843202D02*
X134242858Y-95267466D01*
X134242858Y-95267466D02*
X134020324Y-95490000D01*
X153766039Y-104925515D02*
X153766039Y-103996079D01*
X144482620Y-70964976D02*
X143857596Y-71590000D01*
X149183989Y-71280311D02*
X146162715Y-71280311D01*
X143857596Y-71590000D02*
X138770000Y-71590000D01*
X151038200Y-68707880D02*
X151038200Y-69426100D01*
X151038200Y-69426100D02*
X149183989Y-71280311D01*
X146162715Y-71280311D02*
X145847380Y-70964976D01*
X145847380Y-70964976D02*
X144482620Y-70964976D01*
X154065039Y-105224515D02*
X153766039Y-104925515D01*
X155057811Y-105224515D02*
X154065039Y-105224515D01*
X153766039Y-103996079D02*
X153870826Y-103891292D01*
X155068309Y-105235013D02*
X155057811Y-105224515D01*
X156112913Y-105235013D02*
X155068309Y-105235013D01*
X164074999Y-110065001D02*
X160942901Y-110065001D01*
X160942901Y-110065001D02*
X156112913Y-105235013D01*
X165200000Y-108940000D02*
X164074999Y-110065001D01*
X137240000Y-71630000D02*
X134150000Y-74720000D01*
X134150000Y-74720000D02*
X134150000Y-91600000D01*
M02*
