G04 #@! TF.FileFunction,Soldermask,Top*
%FSLAX46Y46*%
G04 Gerber Fmt 4.6, Leading zero omitted, Abs format (unit mm)*
G04 Created by KiCad (PCBNEW 4.0.7-e2-6376~58~ubuntu17.04.1) date Fri Nov 24 10:03:54 2017*
%MOMM*%
%LPD*%
G01*
G04 APERTURE LIST*
%ADD10C,0.100000*%
%ADD11R,1.200000X1.200000*%
%ADD12C,1.900000*%
%ADD13R,7.400000X3.400000*%
%ADD14R,3.400000X7.400000*%
%ADD15R,1.300000X1.400000*%
%ADD16R,1.600000X1.300000*%
%ADD17R,1.300000X1.600000*%
%ADD18R,1.700000X1.100000*%
%ADD19R,2.100000X2.100000*%
%ADD20O,2.100000X2.100000*%
%ADD21R,2.200000X2.200000*%
%ADD22C,2.200000*%
%ADD23R,1.000000X0.922000*%
%ADD24C,2.024000*%
%ADD25R,1.650000X0.850000*%
%ADD26R,2.000000X2.900000*%
%ADD27R,1.000000X0.850000*%
%ADD28R,0.850000X1.000000*%
%ADD29C,1.924000*%
%ADD30R,1.200000X2.200000*%
G04 APERTURE END LIST*
D10*
D11*
X138275000Y-117925000D03*
X138275000Y-116325000D03*
D12*
X147275000Y-109300000D03*
X147275000Y-116900000D03*
D13*
X147000000Y-81100000D03*
D14*
X139900000Y-88020000D03*
D13*
X147000000Y-95120000D03*
D14*
X153950000Y-88020000D03*
D11*
X156325000Y-112750000D03*
X156325000Y-114350000D03*
X137900000Y-111725000D03*
X137900000Y-110125000D03*
D15*
X158475000Y-115655000D03*
X160075000Y-115655000D03*
X158475000Y-111555000D03*
X160075000Y-111555000D03*
X135860000Y-108765000D03*
X134260000Y-108765000D03*
X135860000Y-112865000D03*
X134260000Y-112865000D03*
X135990000Y-115175000D03*
X134390000Y-115175000D03*
X135990000Y-119275000D03*
X134390000Y-119275000D03*
D16*
X148270000Y-90690000D03*
X146070000Y-90690000D03*
D17*
X143730000Y-89120000D03*
X143730000Y-86920000D03*
D16*
X148450000Y-85000000D03*
X146250000Y-85000000D03*
D18*
X148850000Y-86750000D03*
X148840000Y-87850000D03*
X148830000Y-88950000D03*
X145890000Y-87850000D03*
X145900000Y-86750000D03*
X145880000Y-88950000D03*
D19*
X156305000Y-124490000D03*
D20*
X156305000Y-121950000D03*
X153765000Y-124490000D03*
X153765000Y-121950000D03*
X151225000Y-124490000D03*
X151225000Y-121950000D03*
X148685000Y-124490000D03*
X148685000Y-121950000D03*
X146145000Y-124490000D03*
X146145000Y-121950000D03*
X143605000Y-124490000D03*
X143605000Y-121950000D03*
X141065000Y-124490000D03*
X141065000Y-121950000D03*
X138525000Y-124490000D03*
X138525000Y-121950000D03*
D21*
X157335000Y-64325000D03*
D22*
X159875000Y-64325000D03*
D23*
X141525000Y-63545000D03*
X140625000Y-63545000D03*
X139725000Y-63545000D03*
X139725000Y-62725000D03*
X141525000Y-62725000D03*
D24*
X140625000Y-61475000D03*
D25*
X137155000Y-59950000D03*
X137155000Y-58950000D03*
X137155000Y-57950000D03*
X133855000Y-58950000D03*
X133855000Y-59950000D03*
X133855000Y-57950000D03*
D26*
X135505000Y-58950000D03*
D27*
X136250000Y-63425000D03*
X136250000Y-62075000D03*
X137450000Y-62075000D03*
X137450000Y-63425000D03*
D28*
X136250000Y-63125000D03*
D29*
X149925000Y-63775000D03*
X146325000Y-60175000D03*
X149915000Y-60185000D03*
D30*
X160460000Y-60085000D03*
X159190000Y-60085000D03*
X156650000Y-60085000D03*
X157920000Y-60085000D03*
M02*
