G04 #@! TF.GenerationSoftware,KiCad,Pcbnew,no-vcs-found-9485a4d~59~ubuntu17.04.1*
G04 #@! TF.CreationDate,2017-08-14T14:34:54-05:00*
G04 #@! TF.ProjectId,liger,6C696765722E6B696361645F70636200,rev?*
G04 #@! TF.SameCoordinates,Original*
G04 #@! TF.FileFunction,Soldermask,Bot*
G04 #@! TF.FilePolarity,Negative*
%FSLAX46Y46*%
G04 Gerber Fmt 4.6, Leading zero omitted, Abs format (unit mm)*
G04 Created by KiCad (PCBNEW no-vcs-found-9485a4d~59~ubuntu17.04.1) date Mon Aug 14 14:34:54 2017*
%MOMM*%
%LPD*%
G01*
G04 APERTURE LIST*
%ADD10R,2.100000X2.100000*%
%ADD11O,2.100000X2.100000*%
%ADD12C,0.900000*%
%ADD13C,0.800000*%
%ADD14C,1.000000*%
%ADD15C,2.076000*%
%ADD16R,5.400000X7.400000*%
%ADD17R,7.400000X5.400000*%
%ADD18C,7.400000*%
%ADD19R,2.200000X2.200000*%
%ADD20C,2.200000*%
%ADD21C,1.900000*%
%ADD22C,1.924000*%
%ADD23R,1.700000X1.100000*%
G04 APERTURE END LIST*
D10*
X150450000Y-88200000D03*
D11*
X147910000Y-88200000D03*
X145370000Y-88200000D03*
D12*
X143550000Y-57870000D03*
X146050000Y-57870000D03*
D13*
X146025000Y-60070000D03*
D14*
X146050000Y-61270000D03*
X144800000Y-61270000D03*
X143550000Y-61270000D03*
X143600000Y-60070000D03*
D15*
X144826040Y-58680960D03*
D16*
X147228000Y-116394000D03*
D17*
X140128000Y-109474000D03*
D16*
X147228000Y-102374000D03*
D17*
X154178000Y-109474000D03*
D18*
X147684028Y-130516302D03*
X147684028Y-47458302D03*
D19*
X159860000Y-58340000D03*
D20*
X159860000Y-60880000D03*
D19*
X153290000Y-58410000D03*
D20*
X153290000Y-60950000D03*
D21*
X143780000Y-78200000D03*
X151380000Y-78200000D03*
D10*
X128880000Y-75990000D03*
D11*
X128880000Y-78530000D03*
X128880000Y-81070000D03*
X128880000Y-83610000D03*
X128880000Y-86150000D03*
X128880000Y-88690000D03*
X128880000Y-91230000D03*
X128880000Y-93770000D03*
X128880000Y-96310000D03*
X128880000Y-98850000D03*
X128880000Y-101390000D03*
X128880000Y-103930000D03*
X128880000Y-106470000D03*
X128880000Y-109010000D03*
X128880000Y-111550000D03*
X128880000Y-114090000D03*
X128880000Y-116630000D03*
X128880000Y-119170000D03*
X128880000Y-121710000D03*
X128880000Y-124250000D03*
D10*
X165890000Y-119430000D03*
D11*
X165890000Y-116890000D03*
X165890000Y-114350000D03*
X165890000Y-111810000D03*
X165890000Y-109270000D03*
X165890000Y-106730000D03*
X165890000Y-104190000D03*
X165890000Y-101650000D03*
X165890000Y-99110000D03*
X165890000Y-96570000D03*
X165890000Y-94030000D03*
X165890000Y-91490000D03*
X165890000Y-88950000D03*
X165890000Y-86410000D03*
X165890000Y-83870000D03*
X165890000Y-81330000D03*
X165890000Y-78790000D03*
X165890000Y-76250000D03*
X165890000Y-73710000D03*
X165890000Y-71170000D03*
D10*
X151410000Y-52850000D03*
D11*
X148870000Y-52850000D03*
X146330000Y-52850000D03*
X143790000Y-52850000D03*
D22*
X128220000Y-62230000D03*
X128220000Y-59690000D03*
X128220000Y-57150000D03*
D23*
X145820000Y-108488000D03*
X145830000Y-109588000D03*
X145840000Y-110688000D03*
X148780000Y-109588000D03*
X148770000Y-108488000D03*
X148790000Y-110688000D03*
D10*
X161036000Y-124714000D03*
D11*
X163576000Y-124714000D03*
X166116000Y-124714000D03*
M02*
