G04 #@! TF.FileFunction,Copper,L1,Top,Signal*
%FSLAX46Y46*%
G04 Gerber Fmt 4.6, Leading zero omitted, Abs format (unit mm)*
G04 Created by KiCad (PCBNEW 4.0.5+dfsg1-4) date Fri May 26 12:51:21 2017*
%MOMM*%
%LPD*%
G01*
G04 APERTURE LIST*
%ADD10C,0.100000*%
%ADD11R,1.800000X1.800000*%
%ADD12C,1.800000*%
%ADD13R,1.700000X1.700000*%
%ADD14O,1.700000X1.700000*%
%ADD15C,1.524000*%
%ADD16R,0.650000X1.060000*%
%ADD17R,0.900000X0.800000*%
%ADD18R,1.200000X0.900000*%
%ADD19R,0.900000X1.200000*%
%ADD20R,1.000000X2.000000*%
%ADD21R,2.000000X1.000000*%
%ADD22R,4.000000X4.000000*%
%ADD23R,0.750000X1.200000*%
%ADD24R,1.200000X0.750000*%
%ADD25R,0.800000X0.800000*%
%ADD26R,1.200000X1.200000*%
%ADD27C,1.200000*%
%ADD28R,1.000000X0.900000*%
%ADD29R,0.800000X0.900000*%
%ADD30C,7.000000*%
%ADD31C,1.500000*%
%ADD32R,1.060000X0.650000*%
%ADD33C,1.676000*%
%ADD34C,0.600000*%
%ADD35C,0.900000*%
%ADD36C,0.400000*%
%ADD37C,0.600000*%
%ADD38C,0.250000*%
%ADD39C,1.000000*%
G04 APERTURE END LIST*
D10*
D11*
X181090302Y-102322972D03*
D12*
X183630302Y-102322972D03*
D13*
X188946302Y-89322972D03*
D14*
X188946302Y-91862972D03*
X188946302Y-94402972D03*
X188946302Y-96942972D03*
D15*
X184146302Y-74522972D03*
X181606302Y-74522972D03*
X179066302Y-74522972D03*
D16*
X182296302Y-85122972D03*
X183246302Y-85122972D03*
X184196302Y-85122972D03*
X184196302Y-82922972D03*
X182296302Y-82922972D03*
D13*
X116946302Y-112522972D03*
D14*
X119486302Y-112522972D03*
X122026302Y-112522972D03*
X124566302Y-112522972D03*
X127106302Y-112522972D03*
X129646302Y-112522972D03*
X132186302Y-112522972D03*
X134726302Y-112522972D03*
X137266302Y-112522972D03*
X139806302Y-112522972D03*
X142346302Y-112522972D03*
X144886302Y-112522972D03*
X147426302Y-112522972D03*
X149966302Y-112522972D03*
X152506302Y-112522972D03*
X155046302Y-112522972D03*
X157586302Y-112522972D03*
X160126302Y-112522972D03*
X162666302Y-112522972D03*
X165206302Y-112522972D03*
D16*
X172666302Y-107754972D03*
X173616302Y-107754972D03*
X174566302Y-107754972D03*
X174566302Y-105554972D03*
X172666302Y-105554972D03*
D17*
X163846302Y-82272972D03*
X163846302Y-80372972D03*
X161846302Y-81322972D03*
D18*
X119138302Y-107514972D03*
X121338302Y-107514972D03*
D16*
X116132302Y-94886972D03*
X117082302Y-94886972D03*
X118032302Y-94886972D03*
X118032302Y-92686972D03*
X116132302Y-92686972D03*
D19*
X169914302Y-106824972D03*
X169914302Y-109024972D03*
D20*
X137254302Y-84372972D03*
X137226302Y-102406972D03*
D21*
X121760302Y-97834972D03*
X121760302Y-99104972D03*
X121760302Y-92754972D03*
X121760302Y-94024972D03*
X121760302Y-96564972D03*
X121760302Y-95294972D03*
X121760302Y-90214972D03*
X121760302Y-91484972D03*
X121760302Y-88944972D03*
X121760302Y-87674972D03*
D20*
X139774302Y-102390972D03*
X138496302Y-102406972D03*
X134686302Y-102406972D03*
X135964302Y-102390972D03*
X130884302Y-102390972D03*
X129606302Y-102406972D03*
X132146302Y-102406972D03*
X133424302Y-102390972D03*
X123264302Y-102390972D03*
X125804302Y-102390972D03*
X124526302Y-102406972D03*
X127066302Y-102406972D03*
X128344302Y-102390972D03*
X128344302Y-84356972D03*
X127066302Y-84372972D03*
X124526302Y-84372972D03*
X125804302Y-84356972D03*
X123264302Y-84356972D03*
X133424302Y-84356972D03*
X132146302Y-84372972D03*
X129606302Y-84372972D03*
X130884302Y-84356972D03*
X135964302Y-84356972D03*
X134686302Y-84372972D03*
X138524302Y-84372972D03*
X139794302Y-84372972D03*
D22*
X131107502Y-92699092D03*
D19*
X179596302Y-83072972D03*
X179596302Y-85272972D03*
D23*
X182596302Y-87172972D03*
X182596302Y-89072972D03*
X180596302Y-87072972D03*
X180596302Y-88972972D03*
D24*
X118982302Y-97172972D03*
X117082302Y-97172972D03*
X115304302Y-89298972D03*
X117204302Y-89298972D03*
X163746302Y-78372972D03*
X165646302Y-78372972D03*
D23*
X164346302Y-92572972D03*
X164346302Y-94472972D03*
X172962302Y-96786972D03*
X172962302Y-94886972D03*
X167120302Y-102130972D03*
X167120302Y-104030972D03*
D25*
X179446302Y-81322972D03*
X177846302Y-81322972D03*
D13*
X165816302Y-74347972D03*
D14*
X163276302Y-74347972D03*
X160736302Y-74347972D03*
X158196302Y-74347972D03*
X155656302Y-74347972D03*
X153116302Y-74347972D03*
X150576302Y-74347972D03*
X148036302Y-74347972D03*
X145496302Y-74347972D03*
X142956302Y-74347972D03*
X140416302Y-74347972D03*
X137876302Y-74347972D03*
X135336302Y-74347972D03*
X132796302Y-74347972D03*
X130256302Y-74347972D03*
X127716302Y-74347972D03*
X125176302Y-74347972D03*
X122636302Y-74347972D03*
X120096302Y-74347972D03*
X117556302Y-74347972D03*
D26*
X115908702Y-105523772D03*
D27*
X115908702Y-109536972D03*
X115908702Y-107530372D03*
D28*
X166346302Y-81222972D03*
X166346302Y-82822972D03*
X170446302Y-81222972D03*
X170446302Y-82822972D03*
D29*
X180146302Y-113072972D03*
X182046302Y-113072972D03*
X181096302Y-111072972D03*
X175846302Y-83072972D03*
X173946302Y-83072972D03*
X174896302Y-85072972D03*
D18*
X119146302Y-101347972D03*
X116946302Y-101347972D03*
D19*
X184646302Y-77192972D03*
X184646302Y-79392972D03*
D18*
X177296302Y-113072972D03*
X175096302Y-113072972D03*
D19*
X183122302Y-97426972D03*
X183122302Y-99626972D03*
D18*
X188396302Y-83972972D03*
X186196302Y-83972972D03*
X186038302Y-81322972D03*
X188238302Y-81322972D03*
D19*
X185530302Y-88174972D03*
X185530302Y-85974972D03*
X158738302Y-102592972D03*
X158738302Y-104792972D03*
D18*
X116921302Y-99572972D03*
X119121302Y-99572972D03*
X117021302Y-103297972D03*
X119221302Y-103297972D03*
D19*
X115304302Y-86504972D03*
X115304302Y-84304972D03*
D18*
X171546302Y-85072972D03*
X169346302Y-85072972D03*
X173646302Y-81322972D03*
X175846302Y-81322972D03*
X157346302Y-81322972D03*
X159546302Y-81322972D03*
D19*
X177026302Y-106316972D03*
X177026302Y-108516972D03*
X178550302Y-102252972D03*
X178550302Y-104452972D03*
X174740302Y-94548972D03*
X174740302Y-96748972D03*
X170930302Y-97172972D03*
X170930302Y-94972972D03*
D18*
X169492302Y-104030972D03*
X171692302Y-104030972D03*
X169660302Y-101998972D03*
X171860302Y-101998972D03*
D19*
X151880302Y-79392972D03*
X151880302Y-81592972D03*
X151626302Y-87434972D03*
X151626302Y-85234972D03*
D11*
X180946302Y-107122972D03*
D12*
X183486302Y-107122972D03*
D30*
X194524302Y-93361972D03*
X111466302Y-93361972D03*
D13*
X156746302Y-90722972D03*
D14*
X156746302Y-93262972D03*
X156746302Y-95802972D03*
D31*
X168846302Y-97022972D03*
X168846302Y-89422972D03*
D32*
X176178302Y-103522972D03*
X176178302Y-102572972D03*
X176178302Y-101622972D03*
X173978302Y-101622972D03*
X173978302Y-103522972D03*
D33*
X183985342Y-92999012D03*
D34*
X174046302Y-77872972D03*
D35*
X176596302Y-94472972D03*
X177496302Y-95372972D03*
X178296302Y-96172972D03*
X188070302Y-79878972D03*
X183496302Y-95772972D03*
X184846302Y-98822972D03*
X177467551Y-100916221D03*
X173978302Y-109872972D03*
X178384698Y-107765074D03*
X117252215Y-96013124D03*
X117336302Y-85742972D03*
X117904587Y-100449781D03*
X162294302Y-78630972D03*
X168396302Y-83522972D03*
X183376302Y-113428972D03*
X183630302Y-87520972D03*
X183590954Y-86348607D03*
X148324302Y-93362972D03*
X135207624Y-93271650D03*
X142228302Y-104284972D03*
X121400302Y-82948972D03*
X141150302Y-83638972D03*
X151564302Y-88718972D03*
X174678302Y-93290972D03*
X163248302Y-94814972D03*
D34*
X182596302Y-90572972D03*
X180774302Y-90242972D03*
X128346302Y-100972972D03*
X184646302Y-80916972D03*
D35*
X179746302Y-104422972D03*
D34*
X119306302Y-94306972D03*
X144452302Y-95830972D03*
X186421302Y-87047972D03*
X188324302Y-86736972D03*
X116512302Y-84400972D03*
X172962302Y-98442972D03*
X170592300Y-103776972D03*
X172900302Y-93036972D03*
X138721302Y-89222972D03*
X139621302Y-98747972D03*
X124846302Y-97072972D03*
X124546302Y-87197972D03*
X120196302Y-95322972D03*
X120121302Y-96722972D03*
X157914302Y-105990972D03*
X181536302Y-86432972D03*
X128496302Y-96697972D03*
X120896302Y-101347972D03*
X140318302Y-81402972D03*
X169344302Y-80082972D03*
X140196302Y-108797972D03*
X140146302Y-107747972D03*
D35*
X181346302Y-83772972D03*
D34*
X117336302Y-90822972D03*
X114288302Y-87520972D03*
X117782302Y-107006972D03*
X138102302Y-86178972D03*
X181346302Y-95322972D03*
D36*
X177496302Y-95372972D02*
X176596302Y-94472972D01*
X178296302Y-96172972D02*
X177496302Y-95372972D01*
X182172301Y-100098971D02*
X178296302Y-96222972D01*
X178296302Y-96222972D02*
X178296302Y-96172972D01*
X183630302Y-102322972D02*
X182172301Y-100864971D01*
X182172301Y-100864971D02*
X182172301Y-100098971D01*
X188238302Y-81322972D02*
X188238302Y-80046972D01*
X188238302Y-80046972D02*
X188070302Y-79878972D01*
X170446302Y-82822972D02*
X169096302Y-82822972D01*
X169096302Y-82822972D02*
X168396302Y-83522972D01*
X166346302Y-82822972D02*
X167696302Y-82822972D01*
X167696302Y-82822972D02*
X168396302Y-83522972D01*
X188946302Y-96942972D02*
X186726302Y-96942972D01*
X186726302Y-96942972D02*
X184846302Y-98822972D01*
X176178302Y-102572972D02*
X177108302Y-102572972D01*
X177467551Y-102213723D02*
X177467551Y-100916221D01*
X177108302Y-102572972D02*
X177467551Y-102213723D01*
X173616302Y-107754972D02*
X173616302Y-109510972D01*
X173616302Y-109510972D02*
X173978302Y-109872972D01*
X177026302Y-108516972D02*
X177632800Y-108516972D01*
X177632800Y-108516972D02*
X178384698Y-107765074D01*
X117082302Y-97172972D02*
X117082302Y-96183037D01*
X117082302Y-96183037D02*
X117252215Y-96013124D01*
X117082302Y-94886972D02*
X117082302Y-95843211D01*
X117082302Y-95843211D02*
X117252215Y-96013124D01*
X117082302Y-97172972D02*
X117082302Y-99411972D01*
X117082302Y-99411972D02*
X116921302Y-99572972D01*
X117204302Y-89298972D02*
X117204302Y-85874972D01*
X117204302Y-85874972D02*
X117336302Y-85742972D01*
X116946302Y-101347972D02*
X116946302Y-103222972D01*
X116946302Y-103222972D02*
X117021302Y-103297972D01*
X117021302Y-103297972D02*
X117021302Y-104411172D01*
X116946302Y-101347972D02*
X117006396Y-101347972D01*
X117006396Y-101347972D02*
X117904587Y-100449781D01*
X116921302Y-99572972D02*
X117027778Y-99572972D01*
X117027778Y-99572972D02*
X117904587Y-100449781D01*
X116946302Y-99597972D02*
X116921302Y-99572972D01*
D37*
X163746302Y-78372972D02*
X162552302Y-78372972D01*
X162552302Y-78372972D02*
X162294302Y-78630972D01*
X163846302Y-80372972D02*
X163846302Y-78472972D01*
X163846302Y-78472972D02*
X163746302Y-78372972D01*
X163746302Y-78372972D02*
X163746302Y-74817972D01*
X163746302Y-74817972D02*
X163276302Y-74347972D01*
D36*
X163846302Y-80372972D02*
X163846302Y-80172972D01*
X163846302Y-80372972D02*
X163846302Y-80409645D01*
X182046302Y-113072972D02*
X183020302Y-113072972D01*
X183020302Y-113072972D02*
X183376302Y-113428972D01*
X182596302Y-87172972D02*
X183282302Y-87172972D01*
X183282302Y-87172972D02*
X183630302Y-87520972D01*
X183246302Y-85122972D02*
X183246302Y-86003955D01*
X183246302Y-86003955D02*
X183590954Y-86348607D01*
X117021302Y-104411172D02*
X115908702Y-105523772D01*
X117021302Y-101422972D02*
X116946302Y-101347972D01*
X131107502Y-92699092D02*
X134635066Y-92699092D01*
X134635066Y-92699092D02*
X135207624Y-93271650D01*
X139774302Y-102390972D02*
X140334302Y-102390972D01*
X140334302Y-102390972D02*
X142228302Y-104284972D01*
X121760302Y-87674972D02*
X121760302Y-83308972D01*
X121760302Y-83308972D02*
X121400302Y-82948972D01*
X139774302Y-102390972D02*
X139774302Y-101893785D01*
X139794302Y-84372972D02*
X140416302Y-84372972D01*
X140416302Y-84372972D02*
X141150302Y-83638972D01*
X151626302Y-87434972D02*
X151626302Y-88656972D01*
X151626302Y-88656972D02*
X151564302Y-88718972D01*
X174740302Y-94548972D02*
X174740302Y-93352972D01*
X174740302Y-93352972D02*
X174678302Y-93290972D01*
X164346302Y-94472972D02*
X163590302Y-94472972D01*
X163590302Y-94472972D02*
X163248302Y-94814972D01*
X182596302Y-89072972D02*
X182596302Y-90572972D01*
X180774302Y-90242972D02*
X180774302Y-89150972D01*
X180774302Y-89150972D02*
X180596302Y-88972972D01*
X177846302Y-81322972D02*
X177846302Y-82642974D01*
X177846302Y-82642974D02*
X176266305Y-84222971D01*
X176266305Y-84222971D02*
X175046301Y-84222971D01*
X175046301Y-84222971D02*
X173946302Y-83122972D01*
X173946302Y-83122972D02*
X173946302Y-83072972D01*
X173646302Y-81322972D02*
X173646302Y-82772972D01*
X173646302Y-82772972D02*
X173946302Y-83072972D01*
X157346302Y-81322972D02*
X157346302Y-82172972D01*
X157346302Y-82172972D02*
X153184303Y-86334971D01*
X153184303Y-86334971D02*
X146084303Y-86334971D01*
X146084303Y-86334971D02*
X140774303Y-91644971D01*
X123264302Y-100893970D02*
X123264302Y-102390972D01*
X140774303Y-91644971D02*
X140774303Y-98630973D01*
X140774303Y-98630973D02*
X139957303Y-99447973D01*
X129023777Y-95997971D02*
X128160301Y-95997971D01*
X139957303Y-99447973D02*
X132473779Y-99447973D01*
X132473779Y-99447973D02*
X129023777Y-95997971D01*
X128160301Y-95997971D02*
X123264302Y-100893970D01*
X123257302Y-102388372D02*
X123257302Y-108673972D01*
X123257302Y-108673972D02*
X127106302Y-112522972D01*
X121338302Y-107514972D02*
X121338302Y-102073448D01*
X121338302Y-109294972D02*
X121338302Y-107514972D01*
X121338302Y-102073448D02*
X121760302Y-101651448D01*
X121760302Y-101651448D02*
X121760302Y-99104972D01*
X124566302Y-112522972D02*
X121338302Y-109294972D01*
X121760302Y-99104972D02*
X121760302Y-99218972D01*
X121967302Y-98897972D02*
X121760302Y-99104972D01*
D38*
X115908702Y-107530372D02*
X117033702Y-107530372D01*
X117033702Y-107530372D02*
X122026302Y-112522972D01*
X121753302Y-97832372D02*
X120503302Y-97832372D01*
X120503302Y-97832372D02*
X120046303Y-98289371D01*
X120046303Y-98289371D02*
X120046303Y-100597971D01*
X120046303Y-100597971D02*
X119296302Y-101347972D01*
X119296302Y-101347972D02*
X119146302Y-101347972D01*
X115908702Y-107530372D02*
X118046303Y-105392771D01*
X118046303Y-105392771D02*
X118046303Y-102297971D01*
X118046303Y-102297971D02*
X118996302Y-101347972D01*
X118996302Y-101347972D02*
X119146302Y-101347972D01*
D39*
X121712702Y-97872972D02*
X121753302Y-97832372D01*
D36*
X188946302Y-94402972D02*
X189796301Y-93552973D01*
X189796301Y-93552973D02*
X189796301Y-92862975D01*
X189796301Y-92862975D02*
X190896313Y-91762963D01*
X190896313Y-91762963D02*
X190896313Y-78415258D01*
X190896313Y-78415258D02*
X184942016Y-72460961D01*
X184942016Y-72460961D02*
X129603313Y-72460961D01*
X129603313Y-72460961D02*
X127716302Y-74347972D01*
D38*
X121760302Y-88944972D02*
X123010302Y-88944972D01*
X123010302Y-88944972D02*
X123185303Y-88769971D01*
X123185303Y-88769971D02*
X123185303Y-86362975D01*
X122439301Y-79624973D02*
X127716302Y-74347972D01*
X123185303Y-86362975D02*
X122439301Y-85616973D01*
X122439301Y-85616973D02*
X122439301Y-79624973D01*
X128346302Y-100972972D02*
X128346302Y-102379372D01*
X128346302Y-102379372D02*
X128337302Y-102388372D01*
D36*
X128337302Y-102388372D02*
X128337302Y-103788372D01*
X137071902Y-112522972D02*
X137266302Y-112522972D01*
X128337302Y-103788372D02*
X137071902Y-112522972D01*
X184646302Y-79392972D02*
X184646302Y-80916972D01*
X124519302Y-102404372D02*
X124519302Y-107395972D01*
X124519302Y-107395972D02*
X129646302Y-112522972D01*
X161846302Y-81322972D02*
X159546302Y-81322972D01*
X184646302Y-77192972D02*
X184646302Y-75022972D01*
X184646302Y-75022972D02*
X184146302Y-74522972D01*
X184296302Y-74672972D02*
X184146302Y-74522972D01*
X180596302Y-87072972D02*
X180596302Y-86272972D01*
X180596302Y-86272972D02*
X179596302Y-85272972D01*
X165046302Y-81122972D02*
X163896302Y-82272972D01*
X165046302Y-79772972D02*
X165046302Y-81122972D01*
X163846302Y-83072972D02*
X163846302Y-82272972D01*
X165846302Y-85072972D02*
X163846302Y-83072972D01*
X163896302Y-82272972D02*
X163846302Y-82272972D01*
X165646302Y-79172972D02*
X165046302Y-79772972D01*
X165646302Y-78372972D02*
X165646302Y-79172972D01*
X169346302Y-85072972D02*
X165846302Y-85072972D01*
D37*
X178550302Y-104452972D02*
X179716302Y-104452972D01*
X179716302Y-104452972D02*
X179746302Y-104422972D01*
X178580302Y-104422972D02*
X178550302Y-104452972D01*
X172666302Y-105554972D02*
X167094302Y-105554972D01*
X167094302Y-105554972D02*
X160126302Y-112522972D01*
X171692302Y-104030972D02*
X171692302Y-104580972D01*
X171692302Y-104580972D02*
X172666302Y-105554972D01*
X116132302Y-94886972D02*
X116132302Y-93901970D01*
X116132302Y-93901970D02*
X116277313Y-93756960D01*
X116277313Y-93756960D02*
X118032302Y-93756972D01*
X118032302Y-93756972D02*
X118032302Y-94886972D01*
X173978302Y-103522972D02*
X174908302Y-104452972D01*
X174908302Y-104452972D02*
X178550302Y-104452972D01*
X173978302Y-103522972D02*
X172200302Y-103522972D01*
X172200302Y-103522972D02*
X171692302Y-104030972D01*
X119306302Y-94306972D02*
X118612302Y-94306972D01*
X118612302Y-94306972D02*
X118032302Y-94886972D01*
X156746302Y-95802972D02*
X144480302Y-95802972D01*
X144480302Y-95802972D02*
X144452302Y-95830972D01*
X116132302Y-94886972D02*
X115932302Y-94886972D01*
X115932302Y-94886972D02*
X114708701Y-96110573D01*
X114708701Y-96110573D02*
X114708701Y-108336971D01*
X114708701Y-108336971D02*
X115908702Y-109536972D01*
X118982302Y-97172972D02*
X118982302Y-95836972D01*
X118982302Y-95836972D02*
X118032302Y-94886972D01*
X118982302Y-97172972D02*
X118982302Y-99433972D01*
X118982302Y-99433972D02*
X119121302Y-99572972D01*
X179066302Y-74522972D02*
X179066302Y-80942972D01*
X179066302Y-80942972D02*
X179446302Y-81322972D01*
X188946302Y-89322972D02*
X188946302Y-87872972D01*
X188946302Y-87872972D02*
X190196303Y-86622971D01*
X190196303Y-86622971D02*
X190196303Y-78705211D01*
X190196303Y-78705211D02*
X184652063Y-73160971D01*
X184652063Y-73160971D02*
X180428303Y-73160971D01*
X180428303Y-73160971D02*
X179066302Y-74522972D01*
X156746302Y-95802972D02*
X156746302Y-111682972D01*
X156746302Y-111682972D02*
X157586302Y-112522972D01*
D39*
X160126302Y-112522972D02*
X157586302Y-112522972D01*
D36*
X180146302Y-113072972D02*
X177296302Y-113072972D01*
X181096302Y-111072972D02*
X181096302Y-107272972D01*
X181096302Y-107272972D02*
X180946302Y-107122972D01*
X174896302Y-85072972D02*
X171546302Y-85072972D01*
X172346302Y-114822972D02*
X137026302Y-114822972D01*
X137026302Y-114822972D02*
X134726302Y-112522972D01*
X175096302Y-113072972D02*
X174096302Y-113072972D01*
X174096302Y-113072972D02*
X172346302Y-114822972D01*
X127059302Y-102404372D02*
X127059302Y-104855972D01*
X127059302Y-104855972D02*
X134726302Y-112522972D01*
X183122302Y-99626972D02*
X183122302Y-99776972D01*
X186594767Y-103249437D02*
X186594767Y-105287299D01*
X183122302Y-99776972D02*
X186594767Y-103249437D01*
X186594767Y-105287299D02*
X184759094Y-107122972D01*
X184759094Y-107122972D02*
X183486302Y-107122972D01*
X183586302Y-107022972D02*
X183486302Y-107122972D01*
X185530302Y-85974972D02*
X185530302Y-86156972D01*
X185530302Y-86156972D02*
X186421302Y-87047972D01*
X188324302Y-86736972D02*
X188324302Y-84044972D01*
X188324302Y-84044972D02*
X188396302Y-83972972D01*
X185530302Y-85974972D02*
X185530302Y-86366518D01*
X186038302Y-81322972D02*
X186038302Y-81614972D01*
X186038302Y-81614972D02*
X188396302Y-83972972D01*
X188396302Y-83972972D02*
X188396302Y-84210972D01*
X184196302Y-85122972D02*
X184196302Y-85547953D01*
X184196302Y-85547953D02*
X184680301Y-86031952D01*
X184680301Y-86031952D02*
X184680302Y-87174972D01*
X184680302Y-87174972D02*
X185530302Y-88024972D01*
X185530302Y-88024972D02*
X185530302Y-88174972D01*
X184196302Y-82717972D02*
X183085302Y-81606972D01*
X183085302Y-81606972D02*
X181912302Y-81606972D01*
X158738302Y-102592972D02*
X158738302Y-96485970D01*
X178318340Y-83072972D02*
X179596302Y-83072972D01*
X158738302Y-96485970D02*
X169301299Y-85922973D01*
X169301299Y-85922973D02*
X175468339Y-85922973D01*
X175468339Y-85922973D02*
X178318340Y-83072972D01*
X184196302Y-82922972D02*
X184196302Y-82717972D01*
X180446302Y-83072972D02*
X179596302Y-83072972D01*
X181912302Y-81606972D02*
X180446302Y-83072972D01*
X116512302Y-84400972D02*
X115400302Y-84400972D01*
X115400302Y-84400972D02*
X115304302Y-84304972D01*
X170930302Y-94972972D02*
X166746302Y-94972972D01*
X166746302Y-94972972D02*
X164346302Y-92572972D01*
X172962302Y-98442972D02*
X172962302Y-96786972D01*
X169492302Y-104030972D02*
X170338300Y-104030972D01*
X170338300Y-104030972D02*
X170592300Y-103776972D01*
X174740302Y-96748972D02*
X174740302Y-100389972D01*
X174740302Y-100389972D02*
X175973302Y-101622972D01*
X175973302Y-101622972D02*
X176178302Y-101622972D01*
X174740302Y-96748972D02*
X173000302Y-96748972D01*
X173000302Y-96748972D02*
X172962302Y-96786972D01*
X172962302Y-94886972D02*
X172962302Y-93098972D01*
X172962302Y-93098972D02*
X172900302Y-93036972D01*
X138441313Y-76322961D02*
X140416302Y-74347972D01*
X135436311Y-76322961D02*
X138441313Y-76322961D01*
X128344302Y-83414970D02*
X135436311Y-76322961D01*
X128344302Y-84356972D02*
X128344302Y-83414970D01*
X167120302Y-104030972D02*
X167120302Y-103805972D01*
X167120302Y-103805972D02*
X168077301Y-102848973D01*
X168077301Y-102848973D02*
X170860302Y-102848972D01*
X170860302Y-102848972D02*
X171710302Y-101998972D01*
X171710302Y-101998972D02*
X171860302Y-101998972D01*
X176178302Y-103522972D02*
X175553304Y-103522972D01*
X175553304Y-103522972D02*
X174378305Y-102347973D01*
X174378305Y-102347973D02*
X173209303Y-102347973D01*
X173209303Y-102347973D02*
X172860302Y-101998972D01*
X172860302Y-101998972D02*
X171860302Y-101998972D01*
X167162302Y-104072972D02*
X167120302Y-104030972D01*
X138934300Y-80472972D02*
X135964302Y-83442970D01*
X135964302Y-83442970D02*
X135964302Y-84356972D01*
X155656302Y-74347972D02*
X154806303Y-75197971D01*
X154806303Y-75197971D02*
X154305301Y-75197971D01*
X154305301Y-75197971D02*
X149030300Y-80472972D01*
X149030300Y-80472972D02*
X138934300Y-80472972D01*
X138253300Y-79847972D02*
X147616302Y-79847972D01*
X147616302Y-79847972D02*
X153116302Y-74347972D01*
X134686302Y-84372972D02*
X134686302Y-83414970D01*
X134686302Y-83414970D02*
X138253300Y-79847972D01*
X151880302Y-81592972D02*
X151030302Y-81592972D01*
X151030302Y-81592972D02*
X146888313Y-85734961D01*
X146888313Y-85734961D02*
X140794303Y-85734961D01*
X140794303Y-85734961D02*
X139650284Y-86878980D01*
X134546310Y-86878980D02*
X133424302Y-85756972D01*
X139650284Y-86878980D02*
X134546310Y-86878980D01*
X133424302Y-85756972D02*
X133424302Y-84356972D01*
X151626302Y-85234972D02*
X151626302Y-81846972D01*
X151626302Y-81846972D02*
X151880302Y-81592972D01*
X137666300Y-79172972D02*
X145751302Y-79172972D01*
X145751302Y-79172972D02*
X150576302Y-74347972D01*
X133424302Y-84356972D02*
X133424302Y-83414970D01*
X133424302Y-83414970D02*
X137666300Y-79172972D01*
X137088300Y-78472972D02*
X143911302Y-78472972D01*
X143911302Y-78472972D02*
X148036302Y-74347972D01*
X132146302Y-84372972D02*
X132146302Y-83414970D01*
X132146302Y-83414970D02*
X137088300Y-78472972D01*
X136576300Y-77722972D02*
X142121302Y-77722972D01*
X142121302Y-77722972D02*
X145496302Y-74347972D01*
X130884302Y-84356972D02*
X130884302Y-83414970D01*
X130884302Y-83414970D02*
X136576300Y-77722972D01*
D38*
X130877302Y-84354372D02*
X130877302Y-85604372D01*
X130877302Y-85604372D02*
X134495902Y-89222972D01*
X134495902Y-89222972D02*
X138721302Y-89222972D01*
D36*
X136098300Y-76922972D02*
X140381302Y-76922972D01*
X140381302Y-76922972D02*
X142956302Y-74347972D01*
X129606302Y-84372972D02*
X129606302Y-83414970D01*
X129606302Y-83414970D02*
X136098300Y-76922972D01*
D38*
X129606302Y-84372972D02*
X129606302Y-86432890D01*
X139621302Y-96447890D02*
X139621302Y-98747972D01*
X129606302Y-86432890D02*
X139621302Y-96447890D01*
D36*
X127066302Y-84372972D02*
X127066302Y-83414970D01*
X127066302Y-83414970D02*
X134883299Y-75597973D01*
X134883299Y-75597973D02*
X136626301Y-75597973D01*
X136626301Y-75597973D02*
X137876302Y-74347972D01*
D38*
X125804302Y-88864972D02*
X124846302Y-89822972D01*
X124846302Y-89822972D02*
X124846302Y-97072972D01*
X125804302Y-84356972D02*
X125804302Y-88864972D01*
D36*
X125804302Y-83414970D02*
X125804302Y-84356972D01*
X134871300Y-74347972D02*
X125804302Y-83414970D01*
X135336302Y-74347972D02*
X134871300Y-74347972D01*
X132796302Y-74347972D02*
X124526302Y-82617972D01*
X124526302Y-82617972D02*
X124526302Y-84372972D01*
D38*
X124519302Y-84370372D02*
X124519302Y-87170972D01*
X124519302Y-87170972D02*
X124546302Y-87197972D01*
D36*
X130256302Y-74347972D02*
X123264302Y-81339972D01*
X123264302Y-81339972D02*
X123264302Y-84356972D01*
X125176302Y-74347972D02*
X120360301Y-79163973D01*
X120360301Y-79163973D02*
X120360301Y-86674971D01*
X120260301Y-86774971D02*
X120260301Y-90114971D01*
X120360302Y-90214972D02*
X121760302Y-90214972D01*
X120360301Y-86674971D02*
X120260301Y-86774971D01*
X120260301Y-90114971D02*
X120360302Y-90214972D01*
X121760302Y-91484972D02*
X120360302Y-91484972D01*
X120360302Y-91484972D02*
X119660291Y-90784961D01*
X119660291Y-90784961D02*
X119660291Y-77323983D01*
X119660291Y-77323983D02*
X122636302Y-74347972D01*
X120240728Y-92537890D02*
X120240728Y-92213940D01*
X119060281Y-75383993D02*
X120096302Y-74347972D01*
X120240728Y-92213940D02*
X119060281Y-91033493D01*
X119060281Y-91033493D02*
X119060281Y-75383993D01*
X121760302Y-92754972D02*
X120457810Y-92754972D01*
X120457810Y-92754972D02*
X120240728Y-92537890D01*
X121760302Y-94024972D02*
X120879268Y-94024972D01*
X120879268Y-94024972D02*
X118460271Y-91605975D01*
X118460271Y-75251941D02*
X117556302Y-74347972D01*
X118460271Y-91605975D02*
X118460271Y-75251941D01*
D38*
X120196302Y-95322972D02*
X121722702Y-95322972D01*
X121722702Y-95322972D02*
X121753302Y-95292372D01*
X120121302Y-96722972D02*
X121592702Y-96722972D01*
X121592702Y-96722972D02*
X121753302Y-96562372D01*
D36*
X125797302Y-102388372D02*
X125797302Y-106133972D01*
X125797302Y-106133972D02*
X132186302Y-112522972D01*
X169914302Y-109024972D02*
X169914302Y-110024972D01*
X141156303Y-113872973D02*
X139806302Y-112522972D01*
X169914302Y-110024972D02*
X166066301Y-113872973D01*
X166066301Y-113872973D02*
X141156303Y-113872973D01*
X169914302Y-109024972D02*
X171396302Y-109024972D01*
X171396302Y-109024972D02*
X172666302Y-107754972D01*
X129599302Y-102404372D02*
X129599302Y-103330374D01*
X129599302Y-103330374D02*
X137541899Y-111272971D01*
X137541899Y-111272971D02*
X138556301Y-111272971D01*
X138556301Y-111272971D02*
X139806302Y-112522972D01*
X158738302Y-104792972D02*
X158738302Y-105166972D01*
X158738302Y-105166972D02*
X157914302Y-105990972D01*
X182296302Y-85122972D02*
X182296302Y-85672972D01*
X182296302Y-85672972D02*
X181536302Y-86432972D01*
X138062900Y-110547972D02*
X140371302Y-110547972D01*
X140371302Y-110547972D02*
X142346302Y-112522972D01*
X130877302Y-102388372D02*
X130877302Y-103362374D01*
X130877302Y-103362374D02*
X138062900Y-110547972D01*
D38*
X133424302Y-102390972D02*
X133424302Y-101140972D01*
X133424302Y-101140972D02*
X128981302Y-96697972D01*
X128981302Y-96697972D02*
X128496302Y-96697972D01*
X119221302Y-103297972D02*
X119371302Y-103297972D01*
X119371302Y-103297972D02*
X120896302Y-101772972D01*
X120896302Y-101772972D02*
X120896302Y-101347972D01*
D36*
X139351902Y-109722972D02*
X142086302Y-109722972D01*
X142086302Y-109722972D02*
X144886302Y-112522972D01*
X133417302Y-102388372D02*
X133417302Y-103788372D01*
X133417302Y-103788372D02*
X139351902Y-109722972D01*
X140779702Y-107356372D02*
X144696301Y-111272971D01*
X144696301Y-111272971D02*
X146176301Y-111272971D01*
X146176301Y-111272971D02*
X147426302Y-112522972D01*
X140771302Y-107356372D02*
X140779702Y-107356372D01*
X137219302Y-103804372D02*
X140771302Y-107356372D01*
X137219302Y-102404372D02*
X137219302Y-103804372D01*
X145221302Y-110547972D02*
X147991302Y-110547972D01*
X147991302Y-110547972D02*
X149966302Y-112522972D01*
X142171302Y-107497972D02*
X145221302Y-110547972D01*
X142171302Y-107486372D02*
X142171302Y-107497972D01*
X138489302Y-103804372D02*
X142171302Y-107486372D01*
X138489302Y-102404372D02*
X138489302Y-103804372D01*
X137254302Y-84372972D02*
X137254302Y-83053009D01*
X137254302Y-83053009D02*
X138904339Y-81402972D01*
X138904339Y-81402972D02*
X140318302Y-81402972D01*
X170446302Y-81222972D02*
X166346302Y-81222972D01*
X169344302Y-80082972D02*
X169344302Y-80120972D01*
X169344302Y-80120972D02*
X170446302Y-81222972D01*
X170446302Y-81222972D02*
X171346302Y-81222972D01*
X171346302Y-81222972D02*
X172096303Y-80472971D01*
X172096303Y-80472971D02*
X174846302Y-80472972D01*
X174846302Y-80472972D02*
X175696302Y-81322972D01*
X175696302Y-81322972D02*
X175846302Y-81322972D01*
X175846302Y-81322972D02*
X175846302Y-83072972D01*
X174566302Y-105554972D02*
X174566302Y-105759972D01*
X174566302Y-105759972D02*
X173601303Y-106724971D01*
X173601303Y-106724971D02*
X170864303Y-106724971D01*
X170864303Y-106724971D02*
X170764302Y-106824972D01*
X170764302Y-106824972D02*
X169914302Y-106824972D01*
X177026302Y-106316972D02*
X176264302Y-105554972D01*
X176264302Y-105554972D02*
X174566302Y-105554972D01*
X181090302Y-102322972D02*
X178620302Y-102322972D01*
X178620302Y-102322972D02*
X178550302Y-102252972D01*
X181090302Y-102322972D02*
X181090302Y-104378934D01*
X181090302Y-104378934D02*
X179646301Y-105822935D01*
X179646301Y-105822935D02*
X179646301Y-107846975D01*
X179646301Y-107846975D02*
X177876303Y-109616973D01*
X174566302Y-108684972D02*
X174566302Y-107754972D01*
X177876303Y-109616973D02*
X175498303Y-109616973D01*
X175498303Y-109616973D02*
X174566302Y-108684972D01*
X180766302Y-102252972D02*
X180836302Y-102322972D01*
X173978302Y-101622972D02*
X173773302Y-101622972D01*
X173773302Y-101622972D02*
X173299301Y-101148971D01*
X169810302Y-101998972D02*
X169660302Y-101998972D01*
X173299301Y-101148971D02*
X170660302Y-101148972D01*
X170660302Y-101148972D02*
X169810302Y-101998972D01*
X170930302Y-99070972D02*
X169846302Y-100154972D01*
X169846302Y-100154972D02*
X169846302Y-101872972D01*
X170930302Y-97172972D02*
X170930302Y-99070972D01*
X134679302Y-102404372D02*
X134679302Y-103804372D01*
X134679302Y-103804372D02*
X139672902Y-108797972D01*
X139672902Y-108797972D02*
X140196302Y-108797972D01*
X139266285Y-106877991D02*
X139276321Y-106877991D01*
X139276321Y-106877991D02*
X140146302Y-107747972D01*
X135957302Y-103569008D02*
X139266285Y-106877991D01*
X135957302Y-102388372D02*
X135957302Y-103569008D01*
X167120302Y-102130972D02*
X167120302Y-101130972D01*
X167120302Y-101130972D02*
X168846302Y-99404972D01*
X168846302Y-99404972D02*
X168846302Y-97022972D01*
D37*
X186346302Y-83972972D02*
X187308302Y-84934972D01*
X187308302Y-84934972D02*
X187308302Y-94290972D01*
X187308302Y-94290972D02*
X184172302Y-97426972D01*
X184172302Y-97426972D02*
X183122302Y-97426972D01*
X186196302Y-83972972D02*
X186346302Y-83972972D01*
X186346302Y-83972972D02*
X186480303Y-84106973D01*
X183346302Y-83972972D02*
X184230302Y-83972972D01*
X184230302Y-83972972D02*
X186196302Y-83972972D01*
X183346302Y-83972972D02*
X182296302Y-82922972D01*
X181346302Y-83772972D02*
X181446302Y-83772972D01*
X181446302Y-83772972D02*
X182296302Y-82922972D01*
X116132302Y-92686972D02*
X116132302Y-92026972D01*
X116132302Y-92026972D02*
X117336302Y-90822972D01*
X114288302Y-87520972D02*
X115304302Y-86504972D01*
X181346302Y-95322972D02*
X181346302Y-95650972D01*
X181346302Y-95650972D02*
X183122302Y-97426972D01*
X116132302Y-92686972D02*
X116132302Y-92654972D01*
X151880302Y-79392972D02*
X151601264Y-79392972D01*
X151601264Y-79392972D02*
X148405265Y-82588971D01*
X148405265Y-82588971D02*
X138708303Y-82588971D01*
X138708303Y-82588971D02*
X138524302Y-82772972D01*
X138524302Y-82772972D02*
X138524302Y-84372972D01*
X158196302Y-74347972D02*
X153151302Y-79392972D01*
X153151302Y-79392972D02*
X151880302Y-79392972D01*
X182296302Y-83127972D02*
X182296302Y-82922972D01*
X119138302Y-107514972D02*
X118290302Y-107514972D01*
X118290302Y-107514972D02*
X117782302Y-107006972D01*
X116132302Y-92686972D02*
X116132302Y-92868970D01*
X115304302Y-86504972D02*
X115304302Y-89298972D01*
X115314302Y-89298972D02*
X116132302Y-90116972D01*
X116132302Y-90116972D02*
X116132302Y-92686972D01*
X115304302Y-89298972D02*
X115314302Y-89298972D01*
X138524302Y-84372972D02*
X138524302Y-85756972D01*
X138524302Y-85756972D02*
X138102302Y-86178972D01*
X158196302Y-74634972D02*
X158196302Y-74347972D01*
D36*
X138446302Y-84441372D02*
X138517302Y-84370372D01*
D39*
X160736302Y-74347972D02*
X158196302Y-74347972D01*
M02*
