M48
;DRILL file {KiCad 4.0.6+dfsg1-1} date Tue Aug 29 14:41:31 2017
;FORMAT={-:-/ absolute / inch / decimal}
FMAT,2
INCH,TZ
T1C0.016
T2C0.030
T3C0.035
T4C0.039
T5C0.040
T6C0.236
%
G90
G05
M72
T1
X5.1864Y-2.7726
X5.2294Y-4.7236
X5.251Y-2.7734
X5.258Y-3.1554
X5.2962Y-3.048
X5.301Y-3.157
X5.3014Y-2.8646
X5.3154Y-2.923
X5.3286Y-3.974
X5.3308Y-3.6744
X5.3346Y-4.732
X5.354Y-3.5706
X5.3642Y-4.017
X5.3794Y-4.1748
X5.3838Y-2.8608
X5.4028Y-3.9906
X5.4194Y-3.5728
X5.4324Y-4.6752
X5.4368Y-2.2054
X5.4368Y-2.9204
X5.441Y-2.4238
X5.4968Y-3.3108
X5.5074Y-4.3189
X5.5104Y-4.7082
X5.5314Y-4.1344
X5.5366Y-2.2026
X5.5426Y-4.5376
X5.5598Y-4.7348
X5.6014Y-2.3322
X5.6548Y-2.4574
X5.6668Y-3.2034
X5.6776Y-4.3312
X5.7002Y-4.4792
X5.7018Y-4.7808
X5.7416Y-3.2128
X5.7866Y-4.4306
X5.7974Y-2.9334
X5.8356Y-4.1982
X5.8612Y-4.783
X5.894Y-4.3532
X5.8944Y-4.311
X5.902Y-4.2668
X5.906Y-2.9906
X5.9082Y-2.8841
X5.9394Y-2.6508
X5.9622Y-4.7378
X6.0256Y-4.7366
X6.0368Y-2.6034
X6.0408Y-2.849
X6.0478Y-2.66
X6.0614Y-4.2738
X6.103Y-4.5086
X6.1072Y-4.5842
X6.1138Y-2.1264
X6.1194Y-3.6262
X6.1626Y-2.2146
X6.1868Y-2.8946
X6.187Y-3.6692
X6.242Y-4.5272
X6.253Y-3.9256
X6.2666Y-2.9002
X6.3558Y-4.8004
X6.3976Y-3.6066
X6.3984Y-3.6488
T2
X5.268Y-4.9362
X5.2928Y-4.8634
X5.3394Y-4.9626
X5.5382Y-3.9358
X5.5384Y-2.5358
X5.5734Y-4.5974
X5.7584Y-4.1478
X6.0492Y-4.877
X6.0868Y-3.9898
X6.2318Y-2.6052
X6.3156Y-2.073
X6.4344Y-2.216
T3
X6.035Y-2.2996
X6.035Y-2.3996
X6.2937Y-2.2969
X6.2937Y-2.3969
T4
X5.048Y-2.25
X5.048Y-2.35
X5.048Y-2.45
X5.059Y-3.002
X5.059Y-3.102
X5.059Y-3.202
X5.059Y-3.302
X5.059Y-3.402
X5.059Y-3.502
X5.059Y-3.602
X5.059Y-3.702
X5.059Y-3.802
X5.059Y-3.902
X5.059Y-4.002
X5.059Y-4.102
X5.059Y-4.202
X5.059Y-4.302
X5.059Y-4.402
X5.059Y-4.502
X5.059Y-4.602
X5.059Y-4.702
X5.059Y-4.802
X5.059Y-4.902
X5.6606Y-3.0787
X5.668Y-2.0786
X5.6978Y-3.4532
X5.768Y-2.0786
X5.7978Y-3.4532
X5.868Y-2.0786
X5.8978Y-3.4532
X5.9598Y-3.0787
X5.968Y-2.0786
X6.3284Y-4.9158
X6.4284Y-4.9158
X6.5284Y-4.9158
X6.5382Y-2.8336
X6.5382Y-2.9336
X6.5382Y-3.0336
X6.5382Y-3.1336
X6.5382Y-3.2336
X6.5382Y-3.3336
X6.5382Y-3.4336
X6.5382Y-3.5336
X6.5382Y-3.6336
X6.5382Y-3.7336
X6.5382Y-3.8336
X6.5382Y-3.9336
X6.5382Y-4.0336
X6.5382Y-4.1336
X6.5382Y-4.2336
X6.5382Y-4.3336
X6.5382Y-4.4336
X6.5382Y-4.5336
X6.5382Y-4.6336
X6.5382Y-4.7336
T5
X5.7018Y-2.3103
T6
X5.8143Y-1.8684
X5.8143Y-5.1384
T0
M30
