G04 #@! TF.GenerationSoftware,KiCad,Pcbnew,6.0.0-rc1-unknown-7a10feb~66~ubuntu18.04.1*
G04 #@! TF.CreationDate,2018-08-22T16:18:46-05:00*
G04 #@! TF.ProjectId,liger,6C696765722E6B696361645F70636200,rev?*
G04 #@! TF.SameCoordinates,Original*
G04 #@! TF.FileFunction,Copper,L2,Bot,Signal*
G04 #@! TF.FilePolarity,Positive*
%FSLAX46Y46*%
G04 Gerber Fmt 4.6, Leading zero omitted, Abs format (unit mm)*
G04 Created by KiCad (PCBNEW 6.0.0-rc1-unknown-7a10feb~66~ubuntu18.04.1) date Wed Aug 22 16:18:46 2018*
%MOMM*%
%LPD*%
G01*
G04 APERTURE LIST*
G04 #@! TA.AperFunction,Conductor*
%ADD10C,0.100000*%
G04 #@! TD*
G04 #@! TA.AperFunction,SMDPad,CuDef*
%ADD11C,0.950000*%
G04 #@! TD*
G04 #@! TA.AperFunction,ComponentPad*
%ADD12C,1.800000*%
G04 #@! TD*
G04 #@! TA.AperFunction,ComponentPad*
%ADD13R,1.800000X1.800000*%
G04 #@! TD*
G04 #@! TA.AperFunction,SMDPad,CuDef*
%ADD14R,1.000000X1.000000*%
G04 #@! TD*
G04 #@! TA.AperFunction,ComponentPad*
%ADD15R,1.700000X1.700000*%
G04 #@! TD*
G04 #@! TA.AperFunction,ComponentPad*
%ADD16O,1.700000X1.700000*%
G04 #@! TD*
G04 #@! TA.AperFunction,ComponentPad*
%ADD17C,1.500000*%
G04 #@! TD*
G04 #@! TA.AperFunction,SMDPad,CuDef*
%ADD18R,0.900000X0.800000*%
G04 #@! TD*
G04 #@! TA.AperFunction,SMDPad,CuDef*
%ADD19R,0.800000X0.900000*%
G04 #@! TD*
G04 #@! TA.AperFunction,SMDPad,CuDef*
%ADD20R,2.000000X1.000000*%
G04 #@! TD*
G04 #@! TA.AperFunction,SMDPad,CuDef*
%ADD21R,1.000000X2.000000*%
G04 #@! TD*
G04 #@! TA.AperFunction,SMDPad,CuDef*
%ADD22R,4.000000X4.000000*%
G04 #@! TD*
G04 #@! TA.AperFunction,ComponentPad*
%ADD23C,1.624000*%
G04 #@! TD*
G04 #@! TA.AperFunction,SMDPad,CuDef*
%ADD24R,0.650000X1.560000*%
G04 #@! TD*
G04 #@! TA.AperFunction,SMDPad,CuDef*
%ADD25R,0.750000X0.300000*%
G04 #@! TD*
G04 #@! TA.AperFunction,SMDPad,CuDef*
%ADD26R,0.300000X0.750000*%
G04 #@! TD*
G04 #@! TA.AperFunction,ComponentPad*
%ADD27C,1.524000*%
G04 #@! TD*
G04 #@! TA.AperFunction,ViaPad*
%ADD28C,0.600000*%
G04 #@! TD*
G04 #@! TA.AperFunction,ViaPad*
%ADD29C,1.000000*%
G04 #@! TD*
G04 #@! TA.AperFunction,ViaPad*
%ADD30C,0.800000*%
G04 #@! TD*
G04 #@! TA.AperFunction,Conductor*
%ADD31C,0.400000*%
G04 #@! TD*
G04 #@! TA.AperFunction,Conductor*
%ADD32C,0.250000*%
G04 #@! TD*
G04 #@! TA.AperFunction,Conductor*
%ADD33C,0.500000*%
G04 #@! TD*
G04 APERTURE END LIST*
D10*
G04 #@! TO.N,GND*
G04 #@! TO.C,C1*
G36*
X158798336Y-70479099D02*
X158821391Y-70482518D01*
X158844000Y-70488182D01*
X158865944Y-70496034D01*
X158887014Y-70505999D01*
X158907005Y-70517981D01*
X158925725Y-70531865D01*
X158942995Y-70547517D01*
X158958647Y-70564787D01*
X158972531Y-70583507D01*
X158984513Y-70603498D01*
X158994478Y-70624568D01*
X159002330Y-70646512D01*
X159007994Y-70669121D01*
X159011413Y-70692176D01*
X159012557Y-70715455D01*
X159012557Y-71190455D01*
X159011413Y-71213734D01*
X159007994Y-71236789D01*
X159002330Y-71259398D01*
X158994478Y-71281342D01*
X158984513Y-71302412D01*
X158972531Y-71322403D01*
X158958647Y-71341123D01*
X158942995Y-71358393D01*
X158925725Y-71374045D01*
X158907005Y-71387929D01*
X158887014Y-71399911D01*
X158865944Y-71409876D01*
X158844000Y-71417728D01*
X158821391Y-71423392D01*
X158798336Y-71426811D01*
X158775057Y-71427955D01*
X158200057Y-71427955D01*
X158176778Y-71426811D01*
X158153723Y-71423392D01*
X158131114Y-71417728D01*
X158109170Y-71409876D01*
X158088100Y-71399911D01*
X158068109Y-71387929D01*
X158049389Y-71374045D01*
X158032119Y-71358393D01*
X158016467Y-71341123D01*
X158002583Y-71322403D01*
X157990601Y-71302412D01*
X157980636Y-71281342D01*
X157972784Y-71259398D01*
X157967120Y-71236789D01*
X157963701Y-71213734D01*
X157962557Y-71190455D01*
X157962557Y-70715455D01*
X157963701Y-70692176D01*
X157967120Y-70669121D01*
X157972784Y-70646512D01*
X157980636Y-70624568D01*
X157990601Y-70603498D01*
X158002583Y-70583507D01*
X158016467Y-70564787D01*
X158032119Y-70547517D01*
X158049389Y-70531865D01*
X158068109Y-70517981D01*
X158088100Y-70505999D01*
X158109170Y-70496034D01*
X158131114Y-70488182D01*
X158153723Y-70482518D01*
X158176778Y-70479099D01*
X158200057Y-70477955D01*
X158775057Y-70477955D01*
X158798336Y-70479099D01*
X158798336Y-70479099D01*
G37*
D11*
G04 #@! TD*
G04 #@! TO.P,C1,2*
G04 #@! TO.N,GND*
X158487557Y-70952955D03*
D10*
G04 #@! TO.N,/3V3*
G04 #@! TO.C,C1*
G36*
X160548336Y-70479099D02*
X160571391Y-70482518D01*
X160594000Y-70488182D01*
X160615944Y-70496034D01*
X160637014Y-70505999D01*
X160657005Y-70517981D01*
X160675725Y-70531865D01*
X160692995Y-70547517D01*
X160708647Y-70564787D01*
X160722531Y-70583507D01*
X160734513Y-70603498D01*
X160744478Y-70624568D01*
X160752330Y-70646512D01*
X160757994Y-70669121D01*
X160761413Y-70692176D01*
X160762557Y-70715455D01*
X160762557Y-71190455D01*
X160761413Y-71213734D01*
X160757994Y-71236789D01*
X160752330Y-71259398D01*
X160744478Y-71281342D01*
X160734513Y-71302412D01*
X160722531Y-71322403D01*
X160708647Y-71341123D01*
X160692995Y-71358393D01*
X160675725Y-71374045D01*
X160657005Y-71387929D01*
X160637014Y-71399911D01*
X160615944Y-71409876D01*
X160594000Y-71417728D01*
X160571391Y-71423392D01*
X160548336Y-71426811D01*
X160525057Y-71427955D01*
X159950057Y-71427955D01*
X159926778Y-71426811D01*
X159903723Y-71423392D01*
X159881114Y-71417728D01*
X159859170Y-71409876D01*
X159838100Y-71399911D01*
X159818109Y-71387929D01*
X159799389Y-71374045D01*
X159782119Y-71358393D01*
X159766467Y-71341123D01*
X159752583Y-71322403D01*
X159740601Y-71302412D01*
X159730636Y-71281342D01*
X159722784Y-71259398D01*
X159717120Y-71236789D01*
X159713701Y-71213734D01*
X159712557Y-71190455D01*
X159712557Y-70715455D01*
X159713701Y-70692176D01*
X159717120Y-70669121D01*
X159722784Y-70646512D01*
X159730636Y-70624568D01*
X159740601Y-70603498D01*
X159752583Y-70583507D01*
X159766467Y-70564787D01*
X159782119Y-70547517D01*
X159799389Y-70531865D01*
X159818109Y-70517981D01*
X159838100Y-70505999D01*
X159859170Y-70496034D01*
X159881114Y-70488182D01*
X159903723Y-70482518D01*
X159926778Y-70479099D01*
X159950057Y-70477955D01*
X160525057Y-70477955D01*
X160548336Y-70479099D01*
X160548336Y-70479099D01*
G37*
D11*
G04 #@! TD*
G04 #@! TO.P,C1,1*
G04 #@! TO.N,/3V3*
X160237557Y-70952955D03*
D10*
G04 #@! TO.N,GND*
G04 #@! TO.C,C2*
G36*
X158798336Y-72079099D02*
X158821391Y-72082518D01*
X158844000Y-72088182D01*
X158865944Y-72096034D01*
X158887014Y-72105999D01*
X158907005Y-72117981D01*
X158925725Y-72131865D01*
X158942995Y-72147517D01*
X158958647Y-72164787D01*
X158972531Y-72183507D01*
X158984513Y-72203498D01*
X158994478Y-72224568D01*
X159002330Y-72246512D01*
X159007994Y-72269121D01*
X159011413Y-72292176D01*
X159012557Y-72315455D01*
X159012557Y-72790455D01*
X159011413Y-72813734D01*
X159007994Y-72836789D01*
X159002330Y-72859398D01*
X158994478Y-72881342D01*
X158984513Y-72902412D01*
X158972531Y-72922403D01*
X158958647Y-72941123D01*
X158942995Y-72958393D01*
X158925725Y-72974045D01*
X158907005Y-72987929D01*
X158887014Y-72999911D01*
X158865944Y-73009876D01*
X158844000Y-73017728D01*
X158821391Y-73023392D01*
X158798336Y-73026811D01*
X158775057Y-73027955D01*
X158200057Y-73027955D01*
X158176778Y-73026811D01*
X158153723Y-73023392D01*
X158131114Y-73017728D01*
X158109170Y-73009876D01*
X158088100Y-72999911D01*
X158068109Y-72987929D01*
X158049389Y-72974045D01*
X158032119Y-72958393D01*
X158016467Y-72941123D01*
X158002583Y-72922403D01*
X157990601Y-72902412D01*
X157980636Y-72881342D01*
X157972784Y-72859398D01*
X157967120Y-72836789D01*
X157963701Y-72813734D01*
X157962557Y-72790455D01*
X157962557Y-72315455D01*
X157963701Y-72292176D01*
X157967120Y-72269121D01*
X157972784Y-72246512D01*
X157980636Y-72224568D01*
X157990601Y-72203498D01*
X158002583Y-72183507D01*
X158016467Y-72164787D01*
X158032119Y-72147517D01*
X158049389Y-72131865D01*
X158068109Y-72117981D01*
X158088100Y-72105999D01*
X158109170Y-72096034D01*
X158131114Y-72088182D01*
X158153723Y-72082518D01*
X158176778Y-72079099D01*
X158200057Y-72077955D01*
X158775057Y-72077955D01*
X158798336Y-72079099D01*
X158798336Y-72079099D01*
G37*
D11*
G04 #@! TD*
G04 #@! TO.P,C2,2*
G04 #@! TO.N,GND*
X158487557Y-72552955D03*
D10*
G04 #@! TO.N,/3V3*
G04 #@! TO.C,C2*
G36*
X160548336Y-72079099D02*
X160571391Y-72082518D01*
X160594000Y-72088182D01*
X160615944Y-72096034D01*
X160637014Y-72105999D01*
X160657005Y-72117981D01*
X160675725Y-72131865D01*
X160692995Y-72147517D01*
X160708647Y-72164787D01*
X160722531Y-72183507D01*
X160734513Y-72203498D01*
X160744478Y-72224568D01*
X160752330Y-72246512D01*
X160757994Y-72269121D01*
X160761413Y-72292176D01*
X160762557Y-72315455D01*
X160762557Y-72790455D01*
X160761413Y-72813734D01*
X160757994Y-72836789D01*
X160752330Y-72859398D01*
X160744478Y-72881342D01*
X160734513Y-72902412D01*
X160722531Y-72922403D01*
X160708647Y-72941123D01*
X160692995Y-72958393D01*
X160675725Y-72974045D01*
X160657005Y-72987929D01*
X160637014Y-72999911D01*
X160615944Y-73009876D01*
X160594000Y-73017728D01*
X160571391Y-73023392D01*
X160548336Y-73026811D01*
X160525057Y-73027955D01*
X159950057Y-73027955D01*
X159926778Y-73026811D01*
X159903723Y-73023392D01*
X159881114Y-73017728D01*
X159859170Y-73009876D01*
X159838100Y-72999911D01*
X159818109Y-72987929D01*
X159799389Y-72974045D01*
X159782119Y-72958393D01*
X159766467Y-72941123D01*
X159752583Y-72922403D01*
X159740601Y-72902412D01*
X159730636Y-72881342D01*
X159722784Y-72859398D01*
X159717120Y-72836789D01*
X159713701Y-72813734D01*
X159712557Y-72790455D01*
X159712557Y-72315455D01*
X159713701Y-72292176D01*
X159717120Y-72269121D01*
X159722784Y-72246512D01*
X159730636Y-72224568D01*
X159740601Y-72203498D01*
X159752583Y-72183507D01*
X159766467Y-72164787D01*
X159782119Y-72147517D01*
X159799389Y-72131865D01*
X159818109Y-72117981D01*
X159838100Y-72105999D01*
X159859170Y-72096034D01*
X159881114Y-72088182D01*
X159903723Y-72082518D01*
X159926778Y-72079099D01*
X159950057Y-72077955D01*
X160525057Y-72077955D01*
X160548336Y-72079099D01*
X160548336Y-72079099D01*
G37*
D11*
G04 #@! TD*
G04 #@! TO.P,C2,1*
G04 #@! TO.N,/3V3*
X160237557Y-72552955D03*
D10*
G04 #@! TO.N,/3V3*
G04 #@! TO.C,C3*
G36*
X160548336Y-73729099D02*
X160571391Y-73732518D01*
X160594000Y-73738182D01*
X160615944Y-73746034D01*
X160637014Y-73755999D01*
X160657005Y-73767981D01*
X160675725Y-73781865D01*
X160692995Y-73797517D01*
X160708647Y-73814787D01*
X160722531Y-73833507D01*
X160734513Y-73853498D01*
X160744478Y-73874568D01*
X160752330Y-73896512D01*
X160757994Y-73919121D01*
X160761413Y-73942176D01*
X160762557Y-73965455D01*
X160762557Y-74440455D01*
X160761413Y-74463734D01*
X160757994Y-74486789D01*
X160752330Y-74509398D01*
X160744478Y-74531342D01*
X160734513Y-74552412D01*
X160722531Y-74572403D01*
X160708647Y-74591123D01*
X160692995Y-74608393D01*
X160675725Y-74624045D01*
X160657005Y-74637929D01*
X160637014Y-74649911D01*
X160615944Y-74659876D01*
X160594000Y-74667728D01*
X160571391Y-74673392D01*
X160548336Y-74676811D01*
X160525057Y-74677955D01*
X159950057Y-74677955D01*
X159926778Y-74676811D01*
X159903723Y-74673392D01*
X159881114Y-74667728D01*
X159859170Y-74659876D01*
X159838100Y-74649911D01*
X159818109Y-74637929D01*
X159799389Y-74624045D01*
X159782119Y-74608393D01*
X159766467Y-74591123D01*
X159752583Y-74572403D01*
X159740601Y-74552412D01*
X159730636Y-74531342D01*
X159722784Y-74509398D01*
X159717120Y-74486789D01*
X159713701Y-74463734D01*
X159712557Y-74440455D01*
X159712557Y-73965455D01*
X159713701Y-73942176D01*
X159717120Y-73919121D01*
X159722784Y-73896512D01*
X159730636Y-73874568D01*
X159740601Y-73853498D01*
X159752583Y-73833507D01*
X159766467Y-73814787D01*
X159782119Y-73797517D01*
X159799389Y-73781865D01*
X159818109Y-73767981D01*
X159838100Y-73755999D01*
X159859170Y-73746034D01*
X159881114Y-73738182D01*
X159903723Y-73732518D01*
X159926778Y-73729099D01*
X159950057Y-73727955D01*
X160525057Y-73727955D01*
X160548336Y-73729099D01*
X160548336Y-73729099D01*
G37*
D11*
G04 #@! TD*
G04 #@! TO.P,C3,1*
G04 #@! TO.N,/3V3*
X160237557Y-74202955D03*
D10*
G04 #@! TO.N,GND*
G04 #@! TO.C,C3*
G36*
X158798336Y-73729099D02*
X158821391Y-73732518D01*
X158844000Y-73738182D01*
X158865944Y-73746034D01*
X158887014Y-73755999D01*
X158907005Y-73767981D01*
X158925725Y-73781865D01*
X158942995Y-73797517D01*
X158958647Y-73814787D01*
X158972531Y-73833507D01*
X158984513Y-73853498D01*
X158994478Y-73874568D01*
X159002330Y-73896512D01*
X159007994Y-73919121D01*
X159011413Y-73942176D01*
X159012557Y-73965455D01*
X159012557Y-74440455D01*
X159011413Y-74463734D01*
X159007994Y-74486789D01*
X159002330Y-74509398D01*
X158994478Y-74531342D01*
X158984513Y-74552412D01*
X158972531Y-74572403D01*
X158958647Y-74591123D01*
X158942995Y-74608393D01*
X158925725Y-74624045D01*
X158907005Y-74637929D01*
X158887014Y-74649911D01*
X158865944Y-74659876D01*
X158844000Y-74667728D01*
X158821391Y-74673392D01*
X158798336Y-74676811D01*
X158775057Y-74677955D01*
X158200057Y-74677955D01*
X158176778Y-74676811D01*
X158153723Y-74673392D01*
X158131114Y-74667728D01*
X158109170Y-74659876D01*
X158088100Y-74649911D01*
X158068109Y-74637929D01*
X158049389Y-74624045D01*
X158032119Y-74608393D01*
X158016467Y-74591123D01*
X158002583Y-74572403D01*
X157990601Y-74552412D01*
X157980636Y-74531342D01*
X157972784Y-74509398D01*
X157967120Y-74486789D01*
X157963701Y-74463734D01*
X157962557Y-74440455D01*
X157962557Y-73965455D01*
X157963701Y-73942176D01*
X157967120Y-73919121D01*
X157972784Y-73896512D01*
X157980636Y-73874568D01*
X157990601Y-73853498D01*
X158002583Y-73833507D01*
X158016467Y-73814787D01*
X158032119Y-73797517D01*
X158049389Y-73781865D01*
X158068109Y-73767981D01*
X158088100Y-73755999D01*
X158109170Y-73746034D01*
X158131114Y-73738182D01*
X158153723Y-73732518D01*
X158176778Y-73729099D01*
X158200057Y-73727955D01*
X158775057Y-73727955D01*
X158798336Y-73729099D01*
X158798336Y-73729099D01*
G37*
D11*
G04 #@! TD*
G04 #@! TO.P,C3,2*
G04 #@! TO.N,GND*
X158487557Y-74202955D03*
D10*
G04 #@! TO.N,GND*
G04 #@! TO.C,C4*
G36*
X158798336Y-75329099D02*
X158821391Y-75332518D01*
X158844000Y-75338182D01*
X158865944Y-75346034D01*
X158887014Y-75355999D01*
X158907005Y-75367981D01*
X158925725Y-75381865D01*
X158942995Y-75397517D01*
X158958647Y-75414787D01*
X158972531Y-75433507D01*
X158984513Y-75453498D01*
X158994478Y-75474568D01*
X159002330Y-75496512D01*
X159007994Y-75519121D01*
X159011413Y-75542176D01*
X159012557Y-75565455D01*
X159012557Y-76040455D01*
X159011413Y-76063734D01*
X159007994Y-76086789D01*
X159002330Y-76109398D01*
X158994478Y-76131342D01*
X158984513Y-76152412D01*
X158972531Y-76172403D01*
X158958647Y-76191123D01*
X158942995Y-76208393D01*
X158925725Y-76224045D01*
X158907005Y-76237929D01*
X158887014Y-76249911D01*
X158865944Y-76259876D01*
X158844000Y-76267728D01*
X158821391Y-76273392D01*
X158798336Y-76276811D01*
X158775057Y-76277955D01*
X158200057Y-76277955D01*
X158176778Y-76276811D01*
X158153723Y-76273392D01*
X158131114Y-76267728D01*
X158109170Y-76259876D01*
X158088100Y-76249911D01*
X158068109Y-76237929D01*
X158049389Y-76224045D01*
X158032119Y-76208393D01*
X158016467Y-76191123D01*
X158002583Y-76172403D01*
X157990601Y-76152412D01*
X157980636Y-76131342D01*
X157972784Y-76109398D01*
X157967120Y-76086789D01*
X157963701Y-76063734D01*
X157962557Y-76040455D01*
X157962557Y-75565455D01*
X157963701Y-75542176D01*
X157967120Y-75519121D01*
X157972784Y-75496512D01*
X157980636Y-75474568D01*
X157990601Y-75453498D01*
X158002583Y-75433507D01*
X158016467Y-75414787D01*
X158032119Y-75397517D01*
X158049389Y-75381865D01*
X158068109Y-75367981D01*
X158088100Y-75355999D01*
X158109170Y-75346034D01*
X158131114Y-75338182D01*
X158153723Y-75332518D01*
X158176778Y-75329099D01*
X158200057Y-75327955D01*
X158775057Y-75327955D01*
X158798336Y-75329099D01*
X158798336Y-75329099D01*
G37*
D11*
G04 #@! TD*
G04 #@! TO.P,C4,2*
G04 #@! TO.N,GND*
X158487557Y-75802955D03*
D10*
G04 #@! TO.N,/3V3*
G04 #@! TO.C,C4*
G36*
X160548336Y-75329099D02*
X160571391Y-75332518D01*
X160594000Y-75338182D01*
X160615944Y-75346034D01*
X160637014Y-75355999D01*
X160657005Y-75367981D01*
X160675725Y-75381865D01*
X160692995Y-75397517D01*
X160708647Y-75414787D01*
X160722531Y-75433507D01*
X160734513Y-75453498D01*
X160744478Y-75474568D01*
X160752330Y-75496512D01*
X160757994Y-75519121D01*
X160761413Y-75542176D01*
X160762557Y-75565455D01*
X160762557Y-76040455D01*
X160761413Y-76063734D01*
X160757994Y-76086789D01*
X160752330Y-76109398D01*
X160744478Y-76131342D01*
X160734513Y-76152412D01*
X160722531Y-76172403D01*
X160708647Y-76191123D01*
X160692995Y-76208393D01*
X160675725Y-76224045D01*
X160657005Y-76237929D01*
X160637014Y-76249911D01*
X160615944Y-76259876D01*
X160594000Y-76267728D01*
X160571391Y-76273392D01*
X160548336Y-76276811D01*
X160525057Y-76277955D01*
X159950057Y-76277955D01*
X159926778Y-76276811D01*
X159903723Y-76273392D01*
X159881114Y-76267728D01*
X159859170Y-76259876D01*
X159838100Y-76249911D01*
X159818109Y-76237929D01*
X159799389Y-76224045D01*
X159782119Y-76208393D01*
X159766467Y-76191123D01*
X159752583Y-76172403D01*
X159740601Y-76152412D01*
X159730636Y-76131342D01*
X159722784Y-76109398D01*
X159717120Y-76086789D01*
X159713701Y-76063734D01*
X159712557Y-76040455D01*
X159712557Y-75565455D01*
X159713701Y-75542176D01*
X159717120Y-75519121D01*
X159722784Y-75496512D01*
X159730636Y-75474568D01*
X159740601Y-75453498D01*
X159752583Y-75433507D01*
X159766467Y-75414787D01*
X159782119Y-75397517D01*
X159799389Y-75381865D01*
X159818109Y-75367981D01*
X159838100Y-75355999D01*
X159859170Y-75346034D01*
X159881114Y-75338182D01*
X159903723Y-75332518D01*
X159926778Y-75329099D01*
X159950057Y-75327955D01*
X160525057Y-75327955D01*
X160548336Y-75329099D01*
X160548336Y-75329099D01*
G37*
D11*
G04 #@! TD*
G04 #@! TO.P,C4,1*
G04 #@! TO.N,/3V3*
X160237557Y-75802955D03*
D10*
G04 #@! TO.N,/3V3*
G04 #@! TO.C,C5*
G36*
X137877979Y-64006144D02*
X137901034Y-64009563D01*
X137923643Y-64015227D01*
X137945587Y-64023079D01*
X137966657Y-64033044D01*
X137986648Y-64045026D01*
X138005368Y-64058910D01*
X138022638Y-64074562D01*
X138038290Y-64091832D01*
X138052174Y-64110552D01*
X138064156Y-64130543D01*
X138074121Y-64151613D01*
X138081973Y-64173557D01*
X138087637Y-64196166D01*
X138091056Y-64219221D01*
X138092200Y-64242500D01*
X138092200Y-64817500D01*
X138091056Y-64840779D01*
X138087637Y-64863834D01*
X138081973Y-64886443D01*
X138074121Y-64908387D01*
X138064156Y-64929457D01*
X138052174Y-64949448D01*
X138038290Y-64968168D01*
X138022638Y-64985438D01*
X138005368Y-65001090D01*
X137986648Y-65014974D01*
X137966657Y-65026956D01*
X137945587Y-65036921D01*
X137923643Y-65044773D01*
X137901034Y-65050437D01*
X137877979Y-65053856D01*
X137854700Y-65055000D01*
X137379700Y-65055000D01*
X137356421Y-65053856D01*
X137333366Y-65050437D01*
X137310757Y-65044773D01*
X137288813Y-65036921D01*
X137267743Y-65026956D01*
X137247752Y-65014974D01*
X137229032Y-65001090D01*
X137211762Y-64985438D01*
X137196110Y-64968168D01*
X137182226Y-64949448D01*
X137170244Y-64929457D01*
X137160279Y-64908387D01*
X137152427Y-64886443D01*
X137146763Y-64863834D01*
X137143344Y-64840779D01*
X137142200Y-64817500D01*
X137142200Y-64242500D01*
X137143344Y-64219221D01*
X137146763Y-64196166D01*
X137152427Y-64173557D01*
X137160279Y-64151613D01*
X137170244Y-64130543D01*
X137182226Y-64110552D01*
X137196110Y-64091832D01*
X137211762Y-64074562D01*
X137229032Y-64058910D01*
X137247752Y-64045026D01*
X137267743Y-64033044D01*
X137288813Y-64023079D01*
X137310757Y-64015227D01*
X137333366Y-64009563D01*
X137356421Y-64006144D01*
X137379700Y-64005000D01*
X137854700Y-64005000D01*
X137877979Y-64006144D01*
X137877979Y-64006144D01*
G37*
D11*
G04 #@! TD*
G04 #@! TO.P,C5,1*
G04 #@! TO.N,/3V3*
X137617200Y-64530000D03*
D10*
G04 #@! TO.N,GND*
G04 #@! TO.C,C5*
G36*
X137877979Y-65756144D02*
X137901034Y-65759563D01*
X137923643Y-65765227D01*
X137945587Y-65773079D01*
X137966657Y-65783044D01*
X137986648Y-65795026D01*
X138005368Y-65808910D01*
X138022638Y-65824562D01*
X138038290Y-65841832D01*
X138052174Y-65860552D01*
X138064156Y-65880543D01*
X138074121Y-65901613D01*
X138081973Y-65923557D01*
X138087637Y-65946166D01*
X138091056Y-65969221D01*
X138092200Y-65992500D01*
X138092200Y-66567500D01*
X138091056Y-66590779D01*
X138087637Y-66613834D01*
X138081973Y-66636443D01*
X138074121Y-66658387D01*
X138064156Y-66679457D01*
X138052174Y-66699448D01*
X138038290Y-66718168D01*
X138022638Y-66735438D01*
X138005368Y-66751090D01*
X137986648Y-66764974D01*
X137966657Y-66776956D01*
X137945587Y-66786921D01*
X137923643Y-66794773D01*
X137901034Y-66800437D01*
X137877979Y-66803856D01*
X137854700Y-66805000D01*
X137379700Y-66805000D01*
X137356421Y-66803856D01*
X137333366Y-66800437D01*
X137310757Y-66794773D01*
X137288813Y-66786921D01*
X137267743Y-66776956D01*
X137247752Y-66764974D01*
X137229032Y-66751090D01*
X137211762Y-66735438D01*
X137196110Y-66718168D01*
X137182226Y-66699448D01*
X137170244Y-66679457D01*
X137160279Y-66658387D01*
X137152427Y-66636443D01*
X137146763Y-66613834D01*
X137143344Y-66590779D01*
X137142200Y-66567500D01*
X137142200Y-65992500D01*
X137143344Y-65969221D01*
X137146763Y-65946166D01*
X137152427Y-65923557D01*
X137160279Y-65901613D01*
X137170244Y-65880543D01*
X137182226Y-65860552D01*
X137196110Y-65841832D01*
X137211762Y-65824562D01*
X137229032Y-65808910D01*
X137247752Y-65795026D01*
X137267743Y-65783044D01*
X137288813Y-65773079D01*
X137310757Y-65765227D01*
X137333366Y-65759563D01*
X137356421Y-65756144D01*
X137379700Y-65755000D01*
X137854700Y-65755000D01*
X137877979Y-65756144D01*
X137877979Y-65756144D01*
G37*
D11*
G04 #@! TD*
G04 #@! TO.P,C5,2*
G04 #@! TO.N,GND*
X137617200Y-66280000D03*
D10*
G04 #@! TO.N,GND*
G04 #@! TO.C,C6*
G36*
X140671179Y-108949344D02*
X140694234Y-108952763D01*
X140716843Y-108958427D01*
X140738787Y-108966279D01*
X140759857Y-108976244D01*
X140779848Y-108988226D01*
X140798568Y-109002110D01*
X140815838Y-109017762D01*
X140831490Y-109035032D01*
X140845374Y-109053752D01*
X140857356Y-109073743D01*
X140867321Y-109094813D01*
X140875173Y-109116757D01*
X140880837Y-109139366D01*
X140884256Y-109162421D01*
X140885400Y-109185700D01*
X140885400Y-109660700D01*
X140884256Y-109683979D01*
X140880837Y-109707034D01*
X140875173Y-109729643D01*
X140867321Y-109751587D01*
X140857356Y-109772657D01*
X140845374Y-109792648D01*
X140831490Y-109811368D01*
X140815838Y-109828638D01*
X140798568Y-109844290D01*
X140779848Y-109858174D01*
X140759857Y-109870156D01*
X140738787Y-109880121D01*
X140716843Y-109887973D01*
X140694234Y-109893637D01*
X140671179Y-109897056D01*
X140647900Y-109898200D01*
X140072900Y-109898200D01*
X140049621Y-109897056D01*
X140026566Y-109893637D01*
X140003957Y-109887973D01*
X139982013Y-109880121D01*
X139960943Y-109870156D01*
X139940952Y-109858174D01*
X139922232Y-109844290D01*
X139904962Y-109828638D01*
X139889310Y-109811368D01*
X139875426Y-109792648D01*
X139863444Y-109772657D01*
X139853479Y-109751587D01*
X139845627Y-109729643D01*
X139839963Y-109707034D01*
X139836544Y-109683979D01*
X139835400Y-109660700D01*
X139835400Y-109185700D01*
X139836544Y-109162421D01*
X139839963Y-109139366D01*
X139845627Y-109116757D01*
X139853479Y-109094813D01*
X139863444Y-109073743D01*
X139875426Y-109053752D01*
X139889310Y-109035032D01*
X139904962Y-109017762D01*
X139922232Y-109002110D01*
X139940952Y-108988226D01*
X139960943Y-108976244D01*
X139982013Y-108966279D01*
X140003957Y-108958427D01*
X140026566Y-108952763D01*
X140049621Y-108949344D01*
X140072900Y-108948200D01*
X140647900Y-108948200D01*
X140671179Y-108949344D01*
X140671179Y-108949344D01*
G37*
D11*
G04 #@! TD*
G04 #@! TO.P,C6,2*
G04 #@! TO.N,GND*
X140360400Y-109423200D03*
D10*
G04 #@! TO.N,/V_IN*
G04 #@! TO.C,C6*
G36*
X142421179Y-108949344D02*
X142444234Y-108952763D01*
X142466843Y-108958427D01*
X142488787Y-108966279D01*
X142509857Y-108976244D01*
X142529848Y-108988226D01*
X142548568Y-109002110D01*
X142565838Y-109017762D01*
X142581490Y-109035032D01*
X142595374Y-109053752D01*
X142607356Y-109073743D01*
X142617321Y-109094813D01*
X142625173Y-109116757D01*
X142630837Y-109139366D01*
X142634256Y-109162421D01*
X142635400Y-109185700D01*
X142635400Y-109660700D01*
X142634256Y-109683979D01*
X142630837Y-109707034D01*
X142625173Y-109729643D01*
X142617321Y-109751587D01*
X142607356Y-109772657D01*
X142595374Y-109792648D01*
X142581490Y-109811368D01*
X142565838Y-109828638D01*
X142548568Y-109844290D01*
X142529848Y-109858174D01*
X142509857Y-109870156D01*
X142488787Y-109880121D01*
X142466843Y-109887973D01*
X142444234Y-109893637D01*
X142421179Y-109897056D01*
X142397900Y-109898200D01*
X141822900Y-109898200D01*
X141799621Y-109897056D01*
X141776566Y-109893637D01*
X141753957Y-109887973D01*
X141732013Y-109880121D01*
X141710943Y-109870156D01*
X141690952Y-109858174D01*
X141672232Y-109844290D01*
X141654962Y-109828638D01*
X141639310Y-109811368D01*
X141625426Y-109792648D01*
X141613444Y-109772657D01*
X141603479Y-109751587D01*
X141595627Y-109729643D01*
X141589963Y-109707034D01*
X141586544Y-109683979D01*
X141585400Y-109660700D01*
X141585400Y-109185700D01*
X141586544Y-109162421D01*
X141589963Y-109139366D01*
X141595627Y-109116757D01*
X141603479Y-109094813D01*
X141613444Y-109073743D01*
X141625426Y-109053752D01*
X141639310Y-109035032D01*
X141654962Y-109017762D01*
X141672232Y-109002110D01*
X141690952Y-108988226D01*
X141710943Y-108976244D01*
X141732013Y-108966279D01*
X141753957Y-108958427D01*
X141776566Y-108952763D01*
X141799621Y-108949344D01*
X141822900Y-108948200D01*
X142397900Y-108948200D01*
X142421179Y-108949344D01*
X142421179Y-108949344D01*
G37*
D11*
G04 #@! TD*
G04 #@! TO.P,C6,1*
G04 #@! TO.N,/V_IN*
X142110400Y-109423200D03*
D10*
G04 #@! TO.N,/V_IN*
G04 #@! TO.C,C7*
G36*
X155607179Y-113189344D02*
X155630234Y-113192763D01*
X155652843Y-113198427D01*
X155674787Y-113206279D01*
X155695857Y-113216244D01*
X155715848Y-113228226D01*
X155734568Y-113242110D01*
X155751838Y-113257762D01*
X155767490Y-113275032D01*
X155781374Y-113293752D01*
X155793356Y-113313743D01*
X155803321Y-113334813D01*
X155811173Y-113356757D01*
X155816837Y-113379366D01*
X155820256Y-113402421D01*
X155821400Y-113425700D01*
X155821400Y-114000700D01*
X155820256Y-114023979D01*
X155816837Y-114047034D01*
X155811173Y-114069643D01*
X155803321Y-114091587D01*
X155793356Y-114112657D01*
X155781374Y-114132648D01*
X155767490Y-114151368D01*
X155751838Y-114168638D01*
X155734568Y-114184290D01*
X155715848Y-114198174D01*
X155695857Y-114210156D01*
X155674787Y-114220121D01*
X155652843Y-114227973D01*
X155630234Y-114233637D01*
X155607179Y-114237056D01*
X155583900Y-114238200D01*
X155108900Y-114238200D01*
X155085621Y-114237056D01*
X155062566Y-114233637D01*
X155039957Y-114227973D01*
X155018013Y-114220121D01*
X154996943Y-114210156D01*
X154976952Y-114198174D01*
X154958232Y-114184290D01*
X154940962Y-114168638D01*
X154925310Y-114151368D01*
X154911426Y-114132648D01*
X154899444Y-114112657D01*
X154889479Y-114091587D01*
X154881627Y-114069643D01*
X154875963Y-114047034D01*
X154872544Y-114023979D01*
X154871400Y-114000700D01*
X154871400Y-113425700D01*
X154872544Y-113402421D01*
X154875963Y-113379366D01*
X154881627Y-113356757D01*
X154889479Y-113334813D01*
X154899444Y-113313743D01*
X154911426Y-113293752D01*
X154925310Y-113275032D01*
X154940962Y-113257762D01*
X154958232Y-113242110D01*
X154976952Y-113228226D01*
X154996943Y-113216244D01*
X155018013Y-113206279D01*
X155039957Y-113198427D01*
X155062566Y-113192763D01*
X155085621Y-113189344D01*
X155108900Y-113188200D01*
X155583900Y-113188200D01*
X155607179Y-113189344D01*
X155607179Y-113189344D01*
G37*
D11*
G04 #@! TD*
G04 #@! TO.P,C7,1*
G04 #@! TO.N,/V_IN*
X155346400Y-113713200D03*
D10*
G04 #@! TO.N,GND*
G04 #@! TO.C,C7*
G36*
X155607179Y-111439344D02*
X155630234Y-111442763D01*
X155652843Y-111448427D01*
X155674787Y-111456279D01*
X155695857Y-111466244D01*
X155715848Y-111478226D01*
X155734568Y-111492110D01*
X155751838Y-111507762D01*
X155767490Y-111525032D01*
X155781374Y-111543752D01*
X155793356Y-111563743D01*
X155803321Y-111584813D01*
X155811173Y-111606757D01*
X155816837Y-111629366D01*
X155820256Y-111652421D01*
X155821400Y-111675700D01*
X155821400Y-112250700D01*
X155820256Y-112273979D01*
X155816837Y-112297034D01*
X155811173Y-112319643D01*
X155803321Y-112341587D01*
X155793356Y-112362657D01*
X155781374Y-112382648D01*
X155767490Y-112401368D01*
X155751838Y-112418638D01*
X155734568Y-112434290D01*
X155715848Y-112448174D01*
X155695857Y-112460156D01*
X155674787Y-112470121D01*
X155652843Y-112477973D01*
X155630234Y-112483637D01*
X155607179Y-112487056D01*
X155583900Y-112488200D01*
X155108900Y-112488200D01*
X155085621Y-112487056D01*
X155062566Y-112483637D01*
X155039957Y-112477973D01*
X155018013Y-112470121D01*
X154996943Y-112460156D01*
X154976952Y-112448174D01*
X154958232Y-112434290D01*
X154940962Y-112418638D01*
X154925310Y-112401368D01*
X154911426Y-112382648D01*
X154899444Y-112362657D01*
X154889479Y-112341587D01*
X154881627Y-112319643D01*
X154875963Y-112297034D01*
X154872544Y-112273979D01*
X154871400Y-112250700D01*
X154871400Y-111675700D01*
X154872544Y-111652421D01*
X154875963Y-111629366D01*
X154881627Y-111606757D01*
X154889479Y-111584813D01*
X154899444Y-111563743D01*
X154911426Y-111543752D01*
X154925310Y-111525032D01*
X154940962Y-111507762D01*
X154958232Y-111492110D01*
X154976952Y-111478226D01*
X154996943Y-111466244D01*
X155018013Y-111456279D01*
X155039957Y-111448427D01*
X155062566Y-111442763D01*
X155085621Y-111439344D01*
X155108900Y-111438200D01*
X155583900Y-111438200D01*
X155607179Y-111439344D01*
X155607179Y-111439344D01*
G37*
D11*
G04 #@! TD*
G04 #@! TO.P,C7,2*
G04 #@! TO.N,GND*
X155346400Y-111963200D03*
D10*
G04 #@! TO.N,GND*
G04 #@! TO.C,C8*
G36*
X152089779Y-108390544D02*
X152112834Y-108393963D01*
X152135443Y-108399627D01*
X152157387Y-108407479D01*
X152178457Y-108417444D01*
X152198448Y-108429426D01*
X152217168Y-108443310D01*
X152234438Y-108458962D01*
X152250090Y-108476232D01*
X152263974Y-108494952D01*
X152275956Y-108514943D01*
X152285921Y-108536013D01*
X152293773Y-108557957D01*
X152299437Y-108580566D01*
X152302856Y-108603621D01*
X152304000Y-108626900D01*
X152304000Y-109101900D01*
X152302856Y-109125179D01*
X152299437Y-109148234D01*
X152293773Y-109170843D01*
X152285921Y-109192787D01*
X152275956Y-109213857D01*
X152263974Y-109233848D01*
X152250090Y-109252568D01*
X152234438Y-109269838D01*
X152217168Y-109285490D01*
X152198448Y-109299374D01*
X152178457Y-109311356D01*
X152157387Y-109321321D01*
X152135443Y-109329173D01*
X152112834Y-109334837D01*
X152089779Y-109338256D01*
X152066500Y-109339400D01*
X151491500Y-109339400D01*
X151468221Y-109338256D01*
X151445166Y-109334837D01*
X151422557Y-109329173D01*
X151400613Y-109321321D01*
X151379543Y-109311356D01*
X151359552Y-109299374D01*
X151340832Y-109285490D01*
X151323562Y-109269838D01*
X151307910Y-109252568D01*
X151294026Y-109233848D01*
X151282044Y-109213857D01*
X151272079Y-109192787D01*
X151264227Y-109170843D01*
X151258563Y-109148234D01*
X151255144Y-109125179D01*
X151254000Y-109101900D01*
X151254000Y-108626900D01*
X151255144Y-108603621D01*
X151258563Y-108580566D01*
X151264227Y-108557957D01*
X151272079Y-108536013D01*
X151282044Y-108514943D01*
X151294026Y-108494952D01*
X151307910Y-108476232D01*
X151323562Y-108458962D01*
X151340832Y-108443310D01*
X151359552Y-108429426D01*
X151379543Y-108417444D01*
X151400613Y-108407479D01*
X151422557Y-108399627D01*
X151445166Y-108393963D01*
X151468221Y-108390544D01*
X151491500Y-108389400D01*
X152066500Y-108389400D01*
X152089779Y-108390544D01*
X152089779Y-108390544D01*
G37*
D11*
G04 #@! TD*
G04 #@! TO.P,C8,2*
G04 #@! TO.N,GND*
X151779000Y-108864400D03*
D10*
G04 #@! TO.N,/3V3*
G04 #@! TO.C,C8*
G36*
X153839779Y-108390544D02*
X153862834Y-108393963D01*
X153885443Y-108399627D01*
X153907387Y-108407479D01*
X153928457Y-108417444D01*
X153948448Y-108429426D01*
X153967168Y-108443310D01*
X153984438Y-108458962D01*
X154000090Y-108476232D01*
X154013974Y-108494952D01*
X154025956Y-108514943D01*
X154035921Y-108536013D01*
X154043773Y-108557957D01*
X154049437Y-108580566D01*
X154052856Y-108603621D01*
X154054000Y-108626900D01*
X154054000Y-109101900D01*
X154052856Y-109125179D01*
X154049437Y-109148234D01*
X154043773Y-109170843D01*
X154035921Y-109192787D01*
X154025956Y-109213857D01*
X154013974Y-109233848D01*
X154000090Y-109252568D01*
X153984438Y-109269838D01*
X153967168Y-109285490D01*
X153948448Y-109299374D01*
X153928457Y-109311356D01*
X153907387Y-109321321D01*
X153885443Y-109329173D01*
X153862834Y-109334837D01*
X153839779Y-109338256D01*
X153816500Y-109339400D01*
X153241500Y-109339400D01*
X153218221Y-109338256D01*
X153195166Y-109334837D01*
X153172557Y-109329173D01*
X153150613Y-109321321D01*
X153129543Y-109311356D01*
X153109552Y-109299374D01*
X153090832Y-109285490D01*
X153073562Y-109269838D01*
X153057910Y-109252568D01*
X153044026Y-109233848D01*
X153032044Y-109213857D01*
X153022079Y-109192787D01*
X153014227Y-109170843D01*
X153008563Y-109148234D01*
X153005144Y-109125179D01*
X153004000Y-109101900D01*
X153004000Y-108626900D01*
X153005144Y-108603621D01*
X153008563Y-108580566D01*
X153014227Y-108557957D01*
X153022079Y-108536013D01*
X153032044Y-108514943D01*
X153044026Y-108494952D01*
X153057910Y-108476232D01*
X153073562Y-108458962D01*
X153090832Y-108443310D01*
X153109552Y-108429426D01*
X153129543Y-108417444D01*
X153150613Y-108407479D01*
X153172557Y-108399627D01*
X153195166Y-108393963D01*
X153218221Y-108390544D01*
X153241500Y-108389400D01*
X153816500Y-108389400D01*
X153839779Y-108390544D01*
X153839779Y-108390544D01*
G37*
D11*
G04 #@! TD*
G04 #@! TO.P,C8,1*
G04 #@! TO.N,/3V3*
X153529000Y-108864400D03*
D10*
G04 #@! TO.N,GND*
G04 #@! TO.C,C9*
G36*
X155581779Y-107668744D02*
X155604834Y-107672163D01*
X155627443Y-107677827D01*
X155649387Y-107685679D01*
X155670457Y-107695644D01*
X155690448Y-107707626D01*
X155709168Y-107721510D01*
X155726438Y-107737162D01*
X155742090Y-107754432D01*
X155755974Y-107773152D01*
X155767956Y-107793143D01*
X155777921Y-107814213D01*
X155785773Y-107836157D01*
X155791437Y-107858766D01*
X155794856Y-107881821D01*
X155796000Y-107905100D01*
X155796000Y-108480100D01*
X155794856Y-108503379D01*
X155791437Y-108526434D01*
X155785773Y-108549043D01*
X155777921Y-108570987D01*
X155767956Y-108592057D01*
X155755974Y-108612048D01*
X155742090Y-108630768D01*
X155726438Y-108648038D01*
X155709168Y-108663690D01*
X155690448Y-108677574D01*
X155670457Y-108689556D01*
X155649387Y-108699521D01*
X155627443Y-108707373D01*
X155604834Y-108713037D01*
X155581779Y-108716456D01*
X155558500Y-108717600D01*
X155083500Y-108717600D01*
X155060221Y-108716456D01*
X155037166Y-108713037D01*
X155014557Y-108707373D01*
X154992613Y-108699521D01*
X154971543Y-108689556D01*
X154951552Y-108677574D01*
X154932832Y-108663690D01*
X154915562Y-108648038D01*
X154899910Y-108630768D01*
X154886026Y-108612048D01*
X154874044Y-108592057D01*
X154864079Y-108570987D01*
X154856227Y-108549043D01*
X154850563Y-108526434D01*
X154847144Y-108503379D01*
X154846000Y-108480100D01*
X154846000Y-107905100D01*
X154847144Y-107881821D01*
X154850563Y-107858766D01*
X154856227Y-107836157D01*
X154864079Y-107814213D01*
X154874044Y-107793143D01*
X154886026Y-107773152D01*
X154899910Y-107754432D01*
X154915562Y-107737162D01*
X154932832Y-107721510D01*
X154951552Y-107707626D01*
X154971543Y-107695644D01*
X154992613Y-107685679D01*
X155014557Y-107677827D01*
X155037166Y-107672163D01*
X155060221Y-107668744D01*
X155083500Y-107667600D01*
X155558500Y-107667600D01*
X155581779Y-107668744D01*
X155581779Y-107668744D01*
G37*
D11*
G04 #@! TD*
G04 #@! TO.P,C9,2*
G04 #@! TO.N,GND*
X155321000Y-108192600D03*
D10*
G04 #@! TO.N,/V_BAT*
G04 #@! TO.C,C9*
G36*
X155581779Y-109418744D02*
X155604834Y-109422163D01*
X155627443Y-109427827D01*
X155649387Y-109435679D01*
X155670457Y-109445644D01*
X155690448Y-109457626D01*
X155709168Y-109471510D01*
X155726438Y-109487162D01*
X155742090Y-109504432D01*
X155755974Y-109523152D01*
X155767956Y-109543143D01*
X155777921Y-109564213D01*
X155785773Y-109586157D01*
X155791437Y-109608766D01*
X155794856Y-109631821D01*
X155796000Y-109655100D01*
X155796000Y-110230100D01*
X155794856Y-110253379D01*
X155791437Y-110276434D01*
X155785773Y-110299043D01*
X155777921Y-110320987D01*
X155767956Y-110342057D01*
X155755974Y-110362048D01*
X155742090Y-110380768D01*
X155726438Y-110398038D01*
X155709168Y-110413690D01*
X155690448Y-110427574D01*
X155670457Y-110439556D01*
X155649387Y-110449521D01*
X155627443Y-110457373D01*
X155604834Y-110463037D01*
X155581779Y-110466456D01*
X155558500Y-110467600D01*
X155083500Y-110467600D01*
X155060221Y-110466456D01*
X155037166Y-110463037D01*
X155014557Y-110457373D01*
X154992613Y-110449521D01*
X154971543Y-110439556D01*
X154951552Y-110427574D01*
X154932832Y-110413690D01*
X154915562Y-110398038D01*
X154899910Y-110380768D01*
X154886026Y-110362048D01*
X154874044Y-110342057D01*
X154864079Y-110320987D01*
X154856227Y-110299043D01*
X154850563Y-110276434D01*
X154847144Y-110253379D01*
X154846000Y-110230100D01*
X154846000Y-109655100D01*
X154847144Y-109631821D01*
X154850563Y-109608766D01*
X154856227Y-109586157D01*
X154864079Y-109564213D01*
X154874044Y-109543143D01*
X154886026Y-109523152D01*
X154899910Y-109504432D01*
X154915562Y-109487162D01*
X154932832Y-109471510D01*
X154951552Y-109457626D01*
X154971543Y-109445644D01*
X154992613Y-109435679D01*
X155014557Y-109427827D01*
X155037166Y-109422163D01*
X155060221Y-109418744D01*
X155083500Y-109417600D01*
X155558500Y-109417600D01*
X155581779Y-109418744D01*
X155581779Y-109418744D01*
G37*
D11*
G04 #@! TD*
G04 #@! TO.P,C9,1*
G04 #@! TO.N,/V_BAT*
X155321000Y-109942600D03*
D10*
G04 #@! TO.N,/3V3*
G04 #@! TO.C,C10*
G36*
X135805779Y-65921744D02*
X135828834Y-65925163D01*
X135851443Y-65930827D01*
X135873387Y-65938679D01*
X135894457Y-65948644D01*
X135914448Y-65960626D01*
X135933168Y-65974510D01*
X135950438Y-65990162D01*
X135966090Y-66007432D01*
X135979974Y-66026152D01*
X135991956Y-66046143D01*
X136001921Y-66067213D01*
X136009773Y-66089157D01*
X136015437Y-66111766D01*
X136018856Y-66134821D01*
X136020000Y-66158100D01*
X136020000Y-66633100D01*
X136018856Y-66656379D01*
X136015437Y-66679434D01*
X136009773Y-66702043D01*
X136001921Y-66723987D01*
X135991956Y-66745057D01*
X135979974Y-66765048D01*
X135966090Y-66783768D01*
X135950438Y-66801038D01*
X135933168Y-66816690D01*
X135914448Y-66830574D01*
X135894457Y-66842556D01*
X135873387Y-66852521D01*
X135851443Y-66860373D01*
X135828834Y-66866037D01*
X135805779Y-66869456D01*
X135782500Y-66870600D01*
X135207500Y-66870600D01*
X135184221Y-66869456D01*
X135161166Y-66866037D01*
X135138557Y-66860373D01*
X135116613Y-66852521D01*
X135095543Y-66842556D01*
X135075552Y-66830574D01*
X135056832Y-66816690D01*
X135039562Y-66801038D01*
X135023910Y-66783768D01*
X135010026Y-66765048D01*
X134998044Y-66745057D01*
X134988079Y-66723987D01*
X134980227Y-66702043D01*
X134974563Y-66679434D01*
X134971144Y-66656379D01*
X134970000Y-66633100D01*
X134970000Y-66158100D01*
X134971144Y-66134821D01*
X134974563Y-66111766D01*
X134980227Y-66089157D01*
X134988079Y-66067213D01*
X134998044Y-66046143D01*
X135010026Y-66026152D01*
X135023910Y-66007432D01*
X135039562Y-65990162D01*
X135056832Y-65974510D01*
X135075552Y-65960626D01*
X135095543Y-65948644D01*
X135116613Y-65938679D01*
X135138557Y-65930827D01*
X135161166Y-65925163D01*
X135184221Y-65921744D01*
X135207500Y-65920600D01*
X135782500Y-65920600D01*
X135805779Y-65921744D01*
X135805779Y-65921744D01*
G37*
D11*
G04 #@! TD*
G04 #@! TO.P,C10,1*
G04 #@! TO.N,/3V3*
X135495000Y-66395600D03*
D10*
G04 #@! TO.N,GND*
G04 #@! TO.C,C10*
G36*
X134055779Y-65921744D02*
X134078834Y-65925163D01*
X134101443Y-65930827D01*
X134123387Y-65938679D01*
X134144457Y-65948644D01*
X134164448Y-65960626D01*
X134183168Y-65974510D01*
X134200438Y-65990162D01*
X134216090Y-66007432D01*
X134229974Y-66026152D01*
X134241956Y-66046143D01*
X134251921Y-66067213D01*
X134259773Y-66089157D01*
X134265437Y-66111766D01*
X134268856Y-66134821D01*
X134270000Y-66158100D01*
X134270000Y-66633100D01*
X134268856Y-66656379D01*
X134265437Y-66679434D01*
X134259773Y-66702043D01*
X134251921Y-66723987D01*
X134241956Y-66745057D01*
X134229974Y-66765048D01*
X134216090Y-66783768D01*
X134200438Y-66801038D01*
X134183168Y-66816690D01*
X134164448Y-66830574D01*
X134144457Y-66842556D01*
X134123387Y-66852521D01*
X134101443Y-66860373D01*
X134078834Y-66866037D01*
X134055779Y-66869456D01*
X134032500Y-66870600D01*
X133457500Y-66870600D01*
X133434221Y-66869456D01*
X133411166Y-66866037D01*
X133388557Y-66860373D01*
X133366613Y-66852521D01*
X133345543Y-66842556D01*
X133325552Y-66830574D01*
X133306832Y-66816690D01*
X133289562Y-66801038D01*
X133273910Y-66783768D01*
X133260026Y-66765048D01*
X133248044Y-66745057D01*
X133238079Y-66723987D01*
X133230227Y-66702043D01*
X133224563Y-66679434D01*
X133221144Y-66656379D01*
X133220000Y-66633100D01*
X133220000Y-66158100D01*
X133221144Y-66134821D01*
X133224563Y-66111766D01*
X133230227Y-66089157D01*
X133238079Y-66067213D01*
X133248044Y-66046143D01*
X133260026Y-66026152D01*
X133273910Y-66007432D01*
X133289562Y-65990162D01*
X133306832Y-65974510D01*
X133325552Y-65960626D01*
X133345543Y-65948644D01*
X133366613Y-65938679D01*
X133388557Y-65930827D01*
X133411166Y-65925163D01*
X133434221Y-65921744D01*
X133457500Y-65920600D01*
X134032500Y-65920600D01*
X134055779Y-65921744D01*
X134055779Y-65921744D01*
G37*
D11*
G04 #@! TD*
G04 #@! TO.P,C10,2*
G04 #@! TO.N,GND*
X133745000Y-66395600D03*
D10*
G04 #@! TO.N,/3V3*
G04 #@! TO.C,C11*
G36*
X135958179Y-56980944D02*
X135981234Y-56984363D01*
X136003843Y-56990027D01*
X136025787Y-56997879D01*
X136046857Y-57007844D01*
X136066848Y-57019826D01*
X136085568Y-57033710D01*
X136102838Y-57049362D01*
X136118490Y-57066632D01*
X136132374Y-57085352D01*
X136144356Y-57105343D01*
X136154321Y-57126413D01*
X136162173Y-57148357D01*
X136167837Y-57170966D01*
X136171256Y-57194021D01*
X136172400Y-57217300D01*
X136172400Y-57692300D01*
X136171256Y-57715579D01*
X136167837Y-57738634D01*
X136162173Y-57761243D01*
X136154321Y-57783187D01*
X136144356Y-57804257D01*
X136132374Y-57824248D01*
X136118490Y-57842968D01*
X136102838Y-57860238D01*
X136085568Y-57875890D01*
X136066848Y-57889774D01*
X136046857Y-57901756D01*
X136025787Y-57911721D01*
X136003843Y-57919573D01*
X135981234Y-57925237D01*
X135958179Y-57928656D01*
X135934900Y-57929800D01*
X135359900Y-57929800D01*
X135336621Y-57928656D01*
X135313566Y-57925237D01*
X135290957Y-57919573D01*
X135269013Y-57911721D01*
X135247943Y-57901756D01*
X135227952Y-57889774D01*
X135209232Y-57875890D01*
X135191962Y-57860238D01*
X135176310Y-57842968D01*
X135162426Y-57824248D01*
X135150444Y-57804257D01*
X135140479Y-57783187D01*
X135132627Y-57761243D01*
X135126963Y-57738634D01*
X135123544Y-57715579D01*
X135122400Y-57692300D01*
X135122400Y-57217300D01*
X135123544Y-57194021D01*
X135126963Y-57170966D01*
X135132627Y-57148357D01*
X135140479Y-57126413D01*
X135150444Y-57105343D01*
X135162426Y-57085352D01*
X135176310Y-57066632D01*
X135191962Y-57049362D01*
X135209232Y-57033710D01*
X135227952Y-57019826D01*
X135247943Y-57007844D01*
X135269013Y-56997879D01*
X135290957Y-56990027D01*
X135313566Y-56984363D01*
X135336621Y-56980944D01*
X135359900Y-56979800D01*
X135934900Y-56979800D01*
X135958179Y-56980944D01*
X135958179Y-56980944D01*
G37*
D11*
G04 #@! TD*
G04 #@! TO.P,C11,1*
G04 #@! TO.N,/3V3*
X135647400Y-57454800D03*
D10*
G04 #@! TO.N,GND*
G04 #@! TO.C,C11*
G36*
X134208179Y-56980944D02*
X134231234Y-56984363D01*
X134253843Y-56990027D01*
X134275787Y-56997879D01*
X134296857Y-57007844D01*
X134316848Y-57019826D01*
X134335568Y-57033710D01*
X134352838Y-57049362D01*
X134368490Y-57066632D01*
X134382374Y-57085352D01*
X134394356Y-57105343D01*
X134404321Y-57126413D01*
X134412173Y-57148357D01*
X134417837Y-57170966D01*
X134421256Y-57194021D01*
X134422400Y-57217300D01*
X134422400Y-57692300D01*
X134421256Y-57715579D01*
X134417837Y-57738634D01*
X134412173Y-57761243D01*
X134404321Y-57783187D01*
X134394356Y-57804257D01*
X134382374Y-57824248D01*
X134368490Y-57842968D01*
X134352838Y-57860238D01*
X134335568Y-57875890D01*
X134316848Y-57889774D01*
X134296857Y-57901756D01*
X134275787Y-57911721D01*
X134253843Y-57919573D01*
X134231234Y-57925237D01*
X134208179Y-57928656D01*
X134184900Y-57929800D01*
X133609900Y-57929800D01*
X133586621Y-57928656D01*
X133563566Y-57925237D01*
X133540957Y-57919573D01*
X133519013Y-57911721D01*
X133497943Y-57901756D01*
X133477952Y-57889774D01*
X133459232Y-57875890D01*
X133441962Y-57860238D01*
X133426310Y-57842968D01*
X133412426Y-57824248D01*
X133400444Y-57804257D01*
X133390479Y-57783187D01*
X133382627Y-57761243D01*
X133376963Y-57738634D01*
X133373544Y-57715579D01*
X133372400Y-57692300D01*
X133372400Y-57217300D01*
X133373544Y-57194021D01*
X133376963Y-57170966D01*
X133382627Y-57148357D01*
X133390479Y-57126413D01*
X133400444Y-57105343D01*
X133412426Y-57085352D01*
X133426310Y-57066632D01*
X133441962Y-57049362D01*
X133459232Y-57033710D01*
X133477952Y-57019826D01*
X133497943Y-57007844D01*
X133519013Y-56997879D01*
X133540957Y-56990027D01*
X133563566Y-56984363D01*
X133586621Y-56980944D01*
X133609900Y-56979800D01*
X134184900Y-56979800D01*
X134208179Y-56980944D01*
X134208179Y-56980944D01*
G37*
D11*
G04 #@! TD*
G04 #@! TO.P,C11,2*
G04 #@! TO.N,GND*
X133897400Y-57454800D03*
D10*
G04 #@! TO.N,GND*
G04 #@! TO.C,C12*
G36*
X160330779Y-99856144D02*
X160353834Y-99859563D01*
X160376443Y-99865227D01*
X160398387Y-99873079D01*
X160419457Y-99883044D01*
X160439448Y-99895026D01*
X160458168Y-99908910D01*
X160475438Y-99924562D01*
X160491090Y-99941832D01*
X160504974Y-99960552D01*
X160516956Y-99980543D01*
X160526921Y-100001613D01*
X160534773Y-100023557D01*
X160540437Y-100046166D01*
X160543856Y-100069221D01*
X160545000Y-100092500D01*
X160545000Y-100567500D01*
X160543856Y-100590779D01*
X160540437Y-100613834D01*
X160534773Y-100636443D01*
X160526921Y-100658387D01*
X160516956Y-100679457D01*
X160504974Y-100699448D01*
X160491090Y-100718168D01*
X160475438Y-100735438D01*
X160458168Y-100751090D01*
X160439448Y-100764974D01*
X160419457Y-100776956D01*
X160398387Y-100786921D01*
X160376443Y-100794773D01*
X160353834Y-100800437D01*
X160330779Y-100803856D01*
X160307500Y-100805000D01*
X159732500Y-100805000D01*
X159709221Y-100803856D01*
X159686166Y-100800437D01*
X159663557Y-100794773D01*
X159641613Y-100786921D01*
X159620543Y-100776956D01*
X159600552Y-100764974D01*
X159581832Y-100751090D01*
X159564562Y-100735438D01*
X159548910Y-100718168D01*
X159535026Y-100699448D01*
X159523044Y-100679457D01*
X159513079Y-100658387D01*
X159505227Y-100636443D01*
X159499563Y-100613834D01*
X159496144Y-100590779D01*
X159495000Y-100567500D01*
X159495000Y-100092500D01*
X159496144Y-100069221D01*
X159499563Y-100046166D01*
X159505227Y-100023557D01*
X159513079Y-100001613D01*
X159523044Y-99980543D01*
X159535026Y-99960552D01*
X159548910Y-99941832D01*
X159564562Y-99924562D01*
X159581832Y-99908910D01*
X159600552Y-99895026D01*
X159620543Y-99883044D01*
X159641613Y-99873079D01*
X159663557Y-99865227D01*
X159686166Y-99859563D01*
X159709221Y-99856144D01*
X159732500Y-99855000D01*
X160307500Y-99855000D01*
X160330779Y-99856144D01*
X160330779Y-99856144D01*
G37*
D11*
G04 #@! TD*
G04 #@! TO.P,C12,1*
G04 #@! TO.N,GND*
X160020000Y-100330000D03*
D10*
G04 #@! TO.N,/V_USB*
G04 #@! TO.C,C12*
G36*
X158580779Y-99856144D02*
X158603834Y-99859563D01*
X158626443Y-99865227D01*
X158648387Y-99873079D01*
X158669457Y-99883044D01*
X158689448Y-99895026D01*
X158708168Y-99908910D01*
X158725438Y-99924562D01*
X158741090Y-99941832D01*
X158754974Y-99960552D01*
X158766956Y-99980543D01*
X158776921Y-100001613D01*
X158784773Y-100023557D01*
X158790437Y-100046166D01*
X158793856Y-100069221D01*
X158795000Y-100092500D01*
X158795000Y-100567500D01*
X158793856Y-100590779D01*
X158790437Y-100613834D01*
X158784773Y-100636443D01*
X158776921Y-100658387D01*
X158766956Y-100679457D01*
X158754974Y-100699448D01*
X158741090Y-100718168D01*
X158725438Y-100735438D01*
X158708168Y-100751090D01*
X158689448Y-100764974D01*
X158669457Y-100776956D01*
X158648387Y-100786921D01*
X158626443Y-100794773D01*
X158603834Y-100800437D01*
X158580779Y-100803856D01*
X158557500Y-100805000D01*
X157982500Y-100805000D01*
X157959221Y-100803856D01*
X157936166Y-100800437D01*
X157913557Y-100794773D01*
X157891613Y-100786921D01*
X157870543Y-100776956D01*
X157850552Y-100764974D01*
X157831832Y-100751090D01*
X157814562Y-100735438D01*
X157798910Y-100718168D01*
X157785026Y-100699448D01*
X157773044Y-100679457D01*
X157763079Y-100658387D01*
X157755227Y-100636443D01*
X157749563Y-100613834D01*
X157746144Y-100590779D01*
X157745000Y-100567500D01*
X157745000Y-100092500D01*
X157746144Y-100069221D01*
X157749563Y-100046166D01*
X157755227Y-100023557D01*
X157763079Y-100001613D01*
X157773044Y-99980543D01*
X157785026Y-99960552D01*
X157798910Y-99941832D01*
X157814562Y-99924562D01*
X157831832Y-99908910D01*
X157850552Y-99895026D01*
X157870543Y-99883044D01*
X157891613Y-99873079D01*
X157913557Y-99865227D01*
X157936166Y-99859563D01*
X157959221Y-99856144D01*
X157982500Y-99855000D01*
X158557500Y-99855000D01*
X158580779Y-99856144D01*
X158580779Y-99856144D01*
G37*
D11*
G04 #@! TD*
G04 #@! TO.P,C12,2*
G04 #@! TO.N,/V_USB*
X158270000Y-100330000D03*
D12*
G04 #@! TO.P,D1,2*
G04 #@! TO.N,Net-(D1-Pad2)*
X159232600Y-64008000D03*
D13*
G04 #@! TO.P,D1,1*
G04 #@! TO.N,Net-(D1-Pad1)*
X156692600Y-64008000D03*
G04 #@! TD*
D10*
G04 #@! TO.N,Net-(D3-Pad1)*
G04 #@! TO.C,D3*
G36*
X160358779Y-116620144D02*
X160381834Y-116623563D01*
X160404443Y-116629227D01*
X160426387Y-116637079D01*
X160447457Y-116647044D01*
X160467448Y-116659026D01*
X160486168Y-116672910D01*
X160503438Y-116688562D01*
X160519090Y-116705832D01*
X160532974Y-116724552D01*
X160544956Y-116744543D01*
X160554921Y-116765613D01*
X160562773Y-116787557D01*
X160568437Y-116810166D01*
X160571856Y-116833221D01*
X160573000Y-116856500D01*
X160573000Y-117331500D01*
X160571856Y-117354779D01*
X160568437Y-117377834D01*
X160562773Y-117400443D01*
X160554921Y-117422387D01*
X160544956Y-117443457D01*
X160532974Y-117463448D01*
X160519090Y-117482168D01*
X160503438Y-117499438D01*
X160486168Y-117515090D01*
X160467448Y-117528974D01*
X160447457Y-117540956D01*
X160426387Y-117550921D01*
X160404443Y-117558773D01*
X160381834Y-117564437D01*
X160358779Y-117567856D01*
X160335500Y-117569000D01*
X159760500Y-117569000D01*
X159737221Y-117567856D01*
X159714166Y-117564437D01*
X159691557Y-117558773D01*
X159669613Y-117550921D01*
X159648543Y-117540956D01*
X159628552Y-117528974D01*
X159609832Y-117515090D01*
X159592562Y-117499438D01*
X159576910Y-117482168D01*
X159563026Y-117463448D01*
X159551044Y-117443457D01*
X159541079Y-117422387D01*
X159533227Y-117400443D01*
X159527563Y-117377834D01*
X159524144Y-117354779D01*
X159523000Y-117331500D01*
X159523000Y-116856500D01*
X159524144Y-116833221D01*
X159527563Y-116810166D01*
X159533227Y-116787557D01*
X159541079Y-116765613D01*
X159551044Y-116744543D01*
X159563026Y-116724552D01*
X159576910Y-116705832D01*
X159592562Y-116688562D01*
X159609832Y-116672910D01*
X159628552Y-116659026D01*
X159648543Y-116647044D01*
X159669613Y-116637079D01*
X159691557Y-116629227D01*
X159714166Y-116623563D01*
X159737221Y-116620144D01*
X159760500Y-116619000D01*
X160335500Y-116619000D01*
X160358779Y-116620144D01*
X160358779Y-116620144D01*
G37*
D11*
G04 #@! TD*
G04 #@! TO.P,D3,1*
G04 #@! TO.N,Net-(D3-Pad1)*
X160048000Y-117094000D03*
D10*
G04 #@! TO.N,Net-(D3-Pad2)*
G04 #@! TO.C,D3*
G36*
X162108779Y-116620144D02*
X162131834Y-116623563D01*
X162154443Y-116629227D01*
X162176387Y-116637079D01*
X162197457Y-116647044D01*
X162217448Y-116659026D01*
X162236168Y-116672910D01*
X162253438Y-116688562D01*
X162269090Y-116705832D01*
X162282974Y-116724552D01*
X162294956Y-116744543D01*
X162304921Y-116765613D01*
X162312773Y-116787557D01*
X162318437Y-116810166D01*
X162321856Y-116833221D01*
X162323000Y-116856500D01*
X162323000Y-117331500D01*
X162321856Y-117354779D01*
X162318437Y-117377834D01*
X162312773Y-117400443D01*
X162304921Y-117422387D01*
X162294956Y-117443457D01*
X162282974Y-117463448D01*
X162269090Y-117482168D01*
X162253438Y-117499438D01*
X162236168Y-117515090D01*
X162217448Y-117528974D01*
X162197457Y-117540956D01*
X162176387Y-117550921D01*
X162154443Y-117558773D01*
X162131834Y-117564437D01*
X162108779Y-117567856D01*
X162085500Y-117569000D01*
X161510500Y-117569000D01*
X161487221Y-117567856D01*
X161464166Y-117564437D01*
X161441557Y-117558773D01*
X161419613Y-117550921D01*
X161398543Y-117540956D01*
X161378552Y-117528974D01*
X161359832Y-117515090D01*
X161342562Y-117499438D01*
X161326910Y-117482168D01*
X161313026Y-117463448D01*
X161301044Y-117443457D01*
X161291079Y-117422387D01*
X161283227Y-117400443D01*
X161277563Y-117377834D01*
X161274144Y-117354779D01*
X161273000Y-117331500D01*
X161273000Y-116856500D01*
X161274144Y-116833221D01*
X161277563Y-116810166D01*
X161283227Y-116787557D01*
X161291079Y-116765613D01*
X161301044Y-116744543D01*
X161313026Y-116724552D01*
X161326910Y-116705832D01*
X161342562Y-116688562D01*
X161359832Y-116672910D01*
X161378552Y-116659026D01*
X161398543Y-116647044D01*
X161419613Y-116637079D01*
X161441557Y-116629227D01*
X161464166Y-116623563D01*
X161487221Y-116620144D01*
X161510500Y-116619000D01*
X162085500Y-116619000D01*
X162108779Y-116620144D01*
X162108779Y-116620144D01*
G37*
D11*
G04 #@! TD*
G04 #@! TO.P,D3,2*
G04 #@! TO.N,Net-(D3-Pad2)*
X161798000Y-117094000D03*
D14*
G04 #@! TO.P,D6,2*
G04 #@! TO.N,/V_USB*
X149783800Y-113949800D03*
G04 #@! TO.P,D6,1*
G04 #@! TO.N,/V_IN*
X149783800Y-111449800D03*
G04 #@! TD*
D15*
G04 #@! TO.P,J1,1*
G04 #@! TO.N,GND*
X156667200Y-124587000D03*
D16*
G04 #@! TO.P,J1,2*
X156667200Y-122047000D03*
G04 #@! TO.P,J1,3*
G04 #@! TO.N,/V_BAT*
X154127200Y-124587000D03*
G04 #@! TO.P,J1,4*
G04 #@! TO.N,/V_USB*
X154127200Y-122047000D03*
G04 #@! TO.P,J1,5*
G04 #@! TO.N,/3V3*
X151587200Y-124587000D03*
G04 #@! TO.P,J1,6*
G04 #@! TO.N,/TXD*
X151587200Y-122047000D03*
G04 #@! TO.P,J1,7*
G04 #@! TO.N,/RELAY*
X149047200Y-124587000D03*
G04 #@! TO.P,J1,8*
G04 #@! TO.N,/RXD*
X149047200Y-122047000D03*
G04 #@! TO.P,J1,9*
G04 #@! TO.N,/SCL*
X146507200Y-124587000D03*
G04 #@! TO.P,J1,10*
G04 #@! TO.N,/SDA*
X146507200Y-122047000D03*
G04 #@! TO.P,J1,11*
G04 #@! TO.N,/I2S_WS*
X143967200Y-124587000D03*
G04 #@! TO.P,J1,12*
G04 #@! TO.N,/IS2_DATA_IN*
X143967200Y-122047000D03*
G04 #@! TO.P,J1,13*
G04 #@! TO.N,/I2S_BCLK*
X141427200Y-124587000D03*
G04 #@! TO.P,J1,14*
G04 #@! TO.N,/I2S_DATA_OUT*
X141427200Y-122047000D03*
G04 #@! TO.P,J1,15*
G04 #@! TO.N,/PROG*
X138887200Y-124587000D03*
G04 #@! TO.P,J1,16*
G04 #@! TO.N,/ZERO_DETECT*
X138887200Y-122047000D03*
G04 #@! TD*
D17*
G04 #@! TO.P,LS1,1*
G04 #@! TO.N,Net-(LS1-Pad1)*
X146253200Y-116828400D03*
G04 #@! TO.P,LS1,2*
G04 #@! TO.N,Net-(LS1-Pad2)*
X146253200Y-109228400D03*
G04 #@! TD*
D18*
G04 #@! TO.P,Q1,1*
G04 #@! TO.N,Net-(Q1-Pad1)*
X154702000Y-69276000D03*
G04 #@! TO.P,Q1,2*
G04 #@! TO.N,GND*
X154702000Y-67376000D03*
G04 #@! TO.P,Q1,3*
G04 #@! TO.N,Net-(D1-Pad1)*
X156702000Y-68326000D03*
G04 #@! TD*
D19*
G04 #@! TO.P,Q4,3*
G04 #@! TO.N,/V_BAT*
X150418800Y-118246400D03*
G04 #@! TO.P,Q4,2*
G04 #@! TO.N,/V_IN*
X151368800Y-116246400D03*
G04 #@! TO.P,Q4,1*
G04 #@! TO.N,/V_USB*
X149468800Y-116246400D03*
G04 #@! TD*
D10*
G04 #@! TO.N,Net-(R1-Pad1)*
G04 #@! TO.C,R1*
G36*
X158660779Y-92356144D02*
X158683834Y-92359563D01*
X158706443Y-92365227D01*
X158728387Y-92373079D01*
X158749457Y-92383044D01*
X158769448Y-92395026D01*
X158788168Y-92408910D01*
X158805438Y-92424562D01*
X158821090Y-92441832D01*
X158834974Y-92460552D01*
X158846956Y-92480543D01*
X158856921Y-92501613D01*
X158864773Y-92523557D01*
X158870437Y-92546166D01*
X158873856Y-92569221D01*
X158875000Y-92592500D01*
X158875000Y-93067500D01*
X158873856Y-93090779D01*
X158870437Y-93113834D01*
X158864773Y-93136443D01*
X158856921Y-93158387D01*
X158846956Y-93179457D01*
X158834974Y-93199448D01*
X158821090Y-93218168D01*
X158805438Y-93235438D01*
X158788168Y-93251090D01*
X158769448Y-93264974D01*
X158749457Y-93276956D01*
X158728387Y-93286921D01*
X158706443Y-93294773D01*
X158683834Y-93300437D01*
X158660779Y-93303856D01*
X158637500Y-93305000D01*
X158062500Y-93305000D01*
X158039221Y-93303856D01*
X158016166Y-93300437D01*
X157993557Y-93294773D01*
X157971613Y-93286921D01*
X157950543Y-93276956D01*
X157930552Y-93264974D01*
X157911832Y-93251090D01*
X157894562Y-93235438D01*
X157878910Y-93218168D01*
X157865026Y-93199448D01*
X157853044Y-93179457D01*
X157843079Y-93158387D01*
X157835227Y-93136443D01*
X157829563Y-93113834D01*
X157826144Y-93090779D01*
X157825000Y-93067500D01*
X157825000Y-92592500D01*
X157826144Y-92569221D01*
X157829563Y-92546166D01*
X157835227Y-92523557D01*
X157843079Y-92501613D01*
X157853044Y-92480543D01*
X157865026Y-92460552D01*
X157878910Y-92441832D01*
X157894562Y-92424562D01*
X157911832Y-92408910D01*
X157930552Y-92395026D01*
X157950543Y-92383044D01*
X157971613Y-92373079D01*
X157993557Y-92365227D01*
X158016166Y-92359563D01*
X158039221Y-92356144D01*
X158062500Y-92355000D01*
X158637500Y-92355000D01*
X158660779Y-92356144D01*
X158660779Y-92356144D01*
G37*
D11*
G04 #@! TD*
G04 #@! TO.P,R1,1*
G04 #@! TO.N,Net-(R1-Pad1)*
X158350000Y-92830000D03*
D10*
G04 #@! TO.N,/I2S_BCLK*
G04 #@! TO.C,R1*
G36*
X160410779Y-92356144D02*
X160433834Y-92359563D01*
X160456443Y-92365227D01*
X160478387Y-92373079D01*
X160499457Y-92383044D01*
X160519448Y-92395026D01*
X160538168Y-92408910D01*
X160555438Y-92424562D01*
X160571090Y-92441832D01*
X160584974Y-92460552D01*
X160596956Y-92480543D01*
X160606921Y-92501613D01*
X160614773Y-92523557D01*
X160620437Y-92546166D01*
X160623856Y-92569221D01*
X160625000Y-92592500D01*
X160625000Y-93067500D01*
X160623856Y-93090779D01*
X160620437Y-93113834D01*
X160614773Y-93136443D01*
X160606921Y-93158387D01*
X160596956Y-93179457D01*
X160584974Y-93199448D01*
X160571090Y-93218168D01*
X160555438Y-93235438D01*
X160538168Y-93251090D01*
X160519448Y-93264974D01*
X160499457Y-93276956D01*
X160478387Y-93286921D01*
X160456443Y-93294773D01*
X160433834Y-93300437D01*
X160410779Y-93303856D01*
X160387500Y-93305000D01*
X159812500Y-93305000D01*
X159789221Y-93303856D01*
X159766166Y-93300437D01*
X159743557Y-93294773D01*
X159721613Y-93286921D01*
X159700543Y-93276956D01*
X159680552Y-93264974D01*
X159661832Y-93251090D01*
X159644562Y-93235438D01*
X159628910Y-93218168D01*
X159615026Y-93199448D01*
X159603044Y-93179457D01*
X159593079Y-93158387D01*
X159585227Y-93136443D01*
X159579563Y-93113834D01*
X159576144Y-93090779D01*
X159575000Y-93067500D01*
X159575000Y-92592500D01*
X159576144Y-92569221D01*
X159579563Y-92546166D01*
X159585227Y-92523557D01*
X159593079Y-92501613D01*
X159603044Y-92480543D01*
X159615026Y-92460552D01*
X159628910Y-92441832D01*
X159644562Y-92424562D01*
X159661832Y-92408910D01*
X159680552Y-92395026D01*
X159700543Y-92383044D01*
X159721613Y-92373079D01*
X159743557Y-92365227D01*
X159766166Y-92359563D01*
X159789221Y-92356144D01*
X159812500Y-92355000D01*
X160387500Y-92355000D01*
X160410779Y-92356144D01*
X160410779Y-92356144D01*
G37*
D11*
G04 #@! TD*
G04 #@! TO.P,R1,2*
G04 #@! TO.N,/I2S_BCLK*
X160100000Y-92830000D03*
D10*
G04 #@! TO.N,/SCL*
G04 #@! TO.C,R2*
G36*
X137680779Y-59561144D02*
X137703834Y-59564563D01*
X137726443Y-59570227D01*
X137748387Y-59578079D01*
X137769457Y-59588044D01*
X137789448Y-59600026D01*
X137808168Y-59613910D01*
X137825438Y-59629562D01*
X137841090Y-59646832D01*
X137854974Y-59665552D01*
X137866956Y-59685543D01*
X137876921Y-59706613D01*
X137884773Y-59728557D01*
X137890437Y-59751166D01*
X137893856Y-59774221D01*
X137895000Y-59797500D01*
X137895000Y-60372500D01*
X137893856Y-60395779D01*
X137890437Y-60418834D01*
X137884773Y-60441443D01*
X137876921Y-60463387D01*
X137866956Y-60484457D01*
X137854974Y-60504448D01*
X137841090Y-60523168D01*
X137825438Y-60540438D01*
X137808168Y-60556090D01*
X137789448Y-60569974D01*
X137769457Y-60581956D01*
X137748387Y-60591921D01*
X137726443Y-60599773D01*
X137703834Y-60605437D01*
X137680779Y-60608856D01*
X137657500Y-60610000D01*
X137182500Y-60610000D01*
X137159221Y-60608856D01*
X137136166Y-60605437D01*
X137113557Y-60599773D01*
X137091613Y-60591921D01*
X137070543Y-60581956D01*
X137050552Y-60569974D01*
X137031832Y-60556090D01*
X137014562Y-60540438D01*
X136998910Y-60523168D01*
X136985026Y-60504448D01*
X136973044Y-60484457D01*
X136963079Y-60463387D01*
X136955227Y-60441443D01*
X136949563Y-60418834D01*
X136946144Y-60395779D01*
X136945000Y-60372500D01*
X136945000Y-59797500D01*
X136946144Y-59774221D01*
X136949563Y-59751166D01*
X136955227Y-59728557D01*
X136963079Y-59706613D01*
X136973044Y-59685543D01*
X136985026Y-59665552D01*
X136998910Y-59646832D01*
X137014562Y-59629562D01*
X137031832Y-59613910D01*
X137050552Y-59600026D01*
X137070543Y-59588044D01*
X137091613Y-59578079D01*
X137113557Y-59570227D01*
X137136166Y-59564563D01*
X137159221Y-59561144D01*
X137182500Y-59560000D01*
X137657500Y-59560000D01*
X137680779Y-59561144D01*
X137680779Y-59561144D01*
G37*
D11*
G04 #@! TD*
G04 #@! TO.P,R2,2*
G04 #@! TO.N,/SCL*
X137420000Y-60085000D03*
D10*
G04 #@! TO.N,/3V3*
G04 #@! TO.C,R2*
G36*
X137680779Y-57811144D02*
X137703834Y-57814563D01*
X137726443Y-57820227D01*
X137748387Y-57828079D01*
X137769457Y-57838044D01*
X137789448Y-57850026D01*
X137808168Y-57863910D01*
X137825438Y-57879562D01*
X137841090Y-57896832D01*
X137854974Y-57915552D01*
X137866956Y-57935543D01*
X137876921Y-57956613D01*
X137884773Y-57978557D01*
X137890437Y-58001166D01*
X137893856Y-58024221D01*
X137895000Y-58047500D01*
X137895000Y-58622500D01*
X137893856Y-58645779D01*
X137890437Y-58668834D01*
X137884773Y-58691443D01*
X137876921Y-58713387D01*
X137866956Y-58734457D01*
X137854974Y-58754448D01*
X137841090Y-58773168D01*
X137825438Y-58790438D01*
X137808168Y-58806090D01*
X137789448Y-58819974D01*
X137769457Y-58831956D01*
X137748387Y-58841921D01*
X137726443Y-58849773D01*
X137703834Y-58855437D01*
X137680779Y-58858856D01*
X137657500Y-58860000D01*
X137182500Y-58860000D01*
X137159221Y-58858856D01*
X137136166Y-58855437D01*
X137113557Y-58849773D01*
X137091613Y-58841921D01*
X137070543Y-58831956D01*
X137050552Y-58819974D01*
X137031832Y-58806090D01*
X137014562Y-58790438D01*
X136998910Y-58773168D01*
X136985026Y-58754448D01*
X136973044Y-58734457D01*
X136963079Y-58713387D01*
X136955227Y-58691443D01*
X136949563Y-58668834D01*
X136946144Y-58645779D01*
X136945000Y-58622500D01*
X136945000Y-58047500D01*
X136946144Y-58024221D01*
X136949563Y-58001166D01*
X136955227Y-57978557D01*
X136963079Y-57956613D01*
X136973044Y-57935543D01*
X136985026Y-57915552D01*
X136998910Y-57896832D01*
X137014562Y-57879562D01*
X137031832Y-57863910D01*
X137050552Y-57850026D01*
X137070543Y-57838044D01*
X137091613Y-57828079D01*
X137113557Y-57820227D01*
X137136166Y-57814563D01*
X137159221Y-57811144D01*
X137182500Y-57810000D01*
X137657500Y-57810000D01*
X137680779Y-57811144D01*
X137680779Y-57811144D01*
G37*
D11*
G04 #@! TD*
G04 #@! TO.P,R2,1*
G04 #@! TO.N,/3V3*
X137420000Y-58335000D03*
D10*
G04 #@! TO.N,/IR_RX*
G04 #@! TO.C,R3*
G36*
X157423779Y-60740144D02*
X157446834Y-60743563D01*
X157469443Y-60749227D01*
X157491387Y-60757079D01*
X157512457Y-60767044D01*
X157532448Y-60779026D01*
X157551168Y-60792910D01*
X157568438Y-60808562D01*
X157584090Y-60825832D01*
X157597974Y-60844552D01*
X157609956Y-60864543D01*
X157619921Y-60885613D01*
X157627773Y-60907557D01*
X157633437Y-60930166D01*
X157636856Y-60953221D01*
X157638000Y-60976500D01*
X157638000Y-61451500D01*
X157636856Y-61474779D01*
X157633437Y-61497834D01*
X157627773Y-61520443D01*
X157619921Y-61542387D01*
X157609956Y-61563457D01*
X157597974Y-61583448D01*
X157584090Y-61602168D01*
X157568438Y-61619438D01*
X157551168Y-61635090D01*
X157532448Y-61648974D01*
X157512457Y-61660956D01*
X157491387Y-61670921D01*
X157469443Y-61678773D01*
X157446834Y-61684437D01*
X157423779Y-61687856D01*
X157400500Y-61689000D01*
X156825500Y-61689000D01*
X156802221Y-61687856D01*
X156779166Y-61684437D01*
X156756557Y-61678773D01*
X156734613Y-61670921D01*
X156713543Y-61660956D01*
X156693552Y-61648974D01*
X156674832Y-61635090D01*
X156657562Y-61619438D01*
X156641910Y-61602168D01*
X156628026Y-61583448D01*
X156616044Y-61563457D01*
X156606079Y-61542387D01*
X156598227Y-61520443D01*
X156592563Y-61497834D01*
X156589144Y-61474779D01*
X156588000Y-61451500D01*
X156588000Y-60976500D01*
X156589144Y-60953221D01*
X156592563Y-60930166D01*
X156598227Y-60907557D01*
X156606079Y-60885613D01*
X156616044Y-60864543D01*
X156628026Y-60844552D01*
X156641910Y-60825832D01*
X156657562Y-60808562D01*
X156674832Y-60792910D01*
X156693552Y-60779026D01*
X156713543Y-60767044D01*
X156734613Y-60757079D01*
X156756557Y-60749227D01*
X156779166Y-60743563D01*
X156802221Y-60740144D01*
X156825500Y-60739000D01*
X157400500Y-60739000D01*
X157423779Y-60740144D01*
X157423779Y-60740144D01*
G37*
D11*
G04 #@! TD*
G04 #@! TO.P,R3,1*
G04 #@! TO.N,/IR_RX*
X157113000Y-61214000D03*
D10*
G04 #@! TO.N,Net-(R3-Pad2)*
G04 #@! TO.C,R3*
G36*
X159173779Y-60740144D02*
X159196834Y-60743563D01*
X159219443Y-60749227D01*
X159241387Y-60757079D01*
X159262457Y-60767044D01*
X159282448Y-60779026D01*
X159301168Y-60792910D01*
X159318438Y-60808562D01*
X159334090Y-60825832D01*
X159347974Y-60844552D01*
X159359956Y-60864543D01*
X159369921Y-60885613D01*
X159377773Y-60907557D01*
X159383437Y-60930166D01*
X159386856Y-60953221D01*
X159388000Y-60976500D01*
X159388000Y-61451500D01*
X159386856Y-61474779D01*
X159383437Y-61497834D01*
X159377773Y-61520443D01*
X159369921Y-61542387D01*
X159359956Y-61563457D01*
X159347974Y-61583448D01*
X159334090Y-61602168D01*
X159318438Y-61619438D01*
X159301168Y-61635090D01*
X159282448Y-61648974D01*
X159262457Y-61660956D01*
X159241387Y-61670921D01*
X159219443Y-61678773D01*
X159196834Y-61684437D01*
X159173779Y-61687856D01*
X159150500Y-61689000D01*
X158575500Y-61689000D01*
X158552221Y-61687856D01*
X158529166Y-61684437D01*
X158506557Y-61678773D01*
X158484613Y-61670921D01*
X158463543Y-61660956D01*
X158443552Y-61648974D01*
X158424832Y-61635090D01*
X158407562Y-61619438D01*
X158391910Y-61602168D01*
X158378026Y-61583448D01*
X158366044Y-61563457D01*
X158356079Y-61542387D01*
X158348227Y-61520443D01*
X158342563Y-61497834D01*
X158339144Y-61474779D01*
X158338000Y-61451500D01*
X158338000Y-60976500D01*
X158339144Y-60953221D01*
X158342563Y-60930166D01*
X158348227Y-60907557D01*
X158356079Y-60885613D01*
X158366044Y-60864543D01*
X158378026Y-60844552D01*
X158391910Y-60825832D01*
X158407562Y-60808562D01*
X158424832Y-60792910D01*
X158443552Y-60779026D01*
X158463543Y-60767044D01*
X158484613Y-60757079D01*
X158506557Y-60749227D01*
X158529166Y-60743563D01*
X158552221Y-60740144D01*
X158575500Y-60739000D01*
X159150500Y-60739000D01*
X159173779Y-60740144D01*
X159173779Y-60740144D01*
G37*
D11*
G04 #@! TD*
G04 #@! TO.P,R3,2*
G04 #@! TO.N,Net-(R3-Pad2)*
X158863000Y-61214000D03*
D10*
G04 #@! TO.N,/IR_TX*
G04 #@! TO.C,R4*
G36*
X153168779Y-66927144D02*
X153191834Y-66930563D01*
X153214443Y-66936227D01*
X153236387Y-66944079D01*
X153257457Y-66954044D01*
X153277448Y-66966026D01*
X153296168Y-66979910D01*
X153313438Y-66995562D01*
X153329090Y-67012832D01*
X153342974Y-67031552D01*
X153354956Y-67051543D01*
X153364921Y-67072613D01*
X153372773Y-67094557D01*
X153378437Y-67117166D01*
X153381856Y-67140221D01*
X153383000Y-67163500D01*
X153383000Y-67738500D01*
X153381856Y-67761779D01*
X153378437Y-67784834D01*
X153372773Y-67807443D01*
X153364921Y-67829387D01*
X153354956Y-67850457D01*
X153342974Y-67870448D01*
X153329090Y-67889168D01*
X153313438Y-67906438D01*
X153296168Y-67922090D01*
X153277448Y-67935974D01*
X153257457Y-67947956D01*
X153236387Y-67957921D01*
X153214443Y-67965773D01*
X153191834Y-67971437D01*
X153168779Y-67974856D01*
X153145500Y-67976000D01*
X152670500Y-67976000D01*
X152647221Y-67974856D01*
X152624166Y-67971437D01*
X152601557Y-67965773D01*
X152579613Y-67957921D01*
X152558543Y-67947956D01*
X152538552Y-67935974D01*
X152519832Y-67922090D01*
X152502562Y-67906438D01*
X152486910Y-67889168D01*
X152473026Y-67870448D01*
X152461044Y-67850457D01*
X152451079Y-67829387D01*
X152443227Y-67807443D01*
X152437563Y-67784834D01*
X152434144Y-67761779D01*
X152433000Y-67738500D01*
X152433000Y-67163500D01*
X152434144Y-67140221D01*
X152437563Y-67117166D01*
X152443227Y-67094557D01*
X152451079Y-67072613D01*
X152461044Y-67051543D01*
X152473026Y-67031552D01*
X152486910Y-67012832D01*
X152502562Y-66995562D01*
X152519832Y-66979910D01*
X152538552Y-66966026D01*
X152558543Y-66954044D01*
X152579613Y-66944079D01*
X152601557Y-66936227D01*
X152624166Y-66930563D01*
X152647221Y-66927144D01*
X152670500Y-66926000D01*
X153145500Y-66926000D01*
X153168779Y-66927144D01*
X153168779Y-66927144D01*
G37*
D11*
G04 #@! TD*
G04 #@! TO.P,R4,2*
G04 #@! TO.N,/IR_TX*
X152908000Y-67451000D03*
D10*
G04 #@! TO.N,Net-(Q1-Pad1)*
G04 #@! TO.C,R4*
G36*
X153168779Y-68677144D02*
X153191834Y-68680563D01*
X153214443Y-68686227D01*
X153236387Y-68694079D01*
X153257457Y-68704044D01*
X153277448Y-68716026D01*
X153296168Y-68729910D01*
X153313438Y-68745562D01*
X153329090Y-68762832D01*
X153342974Y-68781552D01*
X153354956Y-68801543D01*
X153364921Y-68822613D01*
X153372773Y-68844557D01*
X153378437Y-68867166D01*
X153381856Y-68890221D01*
X153383000Y-68913500D01*
X153383000Y-69488500D01*
X153381856Y-69511779D01*
X153378437Y-69534834D01*
X153372773Y-69557443D01*
X153364921Y-69579387D01*
X153354956Y-69600457D01*
X153342974Y-69620448D01*
X153329090Y-69639168D01*
X153313438Y-69656438D01*
X153296168Y-69672090D01*
X153277448Y-69685974D01*
X153257457Y-69697956D01*
X153236387Y-69707921D01*
X153214443Y-69715773D01*
X153191834Y-69721437D01*
X153168779Y-69724856D01*
X153145500Y-69726000D01*
X152670500Y-69726000D01*
X152647221Y-69724856D01*
X152624166Y-69721437D01*
X152601557Y-69715773D01*
X152579613Y-69707921D01*
X152558543Y-69697956D01*
X152538552Y-69685974D01*
X152519832Y-69672090D01*
X152502562Y-69656438D01*
X152486910Y-69639168D01*
X152473026Y-69620448D01*
X152461044Y-69600457D01*
X152451079Y-69579387D01*
X152443227Y-69557443D01*
X152437563Y-69534834D01*
X152434144Y-69511779D01*
X152433000Y-69488500D01*
X152433000Y-68913500D01*
X152434144Y-68890221D01*
X152437563Y-68867166D01*
X152443227Y-68844557D01*
X152451079Y-68822613D01*
X152461044Y-68801543D01*
X152473026Y-68781552D01*
X152486910Y-68762832D01*
X152502562Y-68745562D01*
X152519832Y-68729910D01*
X152538552Y-68716026D01*
X152558543Y-68704044D01*
X152579613Y-68694079D01*
X152601557Y-68686227D01*
X152624166Y-68680563D01*
X152647221Y-68677144D01*
X152670500Y-68676000D01*
X153145500Y-68676000D01*
X153168779Y-68677144D01*
X153168779Y-68677144D01*
G37*
D11*
G04 #@! TD*
G04 #@! TO.P,R4,1*
G04 #@! TO.N,Net-(Q1-Pad1)*
X152908000Y-69201000D03*
D10*
G04 #@! TO.N,Net-(D1-Pad2)*
G04 #@! TO.C,R5*
G36*
X158693779Y-68614144D02*
X158716834Y-68617563D01*
X158739443Y-68623227D01*
X158761387Y-68631079D01*
X158782457Y-68641044D01*
X158802448Y-68653026D01*
X158821168Y-68666910D01*
X158838438Y-68682562D01*
X158854090Y-68699832D01*
X158867974Y-68718552D01*
X158879956Y-68738543D01*
X158889921Y-68759613D01*
X158897773Y-68781557D01*
X158903437Y-68804166D01*
X158906856Y-68827221D01*
X158908000Y-68850500D01*
X158908000Y-69325500D01*
X158906856Y-69348779D01*
X158903437Y-69371834D01*
X158897773Y-69394443D01*
X158889921Y-69416387D01*
X158879956Y-69437457D01*
X158867974Y-69457448D01*
X158854090Y-69476168D01*
X158838438Y-69493438D01*
X158821168Y-69509090D01*
X158802448Y-69522974D01*
X158782457Y-69534956D01*
X158761387Y-69544921D01*
X158739443Y-69552773D01*
X158716834Y-69558437D01*
X158693779Y-69561856D01*
X158670500Y-69563000D01*
X158095500Y-69563000D01*
X158072221Y-69561856D01*
X158049166Y-69558437D01*
X158026557Y-69552773D01*
X158004613Y-69544921D01*
X157983543Y-69534956D01*
X157963552Y-69522974D01*
X157944832Y-69509090D01*
X157927562Y-69493438D01*
X157911910Y-69476168D01*
X157898026Y-69457448D01*
X157886044Y-69437457D01*
X157876079Y-69416387D01*
X157868227Y-69394443D01*
X157862563Y-69371834D01*
X157859144Y-69348779D01*
X157858000Y-69325500D01*
X157858000Y-68850500D01*
X157859144Y-68827221D01*
X157862563Y-68804166D01*
X157868227Y-68781557D01*
X157876079Y-68759613D01*
X157886044Y-68738543D01*
X157898026Y-68718552D01*
X157911910Y-68699832D01*
X157927562Y-68682562D01*
X157944832Y-68666910D01*
X157963552Y-68653026D01*
X157983543Y-68641044D01*
X158004613Y-68631079D01*
X158026557Y-68623227D01*
X158049166Y-68617563D01*
X158072221Y-68614144D01*
X158095500Y-68613000D01*
X158670500Y-68613000D01*
X158693779Y-68614144D01*
X158693779Y-68614144D01*
G37*
D11*
G04 #@! TD*
G04 #@! TO.P,R5,2*
G04 #@! TO.N,Net-(D1-Pad2)*
X158383000Y-69088000D03*
D10*
G04 #@! TO.N,/3V3*
G04 #@! TO.C,R5*
G36*
X160443779Y-68614144D02*
X160466834Y-68617563D01*
X160489443Y-68623227D01*
X160511387Y-68631079D01*
X160532457Y-68641044D01*
X160552448Y-68653026D01*
X160571168Y-68666910D01*
X160588438Y-68682562D01*
X160604090Y-68699832D01*
X160617974Y-68718552D01*
X160629956Y-68738543D01*
X160639921Y-68759613D01*
X160647773Y-68781557D01*
X160653437Y-68804166D01*
X160656856Y-68827221D01*
X160658000Y-68850500D01*
X160658000Y-69325500D01*
X160656856Y-69348779D01*
X160653437Y-69371834D01*
X160647773Y-69394443D01*
X160639921Y-69416387D01*
X160629956Y-69437457D01*
X160617974Y-69457448D01*
X160604090Y-69476168D01*
X160588438Y-69493438D01*
X160571168Y-69509090D01*
X160552448Y-69522974D01*
X160532457Y-69534956D01*
X160511387Y-69544921D01*
X160489443Y-69552773D01*
X160466834Y-69558437D01*
X160443779Y-69561856D01*
X160420500Y-69563000D01*
X159845500Y-69563000D01*
X159822221Y-69561856D01*
X159799166Y-69558437D01*
X159776557Y-69552773D01*
X159754613Y-69544921D01*
X159733543Y-69534956D01*
X159713552Y-69522974D01*
X159694832Y-69509090D01*
X159677562Y-69493438D01*
X159661910Y-69476168D01*
X159648026Y-69457448D01*
X159636044Y-69437457D01*
X159626079Y-69416387D01*
X159618227Y-69394443D01*
X159612563Y-69371834D01*
X159609144Y-69348779D01*
X159608000Y-69325500D01*
X159608000Y-68850500D01*
X159609144Y-68827221D01*
X159612563Y-68804166D01*
X159618227Y-68781557D01*
X159626079Y-68759613D01*
X159636044Y-68738543D01*
X159648026Y-68718552D01*
X159661910Y-68699832D01*
X159677562Y-68682562D01*
X159694832Y-68666910D01*
X159713552Y-68653026D01*
X159733543Y-68641044D01*
X159754613Y-68631079D01*
X159776557Y-68623227D01*
X159799166Y-68617563D01*
X159822221Y-68614144D01*
X159845500Y-68613000D01*
X160420500Y-68613000D01*
X160443779Y-68614144D01*
X160443779Y-68614144D01*
G37*
D11*
G04 #@! TD*
G04 #@! TO.P,R5,1*
G04 #@! TO.N,/3V3*
X160133000Y-69088000D03*
D10*
G04 #@! TO.N,/3V3*
G04 #@! TO.C,R6*
G36*
X132340779Y-57706144D02*
X132363834Y-57709563D01*
X132386443Y-57715227D01*
X132408387Y-57723079D01*
X132429457Y-57733044D01*
X132449448Y-57745026D01*
X132468168Y-57758910D01*
X132485438Y-57774562D01*
X132501090Y-57791832D01*
X132514974Y-57810552D01*
X132526956Y-57830543D01*
X132536921Y-57851613D01*
X132544773Y-57873557D01*
X132550437Y-57896166D01*
X132553856Y-57919221D01*
X132555000Y-57942500D01*
X132555000Y-58517500D01*
X132553856Y-58540779D01*
X132550437Y-58563834D01*
X132544773Y-58586443D01*
X132536921Y-58608387D01*
X132526956Y-58629457D01*
X132514974Y-58649448D01*
X132501090Y-58668168D01*
X132485438Y-58685438D01*
X132468168Y-58701090D01*
X132449448Y-58714974D01*
X132429457Y-58726956D01*
X132408387Y-58736921D01*
X132386443Y-58744773D01*
X132363834Y-58750437D01*
X132340779Y-58753856D01*
X132317500Y-58755000D01*
X131842500Y-58755000D01*
X131819221Y-58753856D01*
X131796166Y-58750437D01*
X131773557Y-58744773D01*
X131751613Y-58736921D01*
X131730543Y-58726956D01*
X131710552Y-58714974D01*
X131691832Y-58701090D01*
X131674562Y-58685438D01*
X131658910Y-58668168D01*
X131645026Y-58649448D01*
X131633044Y-58629457D01*
X131623079Y-58608387D01*
X131615227Y-58586443D01*
X131609563Y-58563834D01*
X131606144Y-58540779D01*
X131605000Y-58517500D01*
X131605000Y-57942500D01*
X131606144Y-57919221D01*
X131609563Y-57896166D01*
X131615227Y-57873557D01*
X131623079Y-57851613D01*
X131633044Y-57830543D01*
X131645026Y-57810552D01*
X131658910Y-57791832D01*
X131674562Y-57774562D01*
X131691832Y-57758910D01*
X131710552Y-57745026D01*
X131730543Y-57733044D01*
X131751613Y-57723079D01*
X131773557Y-57715227D01*
X131796166Y-57709563D01*
X131819221Y-57706144D01*
X131842500Y-57705000D01*
X132317500Y-57705000D01*
X132340779Y-57706144D01*
X132340779Y-57706144D01*
G37*
D11*
G04 #@! TD*
G04 #@! TO.P,R6,1*
G04 #@! TO.N,/3V3*
X132080000Y-58230000D03*
D10*
G04 #@! TO.N,/SDA*
G04 #@! TO.C,R6*
G36*
X132340779Y-59456144D02*
X132363834Y-59459563D01*
X132386443Y-59465227D01*
X132408387Y-59473079D01*
X132429457Y-59483044D01*
X132449448Y-59495026D01*
X132468168Y-59508910D01*
X132485438Y-59524562D01*
X132501090Y-59541832D01*
X132514974Y-59560552D01*
X132526956Y-59580543D01*
X132536921Y-59601613D01*
X132544773Y-59623557D01*
X132550437Y-59646166D01*
X132553856Y-59669221D01*
X132555000Y-59692500D01*
X132555000Y-60267500D01*
X132553856Y-60290779D01*
X132550437Y-60313834D01*
X132544773Y-60336443D01*
X132536921Y-60358387D01*
X132526956Y-60379457D01*
X132514974Y-60399448D01*
X132501090Y-60418168D01*
X132485438Y-60435438D01*
X132468168Y-60451090D01*
X132449448Y-60464974D01*
X132429457Y-60476956D01*
X132408387Y-60486921D01*
X132386443Y-60494773D01*
X132363834Y-60500437D01*
X132340779Y-60503856D01*
X132317500Y-60505000D01*
X131842500Y-60505000D01*
X131819221Y-60503856D01*
X131796166Y-60500437D01*
X131773557Y-60494773D01*
X131751613Y-60486921D01*
X131730543Y-60476956D01*
X131710552Y-60464974D01*
X131691832Y-60451090D01*
X131674562Y-60435438D01*
X131658910Y-60418168D01*
X131645026Y-60399448D01*
X131633044Y-60379457D01*
X131623079Y-60358387D01*
X131615227Y-60336443D01*
X131609563Y-60313834D01*
X131606144Y-60290779D01*
X131605000Y-60267500D01*
X131605000Y-59692500D01*
X131606144Y-59669221D01*
X131609563Y-59646166D01*
X131615227Y-59623557D01*
X131623079Y-59601613D01*
X131633044Y-59580543D01*
X131645026Y-59560552D01*
X131658910Y-59541832D01*
X131674562Y-59524562D01*
X131691832Y-59508910D01*
X131710552Y-59495026D01*
X131730543Y-59483044D01*
X131751613Y-59473079D01*
X131773557Y-59465227D01*
X131796166Y-59459563D01*
X131819221Y-59456144D01*
X131842500Y-59455000D01*
X132317500Y-59455000D01*
X132340779Y-59456144D01*
X132340779Y-59456144D01*
G37*
D11*
G04 #@! TD*
G04 #@! TO.P,R6,2*
G04 #@! TO.N,/SDA*
X132080000Y-59980000D03*
D10*
G04 #@! TO.N,/I2S_WS*
G04 #@! TO.C,R7*
G36*
X133645779Y-80966144D02*
X133668834Y-80969563D01*
X133691443Y-80975227D01*
X133713387Y-80983079D01*
X133734457Y-80993044D01*
X133754448Y-81005026D01*
X133773168Y-81018910D01*
X133790438Y-81034562D01*
X133806090Y-81051832D01*
X133819974Y-81070552D01*
X133831956Y-81090543D01*
X133841921Y-81111613D01*
X133849773Y-81133557D01*
X133855437Y-81156166D01*
X133858856Y-81179221D01*
X133860000Y-81202500D01*
X133860000Y-81677500D01*
X133858856Y-81700779D01*
X133855437Y-81723834D01*
X133849773Y-81746443D01*
X133841921Y-81768387D01*
X133831956Y-81789457D01*
X133819974Y-81809448D01*
X133806090Y-81828168D01*
X133790438Y-81845438D01*
X133773168Y-81861090D01*
X133754448Y-81874974D01*
X133734457Y-81886956D01*
X133713387Y-81896921D01*
X133691443Y-81904773D01*
X133668834Y-81910437D01*
X133645779Y-81913856D01*
X133622500Y-81915000D01*
X133047500Y-81915000D01*
X133024221Y-81913856D01*
X133001166Y-81910437D01*
X132978557Y-81904773D01*
X132956613Y-81896921D01*
X132935543Y-81886956D01*
X132915552Y-81874974D01*
X132896832Y-81861090D01*
X132879562Y-81845438D01*
X132863910Y-81828168D01*
X132850026Y-81809448D01*
X132838044Y-81789457D01*
X132828079Y-81768387D01*
X132820227Y-81746443D01*
X132814563Y-81723834D01*
X132811144Y-81700779D01*
X132810000Y-81677500D01*
X132810000Y-81202500D01*
X132811144Y-81179221D01*
X132814563Y-81156166D01*
X132820227Y-81133557D01*
X132828079Y-81111613D01*
X132838044Y-81090543D01*
X132850026Y-81070552D01*
X132863910Y-81051832D01*
X132879562Y-81034562D01*
X132896832Y-81018910D01*
X132915552Y-81005026D01*
X132935543Y-80993044D01*
X132956613Y-80983079D01*
X132978557Y-80975227D01*
X133001166Y-80969563D01*
X133024221Y-80966144D01*
X133047500Y-80965000D01*
X133622500Y-80965000D01*
X133645779Y-80966144D01*
X133645779Y-80966144D01*
G37*
D11*
G04 #@! TD*
G04 #@! TO.P,R7,1*
G04 #@! TO.N,/I2S_WS*
X133335000Y-81440000D03*
D10*
G04 #@! TO.N,Net-(R7-Pad2)*
G04 #@! TO.C,R7*
G36*
X135395779Y-80966144D02*
X135418834Y-80969563D01*
X135441443Y-80975227D01*
X135463387Y-80983079D01*
X135484457Y-80993044D01*
X135504448Y-81005026D01*
X135523168Y-81018910D01*
X135540438Y-81034562D01*
X135556090Y-81051832D01*
X135569974Y-81070552D01*
X135581956Y-81090543D01*
X135591921Y-81111613D01*
X135599773Y-81133557D01*
X135605437Y-81156166D01*
X135608856Y-81179221D01*
X135610000Y-81202500D01*
X135610000Y-81677500D01*
X135608856Y-81700779D01*
X135605437Y-81723834D01*
X135599773Y-81746443D01*
X135591921Y-81768387D01*
X135581956Y-81789457D01*
X135569974Y-81809448D01*
X135556090Y-81828168D01*
X135540438Y-81845438D01*
X135523168Y-81861090D01*
X135504448Y-81874974D01*
X135484457Y-81886956D01*
X135463387Y-81896921D01*
X135441443Y-81904773D01*
X135418834Y-81910437D01*
X135395779Y-81913856D01*
X135372500Y-81915000D01*
X134797500Y-81915000D01*
X134774221Y-81913856D01*
X134751166Y-81910437D01*
X134728557Y-81904773D01*
X134706613Y-81896921D01*
X134685543Y-81886956D01*
X134665552Y-81874974D01*
X134646832Y-81861090D01*
X134629562Y-81845438D01*
X134613910Y-81828168D01*
X134600026Y-81809448D01*
X134588044Y-81789457D01*
X134578079Y-81768387D01*
X134570227Y-81746443D01*
X134564563Y-81723834D01*
X134561144Y-81700779D01*
X134560000Y-81677500D01*
X134560000Y-81202500D01*
X134561144Y-81179221D01*
X134564563Y-81156166D01*
X134570227Y-81133557D01*
X134578079Y-81111613D01*
X134588044Y-81090543D01*
X134600026Y-81070552D01*
X134613910Y-81051832D01*
X134629562Y-81034562D01*
X134646832Y-81018910D01*
X134665552Y-81005026D01*
X134685543Y-80993044D01*
X134706613Y-80983079D01*
X134728557Y-80975227D01*
X134751166Y-80969563D01*
X134774221Y-80966144D01*
X134797500Y-80965000D01*
X135372500Y-80965000D01*
X135395779Y-80966144D01*
X135395779Y-80966144D01*
G37*
D11*
G04 #@! TD*
G04 #@! TO.P,R7,2*
G04 #@! TO.N,Net-(R7-Pad2)*
X135085000Y-81440000D03*
D10*
G04 #@! TO.N,Net-(R11-Pad2)*
G04 #@! TO.C,R9*
G36*
X139732179Y-64017544D02*
X139755234Y-64020963D01*
X139777843Y-64026627D01*
X139799787Y-64034479D01*
X139820857Y-64044444D01*
X139840848Y-64056426D01*
X139859568Y-64070310D01*
X139876838Y-64085962D01*
X139892490Y-64103232D01*
X139906374Y-64121952D01*
X139918356Y-64141943D01*
X139928321Y-64163013D01*
X139936173Y-64184957D01*
X139941837Y-64207566D01*
X139945256Y-64230621D01*
X139946400Y-64253900D01*
X139946400Y-64828900D01*
X139945256Y-64852179D01*
X139941837Y-64875234D01*
X139936173Y-64897843D01*
X139928321Y-64919787D01*
X139918356Y-64940857D01*
X139906374Y-64960848D01*
X139892490Y-64979568D01*
X139876838Y-64996838D01*
X139859568Y-65012490D01*
X139840848Y-65026374D01*
X139820857Y-65038356D01*
X139799787Y-65048321D01*
X139777843Y-65056173D01*
X139755234Y-65061837D01*
X139732179Y-65065256D01*
X139708900Y-65066400D01*
X139233900Y-65066400D01*
X139210621Y-65065256D01*
X139187566Y-65061837D01*
X139164957Y-65056173D01*
X139143013Y-65048321D01*
X139121943Y-65038356D01*
X139101952Y-65026374D01*
X139083232Y-65012490D01*
X139065962Y-64996838D01*
X139050310Y-64979568D01*
X139036426Y-64960848D01*
X139024444Y-64940857D01*
X139014479Y-64919787D01*
X139006627Y-64897843D01*
X139000963Y-64875234D01*
X138997544Y-64852179D01*
X138996400Y-64828900D01*
X138996400Y-64253900D01*
X138997544Y-64230621D01*
X139000963Y-64207566D01*
X139006627Y-64184957D01*
X139014479Y-64163013D01*
X139024444Y-64141943D01*
X139036426Y-64121952D01*
X139050310Y-64103232D01*
X139065962Y-64085962D01*
X139083232Y-64070310D01*
X139101952Y-64056426D01*
X139121943Y-64044444D01*
X139143013Y-64034479D01*
X139164957Y-64026627D01*
X139187566Y-64020963D01*
X139210621Y-64017544D01*
X139233900Y-64016400D01*
X139708900Y-64016400D01*
X139732179Y-64017544D01*
X139732179Y-64017544D01*
G37*
D11*
G04 #@! TD*
G04 #@! TO.P,R9,2*
G04 #@! TO.N,Net-(R11-Pad2)*
X139471400Y-64541400D03*
D10*
G04 #@! TO.N,GND*
G04 #@! TO.C,R9*
G36*
X139732179Y-65767544D02*
X139755234Y-65770963D01*
X139777843Y-65776627D01*
X139799787Y-65784479D01*
X139820857Y-65794444D01*
X139840848Y-65806426D01*
X139859568Y-65820310D01*
X139876838Y-65835962D01*
X139892490Y-65853232D01*
X139906374Y-65871952D01*
X139918356Y-65891943D01*
X139928321Y-65913013D01*
X139936173Y-65934957D01*
X139941837Y-65957566D01*
X139945256Y-65980621D01*
X139946400Y-66003900D01*
X139946400Y-66578900D01*
X139945256Y-66602179D01*
X139941837Y-66625234D01*
X139936173Y-66647843D01*
X139928321Y-66669787D01*
X139918356Y-66690857D01*
X139906374Y-66710848D01*
X139892490Y-66729568D01*
X139876838Y-66746838D01*
X139859568Y-66762490D01*
X139840848Y-66776374D01*
X139820857Y-66788356D01*
X139799787Y-66798321D01*
X139777843Y-66806173D01*
X139755234Y-66811837D01*
X139732179Y-66815256D01*
X139708900Y-66816400D01*
X139233900Y-66816400D01*
X139210621Y-66815256D01*
X139187566Y-66811837D01*
X139164957Y-66806173D01*
X139143013Y-66798321D01*
X139121943Y-66788356D01*
X139101952Y-66776374D01*
X139083232Y-66762490D01*
X139065962Y-66746838D01*
X139050310Y-66729568D01*
X139036426Y-66710848D01*
X139024444Y-66690857D01*
X139014479Y-66669787D01*
X139006627Y-66647843D01*
X139000963Y-66625234D01*
X138997544Y-66602179D01*
X138996400Y-66578900D01*
X138996400Y-66003900D01*
X138997544Y-65980621D01*
X139000963Y-65957566D01*
X139006627Y-65934957D01*
X139014479Y-65913013D01*
X139024444Y-65891943D01*
X139036426Y-65871952D01*
X139050310Y-65853232D01*
X139065962Y-65835962D01*
X139083232Y-65820310D01*
X139101952Y-65806426D01*
X139121943Y-65794444D01*
X139143013Y-65784479D01*
X139164957Y-65776627D01*
X139187566Y-65770963D01*
X139210621Y-65767544D01*
X139233900Y-65766400D01*
X139708900Y-65766400D01*
X139732179Y-65767544D01*
X139732179Y-65767544D01*
G37*
D11*
G04 #@! TD*
G04 #@! TO.P,R9,1*
G04 #@! TO.N,GND*
X139471400Y-66291400D03*
D10*
G04 #@! TO.N,Net-(D3-Pad2)*
G04 #@! TO.C,R10*
G36*
X162146379Y-112949344D02*
X162169434Y-112952763D01*
X162192043Y-112958427D01*
X162213987Y-112966279D01*
X162235057Y-112976244D01*
X162255048Y-112988226D01*
X162273768Y-113002110D01*
X162291038Y-113017762D01*
X162306690Y-113035032D01*
X162320574Y-113053752D01*
X162332556Y-113073743D01*
X162342521Y-113094813D01*
X162350373Y-113116757D01*
X162356037Y-113139366D01*
X162359456Y-113162421D01*
X162360600Y-113185700D01*
X162360600Y-113760700D01*
X162359456Y-113783979D01*
X162356037Y-113807034D01*
X162350373Y-113829643D01*
X162342521Y-113851587D01*
X162332556Y-113872657D01*
X162320574Y-113892648D01*
X162306690Y-113911368D01*
X162291038Y-113928638D01*
X162273768Y-113944290D01*
X162255048Y-113958174D01*
X162235057Y-113970156D01*
X162213987Y-113980121D01*
X162192043Y-113987973D01*
X162169434Y-113993637D01*
X162146379Y-113997056D01*
X162123100Y-113998200D01*
X161648100Y-113998200D01*
X161624821Y-113997056D01*
X161601766Y-113993637D01*
X161579157Y-113987973D01*
X161557213Y-113980121D01*
X161536143Y-113970156D01*
X161516152Y-113958174D01*
X161497432Y-113944290D01*
X161480162Y-113928638D01*
X161464510Y-113911368D01*
X161450626Y-113892648D01*
X161438644Y-113872657D01*
X161428679Y-113851587D01*
X161420827Y-113829643D01*
X161415163Y-113807034D01*
X161411744Y-113783979D01*
X161410600Y-113760700D01*
X161410600Y-113185700D01*
X161411744Y-113162421D01*
X161415163Y-113139366D01*
X161420827Y-113116757D01*
X161428679Y-113094813D01*
X161438644Y-113073743D01*
X161450626Y-113053752D01*
X161464510Y-113035032D01*
X161480162Y-113017762D01*
X161497432Y-113002110D01*
X161516152Y-112988226D01*
X161536143Y-112976244D01*
X161557213Y-112966279D01*
X161579157Y-112958427D01*
X161601766Y-112952763D01*
X161624821Y-112949344D01*
X161648100Y-112948200D01*
X162123100Y-112948200D01*
X162146379Y-112949344D01*
X162146379Y-112949344D01*
G37*
D11*
G04 #@! TD*
G04 #@! TO.P,R10,2*
G04 #@! TO.N,Net-(D3-Pad2)*
X161885600Y-113473200D03*
D10*
G04 #@! TO.N,/V_USB*
G04 #@! TO.C,R10*
G36*
X162146379Y-111199344D02*
X162169434Y-111202763D01*
X162192043Y-111208427D01*
X162213987Y-111216279D01*
X162235057Y-111226244D01*
X162255048Y-111238226D01*
X162273768Y-111252110D01*
X162291038Y-111267762D01*
X162306690Y-111285032D01*
X162320574Y-111303752D01*
X162332556Y-111323743D01*
X162342521Y-111344813D01*
X162350373Y-111366757D01*
X162356037Y-111389366D01*
X162359456Y-111412421D01*
X162360600Y-111435700D01*
X162360600Y-112010700D01*
X162359456Y-112033979D01*
X162356037Y-112057034D01*
X162350373Y-112079643D01*
X162342521Y-112101587D01*
X162332556Y-112122657D01*
X162320574Y-112142648D01*
X162306690Y-112161368D01*
X162291038Y-112178638D01*
X162273768Y-112194290D01*
X162255048Y-112208174D01*
X162235057Y-112220156D01*
X162213987Y-112230121D01*
X162192043Y-112237973D01*
X162169434Y-112243637D01*
X162146379Y-112247056D01*
X162123100Y-112248200D01*
X161648100Y-112248200D01*
X161624821Y-112247056D01*
X161601766Y-112243637D01*
X161579157Y-112237973D01*
X161557213Y-112230121D01*
X161536143Y-112220156D01*
X161516152Y-112208174D01*
X161497432Y-112194290D01*
X161480162Y-112178638D01*
X161464510Y-112161368D01*
X161450626Y-112142648D01*
X161438644Y-112122657D01*
X161428679Y-112101587D01*
X161420827Y-112079643D01*
X161415163Y-112057034D01*
X161411744Y-112033979D01*
X161410600Y-112010700D01*
X161410600Y-111435700D01*
X161411744Y-111412421D01*
X161415163Y-111389366D01*
X161420827Y-111366757D01*
X161428679Y-111344813D01*
X161438644Y-111323743D01*
X161450626Y-111303752D01*
X161464510Y-111285032D01*
X161480162Y-111267762D01*
X161497432Y-111252110D01*
X161516152Y-111238226D01*
X161536143Y-111226244D01*
X161557213Y-111216279D01*
X161579157Y-111208427D01*
X161601766Y-111202763D01*
X161624821Y-111199344D01*
X161648100Y-111198200D01*
X162123100Y-111198200D01*
X162146379Y-111199344D01*
X162146379Y-111199344D01*
G37*
D11*
G04 #@! TD*
G04 #@! TO.P,R10,1*
G04 #@! TO.N,/V_USB*
X161885600Y-111723200D03*
D10*
G04 #@! TO.N,/I2S_DATA_IN*
G04 #@! TO.C,R11*
G36*
X141611779Y-65756144D02*
X141634834Y-65759563D01*
X141657443Y-65765227D01*
X141679387Y-65773079D01*
X141700457Y-65783044D01*
X141720448Y-65795026D01*
X141739168Y-65808910D01*
X141756438Y-65824562D01*
X141772090Y-65841832D01*
X141785974Y-65860552D01*
X141797956Y-65880543D01*
X141807921Y-65901613D01*
X141815773Y-65923557D01*
X141821437Y-65946166D01*
X141824856Y-65969221D01*
X141826000Y-65992500D01*
X141826000Y-66567500D01*
X141824856Y-66590779D01*
X141821437Y-66613834D01*
X141815773Y-66636443D01*
X141807921Y-66658387D01*
X141797956Y-66679457D01*
X141785974Y-66699448D01*
X141772090Y-66718168D01*
X141756438Y-66735438D01*
X141739168Y-66751090D01*
X141720448Y-66764974D01*
X141700457Y-66776956D01*
X141679387Y-66786921D01*
X141657443Y-66794773D01*
X141634834Y-66800437D01*
X141611779Y-66803856D01*
X141588500Y-66805000D01*
X141113500Y-66805000D01*
X141090221Y-66803856D01*
X141067166Y-66800437D01*
X141044557Y-66794773D01*
X141022613Y-66786921D01*
X141001543Y-66776956D01*
X140981552Y-66764974D01*
X140962832Y-66751090D01*
X140945562Y-66735438D01*
X140929910Y-66718168D01*
X140916026Y-66699448D01*
X140904044Y-66679457D01*
X140894079Y-66658387D01*
X140886227Y-66636443D01*
X140880563Y-66613834D01*
X140877144Y-66590779D01*
X140876000Y-66567500D01*
X140876000Y-65992500D01*
X140877144Y-65969221D01*
X140880563Y-65946166D01*
X140886227Y-65923557D01*
X140894079Y-65901613D01*
X140904044Y-65880543D01*
X140916026Y-65860552D01*
X140929910Y-65841832D01*
X140945562Y-65824562D01*
X140962832Y-65808910D01*
X140981552Y-65795026D01*
X141001543Y-65783044D01*
X141022613Y-65773079D01*
X141044557Y-65765227D01*
X141067166Y-65759563D01*
X141090221Y-65756144D01*
X141113500Y-65755000D01*
X141588500Y-65755000D01*
X141611779Y-65756144D01*
X141611779Y-65756144D01*
G37*
D11*
G04 #@! TD*
G04 #@! TO.P,R11,1*
G04 #@! TO.N,/I2S_DATA_IN*
X141351000Y-66280000D03*
D10*
G04 #@! TO.N,Net-(R11-Pad2)*
G04 #@! TO.C,R11*
G36*
X141611779Y-64006144D02*
X141634834Y-64009563D01*
X141657443Y-64015227D01*
X141679387Y-64023079D01*
X141700457Y-64033044D01*
X141720448Y-64045026D01*
X141739168Y-64058910D01*
X141756438Y-64074562D01*
X141772090Y-64091832D01*
X141785974Y-64110552D01*
X141797956Y-64130543D01*
X141807921Y-64151613D01*
X141815773Y-64173557D01*
X141821437Y-64196166D01*
X141824856Y-64219221D01*
X141826000Y-64242500D01*
X141826000Y-64817500D01*
X141824856Y-64840779D01*
X141821437Y-64863834D01*
X141815773Y-64886443D01*
X141807921Y-64908387D01*
X141797956Y-64929457D01*
X141785974Y-64949448D01*
X141772090Y-64968168D01*
X141756438Y-64985438D01*
X141739168Y-65001090D01*
X141720448Y-65014974D01*
X141700457Y-65026956D01*
X141679387Y-65036921D01*
X141657443Y-65044773D01*
X141634834Y-65050437D01*
X141611779Y-65053856D01*
X141588500Y-65055000D01*
X141113500Y-65055000D01*
X141090221Y-65053856D01*
X141067166Y-65050437D01*
X141044557Y-65044773D01*
X141022613Y-65036921D01*
X141001543Y-65026956D01*
X140981552Y-65014974D01*
X140962832Y-65001090D01*
X140945562Y-64985438D01*
X140929910Y-64968168D01*
X140916026Y-64949448D01*
X140904044Y-64929457D01*
X140894079Y-64908387D01*
X140886227Y-64886443D01*
X140880563Y-64863834D01*
X140877144Y-64840779D01*
X140876000Y-64817500D01*
X140876000Y-64242500D01*
X140877144Y-64219221D01*
X140880563Y-64196166D01*
X140886227Y-64173557D01*
X140894079Y-64151613D01*
X140904044Y-64130543D01*
X140916026Y-64110552D01*
X140929910Y-64091832D01*
X140945562Y-64074562D01*
X140962832Y-64058910D01*
X140981552Y-64045026D01*
X141001543Y-64033044D01*
X141022613Y-64023079D01*
X141044557Y-64015227D01*
X141067166Y-64009563D01*
X141090221Y-64006144D01*
X141113500Y-64005000D01*
X141588500Y-64005000D01*
X141611779Y-64006144D01*
X141611779Y-64006144D01*
G37*
D11*
G04 #@! TD*
G04 #@! TO.P,R11,2*
G04 #@! TO.N,Net-(R11-Pad2)*
X141351000Y-64530000D03*
D10*
G04 #@! TO.N,/FACTORY_RST*
G04 #@! TO.C,R14*
G36*
X158552779Y-116620144D02*
X158575834Y-116623563D01*
X158598443Y-116629227D01*
X158620387Y-116637079D01*
X158641457Y-116647044D01*
X158661448Y-116659026D01*
X158680168Y-116672910D01*
X158697438Y-116688562D01*
X158713090Y-116705832D01*
X158726974Y-116724552D01*
X158738956Y-116744543D01*
X158748921Y-116765613D01*
X158756773Y-116787557D01*
X158762437Y-116810166D01*
X158765856Y-116833221D01*
X158767000Y-116856500D01*
X158767000Y-117331500D01*
X158765856Y-117354779D01*
X158762437Y-117377834D01*
X158756773Y-117400443D01*
X158748921Y-117422387D01*
X158738956Y-117443457D01*
X158726974Y-117463448D01*
X158713090Y-117482168D01*
X158697438Y-117499438D01*
X158680168Y-117515090D01*
X158661448Y-117528974D01*
X158641457Y-117540956D01*
X158620387Y-117550921D01*
X158598443Y-117558773D01*
X158575834Y-117564437D01*
X158552779Y-117567856D01*
X158529500Y-117569000D01*
X157954500Y-117569000D01*
X157931221Y-117567856D01*
X157908166Y-117564437D01*
X157885557Y-117558773D01*
X157863613Y-117550921D01*
X157842543Y-117540956D01*
X157822552Y-117528974D01*
X157803832Y-117515090D01*
X157786562Y-117499438D01*
X157770910Y-117482168D01*
X157757026Y-117463448D01*
X157745044Y-117443457D01*
X157735079Y-117422387D01*
X157727227Y-117400443D01*
X157721563Y-117377834D01*
X157718144Y-117354779D01*
X157717000Y-117331500D01*
X157717000Y-116856500D01*
X157718144Y-116833221D01*
X157721563Y-116810166D01*
X157727227Y-116787557D01*
X157735079Y-116765613D01*
X157745044Y-116744543D01*
X157757026Y-116724552D01*
X157770910Y-116705832D01*
X157786562Y-116688562D01*
X157803832Y-116672910D01*
X157822552Y-116659026D01*
X157842543Y-116647044D01*
X157863613Y-116637079D01*
X157885557Y-116629227D01*
X157908166Y-116623563D01*
X157931221Y-116620144D01*
X157954500Y-116619000D01*
X158529500Y-116619000D01*
X158552779Y-116620144D01*
X158552779Y-116620144D01*
G37*
D11*
G04 #@! TD*
G04 #@! TO.P,R14,2*
G04 #@! TO.N,/FACTORY_RST*
X158242000Y-117094000D03*
D10*
G04 #@! TO.N,Net-(D2-Pad1)*
G04 #@! TO.C,R14*
G36*
X156802779Y-116620144D02*
X156825834Y-116623563D01*
X156848443Y-116629227D01*
X156870387Y-116637079D01*
X156891457Y-116647044D01*
X156911448Y-116659026D01*
X156930168Y-116672910D01*
X156947438Y-116688562D01*
X156963090Y-116705832D01*
X156976974Y-116724552D01*
X156988956Y-116744543D01*
X156998921Y-116765613D01*
X157006773Y-116787557D01*
X157012437Y-116810166D01*
X157015856Y-116833221D01*
X157017000Y-116856500D01*
X157017000Y-117331500D01*
X157015856Y-117354779D01*
X157012437Y-117377834D01*
X157006773Y-117400443D01*
X156998921Y-117422387D01*
X156988956Y-117443457D01*
X156976974Y-117463448D01*
X156963090Y-117482168D01*
X156947438Y-117499438D01*
X156930168Y-117515090D01*
X156911448Y-117528974D01*
X156891457Y-117540956D01*
X156870387Y-117550921D01*
X156848443Y-117558773D01*
X156825834Y-117564437D01*
X156802779Y-117567856D01*
X156779500Y-117569000D01*
X156204500Y-117569000D01*
X156181221Y-117567856D01*
X156158166Y-117564437D01*
X156135557Y-117558773D01*
X156113613Y-117550921D01*
X156092543Y-117540956D01*
X156072552Y-117528974D01*
X156053832Y-117515090D01*
X156036562Y-117499438D01*
X156020910Y-117482168D01*
X156007026Y-117463448D01*
X155995044Y-117443457D01*
X155985079Y-117422387D01*
X155977227Y-117400443D01*
X155971563Y-117377834D01*
X155968144Y-117354779D01*
X155967000Y-117331500D01*
X155967000Y-116856500D01*
X155968144Y-116833221D01*
X155971563Y-116810166D01*
X155977227Y-116787557D01*
X155985079Y-116765613D01*
X155995044Y-116744543D01*
X156007026Y-116724552D01*
X156020910Y-116705832D01*
X156036562Y-116688562D01*
X156053832Y-116672910D01*
X156072552Y-116659026D01*
X156092543Y-116647044D01*
X156113613Y-116637079D01*
X156135557Y-116629227D01*
X156158166Y-116623563D01*
X156181221Y-116620144D01*
X156204500Y-116619000D01*
X156779500Y-116619000D01*
X156802779Y-116620144D01*
X156802779Y-116620144D01*
G37*
D11*
G04 #@! TD*
G04 #@! TO.P,R14,1*
G04 #@! TO.N,Net-(D2-Pad1)*
X156492000Y-117094000D03*
D10*
G04 #@! TO.N,Net-(D4-Pad1)*
G04 #@! TO.C,R15*
G36*
X138182779Y-107426144D02*
X138205834Y-107429563D01*
X138228443Y-107435227D01*
X138250387Y-107443079D01*
X138271457Y-107453044D01*
X138291448Y-107465026D01*
X138310168Y-107478910D01*
X138327438Y-107494562D01*
X138343090Y-107511832D01*
X138356974Y-107530552D01*
X138368956Y-107550543D01*
X138378921Y-107571613D01*
X138386773Y-107593557D01*
X138392437Y-107616166D01*
X138395856Y-107639221D01*
X138397000Y-107662500D01*
X138397000Y-108237500D01*
X138395856Y-108260779D01*
X138392437Y-108283834D01*
X138386773Y-108306443D01*
X138378921Y-108328387D01*
X138368956Y-108349457D01*
X138356974Y-108369448D01*
X138343090Y-108388168D01*
X138327438Y-108405438D01*
X138310168Y-108421090D01*
X138291448Y-108434974D01*
X138271457Y-108446956D01*
X138250387Y-108456921D01*
X138228443Y-108464773D01*
X138205834Y-108470437D01*
X138182779Y-108473856D01*
X138159500Y-108475000D01*
X137684500Y-108475000D01*
X137661221Y-108473856D01*
X137638166Y-108470437D01*
X137615557Y-108464773D01*
X137593613Y-108456921D01*
X137572543Y-108446956D01*
X137552552Y-108434974D01*
X137533832Y-108421090D01*
X137516562Y-108405438D01*
X137500910Y-108388168D01*
X137487026Y-108369448D01*
X137475044Y-108349457D01*
X137465079Y-108328387D01*
X137457227Y-108306443D01*
X137451563Y-108283834D01*
X137448144Y-108260779D01*
X137447000Y-108237500D01*
X137447000Y-107662500D01*
X137448144Y-107639221D01*
X137451563Y-107616166D01*
X137457227Y-107593557D01*
X137465079Y-107571613D01*
X137475044Y-107550543D01*
X137487026Y-107530552D01*
X137500910Y-107511832D01*
X137516562Y-107494562D01*
X137533832Y-107478910D01*
X137552552Y-107465026D01*
X137572543Y-107453044D01*
X137593613Y-107443079D01*
X137615557Y-107435227D01*
X137638166Y-107429563D01*
X137661221Y-107426144D01*
X137684500Y-107425000D01*
X138159500Y-107425000D01*
X138182779Y-107426144D01*
X138182779Y-107426144D01*
G37*
D11*
G04 #@! TD*
G04 #@! TO.P,R15,1*
G04 #@! TO.N,Net-(D4-Pad1)*
X137922000Y-107950000D03*
D10*
G04 #@! TO.N,/PROG*
G04 #@! TO.C,R15*
G36*
X138182779Y-109176144D02*
X138205834Y-109179563D01*
X138228443Y-109185227D01*
X138250387Y-109193079D01*
X138271457Y-109203044D01*
X138291448Y-109215026D01*
X138310168Y-109228910D01*
X138327438Y-109244562D01*
X138343090Y-109261832D01*
X138356974Y-109280552D01*
X138368956Y-109300543D01*
X138378921Y-109321613D01*
X138386773Y-109343557D01*
X138392437Y-109366166D01*
X138395856Y-109389221D01*
X138397000Y-109412500D01*
X138397000Y-109987500D01*
X138395856Y-110010779D01*
X138392437Y-110033834D01*
X138386773Y-110056443D01*
X138378921Y-110078387D01*
X138368956Y-110099457D01*
X138356974Y-110119448D01*
X138343090Y-110138168D01*
X138327438Y-110155438D01*
X138310168Y-110171090D01*
X138291448Y-110184974D01*
X138271457Y-110196956D01*
X138250387Y-110206921D01*
X138228443Y-110214773D01*
X138205834Y-110220437D01*
X138182779Y-110223856D01*
X138159500Y-110225000D01*
X137684500Y-110225000D01*
X137661221Y-110223856D01*
X137638166Y-110220437D01*
X137615557Y-110214773D01*
X137593613Y-110206921D01*
X137572543Y-110196956D01*
X137552552Y-110184974D01*
X137533832Y-110171090D01*
X137516562Y-110155438D01*
X137500910Y-110138168D01*
X137487026Y-110119448D01*
X137475044Y-110099457D01*
X137465079Y-110078387D01*
X137457227Y-110056443D01*
X137451563Y-110033834D01*
X137448144Y-110010779D01*
X137447000Y-109987500D01*
X137447000Y-109412500D01*
X137448144Y-109389221D01*
X137451563Y-109366166D01*
X137457227Y-109343557D01*
X137465079Y-109321613D01*
X137475044Y-109300543D01*
X137487026Y-109280552D01*
X137500910Y-109261832D01*
X137516562Y-109244562D01*
X137533832Y-109228910D01*
X137552552Y-109215026D01*
X137572543Y-109203044D01*
X137593613Y-109193079D01*
X137615557Y-109185227D01*
X137638166Y-109179563D01*
X137661221Y-109176144D01*
X137684500Y-109175000D01*
X138159500Y-109175000D01*
X138182779Y-109176144D01*
X138182779Y-109176144D01*
G37*
D11*
G04 #@! TD*
G04 #@! TO.P,R15,2*
G04 #@! TO.N,/PROG*
X137922000Y-109700000D03*
D10*
G04 #@! TO.N,Net-(D5-Pad1)*
G04 #@! TO.C,R16*
G36*
X138182779Y-116824144D02*
X138205834Y-116827563D01*
X138228443Y-116833227D01*
X138250387Y-116841079D01*
X138271457Y-116851044D01*
X138291448Y-116863026D01*
X138310168Y-116876910D01*
X138327438Y-116892562D01*
X138343090Y-116909832D01*
X138356974Y-116928552D01*
X138368956Y-116948543D01*
X138378921Y-116969613D01*
X138386773Y-116991557D01*
X138392437Y-117014166D01*
X138395856Y-117037221D01*
X138397000Y-117060500D01*
X138397000Y-117635500D01*
X138395856Y-117658779D01*
X138392437Y-117681834D01*
X138386773Y-117704443D01*
X138378921Y-117726387D01*
X138368956Y-117747457D01*
X138356974Y-117767448D01*
X138343090Y-117786168D01*
X138327438Y-117803438D01*
X138310168Y-117819090D01*
X138291448Y-117832974D01*
X138271457Y-117844956D01*
X138250387Y-117854921D01*
X138228443Y-117862773D01*
X138205834Y-117868437D01*
X138182779Y-117871856D01*
X138159500Y-117873000D01*
X137684500Y-117873000D01*
X137661221Y-117871856D01*
X137638166Y-117868437D01*
X137615557Y-117862773D01*
X137593613Y-117854921D01*
X137572543Y-117844956D01*
X137552552Y-117832974D01*
X137533832Y-117819090D01*
X137516562Y-117803438D01*
X137500910Y-117786168D01*
X137487026Y-117767448D01*
X137475044Y-117747457D01*
X137465079Y-117726387D01*
X137457227Y-117704443D01*
X137451563Y-117681834D01*
X137448144Y-117658779D01*
X137447000Y-117635500D01*
X137447000Y-117060500D01*
X137448144Y-117037221D01*
X137451563Y-117014166D01*
X137457227Y-116991557D01*
X137465079Y-116969613D01*
X137475044Y-116948543D01*
X137487026Y-116928552D01*
X137500910Y-116909832D01*
X137516562Y-116892562D01*
X137533832Y-116876910D01*
X137552552Y-116863026D01*
X137572543Y-116851044D01*
X137593613Y-116841079D01*
X137615557Y-116833227D01*
X137638166Y-116827563D01*
X137661221Y-116824144D01*
X137684500Y-116823000D01*
X138159500Y-116823000D01*
X138182779Y-116824144D01*
X138182779Y-116824144D01*
G37*
D11*
G04 #@! TD*
G04 #@! TO.P,R16,1*
G04 #@! TO.N,Net-(D5-Pad1)*
X137922000Y-117348000D03*
D10*
G04 #@! TO.N,/EN*
G04 #@! TO.C,R16*
G36*
X138182779Y-115074144D02*
X138205834Y-115077563D01*
X138228443Y-115083227D01*
X138250387Y-115091079D01*
X138271457Y-115101044D01*
X138291448Y-115113026D01*
X138310168Y-115126910D01*
X138327438Y-115142562D01*
X138343090Y-115159832D01*
X138356974Y-115178552D01*
X138368956Y-115198543D01*
X138378921Y-115219613D01*
X138386773Y-115241557D01*
X138392437Y-115264166D01*
X138395856Y-115287221D01*
X138397000Y-115310500D01*
X138397000Y-115885500D01*
X138395856Y-115908779D01*
X138392437Y-115931834D01*
X138386773Y-115954443D01*
X138378921Y-115976387D01*
X138368956Y-115997457D01*
X138356974Y-116017448D01*
X138343090Y-116036168D01*
X138327438Y-116053438D01*
X138310168Y-116069090D01*
X138291448Y-116082974D01*
X138271457Y-116094956D01*
X138250387Y-116104921D01*
X138228443Y-116112773D01*
X138205834Y-116118437D01*
X138182779Y-116121856D01*
X138159500Y-116123000D01*
X137684500Y-116123000D01*
X137661221Y-116121856D01*
X137638166Y-116118437D01*
X137615557Y-116112773D01*
X137593613Y-116104921D01*
X137572543Y-116094956D01*
X137552552Y-116082974D01*
X137533832Y-116069090D01*
X137516562Y-116053438D01*
X137500910Y-116036168D01*
X137487026Y-116017448D01*
X137475044Y-115997457D01*
X137465079Y-115976387D01*
X137457227Y-115954443D01*
X137451563Y-115931834D01*
X137448144Y-115908779D01*
X137447000Y-115885500D01*
X137447000Y-115310500D01*
X137448144Y-115287221D01*
X137451563Y-115264166D01*
X137457227Y-115241557D01*
X137465079Y-115219613D01*
X137475044Y-115198543D01*
X137487026Y-115178552D01*
X137500910Y-115159832D01*
X137516562Y-115142562D01*
X137533832Y-115126910D01*
X137552552Y-115113026D01*
X137572543Y-115101044D01*
X137593613Y-115091079D01*
X137615557Y-115083227D01*
X137638166Y-115077563D01*
X137661221Y-115074144D01*
X137684500Y-115073000D01*
X138159500Y-115073000D01*
X138182779Y-115074144D01*
X138182779Y-115074144D01*
G37*
D11*
G04 #@! TD*
G04 #@! TO.P,R16,2*
G04 #@! TO.N,/EN*
X137922000Y-115598000D03*
D10*
G04 #@! TO.N,GND*
G04 #@! TO.C,R17*
G36*
X138233579Y-111351744D02*
X138256634Y-111355163D01*
X138279243Y-111360827D01*
X138301187Y-111368679D01*
X138322257Y-111378644D01*
X138342248Y-111390626D01*
X138360968Y-111404510D01*
X138378238Y-111420162D01*
X138393890Y-111437432D01*
X138407774Y-111456152D01*
X138419756Y-111476143D01*
X138429721Y-111497213D01*
X138437573Y-111519157D01*
X138443237Y-111541766D01*
X138446656Y-111564821D01*
X138447800Y-111588100D01*
X138447800Y-112163100D01*
X138446656Y-112186379D01*
X138443237Y-112209434D01*
X138437573Y-112232043D01*
X138429721Y-112253987D01*
X138419756Y-112275057D01*
X138407774Y-112295048D01*
X138393890Y-112313768D01*
X138378238Y-112331038D01*
X138360968Y-112346690D01*
X138342248Y-112360574D01*
X138322257Y-112372556D01*
X138301187Y-112382521D01*
X138279243Y-112390373D01*
X138256634Y-112396037D01*
X138233579Y-112399456D01*
X138210300Y-112400600D01*
X137735300Y-112400600D01*
X137712021Y-112399456D01*
X137688966Y-112396037D01*
X137666357Y-112390373D01*
X137644413Y-112382521D01*
X137623343Y-112372556D01*
X137603352Y-112360574D01*
X137584632Y-112346690D01*
X137567362Y-112331038D01*
X137551710Y-112313768D01*
X137537826Y-112295048D01*
X137525844Y-112275057D01*
X137515879Y-112253987D01*
X137508027Y-112232043D01*
X137502363Y-112209434D01*
X137498944Y-112186379D01*
X137497800Y-112163100D01*
X137497800Y-111588100D01*
X137498944Y-111564821D01*
X137502363Y-111541766D01*
X137508027Y-111519157D01*
X137515879Y-111497213D01*
X137525844Y-111476143D01*
X137537826Y-111456152D01*
X137551710Y-111437432D01*
X137567362Y-111420162D01*
X137584632Y-111404510D01*
X137603352Y-111390626D01*
X137623343Y-111378644D01*
X137644413Y-111368679D01*
X137666357Y-111360827D01*
X137688966Y-111355163D01*
X137712021Y-111351744D01*
X137735300Y-111350600D01*
X138210300Y-111350600D01*
X138233579Y-111351744D01*
X138233579Y-111351744D01*
G37*
D11*
G04 #@! TD*
G04 #@! TO.P,R17,2*
G04 #@! TO.N,GND*
X137972800Y-111875600D03*
D10*
G04 #@! TO.N,Net-(R17-Pad1)*
G04 #@! TO.C,R17*
G36*
X138233579Y-113101744D02*
X138256634Y-113105163D01*
X138279243Y-113110827D01*
X138301187Y-113118679D01*
X138322257Y-113128644D01*
X138342248Y-113140626D01*
X138360968Y-113154510D01*
X138378238Y-113170162D01*
X138393890Y-113187432D01*
X138407774Y-113206152D01*
X138419756Y-113226143D01*
X138429721Y-113247213D01*
X138437573Y-113269157D01*
X138443237Y-113291766D01*
X138446656Y-113314821D01*
X138447800Y-113338100D01*
X138447800Y-113913100D01*
X138446656Y-113936379D01*
X138443237Y-113959434D01*
X138437573Y-113982043D01*
X138429721Y-114003987D01*
X138419756Y-114025057D01*
X138407774Y-114045048D01*
X138393890Y-114063768D01*
X138378238Y-114081038D01*
X138360968Y-114096690D01*
X138342248Y-114110574D01*
X138322257Y-114122556D01*
X138301187Y-114132521D01*
X138279243Y-114140373D01*
X138256634Y-114146037D01*
X138233579Y-114149456D01*
X138210300Y-114150600D01*
X137735300Y-114150600D01*
X137712021Y-114149456D01*
X137688966Y-114146037D01*
X137666357Y-114140373D01*
X137644413Y-114132521D01*
X137623343Y-114122556D01*
X137603352Y-114110574D01*
X137584632Y-114096690D01*
X137567362Y-114081038D01*
X137551710Y-114063768D01*
X137537826Y-114045048D01*
X137525844Y-114025057D01*
X137515879Y-114003987D01*
X137508027Y-113982043D01*
X137502363Y-113959434D01*
X137498944Y-113936379D01*
X137497800Y-113913100D01*
X137497800Y-113338100D01*
X137498944Y-113314821D01*
X137502363Y-113291766D01*
X137508027Y-113269157D01*
X137515879Y-113247213D01*
X137525844Y-113226143D01*
X137537826Y-113206152D01*
X137551710Y-113187432D01*
X137567362Y-113170162D01*
X137584632Y-113154510D01*
X137603352Y-113140626D01*
X137623343Y-113128644D01*
X137644413Y-113118679D01*
X137666357Y-113110827D01*
X137688966Y-113105163D01*
X137712021Y-113101744D01*
X137735300Y-113100600D01*
X138210300Y-113100600D01*
X138233579Y-113101744D01*
X138233579Y-113101744D01*
G37*
D11*
G04 #@! TD*
G04 #@! TO.P,R17,1*
G04 #@! TO.N,Net-(R17-Pad1)*
X137972800Y-113625600D03*
D10*
G04 #@! TO.N,Net-(R18-Pad2)*
G04 #@! TO.C,R18*
G36*
X146386779Y-67396144D02*
X146409834Y-67399563D01*
X146432443Y-67405227D01*
X146454387Y-67413079D01*
X146475457Y-67423044D01*
X146495448Y-67435026D01*
X146514168Y-67448910D01*
X146531438Y-67464562D01*
X146547090Y-67481832D01*
X146560974Y-67500552D01*
X146572956Y-67520543D01*
X146582921Y-67541613D01*
X146590773Y-67563557D01*
X146596437Y-67586166D01*
X146599856Y-67609221D01*
X146601000Y-67632500D01*
X146601000Y-68107500D01*
X146599856Y-68130779D01*
X146596437Y-68153834D01*
X146590773Y-68176443D01*
X146582921Y-68198387D01*
X146572956Y-68219457D01*
X146560974Y-68239448D01*
X146547090Y-68258168D01*
X146531438Y-68275438D01*
X146514168Y-68291090D01*
X146495448Y-68304974D01*
X146475457Y-68316956D01*
X146454387Y-68326921D01*
X146432443Y-68334773D01*
X146409834Y-68340437D01*
X146386779Y-68343856D01*
X146363500Y-68345000D01*
X145788500Y-68345000D01*
X145765221Y-68343856D01*
X145742166Y-68340437D01*
X145719557Y-68334773D01*
X145697613Y-68326921D01*
X145676543Y-68316956D01*
X145656552Y-68304974D01*
X145637832Y-68291090D01*
X145620562Y-68275438D01*
X145604910Y-68258168D01*
X145591026Y-68239448D01*
X145579044Y-68219457D01*
X145569079Y-68198387D01*
X145561227Y-68176443D01*
X145555563Y-68153834D01*
X145552144Y-68130779D01*
X145551000Y-68107500D01*
X145551000Y-67632500D01*
X145552144Y-67609221D01*
X145555563Y-67586166D01*
X145561227Y-67563557D01*
X145569079Y-67541613D01*
X145579044Y-67520543D01*
X145591026Y-67500552D01*
X145604910Y-67481832D01*
X145620562Y-67464562D01*
X145637832Y-67448910D01*
X145656552Y-67435026D01*
X145676543Y-67423044D01*
X145697613Y-67413079D01*
X145719557Y-67405227D01*
X145742166Y-67399563D01*
X145765221Y-67396144D01*
X145788500Y-67395000D01*
X146363500Y-67395000D01*
X146386779Y-67396144D01*
X146386779Y-67396144D01*
G37*
D11*
G04 #@! TD*
G04 #@! TO.P,R18,2*
G04 #@! TO.N,Net-(R18-Pad2)*
X146076000Y-67870000D03*
D10*
G04 #@! TO.N,/PIR*
G04 #@! TO.C,R18*
G36*
X148136779Y-67396144D02*
X148159834Y-67399563D01*
X148182443Y-67405227D01*
X148204387Y-67413079D01*
X148225457Y-67423044D01*
X148245448Y-67435026D01*
X148264168Y-67448910D01*
X148281438Y-67464562D01*
X148297090Y-67481832D01*
X148310974Y-67500552D01*
X148322956Y-67520543D01*
X148332921Y-67541613D01*
X148340773Y-67563557D01*
X148346437Y-67586166D01*
X148349856Y-67609221D01*
X148351000Y-67632500D01*
X148351000Y-68107500D01*
X148349856Y-68130779D01*
X148346437Y-68153834D01*
X148340773Y-68176443D01*
X148332921Y-68198387D01*
X148322956Y-68219457D01*
X148310974Y-68239448D01*
X148297090Y-68258168D01*
X148281438Y-68275438D01*
X148264168Y-68291090D01*
X148245448Y-68304974D01*
X148225457Y-68316956D01*
X148204387Y-68326921D01*
X148182443Y-68334773D01*
X148159834Y-68340437D01*
X148136779Y-68343856D01*
X148113500Y-68345000D01*
X147538500Y-68345000D01*
X147515221Y-68343856D01*
X147492166Y-68340437D01*
X147469557Y-68334773D01*
X147447613Y-68326921D01*
X147426543Y-68316956D01*
X147406552Y-68304974D01*
X147387832Y-68291090D01*
X147370562Y-68275438D01*
X147354910Y-68258168D01*
X147341026Y-68239448D01*
X147329044Y-68219457D01*
X147319079Y-68198387D01*
X147311227Y-68176443D01*
X147305563Y-68153834D01*
X147302144Y-68130779D01*
X147301000Y-68107500D01*
X147301000Y-67632500D01*
X147302144Y-67609221D01*
X147305563Y-67586166D01*
X147311227Y-67563557D01*
X147319079Y-67541613D01*
X147329044Y-67520543D01*
X147341026Y-67500552D01*
X147354910Y-67481832D01*
X147370562Y-67464562D01*
X147387832Y-67448910D01*
X147406552Y-67435026D01*
X147426543Y-67423044D01*
X147447613Y-67413079D01*
X147469557Y-67405227D01*
X147492166Y-67399563D01*
X147515221Y-67396144D01*
X147538500Y-67395000D01*
X148113500Y-67395000D01*
X148136779Y-67396144D01*
X148136779Y-67396144D01*
G37*
D11*
G04 #@! TD*
G04 #@! TO.P,R18,1*
G04 #@! TO.N,/PIR*
X147826000Y-67870000D03*
D10*
G04 #@! TO.N,Net-(R19-Pad2)*
G04 #@! TO.C,R19*
G36*
X159772779Y-107793144D02*
X159795834Y-107796563D01*
X159818443Y-107802227D01*
X159840387Y-107810079D01*
X159861457Y-107820044D01*
X159881448Y-107832026D01*
X159900168Y-107845910D01*
X159917438Y-107861562D01*
X159933090Y-107878832D01*
X159946974Y-107897552D01*
X159958956Y-107917543D01*
X159968921Y-107938613D01*
X159976773Y-107960557D01*
X159982437Y-107983166D01*
X159985856Y-108006221D01*
X159987000Y-108029500D01*
X159987000Y-108604500D01*
X159985856Y-108627779D01*
X159982437Y-108650834D01*
X159976773Y-108673443D01*
X159968921Y-108695387D01*
X159958956Y-108716457D01*
X159946974Y-108736448D01*
X159933090Y-108755168D01*
X159917438Y-108772438D01*
X159900168Y-108788090D01*
X159881448Y-108801974D01*
X159861457Y-108813956D01*
X159840387Y-108823921D01*
X159818443Y-108831773D01*
X159795834Y-108837437D01*
X159772779Y-108840856D01*
X159749500Y-108842000D01*
X159274500Y-108842000D01*
X159251221Y-108840856D01*
X159228166Y-108837437D01*
X159205557Y-108831773D01*
X159183613Y-108823921D01*
X159162543Y-108813956D01*
X159142552Y-108801974D01*
X159123832Y-108788090D01*
X159106562Y-108772438D01*
X159090910Y-108755168D01*
X159077026Y-108736448D01*
X159065044Y-108716457D01*
X159055079Y-108695387D01*
X159047227Y-108673443D01*
X159041563Y-108650834D01*
X159038144Y-108627779D01*
X159037000Y-108604500D01*
X159037000Y-108029500D01*
X159038144Y-108006221D01*
X159041563Y-107983166D01*
X159047227Y-107960557D01*
X159055079Y-107938613D01*
X159065044Y-107917543D01*
X159077026Y-107897552D01*
X159090910Y-107878832D01*
X159106562Y-107861562D01*
X159123832Y-107845910D01*
X159142552Y-107832026D01*
X159162543Y-107820044D01*
X159183613Y-107810079D01*
X159205557Y-107802227D01*
X159228166Y-107796563D01*
X159251221Y-107793144D01*
X159274500Y-107792000D01*
X159749500Y-107792000D01*
X159772779Y-107793144D01*
X159772779Y-107793144D01*
G37*
D11*
G04 #@! TD*
G04 #@! TO.P,R19,2*
G04 #@! TO.N,Net-(R19-Pad2)*
X159512000Y-108317000D03*
D10*
G04 #@! TO.N,GND*
G04 #@! TO.C,R19*
G36*
X159772779Y-106043144D02*
X159795834Y-106046563D01*
X159818443Y-106052227D01*
X159840387Y-106060079D01*
X159861457Y-106070044D01*
X159881448Y-106082026D01*
X159900168Y-106095910D01*
X159917438Y-106111562D01*
X159933090Y-106128832D01*
X159946974Y-106147552D01*
X159958956Y-106167543D01*
X159968921Y-106188613D01*
X159976773Y-106210557D01*
X159982437Y-106233166D01*
X159985856Y-106256221D01*
X159987000Y-106279500D01*
X159987000Y-106854500D01*
X159985856Y-106877779D01*
X159982437Y-106900834D01*
X159976773Y-106923443D01*
X159968921Y-106945387D01*
X159958956Y-106966457D01*
X159946974Y-106986448D01*
X159933090Y-107005168D01*
X159917438Y-107022438D01*
X159900168Y-107038090D01*
X159881448Y-107051974D01*
X159861457Y-107063956D01*
X159840387Y-107073921D01*
X159818443Y-107081773D01*
X159795834Y-107087437D01*
X159772779Y-107090856D01*
X159749500Y-107092000D01*
X159274500Y-107092000D01*
X159251221Y-107090856D01*
X159228166Y-107087437D01*
X159205557Y-107081773D01*
X159183613Y-107073921D01*
X159162543Y-107063956D01*
X159142552Y-107051974D01*
X159123832Y-107038090D01*
X159106562Y-107022438D01*
X159090910Y-107005168D01*
X159077026Y-106986448D01*
X159065044Y-106966457D01*
X159055079Y-106945387D01*
X159047227Y-106923443D01*
X159041563Y-106900834D01*
X159038144Y-106877779D01*
X159037000Y-106854500D01*
X159037000Y-106279500D01*
X159038144Y-106256221D01*
X159041563Y-106233166D01*
X159047227Y-106210557D01*
X159055079Y-106188613D01*
X159065044Y-106167543D01*
X159077026Y-106147552D01*
X159090910Y-106128832D01*
X159106562Y-106111562D01*
X159123832Y-106095910D01*
X159142552Y-106082026D01*
X159162543Y-106070044D01*
X159183613Y-106060079D01*
X159205557Y-106052227D01*
X159228166Y-106046563D01*
X159251221Y-106043144D01*
X159274500Y-106042000D01*
X159749500Y-106042000D01*
X159772779Y-106043144D01*
X159772779Y-106043144D01*
G37*
D11*
G04 #@! TD*
G04 #@! TO.P,R19,1*
G04 #@! TO.N,GND*
X159512000Y-106567000D03*
D10*
G04 #@! TO.N,GND*
G04 #@! TO.C,R20*
G36*
X146366779Y-69046144D02*
X146389834Y-69049563D01*
X146412443Y-69055227D01*
X146434387Y-69063079D01*
X146455457Y-69073044D01*
X146475448Y-69085026D01*
X146494168Y-69098910D01*
X146511438Y-69114562D01*
X146527090Y-69131832D01*
X146540974Y-69150552D01*
X146552956Y-69170543D01*
X146562921Y-69191613D01*
X146570773Y-69213557D01*
X146576437Y-69236166D01*
X146579856Y-69259221D01*
X146581000Y-69282500D01*
X146581000Y-69757500D01*
X146579856Y-69780779D01*
X146576437Y-69803834D01*
X146570773Y-69826443D01*
X146562921Y-69848387D01*
X146552956Y-69869457D01*
X146540974Y-69889448D01*
X146527090Y-69908168D01*
X146511438Y-69925438D01*
X146494168Y-69941090D01*
X146475448Y-69954974D01*
X146455457Y-69966956D01*
X146434387Y-69976921D01*
X146412443Y-69984773D01*
X146389834Y-69990437D01*
X146366779Y-69993856D01*
X146343500Y-69995000D01*
X145768500Y-69995000D01*
X145745221Y-69993856D01*
X145722166Y-69990437D01*
X145699557Y-69984773D01*
X145677613Y-69976921D01*
X145656543Y-69966956D01*
X145636552Y-69954974D01*
X145617832Y-69941090D01*
X145600562Y-69925438D01*
X145584910Y-69908168D01*
X145571026Y-69889448D01*
X145559044Y-69869457D01*
X145549079Y-69848387D01*
X145541227Y-69826443D01*
X145535563Y-69803834D01*
X145532144Y-69780779D01*
X145531000Y-69757500D01*
X145531000Y-69282500D01*
X145532144Y-69259221D01*
X145535563Y-69236166D01*
X145541227Y-69213557D01*
X145549079Y-69191613D01*
X145559044Y-69170543D01*
X145571026Y-69150552D01*
X145584910Y-69131832D01*
X145600562Y-69114562D01*
X145617832Y-69098910D01*
X145636552Y-69085026D01*
X145656543Y-69073044D01*
X145677613Y-69063079D01*
X145699557Y-69055227D01*
X145722166Y-69049563D01*
X145745221Y-69046144D01*
X145768500Y-69045000D01*
X146343500Y-69045000D01*
X146366779Y-69046144D01*
X146366779Y-69046144D01*
G37*
D11*
G04 #@! TD*
G04 #@! TO.P,R20,1*
G04 #@! TO.N,GND*
X146056000Y-69520000D03*
D10*
G04 #@! TO.N,/PIR*
G04 #@! TO.C,R20*
G36*
X148116779Y-69046144D02*
X148139834Y-69049563D01*
X148162443Y-69055227D01*
X148184387Y-69063079D01*
X148205457Y-69073044D01*
X148225448Y-69085026D01*
X148244168Y-69098910D01*
X148261438Y-69114562D01*
X148277090Y-69131832D01*
X148290974Y-69150552D01*
X148302956Y-69170543D01*
X148312921Y-69191613D01*
X148320773Y-69213557D01*
X148326437Y-69236166D01*
X148329856Y-69259221D01*
X148331000Y-69282500D01*
X148331000Y-69757500D01*
X148329856Y-69780779D01*
X148326437Y-69803834D01*
X148320773Y-69826443D01*
X148312921Y-69848387D01*
X148302956Y-69869457D01*
X148290974Y-69889448D01*
X148277090Y-69908168D01*
X148261438Y-69925438D01*
X148244168Y-69941090D01*
X148225448Y-69954974D01*
X148205457Y-69966956D01*
X148184387Y-69976921D01*
X148162443Y-69984773D01*
X148139834Y-69990437D01*
X148116779Y-69993856D01*
X148093500Y-69995000D01*
X147518500Y-69995000D01*
X147495221Y-69993856D01*
X147472166Y-69990437D01*
X147449557Y-69984773D01*
X147427613Y-69976921D01*
X147406543Y-69966956D01*
X147386552Y-69954974D01*
X147367832Y-69941090D01*
X147350562Y-69925438D01*
X147334910Y-69908168D01*
X147321026Y-69889448D01*
X147309044Y-69869457D01*
X147299079Y-69848387D01*
X147291227Y-69826443D01*
X147285563Y-69803834D01*
X147282144Y-69780779D01*
X147281000Y-69757500D01*
X147281000Y-69282500D01*
X147282144Y-69259221D01*
X147285563Y-69236166D01*
X147291227Y-69213557D01*
X147299079Y-69191613D01*
X147309044Y-69170543D01*
X147321026Y-69150552D01*
X147334910Y-69131832D01*
X147350562Y-69114562D01*
X147367832Y-69098910D01*
X147386552Y-69085026D01*
X147406543Y-69073044D01*
X147427613Y-69063079D01*
X147449557Y-69055227D01*
X147472166Y-69049563D01*
X147495221Y-69046144D01*
X147518500Y-69045000D01*
X148093500Y-69045000D01*
X148116779Y-69046144D01*
X148116779Y-69046144D01*
G37*
D11*
G04 #@! TD*
G04 #@! TO.P,R20,2*
G04 #@! TO.N,/PIR*
X147806000Y-69520000D03*
D10*
G04 #@! TO.N,/V_USB*
G04 #@! TO.C,R22*
G36*
X153803779Y-117597544D02*
X153826834Y-117600963D01*
X153849443Y-117606627D01*
X153871387Y-117614479D01*
X153892457Y-117624444D01*
X153912448Y-117636426D01*
X153931168Y-117650310D01*
X153948438Y-117665962D01*
X153964090Y-117683232D01*
X153977974Y-117701952D01*
X153989956Y-117721943D01*
X153999921Y-117743013D01*
X154007773Y-117764957D01*
X154013437Y-117787566D01*
X154016856Y-117810621D01*
X154018000Y-117833900D01*
X154018000Y-118408900D01*
X154016856Y-118432179D01*
X154013437Y-118455234D01*
X154007773Y-118477843D01*
X153999921Y-118499787D01*
X153989956Y-118520857D01*
X153977974Y-118540848D01*
X153964090Y-118559568D01*
X153948438Y-118576838D01*
X153931168Y-118592490D01*
X153912448Y-118606374D01*
X153892457Y-118618356D01*
X153871387Y-118628321D01*
X153849443Y-118636173D01*
X153826834Y-118641837D01*
X153803779Y-118645256D01*
X153780500Y-118646400D01*
X153305500Y-118646400D01*
X153282221Y-118645256D01*
X153259166Y-118641837D01*
X153236557Y-118636173D01*
X153214613Y-118628321D01*
X153193543Y-118618356D01*
X153173552Y-118606374D01*
X153154832Y-118592490D01*
X153137562Y-118576838D01*
X153121910Y-118559568D01*
X153108026Y-118540848D01*
X153096044Y-118520857D01*
X153086079Y-118499787D01*
X153078227Y-118477843D01*
X153072563Y-118455234D01*
X153069144Y-118432179D01*
X153068000Y-118408900D01*
X153068000Y-117833900D01*
X153069144Y-117810621D01*
X153072563Y-117787566D01*
X153078227Y-117764957D01*
X153086079Y-117743013D01*
X153096044Y-117721943D01*
X153108026Y-117701952D01*
X153121910Y-117683232D01*
X153137562Y-117665962D01*
X153154832Y-117650310D01*
X153173552Y-117636426D01*
X153193543Y-117624444D01*
X153214613Y-117614479D01*
X153236557Y-117606627D01*
X153259166Y-117600963D01*
X153282221Y-117597544D01*
X153305500Y-117596400D01*
X153780500Y-117596400D01*
X153803779Y-117597544D01*
X153803779Y-117597544D01*
G37*
D11*
G04 #@! TD*
G04 #@! TO.P,R22,1*
G04 #@! TO.N,/V_USB*
X153543000Y-118121400D03*
D10*
G04 #@! TO.N,GND*
G04 #@! TO.C,R22*
G36*
X153803779Y-115847544D02*
X153826834Y-115850963D01*
X153849443Y-115856627D01*
X153871387Y-115864479D01*
X153892457Y-115874444D01*
X153912448Y-115886426D01*
X153931168Y-115900310D01*
X153948438Y-115915962D01*
X153964090Y-115933232D01*
X153977974Y-115951952D01*
X153989956Y-115971943D01*
X153999921Y-115993013D01*
X154007773Y-116014957D01*
X154013437Y-116037566D01*
X154016856Y-116060621D01*
X154018000Y-116083900D01*
X154018000Y-116658900D01*
X154016856Y-116682179D01*
X154013437Y-116705234D01*
X154007773Y-116727843D01*
X153999921Y-116749787D01*
X153989956Y-116770857D01*
X153977974Y-116790848D01*
X153964090Y-116809568D01*
X153948438Y-116826838D01*
X153931168Y-116842490D01*
X153912448Y-116856374D01*
X153892457Y-116868356D01*
X153871387Y-116878321D01*
X153849443Y-116886173D01*
X153826834Y-116891837D01*
X153803779Y-116895256D01*
X153780500Y-116896400D01*
X153305500Y-116896400D01*
X153282221Y-116895256D01*
X153259166Y-116891837D01*
X153236557Y-116886173D01*
X153214613Y-116878321D01*
X153193543Y-116868356D01*
X153173552Y-116856374D01*
X153154832Y-116842490D01*
X153137562Y-116826838D01*
X153121910Y-116809568D01*
X153108026Y-116790848D01*
X153096044Y-116770857D01*
X153086079Y-116749787D01*
X153078227Y-116727843D01*
X153072563Y-116705234D01*
X153069144Y-116682179D01*
X153068000Y-116658900D01*
X153068000Y-116083900D01*
X153069144Y-116060621D01*
X153072563Y-116037566D01*
X153078227Y-116014957D01*
X153086079Y-115993013D01*
X153096044Y-115971943D01*
X153108026Y-115951952D01*
X153121910Y-115933232D01*
X153137562Y-115915962D01*
X153154832Y-115900310D01*
X153173552Y-115886426D01*
X153193543Y-115874444D01*
X153214613Y-115864479D01*
X153236557Y-115856627D01*
X153259166Y-115850963D01*
X153282221Y-115847544D01*
X153305500Y-115846400D01*
X153780500Y-115846400D01*
X153803779Y-115847544D01*
X153803779Y-115847544D01*
G37*
D11*
G04 #@! TD*
G04 #@! TO.P,R22,2*
G04 #@! TO.N,GND*
X153543000Y-116371400D03*
D10*
G04 #@! TO.N,/RELAY*
G04 #@! TO.C,R26*
G36*
X141010779Y-100216144D02*
X141033834Y-100219563D01*
X141056443Y-100225227D01*
X141078387Y-100233079D01*
X141099457Y-100243044D01*
X141119448Y-100255026D01*
X141138168Y-100268910D01*
X141155438Y-100284562D01*
X141171090Y-100301832D01*
X141184974Y-100320552D01*
X141196956Y-100340543D01*
X141206921Y-100361613D01*
X141214773Y-100383557D01*
X141220437Y-100406166D01*
X141223856Y-100429221D01*
X141225000Y-100452500D01*
X141225000Y-100927500D01*
X141223856Y-100950779D01*
X141220437Y-100973834D01*
X141214773Y-100996443D01*
X141206921Y-101018387D01*
X141196956Y-101039457D01*
X141184974Y-101059448D01*
X141171090Y-101078168D01*
X141155438Y-101095438D01*
X141138168Y-101111090D01*
X141119448Y-101124974D01*
X141099457Y-101136956D01*
X141078387Y-101146921D01*
X141056443Y-101154773D01*
X141033834Y-101160437D01*
X141010779Y-101163856D01*
X140987500Y-101165000D01*
X140412500Y-101165000D01*
X140389221Y-101163856D01*
X140366166Y-101160437D01*
X140343557Y-101154773D01*
X140321613Y-101146921D01*
X140300543Y-101136956D01*
X140280552Y-101124974D01*
X140261832Y-101111090D01*
X140244562Y-101095438D01*
X140228910Y-101078168D01*
X140215026Y-101059448D01*
X140203044Y-101039457D01*
X140193079Y-101018387D01*
X140185227Y-100996443D01*
X140179563Y-100973834D01*
X140176144Y-100950779D01*
X140175000Y-100927500D01*
X140175000Y-100452500D01*
X140176144Y-100429221D01*
X140179563Y-100406166D01*
X140185227Y-100383557D01*
X140193079Y-100361613D01*
X140203044Y-100340543D01*
X140215026Y-100320552D01*
X140228910Y-100301832D01*
X140244562Y-100284562D01*
X140261832Y-100268910D01*
X140280552Y-100255026D01*
X140300543Y-100243044D01*
X140321613Y-100233079D01*
X140343557Y-100225227D01*
X140366166Y-100219563D01*
X140389221Y-100216144D01*
X140412500Y-100215000D01*
X140987500Y-100215000D01*
X141010779Y-100216144D01*
X141010779Y-100216144D01*
G37*
D11*
G04 #@! TD*
G04 #@! TO.P,R26,1*
G04 #@! TO.N,/RELAY*
X140700000Y-100690000D03*
D10*
G04 #@! TO.N,GND*
G04 #@! TO.C,R26*
G36*
X139260779Y-100216144D02*
X139283834Y-100219563D01*
X139306443Y-100225227D01*
X139328387Y-100233079D01*
X139349457Y-100243044D01*
X139369448Y-100255026D01*
X139388168Y-100268910D01*
X139405438Y-100284562D01*
X139421090Y-100301832D01*
X139434974Y-100320552D01*
X139446956Y-100340543D01*
X139456921Y-100361613D01*
X139464773Y-100383557D01*
X139470437Y-100406166D01*
X139473856Y-100429221D01*
X139475000Y-100452500D01*
X139475000Y-100927500D01*
X139473856Y-100950779D01*
X139470437Y-100973834D01*
X139464773Y-100996443D01*
X139456921Y-101018387D01*
X139446956Y-101039457D01*
X139434974Y-101059448D01*
X139421090Y-101078168D01*
X139405438Y-101095438D01*
X139388168Y-101111090D01*
X139369448Y-101124974D01*
X139349457Y-101136956D01*
X139328387Y-101146921D01*
X139306443Y-101154773D01*
X139283834Y-101160437D01*
X139260779Y-101163856D01*
X139237500Y-101165000D01*
X138662500Y-101165000D01*
X138639221Y-101163856D01*
X138616166Y-101160437D01*
X138593557Y-101154773D01*
X138571613Y-101146921D01*
X138550543Y-101136956D01*
X138530552Y-101124974D01*
X138511832Y-101111090D01*
X138494562Y-101095438D01*
X138478910Y-101078168D01*
X138465026Y-101059448D01*
X138453044Y-101039457D01*
X138443079Y-101018387D01*
X138435227Y-100996443D01*
X138429563Y-100973834D01*
X138426144Y-100950779D01*
X138425000Y-100927500D01*
X138425000Y-100452500D01*
X138426144Y-100429221D01*
X138429563Y-100406166D01*
X138435227Y-100383557D01*
X138443079Y-100361613D01*
X138453044Y-100340543D01*
X138465026Y-100320552D01*
X138478910Y-100301832D01*
X138494562Y-100284562D01*
X138511832Y-100268910D01*
X138530552Y-100255026D01*
X138550543Y-100243044D01*
X138571613Y-100233079D01*
X138593557Y-100225227D01*
X138616166Y-100219563D01*
X138639221Y-100216144D01*
X138662500Y-100215000D01*
X139237500Y-100215000D01*
X139260779Y-100216144D01*
X139260779Y-100216144D01*
G37*
D11*
G04 #@! TD*
G04 #@! TO.P,R26,2*
G04 #@! TO.N,GND*
X138950000Y-100690000D03*
D20*
G04 #@! TO.P,U1,3*
G04 #@! TO.N,/3V3*
X155498800Y-82651600D03*
G04 #@! TO.P,U1,36*
G04 #@! TO.N,/I2S_DATA_IN*
X137464800Y-82679600D03*
D21*
G04 #@! TO.P,U1,23*
G04 #@! TO.N,/PIR*
X142036800Y-98145600D03*
G04 #@! TO.P,U1,24*
G04 #@! TO.N,/RELAY*
X140766800Y-98145600D03*
G04 #@! TO.P,U1,19*
G04 #@! TO.N,Net-(U1-Pad19)*
X147116800Y-98145600D03*
G04 #@! TO.P,U1,20*
G04 #@! TO.N,Net-(U1-Pad20)*
X145846800Y-98145600D03*
G04 #@! TO.P,U1,22*
G04 #@! TO.N,Net-(U1-Pad22)*
X143306800Y-98145600D03*
G04 #@! TO.P,U1,21*
G04 #@! TO.N,Net-(U1-Pad21)*
X144576800Y-98145600D03*
G04 #@! TO.P,U1,17*
G04 #@! TO.N,Net-(U1-Pad17)*
X149656800Y-98145600D03*
G04 #@! TO.P,U1,18*
G04 #@! TO.N,Net-(U1-Pad18)*
X148386800Y-98145600D03*
G04 #@! TO.P,U1,16*
G04 #@! TO.N,Net-(U1-Pad16)*
X150926800Y-98145600D03*
G04 #@! TO.P,U1,1*
G04 #@! TO.N,GND*
X152196800Y-98145600D03*
D20*
X137480800Y-80131600D03*
G04 #@! TO.P,U1,37*
G04 #@! TO.N,Net-(R7-Pad2)*
X137464800Y-81409600D03*
G04 #@! TO.P,U1,34*
G04 #@! TO.N,/RXD*
X137464800Y-85219600D03*
G04 #@! TO.P,U1,35*
G04 #@! TO.N,/TXD*
X137480800Y-83941600D03*
G04 #@! TO.P,U1,31*
G04 #@! TO.N,/SDA*
X137480800Y-89021600D03*
G04 #@! TO.P,U1,30*
G04 #@! TO.N,/BUTTON_LED*
X137464800Y-90299600D03*
G04 #@! TO.P,U1,32*
G04 #@! TO.N,N/C*
X137464800Y-87759600D03*
G04 #@! TO.P,U1,33*
G04 #@! TO.N,/SCL*
X137480800Y-86481600D03*
G04 #@! TO.P,U1,25*
G04 #@! TO.N,/PROG*
X137480800Y-96641600D03*
G04 #@! TO.P,U1,27*
G04 #@! TO.N,/IR_RX*
X137480800Y-94101600D03*
G04 #@! TO.P,U1,26*
G04 #@! TO.N,/IR_TX*
X137464800Y-95379600D03*
G04 #@! TO.P,U1,28*
G04 #@! TO.N,Net-(U1-Pad28)*
X137464800Y-92839600D03*
G04 #@! TO.P,U1,29*
G04 #@! TO.N,Net-(U1-Pad29)*
X137480800Y-91561600D03*
G04 #@! TO.P,U1,10*
G04 #@! TO.N,/I2S_DATA_OUT*
X155514800Y-91561600D03*
G04 #@! TO.P,U1,11*
G04 #@! TO.N,Net-(R1-Pad1)*
X155498800Y-92839600D03*
G04 #@! TO.P,U1,13*
G04 #@! TO.N,/FACTORY_RST*
X155498800Y-95379600D03*
G04 #@! TO.P,U1,12*
G04 #@! TO.N,/T_UP*
X155514800Y-94101600D03*
G04 #@! TO.P,U1,14*
G04 #@! TO.N,/T_DOWN*
X155514800Y-96641600D03*
G04 #@! TO.P,U1,6*
G04 #@! TO.N,Net-(U1-Pad6)*
X155514800Y-86481600D03*
G04 #@! TO.P,U1,7*
G04 #@! TO.N,/ZERO_DETECT*
X155498800Y-87759600D03*
G04 #@! TO.P,U1,9*
G04 #@! TO.N,/T_RIGHT*
X155498800Y-90299600D03*
G04 #@! TO.P,U1,8*
G04 #@! TO.N,/T_LEFT*
X155514800Y-89021600D03*
G04 #@! TO.P,U1,4*
G04 #@! TO.N,Net-(U1-Pad4)*
X155514800Y-83941600D03*
G04 #@! TO.P,U1,5*
G04 #@! TO.N,Net-(U1-Pad5)*
X155498800Y-85219600D03*
G04 #@! TO.P,U1,2*
G04 #@! TO.N,/3V3*
X155498800Y-81381600D03*
G04 #@! TO.P,U1,1*
G04 #@! TO.N,GND*
X155498800Y-80111600D03*
D22*
X147172680Y-88798400D03*
G04 #@! TD*
D23*
G04 #@! TO.P,U3,3*
G04 #@! TO.N,GND*
X139576400Y-60426800D03*
G04 #@! TD*
D24*
G04 #@! TO.P,U4,5*
G04 #@! TO.N,Net-(R19-Pad2)*
X159674600Y-110558600D03*
G04 #@! TO.P,U4,4*
G04 #@! TO.N,/V_USB*
X157774600Y-110558600D03*
G04 #@! TO.P,U4,3*
G04 #@! TO.N,/V_BAT*
X157774600Y-113258600D03*
G04 #@! TO.P,U4,2*
G04 #@! TO.N,GND*
X158724600Y-113258600D03*
G04 #@! TO.P,U4,1*
G04 #@! TO.N,Net-(D3-Pad1)*
X159674600Y-113258600D03*
G04 #@! TD*
D25*
G04 #@! TO.P,U5,12*
G04 #@! TO.N,N/C*
X142831000Y-113533400D03*
G04 #@! TO.P,U5,3*
G04 #@! TO.N,GND*
X142831000Y-113033400D03*
G04 #@! TO.P,U5,10*
G04 #@! TO.N,Net-(LS1-Pad1)*
X142831000Y-112533400D03*
G04 #@! TO.P,U5,9*
G04 #@! TO.N,Net-(LS1-Pad2)*
X142831000Y-112033400D03*
D26*
G04 #@! TO.P,U5,13*
G04 #@! TO.N,N/C*
X142131000Y-114293400D03*
G04 #@! TO.P,U5,14*
G04 #@! TO.N,/I2S_WS*
X141631000Y-114293400D03*
G04 #@! TO.P,U5,3*
G04 #@! TO.N,GND*
X141131000Y-114293400D03*
G04 #@! TO.P,U5,16*
G04 #@! TO.N,/I2S_BCLK*
X140631000Y-114293400D03*
G04 #@! TO.P,U5,5*
G04 #@! TO.N,N/C*
X140631000Y-111313400D03*
G04 #@! TO.P,U5,6*
X141131000Y-111313400D03*
G04 #@! TO.P,U5,7*
G04 #@! TO.N,/V_IN*
X141631000Y-111313400D03*
X142131000Y-111313400D03*
D25*
G04 #@! TO.P,U5,2*
G04 #@! TO.N,Net-(R17-Pad1)*
X139911000Y-113073400D03*
G04 #@! TO.P,U5,1*
G04 #@! TO.N,/I2S_DATA_OUT*
X139911000Y-113573400D03*
G04 #@! TO.P,U5,3*
G04 #@! TO.N,GND*
X139911000Y-112573400D03*
G04 #@! TO.P,U5,4*
G04 #@! TO.N,/V_IN*
X139911000Y-112073400D03*
G04 #@! TD*
D24*
G04 #@! TO.P,U9,1*
G04 #@! TO.N,/V_IN*
X153633200Y-113694200D03*
G04 #@! TO.P,U9,2*
G04 #@! TO.N,GND*
X152683200Y-113694200D03*
G04 #@! TO.P,U9,3*
G04 #@! TO.N,/V_IN*
X151733200Y-113694200D03*
G04 #@! TO.P,U9,4*
G04 #@! TO.N,N/C*
X151733200Y-110994200D03*
G04 #@! TO.P,U9,5*
G04 #@! TO.N,/3V3*
X153633200Y-110994200D03*
G04 #@! TD*
D27*
G04 #@! TO.P,U10,3*
G04 #@! TO.N,Net-(R18-Pad2)*
X149160800Y-59449400D03*
G04 #@! TO.P,U10,2*
G04 #@! TO.N,/3V3*
X145570800Y-59439400D03*
G04 #@! TO.P,U10,1*
G04 #@! TO.N,GND*
X149170800Y-63039400D03*
G04 #@! TD*
D28*
G04 #@! TO.N,GND*
X133897400Y-57454800D03*
X134899400Y-63576200D03*
X138430000Y-66294000D03*
X133350000Y-66802000D03*
X158496000Y-71628000D03*
X158496000Y-74930000D03*
X145542000Y-70104000D03*
X135382000Y-116332000D03*
X135382000Y-109474000D03*
X137972800Y-111875600D03*
X154940000Y-107696000D03*
X151130000Y-108458000D03*
X158724600Y-113258600D03*
X154178000Y-66802000D03*
X154432000Y-79756000D03*
X160528000Y-100076000D03*
X152654000Y-99060000D03*
X138430000Y-100330000D03*
D29*
X138430000Y-79756000D03*
X144616000Y-87046000D03*
X147172680Y-88798400D03*
D28*
X160020000Y-106172000D03*
X154940000Y-111252000D03*
X140785972Y-113417970D03*
X152654000Y-112968010D03*
X154624010Y-116115760D03*
X139825010Y-108712000D03*
G04 #@! TO.N,Net-(D2-Pad1)*
X156464000Y-113792000D03*
G04 #@! TO.N,Net-(D4-Pad1)*
X137922000Y-107950000D03*
G04 #@! TO.N,Net-(D5-Pad1)*
X137922000Y-117348000D03*
G04 #@! TO.N,Net-(LS1-Pad1)*
X143764000Y-112776000D03*
G04 #@! TO.N,Net-(LS1-Pad2)*
X143002000Y-111252000D03*
G04 #@! TO.N,Net-(R3-Pad2)*
X158863000Y-61214000D03*
G04 #@! TO.N,Net-(R11-Pad2)*
X139446000Y-64008000D03*
G04 #@! TO.N,/V_BAT*
X157226000Y-115316000D03*
X153924000Y-115316000D03*
X152146000Y-118110000D03*
X155892372Y-115464356D03*
G04 #@! TO.N,/3V3*
X135647400Y-57454800D03*
X138676400Y-62496800D03*
X136549400Y-63576200D03*
X157556200Y-58674000D03*
X153633200Y-110994200D03*
X135382000Y-124714000D03*
X135890000Y-122682000D03*
X136906000Y-116332000D03*
X155956000Y-101092000D03*
X156718000Y-99568000D03*
X159004000Y-97536000D03*
X160274000Y-96520000D03*
X160274000Y-94234000D03*
X160274000Y-91186000D03*
G04 #@! TO.N,/V_IN*
X142110400Y-109423200D03*
X144272000Y-107442000D03*
X149783800Y-111449800D03*
X146924989Y-108204000D03*
D29*
G04 #@! TO.N,/V_USB*
X153670000Y-98044000D03*
D28*
X160782000Y-118110000D03*
X161724990Y-111723200D03*
G04 #@! TO.N,/BUTTON_LED*
X137464800Y-90299600D03*
G04 #@! TO.N,/FACTORY_RST*
X158242000Y-117094000D03*
X160528000Y-109982000D03*
G04 #@! TO.N,/TXD*
X140208000Y-102616000D03*
X136398000Y-102616000D03*
X137480800Y-83941600D03*
X132774990Y-88896848D03*
G04 #@! TO.N,/RELAY*
X146500000Y-120000000D03*
X145800000Y-111600000D03*
X147200000Y-110600000D03*
X147400000Y-107300000D03*
X147300000Y-105400000D03*
X145600000Y-102500000D03*
X144300000Y-101200000D03*
G04 #@! TO.N,/RXD*
X140208000Y-103378000D03*
X136398000Y-103378000D03*
X132101011Y-90678000D03*
X136400000Y-84900000D03*
G04 #@! TO.N,/SCL*
X137420000Y-60085000D03*
X139337824Y-67576874D03*
G04 #@! TO.N,/SDA*
X132080000Y-59980000D03*
X131826000Y-62992000D03*
G04 #@! TO.N,/I2S_WS*
X132588000Y-83312000D03*
X131826000Y-87376000D03*
X133604000Y-104394000D03*
X135128000Y-104394000D03*
X141224000Y-108204000D03*
X141732000Y-113538000D03*
X140462000Y-65278000D03*
G04 #@! TO.N,/I2S_BCLK*
X139446000Y-56642000D03*
X142124990Y-120618510D03*
X162100000Y-108800000D03*
X162300000Y-118200000D03*
X144703800Y-127355600D03*
G04 #@! TO.N,/I2S_DATA_OUT*
X139200000Y-113800000D03*
X139200000Y-111600000D03*
X139300000Y-107200000D03*
X141400000Y-105000000D03*
X142800000Y-104000000D03*
X144200000Y-102700000D03*
X153700000Y-100300000D03*
X155400000Y-99400000D03*
X157600000Y-96100000D03*
X157100000Y-91700000D03*
G04 #@! TO.N,/PROG*
X134074000Y-111498600D03*
X134366000Y-99568000D03*
X134366000Y-102870000D03*
X134074000Y-107398600D03*
G04 #@! TO.N,/ZERO_DETECT*
X136900000Y-121100000D03*
X132500000Y-120300000D03*
X133600000Y-105600000D03*
X135200000Y-105600000D03*
X137900000Y-105700000D03*
X142900000Y-96200000D03*
X149800000Y-85900000D03*
X150200000Y-84400000D03*
G04 #@! TO.N,/IR_RX*
X148590000Y-71374000D03*
X146812000Y-71374000D03*
X133858000Y-83058000D03*
X133858000Y-89916000D03*
X134366000Y-93980000D03*
X137480800Y-94101600D03*
X133925010Y-85874338D03*
X133910010Y-79756000D03*
G04 #@! TO.N,/IR_TX*
X148590000Y-72390000D03*
X146812000Y-72390000D03*
X135128000Y-80010000D03*
X135128000Y-83058000D03*
X135128000Y-85852000D03*
X135128000Y-89916000D03*
G04 #@! TO.N,/I2S_DATA_IN*
X141224000Y-71374000D03*
X141224000Y-74930000D03*
G04 #@! TO.N,/EN*
X134074000Y-114383600D03*
G04 #@! TO.N,/PIR*
X142748000Y-85090000D03*
X142748000Y-86614000D03*
D30*
G04 #@! TO.N,/T_UP*
X151130000Y-87630000D03*
G04 #@! TO.N,/T_DOWN*
X146720000Y-95492000D03*
G04 #@! TO.N,/T_RIGHT*
X153162000Y-91440000D03*
G04 #@! TO.N,/T_LEFT*
X139620000Y-88392000D03*
G04 #@! TD*
D31*
G04 #@! TO.N,GND*
X137617200Y-66280000D02*
X138416000Y-66280000D01*
X138416000Y-66280000D02*
X138430000Y-66294000D01*
X138432600Y-66291400D02*
X138430000Y-66294000D01*
X139471400Y-66291400D02*
X138432600Y-66291400D01*
X133745000Y-66395600D02*
X133745000Y-66407000D01*
X133745000Y-66407000D02*
X133350000Y-66802000D01*
X158487557Y-70952955D02*
X158487557Y-71619557D01*
X158487557Y-71619557D02*
X158496000Y-71628000D01*
X158487557Y-71636443D02*
X158496000Y-71628000D01*
X158487557Y-72552955D02*
X158487557Y-71636443D01*
X158487557Y-74202955D02*
X158487557Y-74921557D01*
X158487557Y-74921557D02*
X158496000Y-74930000D01*
X158487557Y-74938443D02*
X158496000Y-74930000D01*
X158487557Y-75802955D02*
X158487557Y-74938443D01*
X146056000Y-69520000D02*
X146056000Y-69590000D01*
X146056000Y-69590000D02*
X145542000Y-70104000D01*
D32*
X139911000Y-112573400D02*
X138670600Y-112573400D01*
X138670600Y-112573400D02*
X137972800Y-111875600D01*
D31*
X155321000Y-108192600D02*
X155321000Y-108077000D01*
X155321000Y-108077000D02*
X154940000Y-107696000D01*
X151779000Y-108864400D02*
X151536400Y-108864400D01*
X151536400Y-108864400D02*
X151130000Y-108458000D01*
X154702000Y-67376000D02*
X154702000Y-67326000D01*
X154702000Y-67326000D02*
X154178000Y-66802000D01*
X155498800Y-80111600D02*
X154787600Y-80111600D01*
X154787600Y-80111600D02*
X154432000Y-79756000D01*
X160020000Y-100330000D02*
X160274000Y-100330000D01*
X160274000Y-100330000D02*
X160528000Y-100076000D01*
X152196800Y-98145600D02*
X152196800Y-98602800D01*
X152196800Y-98602800D02*
X152654000Y-99060000D01*
X138950000Y-100690000D02*
X138790000Y-100690000D01*
X138790000Y-100690000D02*
X138430000Y-100330000D01*
D33*
X137480800Y-80131600D02*
X138054400Y-80131600D01*
X138054400Y-80131600D02*
X138430000Y-79756000D01*
X147172680Y-88798400D02*
X146368400Y-88798400D01*
X146368400Y-88798400D02*
X144616000Y-87046000D01*
D31*
X159512000Y-106567000D02*
X159625000Y-106567000D01*
X159625000Y-106567000D02*
X160020000Y-106172000D01*
D32*
X155346400Y-111963200D02*
X155346400Y-111658400D01*
X155346400Y-111658400D02*
X154940000Y-111252000D01*
X141131000Y-114293400D02*
X141131000Y-113762998D01*
X141131000Y-113762998D02*
X140785972Y-113417970D01*
D31*
X152654000Y-113392274D02*
X152654000Y-112968010D01*
X152683200Y-113694200D02*
X152654000Y-113665000D01*
X152654000Y-113665000D02*
X152654000Y-113392274D01*
X154368370Y-116371400D02*
X154624010Y-116115760D01*
X153543000Y-116371400D02*
X154368370Y-116371400D01*
D32*
X141290943Y-112912999D02*
X140785972Y-113417970D01*
X142032001Y-112912999D02*
X141290943Y-112912999D01*
X142152402Y-113033400D02*
X142032001Y-112912999D01*
X142831000Y-113033400D02*
X142152402Y-113033400D01*
X139825010Y-108887810D02*
X139825010Y-108712000D01*
X140360400Y-109423200D02*
X139825010Y-108887810D01*
D31*
X152683200Y-115511600D02*
X153543000Y-116371400D01*
X152683200Y-113694200D02*
X152683200Y-115511600D01*
G04 #@! TO.N,Net-(D1-Pad1)*
X156702000Y-64017400D02*
X156692600Y-64008000D01*
X156702000Y-68326000D02*
X156702000Y-64017400D01*
G04 #@! TO.N,Net-(D1-Pad2)*
X159232600Y-68238400D02*
X158383000Y-69088000D01*
X159232600Y-64008000D02*
X159232600Y-68238400D01*
D32*
G04 #@! TO.N,Net-(D2-Pad1)*
X156492000Y-117094000D02*
X156492000Y-113820000D01*
X156492000Y-113820000D02*
X156464000Y-113792000D01*
G04 #@! TO.N,Net-(D3-Pad2)*
X161885600Y-117006400D02*
X161798000Y-117094000D01*
X161885600Y-113473200D02*
X161885600Y-117006400D01*
G04 #@! TO.N,Net-(D3-Pad1)*
X160048000Y-113632000D02*
X159674600Y-113258600D01*
X160048000Y-117094000D02*
X160048000Y-113632000D01*
D31*
G04 #@! TO.N,Net-(Q1-Pad1)*
X154627000Y-69201000D02*
X154702000Y-69276000D01*
X152908000Y-69201000D02*
X154627000Y-69201000D01*
D32*
G04 #@! TO.N,Net-(R1-Pad1)*
X155508400Y-92830000D02*
X155498800Y-92839600D01*
X158350000Y-92830000D02*
X155508400Y-92830000D01*
D31*
G04 #@! TO.N,Net-(R19-Pad2)*
X159512000Y-110396000D02*
X159674600Y-110558600D01*
X159512000Y-108317000D02*
X159512000Y-110396000D01*
D32*
G04 #@! TO.N,Net-(LS1-Pad1)*
X143521400Y-112533400D02*
X143764000Y-112776000D01*
X142831000Y-112533400D02*
X143521400Y-112533400D01*
G04 #@! TO.N,Net-(LS1-Pad2)*
X142831000Y-112033400D02*
X142831000Y-111423000D01*
X142831000Y-111423000D02*
X143002000Y-111252000D01*
G04 #@! TO.N,Net-(R11-Pad2)*
X139482800Y-64530000D02*
X139471400Y-64541400D01*
X141351000Y-64530000D02*
X139482800Y-64530000D01*
X139446000Y-64516000D02*
X139471400Y-64541400D01*
X139446000Y-64008000D02*
X139446000Y-64516000D01*
G04 #@! TO.N,Net-(R17-Pad1)*
X138525000Y-113073400D02*
X139911000Y-113073400D01*
X137972800Y-113625600D02*
X138525000Y-113073400D01*
D31*
G04 #@! TO.N,Net-(R18-Pad2)*
X146076000Y-62534200D02*
X146076000Y-67870000D01*
X149160800Y-59449400D02*
X146076000Y-62534200D01*
G04 #@! TO.N,/V_BAT*
X155321000Y-110350000D02*
X155321000Y-109942600D01*
X157774600Y-112803600D02*
X155321000Y-110350000D01*
X157774600Y-113258600D02*
X157774600Y-112803600D01*
X157774600Y-113258600D02*
X157774600Y-114767400D01*
X157774600Y-114767400D02*
X157226000Y-115316000D01*
X155744016Y-115316000D02*
X155892372Y-115464356D01*
X153924000Y-115316000D02*
X155744016Y-115316000D01*
X150555200Y-118110000D02*
X150418800Y-118246400D01*
X152146000Y-118110000D02*
X150555200Y-118110000D01*
X150418800Y-118296400D02*
X150418800Y-118246400D01*
X152927199Y-120804799D02*
X150418800Y-118296400D01*
X152927199Y-123386999D02*
X152927199Y-120804799D01*
X154127200Y-124587000D02*
X152927199Y-123386999D01*
G04 #@! TO.N,/3V3*
X134072600Y-55880000D02*
X135647400Y-57454800D01*
X132588000Y-55880000D02*
X134072600Y-55880000D01*
X132080000Y-58230000D02*
X132080000Y-56388000D01*
X132080000Y-56388000D02*
X132588000Y-55880000D01*
X136539800Y-57454800D02*
X137420000Y-58335000D01*
X135647400Y-57454800D02*
X136539800Y-57454800D01*
X139376400Y-62496800D02*
X139389200Y-62484000D01*
X138676400Y-62496800D02*
X139376400Y-62496800D01*
X139389200Y-62484000D02*
X139700000Y-62484000D01*
X139700000Y-62484000D02*
X140970000Y-61214000D01*
X140970000Y-61214000D02*
X140970000Y-59182000D01*
X140123000Y-58335000D02*
X137420000Y-58335000D01*
X140970000Y-59182000D02*
X140123000Y-58335000D01*
X137617200Y-63556000D02*
X138676400Y-62496800D01*
X137617200Y-64530000D02*
X137617200Y-63556000D01*
X137617200Y-64530000D02*
X137503200Y-64530000D01*
X137503200Y-64530000D02*
X136549400Y-63576200D01*
X137360600Y-64530000D02*
X135495000Y-66395600D01*
X137617200Y-64530000D02*
X137360600Y-64530000D01*
X160632072Y-68588928D02*
X160632072Y-68475928D01*
X160133000Y-69088000D02*
X160632072Y-68588928D01*
X160133000Y-70848398D02*
X160237557Y-70952955D01*
X160133000Y-69088000D02*
X160133000Y-70848398D01*
X160237557Y-70952955D02*
X160237557Y-72552955D01*
X160237557Y-72552955D02*
X160237557Y-74202955D01*
X160237557Y-75802955D02*
X160237557Y-74202955D01*
X145570800Y-59439400D02*
X143535400Y-57404000D01*
X138351000Y-57404000D02*
X137420000Y-58335000D01*
X143535400Y-57404000D02*
X138351000Y-57404000D01*
X157556200Y-58674000D02*
X151892000Y-58674000D01*
X151892000Y-58674000D02*
X151130000Y-57912000D01*
X147098200Y-57912000D02*
X145570800Y-59439400D01*
X151130000Y-57912000D02*
X147098200Y-57912000D01*
D32*
X158206200Y-58674000D02*
X161036000Y-61503800D01*
X157556200Y-58674000D02*
X158206200Y-58674000D01*
X161036000Y-68185000D02*
X160133000Y-69088000D01*
X161036000Y-61503800D02*
X161036000Y-68185000D01*
D31*
X153529000Y-110890000D02*
X153633200Y-110994200D01*
X153529000Y-108864400D02*
X153529000Y-110890000D01*
X155498800Y-81381600D02*
X155498800Y-82651600D01*
X156898800Y-81381600D02*
X155498800Y-81381600D01*
X160237557Y-78042843D02*
X156898800Y-81381600D01*
X160237557Y-75802955D02*
X160237557Y-78042843D01*
X151587200Y-124587000D02*
X149936200Y-126238000D01*
X149936200Y-126238000D02*
X136652000Y-126238000D01*
X136652000Y-126238000D02*
X135382000Y-124968000D01*
X135382000Y-124968000D02*
X135382000Y-124714000D01*
X136189999Y-122382001D02*
X136189999Y-120096001D01*
X135890000Y-122682000D02*
X136189999Y-122382001D01*
X136189999Y-120096001D02*
X136652000Y-119634000D01*
X136652000Y-119634000D02*
X136652000Y-116586000D01*
X136652000Y-116586000D02*
X136906000Y-116332000D01*
X153529000Y-108864400D02*
X153529000Y-103519000D01*
X153529000Y-103519000D02*
X155956000Y-101092000D01*
X156718000Y-99568000D02*
X156972000Y-99568000D01*
X156972000Y-99568000D02*
X159004000Y-97536000D01*
X160274000Y-96520000D02*
X160274000Y-94234000D01*
X156898800Y-82651600D02*
X155498800Y-82651600D01*
X160274000Y-86026800D02*
X156898800Y-82651600D01*
X160274000Y-91186000D02*
X160274000Y-86026800D01*
D32*
G04 #@! TO.N,/V_IN*
X141631000Y-111313400D02*
X142131000Y-111313400D01*
X142131000Y-109443800D02*
X142110400Y-109423200D01*
X142131000Y-111313400D02*
X142131000Y-109443800D01*
X141631000Y-111938400D02*
X141631000Y-111313400D01*
X141496000Y-112073400D02*
X141631000Y-111938400D01*
X139911000Y-112073400D02*
X141496000Y-112073400D01*
D31*
X149783800Y-111744800D02*
X151733200Y-113694200D01*
X149783800Y-111449800D02*
X149783800Y-111744800D01*
X151733200Y-115882000D02*
X151368800Y-116246400D01*
X151733200Y-113694200D02*
X151733200Y-115882000D01*
X153633200Y-112514200D02*
X153633200Y-113694200D01*
X151733200Y-112514200D02*
X151979400Y-112268000D01*
X151733200Y-113694200D02*
X151733200Y-112514200D01*
X153387000Y-112268000D02*
X153633200Y-112514200D01*
X151979400Y-112268000D02*
X153387000Y-112268000D01*
X155327400Y-113694200D02*
X155346400Y-113713200D01*
X153633200Y-113694200D02*
X155327400Y-113694200D01*
D32*
X146162989Y-107442000D02*
X146624990Y-107904001D01*
X146624990Y-107904001D02*
X146924989Y-108204000D01*
X144272000Y-107442000D02*
X146162989Y-107442000D01*
D31*
G04 #@! TO.N,/V_USB*
X149783800Y-115931400D02*
X149468800Y-116246400D01*
X149783800Y-113949800D02*
X149783800Y-115931400D01*
X153670000Y-98044000D02*
X153670000Y-98806000D01*
X155194000Y-100330000D02*
X158270000Y-100330000D01*
X153670000Y-98806000D02*
X155194000Y-100330000D01*
X158270000Y-100330000D02*
X158270000Y-101318000D01*
X157774600Y-110558600D02*
X157774600Y-102321400D01*
X158270000Y-101826000D02*
X158270000Y-101318000D01*
X157774600Y-102321400D02*
X158270000Y-101826000D01*
X153543000Y-121462800D02*
X154127200Y-122047000D01*
X153543000Y-118121400D02*
X153543000Y-121462800D01*
X149468800Y-116296400D02*
X149468800Y-116246400D01*
X150618799Y-117446399D02*
X149468800Y-116296400D01*
X152867999Y-117446399D02*
X150618799Y-117446399D01*
X153543000Y-118121400D02*
X152867999Y-117446399D01*
X153543000Y-118121400D02*
X160770600Y-118121400D01*
X160770600Y-118121400D02*
X160782000Y-118110000D01*
X157774600Y-110558600D02*
X157774600Y-111013600D01*
X161300726Y-111723200D02*
X161724990Y-111723200D01*
X158484200Y-111723200D02*
X161300726Y-111723200D01*
X157774600Y-111013600D02*
X158484200Y-111723200D01*
D32*
G04 #@! TO.N,/FACTORY_RST*
X160827999Y-109682001D02*
X160827999Y-101554001D01*
X160528000Y-109982000D02*
X160827999Y-109682001D01*
X160827999Y-101554001D02*
X161290000Y-101092000D01*
X161290000Y-101092000D02*
X161290000Y-98552000D01*
X158117600Y-95379600D02*
X155498800Y-95379600D01*
X161290000Y-98552000D02*
X158117600Y-95379600D01*
G04 #@! TO.N,/TXD*
X132774990Y-89321112D02*
X132774990Y-88896848D01*
X132774990Y-98992990D02*
X132774990Y-89321112D01*
X136398000Y-102616000D02*
X132774990Y-98992990D01*
X151587200Y-122047000D02*
X148775013Y-119234813D01*
X148041691Y-106324987D02*
X146964987Y-106324987D01*
X140632264Y-102616000D02*
X140208000Y-102616000D01*
X148775013Y-107058309D02*
X148041691Y-106324987D01*
X146964987Y-106324987D02*
X143256000Y-102616000D01*
X148775013Y-119234813D02*
X148775013Y-107058309D01*
X143256000Y-102616000D02*
X140632264Y-102616000D01*
G04 #@! TO.N,/RELAY*
X140766800Y-100623200D02*
X140700000Y-100690000D01*
X140766800Y-98145600D02*
X140766800Y-100623200D01*
X146500000Y-120000000D02*
X144900000Y-118400000D01*
X144900000Y-118400000D02*
X144900000Y-112500000D01*
X144900000Y-112500000D02*
X145800000Y-111600000D01*
X147499999Y-107399999D02*
X147400000Y-107300000D01*
X147499999Y-110300001D02*
X147499999Y-107399999D01*
X147200000Y-110600000D02*
X147499999Y-110300001D01*
X147300000Y-105400000D02*
X145600000Y-103700000D01*
X145600000Y-103700000D02*
X145600000Y-102500000D01*
X143790000Y-100690000D02*
X140700000Y-100690000D01*
X144300000Y-101200000D02*
X143790000Y-100690000D01*
G04 #@! TO.N,/RXD*
X136398000Y-103378000D02*
X135973736Y-103378000D01*
X132101011Y-99505275D02*
X132101011Y-91102264D01*
X135973736Y-103378000D02*
X132101011Y-99505275D01*
X132101011Y-91102264D02*
X132101011Y-90678000D01*
X146438002Y-106724998D02*
X143091004Y-103378000D01*
X140632264Y-103378000D02*
X140208000Y-103378000D01*
X143091004Y-103378000D02*
X140632264Y-103378000D01*
X147676002Y-106724998D02*
X146438002Y-106724998D01*
X148197201Y-121197001D02*
X148197201Y-107246197D01*
X148197201Y-107246197D02*
X147676002Y-106724998D01*
X149047200Y-122047000D02*
X148197201Y-121197001D01*
X136719600Y-85219600D02*
X136400000Y-84900000D01*
X137464800Y-85219600D02*
X136719600Y-85219600D01*
G04 #@! TO.N,/SCL*
X146507200Y-124587000D02*
X147681989Y-123412211D01*
X137160000Y-100076000D02*
X139700000Y-97536000D01*
X147681989Y-123412211D02*
X147681989Y-120045408D01*
X147681989Y-120045408D02*
X147427989Y-119791408D01*
X147427989Y-119791408D02*
X147427989Y-111867989D01*
X138944998Y-86695798D02*
X138730800Y-86481600D01*
X138730800Y-86481600D02*
X137480800Y-86481600D01*
X138944998Y-88716002D02*
X138944998Y-86695798D01*
X139700000Y-97536000D02*
X139700000Y-89471004D01*
X137160000Y-101600000D02*
X137160000Y-100076000D01*
X147427989Y-111867989D02*
X137160000Y-101600000D01*
X139700000Y-89471004D02*
X138944998Y-88716002D01*
X131990660Y-74924038D02*
X131990660Y-85597662D01*
X136230800Y-86481600D02*
X137480800Y-86481600D01*
X132874598Y-86481600D02*
X136230800Y-86481600D01*
X139337824Y-67576874D02*
X131990660Y-74924038D01*
X131990660Y-85597662D02*
X132874598Y-86481600D01*
G04 #@! TO.N,/SDA*
X131826000Y-62992000D02*
X131526001Y-63291999D01*
X131526001Y-63291999D02*
X131526001Y-85806001D01*
X131526001Y-85806001D02*
X134741600Y-89021600D01*
X136230800Y-89021600D02*
X137480800Y-89021600D01*
X134741600Y-89021600D02*
X136230800Y-89021600D01*
X136759991Y-99910309D02*
X136759991Y-101961991D01*
X144339002Y-119878802D02*
X145657201Y-121197001D01*
X139192000Y-97478300D02*
X136759991Y-99910309D01*
X136759991Y-101961991D02*
X144339002Y-109541002D01*
X139192000Y-89528704D02*
X139192000Y-97478300D01*
X137480800Y-89021600D02*
X138684896Y-89021600D01*
X138684896Y-89021600D02*
X139192000Y-89528704D01*
X144339002Y-109541002D02*
X144339002Y-119878802D01*
X145657201Y-121197001D02*
X146507200Y-122047000D01*
G04 #@! TO.N,/I2S_WS*
X133335000Y-81440000D02*
X133335000Y-82565000D01*
X133335000Y-82565000D02*
X132588000Y-83312000D01*
X131526001Y-87675999D02*
X131526001Y-100538001D01*
X131826000Y-87376000D02*
X131526001Y-87675999D01*
X131526001Y-100538001D02*
X131572000Y-100584000D01*
X131572000Y-100584000D02*
X131572000Y-102362000D01*
X131572000Y-102362000D02*
X133604000Y-104394000D01*
X141631000Y-113639000D02*
X141631000Y-114293400D01*
X141732000Y-113538000D02*
X141631000Y-113639000D01*
X140462000Y-69850000D02*
X133335000Y-76977000D01*
X140462000Y-65278000D02*
X140462000Y-69850000D01*
X133335000Y-80865000D02*
X133335000Y-81440000D01*
X133335000Y-76977000D02*
X133335000Y-80865000D01*
X141631000Y-114918400D02*
X141631000Y-114293400D01*
X143967200Y-124587000D02*
X142842199Y-123461999D01*
X142842199Y-123461999D02*
X142842199Y-123442199D01*
X142842199Y-123442199D02*
X142700000Y-123300000D01*
X142700000Y-115987400D02*
X142500000Y-115787400D01*
X142700000Y-123300000D02*
X142700000Y-115987400D01*
X142500000Y-115787400D02*
X141631000Y-114918400D01*
X137414000Y-104394000D02*
X141224000Y-108204000D01*
X135128000Y-104394000D02*
X137414000Y-104394000D01*
G04 #@! TO.N,/I2S_BCLK*
X139446000Y-56642000D02*
X156972000Y-56642000D01*
X156972000Y-56642000D02*
X161544000Y-61214000D01*
X161544000Y-91386000D02*
X160100000Y-92830000D01*
X161544000Y-61214000D02*
X161544000Y-91386000D01*
X140631000Y-119124520D02*
X141824991Y-120318511D01*
X141824991Y-120318511D02*
X142124990Y-120618510D01*
X140631000Y-114293400D02*
X140631000Y-119124520D01*
X162100000Y-108800000D02*
X162100000Y-94830000D01*
X162100000Y-94830000D02*
X160100000Y-92830000D01*
X157139202Y-126400000D02*
X162300000Y-121239202D01*
X152000000Y-126400000D02*
X157139202Y-126400000D01*
X162300000Y-121239202D02*
X162300000Y-118200000D01*
X152000000Y-126400000D02*
X150891800Y-126400000D01*
X150891800Y-126400000D02*
X150403800Y-126888000D01*
X147131800Y-126888000D02*
X147096000Y-126923800D01*
X150403800Y-126888000D02*
X147131800Y-126888000D01*
X147096000Y-126923800D02*
X145135600Y-126923800D01*
X145135600Y-126923800D02*
X144703800Y-127355600D01*
G04 #@! TO.N,/I2S_DATA_OUT*
X139911000Y-120530800D02*
X141427200Y-122047000D01*
X139911000Y-113573400D02*
X139911000Y-120530800D01*
X139911000Y-113573400D02*
X139426600Y-113573400D01*
X139426600Y-113573400D02*
X139200000Y-113800000D01*
X139200000Y-107300000D02*
X139300000Y-107200000D01*
X139200000Y-111600000D02*
X139200000Y-107300000D01*
X141400000Y-105000000D02*
X141800000Y-105000000D01*
X141800000Y-105000000D02*
X142800000Y-104000000D01*
X144200000Y-102700000D02*
X146600000Y-100300000D01*
X146600000Y-100300000D02*
X153700000Y-100300000D01*
X155400000Y-99400000D02*
X157600000Y-97200000D01*
X157600000Y-97200000D02*
X157600000Y-96100000D01*
X155653200Y-91700000D02*
X155514800Y-91561600D01*
X157100000Y-91700000D02*
X155653200Y-91700000D01*
G04 #@! TO.N,/PROG*
X137922000Y-109700000D02*
X136934000Y-109700000D01*
X136934000Y-109700000D02*
X135135400Y-111498600D01*
X135135400Y-111498600D02*
X134074000Y-111498600D01*
X134366000Y-99256400D02*
X134366000Y-99568000D01*
X137480800Y-96641600D02*
X136980800Y-96641600D01*
X136980800Y-96641600D02*
X134366000Y-99256400D01*
X134366000Y-102870000D02*
X134366000Y-107106600D01*
X134366000Y-107106600D02*
X134074000Y-107398600D01*
X136525000Y-124587000D02*
X137685119Y-124587000D01*
X137685119Y-124587000D02*
X138887200Y-124587000D01*
X133374000Y-121436000D02*
X136525000Y-124587000D01*
X134074000Y-111548600D02*
X133374000Y-112248600D01*
X133374000Y-112248600D02*
X133374000Y-121436000D01*
X134074000Y-111498600D02*
X134074000Y-111548600D01*
G04 #@! TO.N,/ZERO_DETECT*
X138887200Y-122047000D02*
X137847000Y-122047000D01*
X137847000Y-122047000D02*
X136900000Y-121100000D01*
X132500000Y-120300000D02*
X132500000Y-106700000D01*
X132500000Y-106700000D02*
X133600000Y-105600000D01*
X135200000Y-105600000D02*
X137800000Y-105600000D01*
X137800000Y-105600000D02*
X137900000Y-105700000D01*
X142900000Y-96200000D02*
X143700000Y-96200000D01*
X143700000Y-96200000D02*
X146600000Y-93300000D01*
X146600000Y-93300000D02*
X147256082Y-93300000D01*
X147256082Y-93300000D02*
X148400000Y-93300000D01*
X148400000Y-93300000D02*
X149800000Y-91900000D01*
X149800000Y-91900000D02*
X149800000Y-85900000D01*
X150200000Y-84400000D02*
X150900000Y-84400000D01*
X150900000Y-84400000D02*
X150900000Y-84410800D01*
X154248800Y-87759600D02*
X151589200Y-85100000D01*
X155498800Y-87759600D02*
X154248800Y-87759600D01*
X150900000Y-84410800D02*
X151589200Y-85100000D01*
X151589200Y-85100000D02*
X151789200Y-85300000D01*
G04 #@! TO.N,/IR_RX*
X157113000Y-61214000D02*
X155956000Y-61214000D01*
X155956000Y-61214000D02*
X150114000Y-67056000D01*
X150114000Y-67056000D02*
X150114000Y-70866000D01*
X150114000Y-70866000D02*
X149606000Y-71374000D01*
X149606000Y-71374000D02*
X148590000Y-71374000D01*
X133858000Y-89916000D02*
X133858000Y-93472000D01*
X133858000Y-93472000D02*
X134366000Y-93980000D01*
X133858000Y-83058000D02*
X133858000Y-85807328D01*
X133858000Y-85807328D02*
X133925010Y-85874338D01*
X146812000Y-71374000D02*
X142292010Y-71374000D01*
X134210009Y-79456001D02*
X133910010Y-79756000D01*
X142292010Y-71374000D02*
X134210009Y-79456001D01*
G04 #@! TO.N,/IR_TX*
X152333000Y-67451000D02*
X152908000Y-67451000D01*
X151130000Y-68654000D02*
X152333000Y-67451000D01*
X151130000Y-71120000D02*
X151130000Y-68654000D01*
X148590000Y-72390000D02*
X149860000Y-72390000D01*
X149860000Y-72390000D02*
X151130000Y-71120000D01*
X146812000Y-72390000D02*
X142494000Y-72390000D01*
X142494000Y-72390000D02*
X135382000Y-79502000D01*
X135382000Y-79502000D02*
X135128000Y-79756000D01*
X135128000Y-79756000D02*
X135128000Y-80010000D01*
X135128000Y-94292800D02*
X136214800Y-95379600D01*
X136214800Y-95379600D02*
X137464800Y-95379600D01*
X135128000Y-89916000D02*
X135128000Y-94292800D01*
X135427999Y-85552001D02*
X135128000Y-85852000D01*
X135427999Y-83357999D02*
X135427999Y-85552001D01*
X135128000Y-83058000D02*
X135427999Y-83357999D01*
G04 #@! TO.N,Net-(R7-Pad2)*
X135115400Y-81409600D02*
X135085000Y-81440000D01*
X137464800Y-81409600D02*
X135115400Y-81409600D01*
G04 #@! TO.N,/I2S_DATA_IN*
X141351000Y-66280000D02*
X141351000Y-71247000D01*
X141351000Y-71247000D02*
X141224000Y-71374000D01*
X138714800Y-82679600D02*
X137464800Y-82679600D01*
X141224000Y-80170400D02*
X138714800Y-82679600D01*
X141224000Y-74930000D02*
X141224000Y-80170400D01*
G04 #@! TO.N,/EN*
X137922000Y-115598000D02*
X135288400Y-115598000D01*
X135288400Y-115598000D02*
X134074000Y-114383600D01*
D31*
G04 #@! TO.N,/PIR*
X147826000Y-69500000D02*
X147806000Y-69520000D01*
X147826000Y-67870000D02*
X147826000Y-69500000D01*
X147806000Y-69520000D02*
X147806000Y-80032000D01*
X147806000Y-80032000D02*
X143002000Y-84836000D01*
X143002000Y-84836000D02*
X142748000Y-85090000D01*
X142036800Y-87325200D02*
X142036800Y-98145600D01*
X142748000Y-86614000D02*
X142036800Y-87325200D01*
D33*
G04 #@! TO.N,/T_UP*
X155514800Y-94101600D02*
X154014800Y-94101600D01*
X151130000Y-91216800D02*
X151130000Y-87630000D01*
X154014800Y-94101600D02*
X151130000Y-91216800D01*
G04 #@! TO.N,/T_DOWN*
X155514800Y-96641600D02*
X147869600Y-96641600D01*
X147869600Y-96641600D02*
X146720000Y-95492000D01*
G04 #@! TO.N,/T_RIGHT*
X155498800Y-90299600D02*
X154302400Y-90299600D01*
X154302400Y-90299600D02*
X153162000Y-91440000D01*
G04 #@! TO.N,/T_LEFT*
X153957604Y-89021600D02*
X150136002Y-85199998D01*
X141700000Y-85392000D02*
X141620000Y-85392000D01*
X155514800Y-89021600D02*
X153957604Y-89021600D01*
X141620000Y-85392000D02*
X139620000Y-87392000D01*
X142160000Y-85852000D02*
X141700000Y-85392000D01*
X148811996Y-85852000D02*
X142160000Y-85852000D01*
X139620000Y-87392000D02*
X139620000Y-88392000D01*
X150136002Y-85199998D02*
X149463998Y-85199998D01*
X149463998Y-85199998D02*
X148811996Y-85852000D01*
G04 #@! TD*
M02*
