G04 #@! TF.FileFunction,Soldermask,Top*
%FSLAX46Y46*%
G04 Gerber Fmt 4.6, Leading zero omitted, Abs format (unit mm)*
G04 Created by KiCad (PCBNEW 201611132049+7352~55~ubuntu16.04.1-product) date Tue Nov 15 21:52:04 2016*
%MOMM*%
%LPD*%
G01*
G04 APERTURE LIST*
%ADD10C,0.100000*%
%ADD11R,1.900000X1.400000*%
%ADD12R,1.600000X1.300000*%
%ADD13C,7.400000*%
%ADD14R,1.200100X1.200100*%
%ADD15R,1.150000X1.200000*%
%ADD16R,1.050000X1.460000*%
%ADD17R,2.400000X2.400000*%
%ADD18C,2.400000*%
%ADD19R,1.150000X1.600000*%
%ADD20R,1.300000X1.600000*%
%ADD21R,1.197560X1.197560*%
%ADD22R,1.200000X1.150000*%
%ADD23R,2.432000X2.127200*%
%ADD24O,2.432000X2.127200*%
%ADD25C,1.924000*%
%ADD26O,2.127200X2.432000*%
%ADD27R,2.127200X2.432000*%
%ADD28R,2.400000X3.000000*%
%ADD29O,2.400000X3.000000*%
%ADD30R,1.300000X1.400000*%
G04 APERTURE END LIST*
D10*
D11*
X142841000Y-103934000D03*
X142841000Y-102434000D03*
X142841000Y-100934000D03*
X142841000Y-105434000D03*
X142841000Y-106934000D03*
X142841000Y-108434000D03*
X142841000Y-112934000D03*
X142841000Y-111434000D03*
X142841000Y-109934000D03*
X124841000Y-109934000D03*
X124841000Y-111434000D03*
X124841000Y-112934000D03*
X124841000Y-108434000D03*
X124841000Y-106934000D03*
X124841000Y-105434000D03*
X124841000Y-100934000D03*
X124841000Y-102434000D03*
X124841000Y-103934000D03*
D12*
X134788000Y-116776500D03*
X132588000Y-116776500D03*
D13*
X134239000Y-49022000D03*
X134239000Y-132080000D03*
D14*
X120269000Y-67183000D03*
X122169000Y-67183000D03*
X121219000Y-65184020D03*
D15*
X144399000Y-119392000D03*
X144399000Y-120892000D03*
D12*
X134788000Y-118999000D03*
X132588000Y-118999000D03*
D16*
X146243000Y-121623000D03*
X147193000Y-121623000D03*
X148143000Y-121623000D03*
X148143000Y-119423000D03*
X146243000Y-119423000D03*
D17*
X121158000Y-62611000D03*
D18*
X121158000Y-60071000D03*
D12*
X120101000Y-69215000D03*
X122301000Y-69215000D03*
D19*
X137414000Y-63815000D03*
X137414000Y-61915000D03*
X139573000Y-63876000D03*
X139573000Y-61976000D03*
D20*
X127508000Y-70104000D03*
X127508000Y-72304000D03*
D12*
X131622800Y-65862200D03*
X133822800Y-65862200D03*
X133822800Y-67792600D03*
X131622800Y-67792600D03*
D20*
X141986000Y-64176000D03*
X141986000Y-61976000D03*
X135763000Y-70037600D03*
X135763000Y-72237600D03*
D16*
X131561800Y-72347000D03*
X132511800Y-72347000D03*
X133461800Y-72347000D03*
X133461800Y-70147000D03*
X131561800Y-70147000D03*
D21*
X117348000Y-83883500D03*
X115849400Y-83883500D03*
D14*
X122682000Y-74808000D03*
X122682000Y-76708000D03*
X124680980Y-75758000D03*
D20*
X124714000Y-80940000D03*
X124714000Y-78740000D03*
D22*
X150761000Y-128397000D03*
X152261000Y-128397000D03*
D12*
X152865000Y-126492000D03*
X150665000Y-126492000D03*
D15*
X142621000Y-119392000D03*
X142621000Y-120892000D03*
X120269000Y-78589000D03*
X120269000Y-77089000D03*
D12*
X115867000Y-81153000D03*
X118067000Y-81153000D03*
D20*
X120396000Y-72628400D03*
X120396000Y-74828400D03*
D14*
X115697000Y-71755000D03*
X115697000Y-73655000D03*
X117695980Y-72705000D03*
D23*
X115316000Y-122301000D03*
D24*
X115316000Y-119761000D03*
X115316000Y-117221000D03*
X115316000Y-114681000D03*
X115316000Y-112141000D03*
X115316000Y-109601000D03*
X115316000Y-107061000D03*
X115316000Y-104521000D03*
X115316000Y-101981000D03*
X115316000Y-99441000D03*
D23*
X152908000Y-100457000D03*
D24*
X152908000Y-102997000D03*
X152908000Y-105537000D03*
X152908000Y-108077000D03*
X152908000Y-110617000D03*
X152908000Y-113157000D03*
X152908000Y-115697000D03*
X152908000Y-118237000D03*
X152908000Y-120777000D03*
X152908000Y-123317000D03*
D20*
X154178000Y-67437000D03*
X154178000Y-69637000D03*
X125349000Y-72390000D03*
X125349000Y-70190000D03*
D25*
X154051000Y-59436000D03*
X154051000Y-61976000D03*
X154051000Y-64516000D03*
D26*
X131572000Y-87122000D03*
X134112000Y-87122000D03*
D27*
X136652000Y-87122000D03*
X138049000Y-54991000D03*
D26*
X135509000Y-54991000D03*
X132969000Y-54991000D03*
X130429000Y-54991000D03*
D28*
X142430500Y-126809500D03*
D29*
X144970500Y-126809500D03*
X147510500Y-126809500D03*
D30*
X114452500Y-68661500D03*
X116052500Y-68661500D03*
X114452500Y-64561500D03*
X116052500Y-64561500D03*
D20*
X140716000Y-121115000D03*
X140716000Y-118915000D03*
M02*
