M48
;DRILL file {KiCad no-vcs-found-9485a4d~59~ubuntu17.04.1} date Mon Aug 14 14:34:49 2017
;FORMAT={-:-/ absolute / inch / decimal}
FMAT,2
INCH,TZ
T1C0.016
T2C0.024
T3C0.035
T4C0.039
T5C0.040
T6C0.236
%
G90
G05
M72
T1
X5.0197Y-4.6949
X5.0948Y-2.717
X5.1597Y-3.3321
X5.187Y-2.5886
X5.1958Y-3.3661
X5.236Y-2.5108
X5.2563Y-3.5144
X5.259Y-3.6217
X5.3239Y-2.7279
X5.3311Y-3.4647
X5.3525Y-2.8717
X5.3614Y-2.5207
X5.3621Y-2.7352
X5.3981Y-3.2995
X5.4016Y-3.241
X5.4147Y-3.3991
X5.4246Y-3.0524
X5.4351Y-3.6595
X5.4407Y-2.9259
X5.4496Y-3.1965
X5.4583Y-3.5792
X5.4587Y-4.7795
X5.46Y-3.2601
X5.4748Y-2.9617
X5.4928Y-3.379
X5.5229Y-2.5129
X5.5512Y-4.1831
X5.5531Y-2.3091
X5.5571Y-2.4075
X5.5651Y-3.0109
X5.5663Y-2.7842
X5.5744Y-3.0534
X5.6259Y-4.9043
X5.6608Y-3.3814
X5.6657Y-2.9651
X5.6791Y-4.5768
X5.7323Y-4.7953
X5.7382Y-3.8386
X5.755Y-3.8742
X5.7874Y-3.3563
X5.7911Y-3.8409
X5.7992Y-2.4587
X5.8031Y-3.874
X5.8189Y-3.1585
X5.8303Y-4.8761
X5.8661Y-4.4072
X5.9064Y-4.2544
X5.9125Y-4.3412
X5.935Y-2.3228
X5.9427Y-4.5117
X5.9427Y-4.591
X5.9564Y-4.8248
X5.9996Y-2.5227
X6.012Y-4.1903
X6.0356Y-4.4281
X6.0433Y-2.2244
X6.0581Y-4.1718
X6.061Y-4.4902
X6.0846Y-4.5512
X6.0925Y-4.8179
X6.1024Y-4.4281
X6.1122Y-4.0354
X6.1122Y-4.1142
X6.1201Y-4.6004
X6.1732Y-3.1575
X6.205Y-3.8462
X6.2101Y-3.5202
X6.239Y-3.7391
X6.2756Y-3.7717
X6.3091Y-3.973
X6.3858Y-3.1575
X6.4744Y-2.4921
X6.5669Y-2.5433
T2
X5.2165Y-4.9055
X5.2283Y-2.2047
X5.2441Y-4.7441
X5.4036Y-3.6975
X5.4045Y-3.5116
X5.4171Y-2.4224
X5.4227Y-2.9951
X5.4656Y-4.9197
X5.5413Y-4.685
X5.5906Y-4.124
X5.5995Y-4.0401
X5.6004Y-2.6673
X5.6515Y-2.8221
X5.7591Y-3.0983
X5.8855Y-4.8356
X6.1036Y-2.2276
X6.1496Y-3.5197
X6.2002Y-3.9142
X6.4232Y-2.0669
X6.5354Y-2.2008
T3
X6.2937Y-2.2969
X6.2937Y-2.3969
X6.035Y-2.2996
X6.035Y-2.3996
T4
X6.5311Y-2.802
X6.5311Y-2.902
X6.5311Y-3.002
X6.5311Y-3.102
X6.5311Y-3.202
X6.5311Y-3.302
X6.5311Y-3.402
X6.5311Y-3.502
X6.5311Y-3.602
X6.5311Y-3.702
X6.5311Y-3.802
X6.5311Y-3.902
X6.5311Y-4.002
X6.5311Y-4.102
X6.5311Y-4.202
X6.5311Y-4.302
X6.5311Y-4.402
X6.5311Y-4.502
X6.5311Y-4.602
X6.5311Y-4.702
X5.6606Y-3.0787
X5.9598Y-3.0787
X6.34Y-4.91
X6.44Y-4.91
X6.54Y-4.91
X5.661Y-2.0807
X5.761Y-2.0807
X5.861Y-2.0807
X5.961Y-2.0807
X5.048Y-2.25
X5.048Y-2.35
X5.048Y-2.45
X5.074Y-2.9917
X5.074Y-3.0917
X5.074Y-3.1917
X5.074Y-3.2917
X5.074Y-3.3917
X5.074Y-3.4917
X5.074Y-3.5917
X5.074Y-3.6917
X5.074Y-3.7917
X5.074Y-3.8917
X5.074Y-3.9917
X5.074Y-4.0917
X5.074Y-4.1917
X5.074Y-4.2917
X5.074Y-4.3917
X5.074Y-4.4917
X5.074Y-4.5917
X5.074Y-4.6917
X5.074Y-4.7917
X5.074Y-4.8917
X5.7232Y-3.4724
X5.8232Y-3.4724
X5.9232Y-3.4724
T5
X5.7018Y-2.3103
T6
X5.8143Y-5.1384
X5.8143Y-1.8684
T0
M30
