G04 #@! TF.GenerationSoftware,KiCad,Pcbnew,no-vcs-found-9485a4d~59~ubuntu17.04.1*
G04 #@! TF.CreationDate,2017-08-14T14:34:54-05:00*
G04 #@! TF.ProjectId,liger,6C696765722E6B696361645F70636200,rev?*
G04 #@! TF.SameCoordinates,Original*
G04 #@! TF.FileFunction,Soldermask,Top*
G04 #@! TF.FilePolarity,Negative*
%FSLAX46Y46*%
G04 Gerber Fmt 4.6, Leading zero omitted, Abs format (unit mm)*
G04 Created by KiCad (PCBNEW no-vcs-found-9485a4d~59~ubuntu17.04.1) date Mon Aug 14 14:34:54 2017*
%MOMM*%
%LPD*%
G01*
G04 APERTURE LIST*
%ADD10R,1.400000X1.300000*%
%ADD11R,2.100000X2.100000*%
%ADD12O,2.100000X2.100000*%
%ADD13C,0.900000*%
%ADD14C,1.000000*%
%ADD15C,2.076000*%
%ADD16R,1.600000X1.300000*%
%ADD17R,2.400000X1.400000*%
%ADD18R,1.400000X2.400000*%
%ADD19R,4.400000X4.400000*%
%ADD20R,1.050000X1.460000*%
%ADD21C,7.400000*%
%ADD22R,1.150000X1.600000*%
%ADD23R,1.600000X1.150000*%
%ADD24R,2.200000X2.200000*%
%ADD25C,2.200000*%
%ADD26R,1.200000X1.200000*%
%ADD27C,1.900000*%
%ADD28R,1.300000X1.200000*%
%ADD29R,1.200000X1.300000*%
%ADD30R,1.300000X1.600000*%
%ADD31C,1.924000*%
%ADD32R,1.460000X1.050000*%
%ADD33R,0.750000X1.050000*%
%ADD34R,1.600000X1.175000*%
G04 APERTURE END LIST*
D10*
X139550000Y-78200000D03*
X139550000Y-76600000D03*
X135450000Y-78200000D03*
X135450000Y-76600000D03*
D11*
X150450000Y-88200000D03*
D12*
X147910000Y-88200000D03*
X145370000Y-88200000D03*
D13*
X143550000Y-57870000D03*
X146050000Y-57870000D03*
D14*
X146050000Y-61270000D03*
X144800000Y-61270000D03*
X143550000Y-61270000D03*
X143600000Y-60070000D03*
D15*
X144826040Y-58680960D03*
D16*
X144500000Y-122700000D03*
X146700000Y-122700000D03*
D17*
X138773880Y-103083200D03*
X156807880Y-103111200D03*
D18*
X152235880Y-118577200D03*
X153505880Y-118577200D03*
X147155880Y-118577200D03*
X148425880Y-118577200D03*
X150965880Y-118577200D03*
X149695880Y-118577200D03*
X144615880Y-118577200D03*
X145885880Y-118577200D03*
X143345880Y-118577200D03*
X142075880Y-118577200D03*
D17*
X156791880Y-100563200D03*
X156807880Y-101841200D03*
X156807880Y-105651200D03*
X156791880Y-104373200D03*
X156791880Y-109453200D03*
X156807880Y-110731200D03*
X156807880Y-108191200D03*
X156791880Y-106913200D03*
X156791880Y-117073200D03*
X156791880Y-114533200D03*
X156807880Y-115811200D03*
X156807880Y-113271200D03*
X156791880Y-111993200D03*
X138757880Y-111993200D03*
X138773880Y-113271200D03*
X138773880Y-115811200D03*
X138757880Y-114533200D03*
X138757880Y-117073200D03*
X138757880Y-106913200D03*
X138773880Y-108191200D03*
X138773880Y-110731200D03*
X138757880Y-109453200D03*
X138757880Y-104373200D03*
X138773880Y-105651200D03*
X138773880Y-101813200D03*
X138773880Y-100543200D03*
D19*
X147100000Y-109230000D03*
D20*
X154700000Y-55050000D03*
X155650000Y-55050000D03*
X156600000Y-55050000D03*
X156600000Y-52850000D03*
X154700000Y-52850000D03*
D21*
X147684028Y-130516302D03*
X147684028Y-47458302D03*
D22*
X140825000Y-55500000D03*
X140825000Y-57400000D03*
D23*
X140700000Y-59750000D03*
X138800000Y-59750000D03*
X134425000Y-123675000D03*
X132525000Y-123675000D03*
X134325000Y-121500000D03*
X132425000Y-121500000D03*
X144800000Y-70700000D03*
X146700000Y-70700000D03*
X155600000Y-90850000D03*
X153700000Y-90850000D03*
X140527917Y-90945595D03*
X142427917Y-90945595D03*
D24*
X159860000Y-58340000D03*
D25*
X159860000Y-60880000D03*
D26*
X136000000Y-67400000D03*
X137600000Y-67400000D03*
D24*
X153290000Y-58410000D03*
D25*
X153290000Y-60950000D03*
D27*
X143780000Y-78200000D03*
X151380000Y-78200000D03*
D11*
X128880000Y-75990000D03*
D12*
X128880000Y-78530000D03*
X128880000Y-81070000D03*
X128880000Y-83610000D03*
X128880000Y-86150000D03*
X128880000Y-88690000D03*
X128880000Y-91230000D03*
X128880000Y-93770000D03*
X128880000Y-96310000D03*
X128880000Y-98850000D03*
X128880000Y-101390000D03*
X128880000Y-103930000D03*
X128880000Y-106470000D03*
X128880000Y-109010000D03*
X128880000Y-111550000D03*
X128880000Y-114090000D03*
X128880000Y-116630000D03*
X128880000Y-119170000D03*
X128880000Y-121710000D03*
X128880000Y-124250000D03*
D11*
X165890000Y-119430000D03*
D12*
X165890000Y-116890000D03*
X165890000Y-114350000D03*
X165890000Y-111810000D03*
X165890000Y-109270000D03*
X165890000Y-106730000D03*
X165890000Y-104190000D03*
X165890000Y-101650000D03*
X165890000Y-99110000D03*
X165890000Y-96570000D03*
X165890000Y-94030000D03*
X165890000Y-91490000D03*
X165890000Y-88950000D03*
X165890000Y-86410000D03*
X165890000Y-83870000D03*
X165890000Y-81330000D03*
X165890000Y-78790000D03*
X165890000Y-76250000D03*
X165890000Y-73710000D03*
X165890000Y-71170000D03*
D11*
X151410000Y-52850000D03*
D12*
X148870000Y-52850000D03*
X146330000Y-52850000D03*
X143790000Y-52850000D03*
D28*
X165500000Y-59300000D03*
X165500000Y-57400000D03*
X163500000Y-58350000D03*
D29*
X146850000Y-72850000D03*
X144950000Y-72850000D03*
X145900000Y-74850000D03*
D28*
X137700000Y-71900000D03*
X137700000Y-70000000D03*
X135700000Y-70950000D03*
D16*
X152250000Y-121750000D03*
X150050000Y-121750000D03*
D30*
X157750000Y-90775000D03*
X157750000Y-92975000D03*
X165450000Y-61550000D03*
X165450000Y-63750000D03*
X159900000Y-66075000D03*
X159900000Y-63875000D03*
X138800000Y-64025000D03*
X138800000Y-61825000D03*
X138725000Y-55175000D03*
X138725000Y-57375000D03*
X134300000Y-57550000D03*
X134300000Y-55350000D03*
X131750000Y-60100000D03*
X131750000Y-62300000D03*
D16*
X132500000Y-125500000D03*
X134700000Y-125500000D03*
X149700000Y-124400000D03*
X151900000Y-124400000D03*
X144500000Y-124500000D03*
X146700000Y-124500000D03*
X144700000Y-68450000D03*
X146900000Y-68450000D03*
D30*
X139650000Y-69600000D03*
X139650000Y-71800000D03*
D16*
X140550000Y-74200000D03*
X142750000Y-74200000D03*
X159400000Y-52900000D03*
X161600000Y-52900000D03*
X156700000Y-50750000D03*
X154500000Y-50750000D03*
D30*
X156500000Y-61500000D03*
X156500000Y-59300000D03*
D16*
X151450000Y-90900000D03*
X149250000Y-90900000D03*
X144677917Y-90995595D03*
X146877917Y-90995595D03*
D30*
X157200000Y-123400000D03*
X157200000Y-125600000D03*
D31*
X128220000Y-62230000D03*
X128220000Y-59690000D03*
X128220000Y-57150000D03*
D32*
X136525000Y-62375000D03*
X136525000Y-61425000D03*
X136525000Y-60475000D03*
X134325000Y-60475000D03*
X134325000Y-62375000D03*
D20*
X137875000Y-123800000D03*
X138825000Y-123800000D03*
X139775000Y-123800000D03*
X139775000Y-121600000D03*
X137875000Y-121600000D03*
D33*
X146545000Y-84302500D03*
X147195000Y-84302500D03*
X147845000Y-84302500D03*
X148495000Y-84302500D03*
X148495000Y-81202500D03*
X147845000Y-81202500D03*
X147195000Y-81202500D03*
X146545000Y-81202500D03*
D34*
X148120000Y-82365000D03*
X146920000Y-82365000D03*
X148120000Y-83140000D03*
X146920000Y-83140000D03*
D11*
X161036000Y-124714000D03*
D12*
X163576000Y-124714000D03*
X166116000Y-124714000D03*
M02*
