G04 #@! TF.GenerationSoftware,KiCad,Pcbnew,no-vcs-found-9485a4d~59~ubuntu17.04.1*
G04 #@! TF.CreationDate,2017-08-14T14:34:54-05:00*
G04 #@! TF.ProjectId,liger,6C696765722E6B696361645F70636200,rev?*
G04 #@! TF.SameCoordinates,Original*
G04 #@! TF.FileFunction,Legend,Top*
G04 #@! TF.FilePolarity,Positive*
%FSLAX46Y46*%
G04 Gerber Fmt 4.6, Leading zero omitted, Abs format (unit mm)*
G04 Created by KiCad (PCBNEW no-vcs-found-9485a4d~59~ubuntu17.04.1) date Mon Aug 14 14:34:54 2017*
%MOMM*%
%LPD*%
G01*
G04 APERTURE LIST*
%ADD10C,0.300000*%
%ADD11C,0.120000*%
%ADD12C,0.150000*%
%ADD13C,0.100000*%
G04 APERTURE END LIST*
D10*
X131357142Y-77750000D02*
X131214285Y-77678571D01*
X131000000Y-77678571D01*
X130785714Y-77750000D01*
X130642857Y-77892857D01*
X130571428Y-78035714D01*
X130500000Y-78321428D01*
X130500000Y-78535714D01*
X130571428Y-78821428D01*
X130642857Y-78964285D01*
X130785714Y-79107142D01*
X131000000Y-79178571D01*
X131142857Y-79178571D01*
X131357142Y-79107142D01*
X131428571Y-79035714D01*
X131428571Y-78535714D01*
X131142857Y-78535714D01*
X132071428Y-79178571D02*
X132071428Y-77678571D01*
X132928571Y-79178571D01*
X132928571Y-77678571D01*
X133642857Y-79178571D02*
X133642857Y-77678571D01*
X134000000Y-77678571D01*
X134214285Y-77750000D01*
X134357142Y-77892857D01*
X134428571Y-78035714D01*
X134500000Y-78321428D01*
X134500000Y-78535714D01*
X134428571Y-78821428D01*
X134357142Y-78964285D01*
X134214285Y-79107142D01*
X134000000Y-79178571D01*
X133642857Y-79178571D01*
X131357142Y-75250000D02*
X131214285Y-75178571D01*
X131000000Y-75178571D01*
X130785714Y-75250000D01*
X130642857Y-75392857D01*
X130571428Y-75535714D01*
X130500000Y-75821428D01*
X130500000Y-76035714D01*
X130571428Y-76321428D01*
X130642857Y-76464285D01*
X130785714Y-76607142D01*
X131000000Y-76678571D01*
X131142857Y-76678571D01*
X131357142Y-76607142D01*
X131428571Y-76535714D01*
X131428571Y-76035714D01*
X131142857Y-76035714D01*
X132071428Y-76678571D02*
X132071428Y-75178571D01*
X132928571Y-76678571D01*
X132928571Y-75178571D01*
X133642857Y-76678571D02*
X133642857Y-75178571D01*
X134000000Y-75178571D01*
X134214285Y-75250000D01*
X134357142Y-75392857D01*
X134428571Y-75535714D01*
X134500000Y-75821428D01*
X134500000Y-76035714D01*
X134428571Y-76321428D01*
X134357142Y-76464285D01*
X134214285Y-76607142D01*
X134000000Y-76678571D01*
X133642857Y-76678571D01*
X130585714Y-99478571D02*
X130585714Y-97978571D01*
X131585714Y-97978571D02*
X131871428Y-97978571D01*
X132014285Y-98050000D01*
X132157142Y-98192857D01*
X132228571Y-98478571D01*
X132228571Y-98978571D01*
X132157142Y-99264285D01*
X132014285Y-99407142D01*
X131871428Y-99478571D01*
X131585714Y-99478571D01*
X131442857Y-99407142D01*
X131300000Y-99264285D01*
X131228571Y-98978571D01*
X131228571Y-98478571D01*
X131300000Y-98192857D01*
X131442857Y-98050000D01*
X131585714Y-97978571D01*
X132728571Y-97978571D02*
X133657142Y-97978571D01*
X133157142Y-98550000D01*
X133371428Y-98550000D01*
X133514285Y-98621428D01*
X133585714Y-98692857D01*
X133657142Y-98835714D01*
X133657142Y-99192857D01*
X133585714Y-99335714D01*
X133514285Y-99407142D01*
X133371428Y-99478571D01*
X132942857Y-99478571D01*
X132800000Y-99407142D01*
X132728571Y-99335714D01*
X134157142Y-97978571D02*
X135085714Y-97978571D01*
X134585714Y-98550000D01*
X134800000Y-98550000D01*
X134942857Y-98621428D01*
X135014285Y-98692857D01*
X135085714Y-98835714D01*
X135085714Y-99192857D01*
X135014285Y-99335714D01*
X134942857Y-99407142D01*
X134800000Y-99478571D01*
X134371428Y-99478571D01*
X134228571Y-99407142D01*
X134157142Y-99335714D01*
X159107142Y-120007142D02*
X159321428Y-120078571D01*
X159678571Y-120078571D01*
X159821428Y-120007142D01*
X159892857Y-119935714D01*
X159964285Y-119792857D01*
X159964285Y-119650000D01*
X159892857Y-119507142D01*
X159821428Y-119435714D01*
X159678571Y-119364285D01*
X159392857Y-119292857D01*
X159250000Y-119221428D01*
X159178571Y-119150000D01*
X159107142Y-119007142D01*
X159107142Y-118864285D01*
X159178571Y-118721428D01*
X159250000Y-118650000D01*
X159392857Y-118578571D01*
X159750000Y-118578571D01*
X159964285Y-118650000D01*
X160607142Y-120078571D02*
X160607142Y-118578571D01*
X160964285Y-118578571D01*
X161178571Y-118650000D01*
X161321428Y-118792857D01*
X161392857Y-118935714D01*
X161464285Y-119221428D01*
X161464285Y-119435714D01*
X161392857Y-119721428D01*
X161321428Y-119864285D01*
X161178571Y-120007142D01*
X160964285Y-120078571D01*
X160607142Y-120078571D01*
X162392857Y-118578571D02*
X162535714Y-118578571D01*
X162678571Y-118650000D01*
X162750000Y-118721428D01*
X162821428Y-118864285D01*
X162892857Y-119150000D01*
X162892857Y-119507142D01*
X162821428Y-119792857D01*
X162750000Y-119935714D01*
X162678571Y-120007142D01*
X162535714Y-120078571D01*
X162392857Y-120078571D01*
X162250000Y-120007142D01*
X162178571Y-119935714D01*
X162107142Y-119792857D01*
X162035714Y-119507142D01*
X162035714Y-119150000D01*
X162107142Y-118864285D01*
X162178571Y-118721428D01*
X162250000Y-118650000D01*
X162392857Y-118578571D01*
X159107142Y-117407142D02*
X159321428Y-117478571D01*
X159678571Y-117478571D01*
X159821428Y-117407142D01*
X159892857Y-117335714D01*
X159964285Y-117192857D01*
X159964285Y-117050000D01*
X159892857Y-116907142D01*
X159821428Y-116835714D01*
X159678571Y-116764285D01*
X159392857Y-116692857D01*
X159250000Y-116621428D01*
X159178571Y-116550000D01*
X159107142Y-116407142D01*
X159107142Y-116264285D01*
X159178571Y-116121428D01*
X159250000Y-116050000D01*
X159392857Y-115978571D01*
X159750000Y-115978571D01*
X159964285Y-116050000D01*
X160607142Y-117478571D02*
X160607142Y-115978571D01*
X160964285Y-115978571D01*
X161178571Y-116050000D01*
X161321428Y-116192857D01*
X161392857Y-116335714D01*
X161464285Y-116621428D01*
X161464285Y-116835714D01*
X161392857Y-117121428D01*
X161321428Y-117264285D01*
X161178571Y-117407142D01*
X160964285Y-117478571D01*
X160607142Y-117478571D01*
X162892857Y-117478571D02*
X162035714Y-117478571D01*
X162464285Y-117478571D02*
X162464285Y-115978571D01*
X162321428Y-116192857D01*
X162178571Y-116335714D01*
X162035714Y-116407142D01*
X158585714Y-115078571D02*
X158585714Y-113578571D01*
X159585714Y-113578571D02*
X159871428Y-113578571D01*
X160014285Y-113650000D01*
X160157142Y-113792857D01*
X160228571Y-114078571D01*
X160228571Y-114578571D01*
X160157142Y-114864285D01*
X160014285Y-115007142D01*
X159871428Y-115078571D01*
X159585714Y-115078571D01*
X159442857Y-115007142D01*
X159300000Y-114864285D01*
X159228571Y-114578571D01*
X159228571Y-114078571D01*
X159300000Y-113792857D01*
X159442857Y-113650000D01*
X159585714Y-113578571D01*
X161657142Y-115078571D02*
X160800000Y-115078571D01*
X161228571Y-115078571D02*
X161228571Y-113578571D01*
X161085714Y-113792857D01*
X160942857Y-113935714D01*
X160800000Y-114007142D01*
X163014285Y-113578571D02*
X162300000Y-113578571D01*
X162228571Y-114292857D01*
X162300000Y-114221428D01*
X162442857Y-114150000D01*
X162800000Y-114150000D01*
X162942857Y-114221428D01*
X163014285Y-114292857D01*
X163085714Y-114435714D01*
X163085714Y-114792857D01*
X163014285Y-114935714D01*
X162942857Y-115007142D01*
X162800000Y-115078571D01*
X162442857Y-115078571D01*
X162300000Y-115007142D01*
X162228571Y-114935714D01*
X159700000Y-112478571D02*
X159700000Y-110978571D01*
X160700000Y-110978571D02*
X160985714Y-110978571D01*
X161128571Y-111050000D01*
X161271428Y-111192857D01*
X161342857Y-111478571D01*
X161342857Y-111978571D01*
X161271428Y-112264285D01*
X161128571Y-112407142D01*
X160985714Y-112478571D01*
X160700000Y-112478571D01*
X160557142Y-112407142D01*
X160414285Y-112264285D01*
X160342857Y-111978571D01*
X160342857Y-111478571D01*
X160414285Y-111192857D01*
X160557142Y-111050000D01*
X160700000Y-110978571D01*
X161914285Y-111121428D02*
X161985714Y-111050000D01*
X162128571Y-110978571D01*
X162485714Y-110978571D01*
X162628571Y-111050000D01*
X162700000Y-111121428D01*
X162771428Y-111264285D01*
X162771428Y-111407142D01*
X162700000Y-111621428D01*
X161842857Y-112478571D01*
X162771428Y-112478571D01*
X159700000Y-109878571D02*
X159700000Y-108378571D01*
X160700000Y-108378571D02*
X160985714Y-108378571D01*
X161128571Y-108450000D01*
X161271428Y-108592857D01*
X161342857Y-108878571D01*
X161342857Y-109378571D01*
X161271428Y-109664285D01*
X161128571Y-109807142D01*
X160985714Y-109878571D01*
X160700000Y-109878571D01*
X160557142Y-109807142D01*
X160414285Y-109664285D01*
X160342857Y-109378571D01*
X160342857Y-108878571D01*
X160414285Y-108592857D01*
X160557142Y-108450000D01*
X160700000Y-108378571D01*
X162271428Y-108378571D02*
X162414285Y-108378571D01*
X162557142Y-108450000D01*
X162628571Y-108521428D01*
X162700000Y-108664285D01*
X162771428Y-108950000D01*
X162771428Y-109307142D01*
X162700000Y-109592857D01*
X162628571Y-109735714D01*
X162557142Y-109807142D01*
X162414285Y-109878571D01*
X162271428Y-109878571D01*
X162128571Y-109807142D01*
X162057142Y-109735714D01*
X161985714Y-109592857D01*
X161914285Y-109307142D01*
X161914285Y-108950000D01*
X161985714Y-108664285D01*
X162057142Y-108521428D01*
X162128571Y-108450000D01*
X162271428Y-108378571D01*
X159700000Y-107678571D02*
X159700000Y-106178571D01*
X160700000Y-106178571D02*
X160985714Y-106178571D01*
X161128571Y-106250000D01*
X161271428Y-106392857D01*
X161342857Y-106678571D01*
X161342857Y-107178571D01*
X161271428Y-107464285D01*
X161128571Y-107607142D01*
X160985714Y-107678571D01*
X160700000Y-107678571D01*
X160557142Y-107607142D01*
X160414285Y-107464285D01*
X160342857Y-107178571D01*
X160342857Y-106678571D01*
X160414285Y-106392857D01*
X160557142Y-106250000D01*
X160700000Y-106178571D01*
X162628571Y-106678571D02*
X162628571Y-107678571D01*
X162271428Y-106107142D02*
X161914285Y-107178571D01*
X162842857Y-107178571D01*
X158785714Y-105078571D02*
X158785714Y-103578571D01*
X159785714Y-103578571D02*
X160071428Y-103578571D01*
X160214285Y-103650000D01*
X160357142Y-103792857D01*
X160428571Y-104078571D01*
X160428571Y-104578571D01*
X160357142Y-104864285D01*
X160214285Y-105007142D01*
X160071428Y-105078571D01*
X159785714Y-105078571D01*
X159642857Y-105007142D01*
X159500000Y-104864285D01*
X159428571Y-104578571D01*
X159428571Y-104078571D01*
X159500000Y-103792857D01*
X159642857Y-103650000D01*
X159785714Y-103578571D01*
X161857142Y-105078571D02*
X161000000Y-105078571D01*
X161428571Y-105078571D02*
X161428571Y-103578571D01*
X161285714Y-103792857D01*
X161142857Y-103935714D01*
X161000000Y-104007142D01*
X163142857Y-103578571D02*
X162857142Y-103578571D01*
X162714285Y-103650000D01*
X162642857Y-103721428D01*
X162500000Y-103935714D01*
X162428571Y-104221428D01*
X162428571Y-104792857D01*
X162500000Y-104935714D01*
X162571428Y-105007142D01*
X162714285Y-105078571D01*
X163000000Y-105078571D01*
X163142857Y-105007142D01*
X163214285Y-104935714D01*
X163285714Y-104792857D01*
X163285714Y-104435714D01*
X163214285Y-104292857D01*
X163142857Y-104221428D01*
X163000000Y-104150000D01*
X162714285Y-104150000D01*
X162571428Y-104221428D01*
X162500000Y-104292857D01*
X162428571Y-104435714D01*
X158785714Y-102278571D02*
X158785714Y-100778571D01*
X159785714Y-100778571D02*
X160071428Y-100778571D01*
X160214285Y-100850000D01*
X160357142Y-100992857D01*
X160428571Y-101278571D01*
X160428571Y-101778571D01*
X160357142Y-102064285D01*
X160214285Y-102207142D01*
X160071428Y-102278571D01*
X159785714Y-102278571D01*
X159642857Y-102207142D01*
X159500000Y-102064285D01*
X159428571Y-101778571D01*
X159428571Y-101278571D01*
X159500000Y-100992857D01*
X159642857Y-100850000D01*
X159785714Y-100778571D01*
X161857142Y-102278571D02*
X161000000Y-102278571D01*
X161428571Y-102278571D02*
X161428571Y-100778571D01*
X161285714Y-100992857D01*
X161142857Y-101135714D01*
X161000000Y-101207142D01*
X162357142Y-100778571D02*
X163357142Y-100778571D01*
X162714285Y-102278571D01*
X159900000Y-99678571D02*
X159900000Y-98178571D01*
X160900000Y-98178571D02*
X161185714Y-98178571D01*
X161328571Y-98250000D01*
X161471428Y-98392857D01*
X161542857Y-98678571D01*
X161542857Y-99178571D01*
X161471428Y-99464285D01*
X161328571Y-99607142D01*
X161185714Y-99678571D01*
X160900000Y-99678571D01*
X160757142Y-99607142D01*
X160614285Y-99464285D01*
X160542857Y-99178571D01*
X160542857Y-98678571D01*
X160614285Y-98392857D01*
X160757142Y-98250000D01*
X160900000Y-98178571D01*
X162900000Y-98178571D02*
X162185714Y-98178571D01*
X162114285Y-98892857D01*
X162185714Y-98821428D01*
X162328571Y-98750000D01*
X162685714Y-98750000D01*
X162828571Y-98821428D01*
X162900000Y-98892857D01*
X162971428Y-99035714D01*
X162971428Y-99392857D01*
X162900000Y-99535714D01*
X162828571Y-99607142D01*
X162685714Y-99678571D01*
X162328571Y-99678571D01*
X162185714Y-99607142D01*
X162114285Y-99535714D01*
X158985714Y-97278571D02*
X158985714Y-95778571D01*
X159985714Y-95778571D02*
X160271428Y-95778571D01*
X160414285Y-95850000D01*
X160557142Y-95992857D01*
X160628571Y-96278571D01*
X160628571Y-96778571D01*
X160557142Y-97064285D01*
X160414285Y-97207142D01*
X160271428Y-97278571D01*
X159985714Y-97278571D01*
X159842857Y-97207142D01*
X159700000Y-97064285D01*
X159628571Y-96778571D01*
X159628571Y-96278571D01*
X159700000Y-95992857D01*
X159842857Y-95850000D01*
X159985714Y-95778571D01*
X162057142Y-97278571D02*
X161200000Y-97278571D01*
X161628571Y-97278571D02*
X161628571Y-95778571D01*
X161485714Y-95992857D01*
X161342857Y-96135714D01*
X161200000Y-96207142D01*
X162914285Y-96421428D02*
X162771428Y-96350000D01*
X162700000Y-96278571D01*
X162628571Y-96135714D01*
X162628571Y-96064285D01*
X162700000Y-95921428D01*
X162771428Y-95850000D01*
X162914285Y-95778571D01*
X163200000Y-95778571D01*
X163342857Y-95850000D01*
X163414285Y-95921428D01*
X163485714Y-96064285D01*
X163485714Y-96135714D01*
X163414285Y-96278571D01*
X163342857Y-96350000D01*
X163200000Y-96421428D01*
X162914285Y-96421428D01*
X162771428Y-96492857D01*
X162700000Y-96564285D01*
X162628571Y-96707142D01*
X162628571Y-96992857D01*
X162700000Y-97135714D01*
X162771428Y-97207142D01*
X162914285Y-97278571D01*
X163200000Y-97278571D01*
X163342857Y-97207142D01*
X163414285Y-97135714D01*
X163485714Y-96992857D01*
X163485714Y-96707142D01*
X163414285Y-96564285D01*
X163342857Y-96492857D01*
X163200000Y-96421428D01*
X158985714Y-94678571D02*
X158985714Y-93178571D01*
X159985714Y-93178571D02*
X160271428Y-93178571D01*
X160414285Y-93250000D01*
X160557142Y-93392857D01*
X160628571Y-93678571D01*
X160628571Y-94178571D01*
X160557142Y-94464285D01*
X160414285Y-94607142D01*
X160271428Y-94678571D01*
X159985714Y-94678571D01*
X159842857Y-94607142D01*
X159700000Y-94464285D01*
X159628571Y-94178571D01*
X159628571Y-93678571D01*
X159700000Y-93392857D01*
X159842857Y-93250000D01*
X159985714Y-93178571D01*
X162057142Y-94678571D02*
X161200000Y-94678571D01*
X161628571Y-94678571D02*
X161628571Y-93178571D01*
X161485714Y-93392857D01*
X161342857Y-93535714D01*
X161200000Y-93607142D01*
X162771428Y-94678571D02*
X163057142Y-94678571D01*
X163200000Y-94607142D01*
X163271428Y-94535714D01*
X163414285Y-94321428D01*
X163485714Y-94035714D01*
X163485714Y-93464285D01*
X163414285Y-93321428D01*
X163342857Y-93250000D01*
X163200000Y-93178571D01*
X162914285Y-93178571D01*
X162771428Y-93250000D01*
X162700000Y-93321428D01*
X162628571Y-93464285D01*
X162628571Y-93821428D01*
X162700000Y-93964285D01*
X162771428Y-94035714D01*
X162914285Y-94107142D01*
X163200000Y-94107142D01*
X163342857Y-94035714D01*
X163414285Y-93964285D01*
X163485714Y-93821428D01*
X158985714Y-92078571D02*
X158985714Y-90578571D01*
X159985714Y-90578571D02*
X160271428Y-90578571D01*
X160414285Y-90650000D01*
X160557142Y-90792857D01*
X160628571Y-91078571D01*
X160628571Y-91578571D01*
X160557142Y-91864285D01*
X160414285Y-92007142D01*
X160271428Y-92078571D01*
X159985714Y-92078571D01*
X159842857Y-92007142D01*
X159700000Y-91864285D01*
X159628571Y-91578571D01*
X159628571Y-91078571D01*
X159700000Y-90792857D01*
X159842857Y-90650000D01*
X159985714Y-90578571D01*
X161200000Y-90721428D02*
X161271428Y-90650000D01*
X161414285Y-90578571D01*
X161771428Y-90578571D01*
X161914285Y-90650000D01*
X161985714Y-90721428D01*
X162057142Y-90864285D01*
X162057142Y-91007142D01*
X161985714Y-91221428D01*
X161128571Y-92078571D01*
X162057142Y-92078571D01*
X163485714Y-92078571D02*
X162628571Y-92078571D01*
X163057142Y-92078571D02*
X163057142Y-90578571D01*
X162914285Y-90792857D01*
X162771428Y-90935714D01*
X162628571Y-91007142D01*
X158985714Y-89678571D02*
X158985714Y-88178571D01*
X159985714Y-88178571D02*
X160271428Y-88178571D01*
X160414285Y-88250000D01*
X160557142Y-88392857D01*
X160628571Y-88678571D01*
X160628571Y-89178571D01*
X160557142Y-89464285D01*
X160414285Y-89607142D01*
X160271428Y-89678571D01*
X159985714Y-89678571D01*
X159842857Y-89607142D01*
X159700000Y-89464285D01*
X159628571Y-89178571D01*
X159628571Y-88678571D01*
X159700000Y-88392857D01*
X159842857Y-88250000D01*
X159985714Y-88178571D01*
X161200000Y-88321428D02*
X161271428Y-88250000D01*
X161414285Y-88178571D01*
X161771428Y-88178571D01*
X161914285Y-88250000D01*
X161985714Y-88321428D01*
X162057142Y-88464285D01*
X162057142Y-88607142D01*
X161985714Y-88821428D01*
X161128571Y-89678571D01*
X162057142Y-89678571D01*
X162628571Y-88321428D02*
X162700000Y-88250000D01*
X162842857Y-88178571D01*
X163200000Y-88178571D01*
X163342857Y-88250000D01*
X163414285Y-88321428D01*
X163485714Y-88464285D01*
X163485714Y-88607142D01*
X163414285Y-88821428D01*
X162557142Y-89678571D01*
X163485714Y-89678571D01*
X158985714Y-87278571D02*
X158985714Y-85778571D01*
X159985714Y-85778571D02*
X160271428Y-85778571D01*
X160414285Y-85850000D01*
X160557142Y-85992857D01*
X160628571Y-86278571D01*
X160628571Y-86778571D01*
X160557142Y-87064285D01*
X160414285Y-87207142D01*
X160271428Y-87278571D01*
X159985714Y-87278571D01*
X159842857Y-87207142D01*
X159700000Y-87064285D01*
X159628571Y-86778571D01*
X159628571Y-86278571D01*
X159700000Y-85992857D01*
X159842857Y-85850000D01*
X159985714Y-85778571D01*
X161200000Y-85921428D02*
X161271428Y-85850000D01*
X161414285Y-85778571D01*
X161771428Y-85778571D01*
X161914285Y-85850000D01*
X161985714Y-85921428D01*
X162057142Y-86064285D01*
X162057142Y-86207142D01*
X161985714Y-86421428D01*
X161128571Y-87278571D01*
X162057142Y-87278571D01*
X162557142Y-85778571D02*
X163485714Y-85778571D01*
X162985714Y-86350000D01*
X163200000Y-86350000D01*
X163342857Y-86421428D01*
X163414285Y-86492857D01*
X163485714Y-86635714D01*
X163485714Y-86992857D01*
X163414285Y-87135714D01*
X163342857Y-87207142D01*
X163200000Y-87278571D01*
X162771428Y-87278571D01*
X162628571Y-87207142D01*
X162557142Y-87135714D01*
X160400000Y-84678571D02*
X159900000Y-83964285D01*
X159542857Y-84678571D02*
X159542857Y-83178571D01*
X160114285Y-83178571D01*
X160257142Y-83250000D01*
X160328571Y-83321428D01*
X160400000Y-83464285D01*
X160400000Y-83678571D01*
X160328571Y-83821428D01*
X160257142Y-83892857D01*
X160114285Y-83964285D01*
X159542857Y-83964285D01*
X160900000Y-83178571D02*
X161900000Y-84678571D01*
X161900000Y-83178571D02*
X160900000Y-84678571D01*
X162471428Y-84678571D02*
X162471428Y-83178571D01*
X162828571Y-83178571D01*
X163042857Y-83250000D01*
X163185714Y-83392857D01*
X163257142Y-83535714D01*
X163328571Y-83821428D01*
X163328571Y-84035714D01*
X163257142Y-84321428D01*
X163185714Y-84464285D01*
X163042857Y-84607142D01*
X162828571Y-84678571D01*
X162471428Y-84678571D01*
X159707142Y-80578571D02*
X160564285Y-80578571D01*
X160135714Y-82078571D02*
X160135714Y-80578571D01*
X160921428Y-80578571D02*
X161921428Y-82078571D01*
X161921428Y-80578571D02*
X160921428Y-82078571D01*
X162492857Y-82078571D02*
X162492857Y-80578571D01*
X162850000Y-80578571D01*
X163064285Y-80650000D01*
X163207142Y-80792857D01*
X163278571Y-80935714D01*
X163350000Y-81221428D01*
X163350000Y-81435714D01*
X163278571Y-81721428D01*
X163207142Y-81864285D01*
X163064285Y-82007142D01*
X162850000Y-82078571D01*
X162492857Y-82078571D01*
X161514285Y-77978571D02*
X160800000Y-77978571D01*
X160728571Y-78692857D01*
X160800000Y-78621428D01*
X160942857Y-78550000D01*
X161300000Y-78550000D01*
X161442857Y-78621428D01*
X161514285Y-78692857D01*
X161585714Y-78835714D01*
X161585714Y-79192857D01*
X161514285Y-79335714D01*
X161442857Y-79407142D01*
X161300000Y-79478571D01*
X160942857Y-79478571D01*
X160800000Y-79407142D01*
X160728571Y-79335714D01*
X162014285Y-77978571D02*
X162514285Y-79478571D01*
X163014285Y-77978571D01*
X161514285Y-75378571D02*
X160800000Y-75378571D01*
X160728571Y-76092857D01*
X160800000Y-76021428D01*
X160942857Y-75950000D01*
X161300000Y-75950000D01*
X161442857Y-76021428D01*
X161514285Y-76092857D01*
X161585714Y-76235714D01*
X161585714Y-76592857D01*
X161514285Y-76735714D01*
X161442857Y-76807142D01*
X161300000Y-76878571D01*
X160942857Y-76878571D01*
X160800000Y-76807142D01*
X160728571Y-76735714D01*
X162014285Y-75378571D02*
X162514285Y-76878571D01*
X163014285Y-75378571D01*
X160657142Y-72850000D02*
X160514285Y-72778571D01*
X160300000Y-72778571D01*
X160085714Y-72850000D01*
X159942857Y-72992857D01*
X159871428Y-73135714D01*
X159800000Y-73421428D01*
X159800000Y-73635714D01*
X159871428Y-73921428D01*
X159942857Y-74064285D01*
X160085714Y-74207142D01*
X160300000Y-74278571D01*
X160442857Y-74278571D01*
X160657142Y-74207142D01*
X160728571Y-74135714D01*
X160728571Y-73635714D01*
X160442857Y-73635714D01*
X161371428Y-74278571D02*
X161371428Y-72778571D01*
X162228571Y-74278571D01*
X162228571Y-72778571D01*
X162942857Y-74278571D02*
X162942857Y-72778571D01*
X163300000Y-72778571D01*
X163514285Y-72850000D01*
X163657142Y-72992857D01*
X163728571Y-73135714D01*
X163800000Y-73421428D01*
X163800000Y-73635714D01*
X163728571Y-73921428D01*
X163657142Y-74064285D01*
X163514285Y-74207142D01*
X163300000Y-74278571D01*
X162942857Y-74278571D01*
X160657142Y-70450000D02*
X160514285Y-70378571D01*
X160300000Y-70378571D01*
X160085714Y-70450000D01*
X159942857Y-70592857D01*
X159871428Y-70735714D01*
X159800000Y-71021428D01*
X159800000Y-71235714D01*
X159871428Y-71521428D01*
X159942857Y-71664285D01*
X160085714Y-71807142D01*
X160300000Y-71878571D01*
X160442857Y-71878571D01*
X160657142Y-71807142D01*
X160728571Y-71735714D01*
X160728571Y-71235714D01*
X160442857Y-71235714D01*
X161371428Y-71878571D02*
X161371428Y-70378571D01*
X162228571Y-71878571D01*
X162228571Y-70378571D01*
X162942857Y-71878571D02*
X162942857Y-70378571D01*
X163300000Y-70378571D01*
X163514285Y-70450000D01*
X163657142Y-70592857D01*
X163728571Y-70735714D01*
X163800000Y-71021428D01*
X163800000Y-71235714D01*
X163728571Y-71521428D01*
X163657142Y-71664285D01*
X163514285Y-71807142D01*
X163300000Y-71878571D01*
X162942857Y-71878571D01*
X130492857Y-124807142D02*
X130707142Y-124878571D01*
X131064285Y-124878571D01*
X131207142Y-124807142D01*
X131278571Y-124735714D01*
X131350000Y-124592857D01*
X131350000Y-124450000D01*
X131278571Y-124307142D01*
X131207142Y-124235714D01*
X131064285Y-124164285D01*
X130778571Y-124092857D01*
X130635714Y-124021428D01*
X130564285Y-123950000D01*
X130492857Y-123807142D01*
X130492857Y-123664285D01*
X130564285Y-123521428D01*
X130635714Y-123450000D01*
X130778571Y-123378571D01*
X131135714Y-123378571D01*
X131350000Y-123450000D01*
X131992857Y-124878571D02*
X131992857Y-123378571D01*
X132564285Y-123378571D01*
X132707142Y-123450000D01*
X132778571Y-123521428D01*
X132850000Y-123664285D01*
X132850000Y-123878571D01*
X132778571Y-124021428D01*
X132707142Y-124092857D01*
X132564285Y-124164285D01*
X131992857Y-124164285D01*
X133492857Y-124307142D02*
X134635714Y-124307142D01*
X130492857Y-122407142D02*
X130707142Y-122478571D01*
X131064285Y-122478571D01*
X131207142Y-122407142D01*
X131278571Y-122335714D01*
X131350000Y-122192857D01*
X131350000Y-122050000D01*
X131278571Y-121907142D01*
X131207142Y-121835714D01*
X131064285Y-121764285D01*
X130778571Y-121692857D01*
X130635714Y-121621428D01*
X130564285Y-121550000D01*
X130492857Y-121407142D01*
X130492857Y-121264285D01*
X130564285Y-121121428D01*
X130635714Y-121050000D01*
X130778571Y-120978571D01*
X131135714Y-120978571D01*
X131350000Y-121050000D01*
X131992857Y-122478571D02*
X131992857Y-120978571D01*
X132564285Y-120978571D01*
X132707142Y-121050000D01*
X132778571Y-121121428D01*
X132850000Y-121264285D01*
X132850000Y-121478571D01*
X132778571Y-121621428D01*
X132707142Y-121692857D01*
X132564285Y-121764285D01*
X131992857Y-121764285D01*
X133492857Y-121907142D02*
X134635714Y-121907142D01*
X134064285Y-122478571D02*
X134064285Y-121335714D01*
X130507142Y-119807142D02*
X130721428Y-119878571D01*
X131078571Y-119878571D01*
X131221428Y-119807142D01*
X131292857Y-119735714D01*
X131364285Y-119592857D01*
X131364285Y-119450000D01*
X131292857Y-119307142D01*
X131221428Y-119235714D01*
X131078571Y-119164285D01*
X130792857Y-119092857D01*
X130650000Y-119021428D01*
X130578571Y-118950000D01*
X130507142Y-118807142D01*
X130507142Y-118664285D01*
X130578571Y-118521428D01*
X130650000Y-118450000D01*
X130792857Y-118378571D01*
X131150000Y-118378571D01*
X131364285Y-118450000D01*
X132007142Y-119878571D02*
X132007142Y-118378571D01*
X132364285Y-118378571D01*
X132578571Y-118450000D01*
X132721428Y-118592857D01*
X132792857Y-118735714D01*
X132864285Y-119021428D01*
X132864285Y-119235714D01*
X132792857Y-119521428D01*
X132721428Y-119664285D01*
X132578571Y-119807142D01*
X132364285Y-119878571D01*
X132007142Y-119878571D01*
X133364285Y-118378571D02*
X134292857Y-118378571D01*
X133792857Y-118950000D01*
X134007142Y-118950000D01*
X134150000Y-119021428D01*
X134221428Y-119092857D01*
X134292857Y-119235714D01*
X134292857Y-119592857D01*
X134221428Y-119735714D01*
X134150000Y-119807142D01*
X134007142Y-119878571D01*
X133578571Y-119878571D01*
X133435714Y-119807142D01*
X133364285Y-119735714D01*
X130707142Y-117407142D02*
X130921428Y-117478571D01*
X131278571Y-117478571D01*
X131421428Y-117407142D01*
X131492857Y-117335714D01*
X131564285Y-117192857D01*
X131564285Y-117050000D01*
X131492857Y-116907142D01*
X131421428Y-116835714D01*
X131278571Y-116764285D01*
X130992857Y-116692857D01*
X130850000Y-116621428D01*
X130778571Y-116550000D01*
X130707142Y-116407142D01*
X130707142Y-116264285D01*
X130778571Y-116121428D01*
X130850000Y-116050000D01*
X130992857Y-115978571D01*
X131350000Y-115978571D01*
X131564285Y-116050000D01*
X132207142Y-117478571D02*
X132207142Y-115978571D01*
X132564285Y-115978571D01*
X132778571Y-116050000D01*
X132921428Y-116192857D01*
X132992857Y-116335714D01*
X133064285Y-116621428D01*
X133064285Y-116835714D01*
X132992857Y-117121428D01*
X132921428Y-117264285D01*
X132778571Y-117407142D01*
X132564285Y-117478571D01*
X132207142Y-117478571D01*
X133635714Y-116121428D02*
X133707142Y-116050000D01*
X133850000Y-115978571D01*
X134207142Y-115978571D01*
X134350000Y-116050000D01*
X134421428Y-116121428D01*
X134492857Y-116264285D01*
X134492857Y-116407142D01*
X134421428Y-116621428D01*
X133564285Y-117478571D01*
X134492857Y-117478571D01*
X130585714Y-114678571D02*
X130585714Y-113178571D01*
X131585714Y-113178571D02*
X131871428Y-113178571D01*
X132014285Y-113250000D01*
X132157142Y-113392857D01*
X132228571Y-113678571D01*
X132228571Y-114178571D01*
X132157142Y-114464285D01*
X132014285Y-114607142D01*
X131871428Y-114678571D01*
X131585714Y-114678571D01*
X131442857Y-114607142D01*
X131300000Y-114464285D01*
X131228571Y-114178571D01*
X131228571Y-113678571D01*
X131300000Y-113392857D01*
X131442857Y-113250000D01*
X131585714Y-113178571D01*
X133657142Y-114678571D02*
X132800000Y-114678571D01*
X133228571Y-114678571D02*
X133228571Y-113178571D01*
X133085714Y-113392857D01*
X132942857Y-113535714D01*
X132800000Y-113607142D01*
X134157142Y-113178571D02*
X135085714Y-113178571D01*
X134585714Y-113750000D01*
X134800000Y-113750000D01*
X134942857Y-113821428D01*
X135014285Y-113892857D01*
X135085714Y-114035714D01*
X135085714Y-114392857D01*
X135014285Y-114535714D01*
X134942857Y-114607142D01*
X134800000Y-114678571D01*
X134371428Y-114678571D01*
X134228571Y-114607142D01*
X134157142Y-114535714D01*
X130585714Y-112278571D02*
X130585714Y-110778571D01*
X131585714Y-110778571D02*
X131871428Y-110778571D01*
X132014285Y-110850000D01*
X132157142Y-110992857D01*
X132228571Y-111278571D01*
X132228571Y-111778571D01*
X132157142Y-112064285D01*
X132014285Y-112207142D01*
X131871428Y-112278571D01*
X131585714Y-112278571D01*
X131442857Y-112207142D01*
X131300000Y-112064285D01*
X131228571Y-111778571D01*
X131228571Y-111278571D01*
X131300000Y-110992857D01*
X131442857Y-110850000D01*
X131585714Y-110778571D01*
X133657142Y-112278571D02*
X132800000Y-112278571D01*
X133228571Y-112278571D02*
X133228571Y-110778571D01*
X133085714Y-110992857D01*
X132942857Y-111135714D01*
X132800000Y-111207142D01*
X134228571Y-110921428D02*
X134300000Y-110850000D01*
X134442857Y-110778571D01*
X134800000Y-110778571D01*
X134942857Y-110850000D01*
X135014285Y-110921428D01*
X135085714Y-111064285D01*
X135085714Y-111207142D01*
X135014285Y-111421428D01*
X134157142Y-112278571D01*
X135085714Y-112278571D01*
X130585714Y-109678571D02*
X130585714Y-108178571D01*
X131585714Y-108178571D02*
X131871428Y-108178571D01*
X132014285Y-108250000D01*
X132157142Y-108392857D01*
X132228571Y-108678571D01*
X132228571Y-109178571D01*
X132157142Y-109464285D01*
X132014285Y-109607142D01*
X131871428Y-109678571D01*
X131585714Y-109678571D01*
X131442857Y-109607142D01*
X131300000Y-109464285D01*
X131228571Y-109178571D01*
X131228571Y-108678571D01*
X131300000Y-108392857D01*
X131442857Y-108250000D01*
X131585714Y-108178571D01*
X133657142Y-109678571D02*
X132800000Y-109678571D01*
X133228571Y-109678571D02*
X133228571Y-108178571D01*
X133085714Y-108392857D01*
X132942857Y-108535714D01*
X132800000Y-108607142D01*
X134942857Y-108678571D02*
X134942857Y-109678571D01*
X134585714Y-108107142D02*
X134228571Y-109178571D01*
X135157142Y-109178571D01*
X130585714Y-107278571D02*
X130585714Y-105778571D01*
X131585714Y-105778571D02*
X131871428Y-105778571D01*
X132014285Y-105850000D01*
X132157142Y-105992857D01*
X132228571Y-106278571D01*
X132228571Y-106778571D01*
X132157142Y-107064285D01*
X132014285Y-107207142D01*
X131871428Y-107278571D01*
X131585714Y-107278571D01*
X131442857Y-107207142D01*
X131300000Y-107064285D01*
X131228571Y-106778571D01*
X131228571Y-106278571D01*
X131300000Y-105992857D01*
X131442857Y-105850000D01*
X131585714Y-105778571D01*
X132800000Y-105921428D02*
X132871428Y-105850000D01*
X133014285Y-105778571D01*
X133371428Y-105778571D01*
X133514285Y-105850000D01*
X133585714Y-105921428D01*
X133657142Y-106064285D01*
X133657142Y-106207142D01*
X133585714Y-106421428D01*
X132728571Y-107278571D01*
X133657142Y-107278571D01*
X134157142Y-105778571D02*
X135157142Y-105778571D01*
X134514285Y-107278571D01*
X130585714Y-104678571D02*
X130585714Y-103178571D01*
X131585714Y-103178571D02*
X131871428Y-103178571D01*
X132014285Y-103250000D01*
X132157142Y-103392857D01*
X132228571Y-103678571D01*
X132228571Y-104178571D01*
X132157142Y-104464285D01*
X132014285Y-104607142D01*
X131871428Y-104678571D01*
X131585714Y-104678571D01*
X131442857Y-104607142D01*
X131300000Y-104464285D01*
X131228571Y-104178571D01*
X131228571Y-103678571D01*
X131300000Y-103392857D01*
X131442857Y-103250000D01*
X131585714Y-103178571D01*
X132800000Y-103321428D02*
X132871428Y-103250000D01*
X133014285Y-103178571D01*
X133371428Y-103178571D01*
X133514285Y-103250000D01*
X133585714Y-103321428D01*
X133657142Y-103464285D01*
X133657142Y-103607142D01*
X133585714Y-103821428D01*
X132728571Y-104678571D01*
X133657142Y-104678571D01*
X134942857Y-103178571D02*
X134657142Y-103178571D01*
X134514285Y-103250000D01*
X134442857Y-103321428D01*
X134300000Y-103535714D01*
X134228571Y-103821428D01*
X134228571Y-104392857D01*
X134300000Y-104535714D01*
X134371428Y-104607142D01*
X134514285Y-104678571D01*
X134800000Y-104678571D01*
X134942857Y-104607142D01*
X135014285Y-104535714D01*
X135085714Y-104392857D01*
X135085714Y-104035714D01*
X135014285Y-103892857D01*
X134942857Y-103821428D01*
X134800000Y-103750000D01*
X134514285Y-103750000D01*
X134371428Y-103821428D01*
X134300000Y-103892857D01*
X134228571Y-104035714D01*
X130585714Y-102078571D02*
X130585714Y-100578571D01*
X131585714Y-100578571D02*
X131871428Y-100578571D01*
X132014285Y-100650000D01*
X132157142Y-100792857D01*
X132228571Y-101078571D01*
X132228571Y-101578571D01*
X132157142Y-101864285D01*
X132014285Y-102007142D01*
X131871428Y-102078571D01*
X131585714Y-102078571D01*
X131442857Y-102007142D01*
X131300000Y-101864285D01*
X131228571Y-101578571D01*
X131228571Y-101078571D01*
X131300000Y-100792857D01*
X131442857Y-100650000D01*
X131585714Y-100578571D01*
X132800000Y-100721428D02*
X132871428Y-100650000D01*
X133014285Y-100578571D01*
X133371428Y-100578571D01*
X133514285Y-100650000D01*
X133585714Y-100721428D01*
X133657142Y-100864285D01*
X133657142Y-101007142D01*
X133585714Y-101221428D01*
X132728571Y-102078571D01*
X133657142Y-102078571D01*
X135014285Y-100578571D02*
X134300000Y-100578571D01*
X134228571Y-101292857D01*
X134300000Y-101221428D01*
X134442857Y-101150000D01*
X134800000Y-101150000D01*
X134942857Y-101221428D01*
X135014285Y-101292857D01*
X135085714Y-101435714D01*
X135085714Y-101792857D01*
X135014285Y-101935714D01*
X134942857Y-102007142D01*
X134800000Y-102078571D01*
X134442857Y-102078571D01*
X134300000Y-102007142D01*
X134228571Y-101935714D01*
X130585714Y-97078571D02*
X130585714Y-95578571D01*
X131585714Y-95578571D02*
X131871428Y-95578571D01*
X132014285Y-95650000D01*
X132157142Y-95792857D01*
X132228571Y-96078571D01*
X132228571Y-96578571D01*
X132157142Y-96864285D01*
X132014285Y-97007142D01*
X131871428Y-97078571D01*
X131585714Y-97078571D01*
X131442857Y-97007142D01*
X131300000Y-96864285D01*
X131228571Y-96578571D01*
X131228571Y-96078571D01*
X131300000Y-95792857D01*
X131442857Y-95650000D01*
X131585714Y-95578571D01*
X132728571Y-95578571D02*
X133657142Y-95578571D01*
X133157142Y-96150000D01*
X133371428Y-96150000D01*
X133514285Y-96221428D01*
X133585714Y-96292857D01*
X133657142Y-96435714D01*
X133657142Y-96792857D01*
X133585714Y-96935714D01*
X133514285Y-97007142D01*
X133371428Y-97078571D01*
X132942857Y-97078571D01*
X132800000Y-97007142D01*
X132728571Y-96935714D01*
X134228571Y-95721428D02*
X134300000Y-95650000D01*
X134442857Y-95578571D01*
X134800000Y-95578571D01*
X134942857Y-95650000D01*
X135014285Y-95721428D01*
X135085714Y-95864285D01*
X135085714Y-96007142D01*
X135014285Y-96221428D01*
X134157142Y-97078571D01*
X135085714Y-97078571D01*
X130585714Y-94478571D02*
X130585714Y-92978571D01*
X131585714Y-92978571D02*
X131871428Y-92978571D01*
X132014285Y-93050000D01*
X132157142Y-93192857D01*
X132228571Y-93478571D01*
X132228571Y-93978571D01*
X132157142Y-94264285D01*
X132014285Y-94407142D01*
X131871428Y-94478571D01*
X131585714Y-94478571D01*
X131442857Y-94407142D01*
X131300000Y-94264285D01*
X131228571Y-93978571D01*
X131228571Y-93478571D01*
X131300000Y-93192857D01*
X131442857Y-93050000D01*
X131585714Y-92978571D01*
X132728571Y-92978571D02*
X133657142Y-92978571D01*
X133157142Y-93550000D01*
X133371428Y-93550000D01*
X133514285Y-93621428D01*
X133585714Y-93692857D01*
X133657142Y-93835714D01*
X133657142Y-94192857D01*
X133585714Y-94335714D01*
X133514285Y-94407142D01*
X133371428Y-94478571D01*
X132942857Y-94478571D01*
X132800000Y-94407142D01*
X132728571Y-94335714D01*
X135014285Y-92978571D02*
X134300000Y-92978571D01*
X134228571Y-93692857D01*
X134300000Y-93621428D01*
X134442857Y-93550000D01*
X134800000Y-93550000D01*
X134942857Y-93621428D01*
X135014285Y-93692857D01*
X135085714Y-93835714D01*
X135085714Y-94192857D01*
X135014285Y-94335714D01*
X134942857Y-94407142D01*
X134800000Y-94478571D01*
X134442857Y-94478571D01*
X134300000Y-94407142D01*
X134228571Y-94335714D01*
X130585714Y-92078571D02*
X130585714Y-90578571D01*
X131585714Y-90578571D02*
X131871428Y-90578571D01*
X132014285Y-90650000D01*
X132157142Y-90792857D01*
X132228571Y-91078571D01*
X132228571Y-91578571D01*
X132157142Y-91864285D01*
X132014285Y-92007142D01*
X131871428Y-92078571D01*
X131585714Y-92078571D01*
X131442857Y-92007142D01*
X131300000Y-91864285D01*
X131228571Y-91578571D01*
X131228571Y-91078571D01*
X131300000Y-90792857D01*
X131442857Y-90650000D01*
X131585714Y-90578571D01*
X132728571Y-90578571D02*
X133657142Y-90578571D01*
X133157142Y-91150000D01*
X133371428Y-91150000D01*
X133514285Y-91221428D01*
X133585714Y-91292857D01*
X133657142Y-91435714D01*
X133657142Y-91792857D01*
X133585714Y-91935714D01*
X133514285Y-92007142D01*
X133371428Y-92078571D01*
X132942857Y-92078571D01*
X132800000Y-92007142D01*
X132728571Y-91935714D01*
X134942857Y-91078571D02*
X134942857Y-92078571D01*
X134585714Y-90507142D02*
X134228571Y-91578571D01*
X135157142Y-91578571D01*
X130714285Y-87978571D02*
X131214285Y-89478571D01*
X131714285Y-87978571D01*
X132214285Y-89478571D02*
X132214285Y-87978571D01*
X133071428Y-89478571D01*
X133071428Y-87978571D01*
X130750000Y-85378571D02*
X131250000Y-86878571D01*
X131750000Y-85378571D01*
X132250000Y-86878571D02*
X132250000Y-85378571D01*
X132821428Y-85378571D01*
X132964285Y-85450000D01*
X133035714Y-85521428D01*
X133107142Y-85664285D01*
X133107142Y-85878571D01*
X133035714Y-86021428D01*
X132964285Y-86092857D01*
X132821428Y-86164285D01*
X132250000Y-86164285D01*
X130542857Y-82778571D02*
X131471428Y-82778571D01*
X130971428Y-83350000D01*
X131185714Y-83350000D01*
X131328571Y-83421428D01*
X131400000Y-83492857D01*
X131471428Y-83635714D01*
X131471428Y-83992857D01*
X131400000Y-84135714D01*
X131328571Y-84207142D01*
X131185714Y-84278571D01*
X130757142Y-84278571D01*
X130614285Y-84207142D01*
X130542857Y-84135714D01*
X131900000Y-82778571D02*
X132400000Y-84278571D01*
X132900000Y-82778571D01*
X133257142Y-82778571D02*
X134185714Y-82778571D01*
X133685714Y-83350000D01*
X133900000Y-83350000D01*
X134042857Y-83421428D01*
X134114285Y-83492857D01*
X134185714Y-83635714D01*
X134185714Y-83992857D01*
X134114285Y-84135714D01*
X134042857Y-84207142D01*
X133900000Y-84278571D01*
X133471428Y-84278571D01*
X133328571Y-84207142D01*
X133257142Y-84135714D01*
X130542857Y-80178571D02*
X131471428Y-80178571D01*
X130971428Y-80750000D01*
X131185714Y-80750000D01*
X131328571Y-80821428D01*
X131400000Y-80892857D01*
X131471428Y-81035714D01*
X131471428Y-81392857D01*
X131400000Y-81535714D01*
X131328571Y-81607142D01*
X131185714Y-81678571D01*
X130757142Y-81678571D01*
X130614285Y-81607142D01*
X130542857Y-81535714D01*
X131900000Y-80178571D02*
X132400000Y-81678571D01*
X132900000Y-80178571D01*
X133257142Y-80178571D02*
X134185714Y-80178571D01*
X133685714Y-80750000D01*
X133900000Y-80750000D01*
X134042857Y-80821428D01*
X134114285Y-80892857D01*
X134185714Y-81035714D01*
X134185714Y-81392857D01*
X134114285Y-81535714D01*
X134042857Y-81607142D01*
X133900000Y-81678571D01*
X133471428Y-81678571D01*
X133328571Y-81607142D01*
X133257142Y-81535714D01*
D11*
X135300000Y-77350000D02*
X135300000Y-77450000D01*
X139700000Y-75850000D02*
X135300000Y-75850000D01*
X135300000Y-78950000D02*
X139700000Y-78950000D01*
X139700000Y-77350000D02*
X139700000Y-77450000D01*
X146100000Y-123380000D02*
X145100000Y-123380000D01*
X145100000Y-122020000D02*
X146100000Y-122020000D01*
D12*
X156773880Y-99063200D02*
X156773880Y-93063200D01*
X156773880Y-93063200D02*
X138773880Y-93063200D01*
X138773880Y-93063200D02*
X138773880Y-99063200D01*
X138773880Y-99063200D02*
X156773880Y-99063200D01*
X156773880Y-99063200D02*
X156773880Y-118563200D01*
X156773880Y-118563200D02*
X138773880Y-118563200D01*
X138773880Y-118563200D02*
X138773880Y-99063200D01*
D11*
X157260000Y-54850000D02*
X157260000Y-53050000D01*
X154040000Y-53050000D02*
X154040000Y-55500000D01*
X141425000Y-56100000D02*
X141425000Y-56800000D01*
X140225000Y-56800000D02*
X140225000Y-56100000D01*
X140100000Y-60350000D02*
X139400000Y-60350000D01*
X139400000Y-59150000D02*
X140100000Y-59150000D01*
X133825000Y-124275000D02*
X133125000Y-124275000D01*
X133125000Y-123075000D02*
X133825000Y-123075000D01*
X133725000Y-122100000D02*
X133025000Y-122100000D01*
X133025000Y-120900000D02*
X133725000Y-120900000D01*
X145400000Y-70100000D02*
X146100000Y-70100000D01*
X146100000Y-71300000D02*
X145400000Y-71300000D01*
X155000000Y-91450000D02*
X154300000Y-91450000D01*
X154300000Y-90250000D02*
X155000000Y-90250000D01*
X141127917Y-90345595D02*
X141827917Y-90345595D01*
X141827917Y-91545595D02*
X141127917Y-91545595D01*
X138100000Y-67900000D02*
X138100000Y-66900000D01*
X138100000Y-66900000D02*
X136000000Y-66900000D01*
X138100000Y-67900000D02*
X136000000Y-67900000D01*
X127550000Y-125580000D02*
X130210000Y-125580000D01*
X127550000Y-77260000D02*
X127550000Y-125580000D01*
X130210000Y-77260000D02*
X130210000Y-125580000D01*
X127550000Y-77260000D02*
X130210000Y-77260000D01*
X127550000Y-75990000D02*
X127550000Y-74660000D01*
X127550000Y-74660000D02*
X128880000Y-74660000D01*
X167220000Y-69840000D02*
X164560000Y-69840000D01*
X167220000Y-118160000D02*
X167220000Y-69840000D01*
X164560000Y-118160000D02*
X164560000Y-69840000D01*
X167220000Y-118160000D02*
X164560000Y-118160000D01*
X167220000Y-119430000D02*
X167220000Y-120760000D01*
X167220000Y-120760000D02*
X165890000Y-120760000D01*
X152740000Y-54290000D02*
X142460000Y-54290000D01*
X142460000Y-54290000D02*
X142460000Y-56950000D01*
X142460000Y-56950000D02*
X152740000Y-56950000D01*
X152740000Y-56950000D02*
X152740000Y-54290000D01*
X151790000Y-56950000D02*
X151790000Y-62950000D01*
X151790000Y-62950000D02*
X151030000Y-62950000D01*
X151030000Y-62950000D02*
X151030000Y-56950000D01*
X151730000Y-56950000D02*
X151730000Y-62950000D01*
X151610000Y-56950000D02*
X151610000Y-62950000D01*
X151490000Y-56950000D02*
X151490000Y-62950000D01*
X151370000Y-56950000D02*
X151370000Y-62950000D01*
X151250000Y-56950000D02*
X151250000Y-62950000D01*
X151130000Y-56950000D02*
X151130000Y-62950000D01*
X151790000Y-53960000D02*
X151790000Y-54290000D01*
X151030000Y-53960000D02*
X151030000Y-54290000D01*
X150140000Y-54290000D02*
X150140000Y-56950000D01*
X149250000Y-56950000D02*
X149250000Y-62950000D01*
X149250000Y-62950000D02*
X148490000Y-62950000D01*
X148490000Y-62950000D02*
X148490000Y-56950000D01*
X149250000Y-53892929D02*
X149250000Y-54290000D01*
X148490000Y-53892929D02*
X148490000Y-54290000D01*
X147600000Y-54290000D02*
X147600000Y-56950000D01*
X146710000Y-56950000D02*
X146710000Y-62950000D01*
X146710000Y-62950000D02*
X145950000Y-62950000D01*
X145950000Y-62950000D02*
X145950000Y-56950000D01*
X146710000Y-53892929D02*
X146710000Y-54290000D01*
X145950000Y-53892929D02*
X145950000Y-54290000D01*
X145060000Y-54290000D02*
X145060000Y-56950000D01*
X144170000Y-56950000D02*
X144170000Y-62950000D01*
X144170000Y-62950000D02*
X143410000Y-62950000D01*
X143410000Y-62950000D02*
X143410000Y-56950000D01*
X144170000Y-53892929D02*
X144170000Y-54290000D01*
X143410000Y-53892929D02*
X143410000Y-54290000D01*
X151410000Y-51580000D02*
X152680000Y-51580000D01*
X152680000Y-51580000D02*
X152680000Y-52850000D01*
X163740000Y-56770000D02*
X163740000Y-57700000D01*
X163740000Y-59930000D02*
X163740000Y-59000000D01*
X163740000Y-59930000D02*
X165900000Y-59930000D01*
X163740000Y-56770000D02*
X165200000Y-56770000D01*
X144320000Y-74610000D02*
X145250000Y-74610000D01*
X147480000Y-74610000D02*
X146550000Y-74610000D01*
X147480000Y-74610000D02*
X147480000Y-72450000D01*
X144320000Y-74610000D02*
X144320000Y-73150000D01*
X135940000Y-69370000D02*
X135940000Y-70300000D01*
X135940000Y-72530000D02*
X135940000Y-71600000D01*
X135940000Y-72530000D02*
X138100000Y-72530000D01*
X135940000Y-69370000D02*
X137400000Y-69370000D01*
X150650000Y-121070000D02*
X151650000Y-121070000D01*
X151650000Y-122430000D02*
X150650000Y-122430000D01*
X157070000Y-92375000D02*
X157070000Y-91375000D01*
X158430000Y-91375000D02*
X158430000Y-92375000D01*
X164770000Y-63150000D02*
X164770000Y-62150000D01*
X166130000Y-62150000D02*
X166130000Y-63150000D01*
X160580000Y-64475000D02*
X160580000Y-65475000D01*
X159220000Y-65475000D02*
X159220000Y-64475000D01*
X139480000Y-62425000D02*
X139480000Y-63425000D01*
X138120000Y-63425000D02*
X138120000Y-62425000D01*
X138045000Y-56775000D02*
X138045000Y-55775000D01*
X139405000Y-55775000D02*
X139405000Y-56775000D01*
X134980000Y-55950000D02*
X134980000Y-56950000D01*
X133620000Y-56950000D02*
X133620000Y-55950000D01*
X131070000Y-61700000D02*
X131070000Y-60700000D01*
X132430000Y-60700000D02*
X132430000Y-61700000D01*
X134100000Y-126180000D02*
X133100000Y-126180000D01*
X133100000Y-124820000D02*
X134100000Y-124820000D01*
X151300000Y-125080000D02*
X150300000Y-125080000D01*
X150300000Y-123720000D02*
X151300000Y-123720000D01*
X146100000Y-125180000D02*
X145100000Y-125180000D01*
X145100000Y-123820000D02*
X146100000Y-123820000D01*
X146300000Y-69130000D02*
X145300000Y-69130000D01*
X145300000Y-67770000D02*
X146300000Y-67770000D01*
X138970000Y-71200000D02*
X138970000Y-70200000D01*
X140330000Y-70200000D02*
X140330000Y-71200000D01*
X142150000Y-74880000D02*
X141150000Y-74880000D01*
X141150000Y-73520000D02*
X142150000Y-73520000D01*
X161000000Y-53580000D02*
X160000000Y-53580000D01*
X160000000Y-52220000D02*
X161000000Y-52220000D01*
X155100000Y-50070000D02*
X156100000Y-50070000D01*
X156100000Y-51430000D02*
X155100000Y-51430000D01*
X157180000Y-59900000D02*
X157180000Y-60900000D01*
X155820000Y-60900000D02*
X155820000Y-59900000D01*
X149850000Y-90220000D02*
X150850000Y-90220000D01*
X150850000Y-91580000D02*
X149850000Y-91580000D01*
X146277917Y-91675595D02*
X145277917Y-91675595D01*
X145277917Y-90315595D02*
X146277917Y-90315595D01*
X156520000Y-125000000D02*
X156520000Y-124000000D01*
X157880000Y-124000000D02*
X157880000Y-125000000D01*
X136325000Y-59815000D02*
X134525000Y-59815000D01*
X134525000Y-63035000D02*
X136975000Y-63035000D01*
X140435000Y-123600000D02*
X140435000Y-121800000D01*
X137215000Y-121800000D02*
X137215000Y-124250000D01*
D12*
X149145000Y-83977500D02*
X149145000Y-81527500D01*
X145895000Y-84702500D02*
X145895000Y-81527500D01*
D11*
X167446000Y-126044000D02*
X167446000Y-123384000D01*
X162306000Y-126044000D02*
X167446000Y-126044000D01*
X162306000Y-123384000D02*
X167446000Y-123384000D01*
X162306000Y-126044000D02*
X162306000Y-123384000D01*
X161036000Y-126044000D02*
X159706000Y-126044000D01*
X159706000Y-126044000D02*
X159706000Y-124714000D01*
D13*
X146275000Y-60070000D02*
G75*
G03X146275000Y-60070000I-250000J0D01*
G01*
D12*
X135188095Y-80602380D02*
X135188095Y-79602380D01*
X135569047Y-79602380D01*
X135664285Y-79650000D01*
X135711904Y-79697619D01*
X135759523Y-79792857D01*
X135759523Y-79935714D01*
X135711904Y-80030952D01*
X135664285Y-80078571D01*
X135569047Y-80126190D01*
X135188095Y-80126190D01*
X136759523Y-80602380D02*
X136426190Y-80126190D01*
X136188095Y-80602380D02*
X136188095Y-79602380D01*
X136569047Y-79602380D01*
X136664285Y-79650000D01*
X136711904Y-79697619D01*
X136759523Y-79792857D01*
X136759523Y-79935714D01*
X136711904Y-80030952D01*
X136664285Y-80078571D01*
X136569047Y-80126190D01*
X136188095Y-80126190D01*
X137378571Y-79602380D02*
X137569047Y-79602380D01*
X137664285Y-79650000D01*
X137759523Y-79745238D01*
X137807142Y-79935714D01*
X137807142Y-80269047D01*
X137759523Y-80459523D01*
X137664285Y-80554761D01*
X137569047Y-80602380D01*
X137378571Y-80602380D01*
X137283333Y-80554761D01*
X137188095Y-80459523D01*
X137140476Y-80269047D01*
X137140476Y-79935714D01*
X137188095Y-79745238D01*
X137283333Y-79650000D01*
X137378571Y-79602380D01*
X138759523Y-79650000D02*
X138664285Y-79602380D01*
X138521428Y-79602380D01*
X138378571Y-79650000D01*
X138283333Y-79745238D01*
X138235714Y-79840476D01*
X138188095Y-80030952D01*
X138188095Y-80173809D01*
X138235714Y-80364285D01*
X138283333Y-80459523D01*
X138378571Y-80554761D01*
X138521428Y-80602380D01*
X138616666Y-80602380D01*
X138759523Y-80554761D01*
X138807142Y-80507142D01*
X138807142Y-80173809D01*
X138616666Y-80173809D01*
X139759523Y-80602380D02*
X139188095Y-80602380D01*
X139473809Y-80602380D02*
X139473809Y-79602380D01*
X139378571Y-79745238D01*
X139283333Y-79840476D01*
X139188095Y-79888095D01*
X145222619Y-120808333D02*
X145698809Y-120475000D01*
X145222619Y-120236904D02*
X146222619Y-120236904D01*
X146222619Y-120617857D01*
X146175000Y-120713095D01*
X146127380Y-120760714D01*
X146032142Y-120808333D01*
X145889285Y-120808333D01*
X145794047Y-120760714D01*
X145746428Y-120713095D01*
X145698809Y-120617857D01*
X145698809Y-120236904D01*
X145794047Y-121379761D02*
X145841666Y-121284523D01*
X145889285Y-121236904D01*
X145984523Y-121189285D01*
X146032142Y-121189285D01*
X146127380Y-121236904D01*
X146175000Y-121284523D01*
X146222619Y-121379761D01*
X146222619Y-121570238D01*
X146175000Y-121665476D01*
X146127380Y-121713095D01*
X146032142Y-121760714D01*
X145984523Y-121760714D01*
X145889285Y-121713095D01*
X145841666Y-121665476D01*
X145794047Y-121570238D01*
X145794047Y-121379761D01*
X145746428Y-121284523D01*
X145698809Y-121236904D01*
X145603571Y-121189285D01*
X145413095Y-121189285D01*
X145317857Y-121236904D01*
X145270238Y-121284523D01*
X145222619Y-121379761D01*
X145222619Y-121570238D01*
X145270238Y-121665476D01*
X145317857Y-121713095D01*
X145413095Y-121760714D01*
X145603571Y-121760714D01*
X145698809Y-121713095D01*
X145746428Y-121665476D01*
X145794047Y-121570238D01*
X137238095Y-93202380D02*
X137238095Y-94011904D01*
X137285714Y-94107142D01*
X137333333Y-94154761D01*
X137428571Y-94202380D01*
X137619047Y-94202380D01*
X137714285Y-94154761D01*
X137761904Y-94107142D01*
X137809523Y-94011904D01*
X137809523Y-93202380D01*
X138809523Y-94202380D02*
X138238095Y-94202380D01*
X138523809Y-94202380D02*
X138523809Y-93202380D01*
X138428571Y-93345238D01*
X138333333Y-93440476D01*
X138238095Y-93488095D01*
X157738095Y-54202380D02*
X157738095Y-55011904D01*
X157785714Y-55107142D01*
X157833333Y-55154761D01*
X157928571Y-55202380D01*
X158119047Y-55202380D01*
X158214285Y-55154761D01*
X158261904Y-55107142D01*
X158309523Y-55011904D01*
X158309523Y-54202380D01*
X159214285Y-54202380D02*
X159023809Y-54202380D01*
X158928571Y-54250000D01*
X158880952Y-54297619D01*
X158785714Y-54440476D01*
X158738095Y-54630952D01*
X158738095Y-55011904D01*
X158785714Y-55107142D01*
X158833333Y-55154761D01*
X158928571Y-55202380D01*
X159119047Y-55202380D01*
X159214285Y-55154761D01*
X159261904Y-55107142D01*
X159309523Y-55011904D01*
X159309523Y-54773809D01*
X159261904Y-54678571D01*
X159214285Y-54630952D01*
X159119047Y-54583333D01*
X158928571Y-54583333D01*
X158833333Y-54630952D01*
X158785714Y-54678571D01*
X158738095Y-54773809D01*
X141908333Y-57707142D02*
X141860714Y-57754761D01*
X141717857Y-57802380D01*
X141622619Y-57802380D01*
X141479761Y-57754761D01*
X141384523Y-57659523D01*
X141336904Y-57564285D01*
X141289285Y-57373809D01*
X141289285Y-57230952D01*
X141336904Y-57040476D01*
X141384523Y-56945238D01*
X141479761Y-56850000D01*
X141622619Y-56802380D01*
X141717857Y-56802380D01*
X141860714Y-56850000D01*
X141908333Y-56897619D01*
X142860714Y-57802380D02*
X142289285Y-57802380D01*
X142575000Y-57802380D02*
X142575000Y-56802380D01*
X142479761Y-56945238D01*
X142384523Y-57040476D01*
X142289285Y-57088095D01*
X140583333Y-61857142D02*
X140535714Y-61904761D01*
X140392857Y-61952380D01*
X140297619Y-61952380D01*
X140154761Y-61904761D01*
X140059523Y-61809523D01*
X140011904Y-61714285D01*
X139964285Y-61523809D01*
X139964285Y-61380952D01*
X140011904Y-61190476D01*
X140059523Y-61095238D01*
X140154761Y-61000000D01*
X140297619Y-60952380D01*
X140392857Y-60952380D01*
X140535714Y-61000000D01*
X140583333Y-61047619D01*
X140964285Y-61047619D02*
X141011904Y-61000000D01*
X141107142Y-60952380D01*
X141345238Y-60952380D01*
X141440476Y-61000000D01*
X141488095Y-61047619D01*
X141535714Y-61142857D01*
X141535714Y-61238095D01*
X141488095Y-61380952D01*
X140916666Y-61952380D01*
X141535714Y-61952380D01*
X134483333Y-125357142D02*
X134435714Y-125404761D01*
X134292857Y-125452380D01*
X134197619Y-125452380D01*
X134054761Y-125404761D01*
X133959523Y-125309523D01*
X133911904Y-125214285D01*
X133864285Y-125023809D01*
X133864285Y-124880952D01*
X133911904Y-124690476D01*
X133959523Y-124595238D01*
X134054761Y-124500000D01*
X134197619Y-124452380D01*
X134292857Y-124452380D01*
X134435714Y-124500000D01*
X134483333Y-124547619D01*
X134816666Y-124452380D02*
X135435714Y-124452380D01*
X135102380Y-124833333D01*
X135245238Y-124833333D01*
X135340476Y-124880952D01*
X135388095Y-124928571D01*
X135435714Y-125023809D01*
X135435714Y-125261904D01*
X135388095Y-125357142D01*
X135340476Y-125404761D01*
X135245238Y-125452380D01*
X134959523Y-125452380D01*
X134864285Y-125404761D01*
X134816666Y-125357142D01*
X134483333Y-120707142D02*
X134435714Y-120754761D01*
X134292857Y-120802380D01*
X134197619Y-120802380D01*
X134054761Y-120754761D01*
X133959523Y-120659523D01*
X133911904Y-120564285D01*
X133864285Y-120373809D01*
X133864285Y-120230952D01*
X133911904Y-120040476D01*
X133959523Y-119945238D01*
X134054761Y-119850000D01*
X134197619Y-119802380D01*
X134292857Y-119802380D01*
X134435714Y-119850000D01*
X134483333Y-119897619D01*
X135340476Y-120135714D02*
X135340476Y-120802380D01*
X135102380Y-119754761D02*
X134864285Y-120469047D01*
X135483333Y-120469047D01*
X148783333Y-71407142D02*
X148735714Y-71454761D01*
X148592857Y-71502380D01*
X148497619Y-71502380D01*
X148354761Y-71454761D01*
X148259523Y-71359523D01*
X148211904Y-71264285D01*
X148164285Y-71073809D01*
X148164285Y-70930952D01*
X148211904Y-70740476D01*
X148259523Y-70645238D01*
X148354761Y-70550000D01*
X148497619Y-70502380D01*
X148592857Y-70502380D01*
X148735714Y-70550000D01*
X148783333Y-70597619D01*
X149688095Y-70502380D02*
X149211904Y-70502380D01*
X149164285Y-70978571D01*
X149211904Y-70930952D01*
X149307142Y-70883333D01*
X149545238Y-70883333D01*
X149640476Y-70930952D01*
X149688095Y-70978571D01*
X149735714Y-71073809D01*
X149735714Y-71311904D01*
X149688095Y-71407142D01*
X149640476Y-71454761D01*
X149545238Y-71502380D01*
X149307142Y-71502380D01*
X149211904Y-71454761D01*
X149164285Y-71407142D01*
X153583333Y-92457142D02*
X153535714Y-92504761D01*
X153392857Y-92552380D01*
X153297619Y-92552380D01*
X153154761Y-92504761D01*
X153059523Y-92409523D01*
X153011904Y-92314285D01*
X152964285Y-92123809D01*
X152964285Y-91980952D01*
X153011904Y-91790476D01*
X153059523Y-91695238D01*
X153154761Y-91600000D01*
X153297619Y-91552380D01*
X153392857Y-91552380D01*
X153535714Y-91600000D01*
X153583333Y-91647619D01*
X154440476Y-91552380D02*
X154250000Y-91552380D01*
X154154761Y-91600000D01*
X154107142Y-91647619D01*
X154011904Y-91790476D01*
X153964285Y-91980952D01*
X153964285Y-92361904D01*
X154011904Y-92457142D01*
X154059523Y-92504761D01*
X154154761Y-92552380D01*
X154345238Y-92552380D01*
X154440476Y-92504761D01*
X154488095Y-92457142D01*
X154535714Y-92361904D01*
X154535714Y-92123809D01*
X154488095Y-92028571D01*
X154440476Y-91980952D01*
X154345238Y-91933333D01*
X154154761Y-91933333D01*
X154059523Y-91980952D01*
X154011904Y-92028571D01*
X153964285Y-92123809D01*
X141333333Y-92857142D02*
X141285714Y-92904761D01*
X141142857Y-92952380D01*
X141047619Y-92952380D01*
X140904761Y-92904761D01*
X140809523Y-92809523D01*
X140761904Y-92714285D01*
X140714285Y-92523809D01*
X140714285Y-92380952D01*
X140761904Y-92190476D01*
X140809523Y-92095238D01*
X140904761Y-92000000D01*
X141047619Y-91952380D01*
X141142857Y-91952380D01*
X141285714Y-92000000D01*
X141333333Y-92047619D01*
X141666666Y-91952380D02*
X142333333Y-91952380D01*
X141904761Y-92952380D01*
X136761904Y-66452380D02*
X136761904Y-65452380D01*
X137000000Y-65452380D01*
X137142857Y-65500000D01*
X137238095Y-65595238D01*
X137285714Y-65690476D01*
X137333333Y-65880952D01*
X137333333Y-66023809D01*
X137285714Y-66214285D01*
X137238095Y-66309523D01*
X137142857Y-66404761D01*
X137000000Y-66452380D01*
X136761904Y-66452380D01*
X137714285Y-65547619D02*
X137761904Y-65500000D01*
X137857142Y-65452380D01*
X138095238Y-65452380D01*
X138190476Y-65500000D01*
X138238095Y-65547619D01*
X138285714Y-65642857D01*
X138285714Y-65738095D01*
X138238095Y-65880952D01*
X137666666Y-66452380D01*
X138285714Y-66452380D01*
X128141904Y-74112380D02*
X128141904Y-73112380D01*
X128522857Y-73112380D01*
X128618095Y-73160000D01*
X128665714Y-73207619D01*
X128713333Y-73302857D01*
X128713333Y-73445714D01*
X128665714Y-73540952D01*
X128618095Y-73588571D01*
X128522857Y-73636190D01*
X128141904Y-73636190D01*
X129665714Y-74112380D02*
X129094285Y-74112380D01*
X129380000Y-74112380D02*
X129380000Y-73112380D01*
X129284761Y-73255238D01*
X129189523Y-73350476D01*
X129094285Y-73398095D01*
X165151904Y-122212380D02*
X165151904Y-121212380D01*
X165532857Y-121212380D01*
X165628095Y-121260000D01*
X165675714Y-121307619D01*
X165723333Y-121402857D01*
X165723333Y-121545714D01*
X165675714Y-121640952D01*
X165628095Y-121688571D01*
X165532857Y-121736190D01*
X165151904Y-121736190D01*
X166104285Y-121307619D02*
X166151904Y-121260000D01*
X166247142Y-121212380D01*
X166485238Y-121212380D01*
X166580476Y-121260000D01*
X166628095Y-121307619D01*
X166675714Y-121402857D01*
X166675714Y-121498095D01*
X166628095Y-121640952D01*
X166056666Y-122212380D01*
X166675714Y-122212380D01*
X142911904Y-50802380D02*
X142911904Y-49802380D01*
X143292857Y-49802380D01*
X143388095Y-49850000D01*
X143435714Y-49897619D01*
X143483333Y-49992857D01*
X143483333Y-50135714D01*
X143435714Y-50230952D01*
X143388095Y-50278571D01*
X143292857Y-50326190D01*
X142911904Y-50326190D01*
X144340476Y-49802380D02*
X144150000Y-49802380D01*
X144054761Y-49850000D01*
X144007142Y-49897619D01*
X143911904Y-50040476D01*
X143864285Y-50230952D01*
X143864285Y-50611904D01*
X143911904Y-50707142D01*
X143959523Y-50754761D01*
X144054761Y-50802380D01*
X144245238Y-50802380D01*
X144340476Y-50754761D01*
X144388095Y-50707142D01*
X144435714Y-50611904D01*
X144435714Y-50373809D01*
X144388095Y-50278571D01*
X144340476Y-50230952D01*
X144245238Y-50183333D01*
X144054761Y-50183333D01*
X143959523Y-50230952D01*
X143911904Y-50278571D01*
X143864285Y-50373809D01*
X167154761Y-59047619D02*
X167059523Y-59000000D01*
X166964285Y-58904761D01*
X166821428Y-58761904D01*
X166726190Y-58714285D01*
X166630952Y-58714285D01*
X166678571Y-58952380D02*
X166583333Y-58904761D01*
X166488095Y-58809523D01*
X166440476Y-58619047D01*
X166440476Y-58285714D01*
X166488095Y-58095238D01*
X166583333Y-58000000D01*
X166678571Y-57952380D01*
X166869047Y-57952380D01*
X166964285Y-58000000D01*
X167059523Y-58095238D01*
X167107142Y-58285714D01*
X167107142Y-58619047D01*
X167059523Y-58809523D01*
X166964285Y-58904761D01*
X166869047Y-58952380D01*
X166678571Y-58952380D01*
X168059523Y-58952380D02*
X167488095Y-58952380D01*
X167773809Y-58952380D02*
X167773809Y-57952380D01*
X167678571Y-58095238D01*
X167583333Y-58190476D01*
X167488095Y-58238095D01*
X147704761Y-76147619D02*
X147609523Y-76100000D01*
X147514285Y-76004761D01*
X147371428Y-75861904D01*
X147276190Y-75814285D01*
X147180952Y-75814285D01*
X147228571Y-76052380D02*
X147133333Y-76004761D01*
X147038095Y-75909523D01*
X146990476Y-75719047D01*
X146990476Y-75385714D01*
X147038095Y-75195238D01*
X147133333Y-75100000D01*
X147228571Y-75052380D01*
X147419047Y-75052380D01*
X147514285Y-75100000D01*
X147609523Y-75195238D01*
X147657142Y-75385714D01*
X147657142Y-75719047D01*
X147609523Y-75909523D01*
X147514285Y-76004761D01*
X147419047Y-76052380D01*
X147228571Y-76052380D01*
X148038095Y-75147619D02*
X148085714Y-75100000D01*
X148180952Y-75052380D01*
X148419047Y-75052380D01*
X148514285Y-75100000D01*
X148561904Y-75147619D01*
X148609523Y-75242857D01*
X148609523Y-75338095D01*
X148561904Y-75480952D01*
X147990476Y-76052380D01*
X148609523Y-76052380D01*
X134854761Y-70247619D02*
X134759523Y-70200000D01*
X134664285Y-70104761D01*
X134521428Y-69961904D01*
X134426190Y-69914285D01*
X134330952Y-69914285D01*
X134378571Y-70152380D02*
X134283333Y-70104761D01*
X134188095Y-70009523D01*
X134140476Y-69819047D01*
X134140476Y-69485714D01*
X134188095Y-69295238D01*
X134283333Y-69200000D01*
X134378571Y-69152380D01*
X134569047Y-69152380D01*
X134664285Y-69200000D01*
X134759523Y-69295238D01*
X134807142Y-69485714D01*
X134807142Y-69819047D01*
X134759523Y-70009523D01*
X134664285Y-70104761D01*
X134569047Y-70152380D01*
X134378571Y-70152380D01*
X135140476Y-69152380D02*
X135759523Y-69152380D01*
X135426190Y-69533333D01*
X135569047Y-69533333D01*
X135664285Y-69580952D01*
X135711904Y-69628571D01*
X135759523Y-69723809D01*
X135759523Y-69961904D01*
X135711904Y-70057142D01*
X135664285Y-70104761D01*
X135569047Y-70152380D01*
X135283333Y-70152380D01*
X135188095Y-70104761D01*
X135140476Y-70057142D01*
X150983333Y-123652380D02*
X150650000Y-123176190D01*
X150411904Y-123652380D02*
X150411904Y-122652380D01*
X150792857Y-122652380D01*
X150888095Y-122700000D01*
X150935714Y-122747619D01*
X150983333Y-122842857D01*
X150983333Y-122985714D01*
X150935714Y-123080952D01*
X150888095Y-123128571D01*
X150792857Y-123176190D01*
X150411904Y-123176190D01*
X151935714Y-123652380D02*
X151364285Y-123652380D01*
X151650000Y-123652380D02*
X151650000Y-122652380D01*
X151554761Y-122795238D01*
X151459523Y-122890476D01*
X151364285Y-122938095D01*
X159033333Y-92327380D02*
X158700000Y-91851190D01*
X158461904Y-92327380D02*
X158461904Y-91327380D01*
X158842857Y-91327380D01*
X158938095Y-91375000D01*
X158985714Y-91422619D01*
X159033333Y-91517857D01*
X159033333Y-91660714D01*
X158985714Y-91755952D01*
X158938095Y-91803571D01*
X158842857Y-91851190D01*
X158461904Y-91851190D01*
X159366666Y-91327380D02*
X159985714Y-91327380D01*
X159652380Y-91708333D01*
X159795238Y-91708333D01*
X159890476Y-91755952D01*
X159938095Y-91803571D01*
X159985714Y-91898809D01*
X159985714Y-92136904D01*
X159938095Y-92232142D01*
X159890476Y-92279761D01*
X159795238Y-92327380D01*
X159509523Y-92327380D01*
X159414285Y-92279761D01*
X159366666Y-92232142D01*
X167083333Y-63102380D02*
X166750000Y-62626190D01*
X166511904Y-63102380D02*
X166511904Y-62102380D01*
X166892857Y-62102380D01*
X166988095Y-62150000D01*
X167035714Y-62197619D01*
X167083333Y-62292857D01*
X167083333Y-62435714D01*
X167035714Y-62530952D01*
X166988095Y-62578571D01*
X166892857Y-62626190D01*
X166511904Y-62626190D01*
X167940476Y-62435714D02*
X167940476Y-63102380D01*
X167702380Y-62054761D02*
X167464285Y-62769047D01*
X168083333Y-62769047D01*
X157483333Y-65602380D02*
X157150000Y-65126190D01*
X156911904Y-65602380D02*
X156911904Y-64602380D01*
X157292857Y-64602380D01*
X157388095Y-64650000D01*
X157435714Y-64697619D01*
X157483333Y-64792857D01*
X157483333Y-64935714D01*
X157435714Y-65030952D01*
X157388095Y-65078571D01*
X157292857Y-65126190D01*
X156911904Y-65126190D01*
X158388095Y-64602380D02*
X157911904Y-64602380D01*
X157864285Y-65078571D01*
X157911904Y-65030952D01*
X158007142Y-64983333D01*
X158245238Y-64983333D01*
X158340476Y-65030952D01*
X158388095Y-65078571D01*
X158435714Y-65173809D01*
X158435714Y-65411904D01*
X158388095Y-65507142D01*
X158340476Y-65554761D01*
X158245238Y-65602380D01*
X158007142Y-65602380D01*
X157911904Y-65554761D01*
X157864285Y-65507142D01*
X140583333Y-63452380D02*
X140250000Y-62976190D01*
X140011904Y-63452380D02*
X140011904Y-62452380D01*
X140392857Y-62452380D01*
X140488095Y-62500000D01*
X140535714Y-62547619D01*
X140583333Y-62642857D01*
X140583333Y-62785714D01*
X140535714Y-62880952D01*
X140488095Y-62928571D01*
X140392857Y-62976190D01*
X140011904Y-62976190D01*
X141440476Y-62452380D02*
X141250000Y-62452380D01*
X141154761Y-62500000D01*
X141107142Y-62547619D01*
X141011904Y-62690476D01*
X140964285Y-62880952D01*
X140964285Y-63261904D01*
X141011904Y-63357142D01*
X141059523Y-63404761D01*
X141154761Y-63452380D01*
X141345238Y-63452380D01*
X141440476Y-63404761D01*
X141488095Y-63357142D01*
X141535714Y-63261904D01*
X141535714Y-63023809D01*
X141488095Y-62928571D01*
X141440476Y-62880952D01*
X141345238Y-62833333D01*
X141154761Y-62833333D01*
X141059523Y-62880952D01*
X141011904Y-62928571D01*
X140964285Y-63023809D01*
X136978333Y-55777380D02*
X136645000Y-55301190D01*
X136406904Y-55777380D02*
X136406904Y-54777380D01*
X136787857Y-54777380D01*
X136883095Y-54825000D01*
X136930714Y-54872619D01*
X136978333Y-54967857D01*
X136978333Y-55110714D01*
X136930714Y-55205952D01*
X136883095Y-55253571D01*
X136787857Y-55301190D01*
X136406904Y-55301190D01*
X137311666Y-54777380D02*
X137978333Y-54777380D01*
X137549761Y-55777380D01*
X132333333Y-57452380D02*
X132000000Y-56976190D01*
X131761904Y-57452380D02*
X131761904Y-56452380D01*
X132142857Y-56452380D01*
X132238095Y-56500000D01*
X132285714Y-56547619D01*
X132333333Y-56642857D01*
X132333333Y-56785714D01*
X132285714Y-56880952D01*
X132238095Y-56928571D01*
X132142857Y-56976190D01*
X131761904Y-56976190D01*
X132809523Y-57452380D02*
X133000000Y-57452380D01*
X133095238Y-57404761D01*
X133142857Y-57357142D01*
X133238095Y-57214285D01*
X133285714Y-57023809D01*
X133285714Y-56642857D01*
X133238095Y-56547619D01*
X133190476Y-56500000D01*
X133095238Y-56452380D01*
X132904761Y-56452380D01*
X132809523Y-56500000D01*
X132761904Y-56547619D01*
X132714285Y-56642857D01*
X132714285Y-56880952D01*
X132761904Y-56976190D01*
X132809523Y-57023809D01*
X132904761Y-57071428D01*
X133095238Y-57071428D01*
X133190476Y-57023809D01*
X133238095Y-56976190D01*
X133285714Y-56880952D01*
X131607142Y-59202380D02*
X131273809Y-58726190D01*
X131035714Y-59202380D02*
X131035714Y-58202380D01*
X131416666Y-58202380D01*
X131511904Y-58250000D01*
X131559523Y-58297619D01*
X131607142Y-58392857D01*
X131607142Y-58535714D01*
X131559523Y-58630952D01*
X131511904Y-58678571D01*
X131416666Y-58726190D01*
X131035714Y-58726190D01*
X132559523Y-59202380D02*
X131988095Y-59202380D01*
X132273809Y-59202380D02*
X132273809Y-58202380D01*
X132178571Y-58345238D01*
X132083333Y-58440476D01*
X131988095Y-58488095D01*
X133178571Y-58202380D02*
X133273809Y-58202380D01*
X133369047Y-58250000D01*
X133416666Y-58297619D01*
X133464285Y-58392857D01*
X133511904Y-58583333D01*
X133511904Y-58821428D01*
X133464285Y-59011904D01*
X133416666Y-59107142D01*
X133369047Y-59154761D01*
X133273809Y-59202380D01*
X133178571Y-59202380D01*
X133083333Y-59154761D01*
X133035714Y-59107142D01*
X132988095Y-59011904D01*
X132940476Y-58821428D01*
X132940476Y-58583333D01*
X132988095Y-58392857D01*
X133035714Y-58297619D01*
X133083333Y-58250000D01*
X133178571Y-58202380D01*
X137807142Y-126252380D02*
X137473809Y-125776190D01*
X137235714Y-126252380D02*
X137235714Y-125252380D01*
X137616666Y-125252380D01*
X137711904Y-125300000D01*
X137759523Y-125347619D01*
X137807142Y-125442857D01*
X137807142Y-125585714D01*
X137759523Y-125680952D01*
X137711904Y-125728571D01*
X137616666Y-125776190D01*
X137235714Y-125776190D01*
X138759523Y-126252380D02*
X138188095Y-126252380D01*
X138473809Y-126252380D02*
X138473809Y-125252380D01*
X138378571Y-125395238D01*
X138283333Y-125490476D01*
X138188095Y-125538095D01*
X139711904Y-126252380D02*
X139140476Y-126252380D01*
X139426190Y-126252380D02*
X139426190Y-125252380D01*
X139330952Y-125395238D01*
X139235714Y-125490476D01*
X139140476Y-125538095D01*
X150157142Y-126452380D02*
X149823809Y-125976190D01*
X149585714Y-126452380D02*
X149585714Y-125452380D01*
X149966666Y-125452380D01*
X150061904Y-125500000D01*
X150109523Y-125547619D01*
X150157142Y-125642857D01*
X150157142Y-125785714D01*
X150109523Y-125880952D01*
X150061904Y-125928571D01*
X149966666Y-125976190D01*
X149585714Y-125976190D01*
X151109523Y-126452380D02*
X150538095Y-126452380D01*
X150823809Y-126452380D02*
X150823809Y-125452380D01*
X150728571Y-125595238D01*
X150633333Y-125690476D01*
X150538095Y-125738095D01*
X151490476Y-125547619D02*
X151538095Y-125500000D01*
X151633333Y-125452380D01*
X151871428Y-125452380D01*
X151966666Y-125500000D01*
X152014285Y-125547619D01*
X152061904Y-125642857D01*
X152061904Y-125738095D01*
X152014285Y-125880952D01*
X151442857Y-126452380D01*
X152061904Y-126452380D01*
X144457142Y-126652380D02*
X144123809Y-126176190D01*
X143885714Y-126652380D02*
X143885714Y-125652380D01*
X144266666Y-125652380D01*
X144361904Y-125700000D01*
X144409523Y-125747619D01*
X144457142Y-125842857D01*
X144457142Y-125985714D01*
X144409523Y-126080952D01*
X144361904Y-126128571D01*
X144266666Y-126176190D01*
X143885714Y-126176190D01*
X145409523Y-126652380D02*
X144838095Y-126652380D01*
X145123809Y-126652380D02*
X145123809Y-125652380D01*
X145028571Y-125795238D01*
X144933333Y-125890476D01*
X144838095Y-125938095D01*
X145742857Y-125652380D02*
X146361904Y-125652380D01*
X146028571Y-126033333D01*
X146171428Y-126033333D01*
X146266666Y-126080952D01*
X146314285Y-126128571D01*
X146361904Y-126223809D01*
X146361904Y-126461904D01*
X146314285Y-126557142D01*
X146266666Y-126604761D01*
X146171428Y-126652380D01*
X145885714Y-126652380D01*
X145790476Y-126604761D01*
X145742857Y-126557142D01*
X148757142Y-68802380D02*
X148423809Y-68326190D01*
X148185714Y-68802380D02*
X148185714Y-67802380D01*
X148566666Y-67802380D01*
X148661904Y-67850000D01*
X148709523Y-67897619D01*
X148757142Y-67992857D01*
X148757142Y-68135714D01*
X148709523Y-68230952D01*
X148661904Y-68278571D01*
X148566666Y-68326190D01*
X148185714Y-68326190D01*
X149709523Y-68802380D02*
X149138095Y-68802380D01*
X149423809Y-68802380D02*
X149423809Y-67802380D01*
X149328571Y-67945238D01*
X149233333Y-68040476D01*
X149138095Y-68088095D01*
X150566666Y-68135714D02*
X150566666Y-68802380D01*
X150328571Y-67754761D02*
X150090476Y-68469047D01*
X150709523Y-68469047D01*
X139607142Y-68402380D02*
X139273809Y-67926190D01*
X139035714Y-68402380D02*
X139035714Y-67402380D01*
X139416666Y-67402380D01*
X139511904Y-67450000D01*
X139559523Y-67497619D01*
X139607142Y-67592857D01*
X139607142Y-67735714D01*
X139559523Y-67830952D01*
X139511904Y-67878571D01*
X139416666Y-67926190D01*
X139035714Y-67926190D01*
X140559523Y-68402380D02*
X139988095Y-68402380D01*
X140273809Y-68402380D02*
X140273809Y-67402380D01*
X140178571Y-67545238D01*
X140083333Y-67640476D01*
X139988095Y-67688095D01*
X141464285Y-67402380D02*
X140988095Y-67402380D01*
X140940476Y-67878571D01*
X140988095Y-67830952D01*
X141083333Y-67783333D01*
X141321428Y-67783333D01*
X141416666Y-67830952D01*
X141464285Y-67878571D01*
X141511904Y-67973809D01*
X141511904Y-68211904D01*
X141464285Y-68307142D01*
X141416666Y-68354761D01*
X141321428Y-68402380D01*
X141083333Y-68402380D01*
X140988095Y-68354761D01*
X140940476Y-68307142D01*
X141157142Y-76352380D02*
X140823809Y-75876190D01*
X140585714Y-76352380D02*
X140585714Y-75352380D01*
X140966666Y-75352380D01*
X141061904Y-75400000D01*
X141109523Y-75447619D01*
X141157142Y-75542857D01*
X141157142Y-75685714D01*
X141109523Y-75780952D01*
X141061904Y-75828571D01*
X140966666Y-75876190D01*
X140585714Y-75876190D01*
X142109523Y-76352380D02*
X141538095Y-76352380D01*
X141823809Y-76352380D02*
X141823809Y-75352380D01*
X141728571Y-75495238D01*
X141633333Y-75590476D01*
X141538095Y-75638095D01*
X142966666Y-75352380D02*
X142776190Y-75352380D01*
X142680952Y-75400000D01*
X142633333Y-75447619D01*
X142538095Y-75590476D01*
X142490476Y-75780952D01*
X142490476Y-76161904D01*
X142538095Y-76257142D01*
X142585714Y-76304761D01*
X142680952Y-76352380D01*
X142871428Y-76352380D01*
X142966666Y-76304761D01*
X143014285Y-76257142D01*
X143061904Y-76161904D01*
X143061904Y-75923809D01*
X143014285Y-75828571D01*
X142966666Y-75780952D01*
X142871428Y-75733333D01*
X142680952Y-75733333D01*
X142585714Y-75780952D01*
X142538095Y-75828571D01*
X142490476Y-75923809D01*
X160357142Y-51927380D02*
X160023809Y-51451190D01*
X159785714Y-51927380D02*
X159785714Y-50927380D01*
X160166666Y-50927380D01*
X160261904Y-50975000D01*
X160309523Y-51022619D01*
X160357142Y-51117857D01*
X160357142Y-51260714D01*
X160309523Y-51355952D01*
X160261904Y-51403571D01*
X160166666Y-51451190D01*
X159785714Y-51451190D01*
X161309523Y-51927380D02*
X160738095Y-51927380D01*
X161023809Y-51927380D02*
X161023809Y-50927380D01*
X160928571Y-51070238D01*
X160833333Y-51165476D01*
X160738095Y-51213095D01*
X161642857Y-50927380D02*
X162309523Y-50927380D01*
X161880952Y-51927380D01*
X151607142Y-50452380D02*
X151273809Y-49976190D01*
X151035714Y-50452380D02*
X151035714Y-49452380D01*
X151416666Y-49452380D01*
X151511904Y-49500000D01*
X151559523Y-49547619D01*
X151607142Y-49642857D01*
X151607142Y-49785714D01*
X151559523Y-49880952D01*
X151511904Y-49928571D01*
X151416666Y-49976190D01*
X151035714Y-49976190D01*
X152559523Y-50452380D02*
X151988095Y-50452380D01*
X152273809Y-50452380D02*
X152273809Y-49452380D01*
X152178571Y-49595238D01*
X152083333Y-49690476D01*
X151988095Y-49738095D01*
X153130952Y-49880952D02*
X153035714Y-49833333D01*
X152988095Y-49785714D01*
X152940476Y-49690476D01*
X152940476Y-49642857D01*
X152988095Y-49547619D01*
X153035714Y-49500000D01*
X153130952Y-49452380D01*
X153321428Y-49452380D01*
X153416666Y-49500000D01*
X153464285Y-49547619D01*
X153511904Y-49642857D01*
X153511904Y-49690476D01*
X153464285Y-49785714D01*
X153416666Y-49833333D01*
X153321428Y-49880952D01*
X153130952Y-49880952D01*
X153035714Y-49928571D01*
X152988095Y-49976190D01*
X152940476Y-50071428D01*
X152940476Y-50261904D01*
X152988095Y-50357142D01*
X153035714Y-50404761D01*
X153130952Y-50452380D01*
X153321428Y-50452380D01*
X153416666Y-50404761D01*
X153464285Y-50357142D01*
X153511904Y-50261904D01*
X153511904Y-50071428D01*
X153464285Y-49976190D01*
X153416666Y-49928571D01*
X153321428Y-49880952D01*
X155857142Y-63952380D02*
X155523809Y-63476190D01*
X155285714Y-63952380D02*
X155285714Y-62952380D01*
X155666666Y-62952380D01*
X155761904Y-63000000D01*
X155809523Y-63047619D01*
X155857142Y-63142857D01*
X155857142Y-63285714D01*
X155809523Y-63380952D01*
X155761904Y-63428571D01*
X155666666Y-63476190D01*
X155285714Y-63476190D01*
X156809523Y-63952380D02*
X156238095Y-63952380D01*
X156523809Y-63952380D02*
X156523809Y-62952380D01*
X156428571Y-63095238D01*
X156333333Y-63190476D01*
X156238095Y-63238095D01*
X157285714Y-63952380D02*
X157476190Y-63952380D01*
X157571428Y-63904761D01*
X157619047Y-63857142D01*
X157714285Y-63714285D01*
X157761904Y-63523809D01*
X157761904Y-63142857D01*
X157714285Y-63047619D01*
X157666666Y-63000000D01*
X157571428Y-62952380D01*
X157380952Y-62952380D01*
X157285714Y-63000000D01*
X157238095Y-63047619D01*
X157190476Y-63142857D01*
X157190476Y-63380952D01*
X157238095Y-63476190D01*
X157285714Y-63523809D01*
X157380952Y-63571428D01*
X157571428Y-63571428D01*
X157666666Y-63523809D01*
X157714285Y-63476190D01*
X157761904Y-63380952D01*
X149707142Y-92802380D02*
X149373809Y-92326190D01*
X149135714Y-92802380D02*
X149135714Y-91802380D01*
X149516666Y-91802380D01*
X149611904Y-91850000D01*
X149659523Y-91897619D01*
X149707142Y-91992857D01*
X149707142Y-92135714D01*
X149659523Y-92230952D01*
X149611904Y-92278571D01*
X149516666Y-92326190D01*
X149135714Y-92326190D01*
X150088095Y-91897619D02*
X150135714Y-91850000D01*
X150230952Y-91802380D01*
X150469047Y-91802380D01*
X150564285Y-91850000D01*
X150611904Y-91897619D01*
X150659523Y-91992857D01*
X150659523Y-92088095D01*
X150611904Y-92230952D01*
X150040476Y-92802380D01*
X150659523Y-92802380D01*
X151278571Y-91802380D02*
X151373809Y-91802380D01*
X151469047Y-91850000D01*
X151516666Y-91897619D01*
X151564285Y-91992857D01*
X151611904Y-92183333D01*
X151611904Y-92421428D01*
X151564285Y-92611904D01*
X151516666Y-92707142D01*
X151469047Y-92754761D01*
X151373809Y-92802380D01*
X151278571Y-92802380D01*
X151183333Y-92754761D01*
X151135714Y-92707142D01*
X151088095Y-92611904D01*
X151040476Y-92421428D01*
X151040476Y-92183333D01*
X151088095Y-91992857D01*
X151135714Y-91897619D01*
X151183333Y-91850000D01*
X151278571Y-91802380D01*
X145107142Y-92952380D02*
X144773809Y-92476190D01*
X144535714Y-92952380D02*
X144535714Y-91952380D01*
X144916666Y-91952380D01*
X145011904Y-92000000D01*
X145059523Y-92047619D01*
X145107142Y-92142857D01*
X145107142Y-92285714D01*
X145059523Y-92380952D01*
X145011904Y-92428571D01*
X144916666Y-92476190D01*
X144535714Y-92476190D01*
X145488095Y-92047619D02*
X145535714Y-92000000D01*
X145630952Y-91952380D01*
X145869047Y-91952380D01*
X145964285Y-92000000D01*
X146011904Y-92047619D01*
X146059523Y-92142857D01*
X146059523Y-92238095D01*
X146011904Y-92380952D01*
X145440476Y-92952380D01*
X146059523Y-92952380D01*
X147011904Y-92952380D02*
X146440476Y-92952380D01*
X146726190Y-92952380D02*
X146726190Y-91952380D01*
X146630952Y-92095238D01*
X146535714Y-92190476D01*
X146440476Y-92238095D01*
X156457142Y-122152380D02*
X156123809Y-121676190D01*
X155885714Y-122152380D02*
X155885714Y-121152380D01*
X156266666Y-121152380D01*
X156361904Y-121200000D01*
X156409523Y-121247619D01*
X156457142Y-121342857D01*
X156457142Y-121485714D01*
X156409523Y-121580952D01*
X156361904Y-121628571D01*
X156266666Y-121676190D01*
X155885714Y-121676190D01*
X156838095Y-121247619D02*
X156885714Y-121200000D01*
X156980952Y-121152380D01*
X157219047Y-121152380D01*
X157314285Y-121200000D01*
X157361904Y-121247619D01*
X157409523Y-121342857D01*
X157409523Y-121438095D01*
X157361904Y-121580952D01*
X156790476Y-122152380D01*
X157409523Y-122152380D01*
X158314285Y-121152380D02*
X157838095Y-121152380D01*
X157790476Y-121628571D01*
X157838095Y-121580952D01*
X157933333Y-121533333D01*
X158171428Y-121533333D01*
X158266666Y-121580952D01*
X158314285Y-121628571D01*
X158361904Y-121723809D01*
X158361904Y-121961904D01*
X158314285Y-122057142D01*
X158266666Y-122104761D01*
X158171428Y-122152380D01*
X157933333Y-122152380D01*
X157838095Y-122104761D01*
X157790476Y-122057142D01*
X134663095Y-63777380D02*
X134663095Y-64586904D01*
X134710714Y-64682142D01*
X134758333Y-64729761D01*
X134853571Y-64777380D01*
X135044047Y-64777380D01*
X135139285Y-64729761D01*
X135186904Y-64682142D01*
X135234523Y-64586904D01*
X135234523Y-63777380D01*
X136139285Y-64110714D02*
X136139285Y-64777380D01*
X135901190Y-63729761D02*
X135663095Y-64444047D01*
X136282142Y-64444047D01*
X140738095Y-122202380D02*
X140738095Y-123011904D01*
X140785714Y-123107142D01*
X140833333Y-123154761D01*
X140928571Y-123202380D01*
X141119047Y-123202380D01*
X141214285Y-123154761D01*
X141261904Y-123107142D01*
X141309523Y-123011904D01*
X141309523Y-122202380D01*
X142261904Y-122202380D02*
X141785714Y-122202380D01*
X141738095Y-122678571D01*
X141785714Y-122630952D01*
X141880952Y-122583333D01*
X142119047Y-122583333D01*
X142214285Y-122630952D01*
X142261904Y-122678571D01*
X142309523Y-122773809D01*
X142309523Y-123011904D01*
X142261904Y-123107142D01*
X142214285Y-123154761D01*
X142119047Y-123202380D01*
X141880952Y-123202380D01*
X141785714Y-123154761D01*
X141738095Y-123107142D01*
X150488095Y-82204880D02*
X150488095Y-83014404D01*
X150535714Y-83109642D01*
X150583333Y-83157261D01*
X150678571Y-83204880D01*
X150869047Y-83204880D01*
X150964285Y-83157261D01*
X151011904Y-83109642D01*
X151059523Y-83014404D01*
X151059523Y-82204880D01*
X151678571Y-82633452D02*
X151583333Y-82585833D01*
X151535714Y-82538214D01*
X151488095Y-82442976D01*
X151488095Y-82395357D01*
X151535714Y-82300119D01*
X151583333Y-82252500D01*
X151678571Y-82204880D01*
X151869047Y-82204880D01*
X151964285Y-82252500D01*
X152011904Y-82300119D01*
X152059523Y-82395357D01*
X152059523Y-82442976D01*
X152011904Y-82538214D01*
X151964285Y-82585833D01*
X151869047Y-82633452D01*
X151678571Y-82633452D01*
X151583333Y-82681071D01*
X151535714Y-82728690D01*
X151488095Y-82823928D01*
X151488095Y-83014404D01*
X151535714Y-83109642D01*
X151583333Y-83157261D01*
X151678571Y-83204880D01*
X151869047Y-83204880D01*
X151964285Y-83157261D01*
X152011904Y-83109642D01*
X152059523Y-83014404D01*
X152059523Y-82823928D01*
X152011904Y-82728690D01*
X151964285Y-82681071D01*
X151869047Y-82633452D01*
X162011904Y-122702380D02*
X162011904Y-121702380D01*
X162392857Y-121702380D01*
X162488095Y-121750000D01*
X162535714Y-121797619D01*
X162583333Y-121892857D01*
X162583333Y-122035714D01*
X162535714Y-122130952D01*
X162488095Y-122178571D01*
X162392857Y-122226190D01*
X162011904Y-122226190D01*
X163440476Y-122035714D02*
X163440476Y-122702380D01*
X163202380Y-121654761D02*
X162964285Y-122369047D01*
X163583333Y-122369047D01*
M02*
