G04 #@! TF.FileFunction,Soldermask,Bot*
%FSLAX46Y46*%
G04 Gerber Fmt 4.6, Leading zero omitted, Abs format (unit mm)*
G04 Created by KiCad (PCBNEW 4.1.0-alpha+201609050731+7118~50~ubuntu16.04.1-product) date Wed Sep 21 17:23:23 2016*
%MOMM*%
%LPD*%
G01*
G04 APERTURE LIST*
%ADD10C,0.100000*%
%ADD11R,1.350000X1.650000*%
%ADD12O,1.350000X1.650000*%
%ADD13C,2.650000*%
%ADD14C,2.900000*%
%ADD15C,3.400000*%
%ADD16R,1.700000X1.700000*%
%ADD17C,1.700000*%
%ADD18R,2.400000X2.400000*%
%ADD19C,2.400000*%
%ADD20R,2.127200X2.432000*%
%ADD21O,2.127200X2.432000*%
%ADD22C,0.900000*%
%ADD23C,1.000000*%
%ADD24R,1.500000X1.900000*%
%ADD25R,2.432000X2.127200*%
%ADD26O,2.432000X2.127200*%
%ADD27R,1.650000X1.350000*%
%ADD28O,1.650000X1.350000*%
%ADD29R,1.924000X1.924000*%
%ADD30R,1.600000X1.150000*%
%ADD31R,1.150000X1.600000*%
%ADD32R,1.900000X1.650000*%
%ADD33R,2.900000X2.400000*%
%ADD34R,2.200860X2.899360*%
%ADD35R,0.850000X0.990000*%
%ADD36R,1.800000X1.740000*%
%ADD37R,3.900000X4.600000*%
%ADD38R,1.900000X1.700000*%
%ADD39R,1.200100X1.200100*%
%ADD40R,1.300000X1.600000*%
%ADD41R,1.700000X1.900000*%
%ADD42R,2.400000X2.100000*%
%ADD43R,1.600000X1.300000*%
%ADD44C,2.398980*%
%ADD45O,1.873200X1.009600*%
%ADD46C,1.924000*%
%ADD47C,1.800000*%
G04 APERTURE END LIST*
D10*
D11*
X170815000Y-129159000D03*
D12*
X172065000Y-129159000D03*
X173315000Y-129159000D03*
D13*
X89789000Y-94361000D03*
X89789000Y-99364800D03*
D14*
X98247200Y-127531900D03*
D15*
X110447200Y-127531900D03*
X110497200Y-115481900D03*
D14*
X98247200Y-115531900D03*
D15*
X96297200Y-121481900D03*
D16*
X103701840Y-108239560D03*
D17*
X108701840Y-108239560D03*
D18*
X176403000Y-64008000D03*
D19*
X176403000Y-61468000D03*
D20*
X186055000Y-128905000D03*
D21*
X188595000Y-128905000D03*
X191135000Y-128905000D03*
X193675000Y-128905000D03*
D22*
X190689000Y-65065000D03*
X188189000Y-65065000D03*
D23*
X188214000Y-62865000D03*
X188189000Y-61665000D03*
X189439000Y-61665000D03*
X190689000Y-61665000D03*
X190639000Y-62865000D03*
D24*
X191389000Y-105283000D03*
X189585600Y-105283000D03*
X187782200Y-105283000D03*
X187782200Y-114782600D03*
X189585600Y-114782600D03*
D25*
X170561000Y-123698000D03*
D26*
X170561000Y-121158000D03*
X170561000Y-118618000D03*
X170561000Y-116078000D03*
X170561000Y-113538000D03*
X170561000Y-110998000D03*
X170561000Y-108458000D03*
X170561000Y-105918000D03*
X170561000Y-103378000D03*
X170561000Y-100838000D03*
D25*
X208153000Y-101854000D03*
D26*
X208153000Y-104394000D03*
X208153000Y-106934000D03*
X208153000Y-109474000D03*
X208153000Y-112014000D03*
X208153000Y-114554000D03*
X208153000Y-117094000D03*
X208153000Y-119634000D03*
X208153000Y-122174000D03*
X208153000Y-124714000D03*
D27*
X137668000Y-125389000D03*
D28*
X137668000Y-126639000D03*
X137668000Y-127889000D03*
D29*
X105156000Y-94361000D03*
X105156000Y-99568000D03*
X94818200Y-99568000D03*
X94742000Y-94361000D03*
D16*
X100012500Y-99665800D03*
D17*
X100012500Y-94665800D03*
D30*
X124147500Y-104648000D03*
X126047500Y-104648000D03*
D16*
X113924080Y-97525840D03*
D17*
X108924080Y-97525840D03*
X131953000Y-128468000D03*
D16*
X131953000Y-124968000D03*
D31*
X133858000Y-102240000D03*
X133858000Y-104140000D03*
D32*
X126555500Y-101854000D03*
X124055500Y-101854000D03*
D30*
X113919000Y-106807000D03*
X112019000Y-106807000D03*
X119888000Y-110363000D03*
X121788000Y-110363000D03*
D17*
X139517000Y-115697000D03*
D16*
X136017000Y-115697000D03*
D33*
X132143500Y-94361000D03*
X132143500Y-97761000D03*
D34*
X100863400Y-119291100D03*
X100863400Y-123289060D03*
D35*
X116459000Y-108585000D03*
X116459000Y-106475000D03*
D36*
X136550400Y-99390200D03*
X138734800Y-99390200D03*
D37*
X137668000Y-103124000D03*
D38*
X107551240Y-94556580D03*
X110251240Y-94556580D03*
D13*
X89789000Y-122250200D03*
X89789000Y-127254000D03*
D39*
X125095000Y-126751000D03*
X125095000Y-128651000D03*
X123096020Y-127701000D03*
D40*
X127762000Y-126578000D03*
X127762000Y-128778000D03*
D41*
X111379000Y-104427000D03*
X111379000Y-101727000D03*
X108839000Y-104427000D03*
X108839000Y-101727000D03*
X113919000Y-101727000D03*
X113919000Y-104427000D03*
D42*
X107315000Y-112268000D03*
X111315000Y-112268000D03*
X114046000Y-112268000D03*
X118046000Y-112268000D03*
D41*
X113157000Y-118491000D03*
X113157000Y-121191000D03*
D42*
X123508000Y-97536000D03*
X127508000Y-97536000D03*
D43*
X126746000Y-93980000D03*
X124546000Y-93980000D03*
X124165000Y-106680000D03*
X126365000Y-106680000D03*
X129540000Y-106807000D03*
X131740000Y-106807000D03*
X131699000Y-109156500D03*
X129499000Y-109156500D03*
D40*
X131699000Y-104181000D03*
X131699000Y-101981000D03*
D43*
X111846000Y-108966000D03*
X114046000Y-108966000D03*
D40*
X134112000Y-122768000D03*
X134112000Y-124968000D03*
D44*
X94869000Y-108966000D03*
X89867740Y-108966000D03*
D45*
X118237000Y-124396500D03*
X118237000Y-123126500D03*
X118237000Y-121856500D03*
X118237000Y-120586500D03*
X123825000Y-120586500D03*
X123825000Y-121856500D03*
X123825000Y-123126500D03*
X123825000Y-124396500D03*
D46*
X120269000Y-107607100D03*
X120269000Y-104584500D03*
X120269000Y-101587300D03*
X120269000Y-98564700D03*
X120269000Y-95567500D03*
X138785600Y-107581700D03*
X138760200Y-95567500D03*
X209296000Y-60833000D03*
X209296000Y-63373000D03*
X209296000Y-65913000D03*
D47*
X128259000Y-117157500D03*
X125984000Y-117182500D03*
X130534000Y-117157500D03*
D20*
X186817000Y-88519000D03*
D21*
X189357000Y-88519000D03*
X191897000Y-88519000D03*
M02*
