G04 #@! TF.FileFunction,Legend,Top*
%FSLAX46Y46*%
G04 Gerber Fmt 4.6, Leading zero omitted, Abs format (unit mm)*
G04 Created by KiCad (PCBNEW 201610091317+7290~55~ubuntu16.04.1-) date Sat Oct 15 19:35:44 2016*
%MOMM*%
%LPD*%
G01*
G04 APERTURE LIST*
%ADD10C,0.100000*%
%ADD11C,0.125000*%
%ADD12C,0.150000*%
G04 APERTURE END LIST*
D10*
D11*
X117723000Y-121920071D02*
X117758714Y-121848642D01*
X117758714Y-121741500D01*
X117723000Y-121634357D01*
X117651571Y-121562928D01*
X117580142Y-121527214D01*
X117437285Y-121491500D01*
X117330142Y-121491500D01*
X117187285Y-121527214D01*
X117115857Y-121562928D01*
X117044428Y-121634357D01*
X117008714Y-121741500D01*
X117008714Y-121812928D01*
X117044428Y-121920071D01*
X117080142Y-121955785D01*
X117330142Y-121955785D01*
X117330142Y-121812928D01*
X117008714Y-122277214D02*
X117758714Y-122277214D01*
X117008714Y-122705785D01*
X117758714Y-122705785D01*
X117008714Y-123062928D02*
X117758714Y-123062928D01*
X117758714Y-123241500D01*
X117723000Y-123348642D01*
X117651571Y-123420071D01*
X117580142Y-123455785D01*
X117437285Y-123491500D01*
X117330142Y-123491500D01*
X117187285Y-123455785D01*
X117115857Y-123420071D01*
X117044428Y-123348642D01*
X117008714Y-123241500D01*
X117008714Y-123062928D01*
X149860071Y-122942000D02*
X149788642Y-122906285D01*
X149681500Y-122906285D01*
X149574357Y-122942000D01*
X149502928Y-123013428D01*
X149467214Y-123084857D01*
X149431500Y-123227714D01*
X149431500Y-123334857D01*
X149467214Y-123477714D01*
X149502928Y-123549142D01*
X149574357Y-123620571D01*
X149681500Y-123656285D01*
X149752928Y-123656285D01*
X149860071Y-123620571D01*
X149895785Y-123584857D01*
X149895785Y-123334857D01*
X149752928Y-123334857D01*
X150217214Y-123656285D02*
X150217214Y-122906285D01*
X150645785Y-123656285D01*
X150645785Y-122906285D01*
X151002928Y-123656285D02*
X151002928Y-122906285D01*
X151181500Y-122906285D01*
X151288642Y-122942000D01*
X151360071Y-123013428D01*
X151395785Y-123084857D01*
X151431500Y-123227714D01*
X151431500Y-123334857D01*
X151395785Y-123477714D01*
X151360071Y-123549142D01*
X151288642Y-123620571D01*
X151181500Y-123656285D01*
X151002928Y-123656285D01*
X150225142Y-120366285D02*
X149868000Y-120366285D01*
X149832285Y-120723428D01*
X149868000Y-120687714D01*
X149939428Y-120652000D01*
X150118000Y-120652000D01*
X150189428Y-120687714D01*
X150225142Y-120723428D01*
X150260857Y-120794857D01*
X150260857Y-120973428D01*
X150225142Y-121044857D01*
X150189428Y-121080571D01*
X150118000Y-121116285D01*
X149939428Y-121116285D01*
X149868000Y-121080571D01*
X149832285Y-121044857D01*
X150475142Y-120366285D02*
X150725142Y-121116285D01*
X150975142Y-120366285D01*
X149439428Y-117699285D02*
X149903714Y-117699285D01*
X149653714Y-117985000D01*
X149760857Y-117985000D01*
X149832285Y-118020714D01*
X149868000Y-118056428D01*
X149903714Y-118127857D01*
X149903714Y-118306428D01*
X149868000Y-118377857D01*
X149832285Y-118413571D01*
X149760857Y-118449285D01*
X149546571Y-118449285D01*
X149475142Y-118413571D01*
X149439428Y-118377857D01*
X150118000Y-117699285D02*
X150368000Y-118449285D01*
X150618000Y-117699285D01*
X150796571Y-117699285D02*
X151260857Y-117699285D01*
X151010857Y-117985000D01*
X151118000Y-117985000D01*
X151189428Y-118020714D01*
X151225142Y-118056428D01*
X151260857Y-118127857D01*
X151260857Y-118306428D01*
X151225142Y-118377857D01*
X151189428Y-118413571D01*
X151118000Y-118449285D01*
X150903714Y-118449285D01*
X150832285Y-118413571D01*
X150796571Y-118377857D01*
X150510857Y-115536285D02*
X150510857Y-116036285D01*
X150332285Y-115250571D02*
X150153714Y-115786285D01*
X150618000Y-115786285D01*
X149868000Y-113750285D02*
X149618000Y-113393142D01*
X149439428Y-113750285D02*
X149439428Y-113000285D01*
X149725142Y-113000285D01*
X149796571Y-113036000D01*
X149832285Y-113071714D01*
X149868000Y-113143142D01*
X149868000Y-113250285D01*
X149832285Y-113321714D01*
X149796571Y-113357428D01*
X149725142Y-113393142D01*
X149439428Y-113393142D01*
X150118000Y-113000285D02*
X150618000Y-113750285D01*
X150618000Y-113000285D02*
X150118000Y-113750285D01*
X150903714Y-113750285D02*
X150903714Y-113000285D01*
X151082285Y-113000285D01*
X151189428Y-113036000D01*
X151260857Y-113107428D01*
X151296571Y-113178857D01*
X151332285Y-113321714D01*
X151332285Y-113428857D01*
X151296571Y-113571714D01*
X151260857Y-113643142D01*
X151189428Y-113714571D01*
X151082285Y-113750285D01*
X150903714Y-113750285D01*
X149421571Y-110269785D02*
X149850142Y-110269785D01*
X149635857Y-111019785D02*
X149635857Y-110269785D01*
X150028714Y-110269785D02*
X150528714Y-111019785D01*
X150528714Y-110269785D02*
X150028714Y-111019785D01*
X150814428Y-111019785D02*
X150814428Y-110269785D01*
X150993000Y-110269785D01*
X151100142Y-110305500D01*
X151171571Y-110376928D01*
X151207285Y-110448357D01*
X151243000Y-110591214D01*
X151243000Y-110698357D01*
X151207285Y-110841214D01*
X151171571Y-110912642D01*
X151100142Y-110984071D01*
X150993000Y-111019785D01*
X150814428Y-111019785D01*
X150927571Y-107729785D02*
X150570428Y-107729785D01*
X150534714Y-108086928D01*
X150570428Y-108051214D01*
X150641857Y-108015500D01*
X150820428Y-108015500D01*
X150891857Y-108051214D01*
X150927571Y-108086928D01*
X150963285Y-108158357D01*
X150963285Y-108336928D01*
X150927571Y-108408357D01*
X150891857Y-108444071D01*
X150820428Y-108479785D01*
X150641857Y-108479785D01*
X150570428Y-108444071D01*
X150534714Y-108408357D01*
X149893785Y-105812785D02*
X149643785Y-105455642D01*
X149465214Y-105812785D02*
X149465214Y-105062785D01*
X149750928Y-105062785D01*
X149822357Y-105098500D01*
X149858071Y-105134214D01*
X149893785Y-105205642D01*
X149893785Y-105312785D01*
X149858071Y-105384214D01*
X149822357Y-105419928D01*
X149750928Y-105455642D01*
X149465214Y-105455642D01*
X150179500Y-105777071D02*
X150286642Y-105812785D01*
X150465214Y-105812785D01*
X150536642Y-105777071D01*
X150572357Y-105741357D01*
X150608071Y-105669928D01*
X150608071Y-105598500D01*
X150572357Y-105527071D01*
X150536642Y-105491357D01*
X150465214Y-105455642D01*
X150322357Y-105419928D01*
X150250928Y-105384214D01*
X150215214Y-105348500D01*
X150179500Y-105277071D01*
X150179500Y-105205642D01*
X150215214Y-105134214D01*
X150250928Y-105098500D01*
X150322357Y-105062785D01*
X150500928Y-105062785D01*
X150608071Y-105098500D01*
X150822357Y-105062785D02*
X151250928Y-105062785D01*
X151036642Y-105812785D02*
X151036642Y-105062785D01*
X149312428Y-103058500D02*
X149669571Y-103058500D01*
X149241000Y-103272785D02*
X149491000Y-102522785D01*
X149741000Y-103272785D01*
X149991000Y-103272785D02*
X149991000Y-102522785D01*
X150169571Y-102522785D01*
X150276714Y-102558500D01*
X150348142Y-102629928D01*
X150383857Y-102701357D01*
X150419571Y-102844214D01*
X150419571Y-102951357D01*
X150383857Y-103094214D01*
X150348142Y-103165642D01*
X150276714Y-103237071D01*
X150169571Y-103272785D01*
X149991000Y-103272785D01*
X151169571Y-103201357D02*
X151133857Y-103237071D01*
X151026714Y-103272785D01*
X150955285Y-103272785D01*
X150848142Y-103237071D01*
X150776714Y-103165642D01*
X150741000Y-103094214D01*
X150705285Y-102951357D01*
X150705285Y-102844214D01*
X150741000Y-102701357D01*
X150776714Y-102629928D01*
X150848142Y-102558500D01*
X150955285Y-102522785D01*
X151026714Y-102522785D01*
X151133857Y-102558500D01*
X151169571Y-102594214D01*
X150098142Y-100859785D02*
X149669571Y-100859785D01*
X149883857Y-100859785D02*
X149883857Y-100109785D01*
X149812428Y-100216928D01*
X149741000Y-100288357D01*
X149669571Y-100324071D01*
X150741000Y-100109785D02*
X150598142Y-100109785D01*
X150526714Y-100145500D01*
X150491000Y-100181214D01*
X150419571Y-100288357D01*
X150383857Y-100431214D01*
X150383857Y-100716928D01*
X150419571Y-100788357D01*
X150455285Y-100824071D01*
X150526714Y-100859785D01*
X150669571Y-100859785D01*
X150741000Y-100824071D01*
X150776714Y-100788357D01*
X150812428Y-100716928D01*
X150812428Y-100538357D01*
X150776714Y-100466928D01*
X150741000Y-100431214D01*
X150669571Y-100395500D01*
X150526714Y-100395500D01*
X150455285Y-100431214D01*
X150419571Y-100466928D01*
X150383857Y-100538357D01*
X116990928Y-99030285D02*
X117455214Y-99030285D01*
X117205214Y-99316000D01*
X117312357Y-99316000D01*
X117383785Y-99351714D01*
X117419500Y-99387428D01*
X117455214Y-99458857D01*
X117455214Y-99637428D01*
X117419500Y-99708857D01*
X117383785Y-99744571D01*
X117312357Y-99780285D01*
X117098071Y-99780285D01*
X117026642Y-99744571D01*
X116990928Y-99708857D01*
X117669500Y-99030285D02*
X117919500Y-99780285D01*
X118169500Y-99030285D01*
X118348071Y-99030285D02*
X118812357Y-99030285D01*
X118562357Y-99316000D01*
X118669500Y-99316000D01*
X118740928Y-99351714D01*
X118776642Y-99387428D01*
X118812357Y-99458857D01*
X118812357Y-99637428D01*
X118776642Y-99708857D01*
X118740928Y-99744571D01*
X118669500Y-99780285D01*
X118455214Y-99780285D01*
X118383785Y-99744571D01*
X118348071Y-99708857D01*
X117111928Y-102054428D02*
X117361928Y-102054428D01*
X117469071Y-102447285D02*
X117111928Y-102447285D01*
X117111928Y-101697285D01*
X117469071Y-101697285D01*
X117790500Y-102447285D02*
X117790500Y-101697285D01*
X118219071Y-102447285D01*
X118219071Y-101697285D01*
X117459142Y-104923785D02*
X117030571Y-104923785D01*
X117244857Y-104923785D02*
X117244857Y-104173785D01*
X117173428Y-104280928D01*
X117102000Y-104352357D01*
X117030571Y-104388071D01*
X118102000Y-104423785D02*
X118102000Y-104923785D01*
X117923428Y-104138071D02*
X117744857Y-104673785D01*
X118209142Y-104673785D01*
X117395642Y-107336785D02*
X116967071Y-107336785D01*
X117181357Y-107336785D02*
X117181357Y-106586785D01*
X117109928Y-106693928D01*
X117038500Y-106765357D01*
X116967071Y-106801071D01*
X117681357Y-106658214D02*
X117717071Y-106622500D01*
X117788500Y-106586785D01*
X117967071Y-106586785D01*
X118038500Y-106622500D01*
X118074214Y-106658214D01*
X118109928Y-106729642D01*
X118109928Y-106801071D01*
X118074214Y-106908214D01*
X117645642Y-107336785D01*
X118109928Y-107336785D01*
X117332142Y-109940285D02*
X116903571Y-109940285D01*
X117117857Y-109940285D02*
X117117857Y-109190285D01*
X117046428Y-109297428D01*
X116975000Y-109368857D01*
X116903571Y-109404571D01*
X117582142Y-109190285D02*
X118046428Y-109190285D01*
X117796428Y-109476000D01*
X117903571Y-109476000D01*
X117975000Y-109511714D01*
X118010714Y-109547428D01*
X118046428Y-109618857D01*
X118046428Y-109797428D01*
X118010714Y-109868857D01*
X117975000Y-109904571D01*
X117903571Y-109940285D01*
X117689285Y-109940285D01*
X117617857Y-109904571D01*
X117582142Y-109868857D01*
X117395642Y-112480285D02*
X116967071Y-112480285D01*
X117181357Y-112480285D02*
X117181357Y-111730285D01*
X117109928Y-111837428D01*
X117038500Y-111908857D01*
X116967071Y-111944571D01*
X118074214Y-111730285D02*
X117717071Y-111730285D01*
X117681357Y-112087428D01*
X117717071Y-112051714D01*
X117788500Y-112016000D01*
X117967071Y-112016000D01*
X118038500Y-112051714D01*
X118074214Y-112087428D01*
X118109928Y-112158857D01*
X118109928Y-112337428D01*
X118074214Y-112408857D01*
X118038500Y-112444571D01*
X117967071Y-112480285D01*
X117788500Y-112480285D01*
X117717071Y-112444571D01*
X117681357Y-112408857D01*
X117197214Y-114151214D02*
X117232928Y-114115500D01*
X117304357Y-114079785D01*
X117482928Y-114079785D01*
X117554357Y-114115500D01*
X117590071Y-114151214D01*
X117625785Y-114222642D01*
X117625785Y-114294071D01*
X117590071Y-114401214D01*
X117161500Y-114829785D01*
X117625785Y-114829785D01*
X117566285Y-116619785D02*
X117637714Y-116619785D01*
X117709142Y-116655500D01*
X117744857Y-116691214D01*
X117780571Y-116762642D01*
X117816285Y-116905500D01*
X117816285Y-117084071D01*
X117780571Y-117226928D01*
X117744857Y-117298357D01*
X117709142Y-117334071D01*
X117637714Y-117369785D01*
X117566285Y-117369785D01*
X117494857Y-117334071D01*
X117459142Y-117298357D01*
X117423428Y-117226928D01*
X117387714Y-117084071D01*
X117387714Y-116905500D01*
X117423428Y-116762642D01*
X117459142Y-116691214D01*
X117494857Y-116655500D01*
X117566285Y-116619785D01*
X117723000Y-119253071D02*
X117758714Y-119181642D01*
X117758714Y-119074500D01*
X117723000Y-118967357D01*
X117651571Y-118895928D01*
X117580142Y-118860214D01*
X117437285Y-118824500D01*
X117330142Y-118824500D01*
X117187285Y-118860214D01*
X117115857Y-118895928D01*
X117044428Y-118967357D01*
X117008714Y-119074500D01*
X117008714Y-119145928D01*
X117044428Y-119253071D01*
X117080142Y-119288785D01*
X117330142Y-119288785D01*
X117330142Y-119145928D01*
X117008714Y-119610214D02*
X117758714Y-119610214D01*
X117008714Y-120038785D01*
X117758714Y-120038785D01*
X117008714Y-120395928D02*
X117758714Y-120395928D01*
X117758714Y-120574500D01*
X117723000Y-120681642D01*
X117651571Y-120753071D01*
X117580142Y-120788785D01*
X117437285Y-120824500D01*
X117330142Y-120824500D01*
X117187285Y-120788785D01*
X117115857Y-120753071D01*
X117044428Y-120681642D01*
X117008714Y-120574500D01*
X117008714Y-120395928D01*
D12*
X134188000Y-117451500D02*
X133188000Y-117451500D01*
X133188000Y-116101500D02*
X134188000Y-116101500D01*
X122518160Y-65532000D02*
X122469900Y-65532000D01*
X119719180Y-66233040D02*
X119719180Y-65532000D01*
X119719180Y-65532000D02*
X119968100Y-65532000D01*
X122518160Y-65532000D02*
X122718820Y-65532000D01*
X122718820Y-65532000D02*
X122718820Y-66233040D01*
X120304000Y-119361000D02*
X120304000Y-118661000D01*
X121504000Y-118661000D02*
X121504000Y-119361000D01*
X133188000Y-118324000D02*
X134188000Y-118324000D01*
X134188000Y-119674000D02*
X133188000Y-119674000D01*
X114020000Y-125462000D02*
X114020000Y-129062000D01*
X114020000Y-129062000D02*
X119620000Y-129062000D01*
X119620000Y-129062000D02*
X119620000Y-125462000D01*
X119620000Y-125462000D02*
X114020000Y-125462000D01*
X115570000Y-124962000D02*
X115270000Y-124362000D01*
X115270000Y-124362000D02*
X115870000Y-124362000D01*
X115870000Y-124362000D02*
X115570000Y-124962000D01*
X114020000Y-127762000D02*
X114520000Y-127762000D01*
X114520000Y-127762000D02*
X114520000Y-128562000D01*
X114520000Y-128562000D02*
X119120000Y-128562000D01*
X119120000Y-128562000D02*
X119120000Y-127762000D01*
X119120000Y-127762000D02*
X119620000Y-127762000D01*
X114020000Y-127012000D02*
X114520000Y-127012000D01*
X114520000Y-127012000D02*
X114520000Y-126212000D01*
X114520000Y-126212000D02*
X115020000Y-126212000D01*
X115020000Y-126212000D02*
X115020000Y-125462000D01*
X119620000Y-127012000D02*
X119120000Y-127012000D01*
X119120000Y-127012000D02*
X119120000Y-126212000D01*
X119120000Y-126212000D02*
X118620000Y-126212000D01*
X118620000Y-126212000D02*
X118620000Y-125462000D01*
X115020000Y-126212000D02*
X115820000Y-126212000D01*
X115820000Y-126212000D02*
X115820000Y-125712000D01*
X115820000Y-125712000D02*
X116570000Y-125712000D01*
X116570000Y-125712000D02*
X116570000Y-126212000D01*
X116570000Y-126212000D02*
X117070000Y-126212000D01*
X117070000Y-126212000D02*
X117070000Y-125712000D01*
X117070000Y-125712000D02*
X117820000Y-125712000D01*
X117820000Y-125712000D02*
X117820000Y-126212000D01*
X117820000Y-126212000D02*
X118620000Y-126212000D01*
X120747000Y-122313000D02*
G75*
G03X120747000Y-122313000I-100000J0D01*
G01*
X121197000Y-122563000D02*
X120697000Y-122563000D01*
X121197000Y-125463000D02*
X121197000Y-122563000D01*
X120697000Y-125463000D02*
X121197000Y-125463000D01*
X120697000Y-122563000D02*
X120697000Y-125463000D01*
X121701000Y-69890000D02*
X120701000Y-69890000D01*
X120701000Y-68540000D02*
X121701000Y-68540000D01*
X136814000Y-63215000D02*
X136814000Y-62515000D01*
X138014000Y-62515000D02*
X138014000Y-63215000D01*
X138973000Y-63276000D02*
X138973000Y-62576000D01*
X140173000Y-62576000D02*
X140173000Y-63276000D01*
X126833000Y-71704000D02*
X126833000Y-70704000D01*
X128183000Y-70704000D02*
X128183000Y-71704000D01*
X133222800Y-66537200D02*
X132222800Y-66537200D01*
X132222800Y-65187200D02*
X133222800Y-65187200D01*
X132222800Y-67117600D02*
X133222800Y-67117600D01*
X133222800Y-68467600D02*
X132222800Y-68467600D01*
X142661000Y-62576000D02*
X142661000Y-63576000D01*
X141311000Y-63576000D02*
X141311000Y-62576000D01*
X135088000Y-71637600D02*
X135088000Y-70637600D01*
X136438000Y-70637600D02*
X136438000Y-71637600D01*
X130911800Y-71547000D02*
G75*
G03X130911800Y-71547000I-100000J0D01*
G01*
X131061800Y-70997000D02*
X131061800Y-71497000D01*
X133961800Y-70997000D02*
X131061800Y-70997000D01*
X133961800Y-71497000D02*
X133961800Y-70997000D01*
X131061800Y-71497000D02*
X133961800Y-71497000D01*
X117813000Y-81365000D02*
X115913000Y-81365000D01*
X117813000Y-82465000D02*
X115913000Y-82465000D01*
X116913000Y-81915000D02*
X116463000Y-81915000D01*
X116963000Y-82165000D02*
X116963000Y-81665000D01*
X116963000Y-81915000D02*
X116713000Y-82165000D01*
X116713000Y-82165000D02*
X116713000Y-81665000D01*
X116713000Y-81665000D02*
X116963000Y-81915000D01*
X124333000Y-77057160D02*
X124333000Y-77008900D01*
X123631960Y-74258180D02*
X124333000Y-74258180D01*
X124333000Y-74258180D02*
X124333000Y-74507100D01*
X124333000Y-77057160D02*
X124333000Y-77257820D01*
X124333000Y-77257820D02*
X123631960Y-77257820D01*
X125389000Y-79340000D02*
X125389000Y-80340000D01*
X124039000Y-80340000D02*
X124039000Y-79340000D01*
X126654000Y-124695000D02*
X126654000Y-123995000D01*
X127854000Y-123995000D02*
X127854000Y-124695000D01*
X124293000Y-124536000D02*
X124293000Y-123536000D01*
X125643000Y-123536000D02*
X125643000Y-124536000D01*
X118653000Y-119361000D02*
X118653000Y-118661000D01*
X119853000Y-118661000D02*
X119853000Y-119361000D01*
X119669000Y-78189000D02*
X119669000Y-77489000D01*
X120869000Y-77489000D02*
X120869000Y-78189000D01*
X116129000Y-79589000D02*
X117129000Y-79589000D01*
X117129000Y-80939000D02*
X116129000Y-80939000D01*
X120690000Y-85563000D02*
X120690000Y-86563000D01*
X119340000Y-86563000D02*
X119340000Y-85563000D01*
X119721000Y-74228400D02*
X119721000Y-73228400D01*
X121071000Y-73228400D02*
X121071000Y-74228400D01*
X117348000Y-74004160D02*
X117348000Y-73955900D01*
X116646960Y-71205180D02*
X117348000Y-71205180D01*
X117348000Y-71205180D02*
X117348000Y-71454100D01*
X117348000Y-74004160D02*
X117348000Y-74204820D01*
X117348000Y-74204820D02*
X116646960Y-74204820D01*
X124841000Y-99634000D02*
X142841000Y-99634000D01*
X124841000Y-114234000D02*
X124841000Y-94234000D01*
X124841000Y-94234000D02*
X142841000Y-94234000D01*
X142841000Y-94334000D02*
X142841000Y-114334000D01*
X142841000Y-114234000D02*
X124841000Y-114234000D01*
X114046000Y-121031000D02*
X114046000Y-98171000D01*
X114046000Y-98171000D02*
X116586000Y-98171000D01*
X116586000Y-98171000D02*
X116586000Y-121031000D01*
X113766000Y-123851000D02*
X113766000Y-122301000D01*
X114046000Y-121031000D02*
X116586000Y-121031000D01*
X116866000Y-122301000D02*
X116866000Y-123851000D01*
X116866000Y-123851000D02*
X113766000Y-123851000D01*
X154178000Y-101727000D02*
X154178000Y-124587000D01*
X154178000Y-124587000D02*
X151638000Y-124587000D01*
X151638000Y-124587000D02*
X151638000Y-101727000D01*
X154458000Y-98907000D02*
X154458000Y-100457000D01*
X154178000Y-101727000D02*
X151638000Y-101727000D01*
X151358000Y-100457000D02*
X151358000Y-98907000D01*
X151358000Y-98907000D02*
X154458000Y-98907000D01*
X153503000Y-69037000D02*
X153503000Y-68037000D01*
X154853000Y-68037000D02*
X154853000Y-69037000D01*
X126024000Y-70790000D02*
X126024000Y-71790000D01*
X124674000Y-71790000D02*
X124674000Y-70790000D01*
X138202000Y-85572000D02*
X138202000Y-88672000D01*
X136652000Y-85572000D02*
X138202000Y-85572000D01*
X135382000Y-88392000D02*
X135382000Y-85852000D01*
X138202000Y-88672000D02*
X136652000Y-88672000D01*
X130302000Y-88392000D02*
X135382000Y-88392000D01*
X130302000Y-85852000D02*
X130302000Y-88392000D01*
X135382000Y-85852000D02*
X130302000Y-85852000D01*
X115277000Y-68766000D02*
X115177000Y-68766000D01*
X113677000Y-64366000D02*
X113677000Y-68766000D01*
X116777000Y-68766000D02*
X116777000Y-64366000D01*
X116027000Y-66566000D02*
G75*
G03X116027000Y-66566000I-800000J0D01*
G01*
X115277000Y-64366000D02*
X115177000Y-64366000D01*
X139599000Y-53441000D02*
X139599000Y-56541000D01*
X138049000Y-53441000D02*
X139599000Y-53441000D01*
X136779000Y-56261000D02*
X136779000Y-53721000D01*
X129159000Y-53721000D02*
X129159000Y-56261000D01*
X139599000Y-56541000D02*
X138049000Y-56541000D01*
X136779000Y-56261000D02*
X129159000Y-56261000D01*
X136779000Y-53721000D02*
X129159000Y-53721000D01*
X134580333Y-115704880D02*
X134247000Y-115228690D01*
X134008904Y-115704880D02*
X134008904Y-114704880D01*
X134389857Y-114704880D01*
X134485095Y-114752500D01*
X134532714Y-114800119D01*
X134580333Y-114895357D01*
X134580333Y-115038214D01*
X134532714Y-115133452D01*
X134485095Y-115181071D01*
X134389857Y-115228690D01*
X134008904Y-115228690D01*
X135532714Y-115704880D02*
X134961285Y-115704880D01*
X135247000Y-115704880D02*
X135247000Y-114704880D01*
X135151761Y-114847738D01*
X135056523Y-114942976D01*
X134961285Y-114990595D01*
X122784961Y-65038219D02*
X122689723Y-64990600D01*
X122594485Y-64895361D01*
X122451628Y-64752504D01*
X122356390Y-64704885D01*
X122261152Y-64704885D01*
X122308771Y-64942980D02*
X122213533Y-64895361D01*
X122118295Y-64800123D01*
X122070676Y-64609647D01*
X122070676Y-64276314D01*
X122118295Y-64085838D01*
X122213533Y-63990600D01*
X122308771Y-63942980D01*
X122499247Y-63942980D01*
X122594485Y-63990600D01*
X122689723Y-64085838D01*
X122737342Y-64276314D01*
X122737342Y-64609647D01*
X122689723Y-64800123D01*
X122594485Y-64895361D01*
X122499247Y-64942980D01*
X122308771Y-64942980D01*
X123594485Y-64276314D02*
X123594485Y-64942980D01*
X123356390Y-63895361D02*
X123118295Y-64609647D01*
X123737342Y-64609647D01*
X121880333Y-117197142D02*
X121832714Y-117244761D01*
X121689857Y-117292380D01*
X121594619Y-117292380D01*
X121451761Y-117244761D01*
X121356523Y-117149523D01*
X121308904Y-117054285D01*
X121261285Y-116863809D01*
X121261285Y-116720952D01*
X121308904Y-116530476D01*
X121356523Y-116435238D01*
X121451761Y-116340000D01*
X121594619Y-116292380D01*
X121689857Y-116292380D01*
X121832714Y-116340000D01*
X121880333Y-116387619D01*
X122785095Y-116292380D02*
X122308904Y-116292380D01*
X122261285Y-116768571D01*
X122308904Y-116720952D01*
X122404142Y-116673333D01*
X122642238Y-116673333D01*
X122737476Y-116720952D01*
X122785095Y-116768571D01*
X122832714Y-116863809D01*
X122832714Y-117101904D01*
X122785095Y-117197142D01*
X122737476Y-117244761D01*
X122642238Y-117292380D01*
X122404142Y-117292380D01*
X122308904Y-117244761D01*
X122261285Y-117197142D01*
X134834333Y-121102380D02*
X134501000Y-120626190D01*
X134262904Y-121102380D02*
X134262904Y-120102380D01*
X134643857Y-120102380D01*
X134739095Y-120150000D01*
X134786714Y-120197619D01*
X134834333Y-120292857D01*
X134834333Y-120435714D01*
X134786714Y-120530952D01*
X134739095Y-120578571D01*
X134643857Y-120626190D01*
X134262904Y-120626190D01*
X135691476Y-120435714D02*
X135691476Y-121102380D01*
X135453380Y-120054761D02*
X135215285Y-120769047D01*
X135834333Y-120769047D01*
X120038904Y-127833380D02*
X120038904Y-126833380D01*
X120419857Y-126833380D01*
X120515095Y-126881000D01*
X120562714Y-126928619D01*
X120610333Y-127023857D01*
X120610333Y-127166714D01*
X120562714Y-127261952D01*
X120515095Y-127309571D01*
X120419857Y-127357190D01*
X120038904Y-127357190D01*
X121467476Y-126833380D02*
X121277000Y-126833380D01*
X121181761Y-126881000D01*
X121134142Y-126928619D01*
X121038904Y-127071476D01*
X120991285Y-127261952D01*
X120991285Y-127642904D01*
X121038904Y-127738142D01*
X121086523Y-127785761D01*
X121181761Y-127833380D01*
X121372238Y-127833380D01*
X121467476Y-127785761D01*
X121515095Y-127738142D01*
X121562714Y-127642904D01*
X121562714Y-127404809D01*
X121515095Y-127309571D01*
X121467476Y-127261952D01*
X121372238Y-127214333D01*
X121181761Y-127214333D01*
X121086523Y-127261952D01*
X121038904Y-127309571D01*
X120991285Y-127404809D01*
X119919904Y-121245380D02*
X119919904Y-122054904D01*
X119967523Y-122150142D01*
X120015142Y-122197761D01*
X120110380Y-122245380D01*
X120300857Y-122245380D01*
X120396095Y-122197761D01*
X120443714Y-122150142D01*
X120491333Y-122054904D01*
X120491333Y-121245380D01*
X121491333Y-122245380D02*
X120919904Y-122245380D01*
X121205619Y-122245380D02*
X121205619Y-121245380D01*
X121110380Y-121388238D01*
X121015142Y-121483476D01*
X120919904Y-121531095D01*
X122443714Y-122245380D02*
X121872285Y-122245380D01*
X122158000Y-122245380D02*
X122158000Y-121245380D01*
X122062761Y-121388238D01*
X121967523Y-121483476D01*
X121872285Y-121531095D01*
X121150142Y-71191380D02*
X120816809Y-70715190D01*
X120578714Y-71191380D02*
X120578714Y-70191380D01*
X120959666Y-70191380D01*
X121054904Y-70239000D01*
X121102523Y-70286619D01*
X121150142Y-70381857D01*
X121150142Y-70524714D01*
X121102523Y-70619952D01*
X121054904Y-70667571D01*
X120959666Y-70715190D01*
X120578714Y-70715190D01*
X121531095Y-70286619D02*
X121578714Y-70239000D01*
X121673952Y-70191380D01*
X121912047Y-70191380D01*
X122007285Y-70239000D01*
X122054904Y-70286619D01*
X122102523Y-70381857D01*
X122102523Y-70477095D01*
X122054904Y-70619952D01*
X121483476Y-71191380D01*
X122102523Y-71191380D01*
X122959666Y-70524714D02*
X122959666Y-71191380D01*
X122721571Y-70143761D02*
X122483476Y-70858047D01*
X123102523Y-70858047D01*
X137247333Y-65381142D02*
X137199714Y-65428761D01*
X137056857Y-65476380D01*
X136961619Y-65476380D01*
X136818761Y-65428761D01*
X136723523Y-65333523D01*
X136675904Y-65238285D01*
X136628285Y-65047809D01*
X136628285Y-64904952D01*
X136675904Y-64714476D01*
X136723523Y-64619238D01*
X136818761Y-64524000D01*
X136961619Y-64476380D01*
X137056857Y-64476380D01*
X137199714Y-64524000D01*
X137247333Y-64571619D01*
X138199714Y-65476380D02*
X137628285Y-65476380D01*
X137914000Y-65476380D02*
X137914000Y-64476380D01*
X137818761Y-64619238D01*
X137723523Y-64714476D01*
X137628285Y-64762095D01*
X139565142Y-60809142D02*
X139517523Y-60856761D01*
X139374666Y-60904380D01*
X139279428Y-60904380D01*
X139136571Y-60856761D01*
X139041333Y-60761523D01*
X138993714Y-60666285D01*
X138946095Y-60475809D01*
X138946095Y-60332952D01*
X138993714Y-60142476D01*
X139041333Y-60047238D01*
X139136571Y-59952000D01*
X139279428Y-59904380D01*
X139374666Y-59904380D01*
X139517523Y-59952000D01*
X139565142Y-59999619D01*
X140517523Y-60904380D02*
X139946095Y-60904380D01*
X140231809Y-60904380D02*
X140231809Y-59904380D01*
X140136571Y-60047238D01*
X140041333Y-60142476D01*
X139946095Y-60190095D01*
X141469904Y-60904380D02*
X140898476Y-60904380D01*
X141184190Y-60904380D02*
X141184190Y-59904380D01*
X141088952Y-60047238D01*
X140993714Y-60142476D01*
X140898476Y-60190095D01*
X127341333Y-74239380D02*
X127008000Y-73763190D01*
X126769904Y-74239380D02*
X126769904Y-73239380D01*
X127150857Y-73239380D01*
X127246095Y-73287000D01*
X127293714Y-73334619D01*
X127341333Y-73429857D01*
X127341333Y-73572714D01*
X127293714Y-73667952D01*
X127246095Y-73715571D01*
X127150857Y-73763190D01*
X126769904Y-73763190D01*
X127674666Y-73239380D02*
X128293714Y-73239380D01*
X127960380Y-73620333D01*
X128103238Y-73620333D01*
X128198476Y-73667952D01*
X128246095Y-73715571D01*
X128293714Y-73810809D01*
X128293714Y-74048904D01*
X128246095Y-74144142D01*
X128198476Y-74191761D01*
X128103238Y-74239380D01*
X127817523Y-74239380D01*
X127722285Y-74191761D01*
X127674666Y-74144142D01*
X129754333Y-66238380D02*
X129421000Y-65762190D01*
X129182904Y-66238380D02*
X129182904Y-65238380D01*
X129563857Y-65238380D01*
X129659095Y-65286000D01*
X129706714Y-65333619D01*
X129754333Y-65428857D01*
X129754333Y-65571714D01*
X129706714Y-65666952D01*
X129659095Y-65714571D01*
X129563857Y-65762190D01*
X129182904Y-65762190D01*
X130659095Y-65238380D02*
X130182904Y-65238380D01*
X130135285Y-65714571D01*
X130182904Y-65666952D01*
X130278142Y-65619333D01*
X130516238Y-65619333D01*
X130611476Y-65666952D01*
X130659095Y-65714571D01*
X130706714Y-65809809D01*
X130706714Y-66047904D01*
X130659095Y-66143142D01*
X130611476Y-66190761D01*
X130516238Y-66238380D01*
X130278142Y-66238380D01*
X130182904Y-66190761D01*
X130135285Y-66143142D01*
X131922780Y-69610266D02*
X131446590Y-69943600D01*
X131922780Y-70181695D02*
X130922780Y-70181695D01*
X130922780Y-69800742D01*
X130970400Y-69705504D01*
X131018019Y-69657885D01*
X131113257Y-69610266D01*
X131256114Y-69610266D01*
X131351352Y-69657885D01*
X131398971Y-69705504D01*
X131446590Y-69800742D01*
X131446590Y-70181695D01*
X130922780Y-69276933D02*
X130922780Y-68610266D01*
X131922780Y-69038838D01*
X141692333Y-66111380D02*
X141359000Y-65635190D01*
X141120904Y-66111380D02*
X141120904Y-65111380D01*
X141501857Y-65111380D01*
X141597095Y-65159000D01*
X141644714Y-65206619D01*
X141692333Y-65301857D01*
X141692333Y-65444714D01*
X141644714Y-65539952D01*
X141597095Y-65587571D01*
X141501857Y-65635190D01*
X141120904Y-65635190D01*
X142263761Y-65539952D02*
X142168523Y-65492333D01*
X142120904Y-65444714D01*
X142073285Y-65349476D01*
X142073285Y-65301857D01*
X142120904Y-65206619D01*
X142168523Y-65159000D01*
X142263761Y-65111380D01*
X142454238Y-65111380D01*
X142549476Y-65159000D01*
X142597095Y-65206619D01*
X142644714Y-65301857D01*
X142644714Y-65349476D01*
X142597095Y-65444714D01*
X142549476Y-65492333D01*
X142454238Y-65539952D01*
X142263761Y-65539952D01*
X142168523Y-65587571D01*
X142120904Y-65635190D01*
X142073285Y-65730428D01*
X142073285Y-65920904D01*
X142120904Y-66016142D01*
X142168523Y-66063761D01*
X142263761Y-66111380D01*
X142454238Y-66111380D01*
X142549476Y-66063761D01*
X142597095Y-66016142D01*
X142644714Y-65920904D01*
X142644714Y-65730428D01*
X142597095Y-65635190D01*
X142549476Y-65587571D01*
X142454238Y-65539952D01*
X134916942Y-68905380D02*
X134583609Y-68429190D01*
X134345514Y-68905380D02*
X134345514Y-67905380D01*
X134726466Y-67905380D01*
X134821704Y-67953000D01*
X134869323Y-68000619D01*
X134916942Y-68095857D01*
X134916942Y-68238714D01*
X134869323Y-68333952D01*
X134821704Y-68381571D01*
X134726466Y-68429190D01*
X134345514Y-68429190D01*
X135869323Y-68905380D02*
X135297895Y-68905380D01*
X135583609Y-68905380D02*
X135583609Y-67905380D01*
X135488371Y-68048238D01*
X135393133Y-68143476D01*
X135297895Y-68191095D01*
X136821704Y-68905380D02*
X136250276Y-68905380D01*
X136535990Y-68905380D02*
X136535990Y-67905380D01*
X136440752Y-68048238D01*
X136345514Y-68143476D01*
X136250276Y-68191095D01*
X132527095Y-73374180D02*
X132527095Y-74183704D01*
X132574714Y-74278942D01*
X132622333Y-74326561D01*
X132717571Y-74374180D01*
X132908047Y-74374180D01*
X133003285Y-74326561D01*
X133050904Y-74278942D01*
X133098523Y-74183704D01*
X133098523Y-73374180D01*
X133527095Y-73469419D02*
X133574714Y-73421800D01*
X133669952Y-73374180D01*
X133908047Y-73374180D01*
X134003285Y-73421800D01*
X134050904Y-73469419D01*
X134098523Y-73564657D01*
X134098523Y-73659895D01*
X134050904Y-73802752D01*
X133479476Y-74374180D01*
X134098523Y-74374180D01*
X115974904Y-83867380D02*
X115974904Y-82867380D01*
X116213000Y-82867380D01*
X116355857Y-82915000D01*
X116451095Y-83010238D01*
X116498714Y-83105476D01*
X116546333Y-83295952D01*
X116546333Y-83438809D01*
X116498714Y-83629285D01*
X116451095Y-83724523D01*
X116355857Y-83819761D01*
X116213000Y-83867380D01*
X115974904Y-83867380D01*
X116927285Y-82962619D02*
X116974904Y-82915000D01*
X117070142Y-82867380D01*
X117308238Y-82867380D01*
X117403476Y-82915000D01*
X117451095Y-82962619D01*
X117498714Y-83057857D01*
X117498714Y-83153095D01*
X117451095Y-83295952D01*
X116879666Y-83867380D01*
X117498714Y-83867380D01*
X125126761Y-74842619D02*
X125031523Y-74795000D01*
X124936285Y-74699761D01*
X124793428Y-74556904D01*
X124698190Y-74509285D01*
X124602952Y-74509285D01*
X124650571Y-74747380D02*
X124555333Y-74699761D01*
X124460095Y-74604523D01*
X124412476Y-74414047D01*
X124412476Y-74080714D01*
X124460095Y-73890238D01*
X124555333Y-73795000D01*
X124650571Y-73747380D01*
X124841047Y-73747380D01*
X124936285Y-73795000D01*
X125031523Y-73890238D01*
X125079142Y-74080714D01*
X125079142Y-74414047D01*
X125031523Y-74604523D01*
X124936285Y-74699761D01*
X124841047Y-74747380D01*
X124650571Y-74747380D01*
X126031523Y-74747380D02*
X125460095Y-74747380D01*
X125745809Y-74747380D02*
X125745809Y-73747380D01*
X125650571Y-73890238D01*
X125555333Y-73985476D01*
X125460095Y-74033095D01*
X126103142Y-79192380D02*
X125769809Y-78716190D01*
X125531714Y-79192380D02*
X125531714Y-78192380D01*
X125912666Y-78192380D01*
X126007904Y-78240000D01*
X126055523Y-78287619D01*
X126103142Y-78382857D01*
X126103142Y-78525714D01*
X126055523Y-78620952D01*
X126007904Y-78668571D01*
X125912666Y-78716190D01*
X125531714Y-78716190D01*
X127055523Y-79192380D02*
X126484095Y-79192380D01*
X126769809Y-79192380D02*
X126769809Y-78192380D01*
X126674571Y-78335238D01*
X126579333Y-78430476D01*
X126484095Y-78478095D01*
X127674571Y-78192380D02*
X127769809Y-78192380D01*
X127865047Y-78240000D01*
X127912666Y-78287619D01*
X127960285Y-78382857D01*
X128007904Y-78573333D01*
X128007904Y-78811428D01*
X127960285Y-79001904D01*
X127912666Y-79097142D01*
X127865047Y-79144761D01*
X127769809Y-79192380D01*
X127674571Y-79192380D01*
X127579333Y-79144761D01*
X127531714Y-79097142D01*
X127484095Y-79001904D01*
X127436476Y-78811428D01*
X127436476Y-78573333D01*
X127484095Y-78382857D01*
X127531714Y-78287619D01*
X127579333Y-78240000D01*
X127674571Y-78192380D01*
X127112733Y-122326542D02*
X127065114Y-122374161D01*
X126922257Y-122421780D01*
X126827019Y-122421780D01*
X126684161Y-122374161D01*
X126588923Y-122278923D01*
X126541304Y-122183685D01*
X126493685Y-121993209D01*
X126493685Y-121850352D01*
X126541304Y-121659876D01*
X126588923Y-121564638D01*
X126684161Y-121469400D01*
X126827019Y-121421780D01*
X126922257Y-121421780D01*
X127065114Y-121469400D01*
X127112733Y-121517019D01*
X127969876Y-121755114D02*
X127969876Y-122421780D01*
X127731780Y-121374161D02*
X127493685Y-122088447D01*
X128112733Y-122088447D01*
X123664742Y-121610380D02*
X123331409Y-121134190D01*
X123093314Y-121610380D02*
X123093314Y-120610380D01*
X123474266Y-120610380D01*
X123569504Y-120658000D01*
X123617123Y-120705619D01*
X123664742Y-120800857D01*
X123664742Y-120943714D01*
X123617123Y-121038952D01*
X123569504Y-121086571D01*
X123474266Y-121134190D01*
X123093314Y-121134190D01*
X124617123Y-121610380D02*
X124045695Y-121610380D01*
X124331409Y-121610380D02*
X124331409Y-120610380D01*
X124236171Y-120753238D01*
X124140933Y-120848476D01*
X124045695Y-120896095D01*
X124998076Y-120705619D02*
X125045695Y-120658000D01*
X125140933Y-120610380D01*
X125379028Y-120610380D01*
X125474266Y-120658000D01*
X125521885Y-120705619D01*
X125569504Y-120800857D01*
X125569504Y-120896095D01*
X125521885Y-121038952D01*
X124950457Y-121610380D01*
X125569504Y-121610380D01*
X119403833Y-117197142D02*
X119356214Y-117244761D01*
X119213357Y-117292380D01*
X119118119Y-117292380D01*
X118975261Y-117244761D01*
X118880023Y-117149523D01*
X118832404Y-117054285D01*
X118784785Y-116863809D01*
X118784785Y-116720952D01*
X118832404Y-116530476D01*
X118880023Y-116435238D01*
X118975261Y-116340000D01*
X119118119Y-116292380D01*
X119213357Y-116292380D01*
X119356214Y-116340000D01*
X119403833Y-116387619D01*
X120260976Y-116292380D02*
X120070500Y-116292380D01*
X119975261Y-116340000D01*
X119927642Y-116387619D01*
X119832404Y-116530476D01*
X119784785Y-116720952D01*
X119784785Y-117101904D01*
X119832404Y-117197142D01*
X119880023Y-117244761D01*
X119975261Y-117292380D01*
X120165738Y-117292380D01*
X120260976Y-117244761D01*
X120308595Y-117197142D01*
X120356214Y-117101904D01*
X120356214Y-116863809D01*
X120308595Y-116768571D01*
X120260976Y-116720952D01*
X120165738Y-116673333D01*
X119975261Y-116673333D01*
X119880023Y-116720952D01*
X119832404Y-116768571D01*
X119784785Y-116863809D01*
X118578333Y-77446142D02*
X118530714Y-77493761D01*
X118387857Y-77541380D01*
X118292619Y-77541380D01*
X118149761Y-77493761D01*
X118054523Y-77398523D01*
X118006904Y-77303285D01*
X117959285Y-77112809D01*
X117959285Y-76969952D01*
X118006904Y-76779476D01*
X118054523Y-76684238D01*
X118149761Y-76589000D01*
X118292619Y-76541380D01*
X118387857Y-76541380D01*
X118530714Y-76589000D01*
X118578333Y-76636619D01*
X118959285Y-76636619D02*
X119006904Y-76589000D01*
X119102142Y-76541380D01*
X119340238Y-76541380D01*
X119435476Y-76589000D01*
X119483095Y-76636619D01*
X119530714Y-76731857D01*
X119530714Y-76827095D01*
X119483095Y-76969952D01*
X118911666Y-77541380D01*
X119530714Y-77541380D01*
X116673333Y-78938380D02*
X116340000Y-78462190D01*
X116101904Y-78938380D02*
X116101904Y-77938380D01*
X116482857Y-77938380D01*
X116578095Y-77986000D01*
X116625714Y-78033619D01*
X116673333Y-78128857D01*
X116673333Y-78271714D01*
X116625714Y-78366952D01*
X116578095Y-78414571D01*
X116482857Y-78462190D01*
X116101904Y-78462190D01*
X117149523Y-78938380D02*
X117340000Y-78938380D01*
X117435238Y-78890761D01*
X117482857Y-78843142D01*
X117578095Y-78700285D01*
X117625714Y-78509809D01*
X117625714Y-78128857D01*
X117578095Y-78033619D01*
X117530476Y-77986000D01*
X117435238Y-77938380D01*
X117244761Y-77938380D01*
X117149523Y-77986000D01*
X117101904Y-78033619D01*
X117054285Y-78128857D01*
X117054285Y-78366952D01*
X117101904Y-78462190D01*
X117149523Y-78509809D01*
X117244761Y-78557428D01*
X117435238Y-78557428D01*
X117530476Y-78509809D01*
X117578095Y-78462190D01*
X117625714Y-78366952D01*
X119372142Y-83891380D02*
X119038809Y-83415190D01*
X118800714Y-83891380D02*
X118800714Y-82891380D01*
X119181666Y-82891380D01*
X119276904Y-82939000D01*
X119324523Y-82986619D01*
X119372142Y-83081857D01*
X119372142Y-83224714D01*
X119324523Y-83319952D01*
X119276904Y-83367571D01*
X119181666Y-83415190D01*
X118800714Y-83415190D01*
X120324523Y-83891380D02*
X119753095Y-83891380D01*
X120038809Y-83891380D02*
X120038809Y-82891380D01*
X119943571Y-83034238D01*
X119848333Y-83129476D01*
X119753095Y-83177095D01*
X120657857Y-82891380D02*
X121276904Y-82891380D01*
X120943571Y-83272333D01*
X121086428Y-83272333D01*
X121181666Y-83319952D01*
X121229285Y-83367571D01*
X121276904Y-83462809D01*
X121276904Y-83700904D01*
X121229285Y-83796142D01*
X121181666Y-83843761D01*
X121086428Y-83891380D01*
X120800714Y-83891380D01*
X120705476Y-83843761D01*
X120657857Y-83796142D01*
X121880333Y-73096380D02*
X121547000Y-72620190D01*
X121308904Y-73096380D02*
X121308904Y-72096380D01*
X121689857Y-72096380D01*
X121785095Y-72144000D01*
X121832714Y-72191619D01*
X121880333Y-72286857D01*
X121880333Y-72429714D01*
X121832714Y-72524952D01*
X121785095Y-72572571D01*
X121689857Y-72620190D01*
X121308904Y-72620190D01*
X122737476Y-72096380D02*
X122547000Y-72096380D01*
X122451761Y-72144000D01*
X122404142Y-72191619D01*
X122308904Y-72334476D01*
X122261285Y-72524952D01*
X122261285Y-72905904D01*
X122308904Y-73001142D01*
X122356523Y-73048761D01*
X122451761Y-73096380D01*
X122642238Y-73096380D01*
X122737476Y-73048761D01*
X122785095Y-73001142D01*
X122832714Y-72905904D01*
X122832714Y-72667809D01*
X122785095Y-72572571D01*
X122737476Y-72524952D01*
X122642238Y-72477333D01*
X122451761Y-72477333D01*
X122356523Y-72524952D01*
X122308904Y-72572571D01*
X122261285Y-72667809D01*
X115855761Y-70905619D02*
X115760523Y-70858000D01*
X115665285Y-70762761D01*
X115522428Y-70619904D01*
X115427190Y-70572285D01*
X115331952Y-70572285D01*
X115379571Y-70810380D02*
X115284333Y-70762761D01*
X115189095Y-70667523D01*
X115141476Y-70477047D01*
X115141476Y-70143714D01*
X115189095Y-69953238D01*
X115284333Y-69858000D01*
X115379571Y-69810380D01*
X115570047Y-69810380D01*
X115665285Y-69858000D01*
X115760523Y-69953238D01*
X115808142Y-70143714D01*
X115808142Y-70477047D01*
X115760523Y-70667523D01*
X115665285Y-70762761D01*
X115570047Y-70810380D01*
X115379571Y-70810380D01*
X116189095Y-69905619D02*
X116236714Y-69858000D01*
X116331952Y-69810380D01*
X116570047Y-69810380D01*
X116665285Y-69858000D01*
X116712904Y-69905619D01*
X116760523Y-70000857D01*
X116760523Y-70096095D01*
X116712904Y-70238952D01*
X116141476Y-70810380D01*
X116760523Y-70810380D01*
X141139295Y-92690180D02*
X141139295Y-93499704D01*
X141186914Y-93594942D01*
X141234533Y-93642561D01*
X141329771Y-93690180D01*
X141520247Y-93690180D01*
X141615485Y-93642561D01*
X141663104Y-93594942D01*
X141710723Y-93499704D01*
X141710723Y-92690180D01*
X142091676Y-92690180D02*
X142710723Y-92690180D01*
X142377390Y-93071133D01*
X142520247Y-93071133D01*
X142615485Y-93118752D01*
X142663104Y-93166371D01*
X142710723Y-93261609D01*
X142710723Y-93499704D01*
X142663104Y-93594942D01*
X142615485Y-93642561D01*
X142520247Y-93690180D01*
X142234533Y-93690180D01*
X142139295Y-93642561D01*
X142091676Y-93594942D01*
X114831904Y-97734380D02*
X114831904Y-96734380D01*
X115212857Y-96734380D01*
X115308095Y-96782000D01*
X115355714Y-96829619D01*
X115403333Y-96924857D01*
X115403333Y-97067714D01*
X115355714Y-97162952D01*
X115308095Y-97210571D01*
X115212857Y-97258190D01*
X114831904Y-97258190D01*
X116355714Y-97734380D02*
X115784285Y-97734380D01*
X116070000Y-97734380D02*
X116070000Y-96734380D01*
X115974761Y-96877238D01*
X115879523Y-96972476D01*
X115784285Y-97020095D01*
X152169904Y-95809380D02*
X152169904Y-94809380D01*
X152550857Y-94809380D01*
X152646095Y-94857000D01*
X152693714Y-94904619D01*
X152741333Y-94999857D01*
X152741333Y-95142714D01*
X152693714Y-95237952D01*
X152646095Y-95285571D01*
X152550857Y-95333190D01*
X152169904Y-95333190D01*
X153122285Y-94904619D02*
X153169904Y-94857000D01*
X153265142Y-94809380D01*
X153503238Y-94809380D01*
X153598476Y-94857000D01*
X153646095Y-94904619D01*
X153693714Y-94999857D01*
X153693714Y-95095095D01*
X153646095Y-95237952D01*
X153074666Y-95809380D01*
X153693714Y-95809380D01*
X153535142Y-71826380D02*
X153201809Y-71350190D01*
X152963714Y-71826380D02*
X152963714Y-70826380D01*
X153344666Y-70826380D01*
X153439904Y-70874000D01*
X153487523Y-70921619D01*
X153535142Y-71016857D01*
X153535142Y-71159714D01*
X153487523Y-71254952D01*
X153439904Y-71302571D01*
X153344666Y-71350190D01*
X152963714Y-71350190D01*
X154487523Y-71826380D02*
X153916095Y-71826380D01*
X154201809Y-71826380D02*
X154201809Y-70826380D01*
X154106571Y-70969238D01*
X154011333Y-71064476D01*
X153916095Y-71112095D01*
X154820857Y-70826380D02*
X155487523Y-70826380D01*
X155058952Y-71826380D01*
X124706142Y-69159380D02*
X124372809Y-68683190D01*
X124134714Y-69159380D02*
X124134714Y-68159380D01*
X124515666Y-68159380D01*
X124610904Y-68207000D01*
X124658523Y-68254619D01*
X124706142Y-68349857D01*
X124706142Y-68492714D01*
X124658523Y-68587952D01*
X124610904Y-68635571D01*
X124515666Y-68683190D01*
X124134714Y-68683190D01*
X125087095Y-68254619D02*
X125134714Y-68207000D01*
X125229952Y-68159380D01*
X125468047Y-68159380D01*
X125563285Y-68207000D01*
X125610904Y-68254619D01*
X125658523Y-68349857D01*
X125658523Y-68445095D01*
X125610904Y-68587952D01*
X125039476Y-69159380D01*
X125658523Y-69159380D01*
X126563285Y-68159380D02*
X126087095Y-68159380D01*
X126039476Y-68635571D01*
X126087095Y-68587952D01*
X126182333Y-68540333D01*
X126420428Y-68540333D01*
X126515666Y-68587952D01*
X126563285Y-68635571D01*
X126610904Y-68730809D01*
X126610904Y-68968904D01*
X126563285Y-69064142D01*
X126515666Y-69111761D01*
X126420428Y-69159380D01*
X126182333Y-69159380D01*
X126087095Y-69111761D01*
X126039476Y-69064142D01*
X136612404Y-85351880D02*
X136612404Y-84351880D01*
X136993357Y-84351880D01*
X137088595Y-84399500D01*
X137136214Y-84447119D01*
X137183833Y-84542357D01*
X137183833Y-84685214D01*
X137136214Y-84780452D01*
X137088595Y-84828071D01*
X136993357Y-84875690D01*
X136612404Y-84875690D01*
X137755261Y-84780452D02*
X137660023Y-84732833D01*
X137612404Y-84685214D01*
X137564785Y-84589976D01*
X137564785Y-84542357D01*
X137612404Y-84447119D01*
X137660023Y-84399500D01*
X137755261Y-84351880D01*
X137945738Y-84351880D01*
X138040976Y-84399500D01*
X138088595Y-84447119D01*
X138136214Y-84542357D01*
X138136214Y-84589976D01*
X138088595Y-84685214D01*
X138040976Y-84732833D01*
X137945738Y-84780452D01*
X137755261Y-84780452D01*
X137660023Y-84828071D01*
X137612404Y-84875690D01*
X137564785Y-84970928D01*
X137564785Y-85161404D01*
X137612404Y-85256642D01*
X137660023Y-85304261D01*
X137755261Y-85351880D01*
X137945738Y-85351880D01*
X138040976Y-85304261D01*
X138088595Y-85256642D01*
X138136214Y-85161404D01*
X138136214Y-84970928D01*
X138088595Y-84875690D01*
X138040976Y-84828071D01*
X137945738Y-84780452D01*
X113403285Y-63317380D02*
X113403285Y-62317380D01*
X113784238Y-62317380D01*
X113879476Y-62365000D01*
X113927095Y-62412619D01*
X113974714Y-62507857D01*
X113974714Y-62650714D01*
X113927095Y-62745952D01*
X113879476Y-62793571D01*
X113784238Y-62841190D01*
X113403285Y-62841190D01*
X114974714Y-63317380D02*
X114641380Y-62841190D01*
X114403285Y-63317380D02*
X114403285Y-62317380D01*
X114784238Y-62317380D01*
X114879476Y-62365000D01*
X114927095Y-62412619D01*
X114974714Y-62507857D01*
X114974714Y-62650714D01*
X114927095Y-62745952D01*
X114879476Y-62793571D01*
X114784238Y-62841190D01*
X114403285Y-62841190D01*
X115593761Y-62317380D02*
X115784238Y-62317380D01*
X115879476Y-62365000D01*
X115974714Y-62460238D01*
X116022333Y-62650714D01*
X116022333Y-62984047D01*
X115974714Y-63174523D01*
X115879476Y-63269761D01*
X115784238Y-63317380D01*
X115593761Y-63317380D01*
X115498523Y-63269761D01*
X115403285Y-63174523D01*
X115355666Y-62984047D01*
X115355666Y-62650714D01*
X115403285Y-62460238D01*
X115498523Y-62365000D01*
X115593761Y-62317380D01*
X116974714Y-62365000D02*
X116879476Y-62317380D01*
X116736619Y-62317380D01*
X116593761Y-62365000D01*
X116498523Y-62460238D01*
X116450904Y-62555476D01*
X116403285Y-62745952D01*
X116403285Y-62888809D01*
X116450904Y-63079285D01*
X116498523Y-63174523D01*
X116593761Y-63269761D01*
X116736619Y-63317380D01*
X116831857Y-63317380D01*
X116974714Y-63269761D01*
X117022333Y-63222142D01*
X117022333Y-62888809D01*
X116831857Y-62888809D01*
X143601380Y-55729095D02*
X142601380Y-55729095D01*
X142601380Y-55348142D01*
X142649000Y-55252904D01*
X142696619Y-55205285D01*
X142791857Y-55157666D01*
X142934714Y-55157666D01*
X143029952Y-55205285D01*
X143077571Y-55252904D01*
X143125190Y-55348142D01*
X143125190Y-55729095D01*
X142601380Y-54252904D02*
X142601380Y-54729095D01*
X143077571Y-54776714D01*
X143029952Y-54729095D01*
X142982333Y-54633857D01*
X142982333Y-54395761D01*
X143029952Y-54300523D01*
X143077571Y-54252904D01*
X143172809Y-54205285D01*
X143410904Y-54205285D01*
X143506142Y-54252904D01*
X143553761Y-54300523D01*
X143601380Y-54395761D01*
X143601380Y-54633857D01*
X143553761Y-54729095D01*
X143506142Y-54776714D01*
M02*
