G04 #@! TF.FileFunction,Copper,L2,Bot,Signal*
%FSLAX46Y46*%
G04 Gerber Fmt 4.6, Leading zero omitted, Abs format (unit mm)*
G04 Created by KiCad (PCBNEW 4.1.0-alpha+201609050731+7118~50~ubuntu16.04.1-product) date Wed Sep 21 17:23:22 2016*
%MOMM*%
%LPD*%
G01*
G04 APERTURE LIST*
%ADD10C,0.100000*%
%ADD11R,0.950000X1.250000*%
%ADD12O,0.950000X1.250000*%
%ADD13C,2.250000*%
%ADD14C,2.500000*%
%ADD15C,3.000000*%
%ADD16R,1.300000X1.300000*%
%ADD17C,1.300000*%
%ADD18R,2.000000X2.000000*%
%ADD19C,2.000000*%
%ADD20R,1.727200X2.032000*%
%ADD21O,1.727200X2.032000*%
%ADD22C,0.500000*%
%ADD23C,0.600000*%
%ADD24R,1.100000X1.500000*%
%ADD25R,2.032000X1.727200*%
%ADD26O,2.032000X1.727200*%
%ADD27R,1.250000X0.950000*%
%ADD28O,1.250000X0.950000*%
%ADD29R,1.524000X1.524000*%
%ADD30R,1.200000X0.750000*%
%ADD31R,0.750000X1.200000*%
%ADD32R,1.500000X1.250000*%
%ADD33R,2.500000X2.000000*%
%ADD34R,1.800860X2.499360*%
%ADD35R,0.450000X0.590000*%
%ADD36R,1.400000X1.340000*%
%ADD37R,3.500000X4.200000*%
%ADD38R,1.500000X1.300000*%
%ADD39R,0.800100X0.800100*%
%ADD40R,0.900000X1.200000*%
%ADD41R,1.300000X1.500000*%
%ADD42R,2.000000X1.700000*%
%ADD43R,1.200000X0.900000*%
%ADD44C,1.998980*%
%ADD45O,1.473200X0.609600*%
%ADD46C,1.524000*%
%ADD47C,1.400000*%
%ADD48C,1.000000*%
%ADD49C,0.250000*%
%ADD50C,0.400000*%
%ADD51C,0.254000*%
G04 APERTURE END LIST*
D10*
D11*
X170815000Y-129159000D03*
D12*
X172065000Y-129159000D03*
X173315000Y-129159000D03*
D13*
X89789000Y-94361000D03*
X89789000Y-99364800D03*
D14*
X98247200Y-127531900D03*
D15*
X110447200Y-127531900D03*
X110497200Y-115481900D03*
D14*
X98247200Y-115531900D03*
D15*
X96297200Y-121481900D03*
D16*
X103701840Y-108239560D03*
D17*
X108701840Y-108239560D03*
D18*
X176403000Y-64008000D03*
D19*
X176403000Y-61468000D03*
D20*
X186055000Y-128905000D03*
D21*
X188595000Y-128905000D03*
X191135000Y-128905000D03*
X193675000Y-128905000D03*
D22*
X190689000Y-65065000D03*
X188189000Y-65065000D03*
D23*
X188214000Y-62865000D03*
X188189000Y-61665000D03*
X189439000Y-61665000D03*
X190689000Y-61665000D03*
X190639000Y-62865000D03*
D24*
X191389000Y-105283000D03*
X189585600Y-105283000D03*
X187782200Y-105283000D03*
X187782200Y-114782600D03*
X189585600Y-114782600D03*
D25*
X170561000Y-123698000D03*
D26*
X170561000Y-121158000D03*
X170561000Y-118618000D03*
X170561000Y-116078000D03*
X170561000Y-113538000D03*
X170561000Y-110998000D03*
X170561000Y-108458000D03*
X170561000Y-105918000D03*
X170561000Y-103378000D03*
X170561000Y-100838000D03*
D25*
X208153000Y-101854000D03*
D26*
X208153000Y-104394000D03*
X208153000Y-106934000D03*
X208153000Y-109474000D03*
X208153000Y-112014000D03*
X208153000Y-114554000D03*
X208153000Y-117094000D03*
X208153000Y-119634000D03*
X208153000Y-122174000D03*
X208153000Y-124714000D03*
D27*
X137668000Y-125389000D03*
D28*
X137668000Y-126639000D03*
X137668000Y-127889000D03*
D29*
X105156000Y-94361000D03*
X105156000Y-99568000D03*
X94818200Y-99568000D03*
X94742000Y-94361000D03*
D16*
X100012500Y-99665800D03*
D17*
X100012500Y-94665800D03*
D30*
X124147500Y-104648000D03*
X126047500Y-104648000D03*
D16*
X113924080Y-97525840D03*
D17*
X108924080Y-97525840D03*
X131953000Y-128468000D03*
D16*
X131953000Y-124968000D03*
D31*
X133858000Y-102240000D03*
X133858000Y-104140000D03*
D32*
X126555500Y-101854000D03*
X124055500Y-101854000D03*
D30*
X113919000Y-106807000D03*
X112019000Y-106807000D03*
X119888000Y-110363000D03*
X121788000Y-110363000D03*
D17*
X139517000Y-115697000D03*
D16*
X136017000Y-115697000D03*
D33*
X132143500Y-94361000D03*
X132143500Y-97761000D03*
D34*
X100863400Y-119291100D03*
X100863400Y-123289060D03*
D35*
X116459000Y-108585000D03*
X116459000Y-106475000D03*
D36*
X136550400Y-99390200D03*
X138734800Y-99390200D03*
D37*
X137668000Y-103124000D03*
D38*
X107551240Y-94556580D03*
X110251240Y-94556580D03*
D13*
X89789000Y-122250200D03*
X89789000Y-127254000D03*
D39*
X125095000Y-126751000D03*
X125095000Y-128651000D03*
X123096020Y-127701000D03*
D40*
X127762000Y-126578000D03*
X127762000Y-128778000D03*
D41*
X111379000Y-104427000D03*
X111379000Y-101727000D03*
X108839000Y-104427000D03*
X108839000Y-101727000D03*
X113919000Y-101727000D03*
X113919000Y-104427000D03*
D42*
X107315000Y-112268000D03*
X111315000Y-112268000D03*
X114046000Y-112268000D03*
X118046000Y-112268000D03*
D41*
X113157000Y-118491000D03*
X113157000Y-121191000D03*
D42*
X123508000Y-97536000D03*
X127508000Y-97536000D03*
D43*
X126746000Y-93980000D03*
X124546000Y-93980000D03*
X124165000Y-106680000D03*
X126365000Y-106680000D03*
X129540000Y-106807000D03*
X131740000Y-106807000D03*
X131699000Y-109156500D03*
X129499000Y-109156500D03*
D40*
X131699000Y-104181000D03*
X131699000Y-101981000D03*
D43*
X111846000Y-108966000D03*
X114046000Y-108966000D03*
D40*
X134112000Y-122768000D03*
X134112000Y-124968000D03*
D44*
X94869000Y-108966000D03*
X89867740Y-108966000D03*
D45*
X118237000Y-124396500D03*
X118237000Y-123126500D03*
X118237000Y-121856500D03*
X118237000Y-120586500D03*
X123825000Y-120586500D03*
X123825000Y-121856500D03*
X123825000Y-123126500D03*
X123825000Y-124396500D03*
D46*
X120269000Y-107607100D03*
X120269000Y-104584500D03*
X120269000Y-101587300D03*
X120269000Y-98564700D03*
X120269000Y-95567500D03*
X138785600Y-107581700D03*
X138760200Y-95567500D03*
X209296000Y-60833000D03*
X209296000Y-63373000D03*
X209296000Y-65913000D03*
D47*
X128259000Y-117157500D03*
X125984000Y-117182500D03*
X130534000Y-117157500D03*
D20*
X186817000Y-88519000D03*
D21*
X189357000Y-88519000D03*
X191897000Y-88519000D03*
D23*
X176276000Y-125476000D03*
X188849000Y-68199000D03*
X187452000Y-72644000D03*
X191516000Y-65278000D03*
X134937500Y-107505500D03*
X191389000Y-63373000D03*
X204343000Y-122301000D03*
X177292000Y-120269000D03*
X188341000Y-63881000D03*
X191770000Y-61595000D03*
X181610000Y-89154000D03*
X181991000Y-112522000D03*
X186182000Y-111252000D03*
X182753000Y-108458000D03*
X173609000Y-85090000D03*
X183515000Y-107569000D03*
X192024000Y-90678000D03*
X196215000Y-105918000D03*
X171958000Y-82423000D03*
X190500000Y-112776000D03*
X118046500Y-119634000D03*
X118046500Y-113665000D03*
X119923620Y-120368376D03*
X116360860Y-117272041D03*
X115189000Y-104838500D03*
X191389000Y-107315000D03*
X189484000Y-107061000D03*
D48*
X94869000Y-108966000D02*
X104267000Y-99568000D01*
X104267000Y-99568000D02*
X105156000Y-99568000D01*
X94818200Y-99568000D02*
X99914700Y-99568000D01*
D49*
X99914700Y-99568000D02*
X100012500Y-99665800D01*
D48*
X107551240Y-94556580D02*
X105351580Y-94556580D01*
X105351580Y-94556580D02*
X105156000Y-94361000D01*
X100012500Y-94665800D02*
X104851200Y-94665800D01*
X104851200Y-94665800D02*
X105156000Y-94361000D01*
D50*
X170561000Y-123698000D02*
X174498000Y-123698000D01*
X174498000Y-123698000D02*
X176276000Y-125476000D01*
X169418000Y-122555000D02*
X170561000Y-123698000D01*
X209296000Y-63373000D02*
X193421000Y-63373000D01*
X193421000Y-63373000D02*
X191516000Y-65278000D01*
D48*
X170815000Y-129159000D02*
X170815000Y-123952000D01*
D50*
X170815000Y-123952000D02*
X170561000Y-123698000D01*
X187452000Y-72644000D02*
X188849000Y-71247000D01*
X188849000Y-71247000D02*
X188849000Y-68199000D01*
X125095000Y-128651000D02*
X127635000Y-128651000D01*
X127635000Y-128651000D02*
X127762000Y-128778000D01*
X190689000Y-65065000D02*
X191303000Y-65065000D01*
X191303000Y-65065000D02*
X191516000Y-65278000D01*
X126047500Y-104648000D02*
X127047500Y-104648000D01*
X127047500Y-104648000D02*
X127880501Y-105481001D01*
X127880501Y-105481001D02*
X132913001Y-105481001D01*
X132913001Y-105481001D02*
X134937500Y-107505500D01*
X190639000Y-62865000D02*
X190881000Y-62865000D01*
X190881000Y-62865000D02*
X191389000Y-63373000D01*
X209296000Y-65913000D02*
X210057999Y-66674999D01*
X210057999Y-66674999D02*
X210057999Y-117881401D01*
X210057999Y-117881401D02*
X208305400Y-119634000D01*
X208305400Y-119634000D02*
X208153000Y-119634000D01*
X173315000Y-129190384D02*
X173315000Y-129159000D01*
X204343000Y-122301000D02*
X207010000Y-119634000D01*
X207010000Y-119634000D02*
X208153000Y-119634000D01*
D49*
X137668000Y-125389000D02*
X137818000Y-125389000D01*
X130839680Y-125181320D02*
X131053000Y-124968000D01*
X111771966Y-125181320D02*
X130839680Y-125181320D01*
X100863400Y-119291100D02*
X105881747Y-119291100D01*
X131053000Y-124968000D02*
X131953000Y-124968000D01*
X105881747Y-119291100D02*
X111771966Y-125181320D01*
D50*
X134112000Y-124968000D02*
X137247000Y-124968000D01*
X137247000Y-124968000D02*
X137668000Y-125389000D01*
X131953000Y-124968000D02*
X134112000Y-124968000D01*
X137668000Y-103124000D02*
X135518000Y-103124000D01*
X135518000Y-103124000D02*
X134634000Y-102240000D01*
X134634000Y-102240000D02*
X134633000Y-102240000D01*
X134633000Y-102240000D02*
X133858000Y-102240000D01*
X136017000Y-115697000D02*
X136017000Y-104775000D01*
X136017000Y-104775000D02*
X137668000Y-103124000D01*
X137668000Y-125389000D02*
X137668000Y-116298000D01*
X137668000Y-116298000D02*
X137067000Y-115697000D01*
X137067000Y-115697000D02*
X136017000Y-115697000D01*
D49*
X100863400Y-119291100D02*
X99712970Y-119291100D01*
X99712970Y-119291100D02*
X98247200Y-117825330D01*
X98247200Y-117825330D02*
X98247200Y-117299666D01*
X98247200Y-117299666D02*
X98247200Y-115531900D01*
D50*
X170561000Y-100838000D02*
X170713400Y-100838000D01*
X170713400Y-100838000D02*
X177292000Y-107416600D01*
X177292000Y-107416600D02*
X177292000Y-120269000D01*
X207772000Y-122428000D02*
X208071999Y-122128001D01*
X188341000Y-63881000D02*
X188839001Y-63382999D01*
X188839001Y-63382999D02*
X188839001Y-62315001D01*
X188839001Y-62315001D02*
X188488999Y-61964999D01*
X188488999Y-61964999D02*
X188189000Y-61665000D01*
D48*
X108701840Y-108239560D02*
X108701840Y-110881160D01*
X108701840Y-110881160D02*
X107315000Y-112268000D01*
X124147500Y-104648000D02*
X124147500Y-101946000D01*
X124147500Y-101946000D02*
X124055500Y-101854000D01*
X120269000Y-101587300D02*
X123788800Y-101587300D01*
X123788800Y-101587300D02*
X124055500Y-101854000D01*
X123508000Y-97536000D02*
X123508000Y-101306500D01*
X123508000Y-101306500D02*
X124055500Y-101854000D01*
X111379000Y-101727000D02*
X113919000Y-101727000D01*
X108839000Y-101727000D02*
X111379000Y-101727000D01*
X108924080Y-97525840D02*
X108924080Y-101641920D01*
X108924080Y-101641920D02*
X108839000Y-101727000D01*
X108924080Y-97525840D02*
X110251240Y-96198680D01*
X110251240Y-96198680D02*
X110251240Y-94556580D01*
X131699000Y-104181000D02*
X133817000Y-104181000D01*
X133817000Y-104181000D02*
X133858000Y-104140000D01*
D50*
X190689000Y-61665000D02*
X191700000Y-61665000D01*
X191700000Y-61665000D02*
X191770000Y-61595000D01*
D48*
X127508000Y-97536000D02*
X127508000Y-100901500D01*
X127508000Y-100901500D02*
X126555500Y-101854000D01*
X132143500Y-97761000D02*
X127733000Y-97761000D01*
X127733000Y-97761000D02*
X127508000Y-97536000D01*
D50*
X119888000Y-112861002D02*
X115333003Y-117415999D01*
X112246999Y-117415999D02*
X112107000Y-117555998D01*
X112107000Y-117555998D02*
X112107000Y-120041000D01*
X119888000Y-110363000D02*
X119888000Y-112861002D01*
X115333003Y-117415999D02*
X112246999Y-117415999D01*
X112107000Y-120041000D02*
X113157000Y-121091000D01*
X113157000Y-121091000D02*
X113157000Y-121191000D01*
X113157000Y-121191000D02*
X114207000Y-121191000D01*
X114207000Y-121191000D02*
X116142500Y-123126500D01*
X117100400Y-123126500D02*
X118237000Y-123126500D01*
X116142500Y-123126500D02*
X117100400Y-123126500D01*
X119663000Y-110363000D02*
X119888000Y-110363000D01*
X118888000Y-109588000D02*
X119663000Y-110363000D01*
X118567002Y-109588000D02*
X118888000Y-109588000D01*
X116047001Y-107964999D02*
X116944001Y-107964999D01*
X115046000Y-108966000D02*
X116047001Y-107964999D01*
X116944001Y-107964999D02*
X118567002Y-109588000D01*
X114046000Y-108966000D02*
X115046000Y-108966000D01*
X113919000Y-106807000D02*
X113919000Y-108839000D01*
X113919000Y-108839000D02*
X114046000Y-108966000D01*
X123825000Y-121856500D02*
X123393200Y-121856500D01*
X123393200Y-121856500D02*
X121788000Y-120251300D01*
X121788000Y-120251300D02*
X121788000Y-111138000D01*
X121788000Y-111138000D02*
X121788000Y-110363000D01*
X121788000Y-110363000D02*
X129142500Y-110363000D01*
X129142500Y-110363000D02*
X129499000Y-110006500D01*
X129499000Y-110006500D02*
X129499000Y-109156500D01*
X120269000Y-107607100D02*
X120269000Y-108844000D01*
X120269000Y-108844000D02*
X121788000Y-110363000D01*
X112244000Y-106807000D02*
X113019000Y-106032000D01*
X112019000Y-106807000D02*
X112244000Y-106807000D01*
X112244000Y-106807000D02*
X112944001Y-106106999D01*
X112944001Y-106106999D02*
X114985997Y-106106999D01*
X117328579Y-107607100D02*
X119191370Y-107607100D01*
X113019000Y-106032000D02*
X114910998Y-106032000D01*
X114910998Y-106032000D02*
X116318986Y-107439988D01*
X116318986Y-107439988D02*
X117161467Y-107439988D01*
X117161467Y-107439988D02*
X117328579Y-107607100D01*
X119191370Y-107607100D02*
X120269000Y-107607100D01*
D48*
X111379000Y-104427000D02*
X111379000Y-106167000D01*
X111379000Y-106167000D02*
X112019000Y-106807000D01*
X108839000Y-104427000D02*
X111379000Y-104427000D01*
X126746000Y-93980000D02*
X131762500Y-93980000D01*
X131762500Y-93980000D02*
X132143500Y-94361000D01*
D49*
X100863400Y-123289060D02*
X109349362Y-123289060D01*
X109349362Y-123289060D02*
X113761302Y-127701000D01*
X113761302Y-127701000D02*
X122445970Y-127701000D01*
X122445970Y-127701000D02*
X123096020Y-127701000D01*
X100863400Y-123289060D02*
X100863400Y-123638310D01*
X100863400Y-123289060D02*
X100863400Y-124915700D01*
X100863400Y-124915700D02*
X98247200Y-127531900D01*
D50*
X114751000Y-110363000D02*
X113393000Y-110363000D01*
X113393000Y-110363000D02*
X111996000Y-108966000D01*
X111996000Y-108966000D02*
X111846000Y-108966000D01*
X116459000Y-108585000D02*
X116459000Y-108655000D01*
X116459000Y-108655000D02*
X114751000Y-110363000D01*
X116459000Y-106475000D02*
X118378500Y-106475000D01*
X118378500Y-106475000D02*
X120269000Y-104584500D01*
D48*
X120269000Y-104584500D02*
X122364500Y-106680000D01*
X122364500Y-106680000D02*
X124165000Y-106680000D01*
D50*
X181991000Y-112522000D02*
X181610000Y-112141000D01*
X181610000Y-112141000D02*
X181610000Y-89154000D01*
X186182000Y-111252000D02*
X187782200Y-112852200D01*
X187782200Y-112852200D02*
X187782200Y-114782600D01*
X127762000Y-126578000D02*
X137607000Y-126578000D01*
X137607000Y-126578000D02*
X137668000Y-126639000D01*
X125095000Y-126751000D02*
X127589000Y-126751000D01*
X127589000Y-126751000D02*
X127762000Y-126578000D01*
X188595000Y-128905000D02*
X188595000Y-128752600D01*
X188595000Y-128752600D02*
X182753000Y-122910600D01*
X182753000Y-122910600D02*
X182753000Y-108458000D01*
X173609000Y-85090000D02*
X169145000Y-89554000D01*
X169145000Y-89554000D02*
X169145000Y-104654400D01*
X169145000Y-104654400D02*
X170408600Y-105918000D01*
X170408600Y-105918000D02*
X170561000Y-105918000D01*
X191135000Y-128905000D02*
X191135000Y-128752600D01*
X191135000Y-128752600D02*
X183515000Y-121132600D01*
X183515000Y-121132600D02*
X183515000Y-107569000D01*
X189357000Y-88519000D02*
X189865000Y-88519000D01*
X189865000Y-88519000D02*
X192024000Y-90678000D01*
X196215000Y-105493736D02*
X196215000Y-105918000D01*
X196215000Y-102706998D02*
X196215000Y-105493736D01*
X171958000Y-82423000D02*
X172800999Y-83265999D01*
X176774001Y-83265999D02*
X196215000Y-102706998D01*
X172800999Y-83265999D02*
X176774001Y-83265999D01*
X189585600Y-114782600D02*
X189585600Y-113690400D01*
X189585600Y-113690400D02*
X190500000Y-112776000D01*
X118046500Y-119634000D02*
X118046500Y-120396000D01*
X118046500Y-120396000D02*
X118237000Y-120586500D01*
X118046000Y-112268000D02*
X118046000Y-113664500D01*
X118046000Y-113664500D02*
X118046500Y-113665000D01*
X119705496Y-120586500D02*
X119923620Y-120368376D01*
X118237000Y-120586500D02*
X119705496Y-120586500D01*
X123825000Y-120586500D02*
X124830000Y-120586500D01*
X124830000Y-120586500D02*
X127559001Y-117857499D01*
X127559001Y-117857499D02*
X128259000Y-117157500D01*
D48*
X120269000Y-95567500D02*
X122958500Y-95567500D01*
X122958500Y-95567500D02*
X124546000Y-93980000D01*
D50*
X119373600Y-121660235D02*
X118929675Y-121216310D01*
X116360860Y-120032845D02*
X116360860Y-117696305D01*
X118929675Y-121216310D02*
X117544325Y-121216310D01*
X119373600Y-123691700D02*
X119373600Y-121660235D01*
X118668800Y-124396500D02*
X119373600Y-123691700D01*
X118237000Y-124396500D02*
X118668800Y-124396500D01*
X117544325Y-121216310D02*
X116360860Y-120032845D01*
X116360860Y-117696305D02*
X116360860Y-117272041D01*
X115189000Y-104838500D02*
X114330500Y-104838500D01*
X114330500Y-104838500D02*
X113919000Y-104427000D01*
D48*
X111315000Y-112268000D02*
X114046000Y-112268000D01*
D50*
X113157000Y-118491000D02*
X113157000Y-118591000D01*
X113157000Y-118591000D02*
X116422500Y-121856500D01*
X116422500Y-121856500D02*
X117100400Y-121856500D01*
X117100400Y-121856500D02*
X118237000Y-121856500D01*
D49*
X126365000Y-106680000D02*
X129413000Y-106680000D01*
X129413000Y-106680000D02*
X129540000Y-106807000D01*
D48*
X131699000Y-110606500D02*
X132234001Y-111141501D01*
X132234001Y-118098926D02*
X125901617Y-124431310D01*
X132234001Y-111141501D02*
X132234001Y-118098926D01*
X125901617Y-124431310D02*
X123825000Y-124431310D01*
X131699000Y-109156500D02*
X131699000Y-110606500D01*
X131740000Y-106807000D02*
X131740000Y-109115500D01*
X131740000Y-109115500D02*
X131699000Y-109156500D01*
X131699000Y-101981000D02*
X134289800Y-99390200D01*
X134289800Y-99390200D02*
X136550400Y-99390200D01*
X138734800Y-99390200D02*
X136550400Y-99390200D01*
X138760200Y-95567500D02*
X138760200Y-99364800D01*
X138760200Y-99364800D02*
X138734800Y-99390200D01*
D50*
X187782200Y-105283000D02*
X187782200Y-105083000D01*
X187782200Y-105083000D02*
X188732200Y-104133000D01*
X188732200Y-104133000D02*
X190439000Y-104133000D01*
X190439000Y-104133000D02*
X191389000Y-105083000D01*
X191389000Y-105083000D02*
X191389000Y-105283000D01*
X191389000Y-107315000D02*
X191389000Y-105283000D01*
X189484000Y-107061000D02*
X189484000Y-105384600D01*
X189484000Y-105384600D02*
X189585600Y-105283000D01*
D48*
X89789000Y-94361000D02*
X94742000Y-94361000D01*
X89789000Y-94361000D02*
X89789000Y-99364800D01*
D51*
G36*
X96520000Y-96139000D02*
X88209000Y-96139000D01*
X88209000Y-95603947D01*
X88725658Y-95603947D01*
X88839621Y-95883773D01*
X89494629Y-96131170D01*
X90194451Y-96109075D01*
X90738379Y-95883773D01*
X90852342Y-95603947D01*
X89789000Y-94540605D01*
X88725658Y-95603947D01*
X88209000Y-95603947D01*
X88209000Y-95172221D01*
X88266227Y-95310379D01*
X88546053Y-95424342D01*
X89609395Y-94361000D01*
X89968605Y-94361000D01*
X91031947Y-95424342D01*
X91311773Y-95310379D01*
X91559170Y-94655371D01*
X91558898Y-94646750D01*
X93345000Y-94646750D01*
X93345000Y-95249309D01*
X93441673Y-95482698D01*
X93620301Y-95661327D01*
X93853690Y-95758000D01*
X94456250Y-95758000D01*
X94615000Y-95599250D01*
X94615000Y-94488000D01*
X94869000Y-94488000D01*
X94869000Y-95599250D01*
X95027750Y-95758000D01*
X95630310Y-95758000D01*
X95863699Y-95661327D01*
X96042327Y-95482698D01*
X96139000Y-95249309D01*
X96139000Y-94646750D01*
X95980250Y-94488000D01*
X94869000Y-94488000D01*
X94615000Y-94488000D01*
X93503750Y-94488000D01*
X93345000Y-94646750D01*
X91558898Y-94646750D01*
X91537075Y-93955549D01*
X91337069Y-93472691D01*
X93345000Y-93472691D01*
X93345000Y-94075250D01*
X93503750Y-94234000D01*
X94615000Y-94234000D01*
X94615000Y-93122750D01*
X94869000Y-93122750D01*
X94869000Y-94234000D01*
X95980250Y-94234000D01*
X96139000Y-94075250D01*
X96139000Y-93472691D01*
X96042327Y-93239302D01*
X95863699Y-93060673D01*
X95630310Y-92964000D01*
X95027750Y-92964000D01*
X94869000Y-93122750D01*
X94615000Y-93122750D01*
X94456250Y-92964000D01*
X93853690Y-92964000D01*
X93620301Y-93060673D01*
X93441673Y-93239302D01*
X93345000Y-93472691D01*
X91337069Y-93472691D01*
X91311773Y-93411621D01*
X91031947Y-93297658D01*
X89968605Y-94361000D01*
X89609395Y-94361000D01*
X88546053Y-93297658D01*
X88266227Y-93411621D01*
X88209000Y-93563135D01*
X88209000Y-93118053D01*
X88725658Y-93118053D01*
X89789000Y-94181395D01*
X90852342Y-93118053D01*
X90738379Y-92838227D01*
X90083371Y-92590830D01*
X89383549Y-92612925D01*
X88839621Y-92838227D01*
X88725658Y-93118053D01*
X88209000Y-93118053D01*
X88209000Y-91948000D01*
X96520000Y-91948000D01*
X96520000Y-96139000D01*
X96520000Y-96139000D01*
G37*
X96520000Y-96139000D02*
X88209000Y-96139000D01*
X88209000Y-95603947D01*
X88725658Y-95603947D01*
X88839621Y-95883773D01*
X89494629Y-96131170D01*
X90194451Y-96109075D01*
X90738379Y-95883773D01*
X90852342Y-95603947D01*
X89789000Y-94540605D01*
X88725658Y-95603947D01*
X88209000Y-95603947D01*
X88209000Y-95172221D01*
X88266227Y-95310379D01*
X88546053Y-95424342D01*
X89609395Y-94361000D01*
X89968605Y-94361000D01*
X91031947Y-95424342D01*
X91311773Y-95310379D01*
X91559170Y-94655371D01*
X91558898Y-94646750D01*
X93345000Y-94646750D01*
X93345000Y-95249309D01*
X93441673Y-95482698D01*
X93620301Y-95661327D01*
X93853690Y-95758000D01*
X94456250Y-95758000D01*
X94615000Y-95599250D01*
X94615000Y-94488000D01*
X94869000Y-94488000D01*
X94869000Y-95599250D01*
X95027750Y-95758000D01*
X95630310Y-95758000D01*
X95863699Y-95661327D01*
X96042327Y-95482698D01*
X96139000Y-95249309D01*
X96139000Y-94646750D01*
X95980250Y-94488000D01*
X94869000Y-94488000D01*
X94615000Y-94488000D01*
X93503750Y-94488000D01*
X93345000Y-94646750D01*
X91558898Y-94646750D01*
X91537075Y-93955549D01*
X91337069Y-93472691D01*
X93345000Y-93472691D01*
X93345000Y-94075250D01*
X93503750Y-94234000D01*
X94615000Y-94234000D01*
X94615000Y-93122750D01*
X94869000Y-93122750D01*
X94869000Y-94234000D01*
X95980250Y-94234000D01*
X96139000Y-94075250D01*
X96139000Y-93472691D01*
X96042327Y-93239302D01*
X95863699Y-93060673D01*
X95630310Y-92964000D01*
X95027750Y-92964000D01*
X94869000Y-93122750D01*
X94615000Y-93122750D01*
X94456250Y-92964000D01*
X93853690Y-92964000D01*
X93620301Y-93060673D01*
X93441673Y-93239302D01*
X93345000Y-93472691D01*
X91337069Y-93472691D01*
X91311773Y-93411621D01*
X91031947Y-93297658D01*
X89968605Y-94361000D01*
X89609395Y-94361000D01*
X88546053Y-93297658D01*
X88266227Y-93411621D01*
X88209000Y-93563135D01*
X88209000Y-93118053D01*
X88725658Y-93118053D01*
X89789000Y-94181395D01*
X90852342Y-93118053D01*
X90738379Y-92838227D01*
X90083371Y-92590830D01*
X89383549Y-92612925D01*
X88839621Y-92838227D01*
X88725658Y-93118053D01*
X88209000Y-93118053D01*
X88209000Y-91948000D01*
X96520000Y-91948000D01*
X96520000Y-96139000D01*
G36*
X91694000Y-101727000D02*
X88209000Y-101727000D01*
X88209000Y-100607747D01*
X88725658Y-100607747D01*
X88839621Y-100887573D01*
X89494629Y-101134970D01*
X90194451Y-101112875D01*
X90738379Y-100887573D01*
X90852342Y-100607747D01*
X89789000Y-99544405D01*
X88725658Y-100607747D01*
X88209000Y-100607747D01*
X88209000Y-100176021D01*
X88266227Y-100314179D01*
X88546053Y-100428142D01*
X89609395Y-99364800D01*
X89968605Y-99364800D01*
X91031947Y-100428142D01*
X91311773Y-100314179D01*
X91559170Y-99659171D01*
X91537075Y-98959349D01*
X91311773Y-98415421D01*
X91031947Y-98301458D01*
X89968605Y-99364800D01*
X89609395Y-99364800D01*
X88546053Y-98301458D01*
X88266227Y-98415421D01*
X88209000Y-98566935D01*
X88209000Y-98121853D01*
X88725658Y-98121853D01*
X89789000Y-99185195D01*
X90852342Y-98121853D01*
X90738379Y-97842027D01*
X90083371Y-97594630D01*
X89383549Y-97616725D01*
X88839621Y-97842027D01*
X88725658Y-98121853D01*
X88209000Y-98121853D01*
X88209000Y-95603947D01*
X88725658Y-95603947D01*
X88839621Y-95883773D01*
X89494629Y-96131170D01*
X90194451Y-96109075D01*
X90738379Y-95883773D01*
X90852342Y-95603947D01*
X89789000Y-94540605D01*
X88725658Y-95603947D01*
X88209000Y-95603947D01*
X88209000Y-95172221D01*
X88266227Y-95310379D01*
X88546053Y-95424342D01*
X89609395Y-94361000D01*
X89968605Y-94361000D01*
X91031947Y-95424342D01*
X91311773Y-95310379D01*
X91559170Y-94655371D01*
X91537075Y-93955549D01*
X91311773Y-93411621D01*
X91031947Y-93297658D01*
X89968605Y-94361000D01*
X89609395Y-94361000D01*
X88546053Y-93297658D01*
X88266227Y-93411621D01*
X88209000Y-93563135D01*
X88209000Y-93118053D01*
X88725658Y-93118053D01*
X89789000Y-94181395D01*
X90852342Y-93118053D01*
X90738379Y-92838227D01*
X90083371Y-92590830D01*
X89383549Y-92612925D01*
X88839621Y-92838227D01*
X88725658Y-93118053D01*
X88209000Y-93118053D01*
X88209000Y-91948000D01*
X91694000Y-91948000D01*
X91694000Y-101727000D01*
X91694000Y-101727000D01*
G37*
X91694000Y-101727000D02*
X88209000Y-101727000D01*
X88209000Y-100607747D01*
X88725658Y-100607747D01*
X88839621Y-100887573D01*
X89494629Y-101134970D01*
X90194451Y-101112875D01*
X90738379Y-100887573D01*
X90852342Y-100607747D01*
X89789000Y-99544405D01*
X88725658Y-100607747D01*
X88209000Y-100607747D01*
X88209000Y-100176021D01*
X88266227Y-100314179D01*
X88546053Y-100428142D01*
X89609395Y-99364800D01*
X89968605Y-99364800D01*
X91031947Y-100428142D01*
X91311773Y-100314179D01*
X91559170Y-99659171D01*
X91537075Y-98959349D01*
X91311773Y-98415421D01*
X91031947Y-98301458D01*
X89968605Y-99364800D01*
X89609395Y-99364800D01*
X88546053Y-98301458D01*
X88266227Y-98415421D01*
X88209000Y-98566935D01*
X88209000Y-98121853D01*
X88725658Y-98121853D01*
X89789000Y-99185195D01*
X90852342Y-98121853D01*
X90738379Y-97842027D01*
X90083371Y-97594630D01*
X89383549Y-97616725D01*
X88839621Y-97842027D01*
X88725658Y-98121853D01*
X88209000Y-98121853D01*
X88209000Y-95603947D01*
X88725658Y-95603947D01*
X88839621Y-95883773D01*
X89494629Y-96131170D01*
X90194451Y-96109075D01*
X90738379Y-95883773D01*
X90852342Y-95603947D01*
X89789000Y-94540605D01*
X88725658Y-95603947D01*
X88209000Y-95603947D01*
X88209000Y-95172221D01*
X88266227Y-95310379D01*
X88546053Y-95424342D01*
X89609395Y-94361000D01*
X89968605Y-94361000D01*
X91031947Y-95424342D01*
X91311773Y-95310379D01*
X91559170Y-94655371D01*
X91537075Y-93955549D01*
X91311773Y-93411621D01*
X91031947Y-93297658D01*
X89968605Y-94361000D01*
X89609395Y-94361000D01*
X88546053Y-93297658D01*
X88266227Y-93411621D01*
X88209000Y-93563135D01*
X88209000Y-93118053D01*
X88725658Y-93118053D01*
X89789000Y-94181395D01*
X90852342Y-93118053D01*
X90738379Y-92838227D01*
X90083371Y-92590830D01*
X89383549Y-92612925D01*
X88839621Y-92838227D01*
X88725658Y-93118053D01*
X88209000Y-93118053D01*
X88209000Y-91948000D01*
X91694000Y-91948000D01*
X91694000Y-101727000D01*
G36*
X141915000Y-130739000D02*
X118491000Y-130739000D01*
X118491000Y-128936750D01*
X124059950Y-128936750D01*
X124059950Y-129177359D01*
X124156623Y-129410748D01*
X124335251Y-129589377D01*
X124568640Y-129686050D01*
X124809250Y-129686050D01*
X124968000Y-129527300D01*
X124968000Y-128778000D01*
X125222000Y-128778000D01*
X125222000Y-129527300D01*
X125380750Y-129686050D01*
X125621360Y-129686050D01*
X125854749Y-129589377D01*
X126033377Y-129410748D01*
X126130050Y-129177359D01*
X126130050Y-128936750D01*
X125971300Y-128778000D01*
X125222000Y-128778000D01*
X124968000Y-128778000D01*
X124218700Y-128778000D01*
X124059950Y-128936750D01*
X118491000Y-128936750D01*
X118491000Y-128178000D01*
X122326892Y-128178000D01*
X122340845Y-128248148D01*
X122424169Y-128372851D01*
X122548872Y-128456175D01*
X122695970Y-128485435D01*
X123496070Y-128485435D01*
X123643168Y-128456175D01*
X123767871Y-128372851D01*
X123851195Y-128248148D01*
X123875762Y-128124641D01*
X124059950Y-128124641D01*
X124059950Y-128365250D01*
X124218700Y-128524000D01*
X124968000Y-128524000D01*
X124968000Y-127774700D01*
X125222000Y-127774700D01*
X125222000Y-128524000D01*
X125971300Y-128524000D01*
X126130050Y-128365250D01*
X126130050Y-128124641D01*
X126033377Y-127891252D01*
X125854749Y-127712623D01*
X125621360Y-127615950D01*
X125380750Y-127615950D01*
X125222000Y-127774700D01*
X124968000Y-127774700D01*
X124809250Y-127615950D01*
X124568640Y-127615950D01*
X124335251Y-127712623D01*
X124156623Y-127891252D01*
X124059950Y-128124641D01*
X123875762Y-128124641D01*
X123880455Y-128101050D01*
X123880455Y-127300950D01*
X123851195Y-127153852D01*
X123767871Y-127029149D01*
X123643168Y-126945825D01*
X123496070Y-126916565D01*
X122695970Y-126916565D01*
X122548872Y-126945825D01*
X122424169Y-127029149D01*
X122340845Y-127153852D01*
X122326892Y-127224000D01*
X118491000Y-127224000D01*
X118491000Y-126350950D01*
X124310565Y-126350950D01*
X124310565Y-127151050D01*
X124339825Y-127298148D01*
X124423149Y-127422851D01*
X124547852Y-127506175D01*
X124694950Y-127535435D01*
X125495050Y-127535435D01*
X125642148Y-127506175D01*
X125766851Y-127422851D01*
X125830229Y-127328000D01*
X126958814Y-127328000D01*
X127040199Y-127449801D01*
X127164902Y-127533125D01*
X127312000Y-127562385D01*
X128212000Y-127562385D01*
X128359098Y-127533125D01*
X128483801Y-127449801D01*
X128567125Y-127325098D01*
X128596385Y-127178000D01*
X128596385Y-125978000D01*
X128567125Y-125830902D01*
X128483801Y-125706199D01*
X128359098Y-125622875D01*
X128212000Y-125593615D01*
X127312000Y-125593615D01*
X127164902Y-125622875D01*
X127040199Y-125706199D01*
X126956875Y-125830902D01*
X126927615Y-125978000D01*
X126927615Y-126174000D01*
X125830229Y-126174000D01*
X125766851Y-126079149D01*
X125642148Y-125995825D01*
X125495050Y-125966565D01*
X124694950Y-125966565D01*
X124547852Y-125995825D01*
X124423149Y-126079149D01*
X124339825Y-126203852D01*
X124310565Y-126350950D01*
X118491000Y-126350950D01*
X118491000Y-125833320D01*
X126243342Y-125833320D01*
X126243347Y-125833321D01*
X126464155Y-125789398D01*
X126651348Y-125664321D01*
X126770669Y-125545000D01*
X130918615Y-125545000D01*
X130918615Y-125618000D01*
X130947875Y-125765098D01*
X131031199Y-125889801D01*
X131155902Y-125973125D01*
X131303000Y-126002385D01*
X132603000Y-126002385D01*
X132750098Y-125973125D01*
X132874801Y-125889801D01*
X132958125Y-125765098D01*
X132987385Y-125618000D01*
X132987385Y-125545000D01*
X133277615Y-125545000D01*
X133277615Y-125568000D01*
X133306875Y-125715098D01*
X133390199Y-125839801D01*
X133514902Y-125923125D01*
X133662000Y-125952385D01*
X134562000Y-125952385D01*
X134709098Y-125923125D01*
X134833801Y-125839801D01*
X134917125Y-125715098D01*
X134946385Y-125568000D01*
X134946385Y-125545000D01*
X136658615Y-125545000D01*
X136658615Y-125864000D01*
X136687875Y-126011098D01*
X136721887Y-126062000D01*
X132228003Y-126062000D01*
X132227998Y-126061999D01*
X132007190Y-126105922D01*
X131819997Y-126230999D01*
X131819995Y-126231002D01*
X129849996Y-128201000D01*
X128596385Y-128201000D01*
X128596385Y-128178000D01*
X128567125Y-128030902D01*
X128483801Y-127906199D01*
X128359098Y-127822875D01*
X128212000Y-127793615D01*
X127312000Y-127793615D01*
X127164902Y-127822875D01*
X127040199Y-127906199D01*
X126956875Y-128030902D01*
X126927615Y-128178000D01*
X126927615Y-129378000D01*
X126956875Y-129525098D01*
X127040199Y-129649801D01*
X127164902Y-129733125D01*
X127312000Y-129762385D01*
X128212000Y-129762385D01*
X128359098Y-129733125D01*
X128483801Y-129649801D01*
X128567125Y-129525098D01*
X128596385Y-129378000D01*
X128596385Y-129367016D01*
X131233590Y-129367016D01*
X131289271Y-129597611D01*
X131772078Y-129765622D01*
X132282428Y-129736083D01*
X132616729Y-129597611D01*
X132672410Y-129367016D01*
X131953000Y-128647605D01*
X131233590Y-129367016D01*
X128596385Y-129367016D01*
X128596385Y-129355000D01*
X130088993Y-129355000D01*
X130088998Y-129355001D01*
X130309806Y-129311078D01*
X130496999Y-129186001D01*
X130743687Y-128939312D01*
X130823389Y-129131729D01*
X131053984Y-129187410D01*
X131773395Y-128468000D01*
X132132605Y-128468000D01*
X132852016Y-129187410D01*
X133082611Y-129131729D01*
X133250622Y-128648922D01*
X133223883Y-128186938D01*
X136448732Y-128186938D01*
X136632448Y-128560821D01*
X136956951Y-128848568D01*
X137366869Y-128990229D01*
X137541000Y-128841563D01*
X137541000Y-128016000D01*
X137795000Y-128016000D01*
X137795000Y-128841563D01*
X137969131Y-128990229D01*
X138379049Y-128848568D01*
X138703552Y-128560821D01*
X138887268Y-128186938D01*
X138760734Y-128016000D01*
X137795000Y-128016000D01*
X137541000Y-128016000D01*
X136575266Y-128016000D01*
X136448732Y-128186938D01*
X133223883Y-128186938D01*
X133221083Y-128138572D01*
X133082611Y-127804271D01*
X132852016Y-127748590D01*
X132132605Y-128468000D01*
X131773395Y-128468000D01*
X131759253Y-128453858D01*
X131938858Y-128274253D01*
X131953000Y-128288395D01*
X132672410Y-127568984D01*
X132616729Y-127338389D01*
X132414859Y-127268141D01*
X132466999Y-127216000D01*
X136633778Y-127216000D01*
X136632448Y-127217179D01*
X136448732Y-127591062D01*
X136575266Y-127762000D01*
X137541000Y-127762000D01*
X137541000Y-127742000D01*
X137795000Y-127742000D01*
X137795000Y-127762000D01*
X138760734Y-127762000D01*
X138887268Y-127591062D01*
X138703552Y-127217179D01*
X138548295Y-127079507D01*
X138624775Y-126965046D01*
X138689630Y-126639000D01*
X138624775Y-126312954D01*
X138524430Y-126162776D01*
X138564801Y-126135801D01*
X138648125Y-126011098D01*
X138677385Y-125864000D01*
X138677385Y-124914000D01*
X138648125Y-124766902D01*
X138564801Y-124642199D01*
X138440098Y-124558875D01*
X138293000Y-124529615D01*
X138245000Y-124529615D01*
X138245000Y-116596016D01*
X138797590Y-116596016D01*
X138853271Y-116826611D01*
X139336078Y-116994622D01*
X139846428Y-116965083D01*
X140180729Y-116826611D01*
X140236410Y-116596016D01*
X139517000Y-115876605D01*
X138797590Y-116596016D01*
X138245000Y-116596016D01*
X138245000Y-116298000D01*
X138201078Y-116077192D01*
X138076001Y-115889999D01*
X138075998Y-115889997D01*
X137702080Y-115516078D01*
X138219378Y-115516078D01*
X138248917Y-116026428D01*
X138387389Y-116360729D01*
X138617984Y-116416410D01*
X139337395Y-115697000D01*
X139696605Y-115697000D01*
X140416016Y-116416410D01*
X140646611Y-116360729D01*
X140814622Y-115877922D01*
X140785083Y-115367572D01*
X140646611Y-115033271D01*
X140416016Y-114977590D01*
X139696605Y-115697000D01*
X139337395Y-115697000D01*
X138617984Y-114977590D01*
X138387389Y-115033271D01*
X138219378Y-115516078D01*
X137702080Y-115516078D01*
X137475001Y-115288999D01*
X137287808Y-115163922D01*
X137067000Y-115119999D01*
X137066995Y-115120000D01*
X137051385Y-115120000D01*
X137051385Y-115047000D01*
X137022125Y-114899902D01*
X136954026Y-114797984D01*
X138797590Y-114797984D01*
X139517000Y-115517395D01*
X140236410Y-114797984D01*
X140180729Y-114567389D01*
X139697922Y-114399378D01*
X139187572Y-114428917D01*
X138853271Y-114567389D01*
X138797590Y-114797984D01*
X136954026Y-114797984D01*
X136938801Y-114775199D01*
X136814098Y-114691875D01*
X136667000Y-114662615D01*
X136594000Y-114662615D01*
X136594000Y-108561913D01*
X137984992Y-108561913D01*
X138054457Y-108804097D01*
X138577902Y-108990844D01*
X139132968Y-108963062D01*
X139516743Y-108804097D01*
X139586208Y-108561913D01*
X138785600Y-107761305D01*
X137984992Y-108561913D01*
X136594000Y-108561913D01*
X136594000Y-107374002D01*
X137376456Y-107374002D01*
X137404238Y-107929068D01*
X137563203Y-108312843D01*
X137805387Y-108382308D01*
X138605995Y-107581700D01*
X138965205Y-107581700D01*
X139765813Y-108382308D01*
X140007997Y-108312843D01*
X140194744Y-107789398D01*
X140166962Y-107234332D01*
X140007997Y-106850557D01*
X139765813Y-106781092D01*
X138965205Y-107581700D01*
X138605995Y-107581700D01*
X137805387Y-106781092D01*
X137563203Y-106850557D01*
X137376456Y-107374002D01*
X136594000Y-107374002D01*
X136594000Y-106601487D01*
X137984992Y-106601487D01*
X138785600Y-107402095D01*
X139586208Y-106601487D01*
X139516743Y-106359303D01*
X138993298Y-106172556D01*
X138438232Y-106200338D01*
X138054457Y-106359303D01*
X137984992Y-106601487D01*
X136594000Y-106601487D01*
X136594000Y-105918000D01*
X141915000Y-105918000D01*
X141915000Y-130739000D01*
X141915000Y-130739000D01*
G37*
X141915000Y-130739000D02*
X118491000Y-130739000D01*
X118491000Y-128936750D01*
X124059950Y-128936750D01*
X124059950Y-129177359D01*
X124156623Y-129410748D01*
X124335251Y-129589377D01*
X124568640Y-129686050D01*
X124809250Y-129686050D01*
X124968000Y-129527300D01*
X124968000Y-128778000D01*
X125222000Y-128778000D01*
X125222000Y-129527300D01*
X125380750Y-129686050D01*
X125621360Y-129686050D01*
X125854749Y-129589377D01*
X126033377Y-129410748D01*
X126130050Y-129177359D01*
X126130050Y-128936750D01*
X125971300Y-128778000D01*
X125222000Y-128778000D01*
X124968000Y-128778000D01*
X124218700Y-128778000D01*
X124059950Y-128936750D01*
X118491000Y-128936750D01*
X118491000Y-128178000D01*
X122326892Y-128178000D01*
X122340845Y-128248148D01*
X122424169Y-128372851D01*
X122548872Y-128456175D01*
X122695970Y-128485435D01*
X123496070Y-128485435D01*
X123643168Y-128456175D01*
X123767871Y-128372851D01*
X123851195Y-128248148D01*
X123875762Y-128124641D01*
X124059950Y-128124641D01*
X124059950Y-128365250D01*
X124218700Y-128524000D01*
X124968000Y-128524000D01*
X124968000Y-127774700D01*
X125222000Y-127774700D01*
X125222000Y-128524000D01*
X125971300Y-128524000D01*
X126130050Y-128365250D01*
X126130050Y-128124641D01*
X126033377Y-127891252D01*
X125854749Y-127712623D01*
X125621360Y-127615950D01*
X125380750Y-127615950D01*
X125222000Y-127774700D01*
X124968000Y-127774700D01*
X124809250Y-127615950D01*
X124568640Y-127615950D01*
X124335251Y-127712623D01*
X124156623Y-127891252D01*
X124059950Y-128124641D01*
X123875762Y-128124641D01*
X123880455Y-128101050D01*
X123880455Y-127300950D01*
X123851195Y-127153852D01*
X123767871Y-127029149D01*
X123643168Y-126945825D01*
X123496070Y-126916565D01*
X122695970Y-126916565D01*
X122548872Y-126945825D01*
X122424169Y-127029149D01*
X122340845Y-127153852D01*
X122326892Y-127224000D01*
X118491000Y-127224000D01*
X118491000Y-126350950D01*
X124310565Y-126350950D01*
X124310565Y-127151050D01*
X124339825Y-127298148D01*
X124423149Y-127422851D01*
X124547852Y-127506175D01*
X124694950Y-127535435D01*
X125495050Y-127535435D01*
X125642148Y-127506175D01*
X125766851Y-127422851D01*
X125830229Y-127328000D01*
X126958814Y-127328000D01*
X127040199Y-127449801D01*
X127164902Y-127533125D01*
X127312000Y-127562385D01*
X128212000Y-127562385D01*
X128359098Y-127533125D01*
X128483801Y-127449801D01*
X128567125Y-127325098D01*
X128596385Y-127178000D01*
X128596385Y-125978000D01*
X128567125Y-125830902D01*
X128483801Y-125706199D01*
X128359098Y-125622875D01*
X128212000Y-125593615D01*
X127312000Y-125593615D01*
X127164902Y-125622875D01*
X127040199Y-125706199D01*
X126956875Y-125830902D01*
X126927615Y-125978000D01*
X126927615Y-126174000D01*
X125830229Y-126174000D01*
X125766851Y-126079149D01*
X125642148Y-125995825D01*
X125495050Y-125966565D01*
X124694950Y-125966565D01*
X124547852Y-125995825D01*
X124423149Y-126079149D01*
X124339825Y-126203852D01*
X124310565Y-126350950D01*
X118491000Y-126350950D01*
X118491000Y-125833320D01*
X126243342Y-125833320D01*
X126243347Y-125833321D01*
X126464155Y-125789398D01*
X126651348Y-125664321D01*
X126770669Y-125545000D01*
X130918615Y-125545000D01*
X130918615Y-125618000D01*
X130947875Y-125765098D01*
X131031199Y-125889801D01*
X131155902Y-125973125D01*
X131303000Y-126002385D01*
X132603000Y-126002385D01*
X132750098Y-125973125D01*
X132874801Y-125889801D01*
X132958125Y-125765098D01*
X132987385Y-125618000D01*
X132987385Y-125545000D01*
X133277615Y-125545000D01*
X133277615Y-125568000D01*
X133306875Y-125715098D01*
X133390199Y-125839801D01*
X133514902Y-125923125D01*
X133662000Y-125952385D01*
X134562000Y-125952385D01*
X134709098Y-125923125D01*
X134833801Y-125839801D01*
X134917125Y-125715098D01*
X134946385Y-125568000D01*
X134946385Y-125545000D01*
X136658615Y-125545000D01*
X136658615Y-125864000D01*
X136687875Y-126011098D01*
X136721887Y-126062000D01*
X132228003Y-126062000D01*
X132227998Y-126061999D01*
X132007190Y-126105922D01*
X131819997Y-126230999D01*
X131819995Y-126231002D01*
X129849996Y-128201000D01*
X128596385Y-128201000D01*
X128596385Y-128178000D01*
X128567125Y-128030902D01*
X128483801Y-127906199D01*
X128359098Y-127822875D01*
X128212000Y-127793615D01*
X127312000Y-127793615D01*
X127164902Y-127822875D01*
X127040199Y-127906199D01*
X126956875Y-128030902D01*
X126927615Y-128178000D01*
X126927615Y-129378000D01*
X126956875Y-129525098D01*
X127040199Y-129649801D01*
X127164902Y-129733125D01*
X127312000Y-129762385D01*
X128212000Y-129762385D01*
X128359098Y-129733125D01*
X128483801Y-129649801D01*
X128567125Y-129525098D01*
X128596385Y-129378000D01*
X128596385Y-129367016D01*
X131233590Y-129367016D01*
X131289271Y-129597611D01*
X131772078Y-129765622D01*
X132282428Y-129736083D01*
X132616729Y-129597611D01*
X132672410Y-129367016D01*
X131953000Y-128647605D01*
X131233590Y-129367016D01*
X128596385Y-129367016D01*
X128596385Y-129355000D01*
X130088993Y-129355000D01*
X130088998Y-129355001D01*
X130309806Y-129311078D01*
X130496999Y-129186001D01*
X130743687Y-128939312D01*
X130823389Y-129131729D01*
X131053984Y-129187410D01*
X131773395Y-128468000D01*
X132132605Y-128468000D01*
X132852016Y-129187410D01*
X133082611Y-129131729D01*
X133250622Y-128648922D01*
X133223883Y-128186938D01*
X136448732Y-128186938D01*
X136632448Y-128560821D01*
X136956951Y-128848568D01*
X137366869Y-128990229D01*
X137541000Y-128841563D01*
X137541000Y-128016000D01*
X137795000Y-128016000D01*
X137795000Y-128841563D01*
X137969131Y-128990229D01*
X138379049Y-128848568D01*
X138703552Y-128560821D01*
X138887268Y-128186938D01*
X138760734Y-128016000D01*
X137795000Y-128016000D01*
X137541000Y-128016000D01*
X136575266Y-128016000D01*
X136448732Y-128186938D01*
X133223883Y-128186938D01*
X133221083Y-128138572D01*
X133082611Y-127804271D01*
X132852016Y-127748590D01*
X132132605Y-128468000D01*
X131773395Y-128468000D01*
X131759253Y-128453858D01*
X131938858Y-128274253D01*
X131953000Y-128288395D01*
X132672410Y-127568984D01*
X132616729Y-127338389D01*
X132414859Y-127268141D01*
X132466999Y-127216000D01*
X136633778Y-127216000D01*
X136632448Y-127217179D01*
X136448732Y-127591062D01*
X136575266Y-127762000D01*
X137541000Y-127762000D01*
X137541000Y-127742000D01*
X137795000Y-127742000D01*
X137795000Y-127762000D01*
X138760734Y-127762000D01*
X138887268Y-127591062D01*
X138703552Y-127217179D01*
X138548295Y-127079507D01*
X138624775Y-126965046D01*
X138689630Y-126639000D01*
X138624775Y-126312954D01*
X138524430Y-126162776D01*
X138564801Y-126135801D01*
X138648125Y-126011098D01*
X138677385Y-125864000D01*
X138677385Y-124914000D01*
X138648125Y-124766902D01*
X138564801Y-124642199D01*
X138440098Y-124558875D01*
X138293000Y-124529615D01*
X138245000Y-124529615D01*
X138245000Y-116596016D01*
X138797590Y-116596016D01*
X138853271Y-116826611D01*
X139336078Y-116994622D01*
X139846428Y-116965083D01*
X140180729Y-116826611D01*
X140236410Y-116596016D01*
X139517000Y-115876605D01*
X138797590Y-116596016D01*
X138245000Y-116596016D01*
X138245000Y-116298000D01*
X138201078Y-116077192D01*
X138076001Y-115889999D01*
X138075998Y-115889997D01*
X137702080Y-115516078D01*
X138219378Y-115516078D01*
X138248917Y-116026428D01*
X138387389Y-116360729D01*
X138617984Y-116416410D01*
X139337395Y-115697000D01*
X139696605Y-115697000D01*
X140416016Y-116416410D01*
X140646611Y-116360729D01*
X140814622Y-115877922D01*
X140785083Y-115367572D01*
X140646611Y-115033271D01*
X140416016Y-114977590D01*
X139696605Y-115697000D01*
X139337395Y-115697000D01*
X138617984Y-114977590D01*
X138387389Y-115033271D01*
X138219378Y-115516078D01*
X137702080Y-115516078D01*
X137475001Y-115288999D01*
X137287808Y-115163922D01*
X137067000Y-115119999D01*
X137066995Y-115120000D01*
X137051385Y-115120000D01*
X137051385Y-115047000D01*
X137022125Y-114899902D01*
X136954026Y-114797984D01*
X138797590Y-114797984D01*
X139517000Y-115517395D01*
X140236410Y-114797984D01*
X140180729Y-114567389D01*
X139697922Y-114399378D01*
X139187572Y-114428917D01*
X138853271Y-114567389D01*
X138797590Y-114797984D01*
X136954026Y-114797984D01*
X136938801Y-114775199D01*
X136814098Y-114691875D01*
X136667000Y-114662615D01*
X136594000Y-114662615D01*
X136594000Y-108561913D01*
X137984992Y-108561913D01*
X138054457Y-108804097D01*
X138577902Y-108990844D01*
X139132968Y-108963062D01*
X139516743Y-108804097D01*
X139586208Y-108561913D01*
X138785600Y-107761305D01*
X137984992Y-108561913D01*
X136594000Y-108561913D01*
X136594000Y-107374002D01*
X137376456Y-107374002D01*
X137404238Y-107929068D01*
X137563203Y-108312843D01*
X137805387Y-108382308D01*
X138605995Y-107581700D01*
X138965205Y-107581700D01*
X139765813Y-108382308D01*
X140007997Y-108312843D01*
X140194744Y-107789398D01*
X140166962Y-107234332D01*
X140007997Y-106850557D01*
X139765813Y-106781092D01*
X138965205Y-107581700D01*
X138605995Y-107581700D01*
X137805387Y-106781092D01*
X137563203Y-106850557D01*
X137376456Y-107374002D01*
X136594000Y-107374002D01*
X136594000Y-106601487D01*
X137984992Y-106601487D01*
X138785600Y-107402095D01*
X139586208Y-106601487D01*
X139516743Y-106359303D01*
X138993298Y-106172556D01*
X138438232Y-106200338D01*
X138054457Y-106359303D01*
X137984992Y-106601487D01*
X136594000Y-106601487D01*
X136594000Y-105918000D01*
X141915000Y-105918000D01*
X141915000Y-130739000D01*
G36*
X135440000Y-114662615D02*
X135367000Y-114662615D01*
X135219902Y-114691875D01*
X135095199Y-114775199D01*
X135011875Y-114899902D01*
X134982615Y-115047000D01*
X134982615Y-116347000D01*
X135011875Y-116494098D01*
X135095199Y-116618801D01*
X135219902Y-116702125D01*
X135367000Y-116731385D01*
X136667000Y-116731385D01*
X136814098Y-116702125D01*
X136938801Y-116618801D01*
X137022125Y-116494098D01*
X137026434Y-116472435D01*
X137091000Y-116537001D01*
X137091000Y-124391000D01*
X134946385Y-124391000D01*
X134946385Y-124368000D01*
X134917125Y-124220902D01*
X134833801Y-124096199D01*
X134709098Y-124012875D01*
X134659454Y-124003000D01*
X134688310Y-124003000D01*
X134921699Y-123906327D01*
X135100327Y-123727698D01*
X135197000Y-123494309D01*
X135197000Y-123053750D01*
X135038250Y-122895000D01*
X134239000Y-122895000D01*
X134239000Y-122915000D01*
X133985000Y-122915000D01*
X133985000Y-122895000D01*
X133185750Y-122895000D01*
X133027000Y-123053750D01*
X133027000Y-123494309D01*
X133123673Y-123727698D01*
X133302301Y-123906327D01*
X133535690Y-124003000D01*
X133564546Y-124003000D01*
X133514902Y-124012875D01*
X133390199Y-124096199D01*
X133306875Y-124220902D01*
X133277615Y-124368000D01*
X133277615Y-124391000D01*
X132987385Y-124391000D01*
X132987385Y-124318000D01*
X132958125Y-124170902D01*
X132874801Y-124046199D01*
X132750098Y-123962875D01*
X132603000Y-123933615D01*
X131303000Y-123933615D01*
X131155902Y-123962875D01*
X131031199Y-124046199D01*
X130947875Y-124170902D01*
X130918615Y-124318000D01*
X130918615Y-124391000D01*
X127182193Y-124391000D01*
X129531501Y-122041691D01*
X133027000Y-122041691D01*
X133027000Y-122482250D01*
X133185750Y-122641000D01*
X133985000Y-122641000D01*
X133985000Y-121691750D01*
X134239000Y-121691750D01*
X134239000Y-122641000D01*
X135038250Y-122641000D01*
X135197000Y-122482250D01*
X135197000Y-122041691D01*
X135100327Y-121808302D01*
X134921699Y-121629673D01*
X134688310Y-121533000D01*
X134397750Y-121533000D01*
X134239000Y-121691750D01*
X133985000Y-121691750D01*
X133826250Y-121533000D01*
X133535690Y-121533000D01*
X133302301Y-121629673D01*
X133123673Y-121808302D01*
X133027000Y-122041691D01*
X129531501Y-122041691D01*
X132854131Y-118719061D01*
X132854134Y-118719059D01*
X132968096Y-118548502D01*
X133044243Y-118434540D01*
X133111001Y-118098926D01*
X133111001Y-111141506D01*
X133111002Y-111141501D01*
X133044243Y-110805888D01*
X132911017Y-110606500D01*
X132854134Y-110521368D01*
X132854131Y-110521366D01*
X132576000Y-110243234D01*
X132576000Y-109870520D01*
X132654125Y-109753598D01*
X132683385Y-109606500D01*
X132683385Y-108706500D01*
X132654125Y-108559402D01*
X132617000Y-108503841D01*
X132617000Y-107521020D01*
X132695125Y-107404098D01*
X132724385Y-107257000D01*
X132724385Y-106357000D01*
X132695125Y-106209902D01*
X132611801Y-106085199D01*
X132487098Y-106001875D01*
X132340000Y-105972615D01*
X131954239Y-105972615D01*
X131740000Y-105930000D01*
X131525761Y-105972615D01*
X131140000Y-105972615D01*
X131064000Y-105987733D01*
X131064000Y-105918000D01*
X135440000Y-105918000D01*
X135440000Y-114662615D01*
X135440000Y-114662615D01*
G37*
X135440000Y-114662615D02*
X135367000Y-114662615D01*
X135219902Y-114691875D01*
X135095199Y-114775199D01*
X135011875Y-114899902D01*
X134982615Y-115047000D01*
X134982615Y-116347000D01*
X135011875Y-116494098D01*
X135095199Y-116618801D01*
X135219902Y-116702125D01*
X135367000Y-116731385D01*
X136667000Y-116731385D01*
X136814098Y-116702125D01*
X136938801Y-116618801D01*
X137022125Y-116494098D01*
X137026434Y-116472435D01*
X137091000Y-116537001D01*
X137091000Y-124391000D01*
X134946385Y-124391000D01*
X134946385Y-124368000D01*
X134917125Y-124220902D01*
X134833801Y-124096199D01*
X134709098Y-124012875D01*
X134659454Y-124003000D01*
X134688310Y-124003000D01*
X134921699Y-123906327D01*
X135100327Y-123727698D01*
X135197000Y-123494309D01*
X135197000Y-123053750D01*
X135038250Y-122895000D01*
X134239000Y-122895000D01*
X134239000Y-122915000D01*
X133985000Y-122915000D01*
X133985000Y-122895000D01*
X133185750Y-122895000D01*
X133027000Y-123053750D01*
X133027000Y-123494309D01*
X133123673Y-123727698D01*
X133302301Y-123906327D01*
X133535690Y-124003000D01*
X133564546Y-124003000D01*
X133514902Y-124012875D01*
X133390199Y-124096199D01*
X133306875Y-124220902D01*
X133277615Y-124368000D01*
X133277615Y-124391000D01*
X132987385Y-124391000D01*
X132987385Y-124318000D01*
X132958125Y-124170902D01*
X132874801Y-124046199D01*
X132750098Y-123962875D01*
X132603000Y-123933615D01*
X131303000Y-123933615D01*
X131155902Y-123962875D01*
X131031199Y-124046199D01*
X130947875Y-124170902D01*
X130918615Y-124318000D01*
X130918615Y-124391000D01*
X127182193Y-124391000D01*
X129531501Y-122041691D01*
X133027000Y-122041691D01*
X133027000Y-122482250D01*
X133185750Y-122641000D01*
X133985000Y-122641000D01*
X133985000Y-121691750D01*
X134239000Y-121691750D01*
X134239000Y-122641000D01*
X135038250Y-122641000D01*
X135197000Y-122482250D01*
X135197000Y-122041691D01*
X135100327Y-121808302D01*
X134921699Y-121629673D01*
X134688310Y-121533000D01*
X134397750Y-121533000D01*
X134239000Y-121691750D01*
X133985000Y-121691750D01*
X133826250Y-121533000D01*
X133535690Y-121533000D01*
X133302301Y-121629673D01*
X133123673Y-121808302D01*
X133027000Y-122041691D01*
X129531501Y-122041691D01*
X132854131Y-118719061D01*
X132854134Y-118719059D01*
X132968096Y-118548502D01*
X133044243Y-118434540D01*
X133111001Y-118098926D01*
X133111001Y-111141506D01*
X133111002Y-111141501D01*
X133044243Y-110805888D01*
X132911017Y-110606500D01*
X132854134Y-110521368D01*
X132854131Y-110521366D01*
X132576000Y-110243234D01*
X132576000Y-109870520D01*
X132654125Y-109753598D01*
X132683385Y-109606500D01*
X132683385Y-108706500D01*
X132654125Y-108559402D01*
X132617000Y-108503841D01*
X132617000Y-107521020D01*
X132695125Y-107404098D01*
X132724385Y-107257000D01*
X132724385Y-106357000D01*
X132695125Y-106209902D01*
X132611801Y-106085199D01*
X132487098Y-106001875D01*
X132340000Y-105972615D01*
X131954239Y-105972615D01*
X131740000Y-105930000D01*
X131525761Y-105972615D01*
X131140000Y-105972615D01*
X131064000Y-105987733D01*
X131064000Y-105918000D01*
X135440000Y-105918000D01*
X135440000Y-114662615D01*
M02*
