G04 #@! TF.FileFunction,Soldermask,Top*
%FSLAX46Y46*%
G04 Gerber Fmt 4.6, Leading zero omitted, Abs format (unit mm)*
G04 Created by KiCad (PCBNEW 4.1.0-alpha+201609050731+7118~50~ubuntu16.04.1-product) date Wed Sep 21 17:23:23 2016*
%MOMM*%
%LPD*%
G01*
G04 APERTURE LIST*
%ADD10C,0.100000*%
%ADD11R,1.200100X1.200100*%
%ADD12R,1.150000X1.200000*%
%ADD13R,1.300000X1.600000*%
%ADD14R,1.350000X1.650000*%
%ADD15O,1.350000X1.650000*%
%ADD16R,1.460000X1.050000*%
%ADD17C,2.650000*%
%ADD18C,2.900000*%
%ADD19C,3.400000*%
%ADD20R,1.700000X1.700000*%
%ADD21C,1.700000*%
%ADD22R,2.400000X2.400000*%
%ADD23C,2.400000*%
%ADD24R,1.600000X1.300000*%
%ADD25R,1.150000X1.600000*%
%ADD26R,2.127200X2.432000*%
%ADD27O,2.127200X2.432000*%
%ADD28R,1.050000X1.460000*%
%ADD29R,1.197560X1.197560*%
%ADD30R,1.900000X1.400000*%
%ADD31R,2.432000X2.127200*%
%ADD32O,2.432000X2.127200*%
%ADD33R,1.650000X1.350000*%
%ADD34O,1.650000X1.350000*%
%ADD35C,2.398980*%
%ADD36C,1.924000*%
%ADD37C,1.800000*%
G04 APERTURE END LIST*
D10*
D11*
X175514000Y-68580000D03*
X177414000Y-68580000D03*
X176464000Y-66581020D03*
D12*
X176149000Y-121158000D03*
X176149000Y-119658000D03*
D13*
X178562000Y-120945000D03*
X178562000Y-118745000D03*
D14*
X170815000Y-129159000D03*
D15*
X172065000Y-129159000D03*
X173315000Y-129159000D03*
D16*
X175092000Y-124460000D03*
X175092000Y-125410000D03*
X175092000Y-126360000D03*
X177292000Y-126360000D03*
X177292000Y-124460000D03*
D17*
X89789000Y-94361000D03*
X89789000Y-99364800D03*
D18*
X98247200Y-127531900D03*
D19*
X110447200Y-127531900D03*
X110497200Y-115481900D03*
D18*
X98247200Y-115531900D03*
D19*
X96297200Y-121481900D03*
D20*
X103701840Y-108239560D03*
D21*
X108701840Y-108239560D03*
D22*
X176403000Y-64008000D03*
D23*
X176403000Y-61468000D03*
D24*
X175346000Y-70612000D03*
X177546000Y-70612000D03*
D25*
X192659000Y-65212000D03*
X192659000Y-63312000D03*
X194818000Y-65273000D03*
X194818000Y-63373000D03*
D26*
X186055000Y-128905000D03*
D27*
X188595000Y-128905000D03*
X191135000Y-128905000D03*
X193675000Y-128905000D03*
D13*
X182753000Y-71501000D03*
X182753000Y-73701000D03*
D24*
X186867800Y-67259200D03*
X189067800Y-67259200D03*
X189067800Y-69189600D03*
X186867800Y-69189600D03*
D13*
X197231000Y-65573000D03*
X197231000Y-63373000D03*
X191008000Y-71434600D03*
X191008000Y-73634600D03*
D28*
X186806800Y-73744000D03*
X187756800Y-73744000D03*
X188706800Y-73744000D03*
X188706800Y-71544000D03*
X186806800Y-71544000D03*
D13*
X180594000Y-120945000D03*
X180594000Y-118745000D03*
D29*
X171208700Y-83312000D03*
X172707300Y-83312000D03*
D11*
X177927000Y-76205000D03*
X177927000Y-78105000D03*
X179925980Y-77155000D03*
D13*
X179959000Y-82337000D03*
X179959000Y-80137000D03*
D12*
X182499000Y-126492000D03*
X182499000Y-124992000D03*
D13*
X180213000Y-124333000D03*
X180213000Y-126533000D03*
D12*
X174498000Y-121158000D03*
X174498000Y-119658000D03*
X175514000Y-79986000D03*
X175514000Y-78486000D03*
D24*
X172974000Y-81661000D03*
X170774000Y-81661000D03*
D13*
X175260000Y-88560000D03*
X175260000Y-86360000D03*
X175641000Y-74025400D03*
X175641000Y-76225400D03*
D11*
X170942000Y-73152000D03*
X170942000Y-75052000D03*
X172940980Y-74102000D03*
D30*
X198086000Y-105331000D03*
X198086000Y-103831000D03*
X198086000Y-102331000D03*
X198086000Y-106831000D03*
X198086000Y-108331000D03*
X198086000Y-109831000D03*
X198086000Y-114331000D03*
X198086000Y-112831000D03*
X198086000Y-111331000D03*
X180086000Y-111331000D03*
X180086000Y-112831000D03*
X180086000Y-114331000D03*
X180086000Y-109831000D03*
X180086000Y-108331000D03*
X180086000Y-106831000D03*
X180086000Y-102331000D03*
X180086000Y-103831000D03*
X180086000Y-105331000D03*
D31*
X170561000Y-123698000D03*
D32*
X170561000Y-121158000D03*
X170561000Y-118618000D03*
X170561000Y-116078000D03*
X170561000Y-113538000D03*
X170561000Y-110998000D03*
X170561000Y-108458000D03*
X170561000Y-105918000D03*
X170561000Y-103378000D03*
X170561000Y-100838000D03*
D31*
X208153000Y-101854000D03*
D32*
X208153000Y-104394000D03*
X208153000Y-106934000D03*
X208153000Y-109474000D03*
X208153000Y-112014000D03*
X208153000Y-114554000D03*
X208153000Y-117094000D03*
X208153000Y-119634000D03*
X208153000Y-122174000D03*
X208153000Y-124714000D03*
D33*
X137668000Y-125389000D03*
D34*
X137668000Y-126639000D03*
X137668000Y-127889000D03*
D20*
X100012500Y-99665800D03*
D21*
X100012500Y-94665800D03*
D20*
X113924080Y-97525840D03*
D21*
X108924080Y-97525840D03*
X131953000Y-128468000D03*
D20*
X131953000Y-124968000D03*
D21*
X139517000Y-115697000D03*
D20*
X136017000Y-115697000D03*
D17*
X89789000Y-122250200D03*
X89789000Y-127254000D03*
D35*
X94869000Y-108966000D03*
X89867740Y-108966000D03*
D36*
X120269000Y-107607100D03*
X120269000Y-104584500D03*
X120269000Y-101587300D03*
X120269000Y-98564700D03*
X120269000Y-95567500D03*
X138785600Y-107581700D03*
X138760200Y-95567500D03*
D13*
X209423000Y-68834000D03*
X209423000Y-71034000D03*
X180594000Y-73787000D03*
X180594000Y-71587000D03*
D36*
X209296000Y-60833000D03*
X209296000Y-63373000D03*
X209296000Y-65913000D03*
D37*
X128259000Y-117157500D03*
X125984000Y-117182500D03*
X130534000Y-117157500D03*
D26*
X186817000Y-88519000D03*
D27*
X189357000Y-88519000D03*
X191897000Y-88519000D03*
M02*
