M48
;DRILL file {KiCad 4.1.0-alpha+201609050731+7118~50~ubuntu16.04.1-product} date Wed Sep 21 17:23:38 2016
;FORMAT={-:-/ absolute / metric / decimal}
FMAT,2
METRIC,TZ
T1C0.400
T2C0.600
T3C0.800
T4C1.000
T5C1.001
T6C1.016
T7C1.300
T8C1.500
%
G90
G05
M71
T1
X115.189Y-104.838
X116.361Y-117.272
X118.046Y-113.665
X118.046Y-119.634
X119.924Y-120.368
X134.938Y-107.505
X171.958Y-82.423
X173.609Y-85.09
X176.276Y-125.476
X177.292Y-120.269
X181.61Y-89.154
X181.991Y-112.522
X182.753Y-108.458
X183.515Y-107.569
X186.182Y-111.252
X187.452Y-72.644
X188.341Y-63.881
X188.849Y-68.199
X189.484Y-107.061
X190.5Y-112.776
X191.389Y-63.373
X191.389Y-107.315
X191.516Y-65.278
X191.77Y-61.595
X192.024Y-90.678
X196.215Y-105.918
X204.343Y-122.301
T2
X137.668Y-125.389
X137.668Y-126.639
X137.668Y-127.889
X170.815Y-129.159
X172.065Y-129.159
X173.315Y-129.159
T3
X100.012Y-94.666
X100.012Y-99.666
X103.702Y-108.24
X108.702Y-108.24
X108.924Y-97.526
X113.924Y-97.526
X125.984Y-117.182
X128.259Y-117.157
X130.534Y-117.157
X131.953Y-124.968
X131.953Y-128.468
X136.017Y-115.697
X139.517Y-115.697
T4
X98.247Y-115.532
X98.247Y-127.532
X120.269Y-95.567
X120.269Y-98.565
X120.269Y-101.587
X120.269Y-104.584
X120.269Y-107.607
X138.76Y-95.567
X138.786Y-107.582
X209.296Y-60.833
X209.296Y-63.373
X209.296Y-65.913
T5
X89.868Y-108.966
X94.869Y-108.966
X176.403Y-61.468
X176.403Y-64.008
T6
X170.561Y-100.838
X170.561Y-103.378
X170.561Y-105.918
X170.561Y-108.458
X170.561Y-110.998
X170.561Y-113.538
X170.561Y-116.078
X170.561Y-118.618
X170.561Y-121.158
X170.561Y-123.698
X186.055Y-128.905
X186.817Y-88.519
X188.595Y-128.905
X189.357Y-88.519
X191.135Y-128.905
X191.897Y-88.519
X193.675Y-128.905
X208.153Y-101.854
X208.153Y-104.394
X208.153Y-106.934
X208.153Y-109.474
X208.153Y-112.014
X208.153Y-114.554
X208.153Y-117.094
X208.153Y-119.634
X208.153Y-122.174
X208.153Y-124.714
T7
X96.297Y-121.482
X110.447Y-127.532
X110.497Y-115.482
T8
X89.789Y-94.361
X89.789Y-99.365
X89.789Y-122.25
X89.789Y-127.254
T0
M30
