M48
;DRILL file {KiCad 201610091317+7290~55~ubuntu16.04.1-} date Sat Oct 15 19:35:23 2016
;FORMAT={-:-/ absolute / metric / decimal}
FMAT,2
METRIC,TZ
T1C0.400
T2C0.600
T3C1.000
T4C1.001
T5C1.016
T6C6.000
%
G90
G05
M71
T1
X116.078Y-66.548
X116.713Y-81.026
X118.364Y-83.693
X120.269Y-118.237
X121.031Y-124.079
X121.92Y-77.978
X122.047Y-118.872
X123.19Y-66.802
X123.825Y-114.681
X123.825Y-122.555
X124.46Y-67.691
X124.881Y-91.146
X126.492Y-122.428
X126.746Y-111.125
X127.Y-86.36
X128.143Y-109.982
X130.683Y-105.346
X132.08Y-71.247
X132.398Y-114.617
X133.096Y-62.484
X133.604Y-66.802
X134.239Y-105.664
X135.255Y-111.379
X136.144Y-61.976
X136.144Y-105.918
X136.271Y-63.881
X136.271Y-117.221
X136.525Y-60.198
X139.319Y-89.281
X140.208Y-114.3
X140.97Y-101.346
X140.97Y-104.521
X151.638Y-97.536
T2
X115.57Y-127.762
X116.82Y-127.762
X118.07Y-127.762
T3
X154.051Y-59.436
X154.051Y-61.976
X154.051Y-64.516
T4
X121.158Y-60.071
X121.158Y-62.611
T5
X115.316Y-99.441
X115.316Y-101.981
X115.316Y-104.521
X115.316Y-107.061
X115.316Y-109.601
X115.316Y-112.141
X115.316Y-114.681
X115.316Y-117.221
X115.316Y-119.761
X115.316Y-122.301
X130.429Y-54.991
X131.572Y-87.122
X132.969Y-54.991
X134.112Y-87.122
X135.509Y-54.991
X136.652Y-87.122
X138.049Y-54.991
X152.908Y-100.457
X152.908Y-102.997
X152.908Y-105.537
X152.908Y-108.077
X152.908Y-110.617
X152.908Y-113.157
X152.908Y-115.697
X152.908Y-118.237
X152.908Y-120.777
X152.908Y-123.317
T6
X134.239Y-49.022
X134.239Y-132.08
T0
M30
