G04 #@! TF.FileFunction,Soldermask,Bot*
%FSLAX46Y46*%
G04 Gerber Fmt 4.6, Leading zero omitted, Abs format (unit mm)*
G04 Created by KiCad (PCBNEW 201610091317+7290~55~ubuntu16.04.1-) date Sat Oct 15 19:35:44 2016*
%MOMM*%
%LPD*%
G01*
G04 APERTURE LIST*
%ADD10C,0.100000*%
%ADD11C,7.400000*%
%ADD12R,1.350000X1.650000*%
%ADD13O,1.350000X1.650000*%
%ADD14R,2.400000X2.400000*%
%ADD15C,2.400000*%
%ADD16C,0.900000*%
%ADD17C,1.000000*%
%ADD18R,1.500000X1.900000*%
%ADD19R,2.432000X2.127200*%
%ADD20O,2.432000X2.127200*%
%ADD21C,1.924000*%
%ADD22O,2.127200X2.432000*%
%ADD23R,2.127200X2.432000*%
G04 APERTURE END LIST*
D10*
D11*
X134239000Y-49022000D03*
X134239000Y-132080000D03*
D12*
X115570000Y-127762000D03*
D13*
X116820000Y-127762000D03*
X118070000Y-127762000D03*
D14*
X121158000Y-62611000D03*
D15*
X121158000Y-60071000D03*
D16*
X135444000Y-63668000D03*
X132944000Y-63668000D03*
D17*
X132969000Y-61468000D03*
X132944000Y-60268000D03*
X134194000Y-60268000D03*
X135444000Y-60268000D03*
X135394000Y-61468000D03*
D18*
X136144000Y-103886000D03*
X134340600Y-103886000D03*
X132537200Y-103886000D03*
X132537200Y-113385600D03*
X134340600Y-113385600D03*
D19*
X115316000Y-122301000D03*
D20*
X115316000Y-119761000D03*
X115316000Y-117221000D03*
X115316000Y-114681000D03*
X115316000Y-112141000D03*
X115316000Y-109601000D03*
X115316000Y-107061000D03*
X115316000Y-104521000D03*
X115316000Y-101981000D03*
X115316000Y-99441000D03*
D19*
X152908000Y-100457000D03*
D20*
X152908000Y-102997000D03*
X152908000Y-105537000D03*
X152908000Y-108077000D03*
X152908000Y-110617000D03*
X152908000Y-113157000D03*
X152908000Y-115697000D03*
X152908000Y-118237000D03*
X152908000Y-120777000D03*
X152908000Y-123317000D03*
D21*
X154051000Y-59436000D03*
X154051000Y-61976000D03*
X154051000Y-64516000D03*
D22*
X131572000Y-87122000D03*
X134112000Y-87122000D03*
D23*
X136652000Y-87122000D03*
X138049000Y-54991000D03*
D22*
X135509000Y-54991000D03*
X132969000Y-54991000D03*
X130429000Y-54991000D03*
M02*
