G04 #@! TF.FileFunction,Copper,L1,Top,Signal*
%FSLAX46Y46*%
G04 Gerber Fmt 4.6, Leading zero omitted, Abs format (unit mm)*
G04 Created by KiCad (PCBNEW 201610091317+7290~55~ubuntu16.04.1-) date Sat Oct 15 14:53:22 2016*
%MOMM*%
%LPD*%
G01*
G04 APERTURE LIST*
%ADD10C,0.100000*%
%ADD11R,1.200000X0.900000*%
%ADD12C,7.000000*%
%ADD13R,0.800100X0.800100*%
%ADD14R,0.750000X0.800000*%
%ADD15R,0.950000X1.250000*%
%ADD16O,0.950000X1.250000*%
%ADD17R,1.060000X0.650000*%
%ADD18R,2.000000X2.000000*%
%ADD19C,2.000000*%
%ADD20R,0.750000X1.200000*%
%ADD21R,0.900000X1.200000*%
%ADD22R,0.650000X1.060000*%
%ADD23R,0.797560X0.797560*%
%ADD24R,1.500000X1.000000*%
%ADD25R,2.032000X1.727200*%
%ADD26O,2.032000X1.727200*%
%ADD27C,1.524000*%
%ADD28O,1.727200X2.032000*%
%ADD29R,1.727200X2.032000*%
%ADD30R,0.900000X1.000000*%
%ADD31C,0.600000*%
%ADD32C,0.400000*%
G04 APERTURE END LIST*
D10*
D11*
X134788000Y-116776500D03*
X132588000Y-116776500D03*
D12*
X134239000Y-49022000D03*
X134239000Y-132080000D03*
D13*
X120269000Y-67183000D03*
X122169000Y-67183000D03*
X121219000Y-65184020D03*
D14*
X120904000Y-119761000D03*
X120904000Y-118261000D03*
D11*
X134788000Y-118999000D03*
X132588000Y-118999000D03*
D15*
X115570000Y-127762000D03*
D16*
X116820000Y-127762000D03*
X118070000Y-127762000D03*
D17*
X119847000Y-123063000D03*
X119847000Y-124013000D03*
X119847000Y-124963000D03*
X122047000Y-124963000D03*
X122047000Y-123063000D03*
D18*
X121158000Y-62611000D03*
D19*
X121158000Y-60071000D03*
D11*
X120101000Y-69215000D03*
X122301000Y-69215000D03*
D20*
X137414000Y-63815000D03*
X137414000Y-61915000D03*
X139573000Y-63876000D03*
X139573000Y-61976000D03*
D21*
X127508000Y-70104000D03*
X127508000Y-72304000D03*
D11*
X131622800Y-65862200D03*
X133822800Y-65862200D03*
X133822800Y-67792600D03*
X131622800Y-67792600D03*
D21*
X141986000Y-64176000D03*
X141986000Y-61976000D03*
X135763000Y-70037600D03*
X135763000Y-72237600D03*
D22*
X131561800Y-72347000D03*
X132511800Y-72347000D03*
X133461800Y-72347000D03*
X133461800Y-70147000D03*
X131561800Y-70147000D03*
D23*
X115963700Y-81915000D03*
X117462300Y-81915000D03*
D13*
X122682000Y-74808000D03*
X122682000Y-76708000D03*
X124680980Y-75758000D03*
D21*
X124714000Y-80940000D03*
X124714000Y-78740000D03*
D14*
X127254000Y-125095000D03*
X127254000Y-123595000D03*
D21*
X124968000Y-122936000D03*
X124968000Y-125136000D03*
D14*
X119253000Y-119761000D03*
X119253000Y-118261000D03*
X120269000Y-78589000D03*
X120269000Y-77089000D03*
D11*
X117729000Y-80264000D03*
X115529000Y-80264000D03*
D21*
X120015000Y-87163000D03*
X120015000Y-84963000D03*
X120396000Y-72628400D03*
X120396000Y-74828400D03*
D13*
X115697000Y-71755000D03*
X115697000Y-73655000D03*
X117695980Y-72705000D03*
D24*
X142841000Y-103934000D03*
X142841000Y-102434000D03*
X142841000Y-100934000D03*
X142841000Y-105434000D03*
X142841000Y-106934000D03*
X142841000Y-108434000D03*
X142841000Y-112934000D03*
X142841000Y-111434000D03*
X142841000Y-109934000D03*
X124841000Y-109934000D03*
X124841000Y-111434000D03*
X124841000Y-112934000D03*
X124841000Y-108434000D03*
X124841000Y-106934000D03*
X124841000Y-105434000D03*
X124841000Y-100934000D03*
X124841000Y-102434000D03*
X124841000Y-103934000D03*
D25*
X115316000Y-122301000D03*
D26*
X115316000Y-119761000D03*
X115316000Y-117221000D03*
X115316000Y-114681000D03*
X115316000Y-112141000D03*
X115316000Y-109601000D03*
X115316000Y-107061000D03*
X115316000Y-104521000D03*
X115316000Y-101981000D03*
X115316000Y-99441000D03*
D25*
X152908000Y-100457000D03*
D26*
X152908000Y-102997000D03*
X152908000Y-105537000D03*
X152908000Y-108077000D03*
X152908000Y-110617000D03*
X152908000Y-113157000D03*
X152908000Y-115697000D03*
X152908000Y-118237000D03*
X152908000Y-120777000D03*
X152908000Y-123317000D03*
D21*
X154178000Y-67437000D03*
X154178000Y-69637000D03*
X125349000Y-72390000D03*
X125349000Y-70190000D03*
D27*
X154051000Y-59436000D03*
X154051000Y-61976000D03*
X154051000Y-64516000D03*
D28*
X131572000Y-87122000D03*
X134112000Y-87122000D03*
D29*
X136652000Y-87122000D03*
D30*
X116027000Y-64516000D03*
X114427000Y-64516000D03*
X116027000Y-68616000D03*
X114427000Y-68616000D03*
D29*
X138049000Y-54991000D03*
D28*
X135509000Y-54991000D03*
X132969000Y-54991000D03*
X130429000Y-54991000D03*
D31*
X136271000Y-117221000D03*
X121920000Y-77978000D03*
X116078000Y-66548000D03*
X123190000Y-66802000D03*
X132080000Y-71247000D03*
X151638000Y-97536000D03*
X140208000Y-114300000D03*
X123825000Y-114681000D03*
X120269000Y-118237000D03*
X126492000Y-122428000D03*
X123825000Y-122555000D03*
X139319000Y-89281000D03*
X121031000Y-124079000D03*
X133604000Y-66802000D03*
X136271000Y-63881000D03*
X136144000Y-61976000D03*
X149352000Y-121031000D03*
X130683000Y-105346500D03*
X122047000Y-118872000D03*
X133096000Y-62484000D03*
X136144000Y-105918000D03*
X136525000Y-60198000D03*
X124881449Y-91145551D03*
X126746000Y-111125000D03*
X128143000Y-109982000D03*
X132397500Y-114617500D03*
X127000000Y-86360000D03*
X124460000Y-67691000D03*
X118364000Y-83693000D03*
X140970000Y-101346000D03*
X140970000Y-104521000D03*
X116713000Y-81026000D03*
X135255000Y-111379000D03*
X134239000Y-105664000D03*
D32*
X134788000Y-116776500D02*
X135826500Y-116776500D01*
X135826500Y-116776500D02*
X136271000Y-117221000D01*
X120269000Y-78589000D02*
X121309000Y-78589000D01*
X121309000Y-78589000D02*
X121920000Y-77978000D01*
X122682000Y-76708000D02*
X122682000Y-77216000D01*
X122682000Y-77216000D02*
X121920000Y-77978000D01*
X116027000Y-64516000D02*
X116027000Y-66497000D01*
X116027000Y-66497000D02*
X116078000Y-66548000D01*
X116027000Y-68616000D02*
X116027000Y-66599000D01*
X116027000Y-66599000D02*
X116078000Y-66548000D01*
X122169000Y-67183000D02*
X122809000Y-67183000D01*
X122809000Y-67183000D02*
X123190000Y-66802000D01*
X132511800Y-72347000D02*
X132511800Y-71678800D01*
X132511800Y-71678800D02*
X132080000Y-71247000D01*
X142841000Y-100934000D02*
X148240000Y-100934000D01*
X148240000Y-100934000D02*
X151638000Y-97536000D01*
X142841000Y-108434000D02*
X142591000Y-108434000D01*
X142591000Y-108434000D02*
X140208000Y-110817000D01*
X140208000Y-110817000D02*
X140208000Y-114300000D01*
X124841000Y-112934000D02*
X124841000Y-113665000D01*
X124841000Y-113665000D02*
X123825000Y-114681000D01*
X119253000Y-118261000D02*
X120245000Y-118261000D01*
X120245000Y-118261000D02*
X120269000Y-118237000D01*
X120904000Y-118261000D02*
X120293000Y-118261000D01*
X120293000Y-118261000D02*
X120269000Y-118237000D01*
X127254000Y-123595000D02*
X127254000Y-123190000D01*
X127254000Y-123190000D02*
X126492000Y-122428000D01*
X124968000Y-122936000D02*
X124206000Y-122936000D01*
X124206000Y-122936000D02*
X123825000Y-122555000D01*
X139319000Y-89281000D02*
X142841000Y-92803000D01*
X142841000Y-92803000D02*
X142841000Y-100934000D01*
X116027000Y-64516000D02*
X116332000Y-64516000D01*
X121031000Y-124079000D02*
X119913000Y-124079000D01*
X119913000Y-124079000D02*
X119847000Y-124013000D01*
X115570000Y-127612000D02*
X115570000Y-127762000D01*
X133604000Y-66802000D02*
X133604000Y-66081000D01*
X133604000Y-66081000D02*
X133822800Y-65862200D01*
X136271000Y-63881000D02*
X137348000Y-63881000D01*
X137348000Y-63881000D02*
X137414000Y-63815000D01*
X136144000Y-61976000D02*
X137353000Y-61976000D01*
X137353000Y-61976000D02*
X137414000Y-61915000D01*
X122661600Y-74828400D02*
X122682000Y-74808000D01*
X120396000Y-74828400D02*
X120396000Y-76962000D01*
X120396000Y-76962000D02*
X120269000Y-77089000D01*
X120396000Y-74828400D02*
X122661600Y-74828400D01*
X127254000Y-125095000D02*
X145288000Y-125095000D01*
X145288000Y-125095000D02*
X149352000Y-121031000D01*
X138049000Y-54991000D02*
X144526000Y-54991000D01*
X144526000Y-54991000D02*
X154051000Y-64516000D01*
X153060400Y-118237000D02*
X152908000Y-118237000D01*
X118070000Y-127762000D02*
X118070000Y-126740000D01*
X118070000Y-126740000D02*
X119847000Y-124963000D01*
X119847000Y-124963000D02*
X119356998Y-124963000D01*
X119356998Y-124963000D02*
X118991999Y-124598001D01*
X118991999Y-124598001D02*
X118991999Y-123427999D01*
X118991999Y-123427999D02*
X119356998Y-123063000D01*
X119356998Y-123063000D02*
X119847000Y-123063000D01*
X124968000Y-125136000D02*
X124118000Y-125136000D01*
X124118000Y-125136000D02*
X123566000Y-125688000D01*
X123566000Y-125688000D02*
X120777000Y-125688000D01*
X120777000Y-125688000D02*
X120052000Y-124963000D01*
X120052000Y-124963000D02*
X119847000Y-124963000D01*
X127254000Y-125095000D02*
X125009000Y-125095000D01*
X125009000Y-125095000D02*
X124968000Y-125136000D01*
X154178000Y-64643000D02*
X154051000Y-64516000D01*
X130175000Y-120459500D02*
X133177500Y-120459500D01*
X126047500Y-120459500D02*
X130175000Y-120459500D01*
X130683000Y-105346500D02*
X130683000Y-105770764D01*
X130683000Y-105770764D02*
X130175000Y-106278764D01*
X130175000Y-106278764D02*
X130175000Y-120459500D01*
X134788000Y-118999000D02*
X151130000Y-118999000D01*
X151492000Y-119361000D02*
X151492000Y-119513400D01*
X151130000Y-118999000D02*
X151492000Y-119361000D01*
X151492000Y-119513400D02*
X152755600Y-120777000D01*
X152755600Y-120777000D02*
X152908000Y-120777000D01*
X133177500Y-120459500D02*
X134638000Y-118999000D01*
X134638000Y-118999000D02*
X134788000Y-118999000D01*
X124460000Y-118872000D02*
X126047500Y-120459500D01*
X122047000Y-118872000D02*
X124460000Y-118872000D01*
X129404800Y-72304000D02*
X131561800Y-70147000D01*
X127508000Y-72304000D02*
X129404800Y-72304000D01*
X120904000Y-119761000D02*
X121285000Y-119761000D01*
X122047000Y-118872000D02*
X121285000Y-119634000D01*
X121285000Y-119634000D02*
X121285000Y-119761000D01*
X115316000Y-99441000D02*
X115316000Y-88812000D01*
X115316000Y-88812000D02*
X119165000Y-84963000D01*
X119165000Y-84963000D02*
X120015000Y-84963000D01*
X120015000Y-83963000D02*
X120015000Y-84963000D01*
X123932062Y-80045938D02*
X120015000Y-83963000D01*
X125349000Y-72390000D02*
X125349000Y-73390000D01*
X125349000Y-73390000D02*
X123932062Y-74806938D01*
X123932062Y-74806938D02*
X123932062Y-80045938D01*
X124841000Y-100934000D02*
X116809000Y-100934000D01*
X116732000Y-100857000D02*
X116732000Y-100704600D01*
X116809000Y-100934000D02*
X116732000Y-100857000D01*
X116732000Y-100704600D02*
X115468400Y-99441000D01*
X115468400Y-99441000D02*
X115316000Y-99441000D01*
X120904000Y-119761000D02*
X120904000Y-121920000D01*
X120904000Y-121920000D02*
X122047000Y-123063000D01*
X119253000Y-119761000D02*
X120904000Y-119761000D01*
X115963700Y-81915000D02*
X115963700Y-82713780D01*
X115963700Y-82713780D02*
X118212920Y-84963000D01*
X118212920Y-84963000D02*
X119165000Y-84963000D01*
X125349000Y-72390000D02*
X127422000Y-72390000D01*
X127422000Y-72390000D02*
X127508000Y-72304000D01*
X132796001Y-62783999D02*
X133096000Y-62484000D01*
X132547801Y-63032199D02*
X132796001Y-62783999D01*
X131561800Y-70147000D02*
X131561800Y-69488602D01*
X131561800Y-69488602D02*
X132547801Y-68502601D01*
X132547801Y-68502601D02*
X132547801Y-63032199D01*
X139573000Y-63876000D02*
X140086000Y-63876000D01*
X140086000Y-63876000D02*
X141986000Y-61976000D01*
X136525000Y-60198000D02*
X137795000Y-60198000D01*
X137795000Y-60198000D02*
X139573000Y-61976000D01*
X117729000Y-80264000D02*
X117729000Y-81648300D01*
X117729000Y-81648300D02*
X117462300Y-81915000D01*
X115697000Y-73655000D02*
X115697000Y-78382000D01*
X115697000Y-78382000D02*
X117579000Y-80264000D01*
X117579000Y-80264000D02*
X117729000Y-80264000D01*
X121158000Y-62611000D02*
X121158000Y-65123020D01*
X121158000Y-65123020D02*
X121219000Y-65184020D01*
X121158000Y-60071000D02*
X125349000Y-64262000D01*
X125349000Y-64262000D02*
X125349000Y-70190000D01*
X121244000Y-60157000D02*
X121158000Y-60071000D01*
X124714000Y-90978102D02*
X124881449Y-91145551D01*
X124714000Y-80940000D02*
X124714000Y-90978102D01*
X124841000Y-111434000D02*
X121103000Y-111434000D01*
X121103000Y-111434000D02*
X116732000Y-115805000D01*
X116732000Y-115805000D02*
X116732000Y-115957400D01*
X116732000Y-115957400D02*
X115468400Y-117221000D01*
X115468400Y-117221000D02*
X115316000Y-117221000D01*
X124841000Y-111434000D02*
X126437000Y-111434000D01*
X126437000Y-111434000D02*
X126746000Y-111125000D01*
X128143000Y-109982000D02*
X124889000Y-109982000D01*
X124889000Y-109982000D02*
X124841000Y-109934000D01*
X132397500Y-114617500D02*
X132397500Y-116586000D01*
X132397500Y-116586000D02*
X132588000Y-116776500D01*
X124841000Y-109934000D02*
X120063000Y-109934000D01*
X120063000Y-109934000D02*
X116732000Y-113265000D01*
X116732000Y-113265000D02*
X116732000Y-113417400D01*
X115468400Y-114681000D02*
X115316000Y-114681000D01*
X116732000Y-113417400D02*
X115468400Y-114681000D01*
X113900000Y-123817000D02*
X113900000Y-120650000D01*
X113900000Y-120650000D02*
X113900000Y-113404600D01*
X116820000Y-127762000D02*
X116820000Y-126737000D01*
X116820000Y-126737000D02*
X113900000Y-123817000D01*
X113900000Y-113404600D02*
X115163600Y-112141000D01*
X115163600Y-112141000D02*
X115316000Y-112141000D01*
X124841000Y-108434000D02*
X119023000Y-108434000D01*
X119023000Y-108434000D02*
X116732000Y-110725000D01*
X116732000Y-110725000D02*
X116732000Y-110877400D01*
X116732000Y-110877400D02*
X115468400Y-112141000D01*
X115468400Y-112141000D02*
X115316000Y-112141000D01*
X124841000Y-106934000D02*
X117983000Y-106934000D01*
X117983000Y-106934000D02*
X116732000Y-108185000D01*
X116732000Y-108337400D02*
X115468400Y-109601000D01*
X115468400Y-109601000D02*
X115316000Y-109601000D01*
X116732000Y-108185000D02*
X116732000Y-108337400D01*
X124587000Y-107188000D02*
X124841000Y-106934000D01*
X127000000Y-86360000D02*
X127000000Y-104425000D01*
X125991000Y-105434000D02*
X124841000Y-105434000D01*
X127000000Y-104425000D02*
X125991000Y-105434000D01*
X124841000Y-105434000D02*
X116943000Y-105434000D01*
X116943000Y-105434000D02*
X116732000Y-105645000D01*
X116732000Y-105645000D02*
X116732000Y-105797400D01*
X116732000Y-105797400D02*
X115468400Y-107061000D01*
X115468400Y-107061000D02*
X115316000Y-107061000D01*
X124460000Y-68453000D02*
X123698000Y-69215000D01*
X123698000Y-69215000D02*
X122301000Y-69215000D01*
X124460000Y-67691000D02*
X124460000Y-68453000D01*
X123407051Y-78649949D02*
X118364000Y-83693000D01*
X122301000Y-70065000D02*
X123407051Y-71171051D01*
X123407051Y-71171051D02*
X123407051Y-78649949D01*
X122301000Y-69215000D02*
X122301000Y-70065000D01*
X124841000Y-103934000D02*
X115903000Y-103934000D01*
X115903000Y-103934000D02*
X115316000Y-104521000D01*
X124841000Y-102434000D02*
X125091000Y-102434000D01*
X125916001Y-101608999D02*
X125916001Y-93214001D01*
X125091000Y-102434000D02*
X125916001Y-101608999D01*
X125916001Y-93214001D02*
X120015000Y-87313000D01*
X120015000Y-87313000D02*
X120015000Y-87163000D01*
X115316000Y-101981000D02*
X115163600Y-101981000D01*
X124841000Y-102434000D02*
X115769000Y-102434000D01*
X115769000Y-102434000D02*
X115316000Y-101981000D01*
X140970000Y-101346000D02*
X142058000Y-102434000D01*
X142058000Y-102434000D02*
X142841000Y-102434000D01*
X142841000Y-102434000D02*
X150931000Y-102434000D01*
X150931000Y-102434000D02*
X151492000Y-101873000D01*
X151492000Y-101873000D02*
X151492000Y-101720600D01*
X151492000Y-101720600D02*
X152755600Y-100457000D01*
X152755600Y-100457000D02*
X152908000Y-100457000D01*
X142591000Y-102434000D02*
X142841000Y-102434000D01*
X138303000Y-99731002D02*
X138303000Y-75777600D01*
X138303000Y-75777600D02*
X135763000Y-73237600D01*
X135763000Y-73237600D02*
X135763000Y-72237600D01*
X142841000Y-103934000D02*
X142505998Y-103934000D01*
X142505998Y-103934000D02*
X138303000Y-99731002D01*
X142841000Y-103934000D02*
X151971000Y-103934000D01*
X151971000Y-103934000D02*
X152908000Y-102997000D01*
X142591000Y-103934000D02*
X142841000Y-103934000D01*
X131561800Y-72347000D02*
X131561800Y-72837002D01*
X131561800Y-72837002D02*
X131926799Y-73202001D01*
X131926799Y-73202001D02*
X133948599Y-73202001D01*
X133948599Y-73202001D02*
X134913000Y-72237600D01*
X134913000Y-72237600D02*
X135763000Y-72237600D01*
X114427000Y-68616000D02*
X114427000Y-71285050D01*
X114427000Y-71285050D02*
X114896950Y-71755000D01*
X114896950Y-71755000D02*
X115697000Y-71755000D01*
X114427000Y-64516000D02*
X114427000Y-65416000D01*
X114427000Y-65416000D02*
X114427000Y-68616000D01*
X115659000Y-71717000D02*
X115697000Y-71755000D01*
X140970000Y-104521000D02*
X141883000Y-105434000D01*
X115697000Y-71755000D02*
X114529000Y-72923000D01*
X114529000Y-72923000D02*
X114529000Y-78414000D01*
X114529000Y-78414000D02*
X115529000Y-79414000D01*
X115529000Y-79414000D02*
X115529000Y-80264000D01*
X142841000Y-105434000D02*
X152805000Y-105434000D01*
X152805000Y-105434000D02*
X152908000Y-105537000D01*
X141883000Y-105434000D02*
X142841000Y-105434000D01*
X115529000Y-80264000D02*
X115951000Y-80264000D01*
X115951000Y-80264000D02*
X116713000Y-81026000D01*
X115679000Y-80264000D02*
X115529000Y-80264000D01*
X142841000Y-105434000D02*
X142591000Y-105434000D01*
X115379000Y-80264000D02*
X115529000Y-80264000D01*
X115661000Y-71719000D02*
X115697000Y-71755000D01*
X142841000Y-106934000D02*
X151765000Y-106934000D01*
X151765000Y-106934000D02*
X152908000Y-108077000D01*
X135255000Y-111379000D02*
X139700000Y-106934000D01*
X139700000Y-106934000D02*
X142841000Y-106934000D01*
X142841000Y-109934000D02*
X152225000Y-109934000D01*
X152225000Y-109934000D02*
X152908000Y-110617000D01*
X142841000Y-111434000D02*
X151185000Y-111434000D01*
X151185000Y-111434000D02*
X151492000Y-111741000D01*
X151492000Y-111741000D02*
X151492000Y-111893400D01*
X151492000Y-111893400D02*
X152755600Y-113157000D01*
X152755600Y-113157000D02*
X152908000Y-113157000D01*
X154178000Y-69637000D02*
X154178000Y-69787000D01*
X154178000Y-69787000D02*
X154324000Y-69933000D01*
X154324000Y-69933000D02*
X154324000Y-114433400D01*
X154324000Y-114433400D02*
X153060400Y-115697000D01*
X153060400Y-115697000D02*
X152908000Y-115697000D01*
X142841000Y-112934000D02*
X150145000Y-112934000D01*
X152755600Y-115697000D02*
X152908000Y-115697000D01*
X150145000Y-112934000D02*
X151492000Y-114281000D01*
X151492000Y-114281000D02*
X151492000Y-114433400D01*
X151492000Y-114433400D02*
X152755600Y-115697000D01*
X124680980Y-75758000D02*
X124680980Y-78706980D01*
X124680980Y-78706980D02*
X124714000Y-78740000D01*
X117695980Y-72705000D02*
X120319400Y-72705000D01*
X120319400Y-72705000D02*
X120396000Y-72628400D01*
X120269000Y-67183000D02*
X120269000Y-69047000D01*
X120269000Y-69047000D02*
X120101000Y-69215000D01*
X131622800Y-67792600D02*
X129669400Y-67792600D01*
X129669400Y-67792600D02*
X127508000Y-69954000D01*
X127508000Y-69954000D02*
X127508000Y-70104000D01*
X131622800Y-65862200D02*
X131622800Y-67792600D01*
X132811799Y-68981080D02*
X133072812Y-68720067D01*
X133461800Y-71587002D02*
X132811799Y-70937001D01*
X133072812Y-68720067D02*
X133745333Y-68720067D01*
X133461800Y-72347000D02*
X133461800Y-71587002D01*
X132811799Y-70937001D02*
X132811799Y-68981080D01*
X133745333Y-68720067D02*
X133822800Y-68642600D01*
X133822800Y-68642600D02*
X133822800Y-67792600D01*
X135763000Y-70037600D02*
X133571200Y-70037600D01*
X133571200Y-70037600D02*
X133461800Y-70147000D01*
X141986000Y-64176000D02*
X141986000Y-64326000D01*
X141986000Y-64326000D02*
X136274400Y-70037600D01*
X136274400Y-70037600D02*
X135763000Y-70037600D01*
X154178000Y-67437000D02*
X154178000Y-66437000D01*
X154178000Y-66437000D02*
X155138001Y-65476999D01*
X155138001Y-65476999D02*
X155138001Y-60523001D01*
X155138001Y-60523001D02*
X154812999Y-60197999D01*
X154812999Y-60197999D02*
X154051000Y-59436000D01*
X154051000Y-67310000D02*
X154178000Y-67437000D01*
X131127500Y-118538500D02*
X131127500Y-108775500D01*
X131127500Y-108775500D02*
X134239000Y-105664000D01*
X132588000Y-118999000D02*
X131588000Y-118999000D01*
X131588000Y-118999000D02*
X131127500Y-118538500D01*
X132588000Y-118999000D02*
X132438000Y-118999000D01*
M02*
